<svg width="130" height="130" viewBox="0 0 130 130" fill="none" xmlns="http://www.w3.org/2000/svg">
<rect width="130" height="130" rx="10" fill="white"/>
<rect width="117" height="117" transform="translate(7 7)" fill="white"/>
<g clip-path="url(#clip0_5304_93054)">
<path d="M66.7657 118C66.5428 117.99 66.3684 117.855 66.3781 117.691C66.4459 114.694 64.2751 112.574 62.3562 110.695C60.5149 108.883 58.9159 107.322 60.3793 105.626C61.6294 104.171 64.6433 103.506 67.8414 102.802C72.1927 101.839 76.3017 100.933 75.6815 98.1863C75.2066 96.0759 70.6421 94.7267 66.3296 94.322C66.1164 94.2931 65.9613 94.1389 65.9904 93.9751C66.0098 93.8016 66.2133 93.6859 66.4168 93.7052C70.8747 94.1196 75.8559 95.488 76.4374 98.0803C77.1836 101.376 72.5416 102.407 68.0449 103.4C65.1279 104.045 62.1043 104.71 61.0092 105.982C59.9335 107.235 60.9898 108.382 62.9571 110.309C64.8565 112.169 67.2115 114.482 67.1533 117.701C67.1436 117.874 66.9789 118 66.7657 118Z" fill="#445971"/>
<path d="M68.5776 91.5458C66.9301 92.548 65.2536 94.4657 67.2499 95.6992C69.9344 97.376 69.8665 99.5828 68.0446 98.9468C66.1936 98.2915 64.6721 97.7518 62.4431 98.8312C60.0397 99.9972 59.0706 97.8097 60.6987 96.6436C63.4025 94.7066 63.9937 93.1744 61.8907 91.5361C64.7302 91.7289 68.5776 91.5458 68.5776 91.5458Z" fill="#5E8BB8"/>
<path d="M68.9069 92.029C82.5519 87.8948 99.2691 70.404 97.922 45.8881C96.5168 20.1675 76.4562 14 65.7379 14C55.6979 14 33.137 21.2083 34.0286 48.9044C34.8523 74.6057 52.0831 88.3574 61.6095 92.1832C65.0886 93.0986 67.1625 92.559 68.9069 92.029Z" fill="#6BB0DC"/>
<path d="M89.792 69.6322C80.9925 84.1548 60.6509 84.9547 49.7872 72.2052C38.9331 59.4751 37.0046 46.8027 37.0046 46.8027C37.0046 46.8027 36.0355 67.329 51.5703 82.6129C67.1051 97.9065 85.2566 81.1096 89.792 69.6322Z" fill="#5E8BB8"/>
<path d="M77.5517 18.2303C70.5451 15.3875 50.1647 13.3156 50.0678 33.9575C49.9321 62.1162 85.9055 80.1369 92.9606 63.6195C100.646 45.5698 95.0151 25.3423 77.5517 18.2303Z" fill="#79BFEA"/>
<path d="M78.0075 28.5621C78.0172 25.1411 77.7749 21.1707 76.4473 19.1855C82.6399 21.4502 87.7277 25.2856 90.6931 30.7689C90.2861 31.4532 88.8615 33.766 86.6229 36.5317C84.7525 33.3034 82.0196 30.528 78.0075 28.5621ZM87.4757 50.3219C88.2025 50.6014 88.9197 50.9098 89.5884 51.2374C89.3461 47.3924 88.7646 43.4895 87.1559 39.9721C85.6538 41.1574 84.1807 42.2656 82.9694 43.1522C84.927 45.1952 86.4485 47.826 87.4757 50.3219ZM77.9591 30.7593C77.7556 35.3079 77.019 39.3264 77.019 39.3264C77.019 39.3264 77.0481 39.4517 77.1353 39.7022C77.145 39.7022 77.145 39.7022 77.145 39.7022C78.7925 40.0299 80.2849 40.8297 81.6223 41.9187C83.2019 40.4635 84.6072 38.9506 85.8185 37.5147C84.0935 34.8549 81.5932 32.5228 77.9591 30.7593ZM87.9893 39.3168C89.5787 43.1811 90.2183 47.4791 90.4703 51.7096C92.6507 52.9239 93.7846 53.6466 94.87 54.7934C95.1026 48.6451 95.0638 41.832 92.6895 35.2597C91.3328 36.5799 89.6659 37.9772 87.9893 39.3168Z" fill="#E9EDF5"/>
<path d="M45.5518 26.7482C46.6857 27.5577 46.395 29.8898 44.8928 31.9424C43.4004 34.0047 41.2684 35.0069 40.1345 34.1878C39.0006 33.3783 39.3011 31.0462 40.7838 28.9936C42.2859 26.9409 44.418 25.9387 45.5518 26.7482Z" fill="#E9EDF5"/>
<path d="M39.8149 35.3832C40.3189 35.653 40.3286 36.6071 39.8343 37.5129C39.3401 38.4188 38.5357 38.9392 38.0318 38.6694C37.5278 38.4092 37.5278 37.4551 38.0124 36.5396C38.5066 35.6338 39.311 35.123 39.8149 35.3832Z" fill="#E9EDF5"/>
<path d="M65.0404 94.7655C64.3524 94.7655 63.5383 94.6499 62.6661 94.2547C62.3948 94.1295 62.2688 93.8114 62.3948 93.532C62.5207 93.2525 62.8406 93.1368 63.1216 93.2525C64.9823 94.1006 66.5232 93.426 66.591 93.397C66.8624 93.2718 67.1919 93.397 67.3179 93.6765C67.4438 93.9464 67.3275 94.2644 67.0562 94.3993C66.9981 94.4186 66.2034 94.7655 65.0404 94.7655Z" fill="#445971"/>
</g>
<defs>
<clipPath id="clip0_5304_93054">
<rect width="64" height="104" fill="white" transform="translate(34 14)"/>
</clipPath>
</defs>
</svg>
