<svg width="92" height="180" viewBox="0 0 92 180" fill="none" xmlns="http://www.w3.org/2000/svg">
<path d="M80.0599 85.1572C80.0599 85.1572 86.1786 94.8386 84.4004 102.281C83.3869 106.548 79.5054 106.548 75.5091 107.065C72.5454 111.178 70.0405 107.983 70.0405 107.983L72.9278 98.8948L74.381 92.5235L80.0599 85.1572Z" fill="#AD865E"/>
<path opacity="0.4" d="M80.0592 85.1572C80.0592 85.1572 81.8948 88.0655 83.2523 91.9112C80.7475 94.7429 77.2101 96.3118 73.3286 97.058L74.3611 92.5235L80.0592 85.1572Z" fill="#916C46"/>
<path d="M17.6868 69.2002C17.6868 69.2002 3.02103 76.3942 1.0707 89.4047C0.172018 95.336 1.96938 102.186 6.71137 104.558L5.52588 90.591L22.4479 80.4887L17.6868 69.2002Z" fill="#AD865E"/>
<path opacity="0.4" d="M12.9834 72.1467C15.6603 70.2142 17.7063 69.2002 17.7063 69.2002L22.4483 80.4887L20.5362 81.6367C17.037 79.2259 14.1498 76.2412 12.9834 72.1467Z" fill="#916C46"/>
<path d="M36.4063 61.6427C34.303 61.5661 31.454 61.5087 28.2417 62.8289C22.448 65.2205 15.7366 69.2194 15.7366 69.2194C15.2394 75.2271 21.9891 82.0003 22.7348 82.249C22.7157 82.249 31.6452 65.144 36.4063 61.6427Z" fill="#63739C"/>
<path d="M28.242 62.8294C28.4715 62.7337 28.72 62.6381 28.9495 62.5615C29.7526 64.0922 30.7086 65.5463 31.9132 66.8282C31.2057 67.8231 30.4983 68.8945 29.7908 70.0043C28.2611 68.2249 26.7506 66.1777 25.5269 64.0348C26.4447 63.5947 27.3433 63.1929 28.242 62.8294Z" fill="#2B3990"/>
<path d="M21.3582 66.0811C22.8879 69.0467 24.9147 71.7636 27.1328 74.3274C26.4253 75.5328 25.7752 76.6808 25.1824 77.7139C22.4864 74.7483 20.2683 71.2852 18.5283 67.5926C19.3696 67.1525 20.3257 66.6359 21.3582 66.0811Z" fill="#2B3990"/>
<path opacity="0.49" d="M19.083 78.3654C22.0276 76.1843 24.8575 73.8309 28.2228 72.5107C27.152 74.271 26.1578 75.993 25.3164 77.5045C23.8441 78.5759 22.4292 79.6665 21.0142 80.738C20.4406 80.0874 19.7522 79.2838 19.083 78.3654Z" fill="#E6E7E8"/>
<path opacity="0.49" d="M34.0928 63.9385C33.1941 65.0291 32.219 66.3492 31.2438 67.7651C25.9282 68.7026 21.951 72.8162 17.515 75.9158C16.9413 74.8826 16.4442 73.7729 16.1191 72.6249C21.7407 68.7983 27.4579 64.7612 34.0928 63.9385Z" fill="#E6E7E8"/>
<path d="M40.8424 170.3C40.4217 170.587 41.9131 174.05 41.1101 175.657C40.6894 176.48 37.4006 177.111 29.4081 177.188C22.1421 177.264 16.2337 177.398 16.5014 175.657C16.7118 174.394 20.4403 171.83 23.4423 170.568C23.4806 170.568 28.8344 173.055 40.8424 170.3Z" fill="#594A42"/>
<path d="M47.7638 171.448C47.7638 171.448 47.2476 175.179 48.1654 177.112C52.2955 179.771 65.6228 179.656 70.1354 178.91C74.6479 178.164 76.2923 176.365 73.0226 174.586C70.1354 173.017 68.1085 171.946 68.1085 171.946C68.1085 171.946 63.8446 173.859 56.8272 173.859C49.7907 173.859 47.7638 171.448 47.7638 171.448Z" fill="#594A42"/>
<path d="M62.7746 114.814C62.7746 114.814 64.419 163.909 68.683 172.175C68.683 172.175 61.7229 174.93 55.0115 174.681C44.9539 174.317 45.4892 169.917 46.2541 169.917C46.9998 169.917 39.4853 135.343 38.491 132.339L41.9901 168.176C41.9901 168.176 44.4949 168.424 42.7358 170.433C40.9767 172.442 31.7221 172.442 27.2096 172.194C22.6971 171.945 18.9493 171.447 20.7085 168.444C20.7085 168.444 12.4482 125.107 15.5267 106.605C15.5267 106.605 35.5655 122.027 62.7746 114.814Z" fill="#AA822C"/>
<path opacity="0.4" d="M56.4451 119.635C51.9899 117.243 45.1446 119.979 39.3318 118.258C35.2208 116.88 31.1098 117.569 26.9988 116.21C23.9204 115.521 21.1861 114.833 18.7768 112.785C18.2988 115.675 16.8073 118.219 14.8953 120.439C14.7423 115.177 14.8953 110.375 15.5263 106.605C15.5263 106.605 35.5459 122.027 62.7741 114.814C62.7741 114.814 62.9845 119.444 63.386 126.045C60.6326 124.208 58.4337 120.649 56.4451 119.635Z" fill="#9E8157"/>
<path opacity="0.4" d="M40.919 132.626C42.9649 132.282 46.5788 131.019 46.3876 129.335C46.5979 129.029 44.5711 129.68 40.2115 129.335C35.3356 128.953 32.3336 127.078 29.3317 124.648C29.2934 124.61 28.3947 125.03 30.2686 127.269C32.6396 130.12 34.9532 129.546 34.762 131.21C36.3108 134.195 40.7086 168.309 39.1025 171.83C40.8234 171.543 42.1809 171.103 42.7546 170.452C44.5137 168.443 42.0089 168.195 42.0089 168.195L38.5097 132.358C39.504 135.362 47.0186 169.936 46.2728 169.936C45.6992 169.936 45.1256 172.136 49.3704 173.628C47.9746 171.141 44.3416 143.59 40.919 132.626Z" fill="#9E8157"/>
<path d="M71.7419 73.0078C71.7419 73.0078 66.5601 66.4643 54.5713 64.2832C42.5825 62.102 38.1081 60.4374 35.1062 61.7959C32.1042 63.1543 15.316 91.5669 13.1362 103.028C10.9564 114.488 42.5825 121.032 64.3803 116.67C64.3803 116.67 65.7379 112.843 64.9348 108.768C64.0935 104.654 63.5581 83.1101 71.7419 73.0078Z" fill="#63739C"/>
<path d="M13.1171 103.009C13.3083 101.995 13.6142 100.828 14.0349 99.584C26.9989 113.494 47.401 113.609 65.1452 110.605C65.2217 111.906 65.1261 113.13 64.9731 114.125C47.6304 116.593 25.8325 116.88 13.0215 103.851C13.0406 103.564 13.0597 103.296 13.1171 103.009Z" fill="#2B3990"/>
<path d="M64.495 103.583C64.5333 104.807 64.5906 105.879 64.6671 106.759C49.1409 110.662 27.7828 108.462 15.0674 96.6948C15.4307 95.7572 15.8131 94.8006 16.2529 93.8057C29.6375 104.635 47.9745 106.759 64.495 103.583Z" fill="#2B3990"/>
<path d="M18.8917 88.0078C21.0524 89.3663 23.2895 90.629 25.6223 91.8918C37.4199 98.1292 51.3973 100.884 64.5908 97.517C64.5334 98.6075 64.4952 99.6407 64.476 100.636C63.6921 100.865 62.9655 101.152 62.2389 101.152C46.2155 103.506 29.8671 100.77 17.668 90.5717C18.0695 89.7107 18.4711 88.8688 18.8917 88.0078Z" fill="#2B3990"/>
<path d="M66.5989 84.0474C66.3312 85.0806 66.0826 86.1329 65.8723 87.1853C51.6463 90.2466 35.8332 87.3192 23.6914 78.8241C24.2077 77.8866 24.743 76.9491 25.2593 76.0498C38.1851 83.9709 52.3537 86.3243 66.5989 84.0474Z" fill="#2B3990"/>
<path d="M35.1063 61.7959C38.1083 60.4374 42.5826 62.102 54.5714 64.2832C60.824 65.412 65.2218 67.7463 67.9943 69.6978C56.4644 69.6022 44.7241 67.421 34.3032 62.4464C34.6092 62.102 34.896 61.8915 35.1063 61.7959Z" fill="#2B3990"/>
<path d="M71.6845 72.9305C71.7228 72.9688 71.7419 73.0071 71.7419 73.0071C71.1109 73.7915 70.5182 74.6525 69.9828 75.5709C56.1775 77.4077 42.8502 73.4854 30.6128 67.3437C31.2629 66.387 31.8557 65.5069 32.4102 64.7607C44.1504 71.4382 58.2999 73.5428 71.6845 72.9305Z" fill="#2B3990"/>
<path d="M68.587 78.3069C68.1089 79.3784 67.6883 80.4881 67.325 81.6361C53.5005 83.0519 38.8348 80.5072 27.3813 72.4905C27.8976 71.6486 28.3947 70.8259 28.8728 70.0605C40.5939 77.2737 54.8199 80.3924 68.587 78.3069Z" fill="#2B3990"/>
<path d="M21.7982 82.3262C34.7048 90.1133 50.4413 93.1172 65.2601 90.8404C65.088 92.1031 64.935 93.3659 64.8203 94.6096C49.4088 97.3456 33.4046 93.5381 20.2876 85.2535C20.7656 84.2586 21.2819 83.2828 21.7982 82.3262Z" fill="#2B3990"/>
<path opacity="0.49" d="M68.7972 70.3104C66.5026 73.4674 65.1068 77.5044 63.6154 84.7176C61.34 95.7191 60.078 106.472 61.5694 117.167C60.5752 117.32 59.5426 117.454 58.5292 117.569C56.1009 101.153 60.0589 83.9906 66.0246 68.4736C67.1145 69.0859 68.0514 69.7173 68.7972 70.3104Z" fill="#E6E7E8"/>
<path opacity="0.49" d="M63.7112 67.1916C55.4318 82.2685 53.7109 100.636 54.992 117.837C53.7301 117.913 52.4681 117.971 51.2061 117.99C51.0531 105.037 51.2252 81.0439 61.4932 66.2158C62.258 66.5411 63.0037 66.8664 63.7112 67.1916Z" fill="#E6E7E8"/>
<path opacity="0.49" d="M51.3971 63.6908C44.6474 80.8723 40.5364 99.24 39.5039 117.455C38.261 117.321 37.0182 117.149 35.7944 116.957C36.8652 98.4364 41.3013 80.0878 48.4525 63.0977C49.3703 63.289 50.3455 63.4803 51.3971 63.6908Z" fill="#E6E7E8"/>
<path opacity="0.49" d="M42.2575 61.8535C43.2135 62.0257 44.2843 62.2553 45.4698 62.4849C38.2421 79.6473 33.653 97.8429 32.4102 116.345C31.0143 116.058 29.6567 115.751 28.3374 115.388C28.3948 114.508 28.5095 113.647 28.7198 112.786C31.5688 94.9729 34.437 77.4279 42.2575 61.8535Z" fill="#E6E7E8"/>
<path opacity="0.49" d="M37.2095 61.3174C37.8979 61.2791 38.6627 61.3174 39.5423 61.4131C31.6262 78.0206 25.2398 95.8143 25.0677 114.412C23.7675 113.972 22.5246 113.493 21.3965 112.977C21.5112 99.9853 25.8325 87.721 30.4216 75.4567C32.9455 68.9132 35.6989 62.9628 37.2095 61.3174Z" fill="#E6E7E8"/>
<path opacity="0.49" d="M24.0926 78.1163C28.6434 70.0038 33.2133 63.0777 34.8959 61.9297C33.3089 65.0484 31.3968 68.1288 30.0966 71.0179C24.628 81.9812 20.0772 92.1791 17.6871 104.501C17.2282 106.529 16.6928 108.921 16.7119 110.26C15.5838 109.399 14.7042 108.461 14.0732 107.486C14.5704 103.831 16.4634 95.91 18.9873 89.1561C20.8421 84.0667 23.4425 79.6469 24.0926 78.1163Z" fill="#E6E7E8"/>
<path opacity="0.49" d="M58.2044 65.1251C56.4262 66.8853 51.5886 82.4214 50.3648 89.2136C49.2558 95.3745 48.0703 101.631 47.4011 107.983C47.0569 110.03 46.9804 116.842 47.1334 117.971C45.7184 117.932 44.3226 117.856 42.9268 117.76C43.8828 99.5646 48.4336 81.4647 54.6479 64.2832C55.9099 64.5319 57.0954 64.8189 58.2044 65.1251Z" fill="#E6E7E8"/>
<path d="M71.7418 73.0088C71.7418 73.0088 82.2393 82.7475 84.1514 84.9287C86.0635 87.1099 74.457 97.5565 71.455 96.4659C68.1662 93.6342 65.4893 88.8318 65.4893 88.8318C65.4893 88.8318 66.0055 76.2805 71.7418 73.0088Z" fill="#63739C"/>
<path d="M66.1591 89.9796C65.7193 89.2908 65.4707 88.8316 65.4707 88.8316C65.4707 88.8316 65.5281 87.6071 65.7766 85.8469C69.0654 82.6708 72.1248 79.2842 74.362 75.4385C75.1459 76.1847 76.0638 77.0265 77.0007 77.9258C74.0943 82.5177 70.5569 86.7461 66.1591 89.9796Z" fill="#2B3990"/>
<path d="M69.8487 94.8964C69.2559 94.2458 68.6823 93.5571 68.166 92.8874C73.2713 90.3044 77.1146 85.7316 80.021 80.8145C81.0726 81.8285 82.0478 82.766 82.8126 83.5313C79.868 88.5442 75.2408 92.543 69.8487 94.8964Z" fill="#2B3990"/>
<path opacity="0.49" d="M66.063 84.0484C66.2924 82.7856 66.6175 81.3889 67.0573 79.9922C70.7285 84.4311 74.4762 88.8125 78.5681 92.8305C77.8033 93.481 77.0002 94.0741 76.2354 94.5907C72.9274 91.0128 69.5048 87.5115 66.063 84.0484Z" fill="#E6E7E8"/>
<path opacity="0.49" d="M74.0942 95.8907C72.9852 96.4456 72.0292 96.6752 71.4364 96.4647C68.1476 93.633 65.4707 88.8306 65.4707 88.8306C65.4707 88.8306 65.5089 88.0653 65.6428 86.8408C68.3006 90.0743 71.207 93.0208 74.0942 95.8907Z" fill="#E6E7E8"/>
<path opacity="0.49" d="M70.0213 74.4053C74.725 78.538 78.6257 83.6465 83.0044 88.315C82.4499 89.0421 81.7806 89.8074 81.0158 90.5919C76.8092 86.0191 72.6982 81.3506 68.2812 76.9882C68.7784 76.0125 69.352 75.1323 70.0213 74.4053Z" fill="#E6E7E8"/>
<path opacity="0.72" d="M37.1712 61.3936C36.6167 63.6513 36.0622 66.5212 36.7314 69.085C39.8672 68.932 43.5958 67.4205 46.464 65.8133C47.7068 68.7406 50.0778 73.7152 52.1238 74.0596C57.8027 71.5723 60.3075 67.2291 60.6326 65.9663C59.8486 67.937 57.9557 72.7968 52.3532 75.265C48.1657 75.265 45.9286 66.636 45.9286 66.636C45.9286 66.636 38.1464 71.1131 35.5842 69.8886C34.7237 65.1054 36.8461 62.178 37.1712 61.3936Z" fill="#31316B"/>
<path d="M45.4885 69.7553C46.3122 69.7553 46.98 69.0871 46.98 68.2629C46.98 67.4387 46.3122 66.7705 45.4885 66.7705C44.6648 66.7705 43.9971 67.4387 43.9971 68.2629C43.9971 69.0871 44.6648 69.7553 45.4885 69.7553Z" fill="white"/>
<path d="M40.2307 78.767C41.0544 78.767 41.7222 78.0988 41.7222 77.2746C41.7222 76.4504 41.0544 75.7822 40.2307 75.7822C39.407 75.7822 38.7393 76.4504 38.7393 77.2746C38.7393 78.0988 39.407 78.767 40.2307 78.767Z" fill="white"/>
<path d="M36.8078 90.1898C37.6315 90.1898 38.2993 89.5217 38.2993 88.6975C38.2993 87.8732 37.6315 87.2051 36.8078 87.2051C35.9841 87.2051 35.3164 87.8732 35.3164 88.6975C35.3164 89.5217 35.9841 90.1898 36.8078 90.1898Z" fill="white"/>
<path d="M34.3035 102.759C35.1272 102.759 35.7949 102.091 35.7949 101.267C35.7949 100.443 35.1272 99.7744 34.3035 99.7744C33.4798 99.7744 32.812 100.443 32.812 101.267C32.812 102.091 33.4798 102.759 34.3035 102.759Z" fill="white"/>
<path d="M32.9265 114.164C33.7502 114.164 34.418 113.495 34.418 112.671C34.418 111.847 33.7502 111.179 32.9265 111.179C32.1028 111.179 31.4351 111.847 31.4351 112.671C31.4351 113.495 32.1028 114.164 32.9265 114.164Z" fill="white"/>
<path opacity="0.4" d="M71.36 73.2383C69.314 77.1414 68.052 81.8673 68.3771 86.3253C68.6639 90.5346 72.5455 92.4288 75.1268 95.3179C73.578 96.2363 72.2204 96.7337 71.4364 96.4467C68.1476 93.615 65.4707 88.8126 65.4707 88.8126C65.4707 88.8126 65.987 76.8353 71.36 73.2383Z" fill="#452F74"/>
<path opacity="0.4" d="M21.7022 77.1606C23.7099 76.4336 27.5723 68.8569 30.2684 65.853C33.997 61.7011 35.909 61.6054 36.4253 61.6246C31.6642 65.1259 22.7347 82.2309 22.7347 82.2309C22.295 82.0778 19.8475 79.7436 17.9736 76.644C18.9679 77.0458 20.1534 78.0216 21.7022 77.1606Z" fill="#452F74"/>
<path d="M38.1285 93.6337C38.1285 93.6337 25.9867 79.5135 4.01679 78.0977C4.01679 78.0977 4.87722 82.5174 0.0205078 84.9473C0.0205078 84.9473 18.8355 85.4065 38.1094 94.686L38.1285 93.6337Z" fill="#FFFFB0"/>
<path d="M75.9483 82.3635C75.9483 82.3635 56.9612 80.3162 38.1271 93.6137L38.0889 94.7234C38.0889 94.7234 51.9707 87.9503 77.0956 88.2182C77.0765 88.2373 73.8068 84.9464 75.9483 82.3635Z" fill="#FFFFB0"/>
<path d="M38.1268 94.6868C38.1268 94.6868 47.496 90.267 59.0451 88.9468C70.575 87.6267 77.0953 88.2198 77.0953 88.2198C77.0953 88.2198 72.0664 99.7379 69.5807 115.599C69.5807 115.599 51.4923 113.533 37.5723 121.167C37.6487 115.695 37.9547 101.307 38.0885 94.6676C38.1077 94.6676 38.1077 94.6868 38.1268 94.6868Z" fill="#009C8D"/>
<path d="M38.0889 94.6672C37.9551 101.287 37.6491 115.694 37.5726 121.166C37.5344 121.186 37.4962 121.205 37.4388 121.243C37.4388 121.243 20.077 114.833 8.58531 115.388C8.58531 115.388 4.89496 92.9452 0 84.9667C0 84.9476 17.6295 84.3353 38.0889 94.6672Z" fill="#00A79D"/>
<path d="M38.1079 93.9197C38.1079 93.9197 38.127 93.9197 38.127 93.9006C38.1462 93.8814 38.1462 93.8623 38.127 93.8432C38.0888 93.8049 34.4367 90.1313 28.471 86.4961C24.9718 84.3532 21.358 82.6503 17.7441 81.4067C13.2316 79.8569 8.6999 79.0724 4.26384 79.0342C4.24472 79.0342 4.22559 79.0533 4.22559 79.0724C4.22559 79.0916 4.24472 79.1107 4.26384 79.1107C8.68078 79.149 13.2124 79.9334 17.725 81.4832C21.3389 82.7077 24.9336 84.4297 28.4518 86.5535C34.4176 90.1888 38.0697 93.8623 38.1079 93.9006C38.0888 93.9197 38.1079 93.9197 38.1079 93.9197Z" fill="#C49A6C"/>
<path d="M38.1082 93.9204H38.1273C38.2038 93.863 46.5596 88.1422 56.6364 85.4062C66.7131 82.6701 75.0307 83.1867 75.1072 83.2059C75.1263 83.2059 75.1454 83.1867 75.1454 83.1676C75.1454 83.1485 75.1263 83.1293 75.1072 83.1293C75.0307 83.1293 66.7131 82.5936 56.6172 85.3296C46.5214 88.0657 38.1655 93.7865 38.089 93.8439C38.0699 93.863 38.0699 93.8821 38.089 93.8821C38.089 93.9204 38.089 93.9204 38.1082 93.9204Z" fill="#C49A6C"/>
<path d="M38.1081 94.1876C38.1081 94.1876 38.1273 94.1876 38.1273 94.1685C38.1464 94.1494 38.1464 94.1302 38.1273 94.1302C37.8022 93.8432 29.9244 87.2806 20.5169 83.6453C15.5454 81.7319 11.3962 80.8901 8.81486 80.5266C6.00408 80.1439 4.34056 80.2013 4.32144 80.2013C4.30231 80.2013 4.2832 80.2204 4.2832 80.2396C4.2832 80.2587 4.30231 80.2778 4.32144 80.2778C4.3788 80.2778 10.9755 80.0291 20.4978 83.7027C29.8861 87.338 37.7449 93.9006 38.089 94.1685C38.089 94.1876 38.089 94.1876 38.1081 94.1876Z" fill="#C49A6C"/>
<path d="M38.1274 94.2073C38.223 94.1499 46.8465 88.8118 56.9998 86.2289C67.153 83.6268 74.8779 84.2964 74.9544 84.2964C74.9735 84.2964 74.9926 84.2773 74.9926 84.2582C74.9926 84.239 74.9735 84.2199 74.9544 84.2199C74.8779 84.2199 67.1339 83.5502 56.9615 86.1523C47.0377 88.697 38.5672 93.8438 38.1083 94.1308C38.0891 94.1308 38.07 94.1308 38.07 94.1308C38.0509 94.1499 38.0509 94.169 38.07 94.169H38.0891C38.1083 94.2073 38.1083 94.2073 38.1274 94.2073Z" fill="#C49A6C"/>
<path d="M38.0885 94.3218C38.1077 94.3218 38.1077 94.3218 38.0885 94.3218C48.3756 88.8307 57.8596 86.7069 64.0165 85.8842C70.6897 85.0041 74.9728 85.4059 75.0111 85.4059C75.0302 85.4059 75.0493 85.3867 75.0493 85.3676C75.0493 85.3485 75.0302 85.3293 75.0111 85.3293C73.5387 85.1763 69.3321 85.0806 63.9974 85.8076C57.8405 86.6304 48.3373 88.7541 38.0694 94.2453C38.0503 94.2453 38.0503 94.2836 38.0503 94.2836C38.0694 94.3218 38.0885 94.3218 38.0885 94.3218Z" fill="#C49A6C"/>
<path d="M38.1081 94.4938C38.1272 94.4938 38.1272 94.4938 38.1081 94.4938C39.7907 93.365 50.6132 88.8878 60.3266 87.2998C67.9367 86.0561 75.2218 86.3048 75.2983 86.3048C75.3174 86.3048 75.3365 86.2857 75.3365 86.2666C75.3365 86.2474 75.3174 86.2283 75.2983 86.2283C75.2218 86.2283 67.9367 85.9796 60.3266 87.2232C56.2921 87.8929 51.3398 89.1939 46.3874 90.935C42.1426 92.4274 39.0068 93.8241 38.1081 94.4364C38.089 94.4555 38.089 94.4747 38.1081 94.4747C38.089 94.4938 38.1081 94.4938 38.1081 94.4938Z" fill="#C49A6C"/>
<path d="M38.4137 94.4364C38.5476 94.379 51.5307 88.8304 62.487 87.8546C69.8294 87.2041 76.0437 87.5868 76.1011 87.5868C76.1202 87.5868 76.1394 87.5676 76.1394 87.5485C76.1394 87.5294 76.1202 87.5102 76.1011 87.5102C76.0437 87.5102 69.8294 87.1276 62.487 87.7781C51.5116 88.7539 38.5285 94.3216 38.3946 94.3599C38.3755 94.3599 38.3755 94.379 38.3755 94.3981C38.3755 94.4364 38.3946 94.4364 38.4137 94.4364Z" fill="#C49A6C"/>
<path d="M38.0696 94.5715C38.0887 94.5715 38.0887 94.5715 38.1078 94.5524C38.1078 94.5332 38.1078 94.5141 38.0887 94.5141L38.0122 94.4758C36.0045 93.3852 25.7174 87.8175 19.8856 85.9999C12.0842 83.57 3.05913 83.2256 2.96353 83.2256C2.9444 83.2256 2.92529 83.2447 2.92529 83.2639C2.92529 83.283 2.9444 83.3021 2.96353 83.3021C3.05913 83.3021 12.0651 83.6465 19.8664 86.0764C25.6792 87.8941 35.9854 93.4618 37.974 94.5524L38.0696 94.5715Z" fill="#C49A6C"/>
<path d="M38.0892 94.3611C38.1083 94.3611 38.1083 94.3611 38.1083 94.342C38.1274 94.3229 38.1083 94.3037 38.1083 94.3037C38.0318 94.2463 30.7467 89.0039 21.9511 85.3877C12.6392 81.5803 4.20685 81.542 4.05388 81.542C4.03476 81.542 4.01562 81.5611 4.01562 81.5803C4.01562 81.5994 4.03476 81.6185 4.05388 81.6185C4.22597 81.6185 12.6392 81.6568 21.932 85.4643C30.7276 89.0613 38.0127 94.3037 38.07 94.3611C38.0891 94.3611 38.0892 94.3611 38.0892 94.3611Z" fill="#C49A6C"/>
<path d="M67.3439 107.371C67.5542 107.007 67.9749 106.835 68.4338 106.739C67.9558 106.395 67.7263 105.898 68.1279 105.209C68.3191 104.883 68.6441 104.654 69.0265 104.52C68.0896 104.137 67.4395 103.487 68.0322 102.454C68.2808 102.033 68.7206 101.765 69.2369 101.612C68.8736 101.286 68.7206 100.827 69.0074 100.177C69.7723 98.3974 73.7877 98.9331 73.7877 98.9331C75.3556 98.8757 75.9101 99.6219 75.7189 100.445C75.5468 101.267 75.0114 101.707 74.3422 101.937C75.2409 102.262 75.4895 102.894 75.2982 103.544C75.0305 104.405 74.3995 104.769 73.6347 104.941C74.151 105.247 74.2848 105.725 74.1127 106.185C73.845 106.969 73.2523 107.275 72.583 107.39C72.9081 107.658 72.9846 108.002 72.8699 108.347C72.4492 109.609 70.9004 109.399 69.7149 109.303C68.5294 109.188 66.5599 108.653 67.3439 107.371Z" fill="#AD865E"/>
<path d="M9.88576 103.716C9.67543 103.353 9.25476 103.181 8.79586 103.085C9.27388 102.741 9.50332 102.243 9.10178 101.554C8.91058 101.229 8.58553 101 8.20312 100.866C9.14004 100.483 9.79013 99.8324 9.19739 98.7993C8.94882 98.3783 8.50905 98.1105 7.99279 97.9574C8.35609 97.6322 8.50904 97.173 8.22223 96.5224C7.4574 94.7431 3.44203 95.2788 3.44203 95.2788C1.87413 95.2214 1.31963 95.9676 1.51083 96.7903C1.68292 97.613 2.2183 98.0531 2.88752 98.2827C1.98885 98.6079 1.74028 99.2393 1.93148 99.8898C2.19917 100.751 2.83018 101.114 3.59501 101.287C3.07875 101.593 2.9449 102.071 3.11699 102.53C3.38468 103.315 3.97742 103.621 4.64665 103.736C4.3216 104.003 4.24511 104.348 4.35984 104.692C4.7805 105.955 6.32928 105.745 7.51477 105.649C8.70026 105.553 10.6506 104.998 9.88576 103.716Z" fill="#AD865E"/>
<path d="M58.8738 6.19556C58.8738 6.19556 43.5771 2.82814 34.3608 14.9202C30.4219 20.0862 25.5269 28.83 22.4484 39.334C19.4655 49.532 28.3759 61.0501 43.9021 65.355C58.8165 69.4878 69.0079 62.9825 71.8761 59.4812C77.8992 50.9861 84.4194 32.6566 82.2014 26.6488C77.8036 14.6906 73.1572 8.33847 58.8738 6.19556Z" fill="#AD865E"/>
<path d="M41.4507 58.8155C39.9941 58.1852 38.8357 57.0586 38.2686 55.6248C37.7611 54.342 37.9814 51.8106 38.7098 50.4163C38.8337 50.178 39.1203 50.0935 39.3583 50.2174C39.5964 50.3413 39.6807 50.6279 39.5568 50.8662C38.9044 52.0849 38.7981 54.3529 39.1563 55.2585C39.9623 57.2958 42.3127 58.6047 44.8797 58.4021C46.6454 58.2697 47.9803 57.1587 48.9248 55.024C49.0312 54.7782 49.3254 54.6761 49.571 54.7824C49.8167 54.8887 49.9186 55.183 49.8122 55.4288C48.7058 57.8895 47.0738 59.2056 44.9414 59.3669C43.7056 59.4785 42.5036 59.2711 41.4507 58.8155Z" fill="#6D4E2E"/>
<path opacity="0.4" d="M58.8737 6.19532C73.1571 8.33822 77.8034 14.6904 82.2204 26.6294C84.2281 32.0632 79.0654 47.5802 73.616 56.7832C74.3425 52.9374 74.4764 48.996 74.1322 45.1311C73.8072 39.4103 67.8032 35.7368 66.0632 29.6525C66.0632 30.6091 66.2353 32.5224 66.2353 33.4791C64.8586 32.465 57.0954 29.5377 56.1394 24.7735C56.1394 26.3616 56.6557 29.2315 57.2867 30.8196C52.8315 28.9063 48.7014 25.7302 46.4833 20.9469C46.4833 23.4916 47.4394 25.4049 48.7014 27.3182C43.6152 27.9496 38.529 23.4916 39.4851 18.4022C36.8655 20.8513 33.5767 21.7888 30.0967 22.0758C31.4925 19.2249 32.9839 16.7568 34.3989 14.9009C43.5769 2.80876 58.8737 6.19532 58.8737 6.19532Z" fill="#A27C55"/>
<path d="M91.8576 28.5621C91.6855 25.386 88.4159 12.3564 80.1556 9.8117C74.4385 -0.367094 58.243 -1.26634 48.0707 1.06789C43.0227 2.23501 41.1871 3.36386 36.1009 4.37791C31.0148 5.39196 26.9611 7.07568 24.093 2.77073C23.0413 4.93277 23.309 7.24787 24.6093 8.70199C25.6418 9.84997 27.3627 10.7301 29.466 10.4814C27.5156 11.9163 25.7183 12.586 23.787 12.299C24.6475 13.734 28.1466 14.5758 29.9057 13.4279C29.4277 14.4419 27.6304 15.8195 25.2402 16.0682C26.2728 17.0631 30.097 17.618 31.8561 15.743C31.0339 18.0963 28.2996 18.5555 25.3932 19.2252C28.2805 21.5977 35.5656 21.3489 39.0456 17.6754C39.3133 22.7074 44.4377 25.9792 47.344 26.2853C46.3115 24.525 45.6232 20.928 45.91 18.7469C48.8355 24.3528 53.6157 28.5047 56.2544 28.9448C55.2219 26.8784 54.3232 23.1666 54.7821 21.8464C58.5872 28.1029 63.2336 31.4321 65.2221 31.0877C64.7059 28.9448 64.1705 26.8019 63.6542 24.659C63.9984 27.5672 70.1745 36.2154 72.8132 37.5355C73.8457 40.9986 74.8974 43.5625 74.4576 46.949C74.8591 50.2016 73.1574 56.2286 69.6391 61.031C70.2701 62.7529 79.1231 59.6342 85.5477 51.4835C92.0106 43.2946 92.2401 35.7944 91.8576 28.5621Z" fill="#6D3734"/>
<path opacity="0.4" d="M77.9374 43.8679C78.2625 40.3665 76.6563 37.1904 77.6124 33.6891C80.7864 35.9085 80.1554 41.0171 82.6985 42.6051C84.6106 44.1932 84.6106 38.7785 86.1977 38.1471C87.7847 37.8218 87.1537 43.8679 88.7408 41.3232C90.6911 38.1854 91.6854 34.7223 91.9531 31.1826C92.087 37.6114 91.2265 44.2888 85.5476 51.502C79.142 59.6527 70.2699 62.7714 69.6389 61.0494C73.138 56.247 74.8398 50.2201 74.4574 46.9675C74.8972 43.5809 73.8455 41.0171 72.813 37.554C71.3407 36.8269 68.7784 33.8039 66.7134 30.7617C66.7325 30.7809 66.7516 30.7809 66.7708 30.8C71.5701 34.6457 77.2873 37.4966 77.9374 43.8679Z" fill="#383734"/>
<path opacity="0.4" d="M63.865 25.52C63.7692 25.2139 63.6925 24.9269 63.6733 24.6973C63.7308 24.9651 63.8075 25.233 63.865 25.52Z" fill="#383734"/>
<path opacity="0.4" d="M39.1222 14.9014C40.193 18.9193 42.8508 22.4781 46.5029 24.2766C46.7324 25.061 47.0192 25.769 47.3251 26.3047C44.7247 26.0177 40.346 23.3582 39.2561 19.2063C39.084 17.8096 39.0266 16.3746 39.1222 14.9014Z" fill="#383734"/>
<path opacity="0.4" d="M45.8717 19.2254C45.6231 17.9243 45.5849 16.585 45.7952 15.2266C47.5543 19.9333 50.6902 24.64 55.4131 26.8212C55.6616 27.6057 55.9484 28.371 56.2544 28.9832C53.6157 28.5241 48.8354 24.3722 45.9099 18.7853C45.9099 18.9192 45.8908 19.0723 45.8717 19.2254Z" fill="#383734"/>
<path opacity="0.4" d="M54.6861 23.1283C54.189 21.502 53.9786 19.7991 54.0742 18.0771C55.623 23.6831 59.9443 27.1654 64.8966 29.6909C65.0114 30.1693 65.1261 30.6284 65.2408 31.1068C63.2331 31.4512 58.5867 28.122 54.8008 21.8655C54.6861 22.1908 54.667 22.6308 54.6861 23.1283Z" fill="#383734"/>
<path d="M63.501 38.1669C64.3805 38.1861 65.7191 38.3965 66.5986 39.3915C66.8663 39.6976 67.3826 39.5254 67.4208 39.1045C67.4782 38.4348 67.2296 37.5355 65.8529 36.8085C64.6291 36.158 63.7113 36.7702 63.1568 37.3633C62.8891 37.6886 63.0994 38.1669 63.501 38.1669Z" fill="#6D3734"/>
<path d="M36.77 28.2753C37.6496 28.2945 38.988 28.5049 39.8676 29.4999C40.1353 29.806 40.6515 29.6338 40.6898 29.2129C40.7471 28.5432 40.4986 27.6439 39.1219 26.9169C37.8981 26.2664 36.9803 26.8786 36.4258 27.4717C36.1581 27.7779 36.3685 28.2562 36.77 28.2753Z" fill="#6D3734"/>
<path d="M71.8569 57.3186C73.4057 57.7969 78.5875 57.6438 79.9834 53.5302C81.666 48.5557 77.2682 45.8579 74.2088 47.1972C74.1897 47.1972 74.2662 52.8032 71.8569 57.3186Z" fill="#AD865E"/>
<path opacity="0.4" d="M77.249 52.6308C76.9239 54.5633 75.2222 55.6921 72.5835 55.7113C73.6543 53.0135 74.0176 50.2201 74.1323 48.5938C75.7385 48.7277 77.7079 49.9713 77.249 52.6308Z" fill="#ECA5AA"/>
<path opacity="0.5" d="M58.1476 1.08702C59.2566 1.18269 61.0349 1.39315 62.0866 1.87148C62.316 1.96714 62.2395 2.31154 61.991 2.33068C60.6334 2.42634 59.4096 2.52201 58.2624 2.90467C58.0329 2.9812 58.052 3.3256 58.3006 3.36386C59.6773 3.59346 61.4747 3.70826 62.5646 4.60752C62.7176 4.74145 62.6602 5.00931 62.4498 5.02844C61.6085 5.12411 60.7672 5.31544 59.9641 5.62157C59.7347 5.71723 59.7729 6.0425 60.0215 6.08076C62.7749 6.46342 65.0694 6.98002 67.3448 8.43414C67.5743 8.5872 67.4213 8.9316 67.1536 8.8742C64.6488 8.28107 60.9202 7.87928 58.1285 7.86015C53.4056 7.84101 48.3577 9.44819 45.7381 10.5005C45.4704 10.6153 45.2792 10.2327 45.5086 10.0796C46.8089 9.2186 49.2372 8.26194 51.6656 7.53488C51.9333 7.45835 51.8759 7.05655 51.5891 7.05655C50.461 7.11395 49.1799 7.22875 48.3194 7.34355C48.0709 7.38182 47.937 7.05655 48.1473 6.90349C49.3137 6.00423 51.1302 5.6407 52.679 5.21977C52.9467 5.14324 52.8893 4.74144 52.6217 4.74144C50.9199 4.74144 49.1799 4.91364 47.5354 5.23891C47.2677 5.29631 47.1339 4.93278 47.3634 4.79885C48.3577 4.26312 49.4858 3.84219 50.7478 3.51693C51.0346 3.44039 50.9581 3.01946 50.6713 3.0386C49.5623 3.1534 48.3003 3.38299 47.153 3.72739C46.8853 3.80392 46.7132 3.4404 46.9618 3.28733C50.1168 1.45055 55.3368 0.838292 58.1476 1.08702Z" fill="#808285"/>
<path d="M61.2446 50.8135C63.8213 50.8135 65.9101 48.7234 65.9101 46.145C65.9101 43.5667 63.8213 41.4766 61.2446 41.4766C58.6679 41.4766 56.5791 43.5667 56.5791 46.145C56.5791 48.7234 58.6679 50.8135 61.2446 50.8135Z" fill="white"/>
<path d="M65.2221 44.0595C63.9793 41.7635 61.2259 40.8452 59.0843 42.0123C58.9696 42.0697 58.8549 42.1462 58.7593 42.2036C58.9696 42.0314 59.1991 41.8783 59.4476 41.7444C61.6848 40.539 64.4764 41.3617 65.7002 43.6194C66.618 45.3223 66.3503 47.3695 65.1839 48.7662C65.987 47.4269 66.0635 45.6284 65.2221 44.0595Z" fill="#3C2415"/>
<path d="M59.4857 42.223C57.2103 43.4475 56.369 46.2792 57.5928 48.556C58.0899 49.4935 59.6005 50.278 60.9007 50.0675C63.4438 49.6275 65.0309 46.107 63.1761 43.5815C61.7803 41.649 59.9064 41.9934 59.4857 42.223Z" fill="#3C2415"/>
<path d="M61.8374 45.9347C62.3021 45.9347 62.6788 45.5578 62.6788 45.0928C62.6788 44.6279 62.3021 44.251 61.8374 44.251C61.3728 44.251 60.9961 44.6279 60.9961 45.0928C60.9961 45.5578 61.3728 45.9347 61.8374 45.9347Z" fill="white"/>
<path d="M34.8008 40.9991C37.3774 40.9991 39.4663 38.9089 39.4663 36.3306C39.4663 33.7523 37.3774 31.6621 34.8008 31.6621C32.2241 31.6621 30.1353 33.7523 30.1353 36.3306C30.1353 38.9089 32.2241 40.9991 34.8008 40.9991Z" fill="white"/>
<path d="M38.7969 34.245C37.554 31.9491 34.8006 31.0307 32.6591 32.1978C32.5443 32.2552 32.4296 32.3317 32.334 32.3891C32.5443 32.2169 32.7738 32.0639 33.0224 31.93C35.2595 30.7246 38.0511 31.5473 39.2749 33.805C40.1927 35.5078 39.925 37.5551 38.7586 38.9518C39.5617 37.5933 39.6382 35.7948 38.7969 34.245Z" fill="#3C2415"/>
<path d="M32.9457 32.3882C30.6703 33.6127 29.829 36.4444 31.0527 38.7212C31.5499 39.6588 33.0604 40.4432 34.3607 40.2328C36.9037 39.7927 38.4908 36.2722 36.636 33.7466C35.2402 31.8333 33.3664 32.1586 32.9457 32.3882Z" fill="#3C2415"/>
<path d="M35.4126 36.1007C35.8772 36.1007 36.2539 35.7238 36.2539 35.2588C36.2539 34.7939 35.8772 34.417 35.4126 34.417C34.948 34.417 34.5713 34.7939 34.5713 35.2588C34.5713 35.7238 34.948 36.1007 35.4126 36.1007Z" fill="white"/>
<mask id="mask0_5308_116035" style="mask-type:alpha" maskUnits="userSpaceOnUse" x="43" y="42" width="4" height="5">
<path d="M44.8773 46.2793C45.4891 46.241 46.8085 45.1505 46.7893 43.7346C46.7702 42.6249 44.036 42.1274 43.5006 42.644C42.9652 43.1606 43.6727 46.3558 44.8773 46.2793Z" fill="url(#paint0_radial_5308_116035)"/>
</mask>
<g mask="url(#mask0_5308_116035)">
<path opacity="0.8" d="M44.8773 46.2793C45.4891 46.241 46.8085 45.1505 46.7893 43.7346C46.7702 42.6249 44.036 42.1274 43.5006 42.644C42.9652 43.1606 43.6727 46.3558 44.8773 46.2793Z" fill="url(#paint1_radial_5308_116035)"/>
<path d="M44.0359 45.9156C44.1506 45.9539 44.1889 45.7243 44.1315 45.6095C43.099 43.677 43.3093 42.9882 43.5388 42.7586C43.9403 42.3377 44.992 42.5673 45.795 42.95C46.1966 43.1413 46.4643 43.0456 46.6172 42.9117C47.3629 42.3569 47.0379 40.0991 46.9805 39.6591C46.9614 39.5252 46.8467 39.4486 46.7128 39.4678C46.579 39.4869 46.6363 39.506 46.6555 39.64C46.8084 40.6349 46.7319 42.2612 46.3495 42.5482C46.3113 42.5673 46.2348 42.6438 45.9862 42.529C45.0302 42.089 43.577 41.7829 43.0034 42.4143C42.4489 42.9882 42.8313 44.1554 43.4049 45.1694C43.5961 45.5138 43.8065 45.8582 44.0359 45.9156Z" fill="#3C2415"/>
</g>
<path d="M49.5228 41.9352C49.4081 41.8969 49.2934 41.8395 49.1978 41.7439C47.8975 40.3089 45.4309 40.1558 45.4118 40.1558C45.0293 40.1367 44.7425 39.8114 44.7616 39.4288C44.7808 39.0461 45.1058 38.7591 45.4883 38.7782C45.603 38.7782 48.5285 38.9696 50.2112 40.8063C50.4598 41.0933 50.4406 41.5143 50.1729 41.7821C50.0009 41.9543 49.7523 42.0117 49.5228 41.9352Z" fill="black"/>
<path d="M58.223 58.3517C51.5307 56.5532 47.3241 49.7993 48.739 42.9305C49.4465 39.4674 51.4733 36.5018 54.4179 34.5502C57.3626 32.6178 60.8999 31.929 64.3417 32.6369C67.8026 33.3448 70.7663 35.3729 72.7167 38.3194C74.6479 41.2659 75.3362 44.8055 74.6288 48.2495C73.1565 55.3861 66.1582 59.9972 59.0261 58.5239C58.7393 58.4857 58.4907 58.4283 58.223 58.3517ZM64.7624 34.1675C64.5329 34.1101 64.2843 34.0527 64.0549 33.9953C60.9573 33.364 57.8024 33.9571 55.1637 35.6982C52.525 37.4393 50.7276 40.0988 50.0775 43.1983C48.8155 49.3592 52.5823 55.4052 58.5863 57.0124C58.8158 57.0698 59.0452 57.1272 59.2938 57.1846C65.6802 58.5048 71.9518 54.3721 73.2712 47.9816C73.9022 44.8821 73.3094 41.7251 71.5694 39.0847C69.9633 36.6548 67.554 34.9137 64.7624 34.1675Z" fill="black"/>
<g opacity="0.45">
<path opacity="0.45" d="M71.5506 39.0858C70.977 38.2057 70.2886 37.4212 69.5238 36.7324C62.7932 38.971 56.2921 41.8027 49.8675 44.7874C49.7336 46.6625 50.0587 48.4801 50.747 50.1256C58.0512 47.2365 66.4453 43.8691 72.5258 40.9034C72.2772 40.2912 71.9522 39.6789 71.5506 39.0858Z" fill="white"/>
<path opacity="0.45" d="M52.6592 53.2435C53.0416 53.7027 53.4623 54.1427 53.9212 54.5254C60.537 51.9424 67.0955 49.5316 73.5011 46.2025C73.5202 45.6476 73.5202 45.1119 73.482 44.5762C66.6175 47.8479 59.581 50.3352 52.6592 53.2435Z" fill="white"/>
</g>
<path d="M29.4271 48.1349C22.7348 46.3364 18.5282 39.5824 19.9431 32.7137C20.6506 29.2506 22.6774 26.285 25.6221 24.3334C28.5667 22.401 32.1041 21.7122 35.5458 22.4201C39.0067 23.128 41.9705 25.1561 43.9208 28.1026C45.852 31.0491 46.5404 34.5887 45.8329 38.0327C44.3606 45.1693 37.3623 49.7804 30.2302 48.3071C29.9434 48.2689 29.6948 48.2114 29.4271 48.1349ZM35.9665 23.9507C35.737 23.8933 35.4885 23.8359 35.259 23.7785C32.1614 23.1471 29.0065 23.7403 26.3678 25.4814C23.7291 27.2225 21.9317 29.882 21.2816 32.9815C20.0196 39.1424 23.7865 45.1884 29.7904 46.7956C30.0199 46.853 30.2493 46.9104 30.4979 46.9678C36.8843 48.288 43.156 44.1553 44.4753 37.7648C45.1063 34.6653 44.5136 31.5083 42.7736 28.8679C41.1674 26.438 38.7773 24.6969 35.9665 23.9507Z" fill="black"/>
<g opacity="0.45">
<path opacity="0.45" d="M42.7547 28.868C42.181 27.9879 41.4927 27.2034 40.7279 26.5146C33.9973 28.7532 27.4962 31.5849 21.0716 34.5697C20.9377 36.4447 21.2628 38.2624 21.9511 39.9078C29.2553 37.0187 37.6494 33.6513 43.7299 30.6857C43.4813 30.0543 43.1562 29.4612 42.7547 28.868Z" fill="white"/>
<path opacity="0.45" d="M23.8628 43.0267C24.2452 43.4859 24.6659 43.9259 25.1248 44.3086C31.7406 41.7256 38.2991 39.3148 44.7046 35.9857C44.7237 35.4308 44.7238 34.8951 44.6855 34.3594C37.8211 37.6311 30.7846 40.1184 23.8628 43.0267Z" fill="white"/>
</g>
<defs>
<radialGradient id="paint0_radial_5308_116035" cx="0" cy="0" r="1" gradientUnits="userSpaceOnUse" gradientTransform="translate(42.9961 42.4805) rotate(-170.706) scale(3.55898 3.56116)">
<stop stop-color="white"/>
<stop offset="0.1269" stop-color="#FBFBFB"/>
<stop offset="0.2527" stop-color="#EFEFEF"/>
<stop offset="0.378" stop-color="#DBDBDB"/>
<stop offset="0.5031" stop-color="#BFBFBF"/>
<stop offset="0.6281" stop-color="#9B9B9B"/>
<stop offset="0.7531" stop-color="#6F6F6F"/>
<stop offset="0.8766" stop-color="#3C3C3C"/>
<stop offset="1"/>
</radialGradient>
<radialGradient id="paint1_radial_5308_116035" cx="0" cy="0" r="1" gradientUnits="userSpaceOnUse" gradientTransform="translate(42.9961 42.4805) rotate(-170.706) scale(3.55898 3.56116)">
<stop stop-color="#FF7886"/>
<stop offset="0.2738" stop-color="#FC7982"/>
<stop offset="0.5448" stop-color="#F27A76"/>
<stop offset="0.8138" stop-color="#E37D62"/>
<stop offset="1" stop-color="#D48050"/>
</radialGradient>
</defs>
</svg>
