<svg width="130" height="130" viewBox="0 0 130 130" fill="none" xmlns="http://www.w3.org/2000/svg">
<rect width="130" height="130" rx="10" fill="white"/>
<rect width="117" height="117" transform="translate(7 7)" fill="white"/>
<path fill-rule="evenodd" clip-rule="evenodd" d="M33.8956 53.5425C34.9401 48.5457 37.0291 44.7233 40.2052 42.1182L48.071 44.9369L49.3073 61.2513L33.2774 75.0886L22.9815 68.2554C21.9157 60.0555 25.1132 54.8238 33.8956 53.5425Z" fill="#F6675D"/>
<path fill-rule="evenodd" clip-rule="evenodd" d="M33.8956 53.5425C34.9401 48.5457 37.0291 44.7233 40.2052 42.1182L48.071 44.9369L48.1136 45.3426L41.1858 42.8442C38.0309 45.4707 35.8993 49.2504 34.8761 54.2899C26.115 55.5498 22.9389 60.7601 23.9621 68.9387L22.9815 68.2767C21.9157 60.0555 25.1132 54.8238 33.8956 53.5425Z" fill="#F9AFAA"/>
<path fill-rule="evenodd" clip-rule="evenodd" d="M68.3663 50.5977L67.8121 67.9158L62.5682 64.2429L59.7544 56.8331V47.7577L60.4365 47.0957L68.3663 50.5977Z" fill="#3A66A8"/>
<path fill-rule="evenodd" clip-rule="evenodd" d="M106.65 78.2931L105.968 70.4775L31.8076 77.3962L32.9161 86.1086L106.65 78.2931Z" fill="#67D2F7"/>
<path fill-rule="evenodd" clip-rule="evenodd" d="M94.6476 66.8887L105.967 70.4761L31.8066 77.3948L23.3013 72.8891L94.6476 66.8887Z" fill="#4DB7DD"/>
<path fill-rule="evenodd" clip-rule="evenodd" d="M63.8467 65.1385L65.8078 71.8223L101.534 68.2562C104.71 67.9572 109.059 68.064 109.357 73.8082H110.317L110.274 63.8359L67.8115 67.9145L63.8467 65.1385Z" fill="#F8D200"/>
<path fill-rule="evenodd" clip-rule="evenodd" d="M33.3008 75.0896L23.0049 68.2563C22.4506 63.9428 23.0475 60.4621 25.0086 57.9424L36.4556 65.2668L36.2211 70.8615L33.3008 75.0896Z" fill="#F8D200"/>
<path fill-rule="evenodd" clip-rule="evenodd" d="M36.1353 54.1195L44.4487 57.9419C44.8537 53.8847 45.4932 49.9128 46.5377 46.0051L40.697 43.6348C38.1603 46.6243 36.519 50.0409 36.1353 54.1195Z" fill="#67D2F7"/>
<path fill-rule="evenodd" clip-rule="evenodd" d="M40.2275 42.1188L50.7579 40.624L60.393 44.0407L48.0933 44.9375L40.2275 42.1188Z" fill="#F9A6A0"/>
<path fill-rule="evenodd" clip-rule="evenodd" d="M48.9889 43.7842L41.8691 40.9228C43.3826 39.0223 46.3883 37.2072 49.266 37.015C51.9306 36.8655 55.4691 37.8692 57.4302 38.3817L48.9889 43.7842Z" fill="#FCE23E"/>
<path fill-rule="evenodd" clip-rule="evenodd" d="M48.9868 43.7833C50.415 41.8828 52.3122 39.6406 54.6997 38.6797C57.0871 37.676 60.0288 38.4021 59.6451 42.6088L48.9868 43.7833Z" fill="#F8D200"/>
<path fill-rule="evenodd" clip-rule="evenodd" d="M32.2538 65.0957C33.0425 65.0957 33.4688 66.1848 33.2344 67.5514C32.9999 68.9181 32.1472 70.0071 31.3799 70.0071C30.5698 70.0071 30.1435 68.9181 30.378 67.5514C30.6338 66.1848 31.4651 65.0957 32.2538 65.0957Z" fill="#67D2F7"/>
<path fill-rule="evenodd" clip-rule="evenodd" d="M26.2869 61.6348C27.097 61.6348 27.5233 62.7452 27.2888 64.0905C27.0543 65.4571 26.2016 66.5675 25.4129 66.5675C24.6242 66.5675 24.1979 65.4571 24.4323 64.0905C24.6668 62.7452 25.5195 61.6348 26.2869 61.6348Z" fill="#67D2F7"/>
<path fill-rule="evenodd" clip-rule="evenodd" d="M110.273 63.8568L110.848 46.4961L97.2059 47.82L96.6304 65.1381L110.273 63.8568Z" fill="#F66000"/>
<path fill-rule="evenodd" clip-rule="evenodd" d="M96.6302 65.1393L97.2058 47.8213L81.666 49.3161L81.1118 66.6341L96.6302 65.1393Z" fill="#A2D213"/>
<path fill-rule="evenodd" clip-rule="evenodd" d="M81.113 66.6325L67.8115 67.9137L68.3657 50.5957L81.6672 49.3145L81.113 66.6325Z" fill="#A06BCF"/>
<path fill-rule="evenodd" clip-rule="evenodd" d="M94.8184 40.8799V48.0762L110.848 46.496L94.8184 40.8799Z" fill="#A2D213"/>
<path fill-rule="evenodd" clip-rule="evenodd" d="M94.8187 40.8799L60.3926 44.0403L60.4352 47.1152L68.365 50.5959L94.8187 48.0762V40.8799Z" fill="#F66000"/>
<path fill-rule="evenodd" clip-rule="evenodd" d="M22.8558 66.8034C22.6 63.1733 23.2821 60.2051 25.0087 57.9629L36.4557 65.2873L36.4343 65.4368L25.2645 59.6071C23.7511 61.5504 22.8344 63.7712 22.8558 66.8034Z" fill="#FCE23E"/>
<path fill-rule="evenodd" clip-rule="evenodd" d="M97.1429 73.8512C99.4451 75.5595 100.937 78.3782 100.937 81.4746C100.937 84.5709 99.4451 87.2188 97.1429 88.6922L97.1642 90.4432L92.1335 89.9094C87.4865 89.4182 83.948 86.087 84.0332 80.5991C84.1398 75.0897 88.8508 71.8012 93.4978 71.7585L96.8018 71.7158L97.1429 73.8512Z" fill="#C16E28"/>
<path fill-rule="evenodd" clip-rule="evenodd" d="M97.164 90.4425C102.259 90.4425 106.415 86.2784 106.415 81.1748C106.415 76.0712 102.259 71.9072 97.164 71.9072C92.0906 71.9072 87.9126 76.0712 87.9126 81.1748C87.9126 86.2784 92.0693 90.4425 97.164 90.4425Z" fill="#D3813C"/>
<path fill-rule="evenodd" clip-rule="evenodd" d="M97.1623 85.1256C99.3366 85.1256 101.127 83.3745 101.127 81.1751C101.127 79.0183 99.3579 77.2246 97.1623 77.2246C95.0093 77.2246 93.2188 78.997 93.2188 81.1751C93.2188 83.3745 94.988 85.1256 97.1623 85.1256Z" fill="#F8C773"/>
<path fill-rule="evenodd" clip-rule="evenodd" d="M57.6005 78.0773C59.9027 79.7856 61.3948 82.6043 61.3948 85.7006C61.3948 88.7969 59.9027 91.4448 57.6005 92.9182L57.6218 94.6693L52.5911 94.1354C47.9441 93.6443 44.4055 90.3131 44.5121 84.8251C44.5974 79.3158 49.3083 75.7497 53.9554 75.9846L57.366 76.1341L57.6005 78.0773Z" fill="#C16E28"/>
<path fill-rule="evenodd" clip-rule="evenodd" d="M57.6205 94.6709C62.7151 94.6709 66.8719 90.5069 66.8719 85.4033C66.8719 80.2998 62.7151 76.1357 57.6205 76.1357C52.5472 76.1357 48.3691 80.2998 48.3691 85.4033C48.3691 90.5069 52.5472 94.6709 57.6205 94.6709Z" fill="#D3813C"/>
<path fill-rule="evenodd" clip-rule="evenodd" d="M57.6218 89.3541C59.7961 89.3541 61.5866 87.5817 61.5866 85.4036C61.5866 83.2469 59.8174 81.4531 57.6218 81.4531C55.4688 81.4531 53.6782 83.2255 53.6782 85.4036C53.6995 87.5603 55.4688 89.3541 57.6218 89.3541Z" fill="#F8C773"/>
<path fill-rule="evenodd" clip-rule="evenodd" d="M40.9932 44.7012L45.427 46.5163C44.8728 48.5662 44.4891 50.6803 44.2333 52.8157C44.1694 50.9152 44.1693 49.0147 44.2972 47.1142L40.9932 44.7012Z" fill="#EAFBFF"/>
<path fill-rule="evenodd" clip-rule="evenodd" d="M32.2547 65.0957C33.0434 65.0957 33.4697 66.1848 33.2352 67.5514C33.1073 68.3201 32.7876 68.9608 32.4039 69.4092C32.5318 69.1102 32.6384 68.7686 32.7023 68.3842C32.9368 67.0389 32.5105 65.9285 31.7005 65.9285C31.3594 65.9285 30.997 66.142 30.6772 66.5051C31.0823 65.6936 31.6791 65.0957 32.2547 65.0957Z" fill="#BCF0FF"/>
<path fill-rule="evenodd" clip-rule="evenodd" d="M26.2869 61.6348C27.097 61.6348 27.5233 62.7452 27.2888 64.0905C27.1609 64.8592 26.8412 65.5212 26.4361 65.9696C26.5854 65.6493 26.6706 65.3076 26.7559 64.9446C26.9904 63.578 26.5427 62.4676 25.754 62.4676C25.4129 62.4676 25.0505 62.7025 24.7095 63.0655C25.1358 62.2327 25.7327 61.6348 26.2869 61.6348Z" fill="#BCF0FF"/>
<path fill-rule="evenodd" clip-rule="evenodd" d="M97.1626 71.9072C102.279 71.9072 106.414 76.0712 106.414 81.1748C106.414 81.4738 106.414 81.7727 106.371 82.0931C105.924 77.3952 101.98 73.701 97.1626 73.701C92.3664 73.701 88.4015 77.3738 87.9539 82.0931C87.9325 81.7941 87.9112 81.4951 87.9112 81.1748C87.8899 76.0712 92.0466 71.9072 97.1626 71.9072Z" fill="#EA9F63"/>
<path fill-rule="evenodd" clip-rule="evenodd" d="M57.6205 76.1357C62.7365 76.1357 66.8719 80.2998 66.8719 85.4034C66.8719 85.7023 66.8719 86.0013 66.8292 86.3216C66.4029 81.6237 62.438 77.9295 57.6205 77.9295C52.8243 77.9295 48.8594 81.6023 48.4118 86.3216C48.3905 86.0226 48.3691 85.7237 48.3691 85.4034C48.3691 80.2998 52.5259 76.1357 57.6205 76.1357Z" fill="#EA9F63"/>
<path fill-rule="evenodd" clip-rule="evenodd" d="M97.1644 77.2461C99.3387 77.2461 101.129 78.9971 101.129 81.1966C101.129 81.7304 101.023 82.2643 100.831 82.7127V82.6486C100.831 80.4705 99.0616 78.6768 96.866 78.6768C95.2459 78.6768 93.8177 79.7018 93.2422 81.1325C93.2635 78.9758 95.0115 77.2461 97.1644 77.2461Z" fill="#E2A12C"/>
<path fill-rule="evenodd" clip-rule="evenodd" d="M57.621 81.4531C59.7952 81.4531 61.5858 83.2041 61.5858 85.4036C61.5858 85.9374 61.4792 86.4499 61.2874 86.9197V86.8557C61.2874 84.6776 59.5181 82.8838 57.3439 82.8838C55.7025 82.8838 54.2956 83.9088 53.6987 85.3395C53.7414 83.1828 55.4893 81.4531 57.621 81.4531Z" fill="#E2A12C"/>
<path fill-rule="evenodd" clip-rule="evenodd" d="M33.2998 75.0896L65.8288 71.8438C64.5924 62.3841 60.7981 58.1987 60.6276 53.9706C60.4784 50.6607 60.4784 47.3509 60.4144 44.041L48.1148 44.9379L46.516 59.2877C37.4139 61.5512 33.5982 67.21 33.2998 75.0896Z" fill="#E51509"/>
<path fill-rule="evenodd" clip-rule="evenodd" d="M48.7114 57.9637L58.7728 56.4048L58.7302 45.6211L49.628 46.2831L48.7114 57.9637Z" fill="#67D2F7"/>
<path fill-rule="evenodd" clip-rule="evenodd" d="M55.298 46.7939L50.5231 47.221L49.9263 53.8835L51.3545 48.0752L55.298 46.7939Z" fill="#EAFBFF"/>
<path fill-rule="evenodd" clip-rule="evenodd" d="M21 77.716C21 74.9827 21.2345 72.3135 21.5755 69.6015C21.7674 68.1708 22.8972 67.2953 23.7711 67.701C26.862 69.0463 29.5266 71.1604 31.978 73.4239C32.8306 74.214 33.2996 75.4311 33.4275 76.5843C33.7046 79.104 33.9178 81.3675 35.5165 82.8837C36.7315 84.0581 38.6074 84.1436 40.2061 84.1436C40.3553 85.1472 40.3979 85.9586 40.4832 87.005C40.5258 87.7951 39.9503 88.457 39.119 88.7133C37.2005 89.2685 34.7278 89.8664 33.2996 89.6102C30.9334 89.2044 25.2633 85.0618 22.0019 81.4743C21.2132 80.5134 21 78.9759 21 77.716Z" fill="#A2D213"/>
<path fill-rule="evenodd" clip-rule="evenodd" d="M27.3945 81.6035C27.6503 78.7634 27.8848 75.9447 28.1619 73.126C28.8654 73.5744 29.8033 74.1296 30.4214 74.8556C30.933 75.4963 31.338 76.3077 31.4233 77.1405C31.5938 78.9342 31.6578 80.6426 31.6151 82.6071C31.5938 83.504 30.997 84.3795 30.4641 84.0592C29.2917 83.3332 28.3751 82.6285 27.3945 81.6035Z" fill="#3A66A8"/>
<path fill-rule="evenodd" clip-rule="evenodd" d="M25.3898 80.0431C25.6456 77.2457 25.9014 74.427 26.1785 71.6297C25.6243 71.1599 24.8995 70.5193 24.3879 70.4552C23.9403 70.3911 23.5353 70.6047 23.3648 71.2453C22.9811 72.6119 22.6826 74.064 22.4055 75.8364C22.2776 76.6478 22.5547 78.1853 22.9597 78.5056C23.8337 79.2744 24.5798 79.7655 25.3898 80.0431Z" fill="#3A66A8"/>
<path fill-rule="evenodd" clip-rule="evenodd" d="M27.3945 81.6035C27.6503 78.7634 27.8848 75.9447 28.1619 73.126C28.8654 73.5744 29.8033 74.1296 30.4215 74.8556C30.9331 75.4963 31.3381 76.3077 31.4233 77.1405L31.4447 77.2259C31.2954 76.9697 31.1249 76.7134 30.9331 76.4999C30.3362 75.7312 29.3983 75.1973 28.6735 74.7489L28.0127 82.2014C27.7782 82.0092 27.5864 81.817 27.3945 81.6035Z" fill="#1D427F"/>
<path fill-rule="evenodd" clip-rule="evenodd" d="M26.0523 72.7616L26.1589 71.6512C25.6046 71.1814 24.8799 70.5408 24.3683 70.4767C23.9207 70.4126 23.5157 70.6262 23.3452 71.2668C22.9615 72.6334 22.663 74.0855 22.3859 75.8579C22.258 76.6266 22.5138 78.0573 22.8762 78.4844C22.8336 78.1214 22.8336 77.7584 22.8762 77.4594C23.132 75.687 23.4304 74.235 23.8354 72.8683C24.0059 72.2491 24.4109 72.0142 24.8586 72.0782C25.221 72.1209 25.6473 72.4199 26.0523 72.7616Z" fill="#1D427F"/>
<path fill-rule="evenodd" clip-rule="evenodd" d="M21 77.716C21 74.9827 21.2345 72.3135 21.5755 69.6015C21.7674 68.1708 22.8972 67.2953 23.7711 67.701C26.862 69.0463 29.5266 71.1604 31.978 73.4239C32.5322 73.9364 32.9372 74.6624 33.1717 75.4098C33.0225 75.1749 32.8306 74.9614 32.6388 74.7692C30.1661 72.5057 27.5228 70.413 24.4319 69.0677C23.5367 68.6833 22.4282 69.5161 22.2363 70.9682C21.8953 73.6801 21.6608 76.3494 21.6608 79.0613C21.6608 79.766 21.7247 80.5561 21.9379 81.2608C21.1918 80.3425 21 78.9118 21 77.716Z" fill="#D4FF60"/>
</svg>
