<svg width="60" height="60" viewBox="0 0 60 60" fill="none" xmlns="http://www.w3.org/2000/svg">
<g clip-path="url(#clip0_5308_121052)">
<path d="M41.075 36.7226H45.4277C46.4815 36.7226 46.2524 36.8892 47.2146 37.2225C51.9339 38.8337 55.4161 44.1114 55.4161 50.3337C55.4161 52.7225 53.8124 54.6114 51.8881 54.6114H7.49024C5.65751 54.6114 4.14551 52.7781 4.14551 50.5559C4.14551 46.4448 4.8786 42.5559 6.20733 39.0559C6.75714 37.6114 7.94842 36.667 9.27714 36.667H41.075V36.7226Z" fill="#2195E8"/>
<path d="M6.75684 38.056C7.39829 37.2227 8.31465 36.7227 9.27684 36.7227H41.0747H45.4274C46.4812 36.7227 46.2521 36.8893 47.2143 37.2227C47.8557 37.4449 48.4514 37.7227 49.0012 38.056H6.75684Z" fill="#23D9FD"/>
<path d="M36.4472 52.7224C36.4472 52.5002 36.4014 52.2224 36.4014 51.9447C36.4014 46.778 39.8377 42.6113 44.0988 42.6113C48.3599 42.6113 51.7963 46.778 51.7963 51.9447C51.7963 52.2224 51.7963 52.4447 51.7505 52.7224H36.4472Z" fill="#1B6BB8"/>
<path d="M6.43644 52.7224C6.43644 52.5002 6.39062 52.2224 6.39062 51.9447C6.39062 46.778 9.82698 42.6113 14.0881 42.6113C18.3492 42.6113 21.7855 46.778 21.7855 51.9447C21.7855 52.2224 21.7855 52.4447 21.7397 52.7224H6.43644Z" fill="#1B6BB8"/>
<path d="M55.3242 48.5557C55.3242 48.7223 55.37 48.889 55.37 49.0001C55.3242 48.889 55.2783 48.7223 55.3242 48.5557Z" fill="#2195E8"/>
<path d="M51.8879 54.6118H7.49007C6.02389 54.6118 4.74098 53.4451 4.32861 51.834H55.2326C54.6828 53.4451 53.3999 54.6118 51.8879 54.6118Z" fill="#1B6BB8"/>
<path d="M4.14551 49.0002C4.14551 48.8891 4.14551 48.7224 4.14551 48.6113C4.19132 48.7224 4.19132 48.8336 4.14551 49.0002Z" fill="#2195E8"/>
<path d="M17.6616 36.7227V41.556C21.7853 41.556 24.2594 45.9449 24.2594 50.1671V50.5004H30.5823C34.4769 50.5004 36.5845 46.9449 36.5845 43.6115V36.7227H36.0347V43.6115C36.0347 46.6671 34.1562 49.8338 30.6282 49.8338H24.8551C24.7176 45.556 22.2893 41.2782 18.3031 40.8893V36.7227H17.6616Z" fill="#1B6BB8"/>
<path d="M36.5845 36.7227H36.0347V38.056H36.5845V36.7227Z" fill="#2195E8"/>
<path d="M18.2114 36.7227H17.6616V38.056H18.2114V36.7227Z" fill="#2195E8"/>
<path d="M19.4028 38.0557H23.0683C23.5723 38.0557 23.9847 38.5557 23.9847 39.1668V39.4446H20.3192C19.8152 39.4446 19.4028 38.9446 19.4028 38.3335V38.0557Z" fill="#1B6BB8"/>
<path d="M53.3083 48.2773H55.6908C55.9657 48.2773 56.149 48.4996 56.149 48.8329V49.944C56.149 50.2773 55.9657 50.4996 55.6908 50.4996H53.3083C53.0334 50.4996 52.8501 50.2773 52.8501 49.944V48.8329C52.8501 48.4996 53.0334 48.2773 53.3083 48.2773Z" fill="#1B6BB8"/>
<path d="M3.45818 48.2773H5.84072C6.11563 48.2773 6.2989 48.4996 6.2989 48.8329V49.944C6.2989 50.2773 6.11563 50.4996 5.84072 50.4996H3.45818C3.18327 50.4996 3 50.2773 3 49.944V48.8329C3 48.4996 3.18327 48.2773 3.45818 48.2773Z" fill="#1B6BB8"/>
<path d="M51.155 41.8884H49.4139C47.5354 41.8884 45.9775 39.9995 45.9775 37.7217V36.7217H50.4219C51.5674 36.7217 52.5296 37.8328 52.5296 39.2773V40.2773C52.5296 41.1662 51.9339 41.8884 51.155 41.8884Z" fill="#FFCD85"/>
<path d="M48.589 39.4436H50.7883C51.109 39.4436 51.3381 39.1103 51.3381 38.777C51.3381 38.3881 51.0632 38.1104 50.7883 38.1104H48.589C48.2683 38.1104 48.0392 38.4437 48.0392 38.777C47.9934 39.1659 48.2683 39.4436 48.589 39.4436Z" fill="#FFEABE"/>
<path d="M8.63566 36.7217H9.36874V38.7217C9.36874 40.4439 8.22329 41.8884 6.75711 41.8884H5.24512V40.8328C5.24512 38.555 6.75711 36.7217 8.63566 36.7217Z" fill="#FD2A43"/>
<path d="M5.52003 39.4436H7.7193C8.04003 39.4436 8.26912 39.1103 8.26912 38.777C8.26912 38.3881 7.99421 38.1104 7.7193 38.1104H5.52003C5.1993 38.1104 4.97021 38.4437 4.97021 38.777C4.97021 39.1659 5.1993 39.4436 5.52003 39.4436Z" fill="#FD9494"/>
<path d="M29.0247 23H29.1621C31.1781 23 33.1025 24.1667 34.3396 26.1111L41.0748 36.7222H9.36865C13.309 28.5 20.6399 23 29.0247 23Z" fill="#2195E8"/>
<path d="M40.2043 35.333L41.0748 36.7219H9.36865C9.59774 36.2774 9.82683 35.7775 10.1017 35.333H40.2043Z" fill="#1B6BB8"/>
<path d="M34.2479 26.167H34.3853L41.0748 36.7225H17.7075C21.3272 30.3337 27.3752 26.167 34.2479 26.167Z" fill="#FFEABE"/>
<path d="M17.6616 36.7227H19.3569H35.3933H35.9431H40.9831L40.1125 35.3338H35.9889C35.8514 32.1115 35.1184 29.0004 33.9271 26.3338C34.1104 26.3338 34.2936 26.2782 34.4769 26.2782L34.4311 26.2227H34.2936C34.1562 26.2227 34.0187 26.2227 33.9271 26.2227C33.7438 26.2227 33.5147 26.2782 33.3314 26.2782C26.8253 26.556 21.1438 30.6115 17.6616 36.7227ZM20.2274 35.3338C23.3889 30.556 28.0165 27.2227 33.3314 26.3893C34.5227 29.056 35.2558 32.1115 35.3933 35.3338H20.2274Z" fill="#FFCD85"/>
<path d="M34.2478 26.167H34.3853C35.8056 29.2781 36.5845 32.8892 36.5845 36.7225H36.0347C36.0347 32.8892 35.2558 29.2781 33.8354 26.167C33.9729 26.167 34.0645 26.167 34.2478 26.167Z" fill="#2195E8"/>
<path d="M44.0986 60.4445C47.9449 60.4445 51.063 56.6638 51.063 52.0001C51.063 47.3364 47.9449 43.5557 44.0986 43.5557C40.2523 43.5557 37.1343 47.3364 37.1343 52.0001C37.1343 56.6638 40.2523 60.4445 44.0986 60.4445Z" fill="#692F31"/>
<path d="M44.0986 58.9996C47.7641 58.9996 50.7423 55.6107 51.0172 51.2773C51.0172 51.4996 51.063 51.7218 51.063 51.9996C51.063 56.6662 47.9474 60.444 44.0986 60.444C40.2499 60.444 37.1343 56.6662 37.1343 51.9996C37.1343 51.7773 37.1343 51.5551 37.1801 51.2773C37.455 55.6107 40.479 58.9996 44.0986 58.9996Z" fill="#401113"/>
<path d="M44.0987 56C45.9315 56 47.3976 54.2222 47.3976 52C47.3976 49.7778 45.9315 48 44.0987 48C42.266 48 40.7998 49.7778 40.7998 52C40.7998 54.2222 42.3118 56 44.0987 56Z" fill="#401113"/>
<path d="M44.0987 54.6663C45.29 54.6663 46.298 53.4441 46.298 51.9996C46.298 50.5552 45.29 49.333 44.0987 49.333C42.9074 49.333 41.8994 50.5552 41.8994 51.9996C41.8994 53.4441 42.9074 54.6663 44.0987 54.6663Z" fill="#FFF318"/>
<path d="M44.0987 53.2218C45.1067 53.2218 45.9772 52.3885 46.2063 51.2773C46.2522 51.4996 46.298 51.7218 46.298 51.9996C46.298 53.444 45.29 54.6662 44.0987 54.6662C42.9074 54.6662 41.8994 53.444 41.8994 51.9996C41.8994 51.7773 41.9452 51.4996 41.9911 51.2773C42.266 52.3885 43.0907 53.2218 44.0987 53.2218Z" fill="#FFAF2B"/>
<path d="M14.0879 60.4445C17.9342 60.4445 21.0523 56.6638 21.0523 52.0001C21.0523 47.3364 17.9342 43.5557 14.0879 43.5557C10.2416 43.5557 7.12354 47.3364 7.12354 52.0001C7.12354 56.6638 10.2416 60.4445 14.0879 60.4445Z" fill="#692F31"/>
<path d="M14.0879 58.9996C17.7534 58.9996 20.7315 55.6107 21.0064 51.2773C21.0064 51.4996 21.0523 51.7218 21.0523 51.9996C21.0523 56.6662 17.9366 60.444 14.0879 60.444C10.2392 60.444 7.12354 56.6662 7.12354 51.9996C7.12354 51.7773 7.12353 51.5551 7.16935 51.2773C7.49008 55.6107 10.4683 58.9996 14.0879 58.9996Z" fill="#401113"/>
<path d="M14.088 56C15.9207 56 17.3869 54.2222 17.3869 52C17.3869 49.7778 15.9207 48 14.088 48C12.2552 48 10.7891 49.7778 10.7891 52C10.7891 54.2222 12.3011 56 14.088 56Z" fill="#401113"/>
<path d="M14.0879 54.6663C15.2792 54.6663 16.2872 53.4441 16.2872 51.9996C16.2872 50.5552 15.2792 49.333 14.0879 49.333C12.8967 49.333 11.8887 50.5552 11.8887 51.9996C11.8887 53.4441 12.8967 54.6663 14.0879 54.6663Z" fill="#FFF318"/>
<path d="M14.0879 53.2774C15.0959 53.2774 15.9665 52.4441 16.1956 51.333C16.2414 51.5552 16.2872 51.7775 16.2872 52.0552C16.2872 53.4997 15.2792 54.7219 14.0879 54.7219C12.8967 54.7219 11.8887 53.4997 11.8887 52.0552C11.8887 51.833 11.9345 51.5552 11.9803 51.333C12.2552 52.4441 13.0799 53.2774 14.0879 53.2774Z" fill="#FFAF2B"/>
</g>
<defs>
<clipPath id="clip0_5308_121052">
<rect width="60" height="60" fill="white"/>
</clipPath>
</defs>
</svg>
