<svg width="24" height="24" viewBox="0 0 24 24" fill="none" xmlns="http://www.w3.org/2000/svg">
<g clip-path="url(#clip0_5333_94154)">
<path d="M13.2545 23.9994H10.1991C9.4862 23.9994 8.67144 23.4244 8.67144 22.2744V20.2619C8.67144 19.3035 8.16222 18.441 7.34746 17.7702C5.51426 16.4285 4.59766 14.5119 4.59766 12.4035C4.6995 8.76185 7.85669 5.88685 11.6249 5.79102C13.56 5.79102 15.3932 6.46185 16.7172 7.70768C18.0412 8.95352 18.8559 10.6785 18.8559 12.4994C18.8559 14.5119 17.9393 16.4285 16.208 17.6744C15.2913 18.3452 14.7821 19.3994 14.7821 20.3577V22.5619C14.7821 23.3285 14.0692 23.9994 13.2545 23.9994ZM11.7268 6.74935C8.46775 6.74935 5.71795 9.33685 5.6161 12.4035C5.6161 14.2244 6.43086 15.9494 7.95853 17.0035C9.07882 17.866 9.68989 19.016 9.68989 20.2619V22.2744C9.68989 22.466 9.68989 23.041 10.1991 23.041H13.2545C13.56 23.041 13.7637 22.8494 13.7637 22.5619V20.3577C13.7637 19.1119 14.4766 17.7702 15.5969 16.9077C17.0227 15.8535 17.8375 14.2244 17.8375 12.4994C17.8375 10.966 17.2264 9.52852 16.0043 8.37852C14.884 7.32435 13.3563 6.74935 11.7268 6.74935Z" fill="#065B5B"/>
<path d="M14.2728 21.1243H9.18061C8.87508 21.1243 8.67139 20.9327 8.67139 20.6452C8.67139 20.3577 8.87508 20.166 9.18061 20.166H14.2728C14.5784 20.166 14.7821 20.3577 14.7821 20.6452C14.7821 20.9327 14.5784 21.1243 14.2728 21.1243Z" fill="#065B5B"/>
<path d="M11.7265 3.875C11.421 3.875 11.2173 3.68333 11.2173 3.39583V1.47917C11.2173 1.19167 11.421 1 11.7265 1C12.032 1 12.2357 1.19167 12.2357 1.47917V3.39583C12.2357 3.68333 12.032 3.875 11.7265 3.875Z" fill="#065B5B"/>
<path d="M18.5499 6.55872C18.448 6.55872 18.2444 6.55872 18.1425 6.46289C17.9388 6.27122 17.9388 5.98372 18.1425 5.79206L19.5683 4.45039C19.772 4.25872 20.0776 4.25872 20.2813 4.45039C20.4849 4.64206 20.4849 4.92956 20.2813 5.12122L18.8554 6.46289C18.8554 6.46289 18.6517 6.55872 18.5499 6.55872Z" fill="#065B5B"/>
<path d="M23.4387 12.9798H21.4018C21.0963 12.9798 20.8926 12.7882 20.8926 12.5007C20.8926 12.2132 21.0963 12.0215 21.4018 12.0215H23.4387C23.7442 12.0215 23.9479 12.2132 23.9479 12.5007C23.9479 12.7882 23.7442 12.9798 23.4387 12.9798Z" fill="#065B5B"/>
<path d="M19.9757 20.7423C19.8739 20.7423 19.6702 20.7423 19.5683 20.6465L18.1425 19.3048C17.9388 19.1132 17.9388 18.8257 18.1425 18.634C18.3462 18.4423 18.6517 18.4423 18.8554 18.634L20.2813 19.9756C20.4849 20.1673 20.4849 20.4548 20.2813 20.6465C20.2813 20.7423 20.1794 20.7423 19.9757 20.7423Z" fill="#065B5B"/>
<path d="M3.47714 20.7423C3.37529 20.7423 3.1716 20.7423 3.06976 20.6465C2.86607 20.4548 2.86607 20.1673 3.06976 19.9756L4.49558 18.634C4.69927 18.4423 5.00481 18.4423 5.2085 18.634C5.41219 18.8257 5.41219 19.1132 5.2085 19.3048L3.78267 20.6465C3.68083 20.7423 3.57898 20.7423 3.47714 20.7423Z" fill="#065B5B"/>
<path d="M2.05149 12.9798H0.0145946C-0.29094 12.9798 -0.494629 12.7882 -0.494629 12.5007C-0.494629 12.2132 -0.29094 12.0215 0.0145946 12.0215H2.05149C2.35702 12.0215 2.56071 12.2132 2.56071 12.5007C2.56071 12.7882 2.35702 12.9798 2.05149 12.9798Z" fill="#065B5B"/>
<path d="M4.90296 6.55885C4.80112 6.55885 4.59743 6.55885 4.49558 6.46302L3.06976 5.02552C2.86607 4.83385 2.86607 4.54635 3.06976 4.35469C3.27345 4.16302 3.57898 4.16302 3.78267 4.35469L5.2085 5.69635C5.41219 5.88802 5.41219 6.17552 5.2085 6.36719C5.10665 6.46302 5.00481 6.55885 4.90296 6.55885Z" fill="#065B5B"/>
<path d="M15.8003 12.9792C15.4948 12.9792 15.2911 12.7875 15.2911 12.5C15.2911 10.6792 13.6616 9.14583 11.7265 9.14583C11.421 9.14583 11.2173 8.95417 11.2173 8.66667C11.2173 8.37917 11.421 8.1875 11.7265 8.1875C14.2726 8.1875 16.3095 10.1042 16.3095 12.5C16.3095 12.7875 16.1058 12.9792 15.8003 12.9792Z" fill="#065B5B"/>
</g>
<defs>
<clipPath id="clip0_5333_94154">
<rect width="24" height="24" fill="white"/>
</clipPath>
</defs>
</svg>
