<svg width="55" height="55" viewBox="0 0 55 55" fill="none" xmlns="http://www.w3.org/2000/svg">
<g clip-path="url(#clip0_5308_116521)">
<path d="M43.9995 2.5854L17.1206 0.994141L14.7552 40.5589L41.634 42.1501L43.9995 2.5854Z" fill="#9C4F33"/>
<path d="M30.5565 1.79511L17.1128 1L17.9118 2.01376L30.4966 2.76911L43.1013 3.50459L44.0002 2.59021L30.5565 1.79511Z" fill="#CE714F"/>
<path d="M15.9344 20.7773L17.113 0.999023L17.912 2.01278L16.7934 20.8369L15.6747 39.5021L14.7559 40.5556L15.9344 20.7773Z" fill="#8C462D"/>
<path d="M28.1996 41.3511L41.6433 42.1661L40.8442 41.1324L28.2595 40.397L15.5549 39.6416L14.7559 40.556L28.1996 41.3511Z" fill="#81412A"/>
<path d="M42.8218 22.3681L41.6433 42.1663L40.8442 41.1327L41.9629 22.3284L43.1015 3.50422L44.0004 2.58984L42.8218 22.3681Z" fill="#633321"/>
<path d="M26.0106 3.8765L18.4136 3.42676L17.9035 11.9588L25.5006 12.4085L26.0106 3.8765Z" fill="#9C4F33"/>
<path d="M22.206 3.66397L18.4106 3.44531L18.91 4.0814L22.1661 4.2603L25.4221 4.45907L26.0014 3.88262L22.206 3.66397Z" fill="#CE714F"/>
<path d="M25.742 8.15651L26.0017 3.88281L25.4224 4.45926L25.2026 8.11676L24.9829 11.7742L25.5023 12.4103L25.742 8.15651Z" fill="#633321"/>
<path d="M21.687 12.1909L25.5024 12.4096L24.983 11.8132L21.727 11.6343L18.5508 11.4355L17.8916 11.9722L21.687 12.1909Z" fill="#81412A"/>
<path d="M18.9104 4.0814L18.411 3.44531L18.1513 7.69914L17.8916 11.9728L18.5508 11.4361L18.9104 4.0814Z" fill="#8C462D"/>
<path d="M23.9245 4.37922L18.9106 4.08105L18.6709 8.09634C18.6709 8.09634 18.8307 4.51836 23.9245 4.37922Z" fill="#CE714F"/>
<path d="M34.0795 4.37161L26.4824 3.92188L25.9723 12.4539L33.5694 12.9036L34.0795 4.37161Z" fill="#9C4F33"/>
<path d="M30.2968 4.14053L26.4814 3.92188L27.0008 4.55796L30.2569 4.73686L33.5129 4.93564L34.0922 4.35918L30.2968 4.14053Z" fill="#CE714F"/>
<path d="M33.8323 8.63308L34.092 4.35938L33.5127 4.93583L33.293 8.59332L33.0732 12.2508L33.5726 12.9068L33.8323 8.63308Z" fill="#633321"/>
<path d="M29.7773 12.6675L33.5727 12.906L33.0733 12.2898L29.8173 12.1109L26.6212 11.9121L25.9819 12.4488L29.7773 12.6675Z" fill="#81412A"/>
<path d="M27.0002 4.55796L26.4808 3.92188L26.2411 8.1757L25.9814 12.4494L26.6207 11.9127L27.0002 4.55796Z" fill="#8C462D"/>
<path d="M32.0149 4.85578L27.0009 4.55762L26.7612 8.57291C26.7612 8.57291 26.921 4.99493 32.0149 4.85578Z" fill="#CE714F"/>
<path d="M42.1899 4.84917L34.5928 4.39941L34.0827 12.9314L41.6797 13.3812L42.1899 4.84917Z" fill="#9C4F33"/>
<path d="M38.4067 4.61807L34.6113 4.39941L35.1107 5.0355L38.3668 5.23428L41.6228 5.41318L42.2021 4.83672L38.4067 4.61807Z" fill="#CE714F"/>
<path d="M41.9427 9.11061L42.2024 4.83691L41.6231 5.41337L41.4033 9.07086L41.1836 12.7482L41.683 13.3843L41.9427 9.11061Z" fill="#633321"/>
<path d="M37.8877 13.145L41.6831 13.3835L41.1837 12.7872L37.9276 12.5884L34.7315 12.3896L34.0923 12.9263L37.8877 13.145Z" fill="#81412A"/>
<path d="M35.1106 5.0355L34.6112 4.39941L34.3515 8.65324L34.0918 12.9269L34.731 12.3902L35.1106 5.0355Z" fill="#8C462D"/>
<path d="M40.1252 5.33332L35.1113 5.03516L34.8716 9.05045C34.8716 9.05045 35.0314 5.47247 40.1252 5.33332Z" fill="#CE714F"/>
<path d="M25.4516 13.1187L17.8545 12.6689L17.3444 21.201L24.9415 21.6507L25.4516 13.1187Z" fill="#9C4F33"/>
<path d="M21.6475 12.9065L17.8521 12.668L18.3514 13.3041L21.6275 13.5028L24.8835 13.7016L25.4429 13.1252L21.6475 12.9065Z" fill="#CE714F"/>
<path d="M25.2034 17.3987L25.4431 13.125L24.8838 13.7015L24.6641 17.3589L24.4443 21.0164L24.9437 21.6525L25.2034 17.3987Z" fill="#633321"/>
<path d="M21.1484 21.4341L24.9438 21.6527L24.4444 21.0564L21.1684 20.8576L17.9923 20.6787L17.353 21.2154L21.1484 21.4341Z" fill="#81412A"/>
<path d="M18.3513 13.3041L17.8519 12.668L17.5922 16.9417L17.3525 21.2154L17.9918 20.6787L18.3513 13.3041Z" fill="#8C462D"/>
<path d="M23.3659 13.6019L18.352 13.3037L18.1123 17.319C18.1123 17.319 18.2921 13.7609 23.3659 13.6019Z" fill="#CE714F"/>
<path d="M33.5414 13.5962L25.9443 13.1465L25.4342 21.6785L33.0313 22.1283L33.5414 13.5962Z" fill="#9C4F33"/>
<path d="M29.7378 13.384L25.9424 13.1455L26.4418 13.7816L29.6978 13.9804L32.9539 14.1791L33.5332 13.6027L29.7378 13.384Z" fill="#CE714F"/>
<path d="M33.2732 17.8762L33.5329 13.6025L32.9536 14.179L32.7339 17.8365L32.5142 21.494L33.0136 22.1301L33.2732 17.8762Z" fill="#633321"/>
<path d="M29.2182 21.9116L33.0136 22.1303L32.5142 21.5339L29.2582 21.355L26.0621 21.1562L25.4229 21.6929L29.2182 21.9116Z" fill="#81412A"/>
<path d="M26.4416 13.7816L25.9422 13.1455L25.6825 17.4192L25.4229 21.6929L26.0621 21.1562L26.4416 13.7816Z" fill="#8C462D"/>
<path d="M31.4558 14.0794L26.4419 13.7812L26.2021 17.7965C26.2021 17.8164 26.362 14.2384 31.4558 14.0794Z" fill="#CE714F"/>
<path d="M41.6518 14.0728L34.0547 13.623L33.5446 22.1551L41.1417 22.6048L41.6518 14.0728Z" fill="#9C4F33"/>
<path d="M37.8476 13.8612L34.0522 13.6426L34.5516 14.2787L37.8077 14.4576L41.0638 14.6563L41.6431 14.0799L37.8476 13.8612Z" fill="#CE714F"/>
<path d="M41.3836 18.3528L41.6433 14.0791L41.064 14.6556L40.8442 18.313L40.6245 21.9705L41.1439 22.6066L41.3836 18.3528Z" fill="#633321"/>
<path d="M37.3286 22.3882L41.144 22.6068L40.6246 22.0105L37.3686 21.8316L34.1924 21.6328L33.5332 22.1695L37.3286 22.3882Z" fill="#81412A"/>
<path d="M34.552 14.2787L34.0526 13.6426L33.7929 17.8964L33.5332 22.1701L34.1924 21.6334L34.552 14.2787Z" fill="#8C462D"/>
<path d="M39.5661 14.5765L34.5522 14.2783L34.3125 18.2936C34.3125 18.2936 34.4723 14.7156 39.5661 14.5765Z" fill="#CE714F"/>
<path d="M24.9115 22.2827L17.3145 21.833L16.8044 30.365L24.4014 30.8147L24.9115 22.2827Z" fill="#9C4F33"/>
<path d="M21.1074 22.0706L17.312 21.832L17.8114 22.4681L21.0675 22.6669L24.3235 22.8657L24.9028 22.2892L21.1074 22.0706Z" fill="#CE714F"/>
<path d="M24.6434 26.5628L24.903 22.2891L24.3237 22.8655L24.104 26.523L23.8843 30.1805L24.3837 30.8166L24.6434 26.5628Z" fill="#633321"/>
<path d="M20.5884 30.5981L24.3838 30.8168L23.8844 30.2204L20.6283 30.0217L17.4322 29.8428L16.793 30.3795L20.5884 30.5981Z" fill="#81412A"/>
<path d="M17.8117 22.4681L17.3123 21.832L17.0527 26.1057L16.793 30.3794L17.4322 29.8427L17.8117 22.4681Z" fill="#8C462D"/>
<path d="M22.8259 22.7659L17.812 22.4678L17.5723 26.4831C17.5723 26.5029 17.7321 22.925 22.8259 22.7659Z" fill="#CE714F"/>
<path d="M32.9823 22.7584L25.3853 22.3086L24.8751 30.8406L32.4722 31.2904L32.9823 22.7584Z" fill="#9C4F33"/>
<path d="M29.1782 22.5471L25.3828 22.3086L25.9022 22.9646L29.1582 23.1435L32.4143 23.3422L32.9936 22.7658L29.1782 22.5471Z" fill="#CE714F"/>
<path d="M32.7337 27.0393L32.9934 22.7656L32.4141 23.3421L32.1943 26.9996L31.9746 30.6571L32.474 31.2931L32.7337 27.0393Z" fill="#633321"/>
<path d="M28.6787 31.0747L32.4741 31.2933L31.9747 30.697L28.7187 30.5181L25.5225 30.3193L24.8833 30.856L28.6787 31.0747Z" fill="#81412A"/>
<path d="M25.9016 22.9646L25.3822 22.3086L25.1425 26.5823L24.8828 30.856L25.522 30.3193L25.9016 22.9646Z" fill="#8C462D"/>
<path d="M30.9162 23.2425L25.9023 22.9443L25.6626 26.9596C25.6626 26.9795 25.8224 23.4015 30.9162 23.2425Z" fill="#CE714F"/>
<path d="M41.0912 23.2554L33.4941 22.8057L32.984 31.3377L40.5811 31.7874L41.0912 23.2554Z" fill="#9C4F33"/>
<path d="M37.3086 23.0243L33.5132 22.8057L34.0126 23.4418L37.2686 23.6207L40.5247 23.8194L41.104 23.243L37.3086 23.0243Z" fill="#CE714F"/>
<path d="M40.844 27.5169L41.1037 23.2432L40.5244 23.8196L40.3047 27.4771L40.085 31.1346L40.5844 31.7906L40.844 27.5169Z" fill="#633321"/>
<path d="M36.7891 31.5513L40.5845 31.7898L40.0851 31.1736L36.829 30.9947L33.6329 30.7959L32.9937 31.3326L36.7891 31.5513Z" fill="#81412A"/>
<path d="M34.0119 23.4418L33.5125 22.8057L33.2529 27.0595L32.9932 31.3332L33.6324 30.7965L34.0119 23.4418Z" fill="#8C462D"/>
<path d="M39.0266 23.7396L34.0127 23.4414L33.7729 27.4567C33.7729 27.4567 33.9328 23.8787 39.0266 23.7396Z" fill="#CE714F"/>
<path d="M24.3529 31.4449L16.7559 30.9951L16.2458 39.5271L23.8429 39.9769L24.3529 31.4449Z" fill="#9C4F33"/>
<path d="M20.5488 31.2337L16.7534 30.9951L17.2728 31.6312L20.5288 31.83L23.7849 32.0288L24.3642 31.4523L20.5488 31.2337Z" fill="#CE714F"/>
<path d="M24.1043 35.7258L24.364 31.4521L23.7847 32.0286L23.5649 35.6861L23.3452 39.3436L23.8446 39.9797L24.1043 35.7258Z" fill="#633321"/>
<path d="M20.0493 39.7612L23.8447 39.9799L23.3453 39.3835L20.0893 39.2046L16.8931 39.0059L16.2539 39.5426L20.0493 39.7612Z" fill="#81412A"/>
<path d="M17.2722 31.6312L16.7528 30.9951L16.5131 35.2688L16.2534 39.5425L16.8926 39.0058L17.2722 31.6312Z" fill="#8C462D"/>
<path d="M22.2868 31.929L17.2729 31.6309L17.0332 35.6462C17.0332 35.666 17.193 32.088 22.2868 31.929Z" fill="#CE714F"/>
<path d="M32.4428 31.9224L24.8457 31.4727L24.3356 40.0047L31.9327 40.4544L32.4428 31.9224Z" fill="#9C4F33"/>
<path d="M28.6391 31.7112L24.8438 31.4727L25.3431 32.1286L28.5992 32.3075L31.8553 32.5063L32.4345 31.9298L28.6391 31.7112Z" fill="#CE714F"/>
<path d="M32.1746 36.2034L32.4343 31.9297L31.855 32.5061L31.6353 36.1636L31.4155 39.8211L31.9349 40.4572L32.1746 36.2034Z" fill="#633321"/>
<path d="M28.1396 40.2387L31.935 40.4574L31.4156 39.8611L28.1596 39.6822L24.9834 39.4834L24.3242 40.0201L28.1396 40.2387Z" fill="#81412A"/>
<path d="M25.343 32.1286L24.8436 31.4727L24.5839 35.7464L24.3242 40.02L24.9834 39.4834L25.343 32.1286Z" fill="#8C462D"/>
<path d="M30.3571 32.4066L25.3432 32.1084L25.1035 36.1237C25.1035 36.1436 25.2633 32.5656 30.3571 32.4066Z" fill="#CE714F"/>
<path d="M40.5517 32.4195L32.9546 31.9697L32.4445 40.5017L40.0416 40.9515L40.5517 32.4195Z" fill="#9C4F33"/>
<path d="M36.749 32.1884L32.9536 31.9697L33.453 32.6058L36.7091 32.7847L39.9651 32.9835L40.5444 32.407L36.749 32.1884Z" fill="#CE714F"/>
<path d="M40.285 36.6809L40.5447 32.4072L39.9654 32.9837L39.7457 36.6412L39.5459 40.2987L40.0453 40.9546L40.285 36.6809Z" fill="#633321"/>
<path d="M36.2495 40.7153L40.0449 40.9538L39.5255 40.3376L36.2695 40.1587L33.0933 39.96L32.4541 40.4967L36.2495 40.7153Z" fill="#81412A"/>
<path d="M33.4524 32.6058L32.953 31.9697L32.6933 36.2235L32.4536 40.4972L33.0928 39.9605L33.4524 32.6058Z" fill="#8C462D"/>
<path d="M38.4665 32.9036L33.4526 32.6055L33.2129 36.6208C33.2129 36.6208 33.3727 33.0428 38.4665 32.9036Z" fill="#CE714F"/>
<path fill-rule="evenodd" clip-rule="evenodd" d="M26.3414 22.2689C26.7809 22.6068 27.3002 22.9249 27.7197 22.9448C28.6985 23.0044 28.7585 23.7796 30.7361 25.7475C32.6937 27.7154 33.9322 27.2383 35.8299 28.5105C37.7276 29.7628 39.6852 30.0013 40.8638 30.6573C41.5829 31.0747 42.0424 31.2934 42.4818 31.6512L41.3432 50.5548L13.6568 48.9249L15.1949 23.3224C15.1949 23.3026 15.2149 22.8454 14.8354 22.5075C14.4558 22.1497 13.3971 21.2949 12.678 20.9967C11.9588 20.6787 11 20.9769 11 20.9769C11 20.9769 12.3184 19.2475 13.477 18.9493C14.6556 18.6313 15.4946 17.2796 15.5145 16.9815C15.5345 16.6833 14.7954 14.9539 14.8953 13.483C14.9752 12.012 15.3947 10.7796 15.4546 11.4356C15.5345 12.0916 17.9516 14.6955 18.3511 15.3117C18.7506 15.9279 18.2712 16.564 18.1713 17.3194C18.0714 18.0747 20.7282 17.5778 21.2875 17.6175C21.8469 17.6573 22.2064 17.9356 22.8257 19.2276C23.4649 20.5197 23.2252 20.0227 24.224 20.5197C25.2427 21.0166 26.3414 22.2689 26.3414 22.2689Z" fill="#F42B3B"/>
<path fill-rule="evenodd" clip-rule="evenodd" d="M28.0395 23.0044C28.5189 23.1435 28.7786 23.5809 29.4577 24.376C29.3579 24.3561 29.258 24.3362 29.1581 24.3163C28.8385 24.2964 28.5588 24.376 28.3391 24.5747C28.1194 24.7735 27.9995 25.012 27.9795 25.3301C27.9596 25.6481 28.0395 25.9065 28.2192 26.1053C28.399 26.3041 28.6587 26.4234 29.0183 26.483L28.8784 28.0334C28.0794 27.8744 27.4602 27.5763 27.0606 27.0793C26.6411 26.6023 26.4614 25.986 26.5013 25.2705C26.5413 24.535 26.8409 23.9188 27.3603 23.4616C27.56 23.2628 27.7997 23.1237 28.0395 23.0044ZM30.2568 25.2903C30.3966 25.4494 30.5564 25.6084 30.7162 25.7674C30.9959 26.0656 31.2755 26.3041 31.5352 26.483C31.3954 26.8408 31.1757 27.139 30.876 27.4172C30.5165 27.7353 30.0171 27.9539 29.3978 28.0533L29.3778 26.4631C29.9372 26.324 30.2168 26.0059 30.2568 25.4891C30.2568 25.4295 30.2568 25.35 30.2568 25.2903ZM33.4129 27.457C33.6726 27.5564 33.9323 27.6359 34.192 27.7353L32.9535 48.4876L32.1545 48.4478L33.4129 27.457ZM24.5037 20.6787C24.7634 20.8377 25.0231 21.0365 25.2628 21.2353L23.6648 47.9111L22.8657 47.8714L24.5037 20.6787ZM31.3954 31.2536C31.3554 31.9494 31.0558 32.5457 30.5165 33.0227C29.9771 33.4998 29.3379 33.7185 28.6188 33.6787C27.8796 33.639 27.2804 33.3408 26.801 32.8041C26.3215 32.2674 26.1018 31.6313 26.1418 30.9157C26.1817 30.2001 26.4813 29.5839 27.0207 29.1068C27.56 28.6298 28.1993 28.4111 28.9184 28.4509C29.6575 28.4906 30.2568 28.7888 30.7362 29.3255C31.2156 29.8622 31.4353 30.5182 31.3954 31.2536ZM29.9172 31.1344C29.9372 30.8362 29.8373 30.5579 29.6175 30.3393C29.3978 30.1206 29.1381 29.9815 28.8185 29.9616C28.4989 29.9417 28.2192 30.0411 27.9795 30.2399C27.7398 30.4386 27.62 30.6971 27.6 30.9952C27.58 31.2934 27.6799 31.5717 27.8796 31.7903C28.0994 32.009 28.3591 32.1282 28.6787 32.1481C28.9983 32.168 29.278 32.0686 29.5177 31.8698C29.7774 31.6909 29.8972 31.4325 29.9172 31.1344ZM31.0758 34.4142L30.9959 35.8851L28.0195 35.7062C27.7798 35.6864 27.6399 35.7261 27.5401 35.7857C27.4602 35.8653 27.4202 36.0044 27.4002 36.2231V36.3026L25.942 36.2231L25.962 35.8255C26.0019 35.2888 26.1817 34.8714 26.5213 34.5931C26.8609 34.3148 27.3004 34.1955 27.8597 34.2154L31.0758 34.4142ZM28.3391 38.668L27.0207 38.5885L27.0407 38.1711L25.8421 38.0916L25.922 36.6206L29.0982 36.7995C29.7174 36.8393 30.1769 37.038 30.4965 37.376C30.8161 37.7338 30.9559 38.2108 30.916 38.827C30.876 39.4035 30.6962 39.8408 30.3766 40.0992C30.057 40.3576 29.5576 40.4769 28.9184 40.4371L25.6823 40.2383L25.7622 38.7674L28.8984 38.9463C29.0982 38.9662 29.218 38.9463 29.2979 38.9065C29.3778 38.8668 29.4178 38.7873 29.4178 38.668C29.4378 38.4295 29.278 38.3102 28.9184 38.2903L28.2991 38.2506L28.3391 38.668ZM29.0982 43.5182L25.5425 43.2995L25.6224 41.8286L29.1781 42.0472L29.238 40.9142L30.6763 40.9937L30.4765 44.7307L29.0382 44.6512L29.0982 43.5182ZM28.3191 47.8316L27.2005 47.772L27.2604 46.8179C27.2604 46.6787 27.2604 46.5992 27.2204 46.5396C27.1805 46.4799 27.1206 46.4601 27.0207 46.4402C26.9208 46.4402 26.8409 46.4601 26.801 46.5197C26.761 46.5793 26.741 46.6787 26.7211 46.8576L26.6611 47.8515L25.2428 47.772L25.3028 46.6191C25.3427 46.0625 25.4826 45.6649 25.7622 45.3867C26.0419 45.1084 26.4214 44.9891 26.9208 45.0289L28.8784 45.1481C29.3579 45.168 29.7174 45.327 29.9771 45.6252C30.2168 45.9234 30.3367 46.301 30.2967 46.798L30.2168 48.09L28.7786 48.0105L28.8385 47.0763C28.8585 46.8179 28.7786 46.6986 28.6188 46.6787C28.5189 46.6787 28.4589 46.6986 28.419 46.7582C28.379 46.8179 28.3591 46.9172 28.3391 47.0763L28.3191 47.8316Z" fill="#FFCB00"/>
<path d="M41.3308 50.5594L13.6543 48.9209L13.5084 51.3614L41.1849 52.9999L41.3308 50.5594Z" fill="#BB1D2E"/>
<path fill-rule="evenodd" clip-rule="evenodd" d="M42.4621 31.6708C42.0026 31.3329 41.5632 31.0943 40.844 30.6769C40.1848 30.2992 39.2859 30.0607 38.2871 29.7029C37.7678 29.6234 37.2484 29.5439 36.749 29.4246C35.9699 29.2258 35.2908 28.868 34.5517 28.5699C33.1134 27.9934 31.8349 27.6158 30.7163 26.4628C28.7587 24.495 28.6788 23.7197 27.7 23.6601C27.2805 23.6402 26.7611 23.3222 26.3216 22.9843C26.3216 22.9843 25.2429 21.732 24.2242 21.235C23.2054 20.7381 23.4651 21.235 22.8259 19.943C22.1866 18.6509 21.8271 18.3528 21.2877 18.3329C20.9282 18.313 19.6697 18.5118 18.8707 18.4521C18.8307 18.4521 18.7708 18.4521 18.7308 18.4323H18.7109C18.6709 18.4323 18.6309 18.4124 18.611 18.4124H18.591C18.5111 18.3925 18.4512 18.3726 18.3912 18.3329C18.3912 18.3329 18.3713 18.3329 18.3713 18.313C18.3513 18.2931 18.3313 18.2931 18.3113 18.2732C18.3113 18.2732 18.3113 18.2732 18.2914 18.2534C18.2714 18.2335 18.2514 18.2136 18.2314 18.1937C18.2314 18.1937 18.2314 18.1937 18.2314 18.1739C18.2314 18.154 18.2115 18.1341 18.2115 18.1142V18.0943C18.2115 18.0745 18.2115 18.0347 18.2115 18.0148C18.2314 17.8558 18.2714 17.6968 18.3113 17.5577C18.2314 17.498 18.1915 17.4185 18.2115 17.3191C18.2714 16.9216 18.4112 16.5836 18.4911 16.2457C18.4711 16.1662 18.4312 16.1066 18.3912 16.0271C17.9917 15.4109 15.5747 12.8069 15.4947 12.1509C15.4947 12.1112 15.4947 12.0913 15.4748 12.0515V12.0317C15.4748 12.0118 15.4548 11.9919 15.4548 11.972L15.4348 11.9521C15.4348 11.9521 15.4148 11.9521 15.4148 11.972C15.3949 11.9919 15.3949 11.9919 15.3749 12.0118C15.2351 12.2503 15.0353 13.1051 14.9554 14.0791C15.0553 15.3711 15.5946 16.7029 15.5747 16.9613C15.5747 17.021 15.5347 17.1203 15.4748 17.2197C15.4947 17.2595 15.4947 17.2992 15.5147 17.3589C15.5347 17.3986 15.5347 17.4384 15.5347 17.4781C15.5347 17.498 15.5347 17.498 15.5347 17.5179C15.5347 17.5378 15.5547 17.5577 15.5547 17.5974V17.6173C15.5547 17.6372 15.5547 17.657 15.5547 17.6769C15.5547 17.6968 15.5547 17.7167 15.5347 17.7365V17.7564C15.4148 18.1739 14.5958 19.3466 13.5171 19.6448C12.8979 19.8038 12.2387 20.3604 11.7593 20.8573C12.0589 20.8375 12.3985 20.8573 12.6981 20.9965C13.4173 21.3145 14.476 22.1693 14.8555 22.5072C15.2351 22.8451 15.2151 23.2824 15.2151 23.3222L15.1951 23.6402C15.3749 23.8589 15.7744 24.3558 15.9941 24.9521C16.3138 25.7671 16.0141 25.9063 16.3138 25.787C16.6134 25.6677 18.5311 25.3696 19.3301 25.5882C20.1491 25.8069 22.6461 26.8405 22.8259 27.0592C23.0056 27.258 24.2441 26.8604 25.5226 27.2778C26.821 27.6754 26.8809 27.8145 28.2393 27.7947C29.5777 27.7748 30.3767 27.7947 31.0159 28.1326C31.3156 28.2916 32.0747 28.5699 32.7738 28.8283C33.2732 29.206 33.6927 29.524 34.0722 29.6035C34.7514 29.7625 37.5081 30.657 38.1673 30.8757C39.226 31.2136 40.065 32.0683 41.2036 32.1677C41.5432 32.2075 42.0825 32.4858 42.4421 32.4858L42.4621 31.6708Z" fill="#EAEAEA"/>
<path fill-rule="evenodd" clip-rule="evenodd" d="M15.0551 22.8052C14.9952 22.7058 14.9352 22.6064 14.8354 22.507C14.4558 22.1492 13.3971 21.2945 12.678 20.9963C11.9588 20.6783 11 20.9764 11 20.9764C11 20.9764 12.3184 19.2471 13.477 18.9489C14.6556 18.6309 15.4946 17.2792 15.5145 16.981C15.5345 16.7425 15.115 15.7287 14.9552 14.5957C15.5944 15.1523 16.813 16.1263 18.1913 17.1997C18.1913 17.2394 18.1713 17.2792 18.1713 17.3189C18.1314 17.5774 18.431 17.6966 18.8705 17.7364C21.9268 20.1217 25.4625 22.8251 25.4625 22.8251L34.2518 28.6095C34.2518 28.6095 31.635 27.7547 31.0157 27.4168C30.3765 27.0789 29.5775 27.059 28.2391 27.0789C26.9007 27.0988 26.8208 26.9596 25.5224 26.5621C24.224 26.1645 23.0054 26.5422 22.8257 26.3434C22.6459 26.1446 20.1289 25.0911 19.3299 24.8725C18.5109 24.6538 16.6132 24.952 16.3136 25.0712C16.0139 25.1905 16.3136 25.0514 15.9939 24.2364C15.6544 23.4413 15.0551 22.8052 15.0551 22.8052Z" fill="#BB1D2E"/>
<path fill-rule="evenodd" clip-rule="evenodd" d="M26.3412 22.2686C26.7806 22.6066 27.3 22.9246 27.7195 22.9445C28.6983 23.0041 28.7582 23.7793 30.7358 25.7472C32.6935 27.7151 33.932 27.2381 35.8297 28.5102C37.7274 29.7625 39.685 30.001 40.8636 30.657C41.5827 31.0744 42.0421 31.2931 42.4816 31.6509C42.4816 31.6509 40.9035 31.4919 40.2243 31.154C39.5452 30.816 38.826 30.3191 38.1668 30.1203C37.5076 29.9215 34.751 29.0072 34.0718 28.8481C33.3926 28.6891 32.6335 27.8741 31.5349 27.1387C30.4562 26.4231 26.1614 25.4093 24.7631 24.7136C23.3648 24.0179 19.9289 22.9644 18.231 21.2748C16.5131 19.5851 15.6741 18.9491 15.4943 18.313C15.3545 17.816 15.4344 17.2793 15.4943 17.0607C15.5143 17.0209 15.5143 16.9812 15.5143 16.9414C15.5343 16.6433 14.7952 14.9139 14.895 13.4429C14.9749 11.972 15.3944 10.7396 15.4544 11.3955C15.5343 12.0515 17.9513 14.6555 18.3508 15.2717C18.7504 15.8879 18.2709 16.524 18.1711 17.2793C18.0712 18.0347 20.728 17.5377 21.2873 17.5775C21.8466 17.6173 22.2062 17.8955 22.8254 19.1876C23.4646 20.4796 23.2249 19.9827 24.2237 20.4796C25.2425 21.0163 26.3412 22.2686 26.3412 22.2686Z" fill="#CCCCCC"/>
<path fill-rule="evenodd" clip-rule="evenodd" d="M26.3411 22.2688C26.7806 22.6067 27.3 22.9247 27.7195 22.9446C28.6983 23.0043 28.7582 23.7795 30.7358 25.7474C32.6934 27.7153 33.9319 27.2382 35.8296 28.5104C37.7273 29.7627 39.685 30.0012 40.8635 30.6572C41.5827 31.0746 42.0421 31.2932 42.4816 31.651C42.4816 31.651 40.9035 31.492 40.2243 31.1541C39.5451 30.8162 38.826 30.3192 38.1668 30.1205C37.5076 29.9217 34.7509 29.0073 34.0718 28.8483C33.3926 28.6893 32.6335 27.8743 31.5348 27.1388C30.9755 26.7611 29.5772 26.3238 28.139 25.8666C27.9791 25.3498 27.8193 24.833 27.6595 24.3559C27.1601 22.8651 24.5833 21.5731 24.2437 21.2749C23.8841 20.9767 23.5645 20.9966 23.3647 22.2091C23.165 23.4416 23.3448 22.6862 23.165 23.4018C23.1051 23.6403 23.185 23.8987 23.3048 24.1174C22.7255 23.8789 22.0863 23.6205 21.4471 23.3223C21.4471 23.3223 21.7467 22.8651 22.326 22.4278C22.9053 21.9905 22.5857 21.5333 22.6456 20.778C22.7055 20.0226 22.2061 19.0685 21.8865 18.6709C21.5469 18.2734 20.8078 18.1939 20.5881 18.4523C20.3684 18.7306 20.2086 18.4324 20.1287 18.2734C20.0488 18.1143 19.3696 18.333 18.9501 18.2932C18.5306 18.2535 18.4906 18.2535 18.3109 17.9951C18.1311 17.7367 18.191 17.9156 17.9313 18.2535C17.6716 18.5914 17.5518 19.9828 17.5518 19.9828C17.5518 19.9828 17.412 18.6312 17.2322 18.4324C17.0524 18.2336 17.4319 17.2198 17.4319 16.8024C17.4319 16.385 17.6916 15.7887 17.1523 15.4507C16.6329 15.1128 17.1523 14.6954 16.6729 14.3376C16.1934 13.9798 16.1735 13.8804 15.694 12.8269C15.4344 12.2902 15.3544 11.7336 15.3345 11.3162C15.3944 11.2168 15.4543 11.2367 15.4743 11.4354C15.5542 12.0914 17.9713 14.6954 18.3708 15.3116C18.7703 15.9278 18.2909 16.5639 18.191 17.3192C18.0911 18.0746 20.7479 17.5776 21.3072 17.6174C21.8666 17.6572 22.2261 17.9354 22.8454 19.2275C23.4846 20.5195 23.2449 20.0226 24.2437 20.5195C25.2425 21.0165 26.3411 22.2688 26.3411 22.2688Z" fill="#E6E6E6"/>
</g>
<defs>
<clipPath id="clip0_5308_116521">
<rect width="33" height="52" fill="white" transform="translate(11 1)"/>
</clipPath>
</defs>
</svg>
