<svg width="55" height="55" viewBox="0 0 55 55" fill="none" xmlns="http://www.w3.org/2000/svg">
<path d="M27.9993 8.45605H27.8184V10.5733H27.9993V8.45605Z" fill="black"/>
<path d="M27.9993 45.2822H27.8184V47.3995H27.9993V45.2822Z" fill="black"/>
<path d="M19.1509 12.946L19.3076 12.8555L18.249 11.0219L18.0923 11.1124L19.1509 12.946Z" fill="black"/>
<path d="M37.5625 44.82L37.7192 44.7295L36.6606 42.8959L36.5039 42.9864L37.5625 44.82Z" fill="black"/>
<path d="M12.828 19.3286L12.9185 19.1719L11.0849 18.1132L10.9944 18.2699L12.828 19.3286Z" fill="black"/>
<path d="M44.7303 37.7407L44.8208 37.584L42.9872 36.5253L42.8967 36.682L44.7303 37.7407Z" fill="black"/>
<path d="M10.5543 27.8369H8.43701V28.0179H10.5543V27.8369Z" fill="black"/>
<path d="M47.381 27.8369H45.2637V28.0179H47.381V27.8369Z" fill="black"/>
<path d="M12.9264 36.6792L12.8359 36.5225L11.0024 37.5811L11.0928 37.7378L12.9264 36.6792Z" fill="black"/>
<path d="M44.8122 18.2768L44.7217 18.1201L42.8881 19.1788L42.9786 19.3355L44.8122 18.2768Z" fill="black"/>
<path d="M19.3061 43.0036L19.1494 42.9131L18.0908 44.7467L18.2475 44.8371L19.3061 43.0036Z" fill="black"/>
<path d="M37.7265 11.1061L37.5698 11.0156L36.5112 12.8492L36.6679 12.9397L37.7265 11.1061Z" fill="black"/>
<path d="M25.9176 6.91992V6.52179H26.4424V4.53118C26.2433 4.62166 26.0623 4.69405 25.8633 4.76643V4.27783C26.0623 4.22354 26.2795 4.11496 26.4967 3.98828H26.9491V6.52179H27.4739V6.91992H25.9176Z" fill="black"/>
<path d="M29.084 3.95071C29.3554 3.95071 29.5726 4.0412 29.7355 4.20406C29.8983 4.36693 29.9707 4.60219 29.9707 4.90983C29.9707 4.98221 29.9707 5.0365 29.9526 5.09079C29.9345 5.14508 29.9345 5.19937 29.9164 5.25366C29.8983 5.30795 29.8802 5.34414 29.844 5.39843C29.8079 5.45272 29.7898 5.48892 29.7717 5.52511C29.7536 5.5613 29.7174 5.5975 29.6812 5.65179C29.645 5.70608 29.6088 5.74227 29.5907 5.76036C29.5726 5.77846 29.5364 5.81465 29.4821 5.86894L28.903 6.48423H29.9707V6.90044H28.2697V6.53851L29.1202 5.5975C29.1926 5.52511 29.2288 5.47082 29.265 5.43463C29.2831 5.39843 29.3192 5.36224 29.3735 5.30795C29.4097 5.25366 29.4459 5.19937 29.464 5.18128C29.4821 5.14508 29.5002 5.10889 29.5002 5.0546C29.5183 5.00031 29.5183 4.96412 29.5183 4.90983C29.5183 4.87364 29.5183 4.81935 29.5002 4.74696C29.4821 4.67457 29.464 4.60219 29.4459 4.566C29.4097 4.51171 29.3916 4.47551 29.3373 4.43932C29.3012 4.40313 29.2469 4.38503 29.2107 4.38503C29.1745 4.36693 29.1202 4.36693 29.0659 4.36693C29.0297 4.36693 28.9935 4.36693 28.9573 4.38503C28.9211 4.38503 28.8849 4.40313 28.8487 4.40313C28.8125 4.42122 28.7764 4.42122 28.7402 4.43932C28.704 4.45742 28.6678 4.45742 28.6316 4.47551C28.5954 4.49361 28.5773 4.51171 28.5411 4.51171C28.5049 4.5298 28.4868 4.5479 28.4687 4.5479C28.4506 4.566 28.4325 4.56599 28.4144 4.58409C28.3963 4.60219 28.3782 4.60219 28.3782 4.60219H28.3601L28.1973 4.20406C28.2154 4.20406 28.2154 4.18597 28.2335 4.16787C28.2516 4.14978 28.2877 4.13168 28.3601 4.09549C28.4325 4.05929 28.4868 4.0412 28.5592 4.005C28.6316 3.98691 28.7221 3.95071 28.8125 3.93262C28.8849 3.95071 28.9754 3.95071 29.084 3.95071Z" fill="black"/>
<path d="M27.8001 52.051C27.5649 52.051 27.3658 51.9967 27.2029 51.87C27.0401 51.7433 26.9134 51.5804 26.841 51.3633C26.7686 51.1461 26.7324 50.8928 26.7324 50.6032C26.7324 50.3861 26.7505 50.187 26.8048 49.988C26.8591 49.807 26.9315 49.626 27.022 49.4813C27.1125 49.3365 27.2391 49.2279 27.402 49.1374C27.5468 49.0469 27.7277 49.0107 27.9087 49.0107C28.2163 49.0107 28.4697 49.1012 28.6507 49.2641L28.4878 49.6441C28.3068 49.4993 28.1259 49.4451 27.9087 49.4451C27.7277 49.4451 27.583 49.5355 27.4563 49.6984C27.3296 49.8794 27.2753 50.0965 27.2572 50.3499C27.402 50.1508 27.6011 50.0422 27.8363 50.0422C28.1259 50.0422 28.3611 50.1327 28.524 50.3137C28.6869 50.4947 28.7773 50.7299 28.7773 51.0195C28.7773 51.309 28.6869 51.5443 28.5059 51.7433C28.3249 51.9605 28.0897 52.051 27.8001 52.051ZM27.782 51.6166C27.9268 51.6166 28.0354 51.5624 28.1259 51.4538C28.2163 51.3452 28.2525 51.2185 28.2525 51.0557C28.2525 50.8928 28.2163 50.748 28.1259 50.6575C28.0535 50.5489 27.9268 50.4947 27.782 50.4947C27.6192 50.4947 27.4925 50.5489 27.402 50.6575C27.3115 50.7661 27.2572 50.8928 27.2572 51.0737C27.2572 51.1642 27.2753 51.2366 27.2934 51.309C27.3296 51.3814 27.3658 51.4357 27.402 51.49C27.4563 51.5443 27.5106 51.5624 27.5649 51.5985C27.6553 51.5985 27.7277 51.6166 27.782 51.6166Z" fill="black"/>
<path d="M5.74027 29.3395C5.52312 29.3395 5.26977 29.2671 4.98022 29.1404L5.16119 28.7242C5.34215 28.8328 5.50502 28.9052 5.68598 28.9052C5.77647 28.9052 5.86695 28.8871 5.93934 28.8509C6.01172 28.8147 6.08411 28.7604 6.15649 28.7061C6.21078 28.6337 6.26507 28.5433 6.30127 28.4347C6.33746 28.3261 6.35556 28.1813 6.35556 28.0366V27.9823C6.22888 28.1632 6.02982 28.2537 5.77647 28.2537C5.48692 28.2537 5.26977 28.1632 5.0888 27.9823C4.92593 27.8013 4.83545 27.5841 4.83545 27.2946C4.83545 27.0051 4.92593 26.7698 5.1069 26.5888C5.28786 26.4079 5.54121 26.3174 5.83076 26.3174C6.15649 26.3174 6.40985 26.4441 6.59081 26.6793C6.77178 26.9146 6.86226 27.2765 6.86226 27.747C6.86226 28.0546 6.82607 28.3442 6.73558 28.5794C6.6451 28.8147 6.51842 29.0138 6.35556 29.1404C6.17459 29.2852 5.97553 29.3395 5.74027 29.3395ZM5.81266 27.8375C5.97553 27.8375 6.1022 27.7832 6.19269 27.6927C6.28317 27.6022 6.33746 27.4575 6.33746 27.2584C6.33746 27.1136 6.30127 27.0051 6.21078 26.8965C6.1203 26.806 6.01172 26.7517 5.84885 26.7517C5.68598 26.7517 5.57741 26.806 5.46883 26.8965C5.37834 27.0051 5.32405 27.1317 5.32405 27.2946C5.32405 27.4575 5.36025 27.5841 5.45073 27.6746C5.54121 27.7832 5.66789 27.8375 5.81266 27.8375Z" fill="black"/>
<path d="M50.2027 29.3575C50.0941 29.3575 49.9855 29.3575 49.877 29.3394C49.7684 29.3214 49.696 29.3033 49.6236 29.2852C49.5512 29.2671 49.4969 29.2309 49.4427 29.2128C49.3884 29.1947 49.3522 29.1585 49.3341 29.1585L49.2979 29.1404L49.4607 28.7604C49.4788 28.7785 49.515 28.7965 49.5693 28.8146C49.6236 28.8327 49.696 28.8689 49.8227 28.9051C49.9313 28.9413 50.0398 28.9594 50.1484 28.9594C50.3294 28.9594 50.4742 28.9232 50.5646 28.8327C50.6551 28.7423 50.7094 28.6337 50.7094 28.4889C50.7094 28.3441 50.637 28.2175 50.5103 28.1451C50.3837 28.0727 50.2027 28.0365 49.9675 28.0365H49.8951H49.7684V27.6022H49.9132C50.1665 27.6022 50.3475 27.566 50.4561 27.4936C50.5646 27.4212 50.6189 27.3126 50.6189 27.1317C50.6189 27.0231 50.5646 26.9326 50.4742 26.8783C50.3656 26.824 50.257 26.7878 50.1303 26.7878C50.076 26.7878 50.0036 26.7878 49.9494 26.8059C49.8951 26.824 49.8408 26.824 49.7865 26.8421C49.7322 26.8602 49.696 26.8783 49.6779 26.8964C49.6417 26.9145 49.6236 26.9326 49.5874 26.9507C49.5512 26.9688 49.5331 26.9869 49.515 26.9869L49.2798 26.625C49.4427 26.5164 49.5693 26.444 49.696 26.4078C49.8227 26.3716 49.9855 26.3535 50.1846 26.3535C50.3113 26.3535 50.4199 26.3716 50.5284 26.4078C50.637 26.444 50.7456 26.4802 50.8361 26.5526C50.9266 26.6069 50.999 26.6973 51.0532 26.7878C51.1075 26.8783 51.1256 27.005 51.1256 27.1317C51.1256 27.2402 51.1075 27.3307 51.0713 27.4212C51.0351 27.5117 50.9809 27.6022 50.8904 27.6746C50.7999 27.7469 50.7094 27.8012 50.5827 27.8193C50.7818 27.8555 50.9266 27.9279 51.0351 28.0727C51.1437 28.1994 51.198 28.3622 51.198 28.5251C51.198 28.6518 51.1799 28.7785 51.1256 28.887C51.0713 28.9956 50.9989 29.0861 50.9085 29.1585C50.818 29.2309 50.7094 29.2852 50.6008 29.3213C50.4561 29.3394 50.3294 29.3575 50.2027 29.3575Z" fill="black"/>
<path d="M38.6944 10.4106V10.0125H39.2192V8.02187C39.0202 8.11235 38.8392 8.18474 38.6401 8.25712V7.78661C38.8392 7.73232 39.0564 7.62375 39.2735 7.49707H39.7259V10.0306H40.2507V10.4287H38.6944V10.4106Z" fill="black"/>
<path d="M46.5664 14.4283C46.8379 14.4283 47.055 14.5187 47.2179 14.6816C47.3808 14.8445 47.4531 15.0797 47.4531 15.3874C47.4531 15.4598 47.4531 15.514 47.435 15.5683C47.417 15.6226 47.4169 15.6769 47.3989 15.7312C47.3808 15.7855 47.3627 15.8217 47.3265 15.876C47.2903 15.9303 47.2722 15.9665 47.2541 16.0026C47.236 16.0388 47.1998 16.075 47.1636 16.1293C47.1274 16.1836 47.0912 16.2198 47.0731 16.2379C47.055 16.256 47.0188 16.2922 46.9645 16.3465L46.3855 16.9618H47.4531V17.378H45.7521V17.0161L46.6026 16.075C46.675 16.0026 46.7112 15.9484 46.7474 15.9122C46.7655 15.876 46.8017 15.8398 46.856 15.7855C46.8922 15.7312 46.9283 15.6769 46.9464 15.6588C46.9645 15.6226 46.9826 15.5864 46.9826 15.5321C47.0007 15.4778 47.0007 15.4417 47.0007 15.3874C47.0007 15.3512 47.0007 15.2969 46.9826 15.2245C46.9645 15.1521 46.9464 15.0797 46.9283 15.0435C46.8922 14.9892 46.8741 14.9531 46.8198 14.9169C46.7836 14.8807 46.7293 14.8626 46.6931 14.8626C46.6569 14.8445 46.6026 14.8445 46.5483 14.8445C46.5121 14.8445 46.4759 14.8445 46.4397 14.8626C46.4035 14.8626 46.3674 14.8807 46.3312 14.8807C46.295 14.8988 46.2588 14.8988 46.2226 14.9169C46.1864 14.935 46.1502 14.935 46.114 14.9531C46.0778 14.9711 46.0597 14.9892 46.0235 14.9892C45.9873 15.0073 45.9692 15.0254 45.9511 15.0254C45.933 15.0435 45.9149 15.0435 45.8968 15.0616C45.8788 15.0797 45.8607 15.0797 45.8607 15.0797H45.8426L45.6797 14.6816C45.6978 14.6816 45.6978 14.6635 45.7159 14.6454C45.734 14.6273 45.7702 14.6092 45.8426 14.573C45.9149 14.5368 45.9692 14.5187 46.0416 14.4825C46.114 14.4644 46.2045 14.4283 46.295 14.4102C46.3674 14.4463 46.4578 14.4283 46.5664 14.4283Z" fill="black"/>
<path d="M46.964 41.3559V40.5959H45.7334V40.2158L46.9097 38.4424H47.4888V40.1977H47.9412V40.5959H47.4888V41.3559H46.964ZM46.2763 40.1796H46.964V39.0758C46.9278 39.1301 46.7106 39.492 46.2763 40.1796Z" fill="black"/>
<path d="M39.4361 48.4673C39.2732 48.4673 39.1104 48.4311 38.9475 48.3587C38.7846 48.2863 38.6399 48.1959 38.5132 48.0692L38.7846 47.6892C38.8751 47.7977 38.9837 47.8882 39.0923 47.9425C39.2008 47.9968 39.3275 48.033 39.4361 48.033C39.5809 48.033 39.7076 47.9787 39.8161 47.8882C39.9247 47.7977 39.979 47.653 39.979 47.472C39.979 47.3272 39.9428 47.2006 39.8704 47.1101C39.798 47.0015 39.7076 46.9653 39.5809 46.9653C39.418 46.9653 39.3094 47.0015 39.237 47.092L38.7303 47.0196V45.5176H40.359V45.9519H39.1828L39.1647 46.6939C39.2551 46.5672 39.4361 46.5129 39.6895 46.5129C39.9066 46.5129 40.1057 46.6034 40.2685 46.8024C40.4314 46.9834 40.5038 47.2186 40.5038 47.5082C40.5038 47.6349 40.4857 47.7615 40.4495 47.8701C40.4133 47.9787 40.359 48.0692 40.2866 48.1416C40.2143 48.214 40.1419 48.2863 40.0514 48.3406C39.9609 48.3949 39.8704 48.4311 39.7618 48.4673C39.6533 48.4492 39.5447 48.4673 39.4361 48.4673Z" fill="black"/>
<path d="M15.3497 48.4135L16.4536 45.9162H15.0059V45.5H17.0327V45.8981L15.8745 48.4316H15.3497V48.4135Z" fill="black"/>
<path d="M9.17841 41.4464C8.97935 41.4464 8.81648 41.4102 8.67171 41.3559C8.52694 41.2835 8.40026 41.1931 8.30978 41.0664C8.2193 40.9397 8.18311 40.7949 8.18311 40.614C8.18311 40.4511 8.2193 40.3063 8.30978 40.1796C8.40026 40.053 8.52694 39.9444 8.67171 39.872C8.38217 39.7091 8.23739 39.4739 8.23739 39.2024C8.23739 38.9672 8.32788 38.7681 8.49075 38.6414C8.67171 38.4967 8.88887 38.4424 9.16032 38.4424C9.44986 38.4424 9.68512 38.5148 9.84799 38.6595C10.0109 38.8043 10.1013 39.0034 10.1013 39.2386C10.1013 39.5282 9.95656 39.7634 9.66702 39.8901C9.81179 39.9625 9.92037 40.0711 10.0109 40.1977C10.1013 40.3425 10.1556 40.4873 10.1556 40.6321C10.1556 40.7949 10.1013 40.9578 10.0109 41.0845C9.92037 41.2111 9.7937 41.3016 9.64892 41.374C9.52225 41.4283 9.35938 41.4464 9.17841 41.4464ZM9.17841 41.0121C9.32319 41.0121 9.44986 40.9759 9.52225 40.9035C9.61273 40.8311 9.64892 40.7225 9.64892 40.5778C9.64892 40.4692 9.61273 40.3606 9.52225 40.252C9.43176 40.1435 9.32319 40.0892 9.19651 40.053C9.05174 40.0892 8.94316 40.1435 8.85268 40.252C8.76219 40.3425 8.7079 40.4692 8.7079 40.5959C8.7079 40.7225 8.7441 40.8311 8.83458 40.9035C8.90697 40.9759 9.03364 41.0121 9.17841 41.0121ZM9.17841 39.691C9.30509 39.6549 9.41367 39.6006 9.48605 39.5101C9.55844 39.4377 9.59463 39.3291 9.59463 39.2205C9.59463 39.112 9.55844 39.0396 9.46796 38.9853C9.39557 38.931 9.28699 38.8948 9.16032 38.8948C9.03364 38.8948 8.92506 38.931 8.85268 38.9853C8.78029 39.0396 8.7441 39.1301 8.7441 39.2567C8.7441 39.3653 8.78029 39.4558 8.85268 39.5463C8.94316 39.5825 9.03364 39.6549 9.17841 39.691Z" fill="black"/>
<path d="M6.4288 17.5415V17.1433H6.9536V15.1527C6.75454 15.2432 6.57357 15.3156 6.37451 15.388V14.9175C6.57357 14.8632 6.79073 14.7546 7.00789 14.6279H7.4603V17.1614H7.9851V17.5596H6.4288V17.5415Z" fill="black"/>
<path d="M9.68629 17.5959C9.36055 17.5959 9.1072 17.4511 8.92623 17.1797C8.74527 16.9082 8.65479 16.5282 8.65479 16.0577C8.65479 15.5872 8.74527 15.2252 8.92623 14.9538C9.1072 14.7004 9.36055 14.5557 9.68629 14.5557C10.012 14.5557 10.2654 14.6823 10.4463 14.9538C10.6273 15.2252 10.7178 15.5872 10.7178 16.0396C10.7178 16.3472 10.6816 16.6187 10.6092 16.8358C10.5368 17.0711 10.4101 17.2339 10.2654 17.3787C10.0844 17.5235 9.90345 17.5959 9.68629 17.5959ZM9.68629 17.1435C10.012 17.1435 10.193 16.7815 10.193 16.0396C10.193 15.8948 10.193 15.7681 10.1749 15.6415C10.1568 15.5148 10.1387 15.4062 10.1025 15.3157C10.0663 15.2071 10.012 15.1348 9.93964 15.0805C9.86725 15.0262 9.79487 14.99 9.70438 14.99C9.6139 14.99 9.52342 15.0262 9.45103 15.0805C9.37865 15.1348 9.32436 15.2252 9.28816 15.3157C9.25197 15.4243 9.21578 15.5329 9.19768 15.6415C9.17958 15.7681 9.17958 15.8948 9.17958 16.0396C9.17958 16.2024 9.17958 16.3472 9.19768 16.4739C9.21578 16.6006 9.23387 16.7091 9.28816 16.8177C9.32436 16.9263 9.37865 16.9987 9.45103 17.053C9.50532 17.1254 9.5958 17.1435 9.68629 17.1435Z" fill="black"/>
<path d="M14.5182 10.1758V9.77765H15.043V7.78704C14.8439 7.87752 14.6629 7.9499 14.4639 8.02229V7.53368C14.6629 7.4794 14.8801 7.37082 15.0972 7.24414H15.5497V9.77765H16.0745V10.1758H14.5182Z" fill="black"/>
<path d="M17.088 10.1748V9.77668H17.6128V7.78606C17.4137 7.87654 17.2328 7.94893 17.0337 8.02131V7.53271C17.2328 7.47842 17.4499 7.36984 17.6671 7.24316H18.1195V9.77668H18.6443V10.1748H17.088Z" fill="black"/>
<path d="M27.9078 29.1408C28.5774 29.1408 29.1202 28.5979 29.1202 27.9283C29.1202 27.2587 28.5774 26.7158 27.9078 26.7158C27.2382 26.7158 26.6953 27.2587 26.6953 27.9283C26.6953 28.5979 27.2382 29.1408 27.9078 29.1408Z" fill="url(#paint0_radial_5308_116509)"/>
<path d="M28.8556 30.5046C28.5981 30.6372 28.2891 30.5113 28.1483 30.2378L22.0508 18.3965L22.9517 17.9326L29.0492 29.7739C29.1901 30.0474 29.113 30.3721 28.8556 30.5046Z" fill="black"/>
<mask id="path-30-inside-1_5308_116509" fill="white">
<path d="M28.2999 31.3972C28.154 31.3992 28.0203 31.3045 28.0183 31.1586L27.434 11.7792L27.9859 11.7536L28.5702 31.1331C28.5722 31.279 28.4458 31.3952 28.2999 31.3972Z"/>
</mask>
<path d="M28.2999 31.3972C28.154 31.3992 28.0203 31.3045 28.0183 31.1586L27.434 11.7792L27.9859 11.7536L28.5702 31.1331C28.5722 31.279 28.4458 31.3952 28.2999 31.3972Z" fill="#0E80A4"/>
<path d="M28.0183 31.1586L30.0181 31.1312L30.0179 31.1148L30.0174 31.0983L28.0183 31.1586ZM27.434 11.7792L27.3417 9.78129L25.3756 9.87217L25.4349 11.8394L27.434 11.7792ZM27.9859 11.7536L29.985 11.6934L29.9237 9.66192L27.8935 9.75577L27.9859 11.7536ZM28.5702 31.1331L30.57 31.1057L30.5698 31.0893L30.5693 31.0728L28.5702 31.1331ZM28.2725 29.3974C28.6247 29.3925 29.0169 29.5006 29.3568 29.7734C29.7216 30.0661 30.0101 30.5473 30.0181 31.1312L26.0185 31.186C26.0403 32.7787 27.4537 33.4089 28.3273 33.397L28.2725 29.3974ZM30.0174 31.0983L29.4331 11.7189L25.4349 11.8394L26.0192 31.2189L30.0174 31.0983ZM27.5264 13.777L28.0782 13.7515L27.8935 9.75577L27.3417 9.78129L27.5264 13.777ZM25.9868 11.8139L26.5711 31.1934L30.5693 31.0728L29.985 11.6934L25.9868 11.8139ZM26.5704 31.1605C26.5555 30.0735 27.4469 29.4087 28.2725 29.3974L28.3273 33.397C29.4447 33.3817 30.5889 32.4845 30.57 31.1057L26.5704 31.1605Z" fill="#0E80A4" mask="url(#path-30-inside-1_5308_116509)"/>
<path d="M27.9086 28.7782C28.3784 28.7782 28.7592 28.3974 28.7592 27.9277C28.7592 27.4579 28.3784 27.0771 27.9086 27.0771C27.4389 27.0771 27.0581 27.4579 27.0581 27.9277C27.0581 28.3974 27.4389 28.7782 27.9086 28.7782Z" fill="#0E80A4"/>
<path d="M54 28C54 42.3594 42.3594 54 28 54C13.6406 54 2 42.3594 2 28C2 13.6406 13.6406 2 28 2C42.3594 2 54 13.6406 54 28Z" stroke="#0E80A4" stroke-width="2" stroke-miterlimit="10"/>
<defs>
<radialGradient id="paint0_radial_5308_116509" cx="0" cy="0" r="1" gradientUnits="userSpaceOnUse" gradientTransform="translate(27.9078 27.9226) scale(1.20684)">
<stop/>
<stop offset="0.3022" stop-color="#050505"/>
<stop offset="0.6568" stop-color="#131312"/>
<stop offset="1" stop-color="#282826"/>
</radialGradient>
</defs>
</svg>
