<svg width="55" height="55" viewBox="0 0 55 55" fill="none" xmlns="http://www.w3.org/2000/svg">
<path d="M29.6811 3H0V52H29.6811V3Z" fill="#065F2C"/>
<path d="M27.5836 6.61621H3.59668V48.6461H27.5836V6.61621Z" fill="#ADADAD"/>
<path d="M27.2284 6.97949H3.97412V48.2837H27.2284V6.97949Z" fill="#F5F5F5"/>
<path d="M25.7519 8.44238H5.4502V46.8222H25.7519V8.44238Z" fill="#E3F7FB"/>
<path d="M21.7781 8.44238L5.4502 24.4825V27.7697L25.097 8.44238H21.7781Z" fill="#B9EBF5"/>
<path d="M5.4502 37.4876V46.8214H25.7408V17.3906L5.4502 37.4876Z" fill="#B9EBF5"/>
<path d="M16.9386 8.44238H5.4502V19.6892L16.9386 8.44238Z" fill="#B9EBF5"/>
<path d="M5.4502 8.44238V46.8222H25.7519V8.44238H5.4502ZM25.0082 46.0966H6.18279V9.17898H25.0082V46.0966Z" fill="#51CEE5"/>
<path d="M27.0284 27.1759H26.096C25.9739 27.1759 25.874 27.077 25.874 26.956V25.8127C25.874 25.6917 25.9739 25.5928 26.096 25.5928H27.0284C27.1505 25.5928 27.2504 25.6917 27.2504 25.8127V26.956C27.2504 27.0879 27.1505 27.1759 27.0284 27.1759Z" fill="#BDBDBD"/>
<path d="M22.8213 29.5615L22.3773 28.9678C22.344 28.9239 22.3551 28.8689 22.3995 28.8359L26.351 25.9225C26.3954 25.8895 26.4509 25.9005 26.4842 25.9445L26.9282 26.5382C26.9615 26.5821 26.9504 26.6371 26.906 26.6701L22.9545 29.5835C22.9101 29.6055 22.8546 29.6055 22.8213 29.5615Z" fill="#CECECE"/>
<path d="M55.0001 3H29.4814V52H55.0001V3Z" fill="#065F2C"/>
<path d="M51.2037 6.61621H27.2168V48.6461H51.2037V6.61621Z" fill="#ADADAD"/>
<path d="M50.8378 6.97949H27.5835V48.2837H50.8378V6.97949Z" fill="#F5F5F5"/>
<path d="M49.3613 8.44238H29.0596V46.8222H49.3613V8.44238Z" fill="#E3F7FB"/>
<path d="M45.3764 8.44238L29.0596 24.4825V27.7697L48.6953 8.44238H45.3764Z" fill="#B9EBF5"/>
<path d="M29.0596 37.4876V46.8214H49.3613V17.3906L29.0596 37.4876Z" fill="#B9EBF5"/>
<path d="M40.5369 8.44238H29.0596V19.6892L40.5369 8.44238Z" fill="#B9EBF5"/>
<path d="M29.0596 8.44238V46.8222H49.3613V8.44238H29.0596ZM29.8033 9.17898H48.6287V46.0966H29.8033V9.17898Z" fill="#51CEE5"/>
<path d="M27.9827 27.1759H28.9151C29.0372 27.1759 29.1371 27.077 29.1371 26.956V25.8127C29.1371 25.6917 29.0372 25.5928 28.9151 25.5928H27.9827C27.8606 25.5928 27.7607 25.6917 27.7607 25.8127V26.956C27.7607 27.0879 27.8606 27.1759 27.9827 27.1759Z" fill="#BDBDBD"/>
<path d="M32.1898 29.5615L32.6338 28.9678C32.6671 28.9239 32.656 28.8689 32.6116 28.8359L28.66 25.9225C28.6156 25.8895 28.5601 25.9005 28.5268 25.9445L28.0828 26.5382C28.0495 26.5821 28.0606 26.6371 28.105 26.6701L32.0566 29.5835C32.101 29.6055 32.1565 29.6055 32.1898 29.5615Z" fill="#CECECE"/>
</svg>
