<svg width="24" height="24" viewBox="0 0 24 24" fill="none" xmlns="http://www.w3.org/2000/svg">
<g clip-path="url(#clip0_5148_91713)">
<path d="M13.2545 23.9998H10.1991C9.4862 23.9998 8.67144 23.4248 8.67144 22.2748V20.2623C8.67144 19.304 8.16222 18.4415 7.34746 17.7707C5.51426 16.429 4.59766 14.5123 4.59766 12.404C4.6995 8.76234 7.85669 5.88734 11.6249 5.7915C13.56 5.7915 15.3932 6.46234 16.7172 7.70817C18.0412 8.954 18.8559 10.679 18.8559 12.4998C18.8559 14.5123 17.9393 16.429 16.208 17.6748C15.2913 18.3457 14.7821 19.3998 14.7821 20.3582V22.5623C14.7821 23.329 14.0692 23.9998 13.2545 23.9998ZM11.7268 6.74984C8.46775 6.74984 5.71795 9.33734 5.6161 12.404C5.6161 14.2248 6.43086 15.9498 7.95853 17.004C9.07882 17.8665 9.68989 19.0165 9.68989 20.2623V22.2748C9.68989 22.4665 9.68989 23.0415 10.1991 23.0415H13.2545C13.56 23.0415 13.7637 22.8498 13.7637 22.5623V20.3582C13.7637 19.1123 14.4766 17.7707 15.5969 16.9082C17.0227 15.854 17.8375 14.2248 17.8375 12.4998C17.8375 10.9665 17.2264 9.529 16.0043 8.379C14.884 7.32484 13.3563 6.74984 11.7268 6.74984Z" fill="#065B5B"/>
<path d="M14.2728 21.1248H9.18061C8.87508 21.1248 8.67139 20.9332 8.67139 20.6457C8.67139 20.3582 8.87508 20.1665 9.18061 20.1665H14.2728C14.5784 20.1665 14.7821 20.3582 14.7821 20.6457C14.7821 20.9332 14.5784 21.1248 14.2728 21.1248Z" fill="#065B5B"/>
<path d="M11.7265 3.875C11.421 3.875 11.2173 3.68333 11.2173 3.39583V1.47917C11.2173 1.19167 11.421 1 11.7265 1C12.032 1 12.2357 1.19167 12.2357 1.47917V3.39583C12.2357 3.68333 12.032 3.875 11.7265 3.875Z" fill="#065B5B"/>
<path d="M18.5501 6.55823C18.4483 6.55823 18.2446 6.55823 18.1428 6.4624C17.9391 6.27073 17.9391 5.98323 18.1428 5.79157L19.5686 4.4499C19.7723 4.25824 20.0778 4.25824 20.2815 4.4499C20.4852 4.64157 20.4852 4.92907 20.2815 5.12074L18.8557 6.4624C18.8557 6.4624 18.652 6.55823 18.5501 6.55823Z" fill="#065B5B"/>
<path d="M23.4389 12.9793H21.402C21.0965 12.9793 20.8928 12.7877 20.8928 12.5002C20.8928 12.2127 21.0965 12.021 21.402 12.021H23.4389C23.7445 12.021 23.9482 12.2127 23.9482 12.5002C23.9482 12.7877 23.7445 12.9793 23.4389 12.9793Z" fill="#065B5B"/>
<path d="M19.976 20.7418C19.8741 20.7418 19.6704 20.7418 19.5686 20.646L18.1428 19.3043C17.9391 19.1127 17.9391 18.8252 18.1428 18.6335C18.3464 18.4418 18.652 18.4418 18.8557 18.6335L20.2815 19.9752C20.4852 20.1668 20.4852 20.4543 20.2815 20.646C20.2815 20.7418 20.1797 20.7418 19.976 20.7418Z" fill="#065B5B"/>
<path d="M3.47689 20.7418C3.37505 20.7418 3.17136 20.7418 3.06952 20.646C2.86583 20.4543 2.86583 20.1668 3.06952 19.9752L4.49534 18.6335C4.69903 18.4418 5.00456 18.4418 5.20825 18.6335C5.41194 18.8252 5.41194 19.1127 5.20825 19.3043L3.78243 20.646C3.68058 20.7418 3.57874 20.7418 3.47689 20.7418Z" fill="#065B5B"/>
<path d="M2.05149 12.9793H0.0145946C-0.29094 12.9793 -0.494629 12.7877 -0.494629 12.5002C-0.494629 12.2127 -0.29094 12.021 0.0145946 12.021H2.05149C2.35702 12.021 2.56071 12.2127 2.56071 12.5002C2.56071 12.7877 2.35702 12.9793 2.05149 12.9793Z" fill="#065B5B"/>
<path d="M4.90272 6.55837C4.80087 6.55837 4.59718 6.55836 4.49534 6.46253L3.06952 5.02503C2.86583 4.83337 2.86583 4.54587 3.06952 4.3542C3.2732 4.16253 3.57874 4.16253 3.78243 4.3542L5.20825 5.69587C5.41194 5.88753 5.41194 6.17503 5.20825 6.3667C5.10641 6.46253 5.00456 6.55837 4.90272 6.55837Z" fill="#065B5B"/>
<path d="M15.8003 12.9792C15.4948 12.9792 15.2911 12.7875 15.2911 12.5C15.2911 10.6792 13.6616 9.14583 11.7265 9.14583C11.421 9.14583 11.2173 8.95417 11.2173 8.66667C11.2173 8.37917 11.421 8.1875 11.7265 8.1875C14.2726 8.1875 16.3095 10.1042 16.3095 12.5C16.3095 12.7875 16.1058 12.9792 15.8003 12.9792Z" fill="#065B5B"/>
</g>
<defs>
<clipPath id="clip0_5148_91713">
<rect width="24" height="24" fill="white"/>
</clipPath>
</defs>
</svg>
