<svg width="70" height="30" viewBox="0 0 70 30" fill="none" xmlns="http://www.w3.org/2000/svg">
<path d="M30.436 8.4V21H28.654V9.966H25.81V8.4H30.436ZM38.3401 21.144C37.3441 21.144 36.4561 20.892 35.6761 20.388C34.9081 19.872 34.3021 19.128 33.8581 18.156C33.4141 17.184 33.1921 16.032 33.1921 14.7C33.1921 13.368 33.4141 12.216 33.8581 11.244C34.3021 10.272 34.9081 9.534 35.6761 9.03C36.4561 8.514 37.3441 8.256 38.3401 8.256C39.3241 8.256 40.2001 8.514 40.9681 9.03C41.7481 9.534 42.3601 10.272 42.8041 11.244C43.2481 12.216 43.4701 13.368 43.4701 14.7C43.4701 16.032 43.2481 17.184 42.8041 18.156C42.3601 19.128 41.7481 19.872 40.9681 20.388C40.2001 20.892 39.3241 21.144 38.3401 21.144ZM38.3401 19.542C39.3481 19.542 40.1521 19.128 40.7521 18.3C41.3641 17.472 41.6701 16.272 41.6701 14.7C41.6701 13.128 41.3641 11.928 40.7521 11.1C40.1521 10.272 39.3481 9.858 38.3401 9.858C37.3201 9.858 36.5041 10.272 35.8921 11.1C35.2921 11.928 34.9921 13.128 34.9921 14.7C34.9921 16.272 35.2921 17.472 35.8921 18.3C36.5041 19.128 37.3201 19.542 38.3401 19.542Z" fill="#2F2F2F"/>
<path d="M5 1H65V-1H5V1ZM69 5V25H71V5H69ZM65 29H5V31H65V29ZM1 25V5H-1V25H1ZM5 29C2.79086 29 1 27.2091 1 25H-1C-1 28.3137 1.68629 31 5 31V29ZM69 25C69 27.2091 67.2091 29 65 29V31C68.3137 31 71 28.3137 71 25H69ZM65 1C67.2091 1 69 2.79086 69 5H71C71 1.68629 68.3137 -1 65 -1V1ZM5 -1C1.68629 -1 -1 1.68629 -1 5H1C1 2.79086 2.79086 1 5 1V-1Z" fill="#2F2F2F"/>
</svg>
