<svg width="270" height="161" viewBox="0 0 270 161" fill="none" xmlns="http://www.w3.org/2000/svg">
<rect x="0.5" y="1.19336" width="269" height="159" rx="4.5" stroke="#D0D0D0"/>
<g clip-path="url(#clip0_5347_108136)">
<path d="M28.3881 48.0055C28.3881 48.0055 11.7433 57.2064 10 39.4686C10 39.4686 21.8852 34.8889 28.3881 48.0055Z" fill="#619631"/>
<path d="M11.9927 40.5615C12.048 40.5615 12.048 40.4785 11.9927 40.4785C11.9373 40.4785 11.9373 40.5615 11.9927 40.5615Z" fill="#5D8C30"/>
<path d="M12.3526 40.9489C14.8984 42.3879 17.5549 43.6331 20.1838 44.906C21.4844 45.5287 22.785 46.1513 24.0994 46.7601C24.7635 47.0645 25.4277 47.3412 26.0918 47.6041C26.7144 47.8531 27.3647 48.2267 28.0565 48.0191C28.3194 47.9361 28.3747 47.6317 28.2502 47.4242C27.8905 46.8431 27.1433 46.6909 26.5345 46.4695C25.8566 46.2205 25.1786 45.9714 24.4868 45.7224C23.117 45.2381 21.7473 44.7538 20.3913 44.2281C17.6933 43.1765 15.0645 41.9728 12.4079 40.8244C12.3249 40.7691 12.2696 40.9074 12.3526 40.9489Z" fill="#5D8C30"/>
<path d="M16.2818 39.6619C16.2956 40.3537 16.5862 41.0317 16.8491 41.6681C17.0981 42.3046 17.3749 43.0379 17.8038 43.5637C17.9421 43.7297 18.2189 43.6052 18.1497 43.3838C17.9145 42.7058 17.4994 42.0832 17.2088 41.4329C16.9459 40.8241 16.7522 40.1738 16.3925 39.6066C16.351 39.5789 16.268 39.6066 16.2818 39.6619Z" fill="#5D8C30"/>
<path d="M13.5972 45.7375C14.372 45.3086 15.1745 44.9765 16.0047 44.6444C16.6688 44.3816 17.5543 43.8558 18.3014 43.9665C18.6888 44.0218 18.7995 43.4684 18.4121 43.3854C17.6096 43.1917 16.6273 43.8558 15.9355 44.174C15.1191 44.5476 14.0538 44.8935 13.4865 45.613C13.4173 45.696 13.5142 45.7928 13.5972 45.7375Z" fill="#5D8C30"/>
<path d="M20.543 41.2401C20.626 41.9319 20.9304 42.6237 21.0964 43.3017C21.2901 44.0488 21.4285 44.8098 21.5945 45.5708C21.6499 45.8475 22.1479 45.7507 22.0926 45.4601C21.9681 44.713 21.7605 43.9658 21.5115 43.2464C21.2901 42.5822 21.0272 41.7659 20.5845 41.2125C20.5845 41.1986 20.543 41.2125 20.543 41.2401Z" fill="#5D8C30"/>
<path d="M17.2506 47.7559C18.0255 47.3962 18.7588 46.9396 19.5336 46.5384C20.3914 46.0956 21.2631 45.722 22.1763 45.39C22.5775 45.2378 22.3285 44.6151 21.9549 44.795C20.3084 45.5698 18.5097 46.4 17.1676 47.6314C17.0984 47.6729 17.1815 47.7836 17.2506 47.7559Z" fill="#5D8C30"/>
<path d="M27.5995 42.0281C28.2775 41.8898 29.0108 42.0696 29.5227 42.5124C28.734 43.2319 28.7479 44.4633 28.7479 45.4318C28.7479 46.0682 29.8133 51.1737 28.9416 51.1322C27.475 51.0631 27.0737 42.1388 27.5995 42.0281Z" fill="#666720"/>
<path d="M43.5943 73.8777C43.0962 74.3343 42.5843 74.7632 42.0585 75.1645C41.7956 75.372 41.5327 75.5657 41.256 75.7456C38.9315 77.3921 35.9291 79.1216 33.0512 77.8764C32.7883 77.821 32.5255 77.7795 32.2626 77.738C31.9997 77.6965 31.7368 77.6688 31.4601 77.655C30.5331 77.6135 29.5922 77.8487 28.7759 78.1669C28.4161 78.2638 28.0564 78.3468 27.6967 78.416C26.2439 78.7065 24.7496 78.7895 23.3107 78.582C22.9509 78.5266 22.5912 78.4713 22.2453 78.3744C19.4919 77.4613 16.8907 75.7871 14.7185 73.7947C14.5109 73.5872 14.2896 73.3796 14.0958 73.1721C9.95887 68.8553 9.66831 61.2039 12.4217 56.1399C12.8368 55.3651 13.2795 54.6733 13.7638 54.0784C14.9814 52.5564 16.4756 51.5602 18.7309 50.9653C20.9447 50.3841 23.2415 50.1074 25.5244 50.1628C27.8765 50.2181 29.6891 50.2458 31.8613 49.4295C33.5908 48.7792 35.4725 48.71 37.2851 49.0005C40.5227 49.5263 43.3729 50.8131 45.1439 53.5526C46.4999 55.6557 47.3992 58.1046 47.7866 60.6228C48.4784 65.4239 47.2885 70.4741 43.5943 73.8777Z" fill="#98C11F"/>
<path d="M43.5943 73.8785C43.0962 74.3351 42.5843 74.764 42.0585 75.1652C41.7956 75.3728 41.5327 75.5665 41.256 75.7463C38.9315 77.3928 35.9291 79.1223 33.0512 77.8771C32.7883 77.8218 32.5255 77.7802 32.2626 77.7387C31.9997 77.6972 31.7368 77.6696 31.4601 77.6557C30.5331 77.6142 29.5922 77.8494 28.7759 78.1676C28.4161 78.2645 28.0564 78.3475 27.6967 78.4167C26.2439 78.7073 24.7496 78.7903 23.3107 78.5827C22.9509 78.5274 22.5912 78.472 22.2453 78.3752C19.4919 77.462 16.8907 75.7878 14.7185 73.7955C14.5109 73.5879 14.2896 73.3804 14.0958 73.1728C9.95887 68.856 9.66831 61.2047 12.4217 56.1407C12.8368 55.3659 13.2795 54.6741 13.7638 54.0791C12.4632 56.3897 11.9236 59.1569 12.228 61.7858C12.5047 64.1379 13.4179 66.3793 14.7738 68.3302C14.9952 68.6623 15.2442 68.9667 15.4933 69.2849C18.3573 72.4534 22.2729 74.4319 26.4791 74.4734C26.8527 74.5011 27.2124 74.5149 27.586 74.5288C28.1948 74.5564 28.8036 74.5564 29.4123 74.5426C30.0211 74.5288 30.6299 74.5011 31.2249 74.4458C35.0713 74.2244 39.2221 73.5879 42.0723 70.6547C42.6258 70.1981 43.1377 69.7 43.622 69.1881C44.1062 68.6623 44.5628 68.1227 44.9779 67.5416C46.4584 65.4938 47.3992 63.0864 47.7728 60.6097C48.4784 65.4247 47.2885 70.4748 43.5943 73.8785Z" fill="#8AAF26"/>
<path d="M36.8285 55.0485C37.1052 55.339 37.4096 55.5743 37.714 55.7403C40.4535 57.2622 43.9679 53.4573 41.0623 51.6171C40.0661 50.9807 38.3781 50.3304 37.1606 50.6763C34.8361 51.3543 35.5279 53.6926 36.8285 55.0485Z" fill="#BDD14C"/>
<path d="M43.912 54.9519C44.507 55.1456 44.9774 55.7544 44.4655 56.7229C44.4101 56.8198 44.3409 56.9166 44.2579 56.9858C44.1472 57.055 44.0227 57.0827 43.8982 57.0965C43.3032 57.138 42.7083 56.6953 42.5561 56.1142C42.307 55.0765 43.2064 54.7167 43.912 54.9519Z" fill="#BDD14C"/>
</g>
<g clip-path="url(#clip1_5347_108136)">
<path d="M76.3403 48.0055C76.3403 48.0055 59.6955 57.2064 57.9521 39.4686C57.9521 39.4686 69.8373 34.8889 76.3403 48.0055Z" fill="#619631"/>
<path d="M59.9448 40.5615C60.0002 40.5615 60.0002 40.4785 59.9448 40.4785C59.8895 40.4785 59.8895 40.5615 59.9448 40.5615Z" fill="#5D8C30"/>
<path d="M60.3047 40.9489C62.8506 42.3879 65.5071 43.6331 68.1359 44.906C69.4365 45.5287 70.7371 46.1513 72.0515 46.7601C72.7157 47.0645 73.3798 47.3412 74.0439 47.6041C74.6666 47.8531 75.3168 48.2267 76.0086 48.0191C76.2715 47.9361 76.3269 47.6317 76.2024 47.4242C75.8426 46.8431 75.0955 46.6909 74.4867 46.4695C73.8087 46.2205 73.1308 45.9714 72.4389 45.7224C71.0692 45.2381 69.6994 44.7538 68.3435 44.2281C65.6455 43.1765 63.0166 41.9728 60.3601 40.8244C60.2771 40.7691 60.2217 40.9074 60.3047 40.9489Z" fill="#5D8C30"/>
<path d="M64.234 39.6619C64.2478 40.3537 64.5384 41.0317 64.8012 41.6681C65.0503 42.3046 65.327 43.0379 65.7559 43.5637C65.8943 43.7297 66.171 43.6052 66.1018 43.3838C65.8666 42.7058 65.4515 42.0832 65.161 41.4329C64.8981 40.8241 64.7044 40.1738 64.3446 39.6066C64.3031 39.5789 64.2201 39.6066 64.234 39.6619Z" fill="#5D8C30"/>
<path d="M61.5493 45.7375C62.3242 45.3086 63.1266 44.9765 63.9568 44.6444C64.6209 44.3816 65.5064 43.8558 66.2536 43.9665C66.641 44.0218 66.7517 43.4684 66.3643 43.3854C65.5618 43.1917 64.5794 43.8558 63.8876 44.174C63.0713 44.5476 62.0059 44.8935 61.4386 45.613C61.3695 45.696 61.4663 45.7928 61.5493 45.7375Z" fill="#5D8C30"/>
<path d="M68.4951 41.2401C68.5781 41.9319 68.8825 42.6237 69.0486 43.3017C69.2423 44.0488 69.3806 44.8098 69.5467 45.5708C69.602 45.8475 70.1001 45.7507 70.0448 45.4601C69.9202 44.713 69.7127 43.9658 69.4636 43.2464C69.2423 42.5822 68.9794 41.7659 68.5366 41.2125C68.5366 41.1986 68.4951 41.2125 68.4951 41.2401Z" fill="#5D8C30"/>
<path d="M65.2028 47.7559C65.9776 47.3962 66.7109 46.9396 67.4857 46.5384C68.3436 46.0956 69.2152 45.722 70.1284 45.39C70.5297 45.2378 70.2806 44.6151 69.907 44.795C68.2606 45.5698 66.4619 46.4 65.1198 47.6314C65.0506 47.6729 65.1336 47.7836 65.2028 47.7559Z" fill="#5D8C30"/>
<path d="M75.5516 42.0281C76.2296 41.8898 76.9629 42.0696 77.4749 42.5124C76.6862 43.2319 76.7 44.4633 76.7 45.4318C76.7 46.0682 77.7654 51.1737 76.8937 51.1322C75.4271 51.0631 75.0259 42.1388 75.5516 42.0281Z" fill="#666720"/>
<path d="M91.5464 73.8777C91.0483 74.3343 90.5364 74.7632 90.0106 75.1645C89.7478 75.372 89.4849 75.5657 89.2081 75.7456C86.8837 77.3921 83.8813 79.1216 81.0034 77.8764C80.7405 77.821 80.4776 77.7795 80.2147 77.738C79.9518 77.6965 79.6889 77.6688 79.4122 77.655C78.4852 77.6135 77.5444 77.8487 76.728 78.1669C76.3683 78.2638 76.0086 78.3468 75.6488 78.416C74.196 78.7065 72.7017 78.7895 71.2628 78.582C70.9031 78.5266 70.5433 78.4713 70.1974 78.3744C67.4441 77.4613 64.8429 75.7871 62.6706 73.7947C62.4631 73.5872 62.2417 73.3796 62.048 73.1721C57.911 68.8553 57.6205 61.2039 60.3738 56.1399C60.7889 55.3651 61.2317 54.6733 61.7159 54.0784C62.9335 52.5564 64.4278 51.5602 66.6831 50.9653C68.8968 50.3841 71.1936 50.1074 73.4766 50.1628C75.8287 50.2181 77.6412 50.2458 79.8135 49.4295C81.543 48.7792 83.4247 48.71 85.2372 49.0005C88.4748 49.5263 91.3251 50.8131 93.0961 53.5526C94.452 55.6557 95.3513 58.1046 95.7388 60.6228C96.4306 65.4239 95.2407 70.4741 91.5464 73.8777Z" fill="#98C11F"/>
<path d="M91.5464 73.8785C91.0483 74.3351 90.5364 74.764 90.0106 75.1652C89.7478 75.3728 89.4849 75.5665 89.2081 75.7463C86.8837 77.3928 83.8813 79.1223 81.0034 77.8771C80.7405 77.8218 80.4776 77.7802 80.2147 77.7387C79.9518 77.6972 79.6889 77.6696 79.4122 77.6557C78.4852 77.6142 77.5444 77.8494 76.728 78.1676C76.3683 78.2645 76.0086 78.3475 75.6488 78.4167C74.196 78.7073 72.7017 78.7903 71.2628 78.5827C70.9031 78.5274 70.5433 78.472 70.1974 78.3752C67.4441 77.462 64.8429 75.7878 62.6706 73.7955C62.4631 73.5879 62.2417 73.3804 62.048 73.1728C57.911 68.856 57.6205 61.2047 60.3738 56.1407C60.7889 55.3659 61.2317 54.6741 61.7159 54.0791C60.4153 56.3897 59.8757 59.1569 60.1801 61.7858C60.4569 64.1379 61.37 66.3793 62.726 68.3302C62.9473 68.6623 63.1964 68.9667 63.4454 69.2849C66.3095 72.4534 70.2251 74.4319 74.4313 74.4734C74.8048 74.5011 75.1646 74.5149 75.5381 74.5288C76.1469 74.5564 76.7557 74.5564 77.3645 74.5426C77.9733 74.5288 78.5821 74.5011 79.177 74.4458C83.0234 74.2244 87.1742 73.5879 90.0245 70.6547C90.5779 70.1981 91.0898 69.7 91.5741 69.1881C92.0584 68.6623 92.515 68.1227 92.93 67.5416C94.4105 65.4938 95.3513 63.0864 95.7249 60.6097C96.4306 65.4247 95.2407 70.4748 91.5464 73.8785Z" fill="#8AAF26"/>
<path d="M84.7807 55.0485C85.0574 55.339 85.3618 55.5743 85.6662 55.7403C88.4057 57.2622 91.92 53.4573 89.0145 51.6171C88.0183 50.9807 86.3303 50.3304 85.1127 50.6763C82.7883 51.3543 83.4801 53.6926 84.7807 55.0485Z" fill="#BDD14C"/>
<path d="M91.8642 54.9519C92.4591 55.1456 92.9295 55.7544 92.4176 56.7229C92.3623 56.8198 92.2931 56.9166 92.2101 56.9858C92.0994 57.055 91.9749 57.0827 91.8503 57.0965C91.2554 57.138 90.6604 56.6953 90.5082 56.1142C90.2592 55.0765 91.1585 54.7167 91.8642 54.9519Z" fill="#BDD14C"/>
</g>
<g clip-path="url(#clip2_5347_108136)">
<path d="M124.292 48.0055C124.292 48.0055 107.648 57.2064 105.904 39.4686C105.904 39.4686 117.789 34.8889 124.292 48.0055Z" fill="#619631"/>
<path d="M107.897 40.5615C107.952 40.5615 107.952 40.4785 107.897 40.4785C107.842 40.4785 107.842 40.5615 107.897 40.5615Z" fill="#5D8C30"/>
<path d="M108.257 40.9489C110.803 42.3879 113.459 43.6331 116.088 44.906C117.389 45.5287 118.689 46.1513 120.004 46.7601C120.668 47.0645 121.332 47.3412 121.996 47.6041C122.619 47.8531 123.269 48.2267 123.961 48.0191C124.224 47.9361 124.279 47.6317 124.155 47.4242C123.795 46.8431 123.048 46.6909 122.439 46.4695C121.761 46.2205 121.083 45.9714 120.391 45.7224C119.021 45.2381 117.652 44.7538 116.296 44.2281C113.598 43.1765 110.969 41.9728 108.312 40.8244C108.229 40.7691 108.174 40.9074 108.257 40.9489Z" fill="#5D8C30"/>
<path d="M112.186 39.6619C112.2 40.3537 112.491 41.0317 112.753 41.6681C113.002 42.3046 113.279 43.0379 113.708 43.5637C113.846 43.7297 114.123 43.6052 114.054 43.3838C113.819 42.7058 113.404 42.0832 113.113 41.4329C112.85 40.8241 112.657 40.1738 112.297 39.6066C112.255 39.5789 112.172 39.6066 112.186 39.6619Z" fill="#5D8C30"/>
<path d="M109.501 45.7375C110.276 45.3086 111.079 44.9765 111.909 44.6444C112.573 44.3816 113.459 43.8558 114.206 43.9665C114.593 44.0218 114.704 43.4684 114.316 43.3854C113.514 43.1917 112.532 43.8558 111.84 44.174C111.023 44.5476 109.958 44.8935 109.391 45.613C109.322 45.696 109.418 45.7928 109.501 45.7375Z" fill="#5D8C30"/>
<path d="M116.447 41.2401C116.53 41.9319 116.835 42.6237 117.001 43.3017C117.194 44.0488 117.333 44.8098 117.499 45.5708C117.554 45.8475 118.052 45.7507 117.997 45.4601C117.872 44.713 117.665 43.9658 117.416 43.2464C117.194 42.5822 116.932 41.7659 116.489 41.2125C116.489 41.1986 116.447 41.2125 116.447 41.2401Z" fill="#5D8C30"/>
<path d="M113.155 47.7559C113.93 47.3962 114.663 46.9396 115.438 46.5384C116.296 46.0956 117.167 45.722 118.081 45.39C118.482 45.2378 118.233 44.6151 117.859 44.795C116.213 45.5698 114.414 46.4 113.072 47.6314C113.003 47.6729 113.086 47.7836 113.155 47.7559Z" fill="#5D8C30"/>
<path d="M123.504 42.0281C124.182 41.8898 124.915 42.0696 125.427 42.5124C124.638 43.2319 124.652 44.4633 124.652 45.4318C124.652 46.0682 125.718 51.1737 124.846 51.1322C123.379 51.0631 122.978 42.1388 123.504 42.0281Z" fill="#666720"/>
<path d="M139.499 73.8777C139 74.3343 138.489 74.7632 137.963 75.1645C137.7 75.372 137.437 75.5657 137.16 75.7456C134.836 77.3921 131.833 79.1216 128.956 77.8764C128.693 77.821 128.43 77.7795 128.167 77.738C127.904 77.6965 127.641 77.6688 127.364 77.655C126.437 77.6135 125.497 77.8487 124.68 78.1669C124.32 78.2638 123.961 78.3468 123.601 78.416C122.148 78.7065 120.654 78.7895 119.215 78.582C118.855 78.5266 118.495 78.4713 118.15 78.3744C115.396 77.4613 112.795 75.7871 110.623 73.7947C110.415 73.5872 110.194 73.3796 110 73.1721C105.863 68.8553 105.573 61.2039 108.326 56.1399C108.741 55.3651 109.184 54.6733 109.668 54.0784C110.886 52.5564 112.38 51.5602 114.635 50.9653C116.849 50.3841 119.146 50.1074 121.429 50.1628C123.781 50.2181 125.593 50.2458 127.766 49.4295C129.495 48.7792 131.377 48.71 133.189 49.0005C136.427 49.5263 139.277 50.8131 141.048 53.5526C142.404 55.6557 143.303 58.1046 143.691 60.6228C144.383 65.4239 143.193 70.4741 139.499 73.8777Z" fill="#98C11F"/>
<path d="M139.499 73.8785C139 74.3351 138.489 74.764 137.963 75.1652C137.7 75.3728 137.437 75.5665 137.16 75.7463C134.836 77.3928 131.833 79.1223 128.956 77.8771C128.693 77.8218 128.43 77.7802 128.167 77.7387C127.904 77.6972 127.641 77.6696 127.364 77.6557C126.437 77.6142 125.497 77.8494 124.68 78.1676C124.32 78.2645 123.961 78.3475 123.601 78.4167C122.148 78.7073 120.654 78.7903 119.215 78.5827C118.855 78.5274 118.495 78.472 118.15 78.3752C115.396 77.462 112.795 75.7878 110.623 73.7955C110.415 73.5879 110.194 73.3804 110 73.1728C105.863 68.856 105.573 61.2047 108.326 56.1407C108.741 55.3659 109.184 54.6741 109.668 54.0791C108.367 56.3897 107.828 59.1569 108.132 61.7858C108.409 64.1379 109.322 66.3793 110.678 68.3302C110.899 68.6623 111.149 68.9667 111.398 69.2849C114.262 72.4534 118.177 74.4319 122.383 74.4734C122.757 74.5011 123.117 74.5149 123.49 74.5288C124.099 74.5564 124.708 74.5564 125.317 74.5426C125.925 74.5288 126.534 74.5011 127.129 74.4458C130.976 74.2244 135.126 73.5879 137.977 70.6547C138.53 70.1981 139.042 69.7 139.526 69.1881C140.011 68.6623 140.467 68.1227 140.882 67.5416C142.363 65.4938 143.303 63.0864 143.677 60.6097C144.383 65.4247 143.193 70.4748 139.499 73.8785Z" fill="#8AAF26"/>
<path d="M132.733 55.0485C133.01 55.339 133.314 55.5743 133.618 55.7403C136.358 57.2622 139.872 53.4573 136.967 51.6171C135.97 50.9807 134.282 50.3304 133.065 50.6763C130.74 51.3543 131.432 53.6926 132.733 55.0485Z" fill="#BDD14C"/>
<path d="M139.816 54.9519C140.411 55.1456 140.882 55.7544 140.37 56.7229C140.314 56.8198 140.245 56.9166 140.162 56.9858C140.052 57.055 139.927 57.0827 139.802 57.0965C139.208 57.138 138.613 56.6953 138.46 56.1142C138.211 55.0765 139.111 54.7167 139.816 54.9519Z" fill="#BDD14C"/>
</g>
<g clip-path="url(#clip3_5347_108136)">
<path d="M172.245 48.0055C172.245 48.0055 155.6 57.2064 153.856 39.4686C153.856 39.4686 165.742 34.8889 172.245 48.0055Z" fill="#619631"/>
<path d="M155.849 40.5615C155.904 40.5615 155.904 40.4785 155.849 40.4785C155.794 40.4785 155.794 40.5615 155.849 40.5615Z" fill="#5D8C30"/>
<path d="M156.209 40.9489C158.755 42.3879 161.411 43.6331 164.04 44.906C165.341 45.5287 166.641 46.1513 167.956 46.7601C168.62 47.0645 169.284 47.3412 169.948 47.6041C170.571 47.8531 171.221 48.2267 171.913 48.0191C172.176 47.9361 172.231 47.6317 172.107 47.4242C171.747 46.8431 171 46.6909 170.391 46.4695C169.713 46.2205 169.035 45.9714 168.343 45.7224C166.973 45.2381 165.604 44.7538 164.248 44.2281C161.55 43.1765 158.921 41.9728 156.264 40.8244C156.181 40.7691 156.126 40.9074 156.209 40.9489Z" fill="#5D8C30"/>
<path d="M160.138 39.6619C160.152 40.3537 160.443 41.0317 160.706 41.6681C160.955 42.3046 161.231 43.0379 161.66 43.5637C161.799 43.7297 162.075 43.6052 162.006 43.3838C161.771 42.7058 161.356 42.0832 161.065 41.4329C160.802 40.8241 160.609 40.1738 160.249 39.6066C160.207 39.5789 160.124 39.6066 160.138 39.6619Z" fill="#5D8C30"/>
<path d="M157.454 45.7375C158.228 45.3086 159.031 44.9765 159.861 44.6444C160.525 44.3816 161.411 43.8558 162.158 43.9665C162.545 44.0218 162.656 43.4684 162.269 43.3854C161.466 43.1917 160.484 43.8558 159.792 44.174C158.976 44.5476 157.91 44.8935 157.343 45.613C157.274 45.696 157.371 45.7928 157.454 45.7375Z" fill="#5D8C30"/>
<path d="M164.399 41.2401C164.482 41.9319 164.787 42.6237 164.953 43.3017C165.147 44.0488 165.285 44.8098 165.451 45.5708C165.506 45.8475 166.004 45.7507 165.949 45.4601C165.825 44.713 165.617 43.9658 165.368 43.2464C165.147 42.5822 164.884 41.7659 164.441 41.2125C164.441 41.1986 164.399 41.2125 164.399 41.2401Z" fill="#5D8C30"/>
<path d="M161.107 47.7559C161.882 47.3962 162.615 46.9396 163.39 46.5384C164.248 46.0956 165.12 45.722 166.033 45.39C166.434 45.2378 166.185 44.6151 165.811 44.795C164.165 45.5698 162.366 46.4 161.024 47.6314C160.955 47.6729 161.038 47.7836 161.107 47.7559Z" fill="#5D8C30"/>
<path d="M171.456 42.0281C172.134 41.8898 172.867 42.0696 173.379 42.5124C172.59 43.2319 172.604 44.4633 172.604 45.4318C172.604 46.0682 173.67 51.1737 172.798 51.1322C171.331 51.0631 170.93 42.1388 171.456 42.0281Z" fill="#666720"/>
<path d="M187.451 73.8777C186.953 74.3343 186.441 74.7632 185.915 75.1645C185.652 75.372 185.389 75.5657 185.112 75.7456C182.788 77.3921 179.786 79.1216 176.908 77.8764C176.645 77.821 176.382 77.7795 176.119 77.738C175.856 77.6965 175.593 77.6688 175.317 77.655C174.39 77.6135 173.449 77.8487 172.632 78.1669C172.273 78.2638 171.913 78.3468 171.553 78.416C170.1 78.7065 168.606 78.7895 167.167 78.582C166.807 78.5266 166.448 78.4713 166.102 78.3744C163.348 77.4613 160.747 75.7871 158.575 73.7947C158.367 73.5872 158.146 73.3796 157.952 73.1721C153.815 68.8553 153.525 61.2039 156.278 56.1399C156.693 55.3651 157.136 54.6733 157.62 54.0784C158.838 52.5564 160.332 51.5602 162.587 50.9653C164.801 50.3841 167.098 50.1074 169.381 50.1628C171.733 50.2181 173.546 50.2458 175.718 49.4295C177.447 48.7792 179.329 48.71 181.141 49.0005C184.379 49.5263 187.229 50.8131 189 53.5526C190.356 55.6557 191.256 58.1046 191.643 60.6228C192.335 65.4239 191.145 70.4741 187.451 73.8777Z" fill="#98C11F"/>
<path d="M187.451 73.8785C186.953 74.3351 186.441 74.764 185.915 75.1652C185.652 75.3728 185.389 75.5665 185.112 75.7463C182.788 77.3928 179.786 79.1223 176.908 77.8771C176.645 77.8218 176.382 77.7802 176.119 77.7387C175.856 77.6972 175.593 77.6696 175.317 77.6557C174.39 77.6142 173.449 77.8494 172.632 78.1676C172.273 78.2645 171.913 78.3475 171.553 78.4167C170.1 78.7073 168.606 78.7903 167.167 78.5827C166.807 78.5274 166.448 78.472 166.102 78.3752C163.348 77.462 160.747 75.7878 158.575 73.7955C158.367 73.5879 158.146 73.3804 157.952 73.1728C153.815 68.856 153.525 61.2047 156.278 56.1407C156.693 55.3659 157.136 54.6741 157.62 54.0791C156.32 56.3897 155.78 59.1569 156.084 61.7858C156.361 64.1379 157.274 66.3793 158.63 68.3302C158.852 68.6623 159.101 68.9667 159.35 69.2849C162.214 72.4534 166.129 74.4319 170.336 74.4734C170.709 74.5011 171.069 74.5149 171.442 74.5288C172.051 74.5564 172.66 74.5564 173.269 74.5426C173.878 74.5288 174.486 74.5011 175.081 74.4458C178.928 74.2244 183.079 73.5879 185.929 70.6547C186.482 70.1981 186.994 69.7 187.478 69.1881C187.963 68.6623 188.419 68.1227 188.834 67.5416C190.315 65.4938 191.256 63.0864 191.629 60.6097C192.335 65.4247 191.145 70.4748 187.451 73.8785Z" fill="#8AAF26"/>
<path d="M180.685 55.0485C180.962 55.339 181.266 55.5743 181.57 55.7403C184.31 57.2622 187.824 53.4573 184.919 51.6171C183.923 50.9807 182.235 50.3304 181.017 50.6763C178.693 51.3543 179.384 53.6926 180.685 55.0485Z" fill="#BDD14C"/>
<path d="M187.768 54.9519C188.363 55.1456 188.834 55.7544 188.322 56.7229C188.267 56.8198 188.197 56.9166 188.114 56.9858C188.004 57.055 187.879 57.0827 187.755 57.0965C187.16 57.138 186.565 56.6953 186.413 56.1142C186.163 55.0765 187.063 54.7167 187.768 54.9519Z" fill="#BDD14C"/>
</g>
<g clip-path="url(#clip4_5347_108136)">
<path d="M220.197 48.0055C220.197 48.0055 203.552 57.2064 201.809 39.4686C201.809 39.4686 213.694 34.8889 220.197 48.0055Z" fill="#619631"/>
<path d="M203.801 40.5615C203.857 40.5615 203.857 40.4785 203.801 40.4785C203.746 40.4785 203.746 40.5615 203.801 40.5615Z" fill="#5D8C30"/>
<path d="M204.161 40.9489C206.707 42.3879 209.364 43.6331 211.992 44.906C213.293 45.5287 214.594 46.1513 215.908 46.7601C216.572 47.0645 217.236 47.3412 217.9 47.6041C218.523 47.8531 219.173 48.2267 219.865 48.0191C220.128 47.9361 220.183 47.6317 220.059 47.4242C219.699 46.8431 218.952 46.6909 218.343 46.4695C217.665 46.2205 216.987 45.9714 216.295 45.7224C214.926 45.2381 213.556 44.7538 212.2 44.2281C209.502 43.1765 206.873 41.9728 204.217 40.8244C204.134 40.7691 204.078 40.9074 204.161 40.9489Z" fill="#5D8C30"/>
<path d="M208.09 39.6619C208.104 40.3537 208.395 41.0317 208.658 41.6681C208.907 42.3046 209.183 43.0379 209.612 43.5637C209.751 43.7297 210.027 43.6052 209.958 43.3838C209.723 42.7058 209.308 42.0832 209.017 41.4329C208.755 40.8241 208.561 40.1738 208.201 39.6066C208.16 39.5789 208.077 39.6066 208.09 39.6619Z" fill="#5D8C30"/>
<path d="M205.406 45.7375C206.181 45.3086 206.983 44.9765 207.813 44.6444C208.477 44.3816 209.363 43.8558 210.11 43.9665C210.497 44.0218 210.608 43.4684 210.221 43.3854C209.418 43.1917 208.436 43.8558 207.744 44.174C206.928 44.5476 205.862 44.8935 205.295 45.613C205.226 45.696 205.323 45.7928 205.406 45.7375Z" fill="#5D8C30"/>
<path d="M212.352 41.2401C212.435 41.9319 212.739 42.6237 212.905 43.3017C213.099 44.0488 213.237 44.8098 213.403 45.5708C213.458 45.8475 213.957 45.7507 213.901 45.4601C213.777 44.713 213.569 43.9658 213.32 43.2464C213.099 42.5822 212.836 41.7659 212.393 41.2125C212.393 41.1986 212.352 41.2125 212.352 41.2401Z" fill="#5D8C30"/>
<path d="M209.059 47.7559C209.834 47.3962 210.567 46.9396 211.342 46.5384C212.2 46.0956 213.072 45.722 213.985 45.39C214.386 45.2378 214.137 44.6151 213.763 44.795C212.117 45.5698 210.318 46.4 208.976 47.6314C208.907 47.6729 208.99 47.7836 209.059 47.7559Z" fill="#5D8C30"/>
<path d="M219.408 42.0281C220.086 41.8898 220.819 42.0696 221.331 42.5124C220.543 43.2319 220.556 44.4633 220.556 45.4318C220.556 46.0682 221.622 51.1737 220.75 51.1322C219.284 51.0631 218.882 42.1388 219.408 42.0281Z" fill="#666720"/>
<path d="M235.403 73.8777C234.905 74.3343 234.393 74.7632 233.867 75.1645C233.604 75.372 233.341 75.5657 233.065 75.7456C230.74 77.3921 227.738 79.1216 224.86 77.8764C224.597 77.821 224.334 77.7795 224.071 77.738C223.808 77.6965 223.545 77.6688 223.269 77.655C222.342 77.6135 221.401 77.8487 220.584 78.1669C220.225 78.2638 219.865 78.3468 219.505 78.416C218.052 78.7065 216.558 78.7895 215.119 78.582C214.76 78.5266 214.4 78.4713 214.054 78.3744C211.3 77.4613 208.699 75.7871 206.527 73.7947C206.32 73.5872 206.098 73.3796 205.904 73.1721C201.767 68.8553 201.477 61.2039 204.23 56.1399C204.645 55.3651 205.088 54.6733 205.572 54.0784C206.79 52.5564 208.284 51.5602 210.54 50.9653C212.753 50.3841 215.05 50.1074 217.333 50.1628C219.685 50.2181 221.498 50.2458 223.67 49.4295C225.399 48.7792 227.281 48.71 229.094 49.0005C232.331 49.5263 235.182 50.8131 236.953 53.5526C238.308 55.6557 239.208 58.1046 239.595 60.6228C240.287 65.4239 239.097 70.4741 235.403 73.8777Z" fill="#98C11F"/>
<path d="M235.403 73.8785C234.905 74.3351 234.393 74.764 233.867 75.1652C233.604 75.3728 233.341 75.5665 233.065 75.7463C230.74 77.3928 227.738 79.1223 224.86 77.8771C224.597 77.8218 224.334 77.7802 224.071 77.7387C223.808 77.6972 223.545 77.6696 223.269 77.6557C222.342 77.6142 221.401 77.8494 220.584 78.1676C220.225 78.2645 219.865 78.3475 219.505 78.4167C218.052 78.7073 216.558 78.7903 215.119 78.5827C214.76 78.5274 214.4 78.472 214.054 78.3752C211.3 77.462 208.699 75.7878 206.527 73.7955C206.32 73.5879 206.098 73.3804 205.904 73.1728C201.767 68.856 201.477 61.2047 204.23 56.1407C204.645 55.3659 205.088 54.6741 205.572 54.0791C204.272 56.3897 203.732 59.1569 204.037 61.7858C204.313 64.1379 205.226 66.3793 206.582 68.3302C206.804 68.6623 207.053 68.9667 207.302 69.2849C210.166 72.4534 214.082 74.4319 218.288 74.4734C218.661 74.5011 219.021 74.5149 219.395 74.5288C220.003 74.5564 220.612 74.5564 221.221 74.5426C221.83 74.5288 222.439 74.5011 223.033 74.4458C226.88 74.2244 231.031 73.5879 233.881 70.6547C234.434 70.1981 234.946 69.7 235.431 69.1881C235.915 68.6623 236.371 68.1227 236.786 67.5416C238.267 65.4938 239.208 63.0864 239.581 60.6097C240.287 65.4247 239.097 70.4748 235.403 73.8785Z" fill="#8AAF26"/>
<path d="M228.637 55.0485C228.914 55.339 229.218 55.5743 229.523 55.7403C232.262 57.2622 235.776 53.4573 232.871 51.6171C231.875 50.9807 230.187 50.3304 228.969 50.6763C226.645 51.3543 227.337 53.6926 228.637 55.0485Z" fill="#BDD14C"/>
<path d="M235.721 54.9519C236.316 55.1456 236.786 55.7544 236.274 56.7229C236.219 56.8198 236.15 56.9166 236.067 56.9858C235.956 57.055 235.831 57.0827 235.707 57.0965C235.112 57.138 234.517 56.6953 234.365 56.1142C234.116 55.0765 235.015 54.7167 235.721 54.9519Z" fill="#BDD14C"/>
</g>
<g clip-path="url(#clip5_5347_108136)">
<path d="M28.3881 98.0055C28.3881 98.0055 11.7433 107.206 10 89.4686C10 89.4686 21.8852 84.8889 28.3881 98.0055Z" fill="#619631"/>
<path d="M11.9927 90.5615C12.048 90.5615 12.048 90.4785 11.9927 90.4785C11.9373 90.4785 11.9373 90.5615 11.9927 90.5615Z" fill="#5D8C30"/>
<path d="M12.3526 90.9489C14.8984 92.3879 17.5549 93.6331 20.1838 94.906C21.4844 95.5287 22.785 96.1513 24.0994 96.7601C24.7635 97.0645 25.4277 97.3412 26.0918 97.6041C26.7144 97.8531 27.3647 98.2267 28.0565 98.0191C28.3194 97.9361 28.3747 97.6317 28.2502 97.4242C27.8905 96.8431 27.1433 96.6909 26.5345 96.4695C25.8566 96.2205 25.1786 95.9714 24.4868 95.7224C23.117 95.2381 21.7473 94.7538 20.3913 94.2281C17.6933 93.1765 15.0645 91.9728 12.4079 90.8244C12.3249 90.7691 12.2696 90.9074 12.3526 90.9489Z" fill="#5D8C30"/>
<path d="M16.2818 89.6619C16.2956 90.3537 16.5862 91.0317 16.8491 91.6681C17.0981 92.3046 17.3749 93.0379 17.8038 93.5637C17.9421 93.7297 18.2189 93.6052 18.1497 93.3838C17.9145 92.7058 17.4994 92.0832 17.2088 91.4329C16.9459 90.8241 16.7522 90.1738 16.3925 89.6066C16.351 89.5789 16.268 89.6066 16.2818 89.6619Z" fill="#5D8C30"/>
<path d="M13.5972 95.7375C14.372 95.3086 15.1745 94.9765 16.0047 94.6444C16.6688 94.3816 17.5543 93.8558 18.3014 93.9665C18.6888 94.0218 18.7995 93.4684 18.4121 93.3854C17.6096 93.1917 16.6273 93.8558 15.9355 94.174C15.1191 94.5476 14.0538 94.8935 13.4865 95.613C13.4173 95.696 13.5142 95.7928 13.5972 95.7375Z" fill="#5D8C30"/>
<path d="M20.543 91.2401C20.626 91.9319 20.9304 92.6237 21.0964 93.3017C21.2901 94.0488 21.4285 94.8098 21.5945 95.5708C21.6499 95.8475 22.1479 95.7507 22.0926 95.4601C21.9681 94.713 21.7605 93.9658 21.5115 93.2464C21.2901 92.5822 21.0272 91.7659 20.5845 91.2125C20.5845 91.1986 20.543 91.2125 20.543 91.2401Z" fill="#5D8C30"/>
<path d="M17.2506 97.7559C18.0255 97.3962 18.7588 96.9396 19.5336 96.5384C20.3914 96.0956 21.2631 95.722 22.1763 95.39C22.5775 95.2378 22.3285 94.6151 21.9549 94.795C20.3084 95.5698 18.5097 96.4 17.1676 97.6314C17.0984 97.6729 17.1815 97.7836 17.2506 97.7559Z" fill="#5D8C30"/>
<path d="M27.5995 92.0281C28.2775 91.8898 29.0108 92.0696 29.5227 92.5124C28.734 93.2319 28.7479 94.4633 28.7479 95.4318C28.7479 96.0682 29.8133 101.174 28.9416 101.132C27.475 101.063 27.0737 92.1388 27.5995 92.0281Z" fill="#666720"/>
<path d="M43.5943 123.878C43.0962 124.334 42.5843 124.763 42.0585 125.164C41.7956 125.372 41.5327 125.566 41.256 125.746C38.9315 127.392 35.9291 129.122 33.0512 127.876C32.7883 127.821 32.5255 127.779 32.2626 127.738C31.9997 127.696 31.7368 127.669 31.4601 127.655C30.5331 127.613 29.5922 127.849 28.7759 128.167C28.4161 128.264 28.0564 128.347 27.6967 128.416C26.2439 128.707 24.7496 128.79 23.3107 128.582C22.9509 128.527 22.5912 128.471 22.2453 128.374C19.4919 127.461 16.8907 125.787 14.7185 123.795C14.5109 123.587 14.2896 123.38 14.0958 123.172C9.95887 118.855 9.66831 111.204 12.4217 106.14C12.8368 105.365 13.2795 104.673 13.7638 104.078C14.9814 102.556 16.4756 101.56 18.7309 100.965C20.9447 100.384 23.2415 100.107 25.5244 100.163C27.8765 100.218 29.6891 100.246 31.8613 99.4295C33.5908 98.7792 35.4725 98.71 37.2851 99.0005C40.5227 99.5263 43.3729 100.813 45.1439 103.553C46.4999 105.656 47.3992 108.105 47.7866 110.623C48.4784 115.424 47.2885 120.474 43.5943 123.878Z" fill="#98C11F"/>
<path d="M43.5943 123.878C43.0962 124.335 42.5843 124.764 42.0585 125.165C41.7956 125.373 41.5327 125.566 41.256 125.746C38.9315 127.393 35.9291 129.122 33.0512 127.877C32.7883 127.822 32.5255 127.78 32.2626 127.739C31.9997 127.697 31.7368 127.67 31.4601 127.656C30.5331 127.614 29.5922 127.849 28.7759 128.168C28.4161 128.264 28.0564 128.348 27.6967 128.417C26.2439 128.707 24.7496 128.79 23.3107 128.583C22.9509 128.527 22.5912 128.472 22.2453 128.375C19.4919 127.462 16.8907 125.788 14.7185 123.795C14.5109 123.588 14.2896 123.38 14.0958 123.173C9.95887 118.856 9.66831 111.205 12.4217 106.141C12.8368 105.366 13.2795 104.674 13.7638 104.079C12.4632 106.39 11.9236 109.157 12.228 111.786C12.5047 114.138 13.4179 116.379 14.7738 118.33C14.9952 118.662 15.2442 118.967 15.4933 119.285C18.3573 122.453 22.2729 124.432 26.4791 124.473C26.8527 124.501 27.2124 124.515 27.586 124.529C28.1948 124.556 28.8036 124.556 29.4123 124.543C30.0211 124.529 30.6299 124.501 31.2249 124.446C35.0713 124.224 39.2221 123.588 42.0723 120.655C42.6258 120.198 43.1377 119.7 43.622 119.188C44.1062 118.662 44.5628 118.123 44.9779 117.542C46.4584 115.494 47.3992 113.086 47.7728 110.61C48.4784 115.425 47.2885 120.475 43.5943 123.878Z" fill="#8AAF26"/>
<path d="M36.8285 105.048C37.1052 105.339 37.4096 105.574 37.714 105.74C40.4535 107.262 43.9679 103.457 41.0623 101.617C40.0661 100.981 38.3781 100.33 37.1606 100.676C34.8361 101.354 35.5279 103.693 36.8285 105.048Z" fill="#BDD14C"/>
<path d="M43.912 104.952C44.507 105.146 44.9774 105.754 44.4655 106.723C44.4101 106.82 44.3409 106.917 44.2579 106.986C44.1472 107.055 44.0227 107.083 43.8982 107.097C43.3032 107.138 42.7083 106.695 42.5561 106.114C42.307 105.076 43.2064 104.717 43.912 104.952Z" fill="#BDD14C"/>
</g>
<g clip-path="url(#clip6_5347_108136)">
<path d="M76.3403 98.0055C76.3403 98.0055 59.6955 107.206 57.9521 89.4686C57.9521 89.4686 69.8373 84.8889 76.3403 98.0055Z" fill="#619631"/>
<path d="M59.9448 90.5615C60.0002 90.5615 60.0002 90.4785 59.9448 90.4785C59.8895 90.4785 59.8895 90.5615 59.9448 90.5615Z" fill="#5D8C30"/>
<path d="M60.3047 90.9489C62.8506 92.3879 65.5071 93.6331 68.1359 94.906C69.4365 95.5287 70.7371 96.1513 72.0515 96.7601C72.7157 97.0645 73.3798 97.3412 74.0439 97.6041C74.6666 97.8531 75.3168 98.2267 76.0086 98.0191C76.2715 97.9361 76.3269 97.6317 76.2024 97.4242C75.8426 96.8431 75.0955 96.6909 74.4867 96.4695C73.8087 96.2205 73.1308 95.9714 72.4389 95.7224C71.0692 95.2381 69.6994 94.7538 68.3435 94.2281C65.6455 93.1765 63.0166 91.9728 60.3601 90.8244C60.2771 90.7691 60.2217 90.9074 60.3047 90.9489Z" fill="#5D8C30"/>
<path d="M64.234 89.6619C64.2478 90.3537 64.5384 91.0317 64.8012 91.6681C65.0503 92.3046 65.327 93.0379 65.7559 93.5637C65.8943 93.7297 66.171 93.6052 66.1018 93.3838C65.8666 92.7058 65.4515 92.0832 65.161 91.4329C64.8981 90.8241 64.7044 90.1738 64.3446 89.6066C64.3031 89.5789 64.2201 89.6066 64.234 89.6619Z" fill="#5D8C30"/>
<path d="M61.5493 95.7375C62.3242 95.3086 63.1266 94.9765 63.9568 94.6444C64.6209 94.3816 65.5064 93.8558 66.2536 93.9665C66.641 94.0218 66.7517 93.4684 66.3643 93.3854C65.5618 93.1917 64.5794 93.8558 63.8876 94.174C63.0713 94.5476 62.0059 94.8935 61.4386 95.613C61.3695 95.696 61.4663 95.7928 61.5493 95.7375Z" fill="#5D8C30"/>
<path d="M68.4951 91.2401C68.5781 91.9319 68.8825 92.6237 69.0486 93.3017C69.2423 94.0488 69.3806 94.8098 69.5467 95.5708C69.602 95.8475 70.1001 95.7507 70.0448 95.4601C69.9202 94.713 69.7127 93.9658 69.4636 93.2464C69.2423 92.5822 68.9794 91.7659 68.5366 91.2125C68.5366 91.1986 68.4951 91.2125 68.4951 91.2401Z" fill="#5D8C30"/>
<path d="M65.2028 97.7559C65.9776 97.3962 66.7109 96.9396 67.4857 96.5384C68.3436 96.0956 69.2152 95.722 70.1284 95.39C70.5297 95.2378 70.2806 94.6151 69.907 94.795C68.2606 95.5698 66.4619 96.4 65.1198 97.6314C65.0506 97.6729 65.1336 97.7836 65.2028 97.7559Z" fill="#5D8C30"/>
<path d="M75.5516 92.0281C76.2296 91.8898 76.9629 92.0696 77.4749 92.5124C76.6862 93.2319 76.7 94.4633 76.7 95.4318C76.7 96.0682 77.7654 101.174 76.8937 101.132C75.4271 101.063 75.0259 92.1388 75.5516 92.0281Z" fill="#666720"/>
<path d="M91.5464 123.878C91.0483 124.334 90.5364 124.763 90.0106 125.164C89.7478 125.372 89.4849 125.566 89.2081 125.746C86.8837 127.392 83.8813 129.122 81.0034 127.876C80.7405 127.821 80.4776 127.779 80.2147 127.738C79.9518 127.696 79.6889 127.669 79.4122 127.655C78.4852 127.613 77.5444 127.849 76.728 128.167C76.3683 128.264 76.0086 128.347 75.6488 128.416C74.196 128.707 72.7017 128.79 71.2628 128.582C70.9031 128.527 70.5433 128.471 70.1974 128.374C67.4441 127.461 64.8429 125.787 62.6706 123.795C62.4631 123.587 62.2417 123.38 62.048 123.172C57.911 118.855 57.6205 111.204 60.3738 106.14C60.7889 105.365 61.2317 104.673 61.7159 104.078C62.9335 102.556 64.4278 101.56 66.6831 100.965C68.8968 100.384 71.1936 100.107 73.4766 100.163C75.8287 100.218 77.6412 100.246 79.8135 99.4295C81.543 98.7792 83.4247 98.71 85.2372 99.0005C88.4748 99.5263 91.3251 100.813 93.0961 103.553C94.452 105.656 95.3513 108.105 95.7388 110.623C96.4306 115.424 95.2407 120.474 91.5464 123.878Z" fill="#98C11F"/>
<path d="M91.5464 123.878C91.0483 124.335 90.5364 124.764 90.0106 125.165C89.7478 125.373 89.4849 125.566 89.2081 125.746C86.8837 127.393 83.8813 129.122 81.0034 127.877C80.7405 127.822 80.4776 127.78 80.2147 127.739C79.9518 127.697 79.6889 127.67 79.4122 127.656C78.4852 127.614 77.5444 127.849 76.728 128.168C76.3683 128.264 76.0086 128.348 75.6488 128.417C74.196 128.707 72.7017 128.79 71.2628 128.583C70.9031 128.527 70.5433 128.472 70.1974 128.375C67.4441 127.462 64.8429 125.788 62.6706 123.795C62.4631 123.588 62.2417 123.38 62.048 123.173C57.911 118.856 57.6205 111.205 60.3738 106.141C60.7889 105.366 61.2317 104.674 61.7159 104.079C60.4153 106.39 59.8757 109.157 60.1801 111.786C60.4569 114.138 61.37 116.379 62.726 118.33C62.9473 118.662 63.1964 118.967 63.4454 119.285C66.3095 122.453 70.2251 124.432 74.4313 124.473C74.8048 124.501 75.1646 124.515 75.5381 124.529C76.1469 124.556 76.7557 124.556 77.3645 124.543C77.9733 124.529 78.5821 124.501 79.177 124.446C83.0234 124.224 87.1742 123.588 90.0245 120.655C90.5779 120.198 91.0898 119.7 91.5741 119.188C92.0584 118.662 92.515 118.123 92.93 117.542C94.4105 115.494 95.3513 113.086 95.7249 110.61C96.4306 115.425 95.2407 120.475 91.5464 123.878Z" fill="#8AAF26"/>
<path d="M84.7807 105.048C85.0574 105.339 85.3618 105.574 85.6662 105.74C88.4057 107.262 91.92 103.457 89.0145 101.617C88.0183 100.981 86.3303 100.33 85.1127 100.676C82.7883 101.354 83.4801 103.693 84.7807 105.048Z" fill="#BDD14C"/>
<path d="M91.8642 104.952C92.4591 105.146 92.9295 105.754 92.4176 106.723C92.3623 106.82 92.2931 106.917 92.2101 106.986C92.0994 107.055 91.9749 107.083 91.8503 107.097C91.2554 107.138 90.6604 106.695 90.5082 106.114C90.2592 105.076 91.1585 104.717 91.8642 104.952Z" fill="#BDD14C"/>
</g>
<g clip-path="url(#clip7_5347_108136)">
<path d="M124.292 98.0055C124.292 98.0055 107.648 107.206 105.904 89.4686C105.904 89.4686 117.789 84.8889 124.292 98.0055Z" fill="#619631"/>
<path d="M107.897 90.5615C107.952 90.5615 107.952 90.4785 107.897 90.4785C107.842 90.4785 107.842 90.5615 107.897 90.5615Z" fill="#5D8C30"/>
<path d="M108.257 90.9489C110.803 92.3879 113.459 93.6331 116.088 94.906C117.389 95.5287 118.689 96.1513 120.004 96.7601C120.668 97.0645 121.332 97.3412 121.996 97.6041C122.619 97.8531 123.269 98.2267 123.961 98.0191C124.224 97.9361 124.279 97.6317 124.155 97.4242C123.795 96.8431 123.048 96.6909 122.439 96.4695C121.761 96.2205 121.083 95.9714 120.391 95.7224C119.021 95.2381 117.652 94.7538 116.296 94.2281C113.598 93.1765 110.969 91.9728 108.312 90.8244C108.229 90.7691 108.174 90.9074 108.257 90.9489Z" fill="#5D8C30"/>
<path d="M112.186 89.6619C112.2 90.3537 112.491 91.0317 112.753 91.6681C113.002 92.3046 113.279 93.0379 113.708 93.5637C113.846 93.7297 114.123 93.6052 114.054 93.3838C113.819 92.7058 113.404 92.0832 113.113 91.4329C112.85 90.8241 112.657 90.1738 112.297 89.6066C112.255 89.5789 112.172 89.6066 112.186 89.6619Z" fill="#5D8C30"/>
<path d="M109.501 95.7375C110.276 95.3086 111.079 94.9765 111.909 94.6444C112.573 94.3816 113.459 93.8558 114.206 93.9665C114.593 94.0218 114.704 93.4684 114.316 93.3854C113.514 93.1917 112.532 93.8558 111.84 94.174C111.023 94.5476 109.958 94.8935 109.391 95.613C109.322 95.696 109.418 95.7928 109.501 95.7375Z" fill="#5D8C30"/>
<path d="M116.447 91.2401C116.53 91.9319 116.835 92.6237 117.001 93.3017C117.194 94.0488 117.333 94.8098 117.499 95.5708C117.554 95.8475 118.052 95.7507 117.997 95.4601C117.872 94.713 117.665 93.9658 117.416 93.2464C117.194 92.5822 116.932 91.7659 116.489 91.2125C116.489 91.1986 116.447 91.2125 116.447 91.2401Z" fill="#5D8C30"/>
<path d="M113.155 97.7559C113.93 97.3962 114.663 96.9396 115.438 96.5384C116.296 96.0956 117.167 95.722 118.081 95.39C118.482 95.2378 118.233 94.6151 117.859 94.795C116.213 95.5698 114.414 96.4 113.072 97.6314C113.003 97.6729 113.086 97.7836 113.155 97.7559Z" fill="#5D8C30"/>
<path d="M123.504 92.0281C124.182 91.8898 124.915 92.0696 125.427 92.5124C124.638 93.2319 124.652 94.4633 124.652 95.4318C124.652 96.0682 125.718 101.174 124.846 101.132C123.379 101.063 122.978 92.1388 123.504 92.0281Z" fill="#666720"/>
<path d="M139.499 123.878C139 124.334 138.489 124.763 137.963 125.164C137.7 125.372 137.437 125.566 137.16 125.746C134.836 127.392 131.833 129.122 128.956 127.876C128.693 127.821 128.43 127.779 128.167 127.738C127.904 127.696 127.641 127.669 127.364 127.655C126.437 127.613 125.497 127.849 124.68 128.167C124.32 128.264 123.961 128.347 123.601 128.416C122.148 128.707 120.654 128.79 119.215 128.582C118.855 128.527 118.495 128.471 118.15 128.374C115.396 127.461 112.795 125.787 110.623 123.795C110.415 123.587 110.194 123.38 110 123.172C105.863 118.855 105.573 111.204 108.326 106.14C108.741 105.365 109.184 104.673 109.668 104.078C110.886 102.556 112.38 101.56 114.635 100.965C116.849 100.384 119.146 100.107 121.429 100.163C123.781 100.218 125.593 100.246 127.766 99.4295C129.495 98.7792 131.377 98.71 133.189 99.0005C136.427 99.5263 139.277 100.813 141.048 103.553C142.404 105.656 143.303 108.105 143.691 110.623C144.383 115.424 143.193 120.474 139.499 123.878Z" fill="#98C11F"/>
<path d="M139.499 123.878C139 124.335 138.489 124.764 137.963 125.165C137.7 125.373 137.437 125.566 137.16 125.746C134.836 127.393 131.833 129.122 128.956 127.877C128.693 127.822 128.43 127.78 128.167 127.739C127.904 127.697 127.641 127.67 127.364 127.656C126.437 127.614 125.497 127.849 124.68 128.168C124.32 128.264 123.961 128.348 123.601 128.417C122.148 128.707 120.654 128.79 119.215 128.583C118.855 128.527 118.495 128.472 118.15 128.375C115.396 127.462 112.795 125.788 110.623 123.795C110.415 123.588 110.194 123.38 110 123.173C105.863 118.856 105.573 111.205 108.326 106.141C108.741 105.366 109.184 104.674 109.668 104.079C108.367 106.39 107.828 109.157 108.132 111.786C108.409 114.138 109.322 116.379 110.678 118.33C110.899 118.662 111.149 118.967 111.398 119.285C114.262 122.453 118.177 124.432 122.383 124.473C122.757 124.501 123.117 124.515 123.49 124.529C124.099 124.556 124.708 124.556 125.317 124.543C125.925 124.529 126.534 124.501 127.129 124.446C130.976 124.224 135.126 123.588 137.977 120.655C138.53 120.198 139.042 119.7 139.526 119.188C140.011 118.662 140.467 118.123 140.882 117.542C142.363 115.494 143.303 113.086 143.677 110.61C144.383 115.425 143.193 120.475 139.499 123.878Z" fill="#8AAF26"/>
<path d="M132.733 105.048C133.01 105.339 133.314 105.574 133.618 105.74C136.358 107.262 139.872 103.457 136.967 101.617C135.97 100.981 134.282 100.33 133.065 100.676C130.74 101.354 131.432 103.693 132.733 105.048Z" fill="#BDD14C"/>
<path d="M139.816 104.952C140.411 105.146 140.882 105.754 140.37 106.723C140.314 106.82 140.245 106.917 140.162 106.986C140.052 107.055 139.927 107.083 139.802 107.097C139.208 107.138 138.613 106.695 138.46 106.114C138.211 105.076 139.111 104.717 139.816 104.952Z" fill="#BDD14C"/>
</g>
<g clip-path="url(#clip8_5347_108136)">
<path d="M172.245 98.0055C172.245 98.0055 155.6 107.206 153.856 89.4686C153.856 89.4686 165.742 84.8889 172.245 98.0055Z" fill="#619631"/>
<path d="M155.849 90.5615C155.904 90.5615 155.904 90.4785 155.849 90.4785C155.794 90.4785 155.794 90.5615 155.849 90.5615Z" fill="#5D8C30"/>
<path d="M156.209 90.9489C158.755 92.3879 161.411 93.6331 164.04 94.906C165.341 95.5287 166.641 96.1513 167.956 96.7601C168.62 97.0645 169.284 97.3412 169.948 97.6041C170.571 97.8531 171.221 98.2267 171.913 98.0191C172.176 97.9361 172.231 97.6317 172.107 97.4242C171.747 96.8431 171 96.6909 170.391 96.4695C169.713 96.2205 169.035 95.9714 168.343 95.7224C166.973 95.2381 165.604 94.7538 164.248 94.2281C161.55 93.1765 158.921 91.9728 156.264 90.8244C156.181 90.7691 156.126 90.9074 156.209 90.9489Z" fill="#5D8C30"/>
<path d="M160.138 89.6619C160.152 90.3537 160.443 91.0317 160.706 91.6681C160.955 92.3046 161.231 93.0379 161.66 93.5637C161.799 93.7297 162.075 93.6052 162.006 93.3838C161.771 92.7058 161.356 92.0832 161.065 91.4329C160.802 90.8241 160.609 90.1738 160.249 89.6066C160.207 89.5789 160.124 89.6066 160.138 89.6619Z" fill="#5D8C30"/>
<path d="M157.454 95.7375C158.228 95.3086 159.031 94.9765 159.861 94.6444C160.525 94.3816 161.411 93.8558 162.158 93.9665C162.545 94.0218 162.656 93.4684 162.269 93.3854C161.466 93.1917 160.484 93.8558 159.792 94.174C158.976 94.5476 157.91 94.8935 157.343 95.613C157.274 95.696 157.371 95.7928 157.454 95.7375Z" fill="#5D8C30"/>
<path d="M164.399 91.2401C164.482 91.9319 164.787 92.6237 164.953 93.3017C165.147 94.0488 165.285 94.8098 165.451 95.5708C165.506 95.8475 166.004 95.7507 165.949 95.4601C165.825 94.713 165.617 93.9658 165.368 93.2464C165.147 92.5822 164.884 91.7659 164.441 91.2125C164.441 91.1986 164.399 91.2125 164.399 91.2401Z" fill="#5D8C30"/>
<path d="M161.107 97.7559C161.882 97.3962 162.615 96.9396 163.39 96.5384C164.248 96.0956 165.12 95.722 166.033 95.39C166.434 95.2378 166.185 94.6151 165.811 94.795C164.165 95.5698 162.366 96.4 161.024 97.6314C160.955 97.6729 161.038 97.7836 161.107 97.7559Z" fill="#5D8C30"/>
<path d="M171.456 92.0281C172.134 91.8898 172.867 92.0696 173.379 92.5124C172.59 93.2319 172.604 94.4633 172.604 95.4318C172.604 96.0682 173.67 101.174 172.798 101.132C171.331 101.063 170.93 92.1388 171.456 92.0281Z" fill="#666720"/>
<path d="M187.451 123.878C186.953 124.334 186.441 124.763 185.915 125.164C185.652 125.372 185.389 125.566 185.112 125.746C182.788 127.392 179.786 129.122 176.908 127.876C176.645 127.821 176.382 127.779 176.119 127.738C175.856 127.696 175.593 127.669 175.317 127.655C174.39 127.613 173.449 127.849 172.632 128.167C172.273 128.264 171.913 128.347 171.553 128.416C170.1 128.707 168.606 128.79 167.167 128.582C166.807 128.527 166.448 128.471 166.102 128.374C163.348 127.461 160.747 125.787 158.575 123.795C158.367 123.587 158.146 123.38 157.952 123.172C153.815 118.855 153.525 111.204 156.278 106.14C156.693 105.365 157.136 104.673 157.62 104.078C158.838 102.556 160.332 101.56 162.587 100.965C164.801 100.384 167.098 100.107 169.381 100.163C171.733 100.218 173.546 100.246 175.718 99.4295C177.447 98.7792 179.329 98.71 181.141 99.0005C184.379 99.5263 187.229 100.813 189 103.553C190.356 105.656 191.256 108.105 191.643 110.623C192.335 115.424 191.145 120.474 187.451 123.878Z" fill="#98C11F"/>
<path d="M187.451 123.878C186.953 124.335 186.441 124.764 185.915 125.165C185.652 125.373 185.389 125.566 185.112 125.746C182.788 127.393 179.786 129.122 176.908 127.877C176.645 127.822 176.382 127.78 176.119 127.739C175.856 127.697 175.593 127.67 175.317 127.656C174.39 127.614 173.449 127.849 172.632 128.168C172.273 128.264 171.913 128.348 171.553 128.417C170.1 128.707 168.606 128.79 167.167 128.583C166.807 128.527 166.448 128.472 166.102 128.375C163.348 127.462 160.747 125.788 158.575 123.795C158.367 123.588 158.146 123.38 157.952 123.173C153.815 118.856 153.525 111.205 156.278 106.141C156.693 105.366 157.136 104.674 157.62 104.079C156.32 106.39 155.78 109.157 156.084 111.786C156.361 114.138 157.274 116.379 158.63 118.33C158.852 118.662 159.101 118.967 159.35 119.285C162.214 122.453 166.129 124.432 170.336 124.473C170.709 124.501 171.069 124.515 171.442 124.529C172.051 124.556 172.66 124.556 173.269 124.543C173.878 124.529 174.486 124.501 175.081 124.446C178.928 124.224 183.079 123.588 185.929 120.655C186.482 120.198 186.994 119.7 187.478 119.188C187.963 118.662 188.419 118.123 188.834 117.542C190.315 115.494 191.256 113.086 191.629 110.61C192.335 115.425 191.145 120.475 187.451 123.878Z" fill="#8AAF26"/>
<path d="M180.685 105.048C180.962 105.339 181.266 105.574 181.57 105.74C184.31 107.262 187.824 103.457 184.919 101.617C183.923 100.981 182.235 100.33 181.017 100.676C178.693 101.354 179.384 103.693 180.685 105.048Z" fill="#BDD14C"/>
<path d="M187.768 104.952C188.363 105.146 188.834 105.754 188.322 106.723C188.267 106.82 188.197 106.917 188.114 106.986C188.004 107.055 187.879 107.083 187.755 107.097C187.16 107.138 186.565 106.695 186.413 106.114C186.163 105.076 187.063 104.717 187.768 104.952Z" fill="#BDD14C"/>
</g>
<g clip-path="url(#clip9_5347_108136)">
<path d="M220.197 98.0055C220.197 98.0055 203.552 107.206 201.809 89.4686C201.809 89.4686 213.694 84.8889 220.197 98.0055Z" fill="#619631"/>
<path d="M203.801 90.5615C203.857 90.5615 203.857 90.4785 203.801 90.4785C203.746 90.4785 203.746 90.5615 203.801 90.5615Z" fill="#5D8C30"/>
<path d="M204.161 90.9489C206.707 92.3879 209.364 93.6331 211.992 94.906C213.293 95.5287 214.594 96.1513 215.908 96.7601C216.572 97.0645 217.236 97.3412 217.9 97.6041C218.523 97.8531 219.173 98.2267 219.865 98.0191C220.128 97.9361 220.183 97.6317 220.059 97.4242C219.699 96.8431 218.952 96.6909 218.343 96.4695C217.665 96.2205 216.987 95.9714 216.295 95.7224C214.926 95.2381 213.556 94.7538 212.2 94.2281C209.502 93.1765 206.873 91.9728 204.217 90.8244C204.134 90.7691 204.078 90.9074 204.161 90.9489Z" fill="#5D8C30"/>
<path d="M208.09 89.6619C208.104 90.3537 208.395 91.0317 208.658 91.6681C208.907 92.3046 209.183 93.0379 209.612 93.5637C209.751 93.7297 210.027 93.6052 209.958 93.3838C209.723 92.7058 209.308 92.0832 209.017 91.4329C208.755 90.8241 208.561 90.1738 208.201 89.6066C208.16 89.5789 208.077 89.6066 208.09 89.6619Z" fill="#5D8C30"/>
<path d="M205.406 95.7375C206.181 95.3086 206.983 94.9765 207.813 94.6444C208.477 94.3816 209.363 93.8558 210.11 93.9665C210.497 94.0218 210.608 93.4684 210.221 93.3854C209.418 93.1917 208.436 93.8558 207.744 94.174C206.928 94.5476 205.862 94.8935 205.295 95.613C205.226 95.696 205.323 95.7928 205.406 95.7375Z" fill="#5D8C30"/>
<path d="M212.352 91.2401C212.435 91.9319 212.739 92.6237 212.905 93.3017C213.099 94.0488 213.237 94.8098 213.403 95.5708C213.458 95.8475 213.957 95.7507 213.901 95.4601C213.777 94.713 213.569 93.9658 213.32 93.2464C213.099 92.5822 212.836 91.7659 212.393 91.2125C212.393 91.1986 212.352 91.2125 212.352 91.2401Z" fill="#5D8C30"/>
<path d="M209.059 97.7559C209.834 97.3962 210.567 96.9396 211.342 96.5384C212.2 96.0956 213.072 95.722 213.985 95.39C214.386 95.2378 214.137 94.6151 213.763 94.795C212.117 95.5698 210.318 96.4 208.976 97.6314C208.907 97.6729 208.99 97.7836 209.059 97.7559Z" fill="#5D8C30"/>
<path d="M219.408 92.0281C220.086 91.8898 220.819 92.0696 221.331 92.5124C220.543 93.2319 220.556 94.4633 220.556 95.4318C220.556 96.0682 221.622 101.174 220.75 101.132C219.284 101.063 218.882 92.1388 219.408 92.0281Z" fill="#666720"/>
<path d="M235.403 123.878C234.905 124.334 234.393 124.763 233.867 125.164C233.604 125.372 233.341 125.566 233.065 125.746C230.74 127.392 227.738 129.122 224.86 127.876C224.597 127.821 224.334 127.779 224.071 127.738C223.808 127.696 223.545 127.669 223.269 127.655C222.342 127.613 221.401 127.849 220.584 128.167C220.225 128.264 219.865 128.347 219.505 128.416C218.052 128.707 216.558 128.79 215.119 128.582C214.76 128.527 214.4 128.471 214.054 128.374C211.3 127.461 208.699 125.787 206.527 123.795C206.32 123.587 206.098 123.38 205.904 123.172C201.767 118.855 201.477 111.204 204.23 106.14C204.645 105.365 205.088 104.673 205.572 104.078C206.79 102.556 208.284 101.56 210.54 100.965C212.753 100.384 215.05 100.107 217.333 100.163C219.685 100.218 221.498 100.246 223.67 99.4295C225.399 98.7792 227.281 98.71 229.094 99.0005C232.331 99.5263 235.182 100.813 236.953 103.553C238.308 105.656 239.208 108.105 239.595 110.623C240.287 115.424 239.097 120.474 235.403 123.878Z" fill="#98C11F"/>
<path d="M235.403 123.878C234.905 124.335 234.393 124.764 233.867 125.165C233.604 125.373 233.341 125.566 233.065 125.746C230.74 127.393 227.738 129.122 224.86 127.877C224.597 127.822 224.334 127.78 224.071 127.739C223.808 127.697 223.545 127.67 223.269 127.656C222.342 127.614 221.401 127.849 220.584 128.168C220.225 128.264 219.865 128.348 219.505 128.417C218.052 128.707 216.558 128.79 215.119 128.583C214.76 128.527 214.4 128.472 214.054 128.375C211.3 127.462 208.699 125.788 206.527 123.795C206.32 123.588 206.098 123.38 205.904 123.173C201.767 118.856 201.477 111.205 204.23 106.141C204.645 105.366 205.088 104.674 205.572 104.079C204.272 106.39 203.732 109.157 204.037 111.786C204.313 114.138 205.226 116.379 206.582 118.33C206.804 118.662 207.053 118.967 207.302 119.285C210.166 122.453 214.082 124.432 218.288 124.473C218.661 124.501 219.021 124.515 219.395 124.529C220.003 124.556 220.612 124.556 221.221 124.543C221.83 124.529 222.439 124.501 223.033 124.446C226.88 124.224 231.031 123.588 233.881 120.655C234.434 120.198 234.946 119.7 235.431 119.188C235.915 118.662 236.371 118.123 236.786 117.542C238.267 115.494 239.208 113.086 239.581 110.61C240.287 115.425 239.097 120.475 235.403 123.878Z" fill="#8AAF26"/>
<path d="M228.637 105.048C228.914 105.339 229.218 105.574 229.523 105.74C232.262 107.262 235.776 103.457 232.871 101.617C231.875 100.981 230.187 100.33 228.969 100.676C226.645 101.354 227.337 103.693 228.637 105.048Z" fill="#BDD14C"/>
<path d="M235.721 104.952C236.316 105.146 236.786 105.754 236.274 106.723C236.219 106.82 236.15 106.917 236.067 106.986C235.956 107.055 235.831 107.083 235.707 107.097C235.112 107.138 234.517 106.695 234.365 106.114C234.116 105.076 235.015 104.717 235.721 104.952Z" fill="#BDD14C"/>
</g>
<path d="M0 5.69336C0 2.93194 2.23858 0.693359 5 0.693359H265C267.761 0.693359 270 2.93194 270 5.69336V28.6934H0V5.69336Z" fill="#205B64"/>
<path d="M82.4858 20.8854C81.7284 20.8854 81.0298 20.7467 80.3898 20.4694C79.7604 20.1814 79.2431 19.776 78.8377 19.2534L80.2778 17.5254C80.8858 18.3467 81.5791 18.7574 82.3578 18.7574C83.4138 18.7574 83.9418 18.1387 83.9418 16.9014V11.5734H80.0058V9.49336H86.5178V16.7574C86.5178 18.1334 86.1764 19.168 85.4938 19.8614C84.8111 20.544 83.8084 20.8854 82.4858 20.8854ZM92.374 11.9574C93.7073 11.9574 94.7313 12.2774 95.446 12.9174C96.1607 13.5467 96.518 14.5014 96.518 15.7814V20.6934H94.182V19.6214C93.7127 20.4214 92.838 20.8214 91.558 20.8214C90.8967 20.8214 90.3207 20.7094 89.83 20.4854C89.35 20.2614 88.982 19.952 88.726 19.5574C88.47 19.1627 88.342 18.7147 88.342 18.2134C88.342 17.4134 88.6407 16.784 89.238 16.3254C89.846 15.8667 90.7793 15.6374 92.038 15.6374H94.022C94.022 15.0934 93.8567 14.6774 93.526 14.3894C93.1953 14.0907 92.6993 13.9414 92.038 13.9414C91.5793 13.9414 91.126 14.016 90.678 14.1654C90.2407 14.304 89.8673 14.496 89.558 14.7414L88.662 12.9974C89.1313 12.6667 89.6913 12.4107 90.342 12.2294C91.0033 12.048 91.6807 11.9574 92.374 11.9574ZM92.182 19.1414C92.6087 19.1414 92.9873 19.0454 93.318 18.8534C93.6487 18.6507 93.8833 18.3574 94.022 17.9734V17.0934H92.31C91.286 17.0934 90.774 17.4294 90.774 18.1014C90.774 18.4214 90.8967 18.6774 91.142 18.8694C91.398 19.0507 91.7447 19.1414 92.182 19.1414ZM103.031 20.8214C102.113 20.8214 101.287 20.6347 100.551 20.2614C99.8254 19.8774 99.2548 19.3494 98.8388 18.6774C98.4334 18.0054 98.2308 17.2427 98.2308 16.3894C98.2308 15.536 98.4334 14.7734 98.8388 14.1014C99.2548 13.4294 99.8254 12.9067 100.551 12.5334C101.287 12.1494 102.113 11.9574 103.031 11.9574C103.937 11.9574 104.727 12.1494 105.399 12.5334C106.081 12.9067 106.577 13.4454 106.887 14.1494L104.951 15.1894C104.503 14.4 103.857 14.0054 103.015 14.0054C102.364 14.0054 101.825 14.2187 101.399 14.6454C100.972 15.072 100.759 15.6534 100.759 16.3894C100.759 17.1254 100.972 17.7067 101.399 18.1334C101.825 18.56 102.364 18.7734 103.015 18.7734C103.868 18.7734 104.513 18.3787 104.951 17.5894L106.887 18.6454C106.577 19.328 106.081 19.8614 105.399 20.2454C104.727 20.6294 103.937 20.8214 103.031 20.8214ZM111.957 17.3174L110.757 18.5014V20.6934H108.261V8.82136H110.757V15.5414L114.405 12.0854H117.381L113.797 15.7334L117.701 20.6934H114.677L111.957 17.3174ZM118.456 9.49336H120.584L120.408 14.0374H118.616L118.456 9.49336ZM125.407 20.8214C124.693 20.8214 123.994 20.736 123.311 20.5654C122.629 20.384 122.085 20.16 121.679 19.8934L122.511 18.1014C122.895 18.3467 123.359 18.5494 123.903 18.7094C124.447 18.8587 124.981 18.9334 125.503 18.9334C126.559 18.9334 127.087 18.672 127.087 18.1494C127.087 17.904 126.943 17.728 126.655 17.6214C126.367 17.5147 125.925 17.424 125.327 17.3494C124.623 17.2427 124.042 17.12 123.583 16.9814C123.125 16.8427 122.725 16.5974 122.383 16.2454C122.053 15.8934 121.887 15.392 121.887 14.7414C121.887 14.1974 122.042 13.7174 122.351 13.3014C122.671 12.8747 123.13 12.544 123.727 12.3094C124.335 12.0747 125.05 11.9574 125.871 11.9574C126.479 11.9574 127.082 12.0267 127.679 12.1654C128.287 12.2934 128.789 12.4747 129.183 12.7094L128.351 14.4854C127.594 14.0587 126.767 13.8454 125.871 13.8454C125.338 13.8454 124.938 13.92 124.671 14.0694C124.405 14.2187 124.271 14.4107 124.271 14.6454C124.271 14.912 124.415 15.0987 124.703 15.2054C124.991 15.312 125.45 15.4134 126.079 15.5094C126.783 15.6267 127.359 15.7547 127.807 15.8934C128.255 16.0214 128.645 16.2614 128.975 16.6134C129.306 16.9654 129.471 17.456 129.471 18.0854C129.471 18.6187 129.311 19.0934 128.991 19.5094C128.671 19.9254 128.202 20.2507 127.583 20.4854C126.975 20.7094 126.25 20.8214 125.407 20.8214ZM140.631 11.9574C141.431 11.9574 142.156 12.144 142.807 12.5174C143.468 12.88 143.985 13.3974 144.359 14.0694C144.732 14.7307 144.919 15.504 144.919 16.3894C144.919 17.2747 144.732 18.0534 144.359 18.7254C143.985 19.3867 143.468 19.904 142.807 20.2774C142.156 20.64 141.431 20.8214 140.631 20.8214C139.447 20.8214 138.545 20.448 137.927 19.7014V20.6934H135.543V8.82136H138.039V12.9974C138.668 12.304 139.532 11.9574 140.631 11.9574ZM140.199 18.7734C140.839 18.7734 141.361 18.56 141.767 18.1334C142.183 17.696 142.391 17.1147 142.391 16.3894C142.391 15.664 142.183 15.088 141.767 14.6614C141.361 14.224 140.839 14.0054 140.199 14.0054C139.559 14.0054 139.031 14.224 138.615 14.6614C138.209 15.088 138.007 15.664 138.007 16.3894C138.007 17.1147 138.209 17.696 138.615 18.1334C139.031 18.56 139.559 18.7734 140.199 18.7734ZM149.921 11.9574C151.254 11.9574 152.278 12.2774 152.993 12.9174C153.708 13.5467 154.065 14.5014 154.065 15.7814V20.6934H151.729V19.6214C151.26 20.4214 150.385 20.8214 149.105 20.8214C148.444 20.8214 147.868 20.7094 147.377 20.4854C146.897 20.2614 146.529 19.952 146.273 19.5574C146.017 19.1627 145.889 18.7147 145.889 18.2134C145.889 17.4134 146.188 16.784 146.785 16.3254C147.393 15.8667 148.326 15.6374 149.585 15.6374H151.569C151.569 15.0934 151.404 14.6774 151.073 14.3894C150.742 14.0907 150.246 13.9414 149.585 13.9414C149.126 13.9414 148.673 14.016 148.225 14.1654C147.788 14.304 147.414 14.496 147.105 14.7414L146.209 12.9974C146.678 12.6667 147.238 12.4107 147.889 12.2294C148.55 12.048 149.228 11.9574 149.921 11.9574ZM149.729 19.1414C150.156 19.1414 150.534 19.0454 150.865 18.8534C151.196 18.6507 151.43 18.3574 151.569 17.9734V17.0934H149.857C148.833 17.0934 148.321 17.4294 148.321 18.1014C148.321 18.4214 148.444 18.6774 148.689 18.8694C148.945 19.0507 149.292 19.1414 149.729 19.1414ZM159.22 20.8214C158.505 20.8214 157.807 20.736 157.124 20.5654C156.441 20.384 155.897 20.16 155.492 19.8934L156.324 18.1014C156.708 18.3467 157.172 18.5494 157.716 18.7094C158.26 18.8587 158.793 18.9334 159.316 18.9334C160.372 18.9334 160.9 18.672 160.9 18.1494C160.9 17.904 160.756 17.728 160.468 17.6214C160.18 17.5147 159.737 17.424 159.14 17.3494C158.436 17.2427 157.855 17.12 157.396 16.9814C156.937 16.8427 156.537 16.5974 156.196 16.2454C155.865 15.8934 155.7 15.392 155.7 14.7414C155.7 14.1974 155.855 13.7174 156.164 13.3014C156.484 12.8747 156.943 12.544 157.54 12.3094C158.148 12.0747 158.863 11.9574 159.684 11.9574C160.292 11.9574 160.895 12.0267 161.492 12.1654C162.1 12.2934 162.601 12.4747 162.996 12.7094L162.164 14.4854C161.407 14.0587 160.58 13.8454 159.684 13.8454C159.151 13.8454 158.751 13.92 158.484 14.0694C158.217 14.2187 158.084 14.4107 158.084 14.6454C158.084 14.912 158.228 15.0987 158.516 15.2054C158.804 15.312 159.263 15.4134 159.892 15.5094C160.596 15.6267 161.172 15.7547 161.62 15.8934C162.068 16.0214 162.457 16.2614 162.788 16.6134C163.119 16.9654 163.284 17.456 163.284 18.0854C163.284 18.6187 163.124 19.0934 162.804 19.5094C162.484 19.9254 162.015 20.2507 161.396 20.4854C160.788 20.7094 160.063 20.8214 159.22 20.8214ZM168.52 17.3174L167.32 18.5014V20.6934H164.824V8.82136H167.32V15.5414L170.968 12.0854H173.944L170.36 15.7334L174.264 20.6934H171.24L168.52 17.3174ZM183.443 16.4214C183.443 16.4534 183.427 16.6774 183.395 17.0934H176.883C177.001 17.6267 177.278 18.048 177.715 18.3574C178.153 18.6667 178.697 18.8214 179.347 18.8214C179.795 18.8214 180.19 18.7574 180.531 18.6294C180.883 18.4907 181.209 18.2774 181.507 17.9894L182.835 19.4294C182.025 20.3574 180.841 20.8214 179.283 20.8214C178.313 20.8214 177.454 20.6347 176.707 20.2614C175.961 19.8774 175.385 19.3494 174.979 18.6774C174.574 18.0054 174.371 17.2427 174.371 16.3894C174.371 15.5467 174.569 14.7894 174.963 14.1174C175.369 13.4347 175.918 12.9067 176.611 12.5334C177.315 12.1494 178.099 11.9574 178.963 11.9574C179.806 11.9574 180.569 12.1387 181.251 12.5014C181.934 12.864 182.467 13.3867 182.851 14.0694C183.246 14.7414 183.443 15.5254 183.443 16.4214ZM178.979 13.8454C178.414 13.8454 177.939 14.0054 177.555 14.3254C177.171 14.6454 176.937 15.0827 176.851 15.6374H181.091C181.006 15.0934 180.771 14.6614 180.387 14.3414C180.003 14.0107 179.534 13.8454 178.979 13.8454ZM190.657 20.2774C190.412 20.4587 190.108 20.5974 189.745 20.6934C189.393 20.7787 189.02 20.8214 188.625 20.8214C187.601 20.8214 186.806 20.56 186.241 20.0374C185.686 19.5147 185.409 18.7467 185.409 17.7334V14.1974H184.081V12.2774H185.409V10.1814H187.905V12.2774H190.049V14.1974H187.905V17.7014C187.905 18.064 187.996 18.3467 188.177 18.5494C188.369 18.7414 188.636 18.8374 188.977 18.8374C189.372 18.8374 189.708 18.7307 189.985 18.5174L190.657 20.2774Z" fill="white"/>
<defs>
<clipPath id="clip0_5347_108136">
<rect width="37.9523" height="40" fill="white" transform="translate(10 38.6934)"/>
</clipPath>
<clipPath id="clip1_5347_108136">
<rect width="37.9523" height="40" fill="white" transform="translate(57.9521 38.6934)"/>
</clipPath>
<clipPath id="clip2_5347_108136">
<rect width="37.9523" height="40" fill="white" transform="translate(105.904 38.6934)"/>
</clipPath>
<clipPath id="clip3_5347_108136">
<rect width="37.9523" height="40" fill="white" transform="translate(153.856 38.6934)"/>
</clipPath>
<clipPath id="clip4_5347_108136">
<rect width="37.9523" height="40" fill="white" transform="translate(201.809 38.6934)"/>
</clipPath>
<clipPath id="clip5_5347_108136">
<rect width="37.9523" height="40" fill="white" transform="translate(10 88.6934)"/>
</clipPath>
<clipPath id="clip6_5347_108136">
<rect width="37.9523" height="40" fill="white" transform="translate(57.9521 88.6934)"/>
</clipPath>
<clipPath id="clip7_5347_108136">
<rect width="37.9523" height="40" fill="white" transform="translate(105.904 88.6934)"/>
</clipPath>
<clipPath id="clip8_5347_108136">
<rect width="37.9523" height="40" fill="white" transform="translate(153.856 88.6934)"/>
</clipPath>
<clipPath id="clip9_5347_108136">
<rect width="37.9523" height="40" fill="white" transform="translate(201.809 88.6934)"/>
</clipPath>
</defs>
</svg>
