<svg width="117" height="117" viewBox="0 0 117 117" fill="none" xmlns="http://www.w3.org/2000/svg">
<rect width="117" height="117" fill="white"/>
<path d="M15.6801 73.0013L33.273 72.5253L62.576 66.3153L79.1719 73.2006L97.7175 73.0013L101.296 69.7579L95.6901 58.1016L21.4632 60.0166L10.9717 67.4665L15.6801 73.0013Z" fill="#2B2A25"/>
<path d="M24.509 78.7895C28.8287 78.7895 32.3306 75.2906 32.3306 70.9744C32.3306 66.6582 28.8287 63.1592 24.509 63.1592C20.1893 63.1592 16.6875 66.6582 16.6875 70.9744C16.6875 75.2906 20.1893 78.7895 24.509 78.7895Z" fill="#777464"/>
<path d="M27.4442 63.7803C29.7153 65.1418 31.7206 67.4001 31.8314 70.245C31.9754 74.1304 30.236 78.5472 23.6553 78.3701C22.6139 78.3369 21.3953 78.0934 20.4868 77.717C21.6612 78.4254 23.3673 78.7575 24.8407 78.7575C29.1614 78.7575 32.3299 75.3259 32.3299 71.0198C32.3188 67.7432 30.3025 64.9426 27.4442 63.7803Z" fill="#424038"/>
<path d="M24.5085 75.7338C27.1394 75.7338 29.2723 73.6027 29.2723 70.9738C29.2723 68.345 27.1394 66.2139 24.5085 66.2139C21.8775 66.2139 19.7446 68.345 19.7446 70.9738C19.7446 73.6027 21.8775 75.7338 24.5085 75.7338Z" fill="#B7B29E"/>
<path d="M24.5084 75.3466C26.9252 75.3466 28.8845 73.389 28.8845 70.9741C28.8845 68.5592 26.9252 66.6016 24.5084 66.6016C22.0916 66.6016 20.1323 68.5592 20.1323 70.9741C20.1323 73.389 22.0916 75.3466 24.5084 75.3466Z" fill="#969283"/>
<path d="M24.5092 74.074C26.2224 74.074 27.6113 72.6863 27.6113 70.9745C27.6113 69.2627 26.2224 67.875 24.5092 67.875C22.796 67.875 21.4072 69.2627 21.4072 70.9745C21.4072 72.6863 22.796 74.074 24.5092 74.074Z" fill="#777464"/>
<path d="M24.9524 73.033C24.9524 73.2766 24.753 73.4869 24.4982 73.4869C24.2544 73.4869 24.0439 73.2876 24.0439 73.033V68.904C24.0439 68.6605 24.2434 68.4502 24.4982 68.4502C24.7419 68.4502 24.9524 68.6494 24.9524 68.904V73.033Z" fill="#969283"/>
<path d="M26.5685 70.4746C26.8122 70.4746 27.0227 70.6739 27.0227 70.9285C27.0227 71.172 26.8233 71.3823 26.5685 71.3823H22.4362C22.1924 71.3823 21.9819 71.1831 21.9819 70.9285C21.9819 70.6849 22.1813 70.4746 22.4362 70.4746H26.5685Z" fill="#969283"/>
<path d="M26.2927 72.1246C26.47 72.3017 26.47 72.5784 26.2927 72.7555C26.1155 72.9326 25.8385 72.9326 25.6612 72.7555L22.7365 69.8331C22.5592 69.656 22.5592 69.3793 22.7365 69.2022C22.9137 69.0251 23.1907 69.0251 23.3679 69.2022L26.2927 72.1246Z" fill="#969283"/>
<path d="M25.6266 69.1797C25.8038 69.0026 26.0808 69.0026 26.258 69.1797C26.4353 69.3568 26.4353 69.6336 26.258 69.8107L23.3333 72.7331C23.156 72.9102 22.8791 72.9102 22.7018 72.7331C22.5245 72.5559 22.5245 72.2792 22.7018 72.1021L25.6266 69.1797Z" fill="#969283"/>
<path d="M24.5081 72.7663C25.4993 72.7663 26.3029 71.9634 26.3029 70.973C26.3029 69.9826 25.4993 69.1797 24.5081 69.1797C23.5169 69.1797 22.7134 69.9826 22.7134 70.973C22.7134 71.9634 23.5169 72.7663 24.5081 72.7663Z" fill="#969283"/>
<path opacity="0.4" d="M17.4299 70.587L18.0946 70.0667C18.0946 70.0667 18.1722 67.6314 20.5762 65.816C22.7698 64.1666 25.4509 64.4544 25.4509 64.4544L25.7057 63.9342C25.7057 63.9342 22.3378 63.5246 20.0112 65.4064C17.2083 67.6868 17.4299 70.587 17.4299 70.587Z" fill="#969283"/>
<path d="M24.5103 69.0593C24.6266 69.0593 24.7208 68.9652 24.7208 68.849C24.7208 68.7328 24.6266 68.6387 24.5103 68.6387C24.394 68.6387 24.2998 68.7328 24.2998 68.849C24.2998 68.9652 24.394 69.0593 24.5103 69.0593Z" fill="#B7B29E"/>
<path d="M25.983 69.656C26.0992 69.656 26.1934 69.5618 26.1934 69.4457C26.1934 69.3295 26.0992 69.2354 25.983 69.2354C25.8667 69.2354 25.7725 69.3295 25.7725 69.4457C25.7725 69.5618 25.8667 69.656 25.983 69.656Z" fill="#B7B29E"/>
<path d="M26.6788 71.1511C26.795 71.1511 26.8892 71.0569 26.8892 70.9408C26.8892 70.8246 26.795 70.7305 26.6788 70.7305C26.5625 70.7305 26.4683 70.8246 26.4683 70.9408C26.4683 71.0569 26.5625 71.1511 26.6788 71.1511Z" fill="#B7B29E"/>
<path d="M26.0601 72.7566C26.1764 72.7566 26.2706 72.6624 26.2706 72.5463C26.2706 72.4301 26.1764 72.3359 26.0601 72.3359C25.9439 72.3359 25.8496 72.4301 25.8496 72.5463C25.8496 72.6624 25.9439 72.7566 26.0601 72.7566Z" fill="#B7B29E"/>
<path d="M24.4878 73.3103C24.6041 73.3103 24.6983 73.2161 24.6983 73.1C24.6983 72.9838 24.6041 72.8896 24.4878 72.8896C24.3716 72.8896 24.2773 72.9838 24.2773 73.1C24.2773 73.2161 24.3716 73.3103 24.4878 73.3103Z" fill="#B7B29E"/>
<path d="M23.003 72.6677C23.1192 72.6677 23.2135 72.5736 23.2135 72.4574C23.2135 72.3412 23.1192 72.2471 23.003 72.2471C22.8867 72.2471 22.7925 72.3412 22.7925 72.4574C22.7925 72.5736 22.8867 72.6677 23.003 72.6677Z" fill="#B7B29E"/>
<path d="M22.4151 71.1628C22.5313 71.1628 22.6256 71.0687 22.6256 70.9525C22.6256 70.8364 22.5313 70.7422 22.4151 70.7422C22.2988 70.7422 22.2046 70.8364 22.2046 70.9525C22.2046 71.0687 22.2988 71.1628 22.4151 71.1628Z" fill="#B7B29E"/>
<path d="M23.003 69.656C23.1192 69.656 23.2135 69.5618 23.2135 69.4457C23.2135 69.3295 23.1192 69.2354 23.003 69.2354C22.8867 69.2354 22.7925 69.3295 22.7925 69.4457C22.7925 69.5618 22.8867 69.656 23.003 69.656Z" fill="#B7B29E"/>
<path d="M24.5085 71.9597C25.053 71.9597 25.4945 71.5186 25.4945 70.9745C25.4945 70.4304 25.053 69.9893 24.5085 69.9893C23.9639 69.9893 23.5225 70.4304 23.5225 70.9745C23.5225 71.5186 23.9639 71.9597 24.5085 71.9597Z" fill="#B7B29E"/>
<path d="M88.8542 78.7895C93.174 78.7895 96.6758 75.2906 96.6758 70.9744C96.6758 66.6582 93.174 63.1592 88.8542 63.1592C84.5345 63.1592 81.0327 66.6582 81.0327 70.9744C81.0327 75.2906 84.5345 78.7895 88.8542 78.7895Z" fill="#777464"/>
<path d="M91.7889 63.7803C94.0601 65.1418 96.0653 67.4001 96.1761 70.245C96.3201 74.1304 94.5808 78.5472 88 78.3701C86.9586 78.3369 85.74 78.0934 84.8315 77.717C86.0059 78.4254 87.712 78.7575 89.1855 78.7575C93.5061 78.7575 96.6746 75.3259 96.6746 71.0198C96.6635 67.7432 94.6472 64.9426 91.7889 63.7803Z" fill="#424038"/>
<path d="M88.8537 75.7338C91.4846 75.7338 93.6175 73.6027 93.6175 70.9738C93.6175 68.345 91.4846 66.2139 88.8537 66.2139C86.2227 66.2139 84.0898 68.345 84.0898 70.9738C84.0898 73.6027 86.2227 75.7338 88.8537 75.7338Z" fill="#B7B29E"/>
<path d="M88.8541 75.3466C91.2709 75.3466 93.2302 73.389 93.2302 70.9741C93.2302 68.5592 91.2709 66.6016 88.8541 66.6016C86.4373 66.6016 84.478 68.5592 84.478 70.9741C84.478 73.389 86.4373 75.3466 88.8541 75.3466Z" fill="#969283"/>
<path d="M88.855 74.074C90.5682 74.074 91.957 72.6863 91.957 70.9745C91.957 69.2627 90.5682 67.875 88.855 67.875C87.1418 67.875 85.7529 69.2627 85.7529 70.9745C85.7529 72.6863 87.1418 74.074 88.855 74.074Z" fill="#777464"/>
<path d="M89.2981 73.033C89.2981 73.2766 89.0987 73.4869 88.8439 73.4869C88.6001 73.4869 88.3896 73.2876 88.3896 73.033V68.904C88.3896 68.6605 88.5891 68.4502 88.8439 68.4502C89.0876 68.4502 89.2981 68.6494 89.2981 68.904V73.033Z" fill="#969283"/>
<path d="M90.9142 70.4746C91.1579 70.4746 91.3684 70.6739 91.3684 70.9285C91.3684 71.172 91.169 71.3823 90.9142 71.3823H86.7819C86.5381 71.3823 86.3276 71.1831 86.3276 70.9285C86.3276 70.6849 86.527 70.4746 86.7819 70.4746H90.9142Z" fill="#969283"/>
<path d="M90.6482 72.1246C90.8254 72.3017 90.8254 72.5784 90.6482 72.7555C90.4709 72.9326 90.1939 72.9326 90.0167 72.7555L87.0919 69.8331C86.9147 69.656 86.9147 69.3793 87.0919 69.2022C87.2692 69.0251 87.5462 69.0251 87.7234 69.2022L90.6482 72.1246Z" fill="#969283"/>
<path d="M89.9835 69.1797C90.1608 69.0026 90.4377 69.0026 90.615 69.1797C90.7923 69.3568 90.7923 69.6336 90.615 69.8107L87.6902 72.7331C87.513 72.9102 87.236 72.9102 87.0587 72.7331C86.8815 72.5559 86.8815 72.2792 87.0587 72.1021L89.9835 69.1797Z" fill="#969283"/>
<path d="M88.8538 72.7663C89.845 72.7663 90.6486 71.9634 90.6486 70.973C90.6486 69.9826 89.845 69.1797 88.8538 69.1797C87.8626 69.1797 87.0591 69.9826 87.0591 70.973C87.0591 71.9634 87.8626 72.7663 88.8538 72.7663Z" fill="#969283"/>
<path opacity="0.4" d="M81.7741 70.587L82.4388 70.0667C82.4388 70.0667 82.5164 67.6314 84.9205 65.816C87.114 64.1666 89.795 64.4544 89.795 64.4544L90.0498 63.9342C90.0498 63.9342 86.6819 63.5246 84.3554 65.4064C81.5636 67.6868 81.7741 70.587 81.7741 70.587Z" fill="#969283"/>
<path d="M88.8555 69.0593C88.9718 69.0593 89.066 68.9652 89.066 68.849C89.066 68.7328 88.9718 68.6387 88.8555 68.6387C88.7393 68.6387 88.645 68.7328 88.645 68.849C88.645 68.9652 88.7393 69.0593 88.8555 69.0593Z" fill="#B7B29E"/>
<path d="M90.3282 69.656C90.4444 69.656 90.5387 69.5618 90.5387 69.4457C90.5387 69.3295 90.4444 69.2354 90.3282 69.2354C90.2119 69.2354 90.1177 69.3295 90.1177 69.4457C90.1177 69.5618 90.2119 69.656 90.3282 69.656Z" fill="#B7B29E"/>
<path d="M91.0362 71.1511C91.1524 71.1511 91.2467 71.0569 91.2467 70.9408C91.2467 70.8246 91.1524 70.7305 91.0362 70.7305C90.9199 70.7305 90.8257 70.8246 90.8257 70.9408C90.8257 71.0569 90.9199 71.1511 91.0362 71.1511Z" fill="#B7B29E"/>
<path d="M90.4053 72.7566C90.5216 72.7566 90.6158 72.6624 90.6158 72.5463C90.6158 72.4301 90.5216 72.3359 90.4053 72.3359C90.2891 72.3359 90.1948 72.4301 90.1948 72.5463C90.1948 72.6624 90.2891 72.7566 90.4053 72.7566Z" fill="#B7B29E"/>
<path d="M88.8321 73.3103C88.9483 73.3103 89.0426 73.2161 89.0426 73.1C89.0426 72.9838 88.9483 72.8896 88.8321 72.8896C88.7158 72.8896 88.6216 72.9838 88.6216 73.1C88.6216 73.2161 88.7158 73.3103 88.8321 73.3103Z" fill="#B7B29E"/>
<path d="M87.3594 72.6677C87.4756 72.6677 87.5699 72.5736 87.5699 72.4574C87.5699 72.3412 87.4756 72.2471 87.3594 72.2471C87.2432 72.2471 87.1489 72.3412 87.1489 72.4574C87.1489 72.5736 87.2432 72.6677 87.3594 72.6677Z" fill="#B7B29E"/>
<path d="M86.7603 71.1628C86.8766 71.1628 86.9708 71.0687 86.9708 70.9525C86.9708 70.8364 86.8766 70.7422 86.7603 70.7422C86.644 70.7422 86.5498 70.8364 86.5498 70.9525C86.5498 71.0687 86.644 71.1628 86.7603 71.1628Z" fill="#B7B29E"/>
<path d="M87.3599 69.656C87.4761 69.656 87.5703 69.5618 87.5703 69.4457C87.5703 69.3295 87.4761 69.2354 87.3599 69.2354C87.2436 69.2354 87.1494 69.3295 87.1494 69.4457C87.1494 69.5618 87.2436 69.656 87.3599 69.656Z" fill="#B7B29E"/>
<path d="M88.8542 71.9597C89.3987 71.9597 89.8402 71.5186 89.8402 70.9745C89.8402 70.4304 89.3987 69.9893 88.8542 69.9893C88.3096 69.9893 87.8682 70.4304 87.8682 70.9745C87.8682 71.5186 88.3096 71.9597 88.8542 71.9597Z" fill="#B7B29E"/>
<path d="M15.6796 73.0009C15.6796 73.0009 8.03536 72.1374 7.25985 71.0858C6.49542 70.0342 7.44819 69.4586 7.44819 69.4586C7.44819 69.4586 6.68376 60.9571 7.5479 59.8058C8.41203 58.6546 13.0983 55.0237 20.0779 53.4076C24.609 52.356 27.6335 52.356 27.6335 52.356C27.6335 52.356 32.2201 49.8763 38.1471 46.81C44.0742 43.7548 48.0847 40.2347 57.845 39.3602C68.4583 38.4082 79.7364 37.3566 91.1142 38.4967C102.492 39.648 104.974 40.6 104.974 40.6C104.974 40.6 106.979 43.7548 108.796 50.2527C110.613 56.7506 110.712 59.042 110.712 59.042L110.613 61.4331L111.853 62.7725C111.853 62.7725 112.33 66.1155 111.565 67.8313C110.801 69.5471 108.596 71.5618 108.596 71.5618L97.6949 72.9898C97.6949 72.9898 97.4733 68.6616 96.8308 67.0675C95.878 64.6765 92.8646 62.2854 89.3194 62.3851C85.6856 62.4847 81.9078 63.5806 80.667 67.9752C79.6921 71.4068 80.0023 73.178 80.0023 73.178L33.2504 72.5138C33.2504 72.5138 33.3944 69.8349 32.4416 67.2557C31.5221 64.7761 29.1402 62.4293 25.6061 62.1969C20.6872 61.8648 18.0505 64.1119 16.8096 66.4919C15.5799 68.894 15.6796 73.0009 15.6796 73.0009Z" fill="#FC8730"/>
<path d="M29.8815 53.8177C29.8815 53.8177 39.4535 48.8474 44.9264 45.3937C51.3409 41.3532 60.8575 40.7776 66.7735 40.1356C76.7775 39.0507 98.9015 39.9917 100.718 41.3311C102.535 42.6705 105.139 47.7183 104.186 48.4821C103.233 49.2459 102.868 49.6887 101.439 49.9765C100.009 50.2643 79.0708 52.0798 65.7542 52.113C42.0348 52.1794 28.3527 55.2346 29.8815 53.8177Z" fill="#2B2A25"/>
<path d="M47.3309 45.4942C47.1647 45.1621 44.2731 46.579 40.2738 49.0476C37.349 50.8519 34.5239 53.0105 34.5239 53.0105L35.4767 53.8408L39.4096 53.4422C39.4096 53.4422 40.1408 52.6452 41.5921 51.0401C45.1262 47.1104 47.5192 45.8706 47.3309 45.4942Z" fill="#97C1BF"/>
<path d="M46.1783 48.669L43.1206 53.0636L61.2453 52.2666L63.9263 41.1416C63.9263 41.1416 59.2844 41.6176 55.9386 42.2375C52.5929 42.8574 50.3882 44.0861 50.3882 44.0861L46.1783 48.669Z" fill="#97C1BF"/>
<path d="M67.2608 40.9982L66.1641 52.1232L77.2206 51.7911L86.6596 51.2155C86.6596 51.2155 86.1943 47.3411 85.7179 45.0497C85.2415 42.7582 84.5657 40.7989 84.5657 40.7989C84.5657 40.7989 82.6491 40.6107 77.0101 40.5554C71.371 40.5222 67.2608 40.9982 67.2608 40.9982Z" fill="#97C1BF"/>
<path d="M87.6907 40.8873C86.6826 41.0534 87.735 43.1787 87.9788 44.8503C88.2225 46.5218 88.3665 49.0568 88.9869 49.3889C89.6073 49.7209 92.3881 49.6213 95.1023 49.5328C99.5006 49.3889 102.326 48.625 102.47 47.817C102.614 47.0089 101.528 43.7765 99.4784 42.4371C97.4178 41.0976 89.4633 40.5995 87.6907 40.8873Z" fill="#97C1BF"/>
<path d="M26.8697 56.485C26.0055 57.0606 19.1035 59.3299 19.1035 59.3299L100.576 57.0385L103.888 51.1826L26.8697 56.485Z" fill="#FFAC48"/>
<path d="M34.6138 67.2347L76.9231 67.611L62.2993 65.6074L38.4913 65.6517L34.6138 67.2347Z" fill="#FFAC48"/>
<path d="M15.6807 73.002C15.6807 73.002 15.6364 71.1644 15.9799 69.2383H7.43824C7.44932 69.3822 7.46039 69.4707 7.46039 69.4707C7.46039 69.4707 6.50763 70.0464 7.27206 71.098C8.02541 72.1496 15.6807 73.002 15.6807 73.002Z" fill="#686866"/>
<path d="M97.3511 69.2373C97.617 71.0195 97.7167 73.001 97.7167 73.001L108.618 71.573C108.618 71.573 109.804 70.4882 110.734 69.2373H97.3511Z" fill="#686866"/>
<path d="M32.9956 69.2367C33.3501 71.0521 33.2726 72.5243 33.2726 72.5243L80.0245 73.1885C80.0245 73.1885 79.7918 71.8491 80.379 69.2256H32.9956V69.2367Z" fill="#686866"/>
<path d="M14.9371 60.5147C14.7045 59.8062 7.38149 60.1383 7.38149 60.1383C7.38149 60.1383 6.42872 60.3597 6.18499 61.7323C5.37625 66.2709 7.48119 66.9351 7.48119 66.9351L9.18731 66.9683C9.20946 66.9572 15.1698 61.2231 14.9371 60.5147Z" fill="#97C1BF"/>
<path d="M8.01263 60.8027C8.01263 60.8027 7.12634 61.8101 6.94908 62.3525C6.77182 62.8949 6.76074 64.8432 6.76074 64.8432L7.53625 64.8985C7.53625 64.8985 7.51409 63.1606 7.87969 62.585C8.55549 61.5444 10.3945 60.8249 10.3945 60.8249L8.01263 60.8027Z" fill="white"/>
<path d="M110.292 56.0414C110.292 56.0414 106.835 55.8311 106.492 55.8311C106.148 55.8311 105.639 56.2074 105.639 56.6723C105.639 57.1373 105.893 60.1482 105.982 60.5246C106.071 60.9009 106.58 61.2773 107.179 61.2773C107.777 61.2773 110.757 61.3659 110.757 61.3659L110.846 58.997L110.292 56.0414Z" fill="#B52C1A"/>
<path d="M106.47 56.4297L106.769 60.603H107.988L107.688 56.3965L106.47 56.4297Z" fill="#F23325"/>
<path d="M38.8008 69.5242L38.7786 69.4024C38.7676 69.336 37.5046 62.2846 39.2107 57.1483C40.1302 54.403 41.371 52.6872 41.3821 52.665L41.6148 52.8311C41.6037 52.8532 40.385 54.5358 39.4877 57.2368C37.9145 61.9414 38.8894 68.2844 39.0445 69.2253L63.8275 68.9375C63.5727 68.0187 62.4537 63.8122 62.7307 59.7496C63.1628 53.3514 64.1377 50.916 64.1709 50.8164L64.4368 50.9271C64.4257 50.9492 63.4397 53.4289 63.0076 59.7718C62.7085 64.2771 64.1377 68.9928 64.1487 69.0371L64.2041 69.2253H64.0158L38.8008 69.5242Z" fill="#2B2A25"/>
<path d="M78.6279 69.3802L64.0151 69.2363V68.9485L78.3731 69.0924C78.4617 68.5943 78.8273 66.7124 79.9573 65.0077C82.2838 61.4543 87.7234 60.8455 88.3328 60.7902C88.4879 60.6241 89.2191 59.6832 88.9753 57.2147C88.6984 54.3919 87.2692 49.2666 87.2581 49.2113L87.5351 49.1338C87.5462 49.1891 88.9753 54.3365 89.2634 57.1814C89.5514 60.0928 88.5433 60.9894 88.4989 61.0337L88.4657 61.0669H88.4214C88.366 61.0669 82.583 61.5318 80.2121 65.1627C78.9713 67.0667 78.6611 69.2363 78.6611 69.2585L78.6279 69.3802Z" fill="#2B2A25"/>
<path d="M94.2829 56.4835C92.6211 56.4835 91.2695 55.5204 91.2695 54.336C91.2695 53.1515 92.6211 52.1885 94.2829 52.1885C95.9447 52.1885 97.2963 53.1515 97.2963 54.336C97.2963 55.5204 95.9447 56.4835 94.2829 56.4835ZM94.2829 52.4652C92.7762 52.4652 91.5576 53.2954 91.5576 54.3249C91.5576 55.3544 92.7762 56.1846 94.2829 56.1846C95.7896 56.1846 97.0083 55.3544 97.0083 54.3249C97.0083 53.3065 95.7785 52.4652 94.2829 52.4652Z" fill="#2B2A25"/>
<path d="M60.7705 56.4404C60.8369 57.005 60.4381 57.5031 59.8731 57.5695L55.8183 58.0344C55.2533 58.1008 54.7547 57.7023 54.6883 57.1378L54.644 56.7946C54.5775 56.2301 54.9763 55.7319 55.5413 55.6655L59.5961 55.2006C60.1611 55.1342 60.6597 55.5327 60.7262 56.0972L60.7705 56.4404Z" fill="#FC8730"/>
<path d="M61.091 55.2239C61.1242 55.5228 60.9137 55.7995 60.6035 55.8327L54.2666 56.5633C53.9675 56.5965 53.6905 56.3862 53.6573 56.0762C53.624 55.7774 53.8345 55.5006 54.1447 55.4674L60.4817 54.7368C60.7808 54.7036 61.0578 54.914 61.091 55.2239Z" fill="#2B2A25"/>
<path d="M86.1513 54.8584C86.2178 55.4229 85.819 55.921 85.2539 55.9874L81.1991 56.4524C80.6341 56.5188 80.1356 56.1203 80.0691 55.5557L80.0248 55.2126C79.9583 54.648 80.3572 54.1499 80.9222 54.0835L84.977 53.6186C85.542 53.5521 86.0405 53.9506 86.107 54.5152L86.1513 54.8584Z" fill="#FC8730"/>
<path d="M86.4611 53.6399C86.4943 53.9388 86.2839 54.2155 85.9737 54.2487L79.6367 54.9793C79.3376 55.0125 79.0606 54.8022 79.0274 54.4923C78.9941 54.1934 79.2046 53.9166 79.5148 53.8834L85.8518 53.1529C86.162 53.1196 86.4279 53.33 86.4611 53.6399Z" fill="#2B2A25"/>
</svg>
