<svg width="130" height="130" viewBox="0 0 130 130" fill="none" xmlns="http://www.w3.org/2000/svg">
<rect width="130" height="130" rx="10" fill="white"/>
<rect width="117" height="117" transform="translate(7 7)" fill="white"/>
<g clip-path="url(#clip0_5304_111103)">
<path d="M78.0726 33.4681C78.3264 32.0618 78.6476 30.5664 79.0512 29.0386C79.8801 25.8353 80.892 22.9777 81.9497 20.4828C78.0606 25.3131 73.5455 31.8629 69.6573 40.1994C66.7612 46.4033 64.8829 52.1703 63.627 57.08C63.8147 54.1309 64.2438 50.6807 65.1088 46.89C66.0495 42.7747 67.2764 39.2409 68.4892 36.3393C65.1428 41.3068 61.4274 47.742 58.2365 55.6167C55.5763 62.2129 53.9018 68.2897 52.8228 73.4456C52.4774 71.3093 52.2438 68.5651 52.5494 65.4118C53.0593 59.9433 54.9043 55.7258 56.2951 53.1511C52.779 58.965 50.4582 64.1724 48.9389 68.1297C48.2543 69.8955 45.7585 76.5387 45.0518 85.3033C44.6941 89.7071 44.874 92.8205 46.9493 94.4188C48.0842 95.2982 49.5757 95.615 51.0157 95.662C54.4322 95.7936 59.4726 94.4935 66.5944 88.1521C70.2114 84.9256 75.6781 79.2134 80.2171 70.1641C78.8083 72.0241 76.8849 74.1953 74.3565 76.3373C72.6381 77.7944 70.9697 78.9442 69.4518 79.8608C73.1917 76.1451 77.2966 71.6316 81.3692 66.235C85.0096 61.4212 88.3188 56.3523 91.2454 51.0624C88.4285 53.2621 85.4279 55.2275 82.2783 56.8988C85.2083 53.564 88.5425 49.1978 91.6108 43.7176C95.4573 36.8618 97.6514 30.4927 98.9608 25.5178C98.2952 26.9745 97.3607 28.6761 96.105 30.4643C94.7144 32.4309 93.2749 33.985 92.0384 35.16C93.5485 33.2625 95.9265 29.6409 96.2145 24.8607C96.328 23.1174 96.5723 19.0483 94.1282 17.2049C93.9148 17.0497 93.5598 16.7807 93.0429 16.6264C89.8151 15.6432 85.802 20.2738 84.1357 22.1932C82.3831 24.2068 79.7444 27.838 78.0726 33.4681Z" fill="#BDFF78"/>
<path d="M42.9785 73.123C41.9335 75.5132 40.6435 79.2667 40.3693 84.0229C40.0247 89.923 41.4091 94.5963 42.4236 97.231C41.0556 96.6173 39.4202 95.7211 37.7288 94.4244C36.6468 93.5916 35.738 92.7627 34.9934 91.9807C35.0341 92.6285 35.2613 95.5771 37.6946 97.7984C39.3537 99.3165 41.1927 99.722 41.9961 99.8496C42.4687 100.523 44.1747 102.788 47.3704 103.689C50.0852 104.456 52.3542 103.813 53.2081 103.521C52.3518 103.347 50.7376 102.912 49.118 101.656C47.671 100.517 46.8712 99.2226 46.4781 98.4673C48.1476 99.111 50.5098 99.7705 53.3659 99.8507C59.3627 100.015 63.8345 97.4905 65.7246 96.2606C62.877 97.0497 58.3178 97.8752 52.9031 97.0062C50.481 96.6163 48.3845 95.9662 46.6929 95.2777C45.9025 94.4371 45.1505 93.4747 44.4917 92.406C39.8834 84.975 42.0578 76.2093 42.9785 73.123Z" fill="#BDFF78"/>
<path d="M88.5149 18.3653C88.2139 19.9363 87.9865 21.5179 87.783 23.1133C87.3849 26.2611 87.0844 29.4333 86.5937 32.5758C86.4529 33.4549 86.3052 34.3461 86.1215 35.2166C86.042 35.6029 85.9625 35.9892 85.8641 36.3806L85.8591 36.3617C85.8012 36.2963 85.6778 36.2891 85.6242 36.3542C85.4636 36.5496 85.3388 36.7657 85.2619 37.0094C85.2234 37.1313 85.2038 37.2481 85.1962 37.3717C85.1886 37.4954 85.181 37.6191 85.2678 37.7172C85.2521 37.7722 85.3049 37.8187 85.3566 37.7845C85.5991 37.6683 85.8157 37.5693 86.0532 37.4343C86.2975 37.2872 86.5369 37.1212 86.7762 36.9553C87.2222 36.6525 87.6561 36.3427 88.1021 36.0399C88.9889 35.4154 89.8588 34.765 90.6997 34.0819C92.311 32.755 93.8543 31.3249 95.1861 29.7086C95.437 29.0531 95.6539 28.3459 95.8299 27.5991C95.5634 28.0055 95.273 28.3981 94.9705 28.7838C94.3241 29.6272 93.6198 30.4051 92.8796 31.1624C91.3803 32.682 89.7174 34.0431 88.0495 35.3852C87.5997 35.7499 87.138 36.1076 86.6763 36.4654C86.4489 36.6383 86.2146 36.8231 85.9992 37.0029C85.8354 37.1485 85.6786 37.282 85.5457 37.4294C85.5457 37.4294 85.5457 37.4294 85.5526 37.4174C85.5614 37.3745 85.5633 37.3436 85.5722 37.3006C85.5898 37.2148 85.6144 37.1169 85.6441 37.038C85.6825 36.9161 85.7657 36.7721 85.847 36.6589C85.84 36.6709 85.8381 36.7018 85.8312 36.7138C85.8451 36.6898 85.84 36.6709 85.8539 36.6469C85.8678 36.6229 85.8816 36.5989 85.9005 36.5938C85.9471 36.5406 85.9579 36.4668 85.9308 36.4032C86.214 35.5261 86.4901 34.661 86.7852 33.7909C87.1467 33.5514 87.4044 33.1879 87.6842 32.8692C87.9897 32.5333 88.3072 32.2043 88.6366 31.8823C89.3145 31.2331 90.0143 30.6286 90.738 30.038C92.1975 28.8636 93.6959 27.7597 95.0686 26.4872C95.4497 26.1309 95.8188 25.7677 96.164 25.3908C96.171 25.3788 96.1899 25.3737 96.2037 25.3497C96.2202 25.1831 96.2297 25.0285 96.2461 24.8619C96.2594 24.6455 96.2747 24.3981 96.2849 24.1319C96.0915 24.3564 95.922 24.5947 95.7286 24.8192C95.423 25.155 95.1055 25.484 94.7641 25.7991C94.0863 26.4483 93.3676 27.0579 92.6438 27.6485C91.2033 28.8178 89.7388 29.9733 88.4191 31.2924C88.0619 31.6625 87.7097 32.0515 87.3884 32.4423C87.3141 32.5434 87.2278 32.6377 87.1465 32.7508C87.2927 32.387 87.432 32.0352 87.5783 31.6715C87.5928 31.5358 87.6193 31.407 87.6339 31.2713C87.6528 31.2662 87.6597 31.2542 87.6786 31.2491C87.6855 31.2371 87.6975 31.244 87.7044 31.232C87.7372 31.2029 87.7977 31.1258 87.7977 31.1258C88.2607 30.5447 88.9122 29.7202 89.6437 28.7018C90.2731 27.8326 90.7022 27.1999 91.5137 25.9876C92.7266 24.1906 93.8967 22.3849 95.0498 20.5534C95.2767 20.1881 95.5104 19.8108 95.7373 19.4455C95.626 19.1411 95.4838 18.8349 95.3158 18.5459C95.0801 18.9541 94.8325 19.3554 94.5918 19.7447C94.0272 20.6673 93.4626 21.59 92.8861 22.5057C91.733 24.3372 90.5748 26.1498 89.3858 27.9606C89.0638 28.4631 88.7368 28.9466 88.4148 29.4491C88.3871 29.4971 88.3405 29.5502 88.3128 29.5983C88.7843 28.4778 89.2369 27.3624 89.6605 26.2143C90.4605 24.0829 91.2127 21.9238 91.934 19.763C92.2902 18.704 92.6156 17.6432 92.9599 16.5774C92.686 16.4993 92.4153 16.471 92.1307 16.4668C90.9583 20.6243 89.5239 24.7107 88.1992 28.8283C88.0403 29.2968 87.8933 29.7723 87.7464 30.2478C87.8165 29.712 87.8747 29.1693 87.9329 28.6266C88.2762 25.4631 88.539 22.3011 88.9868 19.15C89.0658 18.5712 89.1637 17.9874 89.2615 17.4036C89.043 17.5335 88.8175 17.6755 88.597 17.8364C88.5856 18.0219 88.5503 18.1936 88.5149 18.3653Z" fill="#A5E25D"/>
<path d="M90.884 51.7169C90.2005 52.4588 89.5169 53.2007 88.8284 53.9238C87.3203 55.4863 85.8002 57.0419 84.2172 58.5132C81.2339 61.305 78.0051 63.8591 74.4894 65.9434C72.9664 66.841 71.3925 67.6612 69.7765 68.361C69.8087 68.1395 69.5544 67.9446 69.3428 68.0626C69.1948 68.1532 69.0896 68.2526 68.9775 68.3639C68.962 67.8107 68.8898 67.2728 68.8365 66.7297C68.777 66.0871 68.7294 65.4513 68.6819 64.8155C68.5956 63.5011 68.5332 62.2004 68.5086 60.8896C68.4594 58.2679 68.5097 55.6396 68.6954 53.0254C69.0478 47.8021 69.9109 42.6336 71.0976 37.5398C71.133 37.3681 71.1872 37.1913 71.2225 37.0196C70.7871 37.8568 70.3686 38.7197 69.9551 39.6016C69.5823 41.1312 69.2523 42.6695 68.984 44.2115C68.0692 49.4142 67.6324 54.7008 67.6672 59.9715C67.6703 61.4301 67.7162 62.8973 67.7999 64.3544C67.8418 65.0829 67.8956 65.8183 67.9564 66.5417C68.0152 67.2961 68.0413 68.0795 68.2374 68.8171C68.2525 68.8738 68.2745 68.9185 68.3035 68.9513C68.1605 69.0608 68.0754 69.2358 68.1188 69.4369C68.1238 69.4558 68.1238 69.4558 68.1288 69.4747C67.9266 69.7422 67.7243 70.0096 67.5341 70.2839C66.9532 71.0691 66.3722 71.8543 65.7794 72.6326C64.9962 73.6852 64.2011 74.7309 63.418 75.7835C63.2515 73.5583 63.2462 71.3301 63.3782 69.0852C63.5356 66.3266 63.7805 63.5545 64.0802 60.7981C64.4457 57.3753 64.9038 53.9579 65.552 50.5702C64.7922 52.8529 64.1704 55.0072 63.6557 57.0312C63.6709 56.7838 63.693 56.5245 63.7083 56.2772C63.1272 60.1838 62.7243 64.1133 62.4329 68.0431C62.2125 71.0214 62.0946 74.0429 62.4881 77.0075C62.4137 77.1086 62.3324 77.2218 62.2581 77.3229C61.0913 78.8744 59.8885 80.4051 58.621 81.8824C58.5813 81.9235 58.5416 81.9646 58.507 82.0247C58.4881 82.0298 58.4761 82.0229 58.4692 82.0349C58.3697 79.2241 58.3559 76.4307 58.4912 73.6274C58.6495 70.4531 58.95 67.2809 59.4287 64.1315C59.9074 60.9822 60.5284 57.835 61.3137 54.7346C62.0852 51.6582 63.016 48.6098 64.0732 45.6184C64.8058 43.5761 65.5863 41.5615 66.4164 39.5435C65.6943 40.7114 64.9495 41.9462 64.2128 43.2498C64.0824 43.5586 63.9588 43.8555 63.8403 44.1712C62.6646 47.1743 61.6274 50.2414 60.7735 53.3501C59.9145 56.44 59.2198 59.5767 58.6844 62.7414C58.1471 65.9369 57.7761 69.1484 57.5712 72.3758C57.3683 75.5724 57.3127 78.7899 57.4441 81.9873C57.4572 82.3791 57.4822 82.7777 57.5072 83.1763C56.5956 84.2028 55.672 85.2224 54.7554 86.2299C54.7227 86.2591 54.6949 86.3071 54.6622 86.3362C53.8778 83.0819 53.363 79.7752 53.1725 76.4315C53.0969 75.0432 53.0761 73.6706 53.1001 72.2757C53.0086 72.6551 52.936 73.0294 52.8634 73.4037C52.6882 72.326 52.5484 71.0767 52.4779 69.7073C52.4488 69.9787 52.4266 70.238 52.4095 70.5163C52.1378 74.0252 52.2363 77.5559 52.6711 81.0565C52.9264 83.0449 53.2763 85.0078 53.7634 86.9538C53.7816 87.0604 53.8326 87.1378 53.8974 87.1913C53.6246 87.498 53.3518 87.8048 53.0791 88.1115C52.9487 88.1163 52.8184 88.1211 52.695 88.1139C52.2611 88.1195 52.1671 88.6415 52.4195 88.8673C52.226 89.0918 52.0326 89.3163 51.8273 89.5339C50.8873 85.0852 50.5103 80.5454 50.6597 76.0053C50.7815 71.2092 51.572 66.4149 52.9172 61.7648C53.3006 60.4654 53.7079 59.1798 54.1512 57.915C54.4897 56.9418 54.8283 55.9687 55.2027 55.0163C54.8423 55.6406 54.4938 56.2719 54.1592 56.8791C53.5806 58.1298 53.0568 59.3962 52.6047 60.704C51.8052 63.0278 51.1632 65.4105 50.7112 67.8229C49.7904 72.622 49.4501 77.548 49.8061 82.428C49.9969 85.1635 50.3987 87.8927 50.9894 90.5709C50.9358 90.636 50.8942 90.708 50.8407 90.7732C50.6852 90.6834 50.5366 90.5816 50.395 90.4679C49.9223 90.0989 49.4176 90.752 49.8903 91.121C51.1329 92.0625 52.7611 92.1701 54.2578 92.2018C55.7048 92.2368 57.1397 92.2649 58.5773 92.1504C59.984 92.0341 61.3933 91.7752 62.7253 91.2636C63.3539 90.8101 64.0102 90.3086 64.6874 89.771C64.2005 90.0342 63.7086 90.2785 63.1998 90.497C60.6227 91.6184 57.8295 91.6226 55.0748 91.5049C53.8885 91.4603 52.5253 91.4737 51.3827 91.0221C51.3896 91.0101 51.4085 91.005 51.4085 91.005C51.6862 91.0212 52.003 90.8039 51.9742 90.4671C52.3056 90.1142 52.6419 89.7801 52.9613 89.4203C53.0873 89.2849 53.2133 89.1495 53.3463 89.0022C56.9939 88.899 60.6337 88.119 64.037 86.7542C67.4076 85.4186 70.5744 83.469 73.2811 81.0458C73.8116 80.3755 74.3509 79.6624 74.8922 78.9183C74.5954 79.2113 74.2868 79.4973 73.9851 79.7713C72.5885 81.0301 71.0743 82.1889 69.489 83.1945C66.2925 85.223 62.7015 86.7196 58.9881 87.4891C57.4068 87.8248 55.8093 88.023 54.2005 88.1026C54.4525 87.8319 54.6975 87.5732 54.9495 87.3025C56.0954 86.0911 57.2243 84.8539 58.3174 83.5961C58.3759 83.5498 58.4226 83.4967 58.4572 83.4367C58.5901 83.2893 58.7042 83.147 58.8371 82.9997C58.9373 82.8814 59.0305 82.7752 59.1307 82.6569C59.6597 82.5141 60.1905 82.3404 60.7076 82.1906C61.484 81.9506 62.2674 81.6985 63.0288 81.4018C64.5497 80.8391 66.0335 80.175 67.4783 79.4404C69.5302 78.3999 71.4871 77.1925 73.3181 75.8165C73.8618 75.2339 74.3935 74.6444 74.9391 74.0309C73.9571 74.7927 72.9411 75.5028 71.9082 76.187C69.2225 77.9661 66.3449 79.4423 63.322 80.5625C62.492 80.8677 61.638 81.1591 60.786 81.4195C60.4957 81.508 60.2123 81.5845 59.9289 81.661C60.7926 80.6069 61.6514 79.5339 62.4742 78.4402C62.6229 78.2379 62.7905 78.0305 62.9392 77.8282C63.2288 77.8513 63.5437 77.665 63.5029 77.3213C63.4948 77.2525 63.4936 77.1718 63.4854 77.103C63.5667 76.9899 63.648 76.8767 63.7412 76.7705C64.6714 76.3471 65.5745 75.86 66.4878 75.4107C67.4457 74.9393 68.3917 74.4609 69.3496 73.9895C71.1829 73.079 73.0213 72.1874 74.7767 71.1358C77.3117 69.5899 79.665 67.7789 81.7577 65.6735C82.52 64.6569 83.2704 63.6334 84.0038 62.5841C83.8639 62.7434 83.7241 62.9028 83.5842 63.0622C82.3344 64.4536 80.9378 65.7124 79.5023 66.9006C78.0479 68.0939 76.5116 69.208 74.8974 70.1809C73.1867 71.2103 71.4 72.0677 69.6013 72.9182C68.5231 73.4322 67.4568 73.9532 66.3906 74.4742C65.9056 74.7065 65.4396 74.9336 64.9616 75.1539C65.2936 74.6893 65.6445 74.2196 65.9646 73.748C66.589 72.8599 67.2304 71.9976 67.8787 71.1232C68.2158 70.6775 68.5409 70.2249 68.878 69.7792C68.9057 69.7312 68.9385 69.7021 68.9662 69.654C72.6277 68.1182 76.0401 66.1023 79.2097 63.7061C82.6394 61.108 85.8192 58.1414 88.668 54.9197C89.0013 54.5359 89.3534 54.1469 89.6867 53.763C90.1057 53.0925 90.5008 52.4081 90.884 51.7169Z" fill="#A5E25D"/>
<path d="M86.7574 41.4905C85.3319 42.7165 83.8265 43.8324 82.2582 44.8639C82.3205 44.7558 82.371 44.6409 82.4334 44.5328C82.4455 44.2357 82.4525 43.9196 82.4766 43.6293C82.5387 42.7207 82.6008 41.8121 82.6629 40.9035C82.7922 39.1052 82.9592 37.2967 83.1194 35.5001C83.4415 31.8762 83.8442 28.2508 84.2898 24.6341C84.4212 23.6054 84.5526 22.5767 84.6841 21.548C84.5045 21.7485 84.3508 21.9319 84.204 22.1033C83.8107 24.4695 83.4482 26.8375 83.1285 29.2142C82.6521 32.8292 82.2613 36.4615 81.97 40.0872C81.8833 41.0937 81.8086 42.1071 81.7338 43.1204C81.7015 43.646 81.6571 44.1647 81.6248 44.6903C81.6064 44.8878 81.6001 45.0923 81.5817 45.2898C81.399 45.4404 81.4266 45.6965 81.5663 45.8412C81.5657 45.9528 81.565 46.0645 81.5832 46.1711C81.6317 46.087 81.6614 46.0081 81.7099 45.924C81.7886 45.9535 81.8881 45.9469 81.9914 45.8784C84.9592 43.9421 87.7181 41.677 90.1907 39.1346C92.6633 36.5921 94.8425 33.7843 96.6529 30.7314C97.261 29.7058 97.8521 28.6544 98.3954 27.5753C98.5915 26.9042 98.7807 26.245 98.9371 25.615C98.8747 25.723 98.8313 25.826 98.8224 25.8689C98.4178 26.7078 97.9823 27.545 97.5229 28.3683C96.5972 30.0269 95.5588 31.6045 94.4367 33.1337C92.2214 36.2249 89.6392 39.0402 86.7574 41.4905Z" fill="#A5E25D"/>
<path d="M82.5031 50.8485C80.7854 52.1939 78.9657 53.3845 77.0341 54.3824C77.004 54.2689 77.0116 54.1452 77.0878 54.0131C77.1502 53.9051 77.2535 53.8367 77.3549 53.7992C77.7548 49.5158 78.1666 45.2393 78.7258 40.9838C79.3854 36.0019 80.2282 31.0618 81.4274 26.1673C81.4678 26.0145 81.5012 25.8738 81.5416 25.721C81.0948 26.4395 80.6373 27.2319 80.2 28.1C79.8448 29.5438 79.5136 31.0014 79.2132 32.4608C78.2023 37.4159 77.5407 42.4287 76.9837 47.4538C76.6733 50.2841 76.4176 53.13 76.162 55.9759C76.1398 56.2352 76.4042 56.4679 76.6579 56.4703C76.6888 56.4721 76.7385 56.4688 76.7763 56.4586C76.7203 56.3622 76.697 56.2368 76.7236 56.108C76.7766 55.8505 76.8296 55.5929 76.8706 55.3285C76.9204 55.3252 76.977 55.3099 77.0406 55.2826C80.7049 53.3001 83.9923 50.6998 86.9234 47.7497C89.3714 45.3051 91.55 42.6089 93.6398 39.8455C93.9228 39.2725 94.1869 38.7046 94.444 38.1487C93.419 39.5099 92.363 40.8692 91.2731 42.177C88.646 45.3185 85.7489 48.3202 82.5031 50.8485Z" fill="#A5E25D"/>
<path d="M76.7896 61.2692C78.23 60.404 79.6364 59.4871 80.9969 58.5117C82.3386 57.5414 83.6531 56.5075 84.9029 55.4201C84.0475 55.9348 83.1752 56.4237 82.291 56.9057C82.4844 56.6812 82.6778 56.4567 82.8712 56.2321C81.0256 57.7439 79.0693 59.1437 77.0349 60.4023C75.7664 61.1907 74.4639 61.9275 73.1614 62.6643C73.0072 57.0204 73.1754 51.3706 73.6829 45.7407C74.1835 40.1227 74.9876 34.5039 76.6819 29.1109C76.9966 28.124 77.3351 27.1509 77.7046 26.1795C77.2566 26.8174 76.8136 27.4741 76.3688 28.1617C75.4496 30.7206 74.7545 33.3608 74.2187 36.029C73.0714 41.6898 72.5097 47.4965 72.2413 53.2646C72.0894 56.5385 72.0608 59.8197 72.1626 63.0961C72.1657 63.1459 72.1638 63.1769 72.1739 63.2147L72.155 63.2198C71.9881 63.3155 72.0994 63.6199 72.2902 63.538C72.328 63.5278 72.3538 63.5107 72.3916 63.5005C72.5112 63.5695 72.6705 63.5975 72.8097 63.5497C72.8651 63.4537 72.9206 63.3577 72.971 63.2427C73.5057 63.0071 74.0404 62.7715 74.565 62.4982C75.3252 62.1206 76.0564 61.7104 76.7896 61.2692Z" fill="#A5E25D"/>
<path d="M58.021 81.5674C48.8728 92.3578 39.4896 100.627 31.2282 106.871C30.7122 107.406 30.5104 108.17 30.7103 108.845C30.9505 109.672 31.7184 110.276 32.627 110.304C37.8265 106.519 44.4297 101.158 51.3152 93.9279C53.3411 91.8 61.7442 82.8525 70.6548 68.2751C76.7356 58.3231 84.5394 43.3148 90.2041 23.4216C85.4169 38.3146 76.2083 60.1477 58.021 81.5674Z" fill="#85B73D"/>
</g>
<defs>
<clipPath id="clip0_5304_111103">
<rect width="31.2675" height="111.67" fill="white" transform="translate(80 9) rotate(30)"/>
</clipPath>
</defs>
</svg>
