<svg width="50" height="50" viewBox="0 0 50 50" fill="none" xmlns="http://www.w3.org/2000/svg">
<path d="M16.4021 20.7777L13.051 20.6686C12.2397 20.6422 12.4126 20.754 11.6649 20.942C7.99821 21.8489 5.20802 25.12 5.07917 29.0793C5.0297 30.5994 6.22522 31.8415 7.70677 31.8897L41.9236 33.0032C43.3346 33.0491 44.5367 31.9204 44.5827 30.5064C44.6678 27.8905 44.1828 25.4329 43.2323 23.1725C42.8389 22.2396 41.9413 21.6088 40.9183 21.5755L16.4021 20.7777Z" fill="#F43A1C"/>
<path d="M42.7961 22.4861C42.3195 21.9398 41.6244 21.5987 40.8836 21.5746L16.4027 20.7779L13.0515 20.6688C12.2402 20.6424 12.4131 20.7542 11.6655 20.9422C11.167 21.0675 10.7027 21.2294 10.2725 21.4277L42.7961 22.4861Z" fill="#D32B1A"/>
<path d="M19.6338 31.0752C19.6384 30.9338 19.6794 30.7582 19.6851 30.5815C19.7921 27.2939 17.2328 24.5565 13.9522 24.4497C10.6716 24.343 7.9397 26.9082 7.83271 30.1958C7.82696 30.3725 7.82236 30.5139 7.85188 30.6918L19.6338 31.0752Z" fill="#D32B1A"/>
<path d="M42.7392 31.8272C42.7438 31.6858 42.7849 31.5102 42.7906 31.3334C42.8976 28.0458 40.3383 25.3084 37.0577 25.2017C33.7771 25.0949 31.0452 27.6601 30.9382 30.9477C30.9324 31.1245 30.9278 31.2659 30.9573 31.4438L42.7392 31.8272Z" fill="#D32B1A"/>
<path d="M5.18656 27.9507C5.18311 28.0567 5.14438 28.1617 5.14208 28.2324C5.17966 28.1628 5.21838 28.0579 5.18656 27.9507Z" fill="#F43A1C"/>
<path d="M7.70619 31.8902L41.923 33.0038C43.0519 33.0405 44.0637 32.3303 44.4146 31.3154L5.22391 30.04C5.57742 31.1132 6.54212 31.8523 7.70619 31.8902Z" fill="#D32B1A"/>
<path d="M44.5803 29.516C44.5826 29.4453 44.5861 29.3393 44.5884 29.2686C44.5508 29.3381 44.5485 29.4088 44.5803 29.516Z" fill="#F43A1C"/>
<path d="M34.4277 21.3633L34.3276 24.4388C31.1529 24.3355 29.1571 27.0662 29.0697 29.7528L29.0628 29.9649L24.1949 29.8065C21.1965 29.7089 19.6474 27.3937 19.7165 25.2726L19.8591 20.8892L20.2824 20.9029L20.1398 25.2864C20.0765 27.2307 21.4572 29.2928 24.1734 29.3812L28.6533 29.5269C28.8477 26.8084 30.8059 24.1472 33.8829 23.9997L33.9692 21.3484L34.4277 21.3633Z" fill="#D32B1A"/>
<path d="M19.8589 20.8895L20.2822 20.9033L20.2546 21.7517L19.8313 21.738L19.8589 20.8895Z" fill="#F43A1C"/>
<path d="M34.0044 21.3495L34.4277 21.3633L34.4001 22.2117L33.9768 22.1979L34.0044 21.3495Z" fill="#F43A1C"/>
<path d="M33.0581 22.2031L30.2361 22.1113C29.8481 22.0987 29.5202 22.4065 29.5076 22.7953L29.5018 22.9721L32.3238 23.0639C32.7119 23.0766 33.0397 22.7687 33.0524 22.3799L33.0581 22.2031Z" fill="#D32B1A"/>
<path d="M6.74393 27.8245L4.90963 27.7648C4.69798 27.7579 4.55227 27.8947 4.54537 28.1068L4.52236 28.8138C4.51546 29.0259 4.65196 29.1719 4.86361 29.1788L6.69791 29.2385C6.90956 29.2454 7.05526 29.1086 7.06217 28.8965L7.08518 28.1894C7.09093 28.0127 6.95558 27.8313 6.74393 27.8245Z" fill="#D32B1A"/>
<path d="M45.1238 29.0735L43.2895 29.0138C43.0779 29.0069 42.9322 29.1437 42.9253 29.3558L42.9022 30.0628C42.8953 30.2749 43.0318 30.4209 43.2435 30.4278L45.0778 30.4875C45.2894 30.4944 45.4351 30.3576 45.442 30.1455L45.4651 29.4385C45.4708 29.2617 45.3355 29.0804 45.1238 29.0735Z" fill="#D32B1A"/>
<path d="M8.53534 23.8122L9.8758 23.8558C11.3221 23.9029 12.5605 22.74 12.6077 21.2906L12.6284 20.6543L9.20673 20.5429C8.32486 20.5142 7.56107 21.1971 7.53116 22.1163L7.51045 22.7526C7.49205 23.3182 7.93567 23.7927 8.53534 23.8122Z" fill="#FFCD85"/>
<path d="M10.5599 22.356L8.86667 22.3009C8.61975 22.2929 8.45028 22.075 8.45718 21.8629C8.46523 21.6155 8.68263 21.4456 8.89428 21.4525L10.5875 21.5076C10.8344 21.5156 11.0039 21.7335 10.997 21.9456C11.0254 22.1588 10.8068 22.364 10.5599 22.356Z" fill="#FFEABE"/>
<path d="M41.3769 21.5899L40.8125 21.5715L40.7711 22.8441C40.7355 23.94 41.5874 24.8878 42.7162 24.9245L43.8803 24.9624L43.9022 24.2908C43.9493 22.8414 42.8232 21.6369 41.3769 21.5899Z" fill="#FD2A43"/>
<path d="M43.718 23.4352L42.0248 23.3801C41.7779 23.3721 41.6084 23.1542 41.6153 22.9421C41.6234 22.6947 41.8408 22.5248 42.0524 22.5317L43.7456 22.5868C43.9926 22.5948 44.162 22.8127 44.1551 23.0248C44.1482 23.2369 43.965 23.4433 43.718 23.4352Z" fill="#FD9494"/>
<path d="M25.9646 12.3483L25.8588 12.3449C24.3067 12.2944 22.801 12.9885 21.8083 14.1948L16.4031 20.778L40.8135 21.5724C37.9501 16.2418 32.42 12.5584 25.9646 12.3483Z" fill="#F43A1C"/>
<path d="M17.1021 19.9159L16.4032 20.7778L40.8135 21.5722C40.6464 21.2837 40.4803 20.9598 40.2779 20.6701L17.1021 19.9159Z" fill="#D32B1A"/>
<path d="M21.8769 14.2309L21.7711 14.2275L16.4023 20.7765L34.4279 21.3631C31.7382 17.2059 27.1682 14.4031 21.8769 14.2309Z" fill="#FFEABE"/>
<path d="M34.4281 21.3639L33.1229 21.3214L20.7766 20.9196L20.3533 20.9058L16.4731 20.7796L17.172 19.9176L20.3468 20.0209C20.5193 17.974 21.1482 16.0128 22.1205 14.3458C21.9794 14.3412 21.8395 14.3013 21.6984 14.2967L21.7348 14.2625L21.8406 14.2659C21.9465 14.2693 22.0523 14.2728 22.1228 14.2751C22.2639 14.2797 22.4392 14.3208 22.5803 14.3254C27.5836 14.6651 31.8726 17.4234 34.4281 21.3639ZM32.4814 20.4158C30.1464 17.2965 26.6526 15.0595 22.578 14.3961C21.6056 16.063 20.9779 17.989 20.8054 20.0359L32.4814 20.4158Z" fill="#FFCD85"/>
<path d="M21.8774 14.2328L21.7715 14.2294C20.6136 16.1734 19.9391 18.4517 19.8597 20.8909L20.283 20.9047C20.3624 18.4655 21.0369 16.1872 22.1948 14.2432C22.089 14.2397 22.0185 14.2374 21.8774 14.2328Z" fill="#F43A1C"/>
<path d="M13.5824 35.7967C10.6212 35.7003 8.29888 33.2165 8.39545 30.2489C8.49203 27.2813 10.9709 24.9537 13.9321 25.0501C16.8934 25.1465 19.2157 27.6303 19.1191 30.5979C19.0225 33.5655 16.5437 35.8931 13.5824 35.7967Z" fill="#692F31"/>
<path d="M13.6116 34.9131C10.7896 34.8212 8.56686 32.5902 8.44494 29.826C8.44034 29.9674 8.40047 30.1077 8.39472 30.2844C8.29808 33.2539 10.6186 35.7358 13.5817 35.8322C16.5448 35.9286 19.0217 33.6028 19.1183 30.6334C19.1229 30.492 19.1275 30.3506 19.098 30.1727C18.7978 32.8878 16.3983 35.0038 13.6116 34.9131Z" fill="#401113"/>
<path d="M13.6749 32.9688C12.2639 32.9229 11.1719 31.7549 11.2179 30.3409C11.2639 28.9269 12.4296 27.8324 13.8406 27.8783C15.2516 27.9242 16.3436 29.0922 16.2975 30.5062C16.2515 31.9202 15.0506 33.0135 13.6749 32.9688Z" fill="#401113"/>
<path d="M13.7022 32.1188C12.7851 32.089 12.0343 31.286 12.0642 30.3669C12.0941 29.4478 12.8955 28.6953 13.8127 28.7252C14.7298 28.755 15.4806 29.558 15.4506 30.4771C15.4207 31.3962 14.6194 32.1487 13.7022 32.1188Z" fill="#FFF318"/>
<path d="M13.7314 31.2359C12.9553 31.2106 12.3024 30.6586 12.149 29.9458C12.1091 30.0861 12.0692 30.2263 12.0635 30.4031C12.0336 31.3222 12.7843 32.1251 13.7015 32.155C14.6186 32.1848 15.42 31.4324 15.4499 30.5133C15.4545 30.3719 15.425 30.194 15.3943 30.0514C15.1596 30.7515 14.5074 31.2611 13.7314 31.2359Z" fill="#FFAF2B"/>
<path d="M36.6884 36.5487C33.7271 36.4523 31.4048 33.9685 31.5014 31.0009C31.598 28.0333 34.0768 25.7057 37.0381 25.8021C39.9993 25.8984 42.3216 28.3823 42.225 31.3499C42.1285 34.3174 39.6496 36.645 36.6884 36.5487Z" fill="#692F31"/>
<path d="M36.7169 35.6652C33.8949 35.5734 31.6722 33.3424 31.5502 30.5781C31.5456 30.7195 31.5058 30.8598 31.5 31.0366C31.4034 34.006 33.7239 36.4879 36.687 36.5843C39.6512 36.6454 42.1282 34.3196 42.2248 31.3502C42.2294 31.2088 42.234 31.0674 42.2045 30.8895C41.8678 33.6388 39.5036 35.7559 36.7169 35.6652Z" fill="#401113"/>
<path d="M36.7799 33.7207C35.3689 33.6748 34.2769 32.5069 34.3229 31.0928C34.3689 29.6788 35.5345 28.5843 36.9455 28.6302C38.3565 28.6762 39.4485 29.8441 39.4025 31.2581C39.3565 32.6722 38.1556 33.7655 36.7799 33.7207Z" fill="#401113"/>
<path d="M36.8072 32.8708C35.89 32.8409 35.1393 32.038 35.1692 31.1189C35.1991 30.1997 36.0005 29.4473 36.9176 29.4771C37.8348 29.507 38.5855 30.3099 38.5556 31.2291C38.5246 32.1835 37.7243 32.9006 36.8072 32.8708Z" fill="#FFF318"/>
<path d="M36.8364 31.9878C36.0603 31.9626 35.4073 31.4105 35.254 30.6978C35.2141 30.838 35.1742 30.9783 35.1685 31.155C35.1385 32.0741 35.8893 32.8771 36.8064 32.9069C37.7236 32.9368 38.525 32.1843 38.5549 31.2652C38.5595 31.1238 38.5299 30.9459 38.4993 30.8034C38.2646 31.5035 37.6124 32.0131 36.8364 31.9878Z" fill="#FFAF2B"/>
</svg>
