<svg width="60" height="60" viewBox="0 0 60 60" fill="none" xmlns="http://www.w3.org/2000/svg">
<g clip-path="url(#clip0_5192_92412)">
<path d="M55.5 29.9958C55.5 44.3567 43.8567 56 29.4958 56C15.1433 56 3.5 44.3652 3.5 29.9958C3.5 15.6433 15.1433 4 29.4958 4C43.8567 4 55.5 15.6433 55.5 29.9958Z" fill="#EBE9DD"/>
<path d="M46.4977 13.5801C47.2705 15.924 47.7036 18.4208 47.7036 21.0196C47.7036 34.0642 37.1304 44.6374 24.0858 44.6374C17.3767 44.6374 11.33 41.8349 7.03271 37.3423C10.1495 46.7351 19.0072 53.5121 29.4446 53.5121C42.4892 53.5121 53.0624 42.9389 53.0624 29.8943C53.054 23.5673 50.5571 17.8179 46.4977 13.5801Z" fill="#D5D3C5"/>
<path d="M13.8355 22.174C9.02866 22.9469 5.7845 25.0445 3.64437 27.2526C3.55096 28.1528 3.5 29.07 3.5 29.9957C3.5 36.8662 6.17516 43.1167 10.5318 47.7707C7.68684 34.2675 14.7357 25.053 15.5934 23.9235C15.5849 23.9235 14.8885 21.7069 13.8355 22.174Z" fill="#6EAC64"/>
<path d="M9.9032 39.8889C8.8756 39.1161 7.91594 38.2753 7.03271 37.3496C7.72061 39.4303 8.70575 41.3666 9.9117 43.1415C9.84376 42.012 9.84376 40.9335 9.9032 39.8889Z" fill="#598555"/>
<path d="M54.2345 38.0217C49.5297 31.8306 38.5233 20.4591 20.7059 22.1066C18.846 22.7521 18.26 24.0344 18.26 24.0344C17.8184 26.5822 20.018 42.7096 35.0583 55.3975C44.1199 53.4273 51.4065 46.7351 54.2345 38.0217Z" fill="#5E81BA"/>
<path d="M52.3413 35.6859C50.7023 33.7836 48.6046 31.6689 46.0569 29.6816C42.7532 38.0468 34.8212 44.0766 25.4199 44.6031C27.3392 47.4991 29.7341 50.4545 32.715 53.291C42.2777 51.9577 50.0229 44.9003 52.3413 35.6859Z" fill="#5571A3"/>
<path d="M29.4955 4C25.9711 4 22.608 4.70488 19.5422 5.97877C18.1154 8.20382 17.0284 11.8471 17.3256 18.1486C18.1409 19.1507 19.6781 18.1486 19.6781 18.1486C19.6781 18.1486 28.1367 7.63482 36.8246 5.05308C34.5061 4.37367 32.0432 4 29.4955 4Z" fill="#C75A4B"/>
<path d="M20.6891 23.3793C19.084 25.46 16.4088 26.08 14.7273 24.7721C13.0373 23.4643 12.9778 20.7297 14.5914 18.649C16.1965 16.5683 18.8717 15.9483 20.5532 17.2562C22.2347 18.5641 22.2942 21.3071 20.6891 23.3793Z" fill="white"/>
<path d="M22.4386 9.72439C22.9737 11.0153 21.7932 12.7308 19.8059 13.563C17.8187 14.3868 15.772 14.0046 15.2284 12.7138C14.6934 11.4229 15.8739 9.7074 17.8611 8.87513C19.8569 8.05135 21.9036 8.43352 22.4386 9.72439Z" fill="white"/>
<path d="M18.2688 8.73835C17.8102 10.1311 17.479 11.8381 17.3516 13.9698C18.1074 14.0377 18.9567 13.9188 19.8144 13.5621C21.8017 12.7299 22.9821 11.0144 22.4471 9.72349C21.946 8.51755 20.1286 8.11839 18.2688 8.73835Z" fill="#DE8266"/>
<path d="M15.0499 14.6998C15.2707 15.2433 14.7867 15.9567 13.9544 16.3049C13.1221 16.6531 12.2644 16.4917 12.0436 15.9482C11.8228 15.4131 12.3068 14.6913 13.1391 14.3431C13.9714 14.0034 14.8291 14.1647 15.0499 14.6998Z" fill="white"/>
</g>
<defs>
<clipPath id="clip0_5192_92412">
<rect width="52" height="52" fill="white" transform="translate(3.5 4)"/>
</clipPath>
</defs>
</svg>
