<svg width="50" height="50" viewBox="0 0 50 50" fill="none" xmlns="http://www.w3.org/2000/svg">
<path d="M25 44C35.4934 44 44 35.4934 44 25C44 14.5066 35.4934 6 25 6C14.5066 6 6 14.5066 6 25C6 35.4934 14.5066 44 25 44Z" fill="#F43A1C"/>
<path d="M34.885 8.76855C37.6537 12.0712 39.3165 16.3197 39.3165 20.9649C39.3165 31.4602 30.8119 39.9649 20.3165 39.9649C16.7011 39.9649 13.3221 38.9504 10.439 37.1961C13.9247 41.3531 19.1571 43.9998 25.0074 43.9998C35.5028 43.9998 44.0074 35.4952 44.0074 24.9998C44.0074 18.1274 40.3538 12.1018 34.885 8.76855Z" fill="#D32B1A"/>
<path d="M39.0504 12.2011C38.2572 11.3315 37.38 10.5306 36.4418 9.82129C35.496 11.3849 30.8662 18.3717 22.27 20.4845C12.4992 22.8947 7.14477 18.4937 7.14477 18.4861C6.68712 19.7446 6.35914 21.0642 6.16846 22.4371C6.20659 22.46 13.0027 27.0593 24.276 24.1914C35.4198 21.3616 38.9513 12.4528 39.0504 12.2011Z" fill="#ECECEC"/>
<path d="M30.3699 36.6771C23.3603 39.7052 12.0945 38.0806 11.0801 37.8975C12.1174 39.0187 13.292 40.0103 14.5735 40.8569C16.0532 41.5053 24.1612 42.4435 31.6742 39.6366C38.7677 36.9898 42.9934 31.1472 42.9934 31.1472C43.5959 29.3853 43.9468 27.5013 44.0078 25.541C43.8019 25.8766 39.4542 32.749 30.3699 36.6771Z" fill="#ECECEC"/>
<path d="M32.1157 35.8545C28.874 38.425 24.7781 39.9581 20.3236 39.9581C17.326 39.9581 14.4886 39.264 11.9639 38.0207C11.5215 37.9597 11.1783 37.9063 11.041 37.8834C12.0783 39.0046 13.2682 40.042 14.5496 40.8886C16.0294 41.537 24.1602 42.437 31.6733 39.6377C38.6372 37.0444 42.8323 31.3619 42.9924 31.1484C43.595 29.3864 43.9459 27.5024 44.0069 25.5498C43.7323 25.9846 39.9262 31.9111 32.1157 35.8545Z" fill="#C6C6C6"/>
<g opacity="0.18">
<path opacity="0.18" d="M13.696 13.1321C11.6518 15.2983 10.3475 18.2272 10.4467 21.1943C10.5001 22.7885 10.9806 24.4284 12.1171 25.5496C13.246 26.6708 15.1071 27.1285 16.4953 26.3429C17.3267 25.8776 17.8911 25.0538 18.364 24.2224C19.3022 22.5749 20.0268 20.7748 21.3006 19.3714C23.1769 17.3043 26.0601 16.3204 27.8449 14.1694C28.5848 13.2694 29.1187 12.0338 28.6763 10.9507C27.7915 8.77683 23.3295 8.45647 21.3616 8.72344C18.5776 9.11244 15.5723 11.1413 13.696 13.1321Z" fill="white"/>
</g>
<path d="M17.7921 25.1219C17.9981 24.832 18.1888 24.5345 18.3642 24.2294C18.9896 23.1387 19.5159 21.9793 20.1719 20.9191C15.9387 21.598 12.6741 20.9801 10.4774 20.2021C10.4545 20.5301 10.4469 20.8657 10.4545 21.2013C10.4927 22.3378 10.752 23.4972 11.3088 24.4812C13.0555 24.893 15.2369 25.1905 17.7921 25.1219Z" fill="white"/>
</svg>
