<svg width="60" height="60" viewBox="0 0 60 60" fill="none" xmlns="http://www.w3.org/2000/svg">
<path d="M30.2263 3L49.9453 50.1899C49.9453 50.1899 46.8667 53.4973 41.5069 54.8631C37.2545 55.9483 30.2189 56 30.2189 56C30.2189 56 23.1832 55.9483 18.9308 54.8631C18.7241 54.8114 18.5248 54.7523 18.3254 54.7007C15.0106 53.7335 12.6408 52.0577 11.4301 51.0462C10.8173 50.5368 10.4998 50.1899 10.4998 50.1899L10.7878 49.4959L30.2263 3Z" fill="#0246BF"/>
<path d="M29.3333 49.7329L31.6293 47.3631L34.9072 47.7839L33.3421 45.0154L34.8629 42.1362L31.5924 42.8006L29.2595 40.6006L28.8092 43.7751L25.8413 45.2959L28.8313 46.5953L29.3333 49.7329Z" fill="#FEBE00"/>
<path d="M32.0276 40.1941C32.1088 39.2639 32.1827 38.3263 32.2639 37.3961C32.2713 37.3223 32.3229 37.2559 32.4041 37.2559C32.478 37.2559 32.5518 37.3223 32.5444 37.3961C32.4632 38.3263 32.3894 39.2639 32.3082 40.1941C32.3008 40.268 32.2491 40.3344 32.1679 40.3344C32.1015 40.3344 32.0276 40.268 32.0276 40.1941Z" fill="#FEBE00"/>
<path d="M31.3853 39.8327C31.3779 38.777 31.2451 37.7287 30.9867 36.7099C30.9424 36.5327 31.2155 36.4515 31.2598 36.636C31.5182 37.6844 31.6585 38.7622 31.6659 39.8401C31.6733 40.0173 31.3927 40.0173 31.3853 39.8327Z" fill="#FEBE00"/>
<path d="M27.9156 42.7199C27.5687 42.0776 27.074 41.5165 26.4686 41.1104C26.3136 41.0071 26.4613 40.7561 26.6163 40.8594C27.266 41.295 27.8049 41.8856 28.1667 42.5722C28.2479 42.7346 27.9969 42.8823 27.9156 42.7199Z" fill="#FEBE00"/>
<path d="M27.3176 43.1036C26.7935 42.6902 26.2324 42.3285 25.6418 42.0258C25.4794 41.9446 25.6196 41.6935 25.7894 41.7748C26.4022 42.0922 26.9854 42.4687 27.5243 42.8969C27.5834 42.9486 27.576 43.052 27.5243 43.0962C27.4579 43.1627 27.3767 43.1553 27.3176 43.1036Z" fill="#FEBE00"/>
<path d="M27.5095 48.6551C27.325 48.6551 27.325 48.3672 27.5095 48.3672C27.6941 48.3672 27.6941 48.6551 27.5095 48.6551Z" fill="#FEBE00"/>
<path d="M27.6054 48.6032C27.1329 49.0093 26.6604 49.4079 26.1879 49.814C26.1289 49.8656 26.0403 49.873 25.9886 49.814C25.9369 49.7623 25.9295 49.6589 25.9886 49.6146C26.4611 49.2086 26.9336 48.8099 27.4061 48.4039C27.4651 48.3522 27.5537 48.3448 27.6054 48.4039C27.6571 48.4556 27.6645 48.5515 27.6054 48.6032Z" fill="#FEBE00"/>
<path d="M27.3472 47.9834C26.8009 48.5149 26.1217 48.8988 25.3834 49.0908C25.2062 49.1351 25.125 48.8619 25.3096 48.8176C26.0036 48.6404 26.6385 48.2787 27.1479 47.7841C27.2734 47.6512 27.4801 47.8505 27.3472 47.9834Z" fill="#FEBE00"/>
<path d="M32.0647 48.8025C32.5151 49.4744 32.8473 50.2274 33.0392 51.0173C33.0835 51.1945 32.803 51.2757 32.7661 51.0912C32.5815 50.3234 32.264 49.5999 31.8211 48.9502C31.7177 48.7878 31.9614 48.6475 32.0647 48.8025Z" fill="#FEBE00"/>
<path d="M31.4888 49.7257C31.7546 50.4714 32.1459 51.1653 32.6479 51.7781C32.6996 51.8372 32.7069 51.9257 32.6479 51.9774C32.5962 52.0291 32.4928 52.0365 32.4485 51.9774C31.917 51.3204 31.5036 50.5895 31.2156 49.7995C31.1861 49.7257 31.2452 49.6445 31.319 49.6224C31.3928 49.6002 31.4593 49.6519 31.4888 49.7257Z" fill="#FEBE00"/>
<path d="M35.2837 46.0195C36.1549 46.0195 37.0334 46.0195 37.9045 46.0195C38.0891 46.0195 38.0891 46.3075 37.9045 46.3075C37.0334 46.3075 36.1549 46.3075 35.2837 46.3075C35.0991 46.3075 35.0991 46.0195 35.2837 46.0195Z" fill="#FEBE00"/>
<path d="M35.5564 45.3993C35.3718 45.3993 35.3718 45.1113 35.5564 45.1113C35.741 45.1113 35.741 45.3993 35.5564 45.3993Z" fill="#FEBE00"/>
<path d="M35.5197 45.1192C36.3466 44.9051 37.1513 44.6024 37.9191 44.2185C38.0815 44.1373 38.2292 44.3809 38.0667 44.4695C37.2768 44.8681 36.4499 45.1782 35.6009 45.3997C35.4164 45.444 35.3426 45.1635 35.5197 45.1192Z" fill="#FEBE00"/>
<path d="M18.51 37.0121L21.2415 35.9195L23.759 37.4403L23.4859 34.6275L25.7671 32.8336L22.8657 32.1913L21.7657 29.5557L20.2449 31.9772L18.1113 32.0953L17.8381 32.745L19.2408 34.2806L18.51 37.0121Z" fill="#FEBE00"/>
<path d="M24.1652 30.2197C24.5639 29.4888 24.9699 28.7579 25.3686 28.027C25.4055 27.968 25.472 27.9311 25.5384 27.9606C25.5975 27.9901 25.6344 28.0713 25.6048 28.1304C25.2062 28.8613 24.8001 29.5922 24.4015 30.323C24.3646 30.3821 24.2981 30.419 24.2317 30.3895C24.1726 30.3673 24.1357 30.2861 24.1652 30.2197Z" fill="#FEBE00"/>
<path d="M23.7738 29.6955C24.1504 28.8318 24.4235 27.9311 24.5859 27.0082C24.6155 26.8458 24.8665 26.8827 24.8369 27.0452C24.6745 27.9901 24.394 28.9203 24.0101 29.7989C23.9436 29.9539 23.7074 29.8506 23.7738 29.6955Z" fill="#FEBE00"/>
<path d="M19.8982 30.7879C19.8539 30.1825 19.6767 29.5919 19.374 29.0677C19.3519 29.0308 19.5069 28.7945 19.5143 28.8019C19.8834 29.3925 20.1049 30.0644 20.1566 30.7583C20.164 30.9207 19.913 30.9503 19.8982 30.7879Z" fill="#FEBE00"/>
<path d="M19.2705 30.884C19.1523 30.6625 19.0268 30.441 18.894 30.2269L19.0047 29.9316C19.1893 30.2048 19.3517 30.4927 19.5067 30.788C19.5362 30.8471 19.4919 30.9283 19.4329 30.9504C19.3664 30.9874 19.3074 30.9504 19.2705 30.884Z" fill="#FEBE00"/>
<path d="M17.4251 35.4764C17.2774 35.41 17.3808 35.1737 17.5284 35.2402C17.6761 35.3066 17.5727 35.5429 17.4251 35.4764Z" fill="#FEBE00"/>
<path d="M17.5207 35.4687C17.2107 35.5573 16.8932 35.6532 16.5831 35.7418L16.7086 35.4391C16.9449 35.3653 17.1885 35.2989 17.4248 35.225C17.4912 35.2029 17.565 35.2324 17.5872 35.2989C17.6167 35.3653 17.5872 35.4539 17.5207 35.4687Z" fill="#FEBE00"/>
<path d="M17.5282 34.8631C17.3141 34.9443 17.0927 35.0034 16.8712 35.0403L16.9893 34.7523C17.137 34.7154 17.292 34.6711 17.4323 34.6195C17.5947 34.5678 17.6833 34.8114 17.5282 34.8631Z" fill="#FEBE00"/>
<path d="M21.0789 37.2408C21.2044 37.9495 21.197 38.6878 21.0715 39.3965C21.042 39.559 20.791 39.5221 20.8205 39.3596C20.946 38.6657 20.946 37.9643 20.8279 37.2703C20.791 37.1079 21.0494 37.0858 21.0789 37.2408Z" fill="#FEBE00"/>
<path d="M20.2743 37.7866C20.2226 38.4879 20.2891 39.1967 20.4737 39.8759C20.4884 39.9423 20.4663 40.0162 20.3998 40.0383C20.3408 40.0605 20.2522 40.0309 20.2374 39.9645C20.0455 39.241 19.9716 38.4879 20.0233 37.7423C20.0307 37.6759 20.1045 37.6242 20.171 37.6316C20.2374 37.6537 20.2743 37.7202 20.2743 37.7866Z" fill="#FEBE00"/>
<path d="M24.7039 36.1477C25.4126 36.4651 26.1288 36.7826 26.8375 37.1001C26.9851 37.1665 26.8818 37.4027 26.7341 37.3363C26.0254 37.0188 25.3093 36.7014 24.6006 36.3839C24.4529 36.3101 24.5563 36.0813 24.7039 36.1477Z" fill="#FEBE00"/>
<path d="M25.1541 35.7421C25.0064 35.6756 25.1098 35.4394 25.2574 35.5058C25.4051 35.5722 25.3017 35.8085 25.1541 35.7421Z" fill="#FEBE00"/>
<path d="M25.2208 35.4985C25.9739 35.624 26.7417 35.6683 27.5021 35.6314C27.6645 35.624 27.694 35.875 27.5316 35.8824C26.749 35.9193 25.9591 35.875 25.1839 35.7495C25.0215 35.72 25.0584 35.469 25.2208 35.4985Z" fill="#FEBE00"/>
<path d="M18.3332 54.6932L18.3922 54.7006L16.9969 51.9321L18.6211 49.1932L15.4023 49.6804L13.2318 47.4287L12.6338 50.4999L11.4304 51.0462C11.4304 51.0462 12.4418 51.91 13.9257 52.7959C16.6425 54.4053 18.3332 54.6932 18.3332 54.6932Z" fill="#FEBE00"/>
<path d="M15.9563 47.1628C16.0744 46.2547 16.1999 45.354 16.318 44.4459C16.3254 44.3721 16.3845 44.3057 16.4657 44.3131C16.5395 44.3131 16.6059 44.3869 16.5986 44.4607C16.4804 45.3688 16.3549 46.2695 16.2368 47.1775C16.2294 47.2513 16.1704 47.3178 16.0892 47.3104C16.0153 47.303 15.9489 47.2366 15.9563 47.1628Z" fill="#FEBE00"/>
<path d="M15.3508 46.7792C15.3951 45.753 15.3139 44.7195 15.1146 43.708C15.0776 43.5308 15.3508 43.4718 15.3877 43.649C15.5944 44.6825 15.6756 45.7383 15.6313 46.794C15.6166 46.9712 15.3434 46.9564 15.3508 46.7792Z" fill="#FEBE00"/>
<path d="M11.8143 49.4225C11.6593 49.0977 11.4747 48.795 11.2459 48.5219L11.364 48.2266C11.6445 48.544 11.8808 48.9058 12.0653 49.297C12.1392 49.4595 11.8955 49.585 11.8143 49.4225Z" fill="#FEBE00"/>
<path d="M11.2165 49.7692C11.0983 49.6659 10.9728 49.5625 10.8473 49.4591L10.9581 49.1934C11.1131 49.3189 11.2681 49.4444 11.4232 49.5773C11.4822 49.6289 11.4675 49.7249 11.4158 49.7766C11.3494 49.8357 11.2755 49.8209 11.2165 49.7692Z" fill="#FEBE00"/>
<path d="M18.8504 53.0025C19.6994 53.0468 20.5558 53.0837 21.4048 53.128C21.582 53.1354 21.5746 53.4159 21.39 53.4086C20.541 53.3643 19.6846 53.3274 18.8356 53.2831C18.6585 53.2683 18.6658 52.9878 18.8504 53.0025Z" fill="#FEBE00"/>
<path d="M19.1456 52.4125C18.9684 52.4051 18.9758 52.1246 19.1604 52.132C19.3376 52.1394 19.3228 52.4199 19.1456 52.4125Z" fill="#FEBE00"/>
<path d="M19.1233 52.1313C19.9427 51.9615 20.7401 51.7105 21.5079 51.3709C21.6703 51.297 21.8032 51.548 21.6334 51.6219C20.8434 51.9689 20.024 52.2346 19.1823 52.4118C19.0051 52.4413 18.9461 52.1682 19.1233 52.1313Z" fill="#FEBE00"/>
<path d="M32.5812 29.6875L35.3128 28.5875L37.8303 30.1157L37.5571 27.2955L39.6538 25.5311L36.937 24.8592L35.8296 22.2236L34.3162 24.6451L31.3483 24.8076L33.3121 26.9485L32.5812 29.6875Z" fill="#FEBE00"/>
<path d="M38.2363 22.8954C38.3027 22.7773 38.3691 22.6591 38.4282 22.541L38.5537 22.8437C38.5242 22.8954 38.4946 22.9471 38.4651 23.0061C38.4356 23.0652 38.3618 23.1021 38.2953 23.0726C38.2436 23.0356 38.1993 22.9544 38.2363 22.8954Z" fill="#FEBE00"/>
<path d="M37.845 22.3717C37.9336 22.165 38.0222 21.9509 38.0961 21.7441L38.2363 22.0837C38.1846 22.2166 38.133 22.3495 38.0739 22.475C38.0075 22.6227 37.7786 22.5193 37.845 22.3717Z" fill="#FEBE00"/>
<path d="M33.9691 23.4566C33.9248 22.8069 33.7181 22.172 33.3711 21.6183C33.2825 21.4781 33.4892 21.3304 33.5778 21.4707C33.9469 22.0613 34.1684 22.7331 34.2201 23.4271C34.2349 23.5895 33.9765 23.619 33.9691 23.4566Z" fill="#FEBE00"/>
<path d="M33.3418 23.5526C33.0686 23.0284 32.7364 22.5264 32.3672 22.0687C32.2639 21.9432 32.4706 21.7881 32.574 21.921C32.9579 22.4009 33.2975 22.9177 33.578 23.464C33.6075 23.5231 33.5632 23.6043 33.5042 23.6264C33.4377 23.656 33.3713 23.619 33.3418 23.5526Z" fill="#FEBE00"/>
<path d="M31.4889 28.1444C31.3412 28.078 31.4446 27.8417 31.5923 27.9081C31.7473 27.982 31.6439 28.2108 31.4889 28.1444Z" fill="#FEBE00"/>
<path d="M31.5844 28.1371C31.0529 28.2921 30.5213 28.4471 29.9898 28.6096C29.9233 28.6317 29.8495 28.6022 29.8274 28.5357C29.8052 28.4767 29.8347 28.3881 29.9012 28.3733C30.4327 28.2183 30.9643 28.0632 31.4958 27.9008C31.5623 27.8787 31.6361 27.9082 31.6583 27.9747C31.6804 28.0337 31.6509 28.1223 31.5844 28.1371Z" fill="#FEBE00"/>
<path d="M31.5991 27.5396C30.9642 27.7758 30.2702 27.8423 29.5984 27.7315C29.436 27.702 29.4729 27.451 29.6353 27.4805C30.2628 27.5839 30.9125 27.5248 31.5105 27.3033C31.6581 27.2443 31.7541 27.4805 31.5991 27.5396Z" fill="#FEBE00"/>
<path d="M35.1429 29.9162C35.2684 30.625 35.261 31.3632 35.1355 32.072C35.106 32.2344 34.855 32.1975 34.8845 32.035C35.01 31.3411 35.01 30.6397 34.8919 29.9458C34.8623 29.776 35.1207 29.7538 35.1429 29.9162Z" fill="#FEBE00"/>
<path d="M34.3383 30.4555C34.2866 31.1569 34.3531 31.8656 34.5376 32.5448C34.5524 32.6113 34.5302 32.6851 34.4638 32.7072C34.4047 32.7294 34.3161 32.6999 34.3014 32.6334C34.1094 31.9099 34.0356 31.1569 34.0873 30.4112C34.0947 30.3448 34.1685 30.2931 34.2349 30.3005C34.3088 30.3227 34.3457 30.3891 34.3383 30.4555Z" fill="#FEBE00"/>
<path d="M38.7752 28.8166C39.4839 29.1341 40.2001 29.4516 40.9088 29.769C41.0564 29.8354 40.9531 30.0717 40.8054 30.0052C40.0967 29.6878 39.3806 29.3703 38.6718 29.0529C38.5242 28.9791 38.6275 28.7502 38.7752 28.8166Z" fill="#FEBE00"/>
<path d="M39.2179 28.41C39.0702 28.3436 39.1736 28.1073 39.3213 28.1738C39.4763 28.2402 39.3729 28.4765 39.2179 28.41Z" fill="#FEBE00"/>
<path d="M39.292 28.1664C39.8088 28.255 40.3255 28.2993 40.8497 28.3141L40.9604 28.5725C40.392 28.5651 39.8235 28.5208 39.2624 28.4248C39.0926 28.3953 39.1296 28.1369 39.292 28.1664Z" fill="#FEBE00"/>
<path d="M25.5752 15.6617L28.0631 14.6577L30.3517 16.053L30.1081 13.4838L32.1826 11.8523L29.547 11.2617L28.5356 8.8623L27.155 11.0697L26.8893 11.0845L26.0846 13.004L26.2396 13.1664L25.5752 15.6617Z" fill="#FEBE00"/>
<path d="M30.7286 9.47499C31.0977 8.81055 31.4595 8.14611 31.8286 7.48167C31.8582 7.43 31.9246 7.39308 31.9837 7.42261C32.0353 7.44476 32.0723 7.51859 32.0427 7.57765C31.6736 8.24209 31.3118 8.90653 30.9427 9.57097C30.9132 9.62264 30.8467 9.65955 30.7877 9.63002C30.7286 9.60787 30.6991 9.53405 30.7286 9.47499Z" fill="#FEBE00"/>
<path d="M30.3667 8.99523C30.7064 8.21266 30.9574 7.38581 31.105 6.54419C31.1272 6.39654 31.3634 6.43345 31.3339 6.5811C31.1862 7.44487 30.9278 8.2865 30.5808 9.0912C30.5218 9.23147 30.3077 9.1355 30.3667 8.99523Z" fill="#FEBE00"/>
<path d="M27.9081 15.8681C28.0188 16.5178 28.0188 17.1822 27.9007 17.8319C27.8712 17.9796 27.6423 17.9426 27.6718 17.795C27.7826 17.1675 27.79 16.5252 27.6792 15.8977C27.6571 15.7426 27.8859 15.7205 27.9081 15.8681Z" fill="#FEBE00"/>
<path d="M27.1773 16.3632C27.133 17.0055 27.192 17.6478 27.3545 18.2679C27.3692 18.327 27.3471 18.3934 27.288 18.4156C27.2363 18.4377 27.1551 18.4082 27.1404 18.3491C26.9632 17.6921 26.8967 17.0055 26.9484 16.3263C26.9558 16.2672 27.0222 16.2229 27.0813 16.2303C27.1477 16.2377 27.1847 16.2967 27.1773 16.3632Z" fill="#FEBE00"/>
<path d="M31.2157 14.8647C31.8654 15.1526 32.5077 15.4405 33.1574 15.7285C33.2976 15.7875 33.2017 16.0016 33.0614 15.9426C32.4117 15.6546 31.7694 15.3667 31.1198 15.0788C30.9869 15.0197 31.0828 14.8056 31.2157 14.8647Z" fill="#FEBE00"/>
<path d="M31.6218 14.5026C31.4815 14.4436 31.5775 14.2295 31.7178 14.2885C31.8507 14.3476 31.7621 14.5617 31.6218 14.5026Z" fill="#FEBE00"/>
<path d="M31.6883 14.2809C32.3748 14.3991 33.0688 14.436 33.7628 14.4065C33.9104 14.3991 33.94 14.6279 33.7849 14.6353C33.0688 14.6722 32.3527 14.6279 31.6513 14.5098C31.5037 14.4803 31.5406 14.2514 31.6883 14.2809Z" fill="#FEBE00"/>
<path d="M44.2681 49.6434L45.7298 47.3917L48.4023 47.2145L46.7191 45.2581L47.2285 43.5823L46.9627 42.9474L44.9842 43.7668L42.7842 42.3789L42.917 44.9776L40.7982 46.6535L43.3748 47.2219L44.2681 49.6434Z" fill="#FEBE00"/>
<path d="M44.925 41.619C44.8438 40.866 44.7552 40.113 44.674 39.3525C44.6667 39.2935 44.7036 39.227 44.7626 39.2197C44.8217 39.2049 44.8955 39.2492 44.8955 39.3082C44.9767 40.0613 45.0653 40.8143 45.1465 41.5747C45.1539 41.6338 45.117 41.7002 45.0579 41.7076C45.0063 41.7224 44.9324 41.6855 44.925 41.619Z" fill="#FEBE00"/>
<path d="M44.3564 41.4339C44.1866 40.5923 43.9134 39.7802 43.5517 39.005C43.4853 38.8721 43.6993 38.7688 43.7584 38.9017C44.1275 39.6916 44.4081 40.5332 44.5853 41.3896C44.6148 41.5373 44.3859 41.5816 44.3564 41.4339Z" fill="#FEBE00"/>
<path d="M42.0383 44.2764C41.6618 43.8187 41.182 43.4495 40.6356 43.2207C40.4954 43.1616 40.5766 42.9401 40.7095 42.9992C41.2927 43.2428 41.8169 43.6267 42.2155 44.1213C42.3115 44.2395 42.1343 44.3945 42.0383 44.2764Z" fill="#FEBE00"/>
<path d="M41.6251 44.6753C41.1453 44.4243 40.6432 44.225 40.1191 44.0773C39.9714 44.033 40.0526 43.8189 40.1929 43.8558C40.7318 44.0109 41.256 44.2176 41.7506 44.476C41.8097 44.5055 41.8171 44.5867 41.7802 44.6384C41.7506 44.7048 41.6842 44.7048 41.6251 44.6753Z" fill="#FEBE00"/>
<path d="M42.6511 49.0674C42.5035 49.097 42.4592 48.8681 42.6068 48.8386C42.7545 48.809 42.7988 49.0379 42.6511 49.0674Z" fill="#FEBE00"/>
<path d="M42.7177 49.0081C42.4076 49.3994 42.0902 49.7981 41.7801 50.1893C41.7432 50.241 41.6767 50.2558 41.6177 50.2189C41.566 50.1893 41.5439 50.1081 41.5881 50.0564C41.8982 49.6652 42.2157 49.2665 42.5257 48.8752C42.5627 48.8235 42.6291 48.8088 42.6882 48.8457C42.7325 48.8826 42.7546 48.9638 42.7177 49.0081Z" fill="#FEBE00"/>
<path d="M42.415 48.5584C42.0606 49.0678 41.5807 49.4812 41.0197 49.747C40.8868 49.8134 40.7834 49.6067 40.9163 49.5403C41.4405 49.2893 41.8908 48.9054 42.2157 48.4255C42.3042 48.3 42.4962 48.4329 42.415 48.5584Z" fill="#FEBE00"/>
<path d="M46.2983 48.4696C46.7634 48.9347 47.1399 49.481 47.4205 50.079C47.4869 50.2119 47.2728 50.3226 47.2137 50.1824C46.948 49.5991 46.5788 49.075 46.1285 48.6246C46.0178 48.5139 46.1949 48.3662 46.2983 48.4696Z" fill="#FEBE00"/>
<path d="M45.9807 49.2962C46.3129 49.8425 46.7337 50.3371 47.221 50.7505C47.2726 50.7874 47.2874 50.8539 47.2505 50.913C47.221 50.9572 47.1398 50.9868 47.0881 50.9425C46.5639 50.5069 46.1209 49.9827 45.7666 49.3995C45.737 49.3478 45.7666 49.2666 45.8183 49.2445C45.8847 49.2149 45.9511 49.2371 45.9807 49.2962Z" fill="#FEBE00"/>
<path opacity="0.34" d="M42.5848 43.4934C43.013 44.6008 43.4486 45.7746 43.2788 46.9484C43.109 48.1223 42.1123 49.274 40.9237 49.1632C40.1042 49.082 39.4324 48.425 39.0928 47.6793C38.7532 46.9337 38.672 46.092 38.5908 45.2726C37.9633 39.3665 36.472 33.5563 34.1907 28.071C33.7995 27.1334 32.9135 23.4642 35.1431 24.8226C36.4425 25.6126 37.0995 29.2079 37.6311 30.5885C39.2774 34.8926 40.9311 39.1967 42.5848 43.4934Z" fill="white"/>
<path opacity="0.34" d="M34.4049 22.1363C34.4123 22.3209 34.4123 22.5202 34.309 22.6753C34.117 22.978 33.6519 22.9706 33.3492 22.7934C32.7365 22.4316 32.5445 21.6491 32.4042 20.9477C32.2197 20.0101 30.817 15.5141 33.0391 17.153C34.368 18.1202 34.3754 20.6893 34.4049 22.1363Z" fill="white"/>
</svg>
