<svg width="466" height="301" viewBox="0 0 466 301" fill="none" xmlns="http://www.w3.org/2000/svg">
<circle cx="150.5" cy="150.5" r="150" stroke="#A1A6D9"/>
<circle cx="315.5" cy="150.5" r="150" stroke="#A1A6D9"/>
<path d="M395.402 175.777L392.051 175.668C391.24 175.641 391.413 175.753 390.665 175.941C386.998 176.848 384.208 180.119 384.079 184.078C384.03 185.598 385.225 186.84 386.707 186.889L420.924 188.002C422.335 188.048 423.537 186.919 423.583 185.505C423.668 182.889 423.183 180.432 422.232 178.172C421.839 177.239 420.941 176.608 419.918 176.575L395.402 175.777Z" fill="#F43A1C"/>
<path d="M421.796 177.485C421.32 176.939 420.624 176.598 419.884 176.574L395.403 175.777L392.052 175.668C391.24 175.641 391.413 175.753 390.665 175.941C390.167 176.067 389.703 176.228 389.272 176.427L421.796 177.485Z" fill="#D32B1A"/>
<path d="M398.634 186.073C398.638 185.932 398.679 185.756 398.685 185.58C398.792 182.292 396.233 179.555 392.952 179.448C389.672 179.341 386.94 181.906 386.833 185.194C386.827 185.371 386.822 185.512 386.852 185.69L398.634 186.073Z" fill="#D32B1A"/>
<path d="M421.739 186.825C421.744 186.684 421.785 186.508 421.791 186.331C421.898 183.044 419.338 180.306 416.058 180.2C412.777 180.093 410.045 182.658 409.938 185.946C409.932 186.123 409.928 186.264 409.957 186.442L421.739 186.825Z" fill="#D32B1A"/>
<path d="M384.187 182.949C384.183 183.055 384.144 183.16 384.142 183.23C384.18 183.161 384.218 183.056 384.187 182.949Z" fill="#F43A1C"/>
<path d="M386.706 186.887L420.923 188.001C422.052 188.038 423.064 187.327 423.415 186.312L384.224 185.037C384.577 186.11 385.542 186.849 386.706 186.887Z" fill="#D32B1A"/>
<path d="M423.58 184.513C423.583 184.442 423.586 184.336 423.588 184.266C423.551 184.335 423.549 184.406 423.58 184.513Z" fill="#F43A1C"/>
<path d="M413.428 176.363L413.328 179.439C410.153 179.335 408.157 182.066 408.07 184.753L408.063 184.965L403.195 184.807C400.196 184.709 398.647 182.394 398.716 180.273L398.859 175.889L399.282 175.903L399.14 180.286C399.076 182.231 400.457 184.293 403.173 184.381L407.653 184.527C407.848 181.808 409.806 179.147 412.883 179L412.969 176.348L413.428 176.363Z" fill="#D32B1A"/>
<path d="M398.859 175.889L399.282 175.902L399.255 176.751L398.831 176.737L398.859 175.889Z" fill="#F43A1C"/>
<path d="M413.004 176.35L413.428 176.363L413.4 177.212L412.977 177.198L413.004 176.35Z" fill="#F43A1C"/>
<path d="M412.058 177.203L409.236 177.111C408.848 177.099 408.52 177.406 408.508 177.795L408.502 177.972L411.324 178.064C411.712 178.077 412.04 177.769 412.052 177.38L412.058 177.203Z" fill="#D32B1A"/>
<path d="M385.744 182.823L383.91 182.763C383.698 182.756 383.552 182.893 383.545 183.105L383.522 183.812C383.515 184.024 383.652 184.17 383.864 184.177L385.698 184.237C385.91 184.243 386.055 184.107 386.062 183.895L386.085 183.187C386.091 183.011 385.956 182.829 385.744 182.823Z" fill="#D32B1A"/>
<path d="M424.124 184.071L422.29 184.011C422.078 184.004 421.932 184.141 421.925 184.353L421.902 185.06C421.895 185.272 422.032 185.418 422.243 185.425L424.078 185.485C424.289 185.491 424.435 185.355 424.442 185.143L424.465 184.436C424.471 184.259 424.335 184.077 424.124 184.071Z" fill="#D32B1A"/>
<path d="M387.535 178.812L388.876 178.856C390.322 178.903 391.561 177.74 391.608 176.291L391.628 175.654L388.207 175.543C387.325 175.514 386.561 176.197 386.531 177.116L386.51 177.753C386.492 178.318 386.936 178.793 387.535 178.812Z" fill="#FFCD85"/>
<path d="M389.56 177.356L387.867 177.301C387.62 177.293 387.45 177.075 387.457 176.863C387.465 176.615 387.683 176.446 387.894 176.452L389.587 176.508C389.834 176.516 390.004 176.733 389.997 176.946C390.025 177.159 389.807 177.364 389.56 177.356Z" fill="#FFEABE"/>
<path d="M420.377 176.589L419.813 176.571L419.771 177.843C419.735 178.939 420.587 179.887 421.716 179.924L422.88 179.961L422.902 179.29C422.949 177.84 421.823 176.636 420.377 176.589Z" fill="#FD2A43"/>
<path d="M422.718 178.436L421.025 178.381C420.778 178.373 420.608 178.155 420.615 177.943C420.623 177.696 420.841 177.526 421.052 177.533L422.746 177.588C422.993 177.596 423.162 177.814 423.155 178.026C423.148 178.238 422.965 178.444 422.718 178.436Z" fill="#FD9494"/>
<path d="M404.965 167.347L404.859 167.344C403.307 167.293 401.801 167.988 400.808 169.194L395.403 175.777L419.814 176.571C416.95 171.241 411.42 167.557 404.965 167.347Z" fill="#F43A1C"/>
<path d="M396.102 174.915L395.403 175.777L419.814 176.571C419.646 176.283 419.48 175.959 419.278 175.669L396.102 174.915Z" fill="#D32B1A"/>
<path d="M400.877 169.231L400.771 169.227L395.402 175.776L413.428 176.363C410.738 172.206 406.168 169.403 400.877 169.231Z" fill="#FFEABE"/>
<path d="M413.428 176.365L412.123 176.322L399.777 175.921L399.353 175.907L395.473 175.781L396.172 174.919L399.347 175.022C399.519 172.975 400.148 171.014 401.121 169.347C400.979 169.342 400.839 169.302 400.698 169.298L400.735 169.263L400.841 169.267C400.946 169.27 401.052 169.274 401.123 169.276C401.264 169.281 401.439 169.322 401.58 169.326C406.584 169.666 410.873 172.424 413.428 176.365ZM411.481 175.417C409.146 172.297 405.653 170.06 401.578 169.397C400.606 171.064 399.978 172.99 399.805 175.037L411.481 175.417Z" fill="#FFCD85"/>
<path d="M400.877 169.232L400.772 169.228C399.614 171.172 398.939 173.451 398.86 175.89L399.283 175.904C399.362 173.465 400.037 171.186 401.195 169.242C401.089 169.239 401.018 169.236 400.877 169.232Z" fill="#F43A1C"/>
<path d="M392.582 190.797C389.621 190.7 387.299 188.217 387.395 185.249C387.492 182.281 389.971 179.954 392.932 180.05C395.893 180.146 398.216 182.63 398.119 185.598C398.023 188.565 395.544 190.893 392.582 190.797Z" fill="#692F31"/>
<path d="M392.612 189.913C389.79 189.821 387.567 187.59 387.445 184.826C387.44 184.967 387.4 185.108 387.395 185.284C387.298 188.254 389.619 190.736 392.582 190.832C395.545 190.929 398.022 188.603 398.118 185.633C398.123 185.492 398.128 185.351 398.098 185.173C397.798 187.888 395.398 190.004 392.612 189.913Z" fill="#401113"/>
<path d="M392.675 187.969C391.264 187.923 390.172 186.755 390.218 185.341C390.264 183.927 391.43 182.832 392.841 182.878C394.252 182.924 395.344 184.092 395.298 185.506C395.252 186.92 394.051 188.014 392.675 187.969Z" fill="#401113"/>
<path d="M392.702 187.12C391.785 187.09 391.034 186.287 391.064 185.368C391.094 184.449 391.896 183.696 392.813 183.726C393.73 183.756 394.481 184.559 394.451 185.478C394.421 186.397 393.619 187.15 392.702 187.12Z" fill="#FFF318"/>
<path d="M392.731 186.237C391.955 186.212 391.302 185.66 391.149 184.947C391.109 185.087 391.069 185.227 391.063 185.404C391.034 186.323 391.784 187.126 392.701 187.156C393.619 187.186 394.42 186.433 394.45 185.514C394.454 185.373 394.425 185.195 394.394 185.052C394.16 185.753 393.507 186.262 392.731 186.237Z" fill="#FFAF2B"/>
<path d="M415.688 191.549C412.727 191.452 410.405 188.968 410.501 186.001C410.598 183.033 413.077 180.706 416.038 180.802C418.999 180.898 421.322 183.382 421.225 186.35C421.128 189.317 418.65 191.645 415.688 191.549Z" fill="#692F31"/>
<path d="M415.717 190.665C412.895 190.573 410.672 188.342 410.55 185.578C410.546 185.72 410.506 185.86 410.5 186.037C410.403 189.006 412.724 191.488 415.687 191.584C418.651 191.645 421.128 189.32 421.225 186.35C421.229 186.209 421.234 186.067 421.204 185.889C420.868 188.639 418.504 190.756 415.717 190.665Z" fill="#401113"/>
<path d="M415.78 188.721C414.369 188.675 413.277 187.507 413.323 186.093C413.369 184.679 414.535 183.584 415.946 183.63C417.357 183.676 418.449 184.844 418.403 186.258C418.357 187.672 417.156 188.765 415.78 188.721Z" fill="#401113"/>
<path d="M415.807 187.872C414.89 187.842 414.139 187.039 414.169 186.12C414.199 185.201 415 184.448 415.918 184.478C416.835 184.508 417.586 185.311 417.556 186.23C417.525 187.184 416.724 187.902 415.807 187.872Z" fill="#FFF318"/>
<path d="M415.836 186.989C415.06 186.964 414.407 186.411 414.254 185.699C414.214 185.839 414.174 185.979 414.168 186.156C414.139 187.075 414.889 187.878 415.806 187.908C416.724 187.938 417.525 187.185 417.555 186.266C417.559 186.125 417.53 185.947 417.499 185.804C417.265 186.504 416.612 187.014 415.836 186.989Z" fill="#FFAF2B"/>
<g clip-path="url(#clip0_6050_137900)">
<g clip-path="url(#clip1_6050_137900)">
<path d="M341.258 177.352C341.23 177.345 341.23 177.345 341.202 177.338C341.174 177.331 341.174 177.331 341.147 177.324C341.119 177.316 341.119 177.316 341.091 177.309C341.091 177.309 341.063 177.302 341.035 177.295C340.98 177.281 340.945 177.302 340.889 177.288C340.862 177.281 340.862 177.281 340.827 177.301C340.52 177.342 340.235 177.536 340.101 177.827L320.907 218.789C320.704 219.241 320.89 219.791 321.341 219.994L327.5 222.89C327.708 223.003 327.945 223.003 328.14 222.935C328.168 222.942 328.203 222.921 328.237 222.9C328.272 222.88 328.3 222.887 328.335 222.866C328.37 222.845 328.405 222.824 328.405 222.824C328.439 222.804 328.447 222.776 328.481 222.755C328.516 222.734 328.523 222.707 328.558 222.686C328.593 222.665 328.6 222.637 328.635 222.617C328.642 222.589 328.677 222.568 328.684 222.54C328.691 222.512 328.726 222.492 328.733 222.464L347.899 181.495C348.103 181.044 347.917 180.493 347.465 180.29L341.306 177.394C341.286 177.359 341.258 177.352 341.258 177.352ZM343.38 180.998C343.907 181.25 344.155 181.905 343.903 182.433C343.784 182.669 343.588 182.856 343.358 182.946C343.086 183.084 342.759 183.089 342.475 182.928C341.947 182.676 341.699 182.021 341.952 181.493C342.029 181.306 342.182 181.167 342.329 181.056C342.615 180.863 343.012 180.816 343.38 180.998Z" fill="#E43C3C"/>
<path d="M342.467 182.956C342.759 183.089 343.086 183.084 343.35 182.973C343.064 183.167 342.675 183.187 342.328 183.039C341.8 182.787 341.552 182.132 341.804 181.604C341.923 181.368 342.084 181.202 342.314 181.112C342.167 181.223 342.014 181.362 341.937 181.549C341.691 182.049 341.911 182.697 342.467 182.956Z" fill="#F7941E"/>
<path d="M340.394 177.488C340.589 177.419 340.818 177.448 341.034 177.532L347.2 180.4C347.651 180.604 347.865 181.161 347.634 181.605L328.432 222.595C328.369 222.727 328.251 222.845 328.139 222.935C328.39 222.88 328.585 222.693 328.704 222.457L347.898 181.495C348.102 181.044 347.916 180.493 347.465 180.29L341.305 177.394C340.993 177.226 340.652 177.287 340.394 177.488Z" fill="#F7941E"/>
<path opacity="0.15" d="M321.98 220.298L322.344 220.469L342.318 177.852L341.955 177.681L321.98 220.298Z" fill="white"/>
<path d="M321.109 218.298L320.976 218.584L323.079 219.57L323.213 219.284L321.109 218.298Z" fill="#7A3F0D"/>
<path d="M322.975 214.328L322.841 214.613L324.945 215.599L325.079 215.314L322.975 214.328Z" fill="#7A3F0D"/>
<path d="M324.84 210.355L324.706 210.641L326.81 211.627L326.943 211.341L324.84 210.355Z" fill="#7A3F0D"/>
<path d="M326.705 206.38L326.571 206.666L328.675 207.652L328.809 207.367L326.705 206.38Z" fill="#7A3F0D"/>
<path d="M328.57 202.408L328.436 202.693L330.54 203.68L330.673 203.394L328.57 202.408Z" fill="#7A3F0D"/>
<path d="M330.423 198.46L330.289 198.746L332.393 199.732L332.527 199.447L330.423 198.46Z" fill="#7A3F0D"/>
<path d="M332.288 194.488L332.154 194.773L334.258 195.76L334.392 195.474L332.288 194.488Z" fill="#7A3F0D"/>
<path d="M334.153 190.515L334.019 190.801L336.123 191.787L336.257 191.501L334.153 190.515Z" fill="#7A3F0D"/>
<path d="M336.018 186.542L335.884 186.828L337.987 187.814L338.121 187.528L336.018 186.542Z" fill="#7A3F0D"/>
<path d="M337.883 182.57L337.749 182.855L339.853 183.842L339.986 183.556L337.883 182.57Z" fill="#7A3F0D"/>
<path d="M339.736 178.623L339.602 178.908L341.706 179.894L341.839 179.609L339.736 178.623Z" fill="#7A3F0D"/>
<path d="M322.032 216.341L321.898 216.627L323.197 217.236L323.331 216.95L322.032 216.341Z" fill="#7A3F0D"/>
<path d="M323.898 212.369L323.764 212.654L325.062 213.263L325.196 212.977L323.898 212.369Z" fill="#7A3F0D"/>
<path d="M325.762 208.394L325.628 208.68L326.927 209.288L327.061 209.003L325.762 208.394Z" fill="#7A3F0D"/>
<path d="M327.627 204.421L327.493 204.707L328.792 205.316L328.926 205.03L327.627 204.421Z" fill="#7A3F0D"/>
<path d="M329.48 200.476L329.346 200.762L330.645 201.37L330.779 201.085L329.48 200.476Z" fill="#7A3F0D"/>
<path d="M331.345 196.501L331.211 196.787L332.51 197.396L332.644 197.11L331.345 196.501Z" fill="#7A3F0D"/>
<path d="M333.211 192.531L333.077 192.816L334.375 193.425L334.509 193.139L333.211 192.531Z" fill="#7A3F0D"/>
<path d="M335.075 188.556L334.941 188.842L336.24 189.451L336.374 189.165L335.075 188.556Z" fill="#7A3F0D"/>
<path d="M336.941 184.583L336.807 184.869L338.105 185.478L338.239 185.192L336.941 184.583Z" fill="#7A3F0D"/>
<path d="M338.793 180.636L338.659 180.922L339.958 181.531L340.092 181.245L338.793 180.636Z" fill="#7A3F0D"/>
<path opacity="0.15" d="M339.42 199.612L333.858 211.486L322.358 215.637L327.954 203.742L339.42 199.612Z" fill="white"/>
</g>
</g>
<path d="M404 125C414.493 125 423 116.493 423 106C423 95.5066 414.493 87 404 87C393.507 87 385 95.5066 385 106C385 116.493 393.507 125 404 125Z" fill="#F43A1C"/>
<path d="M413.885 89.7695C416.654 93.0722 418.317 97.3207 418.317 101.966C418.317 112.461 409.812 120.966 399.317 120.966C395.701 120.966 392.322 119.951 389.439 118.197C392.925 122.354 398.157 125.001 404.007 125.001C414.503 125.001 423.007 116.496 423.007 106.001C423.007 99.1284 419.354 93.1027 413.885 89.7695Z" fill="#D32B1A"/>
<path d="M418.05 93.202C417.257 92.3325 416.38 91.5316 415.442 90.8223C414.496 92.3859 409.866 99.3726 401.27 101.485C391.499 103.896 386.145 99.4947 386.145 99.4871C385.687 100.746 385.359 102.065 385.168 103.438C385.207 103.461 392.003 108.06 403.276 105.192C414.42 102.363 417.951 93.4537 418.05 93.202Z" fill="#ECECEC"/>
<path d="M409.37 117.677C402.36 120.705 391.095 119.081 390.08 118.897C391.117 120.019 392.292 121.01 393.573 121.857C395.053 122.505 403.161 123.443 410.674 120.637C417.768 117.99 421.993 112.147 421.993 112.147C422.596 110.385 422.947 108.501 423.008 106.541C422.802 106.877 418.454 113.749 409.37 117.677Z" fill="#ECECEC"/>
<path d="M411.116 116.854C407.874 119.424 403.778 120.957 399.324 120.957C396.326 120.957 393.489 120.263 390.964 119.02C390.522 118.959 390.178 118.905 390.041 118.882C391.078 120.004 392.268 121.041 393.55 121.888C395.029 122.536 403.16 123.436 410.673 120.637C417.637 118.043 421.832 112.361 421.992 112.147C422.595 110.385 422.946 108.501 423.007 106.549C422.732 106.984 418.926 112.91 411.116 116.854Z" fill="#C6C6C6"/>
<g opacity="0.18">
<path opacity="0.18" d="M392.696 94.1311C390.652 96.2973 389.348 99.2263 389.447 102.193C389.5 103.787 389.981 105.427 391.117 106.549C392.246 107.67 394.107 108.128 395.495 107.342C396.327 106.877 396.891 106.053 397.364 105.221C398.302 103.574 399.027 101.774 400.301 100.37C402.177 98.3033 405.06 97.3194 406.845 95.1685C407.585 94.2684 408.119 93.0328 407.676 91.9497C406.792 89.7759 402.329 89.4555 400.362 89.7225C397.578 90.1115 394.572 92.1404 392.696 94.1311Z" fill="white"/>
</g>
<path d="M396.792 106.123C396.998 105.833 397.189 105.536 397.364 105.23C397.99 104.14 398.516 102.98 399.172 101.92C394.939 102.599 391.674 101.981 389.477 101.203C389.455 101.531 389.447 101.867 389.455 102.202C389.493 103.339 389.752 104.498 390.309 105.482C392.055 105.894 394.237 106.191 396.792 106.123Z" fill="white"/>
<path d="M338.944 83.6566C338.822 82.8259 338.608 82.0568 338.394 81.5646C336.68 78.0266 331.019 72.4274 330.59 70.4893C330.162 68.5511 330.254 61.506 330.162 59.8139C330.07 58.1219 329.397 55.1992 329.397 55.1992L318.595 55.6915C318.595 55.6915 318.258 58.9217 318.595 61.9982C318.931 65.0747 319.421 67.3513 319.084 68.8895C318.931 69.5663 318.656 70.397 318.411 71.2276L323.919 72.3659C323.919 72.3659 324.256 73.658 323.154 75.6885C322.726 76.4884 322.053 77.2883 321.471 77.9036C324.042 79.1649 324.44 81.2877 325.602 83.0413C326.429 84.2719 327.836 87.1637 330.04 88.8558C331.08 87.133 333.62 83.7489 338.944 83.6566Z" fill="#EC2E28"/>
<path d="M318.625 55.661C318.625 55.661 319.299 54.4612 318.962 52.3384C320.706 52.4922 328.999 52 328.999 52C328.999 52 328.907 53.1998 328.999 53.7844C329.091 54.3381 329.428 55.1688 329.428 55.1688C329.428 55.1688 328.326 55.7225 324.317 56.0609C319.727 56.4301 318.625 55.661 318.625 55.661Z" fill="#FF6161"/>
<path d="M330.131 88.6411C331.08 89.3795 332.182 89.9025 333.467 89.9332C337.659 90.0871 338.638 87.5951 338.975 86.5491C339.159 85.9338 339.128 84.6417 338.944 83.4727C333.62 83.565 331.08 86.9491 330.131 88.6411Z" fill="#FF6161"/>
<path d="M323.98 72.3356L318.472 71.1973C318.166 72.274 317.891 73.3508 318.044 74.1199C318.074 74.3045 318.105 74.4583 318.166 74.6429C319.145 73.9661 321.104 72.8586 323.98 72.3356Z" fill="#FF4D4D"/>
<path d="M318.165 74.6438C318.471 75.7821 319.205 76.7973 321.47 77.8433C321.501 77.8433 321.501 77.8741 321.531 77.8741C322.113 77.2588 322.786 76.4589 323.214 75.659C324.255 73.7516 324.01 72.4595 323.979 72.3672C321.103 72.8594 319.144 73.967 318.165 74.6438Z" fill="#FF6161"/>
<path d="M350.846 83.6566C350.723 82.8259 350.509 82.0568 350.295 81.5646C348.581 78.0266 342.92 72.4274 342.492 70.4893C342.063 68.5511 342.155 61.506 342.063 59.8139C341.972 58.1219 341.298 55.1992 341.298 55.1992L330.496 55.6915C330.496 55.6915 330.159 58.9217 330.496 61.9982C330.833 65.0747 331.322 67.3513 330.986 68.8895C330.833 69.5663 330.557 70.397 330.312 71.2276L335.821 72.3659C335.821 72.3659 336.157 73.658 335.056 75.6885C334.627 76.4884 333.954 77.2883 333.373 77.9036C335.943 79.1649 336.341 81.2877 337.504 83.0413C338.33 84.2719 339.738 87.1637 341.941 88.8558C342.981 87.133 345.521 83.7489 350.846 83.6566Z" fill="#EC2E28"/>
<path d="M330.527 55.661C330.527 55.661 331.2 54.4612 330.863 52.3384C332.608 52.4922 340.901 52 340.901 52C340.901 52 340.809 53.1998 340.901 53.7844C340.992 54.3381 341.329 55.1688 341.329 55.1688C341.329 55.1688 340.227 55.7225 336.219 56.0609C331.628 56.4301 330.527 55.661 330.527 55.661Z" fill="#FF6161"/>
<path d="M342.033 88.6411C342.981 89.3795 344.083 89.9025 345.368 89.9332C349.561 90.0871 350.54 87.5951 350.876 86.5491C351.06 85.9338 351.029 84.6417 350.846 83.4727C345.521 83.565 342.981 86.9491 342.033 88.6411Z" fill="#FF6161"/>
<path d="M335.882 72.3356L330.373 71.1973C330.067 72.274 329.792 73.3508 329.945 74.1199C329.976 74.3045 330.006 74.4583 330.067 74.6429C331.047 73.9661 333.005 72.8586 335.882 72.3356Z" fill="#FF4D4D"/>
<path d="M330.066 74.6438C330.372 75.7821 331.107 76.7973 333.371 77.8433C333.402 77.8433 333.402 77.8741 333.433 77.8741C334.014 77.2588 334.687 76.4589 335.116 75.659C336.156 73.7516 335.911 72.4595 335.881 72.3672C333.004 72.8594 331.046 73.967 330.066 74.6438Z" fill="#FF6161"/>
<path d="M105.823 218.529C107.026 217.988 108.23 217.376 109.362 216.671C112.146 214.978 116.393 211.568 113.35 208.135C112.123 206.748 109.409 206.419 107.711 206.607C103.487 207.007 100.019 210.51 97.6833 213.779C96.4328 215.542 94.5217 219.987 97.7068 221.092C99.2405 221.609 101.859 220.128 103.346 219.563C104.195 219.234 105.021 218.905 105.823 218.529Z" fill="#6756AD"/>
<path d="M92.8944 232.684C93.1304 233.977 93.4371 235.27 93.8382 236.54C94.8291 239.667 97.1177 244.605 101.199 242.489C102.851 241.642 103.818 239.103 104.054 237.41C104.668 233.224 102.096 229.015 99.4771 225.982C98.0615 224.336 94.1921 221.42 92.3518 224.242C91.4788 225.582 92.281 228.498 92.4697 230.074C92.6113 230.944 92.7293 231.814 92.8944 232.684Z" fill="#6756AD"/>
<path d="M79.7997 220.151C78.502 220.409 77.2044 220.715 75.9303 221.138C72.7923 222.149 67.8847 224.477 70.0318 228.522C70.9048 230.168 73.4529 231.085 75.1517 231.32C79.3514 231.884 83.5511 229.298 86.5712 226.664C88.1991 225.23 91.1012 221.35 88.2463 219.563C86.8779 218.693 83.9758 219.539 82.395 219.751C81.5221 219.845 80.6491 219.986 79.7997 220.151Z" fill="#6756AD"/>
<path d="M90.7474 207.641C90.4407 206.348 90.0868 205.078 89.6385 203.832C88.506 200.752 86.005 195.931 82.0176 198.212C80.4133 199.129 79.5639 201.716 79.3751 203.409C78.9504 207.618 81.6873 211.709 84.4478 214.625C85.9342 216.2 89.9216 218.951 91.644 216.036C92.4698 214.648 91.526 211.803 91.2665 210.228C91.1249 209.358 90.9598 208.488 90.7474 207.641Z" fill="#6756AD"/>
<path d="M115.403 226.546C116.064 222.032 111.392 220.009 107.476 219.351C104.621 218.881 96.9765 217.823 95.2542 221.068C93.6026 224.195 98.0382 226.876 100.256 227.934C104.149 229.744 114.365 233.577 115.403 226.546Z" fill="#6756AD"/>
<path d="M100.398 197.859C96.0335 196.425 93.2494 200.681 91.9281 204.42C90.9844 207.147 88.625 214.46 91.5506 216.694C94.3583 218.857 97.7558 214.954 99.1715 212.955C101.649 209.475 107.17 200.093 100.398 197.859Z" fill="#6756AD"/>
<path d="M83.4572 241.925C87.8929 243.124 90.4411 238.727 91.55 234.917C92.3522 232.143 94.3105 224.712 91.2668 222.62C88.3412 220.621 85.156 224.689 83.8583 226.758C81.5933 230.379 76.5678 240.067 83.4572 241.925Z" fill="#6756AD"/>
<path d="M69.5604 214.602C68.9705 219.14 73.6893 221.068 77.6295 221.633C80.4844 222.056 88.1524 222.949 89.804 219.681C91.4084 216.53 86.9019 213.943 84.6841 212.932C80.7675 211.192 70.457 207.548 69.5604 214.602Z" fill="#6756AD"/>
<path d="M93.4385 210.369C88.2478 210.158 83.1751 215.472 84.0717 220.763C85.3929 228.405 96.0574 230.45 100.352 224.548C103.773 219.846 101.059 213.121 95.9394 210.934C95.1136 210.605 94.2879 210.416 93.4385 210.369Z" fill="#EDB544"/>
<path d="M103.811 146.793C104.833 146.334 105.855 145.815 106.816 145.216C109.181 143.778 112.787 140.883 110.202 137.968C109.16 136.79 106.856 136.51 105.414 136.67C101.828 137.009 98.8825 139.985 96.899 142.76C95.8371 144.258 94.2143 148.031 96.919 148.97C98.2213 149.409 100.445 148.151 101.707 147.672C102.429 147.392 103.13 147.113 103.811 146.793Z" fill="#56AD5F"/>
<path d="M92.8328 158.814C93.0331 159.913 93.2936 161.011 93.6342 162.089C94.4757 164.745 96.4191 168.938 99.8851 167.141C101.288 166.422 102.109 164.266 102.309 162.828C102.83 159.274 100.646 155.7 98.4226 153.124C97.2205 151.726 93.9347 149.25 92.372 151.646C91.6307 152.784 92.3119 155.26 92.4722 156.598C92.5924 157.337 92.6925 158.076 92.8328 158.814Z" fill="#56AD5F"/>
<path d="M81.7135 148.172C80.6116 148.392 79.5097 148.651 78.4278 149.01C75.7631 149.869 71.5958 151.846 73.419 155.28C74.1603 156.678 76.3241 157.457 77.7666 157.656C81.3329 158.136 84.8991 155.939 87.4636 153.703C88.846 152.485 91.3104 149.19 88.8861 147.673C87.7241 146.934 85.2598 147.653 83.9174 147.832C83.1761 147.912 82.4348 148.032 81.7135 148.172Z" fill="#56AD5F"/>
<path d="M91.0098 137.548C90.7494 136.449 90.4489 135.371 90.0682 134.313C89.1065 131.697 86.9828 127.604 83.5968 129.541C82.2345 130.319 81.5132 132.516 81.3529 133.953C80.9923 137.528 83.3164 141.002 85.6605 143.478C86.9227 144.816 90.3086 147.152 91.7712 144.676C92.4724 143.498 91.671 141.082 91.4506 139.744C91.3304 139.005 91.1902 138.266 91.0098 137.548Z" fill="#56AD5F"/>
<path d="M111.947 153.603C112.508 149.77 108.541 148.052 105.215 147.493C102.791 147.094 96.2991 146.195 94.8366 148.951C93.4341 151.606 97.2007 153.883 99.084 154.781C102.39 156.319 111.065 159.573 111.947 153.603Z" fill="#56AD5F"/>
<path d="M99.2045 129.242C95.498 128.024 93.1339 131.638 92.0119 134.813C91.2105 137.129 89.207 143.339 91.6914 145.236C94.0756 147.073 96.9606 143.758 98.1627 142.061C100.266 139.106 104.955 131.139 99.2045 129.242Z" fill="#56AD5F"/>
<path d="M84.8188 166.66C88.5854 167.678 90.7492 163.945 91.6908 160.71C92.372 158.354 94.0349 152.044 91.4504 150.267C88.966 148.57 86.2613 152.024 85.1594 153.781C83.236 156.856 78.9685 165.083 84.8188 166.66Z" fill="#56AD5F"/>
<path d="M73.0186 143.459C72.5177 147.313 76.5248 148.95 79.8706 149.429C82.2949 149.788 88.8063 150.547 90.2088 147.772C91.5711 145.096 87.7444 142.9 85.8611 142.041C82.5353 140.564 73.78 137.469 73.0186 143.459Z" fill="#56AD5F"/>
<path d="M93.2949 139.865C88.8871 139.685 84.5796 144.197 85.3409 148.69C86.4629 155.179 95.5188 156.917 99.1652 151.905C102.07 147.911 99.7662 142.201 95.4186 140.344C94.7174 140.064 94.0161 139.905 93.2949 139.865Z" fill="#EDB544"/>
<path d="M105.823 74.5286C107.026 73.9878 108.23 73.3765 109.362 72.671C112.146 70.978 116.393 67.5685 113.35 64.1354C112.123 62.7481 109.409 62.4189 107.711 62.607C103.487 63.0068 100.019 66.5104 97.6833 69.7788C96.4328 71.5424 94.5217 75.9865 97.7068 77.0917C99.2405 77.609 101.859 76.1276 103.346 75.5633C104.195 75.2341 105.021 74.9049 105.823 74.5286Z" fill="#0F8AB5"/>
<path d="M92.8944 88.6836C93.1304 89.9769 93.4371 91.2702 93.8382 92.5399C94.8291 95.6673 97.1177 100.605 101.199 98.489C102.851 97.6425 103.818 95.103 104.054 93.41C104.668 89.2245 102.096 85.0155 99.4771 81.9822C98.0615 80.3362 94.1921 77.4204 92.3518 80.2421C91.4788 81.5824 92.281 84.4982 92.4697 86.0736C92.6113 86.9436 92.7293 87.8136 92.8944 88.6836Z" fill="#0F8AB5"/>
<path d="M79.7997 76.1507C78.502 76.4093 77.2044 76.715 75.9303 77.1382C72.7923 78.1493 67.8847 80.4772 70.0318 84.5216C70.9048 86.1676 73.4529 87.0847 75.1517 87.3198C79.3514 87.8841 83.5511 85.2976 86.5712 82.664C88.1991 81.2297 91.1012 77.3499 88.2463 75.5628C86.8779 74.6928 83.9758 75.5393 82.395 75.7509C81.5221 75.845 80.6491 75.9861 79.7997 76.1507Z" fill="#0F8AB5"/>
<path d="M90.7474 63.6413C90.4407 62.348 90.0868 61.0782 89.6385 59.832C88.506 56.7517 86.005 51.9313 82.0176 54.2121C80.4133 55.1292 79.5639 57.7157 79.3751 59.4087C78.9504 63.6177 81.6873 67.7092 84.4478 70.6249C85.9342 72.2004 89.9216 74.9515 91.644 72.0358C92.4698 70.6484 91.526 67.8032 91.2665 66.2278C91.1249 65.3578 90.9598 64.4878 90.7474 63.6413Z" fill="#0F8AB5"/>
<path d="M115.403 82.5463C116.064 78.0316 111.392 76.0094 107.476 75.351C104.621 74.8808 96.9765 73.8226 95.2542 77.0676C93.6026 80.1949 98.0382 82.8755 100.256 83.9336C104.149 85.7442 114.365 89.577 115.403 82.5463Z" fill="#0F8AB5"/>
<path d="M100.398 53.8593C96.0335 52.4249 93.2494 56.681 91.9281 60.4197C90.9844 63.1473 88.625 70.4602 91.5506 72.694C94.3583 74.8573 97.7558 70.954 99.1715 68.9553C101.649 65.4752 107.17 56.0931 100.398 53.8593Z" fill="#0F8AB5"/>
<path d="M83.4572 97.9246C87.8929 99.1238 90.4411 94.7267 91.55 90.9174C92.3522 88.1428 94.3105 80.7124 91.2668 78.6196C88.3412 76.6209 85.156 80.6889 83.8583 82.7581C81.5933 86.3792 76.5678 96.067 83.4572 97.9246Z" fill="#0F8AB5"/>
<path d="M69.5604 70.6019C68.9705 75.1401 73.6893 77.0682 77.6295 77.6326C80.4844 78.0558 88.1524 78.9493 89.804 75.6809C91.4084 72.53 86.9019 69.9435 84.6841 68.9324C80.7675 67.1923 70.457 63.5477 69.5604 70.6019Z" fill="#0F8AB5"/>
<path d="M93.4385 66.3694C88.2478 66.1578 83.1751 71.4719 84.0717 76.7626C85.3929 84.4046 96.0574 86.4504 100.352 80.5483C103.773 75.8455 101.059 69.1205 95.9394 66.9337C95.1136 66.6045 94.2879 66.4164 93.4385 66.3694Z" fill="#EDB544"/>
<path d="M245.553 149.563C246.732 149.033 247.91 148.434 249.02 147.743C251.748 146.085 255.908 142.744 252.926 139.381C251.724 138.022 249.066 137.699 247.402 137.883C243.264 138.275 239.866 141.708 237.578 144.91C236.353 146.637 234.48 150.991 237.601 152.074C239.104 152.581 241.669 151.13 243.126 150.577C243.958 150.254 244.767 149.932 245.553 149.563Z" fill="#F43A1C"/>
<path d="M232.886 163.432C233.117 164.699 233.418 165.966 233.811 167.21C234.781 170.274 237.024 175.111 241.022 173.038C242.641 172.209 243.588 169.721 243.819 168.062C244.42 163.962 241.901 159.838 239.335 156.866C237.948 155.254 234.157 152.397 232.354 155.162C231.499 156.475 232.285 159.331 232.47 160.875C232.609 161.727 232.724 162.579 232.886 163.432Z" fill="#F43A1C"/>
<path d="M220.057 151.152C218.786 151.406 217.514 151.705 216.266 152.12C213.192 153.111 208.384 155.391 210.487 159.354C211.343 160.966 213.839 161.865 215.503 162.095C219.618 162.648 223.732 160.114 226.691 157.534C228.286 156.128 231.129 152.327 228.332 150.576C226.992 149.724 224.148 150.553 222.6 150.761C221.744 150.853 220.889 150.991 220.057 151.152Z" fill="#F43A1C"/>
<path d="M230.783 138.897C230.482 137.63 230.136 136.386 229.696 135.165C228.587 132.147 226.137 127.425 222.23 129.659C220.658 130.558 219.826 133.092 219.641 134.75C219.225 138.874 221.907 142.882 224.611 145.739C226.067 147.282 229.974 149.978 231.661 147.121C232.47 145.762 231.546 142.974 231.291 141.431C231.153 140.579 230.991 139.726 230.783 138.897Z" fill="#F43A1C"/>
<path d="M254.938 157.42C255.586 152.997 251.009 151.016 247.172 150.371C244.375 149.91 236.885 148.874 235.198 152.053C233.58 155.117 237.926 157.743 240.098 158.78C243.912 160.554 253.921 164.309 254.938 157.42Z" fill="#F43A1C"/>
<path d="M240.238 129.314C235.961 127.909 233.234 132.079 231.939 135.742C231.015 138.414 228.703 145.578 231.569 147.767C234.32 149.886 237.649 146.062 239.036 144.104C241.463 140.695 246.872 131.503 240.238 129.314Z" fill="#F43A1C"/>
<path d="M223.64 172.485C227.986 173.66 230.482 169.352 231.569 165.62C232.355 162.902 234.273 155.622 231.291 153.572C228.425 151.613 225.305 155.599 224.033 157.626C221.814 161.174 216.891 170.665 223.64 172.485Z" fill="#F43A1C"/>
<path d="M210.026 145.716C209.448 150.163 214.071 152.052 217.931 152.604C220.728 153.019 228.24 153.895 229.858 150.692C231.43 147.605 227.015 145.071 224.842 144.081C221.005 142.376 210.904 138.805 210.026 145.716Z" fill="#F43A1C"/>
<path d="M233.419 141.57C228.334 141.363 223.364 146.569 224.242 151.753C225.537 159.24 235.985 161.244 240.192 155.462C243.543 150.854 240.885 144.266 235.869 142.123C235.06 141.801 234.251 141.617 233.419 141.57Z" fill="#F88686"/>
<defs>
<clipPath id="clip0_6050_137900">
<rect width="50" height="50" fill="white" transform="translate(309 175)"/>
</clipPath>
<clipPath id="clip1_6050_137900">
<rect width="17.0364" height="47.5242" fill="white" transform="translate(332 175) rotate(14.253)"/>
</clipPath>
</defs>
</svg>
