<svg width="270" height="179" viewBox="0 0 270 179" fill="none" xmlns="http://www.w3.org/2000/svg">
<rect x="0.5" y="0.5" width="269" height="178" rx="4.5" stroke="#D0D0D0"/>
<path d="M0 5C0 2.23858 2.23858 0 5 0H265C267.761 0 270 2.23858 270 5V28H0V5Z" fill="#205B64"/>
<path d="M118.99 10.88V13.84H124.174V15.92H118.99V20H116.398V8.8H124.862V10.88H118.99ZM126.441 8.128H128.937V20H126.441V8.128ZM134.726 11.264C136.059 11.264 137.083 11.584 137.798 12.224C138.512 12.8533 138.87 13.808 138.87 15.088V20H136.534V18.928C136.064 19.728 135.19 20.128 133.91 20.128C133.248 20.128 132.672 20.016 132.182 19.792C131.702 19.568 131.334 19.2587 131.078 18.864C130.822 18.4693 130.694 18.0213 130.694 17.52C130.694 16.72 130.992 16.0907 131.59 15.632C132.198 15.1733 133.131 14.944 134.39 14.944H136.374C136.374 14.4 136.208 13.984 135.878 13.696C135.547 13.3973 135.051 13.248 134.39 13.248C133.931 13.248 133.478 13.3227 133.03 13.472C132.592 13.6107 132.219 13.8027 131.91 14.048L131.014 12.304C131.483 11.9733 132.043 11.7173 132.694 11.536C133.355 11.3547 134.032 11.264 134.726 11.264ZM134.534 18.448C134.96 18.448 135.339 18.352 135.67 18.16C136 17.9573 136.235 17.664 136.374 17.28V16.4H134.662C133.638 16.4 133.126 16.736 133.126 17.408C133.126 17.728 133.248 17.984 133.494 18.176C133.75 18.3573 134.096 18.448 134.534 18.448ZM146.681 19.584C146.435 19.7653 146.131 19.904 145.769 20C145.417 20.0853 145.043 20.128 144.649 20.128C143.625 20.128 142.83 19.8667 142.265 19.344C141.71 18.8213 141.433 18.0533 141.433 17.04V13.504H140.105V11.584H141.433V9.488H143.929V11.584H146.073V13.504H143.929V17.008C143.929 17.3707 144.019 17.6533 144.201 17.856C144.393 18.048 144.659 18.144 145.001 18.144C145.395 18.144 145.731 18.0373 146.009 17.824L146.681 19.584Z" fill="white"/>
<g clip-path="url(#clip0_6050_133670)">
<path d="M40.5 42L66.0477 87H14.9523L40.5 42Z" fill="#E8589C"/>
</g>
<rect x="81" y="43" width="49" height="49" fill="#56AD5F"/>
<path d="M170 41L192.95 54.25V80.75L170 94L147.05 80.75V54.25L170 41Z" fill="#369CB7"/>
<g clip-path="url(#clip1_6050_133670)">
<path d="M235.6 39.1992L244.586 56.231L263.561 59.5141L250.14 73.3235L252.881 92.3843L235.6 83.8872L218.319 92.3843L221.06 73.3235L207.639 59.5141L226.614 56.231L235.6 39.1992Z" fill="#6885D0"/>
</g>
<circle cx="40" cy="138" r="24" fill="#FCA66B"/>
<defs>
<clipPath id="clip0_6050_133670">
<rect width="60" height="60" fill="white" transform="translate(10 38)"/>
</clipPath>
<clipPath id="clip1_6050_133670">
<rect width="60" height="60" fill="white" transform="translate(205 38)"/>
</clipPath>
</defs>
</svg>
