<svg width="270" height="179" viewBox="0 0 270 179" fill="none" xmlns="http://www.w3.org/2000/svg">
<rect x="0.5" y="0.5" width="269" height="178" rx="4.5" stroke="#D0D0D0"/>
<path d="M0 5C0 2.23858 2.23858 0 5 0H265C267.761 0 270 2.23858 270 5V28H0V5Z" fill="#205B64"/>
<path d="M115.313 20.192C114.427 20.192 113.569 20.0747 112.737 19.84C111.915 19.5947 111.254 19.28 110.753 18.896L111.633 16.944C112.113 17.296 112.683 17.5787 113.345 17.792C114.006 18.0053 114.667 18.112 115.329 18.112C116.065 18.112 116.609 18.0053 116.961 17.792C117.313 17.568 117.489 17.2747 117.489 16.912C117.489 16.6453 117.382 16.4267 117.169 16.256C116.966 16.0747 116.699 15.9307 116.369 15.824C116.049 15.7173 115.611 15.6 115.057 15.472C114.203 15.2693 113.505 15.0667 112.961 14.864C112.417 14.6613 111.947 14.336 111.553 13.888C111.169 13.44 110.977 12.8427 110.977 12.096C110.977 11.4453 111.153 10.8587 111.505 10.336C111.857 9.80267 112.385 9.38133 113.089 9.072C113.803 8.76267 114.673 8.608 115.697 8.608C116.411 8.608 117.11 8.69333 117.793 8.864C118.475 9.03467 119.073 9.28 119.585 9.6L118.785 11.568C117.75 10.9813 116.715 10.688 115.681 10.688C114.955 10.688 114.417 10.8053 114.065 11.04C113.723 11.2747 113.553 11.584 113.553 11.968C113.553 12.352 113.75 12.64 114.145 12.832C114.55 13.0133 115.163 13.1947 115.985 13.376C116.838 13.5787 117.537 13.7813 118.081 13.984C118.625 14.1867 119.089 14.5067 119.473 14.944C119.867 15.3813 120.065 15.9733 120.065 16.72C120.065 17.36 119.883 17.9467 119.521 18.48C119.169 19.0027 118.635 19.4187 117.921 19.728C117.206 20.0373 116.337 20.192 115.313 20.192ZM125.756 20.128C124.849 20.128 124.033 19.9413 123.308 19.568C122.593 19.184 122.033 18.656 121.628 17.984C121.222 17.312 121.02 16.5493 121.02 15.696C121.02 14.8427 121.222 14.08 121.628 13.408C122.033 12.736 122.593 12.2133 123.308 11.84C124.033 11.456 124.849 11.264 125.756 11.264C126.662 11.264 127.473 11.456 128.188 11.84C128.902 12.2133 129.462 12.736 129.868 13.408C130.273 14.08 130.476 14.8427 130.476 15.696C130.476 16.5493 130.273 17.312 129.868 17.984C129.462 18.656 128.902 19.184 128.188 19.568C127.473 19.9413 126.662 20.128 125.756 20.128ZM125.756 18.08C126.396 18.08 126.918 17.8667 127.324 17.44C127.74 17.0027 127.948 16.4213 127.948 15.696C127.948 14.9707 127.74 14.3947 127.324 13.968C126.918 13.5307 126.396 13.312 125.756 13.312C125.116 13.312 124.588 13.5307 124.172 13.968C123.756 14.3947 123.548 14.9707 123.548 15.696C123.548 16.4213 123.756 17.0027 124.172 17.44C124.588 17.8667 125.116 18.08 125.756 18.08ZM132.144 8.128H134.64V20H132.144V8.128ZM136.957 11.392H139.453V20H136.957V11.392ZM138.205 10.192C137.746 10.192 137.373 10.0587 137.085 9.792C136.797 9.52533 136.653 9.19467 136.653 8.8C136.653 8.40533 136.797 8.07467 137.085 7.808C137.373 7.54133 137.746 7.408 138.205 7.408C138.663 7.408 139.037 7.536 139.325 7.792C139.613 8.048 139.757 8.368 139.757 8.752C139.757 9.168 139.613 9.51467 139.325 9.792C139.037 10.0587 138.663 10.192 138.205 10.192ZM150.537 8.128V20H148.153V19.008C147.535 19.7547 146.639 20.128 145.465 20.128C144.655 20.128 143.919 19.9467 143.257 19.584C142.607 19.2213 142.095 18.704 141.721 18.032C141.348 17.36 141.161 16.5813 141.161 15.696C141.161 14.8107 141.348 14.032 141.721 13.36C142.095 12.688 142.607 12.1707 143.257 11.808C143.919 11.4453 144.655 11.264 145.465 11.264C146.564 11.264 147.423 11.6107 148.041 12.304V8.128H150.537ZM145.897 18.08C146.527 18.08 147.049 17.8667 147.465 17.44C147.881 17.0027 148.089 16.4213 148.089 15.696C148.089 14.9707 147.881 14.3947 147.465 13.968C147.049 13.5307 146.527 13.312 145.897 13.312C145.257 13.312 144.729 13.5307 144.313 13.968C143.897 14.3947 143.689 14.9707 143.689 15.696C143.689 16.4213 143.897 17.0027 144.313 17.44C144.729 17.8667 145.257 18.08 145.897 18.08Z" fill="white"/>
<path d="M65.0436 53.1456C65.6243 52.7501 50.611 45.9033 41.5166 44C32.3233 44.7415 14.9128 48.9312 15.543 49.7222C21.8943 52.7996 33.8679 58.9667 35.4619 59.1026C37.0559 59.2633 64.228 53.7018 65.0436 53.1456Z" fill="#9584BC"/>
<path d="M65.0436 53.1455C65.0436 53.1455 65.8097 82.4732 64.2775 84.0428C62.7329 85.6124 36.7593 92.2492 35.4125 92.1503C35.2148 80.2239 35.3136 60.4744 35.4619 59.1025C41.2819 56.9644 65.0436 53.1455 65.0436 53.1455Z" fill="#7A6EAF"/>
<path d="M15.5554 49.7217C15.0241 50.1172 14.1591 79.2472 14.641 80.0258C15.123 80.8044 34.6093 92.2611 35.4248 92.1499C36.2404 92.051 35.7214 59.7942 35.4743 59.1021C35.2271 58.4347 15.5554 49.7217 15.5554 49.7217Z" fill="#6863A3"/>
<path d="M35.4621 59.1145C34.9184 57.409 34.8319 91.569 35.4127 92.1622C35.9934 92.7431 36.4753 62.3402 35.4621 59.1145Z" fill="#BBA3CD"/>
<path d="M65.0436 53.1455C65.0436 53.1455 48.1151 54.4185 35.4619 59.1025C41.8626 58.4351 65.0436 53.1455 65.0436 53.1455Z" fill="#BBA3CD"/>
<path d="M15.5552 49.7217C16.2719 50.698 33.88 58.719 35.474 59.1021C33.015 56.7663 15.5552 49.7217 15.5552 49.7217Z" fill="#BBA3CD"/>
<path d="M105.226 41L124.945 88.1899C124.945 88.1899 121.867 91.4973 116.507 92.8631C112.255 93.9483 105.219 94 105.219 94C105.219 94 98.1832 93.9483 93.9308 92.8631C93.7241 92.8114 93.5248 92.7523 93.3254 92.7007C90.0106 91.7335 87.6408 90.0577 86.4301 89.0462C85.8173 88.5368 85.4998 88.1899 85.4998 88.1899L85.7878 87.4959L105.226 41Z" fill="#0246BF"/>
<path d="M104.333 87.7329L106.629 85.3631L109.907 85.7839L108.342 83.0154L109.863 80.1362L106.592 80.8006L104.26 78.6006L103.809 81.7751L100.841 83.2959L103.831 84.5953L104.333 87.7329Z" fill="#FEBE00"/>
<path d="M107.028 78.1941C107.109 77.2639 107.183 76.3263 107.264 75.3961C107.271 75.3223 107.323 75.2559 107.404 75.2559C107.478 75.2559 107.552 75.3223 107.544 75.3961C107.463 76.3263 107.389 77.2639 107.308 78.1941C107.301 78.268 107.249 78.3344 107.168 78.3344C107.101 78.3344 107.028 78.268 107.028 78.1941Z" fill="#FEBE00"/>
<path d="M106.385 77.8327C106.378 76.777 106.245 75.7287 105.987 74.7099C105.942 74.5327 106.216 74.4515 106.26 74.636C106.518 75.6844 106.658 76.7622 106.666 77.8401C106.673 78.0173 106.393 78.0173 106.385 77.8327Z" fill="#FEBE00"/>
<path d="M102.916 80.7199C102.569 80.0776 102.074 79.5165 101.469 79.1104C101.314 79.0071 101.461 78.7561 101.616 78.8594C102.266 79.295 102.805 79.8856 103.167 80.5722C103.248 80.7346 102.997 80.8823 102.916 80.7199Z" fill="#FEBE00"/>
<path d="M102.318 81.1036C101.793 80.6902 101.232 80.3285 100.642 80.0258C100.479 79.9446 100.62 79.6935 100.789 79.7748C101.402 80.0922 101.985 80.4687 102.524 80.8969C102.583 80.9486 102.576 81.052 102.524 81.0962C102.458 81.1627 102.377 81.1553 102.318 81.1036Z" fill="#FEBE00"/>
<path d="M102.51 86.6551C102.325 86.6551 102.325 86.3672 102.51 86.3672C102.694 86.3672 102.694 86.6551 102.51 86.6551Z" fill="#FEBE00"/>
<path d="M102.605 86.6032C102.133 87.0093 101.66 87.4079 101.188 87.814C101.129 87.8656 101.04 87.873 100.989 87.814C100.937 87.7623 100.93 87.6589 100.989 87.6146C101.461 87.2086 101.934 86.8099 102.406 86.4039C102.465 86.3522 102.554 86.3448 102.605 86.4039C102.657 86.4556 102.664 86.5515 102.605 86.6032Z" fill="#FEBE00"/>
<path d="M102.347 85.9834C101.801 86.5149 101.122 86.8988 100.383 87.0908C100.206 87.1351 100.125 86.8619 100.31 86.8176C101.004 86.6404 101.638 86.2787 102.148 85.7841C102.273 85.6512 102.48 85.8505 102.347 85.9834Z" fill="#FEBE00"/>
<path d="M107.065 86.8025C107.515 87.4744 107.847 88.2274 108.039 89.0173C108.084 89.1945 107.803 89.2757 107.766 89.0912C107.581 88.3234 107.264 87.5999 106.821 86.9502C106.718 86.7878 106.961 86.6475 107.065 86.8025Z" fill="#FEBE00"/>
<path d="M106.489 87.7257C106.755 88.4714 107.146 89.1653 107.648 89.7781C107.7 89.8372 107.707 89.9257 107.648 89.9774C107.596 90.0291 107.493 90.0365 107.449 89.9774C106.917 89.3204 106.504 88.5895 106.216 87.7995C106.186 87.7257 106.245 87.6445 106.319 87.6224C106.393 87.6002 106.459 87.6519 106.489 87.7257Z" fill="#FEBE00"/>
<path d="M110.284 84.0195C111.155 84.0195 112.033 84.0195 112.905 84.0195C113.089 84.0195 113.089 84.3075 112.905 84.3075C112.033 84.3075 111.155 84.3075 110.284 84.3075C110.099 84.3075 110.099 84.0195 110.284 84.0195Z" fill="#FEBE00"/>
<path d="M110.556 83.3993C110.372 83.3993 110.372 83.1113 110.556 83.1113C110.741 83.1113 110.741 83.3993 110.556 83.3993Z" fill="#FEBE00"/>
<path d="M110.52 83.1192C111.347 82.9051 112.151 82.6024 112.919 82.2185C113.082 82.1373 113.229 82.3809 113.067 82.4695C112.277 82.8681 111.45 83.1782 110.601 83.3997C110.416 83.444 110.343 83.1635 110.52 83.1192Z" fill="#FEBE00"/>
<path d="M93.51 75.0121L96.2415 73.9195L98.759 75.4403L98.4859 72.6275L100.767 70.8336L97.8657 70.1913L96.7657 67.5557L95.2449 69.9772L93.1113 70.0953L92.8381 70.745L94.2408 72.2806L93.51 75.0121Z" fill="#FEBE00"/>
<path d="M99.1652 68.2197C99.5639 67.4888 99.9699 66.7579 100.369 66.027C100.406 65.968 100.472 65.9311 100.538 65.9606C100.597 65.9901 100.634 66.0713 100.605 66.1304C100.206 66.8613 99.8001 67.5922 99.4015 68.323C99.3646 68.3821 99.2981 68.419 99.2317 68.3895C99.1726 68.3673 99.1357 68.2861 99.1652 68.2197Z" fill="#FEBE00"/>
<path d="M98.7738 67.6955C99.1504 66.8318 99.4235 65.9311 99.5859 65.0082C99.6155 64.8458 99.8665 64.8827 99.8369 65.0452C99.6745 65.9901 99.394 66.9203 99.0101 67.7989C98.9436 67.9539 98.7074 67.8506 98.7738 67.6955Z" fill="#FEBE00"/>
<path d="M94.8977 68.7879C94.8534 68.1825 94.6762 67.5919 94.3735 67.0677C94.3514 67.0308 94.5064 66.7945 94.5138 66.8019C94.8829 67.3925 95.1044 68.0644 95.1561 68.7583C95.1635 68.9207 94.9125 68.9503 94.8977 68.7879Z" fill="#FEBE00"/>
<path d="M94.2705 68.884C94.1523 68.6625 94.0268 68.441 93.894 68.2269L94.0047 67.9316C94.1893 68.2048 94.3517 68.4927 94.5067 68.788C94.5362 68.8471 94.4919 68.9283 94.4329 68.9504C94.3664 68.9874 94.3074 68.9504 94.2705 68.884Z" fill="#FEBE00"/>
<path d="M92.4246 73.4764C92.2769 73.41 92.3803 73.1737 92.5279 73.2402C92.6756 73.3066 92.5722 73.5429 92.4246 73.4764Z" fill="#FEBE00"/>
<path d="M92.5207 73.4687C92.2107 73.5573 91.8932 73.6532 91.5831 73.7418L91.7086 73.4391C91.9449 73.3653 92.1885 73.2989 92.4248 73.225C92.4912 73.2029 92.565 73.2324 92.5872 73.2989C92.6167 73.3653 92.5872 73.4539 92.5207 73.4687Z" fill="#FEBE00"/>
<path d="M92.5282 72.8631C92.3141 72.9443 92.0927 73.0034 91.8712 73.0403L91.9893 72.7523C92.137 72.7154 92.292 72.6711 92.4323 72.6195C92.5947 72.5678 92.6833 72.8114 92.5282 72.8631Z" fill="#FEBE00"/>
<path d="M96.0794 75.2408C96.2049 75.9495 96.1975 76.6878 96.072 77.3965C96.0425 77.559 95.7915 77.5221 95.821 77.3596C95.9465 76.6657 95.9465 75.9643 95.8284 75.2703C95.7915 75.1079 96.0499 75.0858 96.0794 75.2408Z" fill="#FEBE00"/>
<path d="M95.2743 75.7866C95.2226 76.4879 95.2891 77.1967 95.4737 77.8759C95.4884 77.9423 95.4663 78.0162 95.3998 78.0383C95.3408 78.0605 95.2522 78.0309 95.2374 77.9645C95.0455 77.241 94.9716 76.4879 95.0233 75.7423C95.0307 75.6759 95.1045 75.6242 95.171 75.6316C95.2374 75.6537 95.2743 75.7202 95.2743 75.7866Z" fill="#FEBE00"/>
<path d="M99.7039 74.1477C100.413 74.4651 101.129 74.7826 101.837 75.1001C101.985 75.1665 101.882 75.4027 101.734 75.3363C101.025 75.0188 100.309 74.7014 99.6006 74.3839C99.4529 74.3101 99.5563 74.0813 99.7039 74.1477Z" fill="#FEBE00"/>
<path d="M100.154 73.7421C100.006 73.6756 100.11 73.4394 100.257 73.5058C100.405 73.5722 100.302 73.8085 100.154 73.7421Z" fill="#FEBE00"/>
<path d="M100.221 73.4985C100.974 73.624 101.742 73.6683 102.502 73.6314C102.664 73.624 102.694 73.875 102.532 73.8824C101.749 73.9193 100.959 73.875 100.184 73.7495C100.021 73.72 100.058 73.469 100.221 73.4985Z" fill="#FEBE00"/>
<path d="M93.3332 92.6932L93.3922 92.7006L91.9969 89.9321L93.6211 87.1932L90.4023 87.6804L88.2318 85.4287L87.6338 88.4999L86.4304 89.0462C86.4304 89.0462 87.4418 89.91 88.9257 90.7959C91.6425 92.4053 93.3332 92.6932 93.3332 92.6932Z" fill="#FEBE00"/>
<path d="M90.9558 85.1628C91.0739 84.2547 91.1994 83.354 91.3175 82.4459C91.3249 82.3721 91.384 82.3057 91.4652 82.3131C91.539 82.3131 91.6055 82.3869 91.5981 82.4607C91.4799 83.3688 91.3544 84.2695 91.2363 85.1775C91.2289 85.2513 91.1699 85.3178 91.0887 85.3104C91.0148 85.303 90.9484 85.2366 90.9558 85.1628Z" fill="#FEBE00"/>
<path d="M90.3508 84.7792C90.3951 83.753 90.3139 82.7195 90.1146 81.708C90.0776 81.5308 90.3508 81.4718 90.3877 81.649C90.5944 82.6825 90.6756 83.7383 90.6313 84.794C90.6166 84.9712 90.3434 84.9564 90.3508 84.7792Z" fill="#FEBE00"/>
<path d="M86.8143 87.4225C86.6593 87.0977 86.4747 86.795 86.2459 86.5219L86.364 86.2266C86.6445 86.544 86.8808 86.9058 87.0653 87.297C87.1392 87.4595 86.8955 87.585 86.8143 87.4225Z" fill="#FEBE00"/>
<path d="M86.2165 87.7692C86.0983 87.6659 85.9728 87.5625 85.8473 87.4591L85.9581 87.1934C86.1131 87.3189 86.2681 87.4444 86.4232 87.5773C86.4822 87.6289 86.4675 87.7249 86.4158 87.7766C86.3494 87.8357 86.2755 87.8209 86.2165 87.7692Z" fill="#FEBE00"/>
<path d="M93.8504 91.0025C94.6994 91.0468 95.5558 91.0837 96.4048 91.128C96.582 91.1354 96.5746 91.4159 96.39 91.4086C95.541 91.3643 94.6846 91.3274 93.8356 91.2831C93.6585 91.2683 93.6658 90.9878 93.8504 91.0025Z" fill="#FEBE00"/>
<path d="M94.1456 90.4125C93.9684 90.4051 93.9758 90.1246 94.1604 90.132C94.3376 90.1394 94.3228 90.4199 94.1456 90.4125Z" fill="#FEBE00"/>
<path d="M94.1233 90.1313C94.9427 89.9615 95.7401 89.7105 96.5079 89.3709C96.6703 89.297 96.8032 89.548 96.6334 89.6219C95.8434 89.9689 95.024 90.2346 94.1823 90.4118C94.0051 90.4413 93.9461 90.1682 94.1233 90.1313Z" fill="#FEBE00"/>
<path d="M107.581 67.6875L110.313 66.5875L112.83 68.1157L112.557 65.2955L114.654 63.5311L111.937 62.8592L110.83 60.2236L109.316 62.6451L106.348 62.8076L108.312 64.9485L107.581 67.6875Z" fill="#FEBE00"/>
<path d="M113.236 60.8954C113.303 60.7773 113.369 60.6591 113.428 60.541L113.554 60.8437C113.524 60.8954 113.495 60.9471 113.465 61.0061C113.436 61.0652 113.362 61.1021 113.295 61.0726C113.244 61.0356 113.199 60.9544 113.236 60.8954Z" fill="#FEBE00"/>
<path d="M112.845 60.3717C112.934 60.165 113.022 59.9509 113.096 59.7441L113.236 60.0837C113.185 60.2166 113.133 60.3495 113.074 60.475C113.007 60.6227 112.779 60.5193 112.845 60.3717Z" fill="#FEBE00"/>
<path d="M108.969 61.4566C108.925 60.8069 108.718 60.172 108.371 59.6183C108.282 59.4781 108.489 59.3304 108.578 59.4707C108.947 60.0613 109.168 60.7331 109.22 61.4271C109.235 61.5895 108.976 61.619 108.969 61.4566Z" fill="#FEBE00"/>
<path d="M108.342 61.5526C108.069 61.0284 107.736 60.5264 107.367 60.0687C107.264 59.9432 107.471 59.7881 107.574 59.921C107.958 60.4009 108.297 60.9177 108.578 61.464C108.608 61.5231 108.563 61.6043 108.504 61.6264C108.438 61.656 108.371 61.619 108.342 61.5526Z" fill="#FEBE00"/>
<path d="M106.489 66.1444C106.341 66.078 106.445 65.8417 106.592 65.9081C106.747 65.982 106.644 66.2108 106.489 66.1444Z" fill="#FEBE00"/>
<path d="M106.584 66.1371C106.053 66.2921 105.521 66.4471 104.99 66.6096C104.923 66.6317 104.85 66.6022 104.827 66.5357C104.805 66.4767 104.835 66.3881 104.901 66.3733C105.433 66.2183 105.964 66.0632 106.496 65.9008C106.562 65.8787 106.636 65.9082 106.658 65.9747C106.68 66.0337 106.651 66.1223 106.584 66.1371Z" fill="#FEBE00"/>
<path d="M106.599 65.5396C105.964 65.7758 105.27 65.8423 104.598 65.7315C104.436 65.702 104.473 65.451 104.635 65.4805C105.263 65.5839 105.912 65.5248 106.51 65.3033C106.658 65.2443 106.754 65.4805 106.599 65.5396Z" fill="#FEBE00"/>
<path d="M110.143 67.9162C110.268 68.625 110.261 69.3632 110.135 70.072C110.106 70.2344 109.855 70.1975 109.884 70.035C110.01 69.3411 110.01 68.6397 109.892 67.9458C109.862 67.776 110.121 67.7538 110.143 67.9162Z" fill="#FEBE00"/>
<path d="M109.338 68.4555C109.287 69.1569 109.353 69.8656 109.538 70.5448C109.552 70.6113 109.53 70.6851 109.464 70.7072C109.405 70.7294 109.316 70.6999 109.301 70.6334C109.109 69.9099 109.036 69.1569 109.087 68.4112C109.095 68.3448 109.168 68.2931 109.235 68.3005C109.309 68.3227 109.346 68.3891 109.338 68.4555Z" fill="#FEBE00"/>
<path d="M113.775 66.8166C114.484 67.1341 115.2 67.4516 115.909 67.769C116.056 67.8354 115.953 68.0717 115.805 68.0052C115.097 67.6878 114.381 67.3703 113.672 67.0529C113.524 66.9791 113.628 66.7502 113.775 66.8166Z" fill="#FEBE00"/>
<path d="M114.218 66.41C114.07 66.3436 114.174 66.1073 114.321 66.1738C114.476 66.2402 114.373 66.4765 114.218 66.41Z" fill="#FEBE00"/>
<path d="M114.292 66.1664C114.809 66.255 115.326 66.2993 115.85 66.3141L115.96 66.5725C115.392 66.5651 114.824 66.5208 114.262 66.4248C114.093 66.3953 114.13 66.1369 114.292 66.1664Z" fill="#FEBE00"/>
<path d="M100.575 53.6617L103.063 52.6577L105.352 54.053L105.108 51.4838L107.183 49.8523L104.547 49.2617L103.536 46.8623L102.155 49.0697L101.889 49.0845L101.085 51.004L101.24 51.1664L100.575 53.6617Z" fill="#FEBE00"/>
<path d="M105.729 47.475C106.098 46.8105 106.459 46.1461 106.829 45.4817C106.858 45.43 106.925 45.3931 106.984 45.4226C107.035 45.4448 107.072 45.5186 107.043 45.5777C106.674 46.2421 106.312 46.9065 105.943 47.571C105.913 47.6226 105.847 47.6596 105.788 47.63C105.729 47.6079 105.699 47.534 105.729 47.475Z" fill="#FEBE00"/>
<path d="M105.367 46.9952C105.706 46.2127 105.957 45.3858 106.105 44.5442C106.127 44.3965 106.363 44.4335 106.334 44.5811C106.186 45.4449 105.928 46.2865 105.581 47.0912C105.522 47.2315 105.308 47.1355 105.367 46.9952Z" fill="#FEBE00"/>
<path d="M102.908 53.8681C103.019 54.5178 103.019 55.1822 102.901 55.8319C102.871 55.9796 102.642 55.9426 102.672 55.795C102.783 55.1675 102.79 54.5252 102.679 53.8977C102.657 53.7426 102.886 53.7205 102.908 53.8681Z" fill="#FEBE00"/>
<path d="M102.177 54.3632C102.133 55.0055 102.192 55.6478 102.354 56.2679C102.369 56.327 102.347 56.3934 102.288 56.4156C102.236 56.4377 102.155 56.4082 102.14 56.3491C101.963 55.6921 101.897 55.0055 101.948 54.3263C101.956 54.2672 102.022 54.2229 102.081 54.2303C102.148 54.2377 102.185 54.2967 102.177 54.3632Z" fill="#FEBE00"/>
<path d="M106.216 52.8647C106.865 53.1526 107.508 53.4405 108.157 53.7285C108.298 53.7875 108.202 54.0016 108.061 53.9426C107.412 53.6546 106.769 53.3667 106.12 53.0788C105.987 53.0197 106.083 52.8056 106.216 52.8647Z" fill="#FEBE00"/>
<path d="M106.622 52.5026C106.482 52.4436 106.578 52.2295 106.718 52.2885C106.851 52.3476 106.762 52.5617 106.622 52.5026Z" fill="#FEBE00"/>
<path d="M106.688 52.2809C107.375 52.3991 108.069 52.436 108.763 52.4065C108.91 52.3991 108.94 52.6279 108.785 52.6353C108.069 52.6722 107.353 52.6279 106.651 52.5098C106.504 52.4803 106.541 52.2514 106.688 52.2809Z" fill="#FEBE00"/>
<path d="M119.268 87.6434L120.73 85.3917L123.402 85.2145L121.719 83.2581L122.229 81.5823L121.963 80.9474L119.984 81.7668L117.784 80.3789L117.917 82.9776L115.798 84.6535L118.375 85.2219L119.268 87.6434Z" fill="#FEBE00"/>
<path d="M119.925 79.619C119.844 78.866 119.755 78.113 119.674 77.3525C119.667 77.2935 119.704 77.227 119.763 77.2197C119.822 77.2049 119.896 77.2492 119.896 77.3082C119.977 78.0613 120.065 78.8143 120.147 79.5747C120.154 79.6338 120.117 79.7002 120.058 79.7076C120.006 79.7224 119.932 79.6855 119.925 79.619Z" fill="#FEBE00"/>
<path d="M119.356 79.4339C119.187 78.5923 118.913 77.7802 118.552 77.005C118.485 76.8721 118.699 76.7688 118.758 76.9017C119.128 77.6916 119.408 78.5332 119.585 79.3896C119.615 79.5373 119.386 79.5816 119.356 79.4339Z" fill="#FEBE00"/>
<path d="M117.038 82.2764C116.662 81.8187 116.182 81.4495 115.636 81.2207C115.495 81.1616 115.577 80.9401 115.709 80.9992C116.293 81.2428 116.817 81.6267 117.216 82.1213C117.311 82.2395 117.134 82.3945 117.038 82.2764Z" fill="#FEBE00"/>
<path d="M116.625 82.6753C116.145 82.4243 115.643 82.225 115.119 82.0773C114.971 82.033 115.053 81.8189 115.193 81.8558C115.732 82.0109 116.256 82.2176 116.751 82.476C116.81 82.5055 116.817 82.5867 116.78 82.6384C116.751 82.7048 116.684 82.7048 116.625 82.6753Z" fill="#FEBE00"/>
<path d="M117.651 87.0674C117.503 87.097 117.459 86.8681 117.607 86.8386C117.754 86.809 117.799 87.0379 117.651 87.0674Z" fill="#FEBE00"/>
<path d="M117.718 87.0081C117.408 87.3994 117.09 87.7981 116.78 88.1893C116.743 88.241 116.677 88.2558 116.618 88.2189C116.566 88.1893 116.544 88.1081 116.588 88.0564C116.898 87.6652 117.216 87.2665 117.526 86.8752C117.563 86.8235 117.629 86.8088 117.688 86.8457C117.732 86.8826 117.755 86.9638 117.718 87.0081Z" fill="#FEBE00"/>
<path d="M117.415 86.5584C117.061 87.0678 116.581 87.4812 116.02 87.747C115.887 87.8134 115.783 87.6067 115.916 87.5403C116.44 87.2893 116.891 86.9054 117.216 86.4255C117.304 86.3 117.496 86.4329 117.415 86.5584Z" fill="#FEBE00"/>
<path d="M121.298 86.4696C121.763 86.9347 122.14 87.481 122.42 88.079C122.487 88.2119 122.273 88.3226 122.214 88.1824C121.948 87.5991 121.579 87.075 121.128 86.6246C121.018 86.5139 121.195 86.3662 121.298 86.4696Z" fill="#FEBE00"/>
<path d="M120.981 87.2962C121.313 87.8425 121.734 88.3371 122.221 88.7505C122.273 88.7874 122.287 88.8539 122.25 88.913C122.221 88.9572 122.14 88.9868 122.088 88.9425C121.564 88.5069 121.121 87.9827 120.767 87.3995C120.737 87.3478 120.767 87.2666 120.818 87.2445C120.885 87.2149 120.951 87.2371 120.981 87.2962Z" fill="#FEBE00"/>
<path opacity="0.34" d="M117.585 81.4934C118.013 82.6008 118.449 83.7746 118.279 84.9484C118.109 86.1223 117.112 87.274 115.924 87.1632C115.104 87.082 114.432 86.425 114.093 85.6793C113.753 84.9337 113.672 84.092 113.591 83.2726C112.963 77.3665 111.472 71.5563 109.191 66.071C108.799 65.1334 107.914 61.4642 110.143 62.8226C111.442 63.6126 112.1 67.2079 112.631 68.5885C114.277 72.8926 115.931 77.1967 117.585 81.4934Z" fill="white"/>
<path opacity="0.34" d="M109.405 60.1363C109.412 60.3209 109.412 60.5202 109.309 60.6753C109.117 60.978 108.652 60.9706 108.349 60.7934C107.736 60.4316 107.545 59.6491 107.404 58.9477C107.22 58.0101 105.817 53.5141 108.039 55.153C109.368 56.1202 109.375 58.6893 109.405 60.1363Z" fill="white"/>
<path d="M179.148 49.8535L198.066 84.6257L159.521 93.5911L179.148 49.8535Z" fill="#F2C149"/>
<path d="M159.521 93.5918L143.5 80.8463L164.88 42L179.148 49.8542L159.521 93.5918Z" fill="#D58B46"/>
<path d="M179.148 49.8535C179.148 49.8535 170.271 75.7257 159.521 93.5911C170.021 67.7298 179.148 49.8535 179.148 49.8535Z" fill="#F6D571"/>
<g clip-path="url(#clip0_6050_133675)">
<path d="M242.754 84.1568L235.194 83.9484V83.9404L235.004 83.9484L234.814 83.9404V83.9484L227.253 84.1568C227.253 84.1568 221.5 84.6698 221.5 88.4927C221.5 92.6763 227.032 94.0949 229.607 94.3113C230.859 94.4155 233.007 94.6479 235.004 94.6479C237.001 94.6479 239.141 94.4155 240.401 94.3113C242.976 94.1029 248.508 92.6843 248.508 88.4927C248.5 84.6698 242.754 84.1568 242.754 84.1568Z" fill="#9873FF"/>
<path d="M245.409 86.7778C243.69 87.7636 238.832 88.0521 234.671 88.2524C231.311 88.4127 228.696 87.8517 227.808 88.1563C225.819 88.8295 226.493 90.9453 227.626 92.2838C228.616 93.4539 230.423 94.1913 232.983 94.584C231.953 94.5279 230.835 94.4157 230.201 94.3676C229.274 94.2954 227.523 94.1271 225.407 93.2696C223.6 92.5322 221.532 90.9774 221.5 88.7974C221.476 87.3468 221.912 86.7297 222.689 85.9683C224.282 84.3974 226.968 84.0207 227.697 83.9727L244.902 84.3574C245.56 84.5417 247.161 85.7759 245.409 86.7778Z" fill="#745CFF"/>
<path d="M241.479 78.1865H235.186H234.814H228.522C228.522 78.1865 222.665 78.6594 222.665 82.2259C222.665 86.5778 228.68 87.1228 230.091 87.243C231.224 87.3392 233.229 87.5235 235.194 87.5235C237.16 87.5235 238.792 87.3392 239.925 87.243C241.336 87.1228 247.343 86.5698 247.351 82.2259C247.343 78.6594 241.479 78.1865 241.479 78.1865Z" fill="#73A9FF"/>
<path d="M244.355 80.6388C242.794 81.4963 238.388 81.7528 234.616 81.9291C231.572 82.0654 229.195 81.5845 228.395 81.841C226.588 82.426 227.206 84.2854 228.236 85.4555C229.139 86.4814 230.732 87.1306 233.046 87.4752C232.111 87.4271 231.152 87.339 230.574 87.2989C229.734 87.2348 227.753 87.0745 225.827 86.3211C224.194 85.68 222.704 84.3175 222.681 82.418C222.657 81.1517 223.053 80.6147 223.758 79.9415C225.201 78.571 227.642 78.2424 228.299 78.1943L243.903 78.5309C244.49 78.6832 245.94 79.7652 244.355 80.6388Z" fill="#5E94FF"/>
<path d="M240.757 73.0166H235.194H234.814H229.25C229.25 73.0166 223.957 73.1769 224.012 77.0319C224.068 80.8869 229.385 80.943 230.645 81.0472C231.644 81.1354 233.918 81.2476 234.822 81.2957V81.3117C234.822 81.3117 234.893 81.3117 235.012 81.3037C235.131 81.3117 235.202 81.3117 235.202 81.3117V81.2957C236.098 81.2476 238.38 81.1354 239.378 81.0472C240.631 80.943 245.948 80.8869 246.012 77.0319C246.051 73.1769 240.757 73.0166 240.757 73.0166Z" fill="#73FFEA"/>
<path d="M243.127 74.9321C241.748 75.6935 237.667 75.8057 234.338 75.9579C231.652 76.0782 229.995 75.7255 229.29 75.9579C227.697 76.4789 228.014 78.4024 228.925 79.4363C229.718 80.3419 231.097 80.919 233.141 81.2235C232.317 81.1834 231.501 81.1273 230.994 81.0873C230.257 81.0312 228.141 80.9911 226.461 80.2938C225.106 79.7328 224.044 78.747 224.02 77.064C224.004 75.9419 224.432 75.1244 225.058 74.5314C226.334 73.3212 228.402 73.0567 228.981 73.0166L242.738 73.3131C243.262 73.4574 244.522 74.1547 243.127 74.9321Z" fill="#5CE9FF"/>
<path d="M240.013 67.7432H235.194H234.814H229.995C229.995 67.7432 225.367 67.8954 225.415 71.4699C225.462 75.0444 230.114 75.1005 231.216 75.1967C232.072 75.2769 234.005 75.3811 234.822 75.4291V75.4452C234.822 75.4452 234.893 75.4452 235.012 75.4372C235.131 75.4452 235.202 75.4452 235.202 75.4452V75.4291C236.018 75.3891 237.952 75.2769 238.808 75.1967C239.902 75.1005 244.553 75.0444 244.609 71.4699C244.641 67.8874 240.013 67.7432 240.013 67.7432Z" fill="#73FF81"/>
<path d="M242.208 69.4182C241.463 69.6827 237.992 70.2597 234.774 70.2197C232.46 70.1876 230.542 70.0594 229.932 70.2758C228.561 70.7566 228.862 72.7202 229.647 73.682C230.328 74.5155 231.509 75.0605 233.268 75.341C232.555 75.3009 231.842 75.2208 231.406 75.1807C230.257 75.0845 225.47 74.9803 225.423 71.494C225.375 68.3362 228.941 67.7913 229.686 67.7432L241.534 68.0157C241.986 68.1439 243.515 68.9694 242.208 69.4182Z" fill="#4FFF81"/>
<path d="M239.529 63.4473H235.186H234.814H230.471C230.471 63.4473 226.271 63.5675 226.31 66.5088C226.358 69.4422 230.582 69.4822 231.572 69.5704C232.333 69.6345 234.053 69.7227 234.806 69.7547V69.7708C234.806 69.7708 234.877 69.7708 234.996 69.7628C235.115 69.7708 235.186 69.7708 235.186 69.7708V69.7547C235.947 69.7147 237.659 69.6345 238.42 69.5704C239.418 69.4903 243.642 69.4502 243.682 66.5088C243.729 63.5675 239.529 63.4473 239.529 63.4473Z" fill="#C0FF73"/>
<path d="M241.352 64.505C240.678 64.7214 236.85 65.1782 234.283 65.2984C232.214 65.3946 230.915 65.3545 230.36 65.5309C229.131 65.9236 229.401 67.5345 230.106 68.3199C230.716 69.0092 231.778 69.45 233.355 69.6824C232.721 69.6503 232.079 69.5782 231.683 69.5542C230.653 69.474 226.374 69.3859 226.326 66.5327C226.286 63.944 229.48 63.4952 230.146 63.4551L240.757 63.6795C241.161 63.7757 242.517 64.1283 241.352 64.505Z" fill="#95FF70"/>
<path d="M238.974 59.0391H235.186H234.814H231.025C231.025 59.0391 227.317 59.1513 227.356 61.8602C227.396 64.5691 231.121 64.6012 232 64.6813C232.658 64.7374 233.815 64.8576 234.996 64.8576C236.177 64.8576 237.334 64.7374 237.991 64.6813C238.871 64.6092 242.596 64.5691 242.635 61.8602C242.683 59.1513 238.974 59.0391 238.974 59.0391Z" fill="#FFFD73"/>
<path d="M240.377 60.0491C239.798 60.2414 236.478 60.6662 234.251 60.7704C232.46 60.8585 231.327 60.8265 230.859 60.9868C229.797 61.3474 230.027 62.8301 230.637 63.5434C231.168 64.1686 232.088 64.5773 233.451 64.7857C232.896 64.7536 232.341 64.6895 232 64.6655C231.105 64.5933 227.396 64.5132 227.356 61.8924C227.317 59.5201 230.083 59.1114 230.661 59.0713L239.854 59.2797C240.218 59.3839 241.391 59.7125 240.377 60.0491Z" fill="#FFE95E"/>
<path d="M241.962 57.3959C241.93 60.0166 238.523 60.0567 237.722 60.1288C237.128 60.1849 235.828 60.2571 235.186 60.2891V60.3132C235.186 60.3132 235.115 60.3132 234.996 60.3051C234.877 60.3132 234.806 60.3132 234.806 60.3132V60.2891C234.505 60.2731 234.061 60.249 233.609 60.225C233.601 60.225 233.585 60.225 233.57 60.225C233.07 60.1929 232.579 60.1609 232.27 60.1368C231.469 60.0647 228.07 60.0246 228.03 57.4039C227.998 55.0316 230.772 54.719 231.295 54.6789C231.351 54.6709 231.374 54.6709 231.374 54.6709H238.594C238.61 54.6709 241.994 54.7751 241.962 57.3959Z" fill="#FFC154"/>
<path d="M238.594 55.705C237.603 55.705 232.19 55.9053 231.239 56.266C230.288 56.6267 230.494 58.1094 231.041 58.8227C231.517 59.4478 232.349 60.137 233.585 60.2092C233.086 60.1771 232.595 60.1451 232.285 60.121C231.485 60.0489 228.085 60.0088 228.046 57.388C228.014 55.0157 230.788 54.7032 231.311 54.6631L238.594 55.0798C238.911 55.184 239.584 55.705 238.594 55.705Z" fill="#FFAA4A"/>
<path d="M240.298 53.5411C240.005 54.014 239.323 54.7032 238.594 55.0879C238.554 55.112 238.507 55.136 238.467 55.1521C238.221 55.2723 237.968 55.3524 237.73 55.3685C236.882 55.4406 235.971 55.4726 235.194 55.4726C235.131 55.4726 235.067 55.4726 235.004 55.4726C234.941 55.4726 234.877 55.4726 234.814 55.4726C234.045 55.4646 233.134 55.4326 232.278 55.3685C231.287 55.2883 230.106 54.1983 229.702 53.5411C229.298 52.8839 229.266 52.0424 229.568 50.9444C229.861 49.8544 232.967 40.9502 233.482 39.4194C233.998 37.8887 235.067 38.0009 235.067 38.0009C235.147 38.0009 235.218 38.0089 235.289 38.0249C235.812 38.1291 236.224 38.5859 236.51 39.4275C237.025 40.9582 240.131 49.8624 240.425 50.9524C240.726 52.0344 240.702 52.8839 240.298 53.5411Z" fill="#FF7442"/>
<path d="M235.884 40.7016C235.979 41.487 236.708 51.8499 237.421 52.8116C238.134 53.7734 239.046 53.6532 239.046 52.1464C239.046 50.6397 236.684 41.8236 236.43 40.5653C236.169 39.291 235.765 39.7318 235.884 40.7016Z" fill="#FFC9B5"/>
<path d="M235.685 57.0355C237.064 56.8672 239.291 56.7069 239.782 56.6348C240.242 56.5627 240.282 57.0035 239.782 57.276C239.172 57.6126 238.364 57.7889 237.698 57.845C237.033 57.9011 235.4 57.8049 235.004 57.6046C234.726 57.4683 234.782 57.1477 235.685 57.0355Z" fill="#FFE8A1"/>
<path d="M235.868 61.5395C237.405 61.3711 239.886 61.2109 240.425 61.1387C240.932 61.0666 240.979 61.5074 240.425 61.7799C239.743 62.1165 238.84 62.2928 238.103 62.3489C237.358 62.405 235.551 62.3089 235.107 62.1085C234.798 61.9722 234.853 61.6517 235.868 61.5395Z" fill="#FFFEC2"/>
<path d="M236.145 66.1244C237.92 65.94 240.781 65.7637 241.407 65.6836C241.993 65.6034 242.049 66.0923 241.407 66.3888C240.622 66.7495 239.584 66.9499 238.728 67.014C237.873 67.0781 235.78 66.9739 235.265 66.7495C234.909 66.5972 234.972 66.2446 236.145 66.1244Z" fill="#E0FFAB"/>
<path d="M236.383 71.0054C238.364 70.781 241.558 70.5726 242.255 70.4684C242.913 70.3722 242.969 70.9653 242.255 71.326C241.376 71.7668 240.219 72.0072 239.26 72.0873C238.301 72.1675 235.971 72.0393 235.392 71.7668C235.004 71.5824 235.075 71.1577 236.383 71.0054Z" fill="#BAFFBE"/>
<path d="M237.041 76.7754C239.244 76.4629 242.794 76.1182 243.571 75.99C244.3 75.8698 244.387 76.4388 243.602 76.8235C242.643 77.2964 241.352 77.5769 240.29 77.6971C239.228 77.8173 236.621 77.8013 235.971 77.5608C235.527 77.3925 235.59 76.9758 237.041 76.7754Z" fill="#BDFFF5"/>
<path d="M237.833 82.81C240.219 82.4734 244.031 81.9925 244.871 81.8562C245.663 81.728 245.766 82.2329 244.918 82.6417C243.872 83.1546 242.469 83.5714 241.312 83.6996C240.163 83.8278 237.326 83.8118 236.621 83.5473C236.129 83.379 236.256 83.0344 237.833 82.81Z" fill="#BDE6FF"/>
<path d="M238.293 89.2783C241.367 89.0138 244.91 88.1482 245.837 87.9879C246.709 87.8356 247.137 88.3566 246.202 88.8295C245.052 89.4145 243.658 90.0877 242.39 90.232C241.122 90.3763 237.659 90.4083 236.882 90.1118C236.343 89.9114 236.549 89.4305 238.293 89.2783Z" fill="#DBC4FF"/>
<path d="M238.459 55.1521C238.214 55.2723 237.96 55.3524 237.722 55.3685C236.874 55.4406 235.963 55.4726 235.186 55.4726C235.123 55.4726 235.06 55.4726 234.996 55.4726C234.933 55.4726 234.869 55.4726 234.806 55.4726C234.037 55.4646 233.126 55.4326 232.27 55.3685C231.279 55.2883 230.099 54.1983 229.694 53.5411C229.29 52.8839 229.259 52.0424 229.56 50.9444C229.853 49.8544 232.959 40.9502 233.475 39.4194C233.99 37.8887 235.06 38.0009 235.06 38.0009C235.139 38.0009 235.21 38.0089 235.281 38.0249C234.576 38.4897 233.95 41.4792 233.562 43.9316C233.166 46.4242 232.571 52.3389 233.166 53.5011C233.76 54.6632 235.353 55.0318 235.908 55.0719C236.446 55.104 237.817 55.4005 238.459 55.1521Z" fill="#FF5C21"/>
</g>
<g clip-path="url(#clip1_6050_133675)">
<path d="M65.5 137.996C65.5 152.357 53.8567 164 39.4958 164C25.1433 164 13.5 152.365 13.5 137.996C13.5 123.643 25.1433 112 39.4958 112C53.8567 112 65.5 123.643 65.5 137.996Z" fill="#EBE9DD"/>
<path d="M56.4977 121.58C57.2705 123.924 57.7036 126.421 57.7036 129.02C57.7036 142.064 47.1304 152.637 34.0858 152.637C27.3767 152.637 21.33 149.835 17.0327 145.342C20.1495 154.735 29.0072 161.512 39.4446 161.512C52.4892 161.512 63.0624 150.939 63.0624 137.894C63.054 131.567 60.5571 125.818 56.4977 121.58Z" fill="#D5D3C5"/>
<path d="M23.8355 130.174C19.0287 130.947 15.7845 133.045 13.6444 135.253C13.551 136.153 13.5 137.07 13.5 137.996C13.5 144.866 16.1752 151.117 20.5318 155.771C17.6868 142.267 24.7357 133.053 25.5934 131.924C25.5849 131.924 24.8885 129.707 23.8355 130.174Z" fill="#6EAC64"/>
<path d="M19.9032 147.889C18.8756 147.116 17.9159 146.275 17.0327 145.35C17.7206 147.43 18.7058 149.367 19.9117 151.142C19.8438 150.012 19.8438 148.933 19.9032 147.889Z" fill="#598555"/>
<path d="M64.2345 146.022C59.5297 139.831 48.5233 128.459 30.7059 130.107C28.846 130.752 28.26 132.034 28.26 132.034C27.8184 134.582 30.018 150.71 45.0583 163.398C54.1199 161.427 61.4065 154.735 64.2345 146.022Z" fill="#5E81BA"/>
<path d="M62.3413 143.686C60.7023 141.784 58.6046 139.669 56.0569 137.682C52.7532 146.047 44.8212 152.077 35.4199 152.603C37.3392 155.499 39.7341 158.454 42.715 161.291C52.2777 159.958 60.0229 152.9 62.3413 143.686Z" fill="#5571A3"/>
<path d="M39.4955 112C35.9711 112 32.608 112.705 29.5422 113.979C28.1154 116.204 27.0284 119.847 27.3256 126.149C28.1409 127.151 29.6781 126.149 29.6781 126.149C29.6781 126.149 38.1367 115.635 46.8246 113.053C44.5061 112.374 42.0432 112 39.4955 112Z" fill="#C75A4B"/>
<path d="M30.6891 131.379C29.084 133.46 26.4088 134.08 24.7273 132.772C23.0373 131.464 22.9778 128.73 24.5914 126.649C26.1965 124.568 28.8717 123.948 30.5532 125.256C32.2347 126.564 32.2942 129.307 30.6891 131.379Z" fill="white"/>
<path d="M32.4386 117.724C32.9737 119.015 31.7932 120.731 29.8059 121.563C27.8187 122.387 25.772 122.005 25.2284 120.714C24.6934 119.423 25.8739 117.707 27.8611 116.875C29.8569 116.051 31.9036 116.434 32.4386 117.724Z" fill="white"/>
<path d="M28.2688 116.738C27.8102 118.131 27.479 119.838 27.3516 121.97C28.1074 122.038 28.9567 121.919 29.8144 121.562C31.8017 120.73 32.9821 119.014 32.4471 117.723C31.946 116.518 30.1286 116.118 28.2688 116.738Z" fill="#DE8266"/>
<path d="M25.0499 122.7C25.2707 123.243 24.7867 123.957 23.9544 124.305C23.1221 124.653 22.2644 124.492 22.0436 123.948C21.8228 123.413 22.3068 122.691 23.1391 122.343C23.9714 122.003 24.8291 122.165 25.0499 122.7Z" fill="white"/>
</g>
<defs>
<clipPath id="clip0_6050_133675">
<rect width="27" height="56.6471" fill="white" transform="translate(221.5 38)"/>
</clipPath>
<clipPath id="clip1_6050_133675">
<rect width="52" height="52" fill="white" transform="translate(13.5 112)"/>
</clipPath>
</defs>
</svg>
