<svg width="60" height="60" viewBox="0 0 60 60" fill="none" xmlns="http://www.w3.org/2000/svg">
<path d="M55.0436 15.1456C55.6243 14.7501 40.611 7.90328 31.5166 6C22.3233 6.74154 4.91283 10.9312 5.54302 11.7222C11.8943 14.7996 23.8679 20.9667 25.4619 21.1026C27.0559 21.2633 54.228 15.7018 55.0436 15.1456Z" fill="#9584BC"/>
<path d="M55.0436 15.1455C55.0436 15.1455 55.8097 44.4732 54.2775 46.0428C52.7329 47.6124 26.7593 54.2492 25.4125 54.1503C25.2148 42.2239 25.3136 22.4744 25.4619 21.1025C31.2819 18.9644 55.0436 15.1455 55.0436 15.1455Z" fill="#7A6EAF"/>
<path d="M5.55543 11.7217C5.0241 12.1172 4.15914 41.2472 4.64104 42.0258C5.12295 42.8044 24.6093 54.2611 25.4248 54.1499C26.2404 54.051 25.7214 21.7942 25.4743 21.1021C25.2271 20.4347 5.55543 11.7217 5.55543 11.7217Z" fill="#6863A3"/>
<path d="M25.4621 21.1145C24.9184 19.409 24.8319 53.569 25.4127 54.1622C25.9934 54.7431 26.4753 24.3402 25.4621 21.1145Z" fill="#BBA3CD"/>
<path d="M55.0436 15.1455C55.0436 15.1455 38.1151 16.4185 25.4619 21.1025C31.8626 20.4351 55.0436 15.1455 55.0436 15.1455Z" fill="#BBA3CD"/>
<path d="M5.55518 11.7217C6.27186 12.698 23.88 20.719 25.474 21.1021C23.015 18.7663 5.55518 11.7217 5.55518 11.7217Z" fill="#BBA3CD"/>
</svg>
