<svg width="60" height="60" viewBox="0 0 60 60" fill="none" xmlns="http://www.w3.org/2000/svg">
<g clip-path="url(#clip0_5018_134744)">
<path d="M37.7545 46.1568L30.1942 45.9484V45.9404L30.004 45.9484L29.8138 45.9404V45.9484L22.2534 46.1568C22.2534 46.1568 16.5 46.6698 16.5 50.4927C16.5 54.6763 22.0315 56.0949 24.6071 56.3113C25.8593 56.4155 28.0069 56.6479 30.004 56.6479C32.001 56.6479 34.1407 56.4155 35.4008 56.3113C37.9764 56.1029 43.5079 54.6843 43.5079 50.4927C43.5 46.6698 37.7545 46.1568 37.7545 46.1568Z" fill="#9873FF"/>
<path d="M40.4093 48.7778C38.6896 49.7636 33.8316 50.0521 29.6711 50.2524C26.3109 50.4127 23.6957 49.8517 22.8081 50.1563C20.819 50.8295 21.4926 52.9453 22.6259 54.2838C23.6165 55.4539 25.4233 56.1913 27.9831 56.584C26.9528 56.5279 25.8354 56.4157 25.2014 56.3676C24.2742 56.2954 22.5228 56.1271 20.4069 55.2696C18.6 54.5322 16.5316 52.9774 16.4999 50.7974C16.4762 49.3468 16.912 48.7297 17.6887 47.9683C19.2816 46.3974 21.9681 46.0207 22.6972 45.9727L39.9021 46.3574C40.5598 46.5417 42.1606 47.7759 40.4093 48.7778Z" fill="#745CFF"/>
<path d="M36.4787 40.1865H30.1863H29.8138H23.5215C23.5215 40.1865 17.665 40.6594 17.665 44.2259C17.665 48.5778 23.68 49.1228 25.0906 49.243C26.2239 49.3392 28.2289 49.5235 30.1942 49.5235C32.1596 49.5235 33.7921 49.3392 34.9254 49.243C36.336 49.1228 42.3431 48.5698 42.351 44.2259C42.3431 40.6594 36.4787 40.1865 36.4787 40.1865Z" fill="#73A9FF"/>
<path d="M39.3552 42.6388C37.794 43.4963 33.3878 43.7528 29.6155 43.9291C26.5724 44.0654 24.1949 43.5845 23.3945 43.841C21.5877 44.426 22.2058 46.2854 23.236 47.4555C24.1395 48.4814 25.7324 49.1306 28.0464 49.4752C27.1113 49.4271 26.1524 49.339 25.5739 49.2989C24.7338 49.2348 22.7526 49.0745 20.8269 48.3211C19.1943 47.68 17.7045 46.3175 17.6807 44.418C17.6569 43.1517 18.0532 42.6147 18.7585 41.9415C20.2008 40.571 22.6417 40.2424 23.2994 40.1943L38.9035 40.5309C39.4899 40.6832 40.9402 41.7652 39.3552 42.6388Z" fill="#5E94FF"/>
<path d="M35.7574 35.0166H30.1941H29.8137H24.2505C24.2505 35.0166 18.9567 35.1769 19.0122 39.0319C19.0676 42.8869 24.3852 42.943 25.6453 43.0472C26.6438 43.1354 28.9182 43.2476 29.8217 43.2957V43.3117C29.8217 43.3117 29.893 43.3117 30.0119 43.3037C30.1307 43.3117 30.2021 43.3117 30.2021 43.3117V43.2957C31.0976 43.2476 33.3799 43.1354 34.3785 43.0472C35.6306 42.943 40.9482 42.8869 41.0116 39.0319C41.0512 35.1769 35.7574 35.0166 35.7574 35.0166Z" fill="#73FFEA"/>
<path d="M38.1268 36.9321C36.7479 37.6935 32.6666 37.8057 29.3381 37.9579C26.6516 38.0782 24.9953 37.7255 24.29 37.9579C22.6971 38.4789 23.0141 40.4024 23.9254 41.4363C24.7179 42.3419 26.0969 42.919 28.1415 43.2235C27.3173 43.1834 26.501 43.1273 25.9938 43.0873C25.2568 43.0312 23.1409 42.9911 21.4608 42.2938C20.1057 41.7328 19.0437 40.747 19.02 39.064C19.0041 37.9419 19.4321 37.1244 20.0581 36.5314C21.334 35.3212 23.4024 35.0567 23.9809 35.0166L37.7385 35.3131C38.2615 35.4574 39.5216 36.1547 38.1268 36.9321Z" fill="#5CE9FF"/>
<path d="M35.0125 29.7432H30.1942H29.8138H24.9955C24.9955 29.7432 20.3674 29.8954 20.4149 33.4699C20.4625 37.0444 25.1144 37.1005 26.2159 37.1967C27.0718 37.2769 29.0055 37.3811 29.8217 37.4291V37.4452C29.8217 37.4452 29.893 37.4452 30.0119 37.4372C30.1308 37.4452 30.2021 37.4452 30.2021 37.4452V37.4291C31.0184 37.3891 32.952 37.2769 33.8079 37.1967C34.9016 37.1005 39.5535 37.0444 39.6089 33.4699C39.6406 29.8874 35.0125 29.7432 35.0125 29.7432Z" fill="#73FF81"/>
<path d="M37.2077 31.4182C36.4627 31.6827 32.9917 32.2597 29.7742 32.2197C27.4601 32.1876 25.5423 32.0594 24.9321 32.2758C23.5611 32.7566 23.8622 34.7202 24.6468 35.682C25.3283 36.5155 26.5091 37.0605 28.2684 37.341C27.5552 37.3009 26.842 37.2208 26.4061 37.1807C25.257 37.0845 20.4704 36.9803 20.4228 33.494C20.3753 30.3362 23.9415 29.7913 24.6864 29.7432L36.5341 30.0157C36.9858 30.1439 38.5153 30.9694 37.2077 31.4182Z" fill="#4FFF81"/>
<path d="M34.529 25.4473H30.1862H29.8137H25.4709C25.4709 25.4473 21.2707 25.5675 21.3103 28.5088C21.3579 31.4422 25.5818 31.4822 26.5724 31.5704C27.3332 31.6345 29.0529 31.7227 29.8058 31.7547V31.7708C29.8058 31.7708 29.8771 31.7708 29.996 31.7628C30.1149 31.7708 30.1862 31.7708 30.1862 31.7708V31.7547C30.947 31.7147 32.6587 31.6345 33.4195 31.5704C34.4181 31.4903 38.642 31.4502 38.6816 28.5088C38.7292 25.5675 34.529 25.4473 34.529 25.4473Z" fill="#C0FF73"/>
<path d="M36.3516 26.505C35.678 26.7214 31.8503 27.1782 29.2826 27.2984C27.2142 27.3946 25.9145 27.3545 25.3598 27.5309C24.1314 27.9236 24.4009 29.5345 25.1062 30.3199C25.7164 31.0092 26.7784 31.45 28.3554 31.6824C27.7214 31.6503 27.0795 31.5782 26.6833 31.5542C25.653 31.474 21.3736 31.3859 21.326 28.5327C21.2864 25.944 24.4801 25.4952 25.1458 25.4551L35.7572 25.6795C36.1614 25.7757 37.5165 26.1283 36.3516 26.505Z" fill="#95FF70"/>
<path d="M33.9741 21.0391H30.186H29.8136H26.0255C26.0255 21.0391 22.3166 21.1513 22.3563 23.8602C22.3959 26.5691 26.1206 26.6012 27.0002 26.6813C27.658 26.7374 28.815 26.8576 29.9958 26.8576C31.1766 26.8576 32.3337 26.7374 32.9914 26.6813C33.8711 26.6092 37.5958 26.5691 37.6354 23.8602C37.6829 21.1513 33.9741 21.0391 33.9741 21.0391Z" fill="#FFFD73"/>
<path d="M35.3769 22.0491C34.7984 22.2414 31.4779 22.6662 29.251 22.7704C27.46 22.8585 26.3267 22.8265 25.8592 22.9868C24.7972 23.3474 25.0271 24.8301 25.6373 25.5434C26.1682 26.1686 27.0875 26.5773 28.4506 26.7857C27.8959 26.7536 27.3411 26.6895 27.0003 26.6655C26.1048 26.5933 22.396 26.5132 22.3564 23.8924C22.3168 21.5201 25.0825 21.1114 25.661 21.0713L34.8539 21.2797C35.2184 21.3839 36.3913 21.7125 35.3769 22.0491Z" fill="#FFE95E"/>
<path d="M36.9619 19.3959C36.9303 22.0166 33.5226 22.0567 32.7222 22.1288C32.1278 22.1849 30.8281 22.2571 30.1862 22.2891V22.3132C30.1862 22.3132 30.1149 22.3132 29.996 22.3051C29.8771 22.3132 29.8058 22.3132 29.8058 22.3132V22.2891C29.5047 22.2731 29.0609 22.249 28.6092 22.225C28.6012 22.225 28.5854 22.225 28.5695 22.225C28.0703 22.1929 27.5789 22.1609 27.2699 22.1368C26.4694 22.0647 23.0697 22.0246 23.0301 19.4039C22.9984 17.0316 25.7721 16.719 26.2951 16.6789C26.3506 16.6709 26.3743 16.6709 26.3743 16.6709H33.5939C33.6097 16.6709 36.9936 16.7751 36.9619 19.3959Z" fill="#FFC154"/>
<path d="M33.5937 17.705C32.6031 17.705 27.1904 17.9053 26.2394 18.266C25.2884 18.6267 25.4945 20.1094 26.0413 20.8227C26.5168 21.4478 27.3489 22.137 28.5852 22.2092C28.0859 22.1771 27.5946 22.1451 27.2855 22.121C26.4851 22.0489 23.0853 22.0088 23.0457 19.388C23.014 17.0157 25.7877 16.7032 26.3107 16.6631L33.5937 17.0798C33.9107 17.184 34.5843 17.705 33.5937 17.705Z" fill="#FFAA4A"/>
<path d="M35.2978 15.5411C35.0046 16.014 34.323 16.7032 33.5939 17.0879C33.5543 17.112 33.5068 17.136 33.4671 17.1521C33.2215 17.2723 32.9679 17.3524 32.7301 17.3685C31.8822 17.4406 30.9708 17.4726 30.1942 17.4726C30.1308 17.4726 30.0674 17.4726 30.004 17.4726C29.9406 17.4726 29.8772 17.4726 29.8138 17.4726C29.0451 17.4646 28.1337 17.4326 27.2778 17.3685C26.2872 17.2883 25.1064 16.1983 24.7022 15.5411C24.2981 14.8839 24.2664 14.0424 24.5675 12.9444C24.8607 11.8544 27.9673 2.95022 28.4824 1.41944C28.9975 -0.111347 30.0674 0.000857594 30.0674 0.000857594C30.1466 0.000857594 30.2179 0.00887218 30.2893 0.0249013C30.8123 0.129091 31.2244 0.585922 31.5097 1.42745C32.0248 2.95824 35.1314 11.8624 35.4246 12.9524C35.7257 14.0344 35.7019 14.8839 35.2978 15.5411Z" fill="#FF7442"/>
<path d="M30.8837 2.70159C30.9788 3.48702 31.7079 13.8499 32.4211 14.8116C33.1343 15.7734 34.0457 15.6532 34.0457 14.1464C34.0457 12.6397 31.6841 3.82363 31.4305 2.56534C31.169 1.29102 30.7648 1.73182 30.8837 2.70159Z" fill="#FFC9B5"/>
<path d="M30.6853 19.0355C32.0643 18.8672 34.2911 18.7069 34.7825 18.6348C35.2421 18.5627 35.2817 19.0035 34.7825 19.276C34.1723 19.6126 33.3639 19.7889 32.6982 19.845C32.0326 19.9011 30.4 19.8049 30.0038 19.6046C29.7264 19.4683 29.7819 19.1477 30.6853 19.0355Z" fill="#FFE8A1"/>
<path d="M30.8677 23.5395C32.4052 23.3711 34.8856 23.2109 35.4245 23.1387C35.9317 23.0666 35.9793 23.5074 35.4245 23.7799C34.743 24.1165 33.8396 24.2928 33.1025 24.3489C32.3576 24.405 30.5507 24.3089 30.1069 24.1085C29.7979 23.9722 29.8534 23.6517 30.8677 23.5395Z" fill="#FFFEC2"/>
<path d="M31.145 28.1244C32.9201 27.94 35.781 27.7637 36.4071 27.6836C36.9935 27.6034 37.049 28.0923 36.4071 28.3888C35.6225 28.7495 34.5843 28.9499 33.7285 29.014C32.8726 29.0781 30.7804 28.9739 30.2653 28.7495C29.9087 28.5972 29.9721 28.2446 31.145 28.1244Z" fill="#E0FFAB"/>
<path d="M31.383 33.0054C33.3642 32.781 36.5579 32.5726 37.2553 32.4684C37.9131 32.3722 37.9686 32.9653 37.2553 33.326C36.3757 33.7668 35.2186 34.0072 34.2597 34.0873C33.3008 34.1675 30.9709 34.0393 30.3924 33.7668C30.0041 33.5824 30.0754 33.1577 31.383 33.0054Z" fill="#BAFFBE"/>
<path d="M32.0406 38.7754C34.2437 38.4629 37.794 38.1182 38.5707 37.99C39.2997 37.8698 39.3869 38.4388 38.6024 38.8235C37.6434 39.2964 36.3517 39.5769 35.2898 39.6971C34.2278 39.8173 31.6206 39.8013 30.9707 39.5608C30.5269 39.3925 30.5903 38.9758 32.0406 38.7754Z" fill="#BDFFF5"/>
<path d="M32.8333 44.81C35.2187 44.4734 39.0306 43.9925 39.8706 43.8562C40.6631 43.728 40.7661 44.2329 39.9182 44.6417C38.8721 45.1546 37.4694 45.5714 36.3123 45.6996C35.1632 45.8278 32.3261 45.8118 31.6208 45.5473C31.1295 45.379 31.2563 45.0344 32.8333 44.81Z" fill="#BDE6FF"/>
<path d="M33.2926 51.2783C36.3674 51.0138 39.9098 50.1482 40.837 49.9879C41.7088 49.8356 42.1367 50.3566 41.2016 50.8295C40.0525 51.4145 38.6577 52.0877 37.3897 52.232C36.1217 52.3763 32.6586 52.4083 31.8819 52.1118C31.343 51.9114 31.5491 51.4305 33.2926 51.2783Z" fill="#DBC4FF"/>
<path d="M33.4593 17.1521C33.2137 17.2723 32.9601 17.3524 32.7223 17.3685C31.8744 17.4406 30.963 17.4726 30.1864 17.4726C30.123 17.4726 30.0596 17.4726 29.9962 17.4726C29.9328 17.4726 29.8694 17.4726 29.806 17.4726C29.0373 17.4646 28.1259 17.4326 27.27 17.3685C26.2794 17.2883 25.0986 16.1983 24.6944 15.5411C24.2903 14.8839 24.2586 14.0424 24.5597 12.9444C24.8529 11.8544 27.9595 2.95022 28.4746 1.41944C28.9897 -0.111347 30.0596 0.000857594 30.0596 0.000857594C30.1388 0.000857594 30.2101 0.00887218 30.2815 0.0249013C29.5761 0.489747 28.9501 3.47919 28.5618 5.93165C28.1655 8.42418 27.5712 14.3389 28.1655 15.5011C28.7599 16.6632 30.3528 17.0318 30.9075 17.0719C31.4464 17.104 32.8174 17.4005 33.4593 17.1521Z" fill="#FF5C21"/>
</g>
<defs>
<clipPath id="clip0_5018_134744">
<rect width="27" height="56.6471" fill="white" transform="translate(16.5)"/>
</clipPath>
</defs>
</svg>
