<svg width="198" height="250" viewBox="0 0 198 250" fill="none" xmlns="http://www.w3.org/2000/svg">
<g clip-path="url(#clip0_5458_97697)">
<path d="M198 0H-0.00976562V250H198V0Z" fill="#8D5631"/>
<path d="M-0.00976562 0V250H198V0H-0.00976562ZM190.8 12.7778V79.6111H7.1906V12.7778C7.1906 11.8333 7.65862 11.1111 8.27065 11.1111H189.72C190.332 11.1111 190.8 11.8333 190.8 12.7778ZM190.8 92.3889V159.222H7.1906V92.3889C7.1906 91.4445 7.65862 90.7222 8.27065 90.7222H189.72C190.332 90.7222 190.8 91.5 190.8 92.3889ZM7.1906 238.889V172.056C7.1906 171.111 7.65862 170.389 8.27065 170.389H189.72C190.332 170.389 190.8 171.111 190.8 172.056V238.889H7.1906Z" fill="#EAA064"/>
<path d="M29.0796 238.889C27.8915 242.056 27.0995 245.389 26.3074 248.722C26.1994 249.167 26.0914 249.611 25.9834 250H20.8711C22.0952 248.667 23.2833 247.111 24.3633 245.389C24.6153 244.889 24.8313 244.333 25.0474 243.833C25.6594 242.333 26.0194 240.444 26.6674 238.944H29.0796V238.889ZM2.94225 207.722C2.79824 207.556 2.69024 207.333 2.54623 207.167C1.79019 206 1.10616 204.778 0.458127 203.5C0.31412 203.167 0.134111 202.833 -0.00989664 202.5V212.167C0.278118 211.722 0.566132 211.222 0.854147 210.778C1.53818 209.722 2.22222 208.722 2.94225 207.722ZM7.19046 217.167V212.722C6.72244 212.278 6.29042 211.833 5.8224 211.389C5.03036 212.444 4.23832 213.611 3.44628 214.778C2.18621 216.722 0.998154 218.722 -0.0458984 220.778V232.278C1.14216 227.889 3.23027 223.111 6.03841 218.778C6.43443 218.278 6.83045 217.722 7.19046 217.167ZM22.5992 239.778C22.7072 239.5 22.8152 239.222 22.9233 238.889H17.595C14.4628 243.444 10.2866 246.333 6.0024 248.056C5.39037 248.222 4.81434 248.333 4.27432 248.333C4.23832 248.333 4.20231 248.333 4.16631 248.333C2.58223 248.333 1.21416 247.611 0.242116 246.167C0.170112 246.056 0.062107 245.889 -0.00989664 245.778V250H14.4628C17.415 247.778 20.2231 245.222 21.9872 241.278C22.2032 240.778 22.3832 240.278 22.5992 239.778ZM5.39037 238.167C5.71439 238.667 6.07441 238.944 6.50643 239.167C6.83045 239.333 7.19046 239.389 7.58648 239.389C7.69449 239.389 7.8385 239.389 7.9825 239.389C8.01851 239.389 8.05451 239.389 8.09051 239.389C8.77454 239.389 9.38657 239.222 9.9626 238.889H7.19046V225.444C4.67034 230.444 3.8423 235.778 5.39037 238.167ZM190.8 126.667V130.111C191.556 129.222 192.348 128.389 193.14 127.611C193.572 127.167 194.04 126.778 194.508 126.444C195.588 125.722 196.776 124.889 198 124.389V120.056C195.732 121.333 193.644 123.389 191.88 125.611C191.52 125.889 191.16 126.278 190.8 126.667ZM165.31 167.111C165.742 166.389 166.174 165.667 166.606 164.944C167.722 163 168.875 161.111 170.063 159.333H166.498C166.174 160.056 165.886 160.833 165.526 161.611C165.31 162.389 165.022 163.111 164.734 163.833C164.446 164.556 164.122 165.222 163.762 165.889C162.97 167.667 161.89 168.889 160.738 169.833C161.278 168.444 161.854 167 162.394 165.556C162.43 164.722 162.358 163.833 162.142 162.944C162.07 162.222 161.926 161.5 161.71 160.833C161.53 160.333 161.35 159.833 161.062 159.389H155.014C155.662 160.556 156.202 161.889 156.562 163.444C157.282 166.778 154.042 166.778 152.602 169C152.278 169.5 152.062 170 151.918 170.5H162.79C163.654 169.333 164.518 168.222 165.31 167.111ZM190.8 149.667C193.176 147.889 195.588 147.111 198 146.278V133.333C195.516 134.111 193.032 135.5 190.8 137.389V149.667ZM172.907 159.278C171.431 160.722 170.063 162.389 168.911 164.278C168.479 165 168.047 165.722 167.686 166.5C166.966 167.889 166.21 169.167 165.418 170.389H168.407C168.587 170.167 168.767 170 168.947 169.778C169.343 169 169.703 168.167 170.099 167.444C171.899 163.944 174.167 161.111 177.011 159.278H172.907ZM191.952 158.944C189.864 160.278 187.631 161.056 185.507 161.944C184.787 162.222 184.103 162.556 183.383 162.833C179.747 164.833 174.815 165.667 172.259 169.222C172.007 169.556 171.791 169.944 171.575 170.333H183.023C184.355 169.833 185.759 169.444 187.163 169.167C187.812 168.833 188.424 168.5 189.072 168.167C190.836 167 192.672 165.889 194.58 164.833C194.94 164.611 195.336 164.333 195.696 164.111C196.452 163.611 197.244 163.167 198 162.778V155.333C196.596 156.056 195.192 156.833 193.788 157.722C193.176 158.167 192.564 158.556 191.952 158.944ZM143.889 239.944C142.269 243.167 140.577 246.5 139.029 250H144.861C145.113 248.611 145.221 247 145.545 245.333C145.761 244.222 146.013 243.111 146.301 242C146.553 241 146.805 239.944 147.093 238.889H144.321C144.177 239.222 144.033 239.611 143.889 239.944ZM149.902 250H155.302C155.446 246.556 155.95 242.778 156.814 238.889H151.918C150.982 242.722 150.298 246.444 149.902 250ZM192.708 173.444C192.132 173.889 191.592 174.333 191.052 174.722C190.98 174.778 190.872 174.833 190.8 174.889V182.056C190.944 181.944 191.124 181.833 191.268 181.722C193.572 180.111 195.84 178.889 198 178.056V170.333C196.632 171 195.264 171.778 193.86 172.667C193.464 172.944 193.104 173.167 192.708 173.444ZM198 250V245.611C196.704 246.833 195.552 248.333 194.472 250H198ZM195.3 235.667C194.976 236.167 194.616 236.722 194.256 237.222C191.124 242.222 187.523 245.556 183.887 249.222C183.527 249.5 183.203 249.778 182.879 250H189.72C191.88 246.722 193.86 243.167 196.488 241C196.92 240.556 197.316 240.056 197.712 239.556C197.82 239.389 197.892 239.222 198 239.056V230.944C197.46 232 196.884 233.056 196.272 234.111C195.948 234.611 195.66 235.167 195.3 235.667ZM166.93 238.889H161.746C161.062 242.944 160.846 246.722 161.17 250H168.695C167.11 247.389 166.57 243.444 166.93 238.889ZM190.8 196.778C193.068 195.444 195.228 194.778 197.136 194.778C197.424 194.778 197.712 194.778 198 194.833V186.111C195.768 186.611 193.32 187.722 190.8 189.389V196.778ZM193.68 203.722C192.78 203.722 191.808 203.944 190.8 204.333V212.722C191.448 212.833 191.988 213.222 192.42 213.889C193.932 216.222 193.176 221.389 190.8 226.278V234.667C191.124 234.222 191.448 233.722 191.736 233.278C194.688 228.722 196.812 223.722 198 219.167V206.667C197.892 206.389 197.748 206.167 197.604 205.944C196.632 204.389 195.3 203.722 193.68 203.722ZM185.651 240.556C186.263 240.111 186.767 239.556 187.271 238.889H172.799C173.015 240.222 173.411 241.333 173.987 242.278C174.959 243.778 176.291 244.444 177.911 244.444C179.603 244.444 181.547 243.667 183.599 242.222C184.319 241.722 184.967 241.167 185.651 240.556ZM195.372 84.7778C195.444 85.5556 195.516 86.2778 195.552 87C195.588 87.7222 195.588 88.4444 195.588 89.1111C195.552 89.9444 195.48 90.7222 195.336 91.4445C195.12 93.8889 193.68 95 192.6 95.5556C191.988 95.9445 191.412 96.2778 190.8 96.6667V110C195.372 108.444 198 102.778 198 92.4444C198 92.4444 198 92.4445 198 92.3889V70.8889C196.308 75.3889 194.328 79.7222 195.372 84.7778ZM196.668 0C197.244 1.77778 197.676 3.61111 198 5.44444V0H196.668ZM194.904 55.6111C194.76 56.2778 194.616 56.9444 194.472 57.6111C194.796 63.2778 193.32 67.3333 191.16 70.7778C191.016 71 190.908 71.1667 190.764 71.3889V79.6667H185.327C182.987 83.5 180.647 87.3889 177.983 90.7778H185.039C188.316 88.4444 191.484 86.6667 191.484 79.5C192.312 78.1111 193.032 76.6667 193.644 75.1111C195.552 70.5556 196.74 65.3889 197.424 59.7778C197.604 59 197.784 58.2222 197.928 57.3889C197.964 57.3333 197.964 57.2778 198 57.1667V42.1111C197.388 45.7778 196.704 49.3889 195.768 52.7778C195.48 53.7222 195.228 54.6667 194.904 55.6111ZM172.727 90.1111C175.931 87.2778 178.703 83.8333 180.755 79.6111H175.463C173.951 82.6111 172.007 85.1667 169.451 87.2222C169.019 87.9445 168.587 88.6667 168.155 89.3889C167.903 89.8333 167.614 90.2778 167.362 90.7222H172.367C172.475 90.5 172.619 90.3333 172.727 90.1111ZM163.222 89.2222C163.762 88.3333 164.302 87.4445 164.806 86.5556C165.166 85.9445 165.49 85.3889 165.814 84.7778C166.894 83.0556 167.975 81.3333 168.983 79.6111H163.798C163.69 79.8333 163.582 80.0556 163.438 80.2778C163.078 80.9445 162.754 81.5556 162.394 82.2222C161.638 83.3333 160.918 84.4444 160.27 86.0556C159.91 86.6667 159.55 87.3333 159.154 87.9445C158.398 88.8889 157.678 89.7778 156.922 90.7222H162.25C162.574 90.2222 162.898 89.7222 163.222 89.2222ZM169.667 10.6667C167.758 8.77778 165.886 8 164.086 8C161.674 8 159.37 9.33333 157.102 11.1667H171.035C170.603 10.9444 170.135 10.8333 169.667 10.6667ZM155.338 80.6111C153.934 87.3333 149.65 88.9445 145.653 90.7222H152.602C154.402 89 156.058 87.0556 157.246 84.2222C157.498 83.6667 157.75 83.1111 157.966 82.5C158.29 81.5 158.65 80.5 159.046 79.5556H155.59C155.482 79.9444 155.41 80.2778 155.338 80.6111ZM151.45 6.72222C156.526 3.22222 161.746 0.944445 167.146 0.944445C168.803 0.944445 170.459 1.16667 172.115 1.61111C172.727 1.66667 173.339 1.77778 173.951 1.94444C175.139 2.22222 176.255 2.66667 177.335 3.22222C177.875 3.5 178.379 3.83333 178.883 4.16667C181.835 5.22222 184.139 7.66667 185.543 11.1111H189.72C190.332 11.1111 190.8 11.8333 190.8 12.7778V51.8889C192.24 48 193.356 43.7778 194.04 39.1667C194.256 38.3889 194.436 37.6111 194.544 36.7778C195.084 33.5556 194.904 30.1111 193.32 26.1111C192.96 24.4444 193.32 22.7778 193.464 21.3333C193.536 20.3333 193.572 19.3333 193.608 18.3333C193.716 11.2222 192.24 4.5 188.784 0H146.085C145.293 3.66667 144.969 7.38889 144.681 11.1111H150.478C150.802 9.66667 151.126 8.22222 151.45 6.72222ZM140.325 11.1111C140.613 7.38889 140.793 3.66667 141.297 0H137.769C137.949 3.72222 137.805 7.44444 137.193 11.1111H140.325ZM130.569 11.1111H132.981C133.161 10.5 133.341 9.83333 133.485 9.22222C133.701 8.27778 133.809 7.33333 133.881 6.38889C134.169 4.11111 133.845 2 133.413 0H125.564C126.14 2 126.5 4.11111 126.536 6.27778C128.049 7.61111 129.417 9.22222 130.569 11.1111ZM68.9696 8.55556C69.4376 7.94444 69.9056 7.38889 70.3736 6.83333C71.7777 5.11111 73.1818 3.27778 74.4778 1.11111C74.6578 0.722222 74.8378 0.333333 75.0179 0H69.6896C69.1496 0.5 68.6095 1.05556 68.0695 1.61111C67.7815 1.88889 67.5295 2.22222 67.2415 2.5C67.5655 4.77778 68.1415 6.94444 68.6815 9.05556C68.7535 8.88889 68.8616 8.72222 68.9696 8.55556ZM77.862 11.1111C78.078 10.8889 78.33 10.7222 78.546 10.5556C82.5062 7.38889 86.6104 5.83333 90.6066 3.77778C90.6786 3.72222 90.7506 3.72222 90.8227 3.66667C91.5067 3.38889 92.1907 3.05556 92.8388 2.77778C95.3589 1.72222 97.843 0.888889 100.255 0.333333C100.723 0.222222 101.191 0.111111 101.659 0H83.7663C81.5342 1.77778 79.5901 4 77.718 6.5C77.214 7.16667 76.7099 7.83333 76.2059 8.5C75.5579 9.38889 74.8738 10.2222 74.2258 11.1111H77.862ZM117.284 0.777778C117.176 0.5 117.068 0.277778 116.96 0H114.764C115.196 0.111111 115.628 0.222222 116.06 0.333333C116.492 0.5 116.888 0.611111 117.284 0.777778ZM58.385 11.1111H62.9933C61.6252 7.55556 60.0411 4.11111 59.2131 0H48.9165C49.3846 0.444444 49.8886 0.888889 50.3206 1.33333C53.1648 3.55556 56.2969 6.94444 58.385 11.1111ZM12.5907 8.33333C14.7868 6.38889 16.1549 2 18.531 0H8.05451C5.39037 2.11111 2.69024 4.27778 -0.00989664 6.38889V13.7778C0.31412 13.4444 0.638136 13.1667 0.998154 12.8333C4.67034 9.44445 8.99055 11.6667 12.5907 8.33333ZM46.9725 11.1111L46.9365 11.0556C46.3964 10.5 45.8204 9.94445 45.2444 9.5C44.7403 9 44.2363 8.5 43.6963 8.11111C40.3841 5.38889 36.4239 4.11111 32.0317 4.11111C30.0876 4.11111 28.0355 4.38889 25.9474 4.88889C25.1914 5.05556 24.3993 5.27778 23.6073 5.55556C22.6712 6.11111 20.8711 6.11111 20.5111 7.22222C19.7191 8.77778 18.855 10.0556 17.955 11.1111H46.9725ZM5.49838 22.3333C6.07441 22.0556 6.61444 21.8333 7.19046 21.5556V16.7222C6.32642 16.8889 5.46238 17.0556 4.59833 17.2222C3.9143 17.7222 3.30227 18.2222 2.65424 18.7778C1.75419 19.5556 0.890148 20.2778 -0.00989664 21.0556V26.7778C1.21416 25.6667 2.43823 24.6111 3.69829 23.6667C4.31032 23.1667 4.88635 22.7222 5.49838 22.3333ZM7.19046 48.9444C6.83045 49.1667 6.50643 49.3333 6.11041 49.4444C4.13031 49.7778 2.0062 49.7222 -0.00989664 50.3333V56.7222C2.43823 55.8889 4.81434 54.6111 7.19046 53.3333V48.9444ZM7.19046 113.722V109.778C4.81434 112.889 2.40222 115.556 -0.00989664 117.778V124.944C1.68219 123.389 3.41027 121.611 5.10236 119.722C5.75039 117.722 6.47043 115.722 7.19046 113.722ZM17.271 79.6111H12.6267C11.6547 83.3333 10.1786 87.1111 9.35057 89.9444C9.24257 90.2222 9.09856 90.5 8.99055 90.7222H13.1668C14.3188 87.2222 15.9749 83.4445 17.271 79.6111ZM7.19046 59.1667C5.35437 60 3.55428 61.1111 1.8622 61.9444C1.25017 62.4444 0.638136 62.9444 -0.00989664 63.5556V70.7222C2.54623 68.3889 5.06636 67 7.19046 66.7778V59.1667ZM7.19046 94.1111C6.79444 94.8333 6.36242 95.5556 5.8944 96.2222C3.9863 99.1667 1.9702 101.556 -0.00989664 103.389V110.556C2.40222 108.333 4.85035 105.5 7.19046 102.167V94.1111ZM4.92235 89.3333C5.39037 88.3333 5.8224 87.3333 6.18241 86.3889C6.75844 84.6667 7.37047 81.9444 7.26247 79.6667H7.19046V79.0556C7.01045 77.6111 6.50643 76.4445 5.46238 75.8889C5.13836 75.7222 4.77834 75.6667 4.38232 75.6667C4.27432 75.6667 4.13031 75.6667 3.9863 75.6667C2.79824 75.7778 1.39417 76.5556 -0.00989664 77.8889V96.2222C1.10616 95.2222 2.22222 93.8333 3.30227 92.2222C3.9143 91.2778 4.45433 90.2778 4.92235 89.3333ZM132.153 81.1111C132.369 82.5556 132.765 83.8333 133.413 84.7778C134.385 86.2778 135.717 86.9445 137.337 86.9445C137.373 86.9445 137.409 86.9445 137.445 86.9445C137.445 86.9445 137.445 86.9445 137.481 86.9445C138.057 86.9445 138.669 86.8889 139.317 86.7222C143.385 85.6667 149.11 85.5556 151.63 79.6111H127.652C126.824 83.2778 125.852 86.9445 124.772 90.7222H129.489C130.497 87.5 131.361 84.2778 132.153 81.1111ZM24.0033 85.4445C24.7593 83.8333 25.5514 82.3333 26.4874 81C26.7394 80.5556 27.0275 80.0556 27.2795 79.6111H21.8072C19.7911 83.1111 17.955 86.7222 16.3349 90.7222H21.5912C22.3832 88.9445 23.1753 87.1667 24.0033 85.4445ZM7.19046 128.111C-1.12595 157.222 -1.73798 183.556 7.19046 198.333V174.278C6.29042 167.722 6.32642 160.278 7.19046 152.278V128.111ZM116.384 11.1111C113 9.16667 109.22 8.22222 105.079 8.22222C100.867 8.22222 96.2949 9.22222 91.5067 11.1111H116.384ZM120.056 90.7222C121.1 86.9445 122.036 83.2222 122.792 79.6111H117.86C117.176 83.2222 116.312 86.9445 115.304 90.7222H120.056ZM31.0597 90.7222C31.3117 90.2222 31.5637 89.7222 31.8157 89.2222C33.9398 83.8333 38.296 83.3333 41.5002 79.6111H33.8318C32.3197 81.4445 30.7356 83.1667 29.1516 85.1111C28.8275 85.7222 28.5035 86.2778 28.1795 86.8889C27.5315 88.1667 26.8834 89.4445 26.2714 90.7222H31.0597ZM78.51 159.278H74.2258C69.1856 161.278 65.2614 165.056 61.8052 170.389H66.1614C69.5096 165.278 73.7938 162.056 78.51 159.278ZM20.8351 170.389C19.5751 167.167 18.783 163.389 18.387 159.278H12.3387C12.3747 163.222 12.6987 166.944 13.3108 170.389H20.8351ZM107.671 79.6111C107.239 83.1667 106.555 86.8889 105.691 90.7222H110.516C111.488 86.9445 112.244 83.2222 112.82 79.6111H107.671ZM42.9042 82.4444C42.4362 83.1111 41.9322 83.8333 41.4282 84.4445C39.8801 86.3889 38.224 88.1667 36.3879 89.7778C36.2079 90.1111 36.0639 90.3889 35.8839 90.7222H40.7081C40.7801 90.6111 40.8521 90.5 40.9241 90.3889C43.7323 87.6111 46.2524 83.7222 48.4845 79.6111H44.8843C44.3803 80.6111 43.7683 81.6111 42.9042 82.4444ZM31.0237 170.389H53.8488C54.6408 169.944 55.3969 169.5 56.1889 169C56.5489 168.778 56.945 168.556 57.305 168.278C60.3651 165.389 62.9573 161.667 66.2334 159.278H59.2851C58.493 159.889 57.701 160.5 56.945 161.167C56.1889 161.667 55.4329 162.056 54.6768 162.444C51.0047 164.333 47.5125 165.278 44.3803 165.278C39.9881 165.278 36.2439 163.333 33.6158 159.278H25.1554C25.8754 162.278 26.9915 165 28.4315 167.222C29.2236 168.444 30.0876 169.5 31.0237 170.389ZM100.795 90.7222C101.587 86.8333 102.127 83.1111 102.343 79.6111H96.6549C96.7629 83 96.4749 86.7778 95.7909 90.7222H100.795ZM58.385 79.6111H53.3808C51.5087 83.8333 49.0606 87.2778 46.5404 90.7222H53.5608C54.8569 88.5556 56.0089 86.0556 56.873 82.7778C57.233 81.7222 57.737 80.6667 58.385 79.6111ZM58.205 90.7222H61.9852C62.2372 90.1667 62.4892 89.6111 62.7052 89.0556C63.0293 88.6111 63.3893 88.2222 63.7493 87.8333C68.6095 82.6111 73.5058 79.7778 77.394 79.7778C79.6981 79.7778 81.6422 80.7778 83.0463 82.8889C84.3063 84.8333 84.9544 87.5556 85.0624 90.7222H90.6426C91.0747 86.5556 90.9307 82.7222 90.1746 79.6111H64.7573C64.6493 79.7222 64.5413 79.8333 64.4333 79.9444C64.0733 80.2778 63.7133 80.6667 63.3533 81.0556C60.7971 83.0556 59.6451 86.9445 58.205 90.7222ZM68.5735 90.7222H77.754C76.8179 89.3333 75.4859 88.7222 73.9378 88.7222C72.3537 88.7222 70.5176 89.4445 68.5735 90.7222ZM31.7797 240C31.4197 240.722 31.0957 241.5 30.8076 242.278C29.6196 244.611 29.2956 247.278 29.0436 249.944H31.8517C31.8517 245.278 33.5078 241.833 35.8839 238.833H32.3557C32.1397 239.278 31.9597 239.611 31.7797 240ZM129.237 250H133.341C134.709 246 136.401 242.278 138.669 238.889H133.809C132.081 242.444 130.569 246.111 129.237 250ZM145.365 167.056C145.365 166.222 145.365 165.444 145.329 164.667C145.257 163.056 145.113 161.5 144.753 160C144.681 159.722 144.609 159.5 144.537 159.278H129.525C131.073 160.111 132.585 161.111 134.025 162.278C134.637 162.889 135.213 163.556 135.717 164.222C137.049 166 138.165 168.056 139.029 170.389H145.401C145.365 169.278 145.365 168.167 145.365 167.056ZM92.9828 170.278C98.383 167.833 102.739 162.667 107.852 159.278H98.383C96.3309 160.778 94.2428 161.889 91.9747 162.333C91.3267 162.722 90.7146 163.167 90.0666 163.556C88.3385 164.889 86.6104 166.278 84.9184 167.611C84.4143 168.056 83.9463 168.5 83.4423 168.944C82.9743 169.389 82.4702 169.833 82.0022 170.278C81.9662 170.278 81.9302 170.333 81.9302 170.333H92.8748C92.8748 170.333 92.9468 170.278 92.9828 170.278ZM50.5726 238.889H45.7124C42.9043 240.944 39.4841 241.222 37.792 245.556C37.18 247.056 37.396 248.556 38.008 250H43.0123C42.5802 249.111 42.2562 248.167 42.1482 247.222C41.1042 241.5 47.4045 241.611 50.5726 238.889ZM129.309 170.389C124.448 166.889 118.724 165.389 113.468 165.333C113.36 165.333 113.288 165.333 113.18 165.333C112.676 165.333 112.172 165.333 111.668 165.389C107.78 165.556 104.179 167.389 101.011 170.389H129.309ZM120.992 239.111C120.38 243.167 119.336 246.778 117.968 250H121.568C122.288 248.222 122.936 246.333 123.512 244.333C123.8 243.611 124.088 242.889 124.376 242.167C124.808 241.111 125.24 240 125.636 238.944H121.064C121.028 238.944 120.992 239.056 120.992 239.111ZM112.1 239.611C111.056 243.778 109.184 246.944 107.203 250H113.252C114.872 246.722 116.096 243 116.996 238.889H112.316C112.244 239.111 112.172 239.333 112.1 239.611ZM56.3689 238.889C55.6129 239.556 54.8209 240.167 54.0288 240.722C53.4168 241.167 52.8047 241.556 52.1927 242C50.3926 243.889 47.1525 242.778 47.1525 246.667C47.1525 247.944 47.4045 249 47.8005 250H55.7209C55.7209 249.444 55.7569 248.889 55.7929 248.333C55.7929 246.444 56.5489 245.222 57.593 244.111C57.953 243.722 58.313 243.389 58.709 243.056C60.2571 242.611 60.9772 240.889 61.5532 238.944L56.3689 238.889ZM63.6773 250H69.5456C70.1216 246.389 70.5536 242.722 70.9497 238.889H65.8374C65.0454 242.556 64.3253 246.278 63.6773 250ZM96.4749 250H100.939C102.631 246.111 104.827 242.722 106.735 238.889H101.515C99.6791 242.333 97.699 245.667 96.4749 250ZM92.9468 238.889C92.3707 240.222 91.7587 241.5 91.2907 242.611C91.0387 243.111 90.7506 243.667 90.4266 244.111C90.0306 244.778 89.5986 245.333 89.2026 245.889C87.6185 247.889 85.9984 249.333 84.5223 250H91.9387C92.3707 249.389 92.6587 248.611 92.9828 247.944C93.2708 247.389 93.5948 246.778 93.8468 246.111C94.7468 243.444 95.8989 241.167 96.979 238.833H92.9468V238.889ZM80.9222 239.722C81.0302 239.444 81.1382 239.167 81.2462 238.889H76.5299C75.4859 242.333 74.6218 246.389 74.5498 250H81.2462C78.9061 248.333 79.6261 242.611 80.9222 239.722Z" fill="#F5B47F"/>
<path d="M107.672 79.6111H112.82C112.64 80.7222 112.424 81.8889 112.208 83.0556C110.768 84.1667 109.364 85.2778 107.924 86.4445C107.42 86.7778 106.916 87.1111 106.376 87.4444C106.916 84.7778 107.348 82.1667 107.672 79.6111ZM95.7915 90.7222H99.6077C100.076 90.3889 100.508 90.1111 100.976 89.7778C101.552 86.8333 101.984 84 102.2 81.2222C100.22 82.5 98.3116 84.0556 96.4396 85.6667C96.2955 87.3333 96.0795 89.0556 95.7915 90.7222ZM91.6153 162.556C91.1113 162.889 90.6073 163.222 90.0672 163.556C88.6272 164.667 87.2231 165.778 85.783 166.944C85.567 168.111 85.351 169.278 85.171 170.389H90.3192C90.6433 167.833 91.0753 165.222 91.6153 162.556ZM90.6433 90.7222C90.6433 90.6111 90.6793 90.5 90.6793 90.3333C90.4993 90.4445 90.3192 90.5556 90.1392 90.7222H90.6433ZM107.348 159.278C107.348 159.389 107.312 159.5 107.312 159.667C107.492 159.556 107.672 159.444 107.852 159.278H107.348ZM120.057 90.7222C120.093 90.5556 120.129 90.4445 120.165 90.2778C119.949 90.4445 119.697 90.5556 119.481 90.7222H120.057ZM102.2 159.278H98.3837C97.9156 159.611 97.4836 159.889 97.0156 160.222C96.4396 163.167 96.0075 166 95.7915 168.778C97.7716 167.5 99.6797 165.944 101.552 164.333C101.696 162.667 101.912 160.944 102.2 159.278ZM150.478 11.1111C150.622 10.4444 150.766 9.83333 150.91 9.16667C149.65 9.72222 148.39 10.2778 147.418 11.1111H150.478ZM137.338 87C137.374 87 137.41 87 137.446 87C137.446 87 137.446 87 137.482 87C138.058 87 138.67 86.9445 139.318 86.7778C143.386 85.7222 149.11 85.6111 151.63 79.6667H144.142C143.35 80.1111 142.594 80.5556 141.802 81.0556C141.442 81.2778 141.046 81.5 140.686 81.7778C139.03 83.3333 137.518 85.1111 135.97 86.8333C136.366 86.8889 136.834 87 137.338 87ZM162.107 11.1111H165.635C165.815 10.7222 166.031 10.3889 166.211 10C166.427 9.55556 166.643 9.05556 166.823 8.61111C165.923 8.22222 165.059 8 164.195 8C163.619 9.11111 162.899 10.1111 162.107 11.1111ZM134.205 162.167C134.169 162.222 134.097 162.278 134.061 162.333C134.637 162.889 135.178 163.556 135.718 164.222C136.15 164.833 136.582 165.444 136.978 166.111C138.094 164.111 138.886 161.667 139.786 159.278H136.006C135.754 159.833 135.502 160.389 135.285 160.944C134.925 161.333 134.565 161.778 134.205 162.167ZM101.336 170.389C101.336 170.278 101.336 170.222 101.336 170.111C101.228 170.222 101.156 170.278 101.048 170.389H101.336ZM96.6556 79.6111C96.6556 79.7222 96.6556 79.7778 96.6556 79.8889C96.7636 79.7778 96.8356 79.7222 96.9436 79.6111H96.6556ZM7.19108 198.333V198.111C7.19108 198.167 7.15508 198.222 7.15508 198.278C7.15508 198.278 7.19108 198.278 7.19108 198.333ZM18.7837 85.2778C21.4478 84.2222 24.0759 83.0556 25.732 80.7222C25.984 80.3889 26.2 80 26.416 79.6111H21.8078C20.7638 81.4445 19.7557 83.3333 18.7837 85.2778ZM28.2161 86.9445C28.1441 87.1111 28.0721 87.2222 28.0001 87.3889C28.3961 86.8889 28.7562 86.3333 29.0802 85.7778C29.4042 85.2778 29.6922 84.7778 29.9802 84.2222C29.7282 84.5556 29.4762 84.8333 29.1882 85.1667C28.8642 85.7222 28.5402 86.3333 28.2161 86.9445ZM20.9798 90.7222H21.5918C21.6998 90.5 21.7718 90.3333 21.8798 90.1111C21.5918 90.3333 21.2678 90.5556 20.9798 90.7222ZM35.2005 79.6111C34.3364 80.6667 33.5084 81.7778 32.6804 82.8889C32.2483 83.6111 31.8163 84.3333 31.3843 85.0556C30.2682 87 29.1162 88.8889 27.9281 90.6667H31.0603C31.3123 90.1667 31.5643 89.6667 31.8163 89.1667C32.1043 88.4445 32.4283 87.7778 32.7884 87.2222C32.9324 86.8333 33.0404 86.5 33.1844 86.1667C33.4724 85.4445 33.7964 84.7778 34.1564 84.1111C34.9485 82.3333 36.0285 81.1111 37.1806 80.1667C36.6406 81.5 36.1005 82.8333 35.5965 84.2222C37.5046 82.7222 39.6647 81.6667 41.4648 79.5556H35.2005V79.6111ZM29.8362 160.611C30.0882 160.167 30.3762 159.722 30.6283 159.278H25.66C25.552 159.5 25.408 159.667 25.3 159.833C25.732 161.444 26.236 162.889 26.8481 164.278C27.3881 163.722 27.9281 163.222 28.5402 162.778C28.9722 162.056 29.4042 161.333 29.8362 160.611ZM42.9049 82.4444C42.4368 83.1111 41.9328 83.8333 41.4288 84.4445C39.9167 86.3889 38.2606 88.1111 36.4606 89.7222C36.6046 90.0556 36.7486 90.3889 36.9286 90.7222H40.7088C40.7808 90.6111 40.8528 90.5 40.9248 90.3889C41.3568 89.9445 41.7528 89.5556 42.1488 89.0556C41.8608 88.3333 41.6088 87.5 41.3928 86.6667C40.6728 83.3333 43.9129 83.3333 45.353 81.1111C45.677 80.6111 45.893 80.1111 46.037 79.6111H44.849C44.3809 80.6111 43.7689 81.6111 42.9049 82.4444ZM34.5525 169.722C34.9125 169.056 35.2365 168.444 35.5965 167.778C36.3525 166.667 37.0726 165.556 37.7206 163.944C37.7926 163.833 37.8646 163.667 37.9366 163.556C36.7846 162.833 35.7045 161.944 34.7325 160.778C34.1924 161.667 33.6884 162.5 33.1844 163.389C32.8244 164 32.5004 164.556 32.1763 165.167C31.3843 166.444 30.5563 167.722 29.7642 169.056C30.1602 169.556 30.5923 169.944 31.0243 170.389H34.1924C34.3004 170.167 34.4445 169.944 34.5525 169.722ZM171.035 11.1111C170.567 10.9444 170.135 10.8333 169.667 10.6667C169.523 10.5 169.379 10.3889 169.235 10.2222C169.127 10.5 169.019 10.8333 168.911 11.1111H171.035ZM18.6037 161.111C18.5317 160.5 18.4596 159.889 18.3876 159.278H12.9154C12.7354 159.444 12.5194 159.556 12.3393 159.722C12.3753 163.222 12.6634 166.5 13.1674 169.556C14.9315 166.667 16.6956 163.778 18.6037 161.111ZM76.2425 8.5C75.5945 9.38889 74.9105 10.2222 74.2624 11.1111H76.9626C76.9986 11.0556 77.0346 10.9444 77.0346 10.8889C77.2866 9.27778 77.5746 7.72222 77.9706 6.27778C77.8986 6.33333 77.8626 6.44444 77.7906 6.5C77.2506 7.16667 76.7466 7.83333 76.2425 8.5ZM71.6343 81.5C73.6864 80.3889 75.6665 79.7778 77.3946 79.7778C79.6987 79.7778 81.6428 80.7778 83.0469 82.8889C83.3709 83.3889 83.6949 84 83.9469 84.6111C84.1269 84.6111 84.3429 84.6111 84.523 84.6111C84.631 84.6111 84.703 84.6111 84.811 84.6111C85.315 84.6111 85.819 84.6111 86.3231 84.5556C87.8711 84.5 89.3472 84.1667 90.7873 83.6111C90.6793 82.1667 90.4633 80.8333 90.1752 79.5556H68.6822C69.6182 80.3333 70.6263 80.9445 71.6343 81.5ZM52.6254 81.2222C52.6254 81.7778 52.6254 82.3333 52.6254 82.8889C52.6254 83.7222 52.6254 84.5 52.6614 85.2778C52.7334 86.8889 52.8774 88.4444 53.2374 89.9444C53.3094 90.2222 53.3814 90.4445 53.4534 90.6667H53.5254C54.8215 88.5 55.9735 86 56.8376 82.7222C57.1976 81.6667 57.7016 80.6111 58.3497 79.5556H53.3454C53.1294 80.1667 52.8774 80.7222 52.6254 81.2222ZM42.6529 169.389C43.0129 167.722 43.5169 166.389 44.1649 165.278C43.1209 165.278 42.0768 165.111 41.1408 164.889C40.9968 165.167 40.8528 165.5 40.7448 165.778C40.4928 166.333 40.2407 166.889 40.0247 167.5C39.7007 168.5 39.3407 169.5 38.9447 170.444H42.4008C42.5089 170.056 42.5809 169.722 42.6529 169.389ZM96.4756 11.1111C96.8356 10.4444 97.1596 9.83333 97.5196 9.16667C95.5755 9.66667 93.5594 10.2778 91.5073 11.1111H96.4756ZM176.4 159.278C176.292 159.5 176.22 159.667 176.112 159.889C176.4 159.667 176.688 159.444 177.012 159.278H176.4ZM57.6656 238.889C57.5216 240.778 57.4136 242.611 57.2696 244.5C57.3776 244.389 57.4856 244.222 57.6296 244.111C57.9896 243.722 58.3496 243.389 58.7457 243.056C59.4657 242.833 60.0057 242.389 60.4018 241.722C60.5098 240.778 60.6178 239.833 60.7618 238.889H57.6656ZM7.19108 217.167V212.722C6.72306 212.278 6.29104 211.833 5.82302 211.389C5.03098 212.444 4.23894 213.611 3.4469 214.778C3.33889 214.944 3.26689 215.056 3.15888 215.222C3.01487 217.389 3.26689 219.667 4.02292 222.222C4.63496 221.056 5.31899 219.944 6.03903 218.833C6.43505 218.278 6.83107 217.722 7.19108 217.167ZM129.957 248.389C130.245 248.111 130.497 247.778 130.785 247.5C130.713 247.111 130.677 246.722 130.605 246.333C130.317 247.111 130.029 247.889 129.741 248.667C129.813 248.556 129.885 248.5 129.957 248.389ZM178.416 83.6667C179.28 82.3889 180.036 81.0556 180.756 79.6111H177.156C177.66 80.8889 178.092 82.2222 178.416 83.6667ZM36.2445 11.1111C36.6046 8.88889 36.8566 6.72222 36.9286 4.66667C35.3805 4.27778 33.7244 4.11111 32.0323 4.11111C31.6363 4.11111 31.2043 4.11111 30.8083 4.16667C31.2043 6.22222 31.2763 8.55556 31.0963 11.1667H36.2445V11.1111ZM136.474 242.611C137.158 241.333 137.878 240.056 138.706 238.889H134.997C135.466 240.111 135.97 241.389 136.474 242.611ZM3.69891 23.6111C4.27494 23.1667 4.88697 22.7222 5.499 22.2778C6.07503 22 6.61505 21.7778 7.19108 21.5V16.6667C6.86707 16.7222 6.50705 16.7778 6.18303 16.8333C4.49095 19.4444 3.05088 22.2222 1.93482 25C2.51085 24.5556 3.12288 24.1111 3.69891 23.6111ZM156.779 238.889H151.918C151.846 239.111 151.81 239.389 151.738 239.611C152.062 239.944 152.422 240.222 152.746 240.5C153.25 241 153.754 241.5 154.294 241.889C154.834 242.333 155.411 242.722 155.987 243.111C156.203 241.722 156.455 240.333 156.779 238.889ZM190.8 32.8333V37.2778C191.268 37.7222 191.7 38.1667 192.168 38.6111C192.96 37.5556 193.752 36.3889 194.544 35.2222C194.652 35.0556 194.724 34.9444 194.832 34.7778C194.977 32.6111 194.724 30.3333 193.968 27.7778C193.356 28.9444 192.672 30.0556 191.952 31.1667C191.556 31.7222 191.16 32.2778 190.8 32.8333ZM183.42 7.44444C185.58 5.33333 187.956 3.77778 190.44 2.61111C189.936 1.66667 189.396 0.777778 188.784 0H183.528C181.908 1.22222 180.324 2.55556 178.92 4.16667C180.684 4.77778 182.196 5.94444 183.42 7.44444ZM194.292 226.389C193.716 226.833 193.104 227.278 192.492 227.722C191.916 228 191.376 228.222 190.8 228.5V233.333C191.124 233.278 191.484 233.222 191.808 233.167C193.5 230.556 194.94 227.778 196.057 225C195.481 225.444 194.868 225.889 194.292 226.389ZM161.747 238.889C161.387 241.111 161.135 243.278 161.063 245.333C162.611 245.722 164.267 245.944 165.959 245.944C166.355 245.944 166.787 245.944 167.183 245.889C166.787 243.833 166.715 241.5 166.895 238.889H161.747ZM180.036 238.889H172.835C173.051 240.222 173.447 241.333 174.023 242.278C174.527 243.056 175.139 243.611 175.824 243.944C176.544 243.722 177.264 243.444 177.48 242.778C178.272 241.222 179.136 239.944 180.036 238.889ZM41.2128 11.1111H46.073C46.145 10.8889 46.181 10.6111 46.253 10.3889C45.929 10.0556 45.569 9.77778 45.245 9.5C44.741 9 44.2369 8.5 43.6969 8.11111C43.1569 7.66667 42.5809 7.27778 42.0048 6.88889C41.7888 8.27778 41.5368 9.66667 41.2128 11.1111ZM17.9556 11.1111H25.156C24.94 9.77778 24.544 8.66667 23.9679 7.72222C23.4639 6.94444 22.8519 6.38889 22.1678 6.05556C21.4478 6.27778 20.7278 6.55556 20.5118 7.22222C19.7197 8.77778 18.8557 10.0556 17.9556 11.1111ZM169.775 163.056C169.847 162.889 169.919 162.778 169.991 162.611C169.595 163.111 169.235 163.667 168.911 164.222C168.587 164.722 168.299 165.222 168.011 165.778C168.263 165.444 168.515 165.167 168.803 164.833C169.127 164.278 169.451 163.667 169.775 163.056ZM162.791 170.389C163.655 169.333 164.483 168.222 165.311 167.111C165.743 166.389 166.175 165.667 166.607 164.944C167.723 163 168.875 161.111 170.063 159.333H166.931C166.679 159.833 166.427 160.333 166.175 160.833C165.887 161.556 165.563 162.222 165.203 162.778C165.059 163.167 164.951 163.5 164.807 163.833C164.519 164.556 164.195 165.222 163.835 165.889C163.043 167.667 161.963 168.889 160.811 169.833C161.351 168.5 161.891 167.167 162.395 165.778C160.487 167.278 158.327 168.333 156.527 170.444H162.791V170.389ZM163.439 80.2778C163.079 80.9445 162.755 81.5556 162.395 82.2222C161.639 83.3333 160.919 84.4444 160.271 86.0556C160.199 86.1667 160.127 86.3333 160.055 86.4445C161.207 87.1667 162.287 88.0556 163.259 89.2222C163.799 88.3333 164.303 87.5 164.807 86.6111C165.167 86 165.491 85.4445 165.815 84.8333C166.607 83.5556 167.435 82.2778 168.227 80.9445C167.831 80.4445 167.399 80.0556 166.967 79.6111H163.799C163.691 79.8333 163.547 80.0556 163.439 80.2778ZM168.155 89.3889C167.903 89.8333 167.615 90.2778 167.363 90.7222H172.367C172.475 90.5 172.619 90.3333 172.727 90.1667C172.295 88.5556 171.791 87.1111 171.179 85.7222C170.639 86.2778 170.099 86.7778 169.487 87.2222C169.019 87.9445 168.587 88.6667 168.155 89.3889ZM179.208 164.722C176.544 165.778 173.915 166.944 172.259 169.278C172.007 169.611 171.791 170 171.575 170.389H176.184C177.228 168.556 178.236 166.667 179.208 164.722ZM179.388 88.8889C179.46 89.5 179.532 90.1111 179.604 90.7222H185.076C185.256 90.5556 185.472 90.4445 185.652 90.2778C185.616 86.7778 185.328 83.5 184.824 80.4445C183.06 83.3333 181.296 86.2222 179.388 88.8889ZM155.339 80.6111C154.978 82.2778 154.474 83.6111 153.826 84.7222C154.87 84.7222 155.915 84.8889 156.851 85.1111C156.995 84.8333 157.139 84.5 157.247 84.2222C157.499 83.6667 157.751 83.1111 157.967 82.5C158.291 81.5 158.651 80.5 159.047 79.5556H155.591C155.483 79.9444 155.411 80.2778 155.339 80.6111ZM140.326 11.1111C140.47 9.22222 140.578 7.38889 140.722 5.5C140.614 5.61111 140.506 5.77778 140.362 5.88889C140.002 6.27778 139.642 6.61111 139.246 6.94444C138.526 7.16667 137.986 7.61111 137.59 8.27778C137.482 9.22222 137.374 10.1667 137.23 11.1111H140.326ZM68.0341 1.61111C67.7461 1.88889 67.4941 2.22222 67.2061 2.5C67.2781 2.88889 67.3141 3.27778 67.3861 3.66667C67.6741 2.88889 67.9621 2.11111 68.2501 1.33333C68.1781 1.44444 68.1061 1.5 68.0341 1.61111ZM14.4274 87.2222C15.3635 84.7778 16.4075 82.2222 17.2716 79.6667H15.0035C14.1754 80 13.3114 80.2778 12.4113 80.5C11.5473 83.6111 10.3592 86.7778 9.5672 89.2778C10.5393 88.8333 11.5473 88.5 12.4833 88.0556C13.1314 87.7778 13.7794 87.5 14.4274 87.2222ZM190.008 10.6111C189.972 10.6111 189.936 10.6111 189.9 10.6111C189.216 10.6111 188.604 10.7778 188.028 11.1111H190.8V24.5556C193.32 19.5556 194.148 14.2222 192.6 11.8333C192.276 11.3333 191.916 11.0556 191.484 10.8333C191.16 10.6667 190.8 10.6111 190.404 10.6111C190.26 10.6111 190.152 10.6111 190.008 10.6111ZM190.8 51.6667V51.8889C190.8 51.8333 190.836 51.7778 190.836 51.7222C190.836 51.7222 190.8 51.7222 190.8 51.6667ZM61.5178 7.38889C60.8338 8.66667 60.1137 9.94444 59.2857 11.1111H62.9939C62.5259 9.88889 62.0218 8.61111 61.5178 7.38889ZM102.272 8.33333C101.84 9.27778 101.408 10.1667 100.976 11.1111H105.044C105.476 10.1111 105.908 9.11111 106.304 8.27778C105.908 8.27778 105.476 8.22222 105.08 8.22222C104.144 8.22222 103.244 8.27778 102.272 8.33333ZM0.242735 246.167C0.170732 246.056 0.0627263 245.889 -0.00927734 245.778V250H1.32279C0.92677 248.778 0.638755 247.556 0.350741 246.333C0.314739 246.278 0.278737 246.222 0.242735 246.167ZM14.5715 242.556C12.4113 244.667 10.0352 246.222 7.5511 247.389C8.05513 248.333 8.59515 249.222 9.20718 250H14.4634C16.0835 248.778 17.6676 247.444 19.0717 245.833C17.3076 245.222 15.7955 244.056 14.5715 242.556ZM7.19108 100.333C4.81496 102.111 2.40284 102.889 -0.00927734 103.722V110.611C2.40284 108.389 4.85097 105.556 7.19108 102.222V100.333ZM0.458746 203.5C0.314739 203.167 0.13473 202.833 -0.00927734 202.5V207.889C0.206733 206.556 0.458746 205.222 0.710759 203.944C0.602753 203.778 0.53075 203.667 0.458746 203.5ZM26.344 248.5C26.2 248.444 26.02 248.444 25.84 248.389C25.228 248.333 24.616 248.222 24.0039 248.056C23.5719 247.944 23.1399 247.833 22.7439 247.722C22.1318 248.556 21.4838 249.278 20.8358 250H25.948C26.056 249.556 26.164 249.111 26.272 248.722C26.308 248.611 26.344 248.556 26.344 248.5ZM42.0048 246C40.4928 246.778 38.9807 247.444 37.4686 247.944C37.5406 248.611 37.7206 249.333 38.0086 250H43.0129C42.5809 249.111 42.2568 248.167 42.1488 247.222C42.0408 246.778 42.0048 246.389 42.0048 246ZM30.8443 249.056C30.2682 249.056 29.7282 249.056 29.1522 249C29.1162 249.333 29.0802 249.667 29.0442 250H31.8523C31.8523 249.667 31.8523 249.333 31.8883 249C31.5283 249.056 31.2043 249.056 30.8443 249.056ZM7.19108 59.1667C5.35499 60 3.5549 61.1111 1.86282 61.9444C1.25079 62.4444 0.638755 62.9444 -0.00927734 63.5556V63.9444C2.22283 63.4444 4.67096 62.3333 7.19108 60.6667V59.1667ZM4.99497 10.8333C7.80311 6.83333 10.9353 3.94444 14.0674 0.777778C14.4274 0.5 14.7515 0.222222 15.0755 0H8.27114C6.11103 3.27778 4.13093 6.83333 1.5028 9C1.07078 9.44445 0.674757 9.94444 0.278737 10.4444C0.170732 10.6111 0.0987281 10.7778 -0.00927734 10.9444V13.7222C0.314739 13.3889 0.638755 13.1111 0.998773 12.7778C2.25884 11.6111 3.6269 11.1667 4.99497 10.8333ZM7.19108 53.2222C4.92297 54.5556 2.76286 55.2222 0.854766 55.2222C0.566752 55.2222 0.278737 55.2222 -0.00927734 55.1667V56.6667C2.43885 55.8333 4.81496 54.5556 7.19108 53.2778V53.2222ZM7.19108 112.611V109.833C5.427 112.111 3.6269 114.222 1.82681 116C3.66291 115.222 5.499 114.056 7.19108 112.611ZM55.7215 6.83333C56.8376 4.61111 57.9176 2.33333 58.9617 0H53.1294C52.9494 1.05556 52.8414 2.16667 52.6614 3.38889C53.7054 4.38889 54.7495 5.55556 55.7215 6.83333ZM5.28299 76.5556C5.463 76.3889 5.67901 76.2778 5.85902 76.1111C5.75101 76 5.607 75.9445 5.463 75.8889C5.13898 75.7222 4.77896 75.6667 4.38294 75.6667C4.27494 75.6667 4.13093 75.6667 3.98692 75.6667C2.79886 75.7778 1.39479 76.5556 -0.00927734 77.8889V79.6111C1.35879 78.9445 2.72686 78.1667 4.13093 77.2778C4.52695 77.0556 4.88697 76.8333 5.28299 76.5556ZM52.1933 242C50.3932 243.889 47.1531 242.778 47.1531 246.667C47.1531 247.944 47.4051 249 47.8011 250H51.9053C52.5174 247.167 52.8414 244.278 53.0934 241.389C52.8054 241.611 52.5174 241.833 52.1933 242ZM197.533 46.5C197.677 46.8333 197.857 47.1667 198.001 47.5V42.1111C197.785 43.4444 197.533 44.7778 197.281 46.0556C197.389 46.2222 197.461 46.3333 197.533 46.5ZM192.708 173.444C192.528 173.611 192.312 173.722 192.132 173.889C192.24 174 192.384 174.056 192.528 174.111C192.852 174.278 193.212 174.333 193.608 174.333C193.716 174.333 193.86 174.333 194.004 174.333C195.193 174.222 196.597 173.444 198.001 172.111V170.389C196.633 171.056 195.265 171.833 193.86 172.722C193.464 172.944 193.104 173.167 192.708 173.444ZM190.8 190.833C192.636 190 194.436 188.889 196.129 188.056C196.741 187.556 197.353 187.056 198.001 186.444V186.111C195.769 186.611 193.32 187.722 190.8 189.389V190.833ZM194.688 157.778C194.076 158.722 193.536 159.667 193.068 160.667C192.6 161.667 192.168 162.667 191.808 163.611C191.52 164.5 191.196 165.667 190.98 166.889C192.132 166.167 193.356 165.5 194.544 164.833C194.904 164.611 195.301 164.333 195.661 164.111C196.417 163.611 197.209 163.167 197.965 162.778V155.333C197.065 155.778 196.201 156.278 195.337 156.778C195.12 157.111 194.904 157.444 194.688 157.778ZM87.8351 5.11111C88.7352 3.27778 89.7432 1.61111 90.7873 0H84.739C83.4789 2.55556 82.4709 5.33333 81.6788 8.33333C83.7309 7.11111 85.783 6.11111 87.8351 5.11111ZM190.8 149.667C193.176 147.889 195.589 147.111 198.001 146.278V139.389C195.589 141.611 193.14 144.444 190.8 147.778V149.667ZM196.669 0C197.065 1.22222 197.353 2.44444 197.641 3.66667C197.677 3.72222 197.713 3.77778 197.749 3.83333C197.821 3.94444 197.929 4.11111 198.001 4.22222V0H196.669ZM190.8 196.778C193.068 195.444 195.229 194.778 197.137 194.778C197.425 194.778 197.713 194.778 198.001 194.833V193.333C195.553 194.167 193.176 195.444 190.8 196.722V196.778ZM110.156 244.889C109.256 246.722 108.248 248.389 107.204 250H113.252C114.512 247.444 115.521 244.667 116.313 241.667C114.26 242.889 112.208 243.889 110.156 244.889ZM81.0308 250H81.2828C81.1388 249.889 81.0308 249.778 80.8868 249.667C80.9228 249.778 80.9588 249.889 81.0308 250ZM97.6996 249.667C97.3036 249.778 96.9076 249.833 96.5116 249.944V250H100.976C101.192 249.5 101.408 249 101.624 248.556C100.292 249 98.9957 249.389 97.6996 249.667ZM67.4221 238.889H65.838C65.226 241.722 64.65 244.611 64.1459 247.5C64.2539 248.333 64.3979 249.167 64.578 250H69.5462C69.9062 247.667 70.2302 245.278 70.5183 242.833C69.3662 241.722 68.3222 240.389 67.4221 238.889ZM192.996 239.167C190.188 243.167 187.056 246.056 183.924 249.222C183.564 249.5 183.24 249.778 182.916 250H189.72C191.88 246.722 193.86 243.167 196.489 241C196.921 240.556 197.317 240.056 197.713 239.556C197.821 239.389 197.893 239.222 198.001 239.056V236.278C197.677 236.611 197.353 236.889 196.993 237.222C195.733 238.389 194.364 238.833 192.996 239.167ZM142.27 243.167C141.154 245.389 140.074 247.667 139.03 250H144.862C145.042 248.944 145.15 247.833 145.33 246.611C144.286 245.611 143.242 244.444 142.27 243.167ZM71.9223 163.889C72.2823 162.5 72.6424 161.167 73.0384 159.778C70.8783 160.778 68.9342 162.167 67.1701 163.833C66.7021 165.556 66.27 167.222 65.838 168.889C65.694 167.833 65.442 166.889 65.046 166.056C63.9299 167.333 62.8499 168.778 61.8418 170.389H66.198C67.8901 167.778 69.7982 165.722 71.9223 163.889ZM3.30289 92.2222C3.91492 91.2778 4.45495 90.3333 4.92297 89.3333C5.39099 88.3333 5.82302 87.3333 6.18303 86.3889C6.47105 85.5 6.79506 84.3333 7.01107 83.1111C5.85902 83.8333 4.63496 84.5 3.4469 85.1667C3.08688 85.3889 2.69086 85.6667 2.33084 85.8889C1.5748 86.3889 0.782762 86.8333 0.0267245 87.2222V94.6667C0.92677 94.2222 1.79081 93.7222 2.65486 93.2222C2.87087 92.8889 3.08688 92.5556 3.30289 92.2222ZM77.9346 159.278C77.8986 159.444 77.8626 159.556 77.8266 159.722C78.0426 159.556 78.2946 159.444 78.5107 159.278H77.9346ZM47.5131 238.889C47.3691 239.556 47.2251 240.167 47.0811 240.833C48.3411 240.278 49.6012 239.722 50.5733 238.889H47.5131ZM60.6538 163C60.6178 163 60.5818 163 60.5458 163C60.5458 163 60.5458 163 60.5098 163C59.9337 163 59.3217 163.056 58.6737 163.222C54.6055 164.278 48.8812 164.389 46.361 170.333H53.8494C54.6415 169.889 55.3975 169.444 56.1895 168.944C56.5496 168.722 56.9456 168.5 57.3056 168.222C58.9617 166.667 60.4738 164.889 62.0218 163.167C61.6258 163.111 61.1578 163 60.6538 163ZM63.7859 87.8333C63.8219 87.7778 63.8939 87.7222 63.9299 87.6667C63.3539 87.1111 62.8139 86.4444 62.2738 85.7778C61.8418 85.1667 61.4098 84.5556 61.0138 83.8889C59.8977 85.8889 59.1057 88.3333 58.2056 90.7222H61.9858C62.2378 90.1667 62.4899 89.6111 62.7059 89.0556C63.0659 88.6667 63.4259 88.2222 63.7859 87.8333ZM126.357 168.5C124.305 169.611 122.325 170.222 120.597 170.222C118.293 170.222 116.349 169.222 114.944 167.111C114.62 166.611 114.296 166 114.044 165.389C113.864 165.389 113.648 165.389 113.468 165.389C113.36 165.389 113.288 165.389 113.18 165.389C112.676 165.389 112.172 165.389 111.668 165.444C110.12 165.5 108.644 165.833 107.204 166.389C107.312 167.833 107.528 169.167 107.816 170.444H129.309C128.373 169.667 127.365 169.056 126.357 168.5ZM95.7195 241.667C96.1515 240.722 96.5836 239.833 97.0156 238.889H92.9474C92.5154 239.889 92.0833 240.889 91.6873 241.722C92.0833 241.722 92.5154 241.778 92.9114 241.778C93.8474 241.778 94.7475 241.722 95.7195 241.667ZM101.516 238.889C101.156 239.556 100.832 240.167 100.472 240.833C102.416 240.333 104.432 239.722 106.484 238.889H101.516ZM19.5757 166.333C18.7117 167.611 17.9556 168.944 17.2356 170.389H20.8358C20.3317 169.111 19.8997 167.778 19.5757 166.333ZM7.98312 239.389C8.01912 239.389 8.05513 239.389 8.09113 239.389C8.77516 239.389 9.38719 239.222 9.96322 238.889H7.19108V225.444C4.67096 230.444 3.84292 235.778 5.39099 238.167C5.71501 238.667 6.07503 238.944 6.50705 239.167C6.83107 239.333 7.19108 239.389 7.5871 239.389C7.73111 239.389 7.83912 239.389 7.98312 239.389ZM6.79506 179.278C6.93907 179.056 7.04708 178.889 7.19108 178.667V174.333C6.90307 172.333 6.72306 170.222 6.61505 168.111C6.50705 168.889 6.47105 169.722 6.47105 170.611C5.64301 172 4.92297 173.444 4.31094 175C3.26689 177.5 2.43885 180.111 1.82681 182.944C2.25884 185.444 2.79886 187.778 3.4829 190C3.66291 185.5 4.99497 182.167 6.79506 179.278ZM2.61885 165.222C2.54685 164.444 2.47485 163.722 2.43885 163C2.40284 162.278 2.40284 161.556 2.40284 160.889C2.43885 160.056 2.51085 159.278 2.65486 158.556C2.87087 156.111 4.31094 155 5.39099 154.444C5.96702 154.111 6.50705 153.778 7.08308 153.389C7.11908 153 7.15508 152.667 7.19108 152.278V140C5.85902 140.444 4.67096 141.278 3.66291 142.444C1.14278 154.889 0.206733 166.444 0.998773 176.389C2.33084 172.889 3.4829 169.278 2.61885 165.222ZM26.9561 238.889C27.4241 239.056 27.8561 239.167 28.3241 239.333C28.4681 239.5 28.6122 239.611 28.7562 239.778C28.8642 239.5 28.9722 239.167 29.0802 238.889H26.9561ZM100.292 0.333333C100.688 0.222222 101.084 0.166667 101.48 0.0555556V0H97.0156C96.7996 0.5 96.5836 1 96.3676 1.44444C97.6996 1 98.9957 0.611111 100.292 0.333333ZM121.749 241.5C122.397 240.611 123.081 239.778 123.729 238.889H121.029C120.993 238.944 120.957 239.056 120.957 239.111C120.705 240.722 120.417 242.278 120.021 243.722C120.093 243.667 120.129 243.556 120.201 243.5C120.741 242.833 121.245 242.167 121.749 241.5ZM35.8845 238.889H32.3563C32.1763 239.278 31.9603 239.611 31.7803 240C31.5643 240.444 31.3483 240.944 31.1683 241.389C32.0683 241.778 32.9324 242 33.7964 242C34.3724 240.889 35.0925 239.889 35.8845 238.889ZM145.798 8C147.598 6.11111 150.838 7.22222 150.838 3.33333C150.838 2.05556 150.586 1 150.19 0H146.086C145.474 2.83333 145.15 5.72222 144.898 8.61111C145.186 8.38889 145.474 8.16667 145.798 8ZM126.069 86.1111C125.709 87.5 125.349 88.8333 124.953 90.2222C127.113 89.2222 129.057 87.8333 130.821 86.1667C131.289 84.4445 131.721 82.7778 132.153 81.1111C132.297 82.1667 132.585 83.1111 132.945 83.9445C134.061 82.6667 135.141 81.2222 136.15 79.6111H131.793C130.101 82.2222 128.193 84.2778 126.069 86.1111ZM167.147 0.944445C167.723 0.944445 168.263 0.944444 168.839 1C168.875 0.666667 168.911 0.333333 168.947 0H166.139C166.139 0.333333 166.139 0.666667 166.103 1C166.463 0.944444 166.787 0.944445 167.147 0.944445ZM155.987 4C157.499 3.22222 159.011 2.55556 160.523 2.05556C160.451 1.38889 160.271 0.666667 159.983 0H154.978C155.411 0.888889 155.735 1.83333 155.843 2.77778C155.951 3.22222 155.987 3.61111 155.987 4ZM130.569 11.1111H132.153C132.765 8.27778 133.341 5.38889 133.845 2.5C133.737 1.66667 133.593 0.833333 133.413 0H128.445C128.085 2.33333 127.761 4.72222 127.473 7.16667C128.625 8.27778 129.669 9.61111 130.569 11.1111ZM116.961 0H116.709C116.853 0.111111 116.961 0.222222 117.105 0.333333C117.069 0.222222 117.033 0.111111 116.961 0ZM195.373 84.7778C195.445 85.5556 195.517 86.2778 195.553 87C195.589 87.7222 195.589 88.4444 195.589 89.1111C195.553 89.9444 195.481 90.7222 195.337 91.4445C195.12 93.8889 193.68 95 192.6 95.5556C192.024 95.8889 191.484 96.2222 190.908 96.6111C190.872 97 190.836 97.3333 190.8 97.7222V110C192.132 109.556 193.32 108.722 194.328 107.556C196.849 95.1111 197.785 83.5556 196.993 73.6111C195.661 77.1111 194.508 80.7222 195.373 84.7778ZM190.8 137.389V140.167C192.564 137.889 194.364 135.778 196.165 134C194.328 134.778 192.492 135.944 190.8 137.389ZM183.564 162.778C182.628 165.222 181.584 167.778 180.72 170.333H182.988C183.816 170 184.68 169.722 185.58 169.5C186.444 166.389 187.632 163.222 188.424 160.722C187.452 161.167 186.444 161.5 185.508 161.944C184.86 162.222 184.212 162.5 183.564 162.778ZM171.647 1.5C171.791 1.55556 171.971 1.55556 172.151 1.61111C172.763 1.66667 173.375 1.77778 173.987 1.94444C174.419 2.05556 174.851 2.16667 175.247 2.27778C175.86 1.44444 176.508 0.722222 177.156 0H172.043C171.935 0.444444 171.827 0.888889 171.719 1.27778C171.683 1.38889 171.647 1.44444 171.647 1.5ZM155.086 167.556C155.555 166.889 156.059 166.167 156.563 165.556C158.075 163.611 159.731 161.889 161.531 160.278C161.387 159.944 161.243 159.611 161.063 159.278H157.283C157.211 159.389 157.139 159.5 157.067 159.611C156.635 160.056 156.239 160.444 155.843 160.944C156.131 161.667 156.383 162.5 156.599 163.333C157.319 166.667 154.078 166.667 152.638 168.889C152.314 169.389 152.098 169.889 151.954 170.389H153.142C153.61 169.389 154.222 168.389 155.086 167.556ZM145.366 168.778C145.366 168.222 145.366 167.667 145.366 167.111C145.366 166.278 145.366 165.5 145.33 164.722C145.258 163.111 145.114 161.556 144.754 160.056C144.682 159.778 144.61 159.556 144.538 159.333H144.466C143.17 161.5 142.018 164 141.154 167.278C140.794 168.333 140.29 169.389 139.642 170.444H144.646C144.862 169.833 145.114 169.278 145.366 168.778ZM191.196 70.7222C191.052 70.9445 190.944 71.1111 190.8 71.3333V75.6667C191.088 77.6667 191.268 79.7778 191.376 81.8889C191.484 81.1111 191.52 80.2778 191.52 79.3889C192.348 78 193.068 76.5556 193.68 75C194.724 72.5 195.553 69.8889 196.165 67.0556C195.733 64.5556 195.193 62.2222 194.508 60C194.328 64.5 192.996 67.8333 191.196 70.7222Z" fill="#F2A86D"/>
<path d="M189.72 81.2776H8.27048C7.65845 81.2776 7.19043 80.5553 7.19043 79.6109V72.3887H190.8V79.6109C190.8 80.5553 190.332 81.2776 189.72 81.2776Z" fill="#FEC298"/>
<path d="M189.72 160.944H8.27048C7.65845 160.944 7.19043 160.221 7.19043 159.277V152.055H190.8V159.277C190.8 160.166 190.332 160.944 189.72 160.944Z" fill="#FEC298"/>
<path d="M189.72 240.555H8.27048C7.65845 240.555 7.19043 239.833 7.19043 238.888V231.666H190.8V238.888C190.8 239.833 190.332 240.555 189.72 240.555Z" fill="#FEC298"/>
<path d="M190.8 72.3887H7.19043V79.6109H190.8V72.3887Z" fill="#C77A3F"/>
<path d="M190.8 152.055H7.19043V159.277H190.8V152.055Z" fill="#C77A3F"/>
<path d="M190.8 231.666H7.19043V238.888H190.8V231.666Z" fill="#C77A3F"/>
<path d="M191 172.055H9.16357C9.16357 171.11 9.62708 170.388 10.2332 170.388H189.93C190.536 170.388 191 171.11 191 172.055ZM189.93 90.7215H10.2332C9.62708 90.7215 9.16357 91.4437 9.16357 92.3881H191C191 91.4992 190.536 90.7215 189.93 90.7215ZM189.93 11.1104H10.2332C9.62708 11.1104 9.16357 11.8326 9.16357 12.777H191C191 11.8326 190.536 11.1104 189.93 11.1104Z" fill="#9E6945"/>
<path d="M70.7407 139.667C70.7407 149.667 72.5276 157 58.7822 157C45.0367 157 46.8236 149.611 46.8236 139.667C46.8236 129.667 52.1844 117.444 58.7822 117.444C65.38 117.444 70.7407 129.722 70.7407 139.667Z" fill="#DE852A"/>
<path d="M58.5988 130.889C54.4752 130.889 51.1763 138.111 51.1763 145.333C51.1763 146.944 51.3595 148.5 51.6803 149.944C53.4214 153.166 55.8955 155.166 58.6446 155.166C61.3937 155.166 63.8679 153.166 65.609 149.944C65.9297 148.5 66.113 146.944 66.113 145.333C66.0214 138.111 62.7225 130.889 58.5988 130.889Z" fill="#FFEABE"/>
<path d="M54.0611 155.926C56.6912 153.795 56.9655 148.696 54.6739 144.538C52.3822 140.379 48.3923 138.735 45.7622 140.866C43.1321 142.997 42.8578 148.096 45.1494 152.254C47.4411 156.413 51.431 158.057 54.0611 155.926Z" fill="#ED9A2A"/>
<path d="M54.9793 145.111C56.2623 148.778 55.7124 152.722 53.4673 154.5C50.8557 156.611 46.8695 155 44.5786 150.834C44.487 150.667 44.3953 150.445 44.3037 150.278C44.5328 150.945 44.8077 151.611 45.1743 152.222C47.4652 156.389 51.4513 158 54.063 155.889C56.5372 153.834 56.9037 149.111 54.9793 145.111Z" fill="#DE852A"/>
<path d="M52.4673 154.402C53.7929 153.328 53.8759 150.658 52.6527 148.438C51.4296 146.219 49.3634 145.29 48.0379 146.364C46.7123 147.438 46.6293 150.108 47.8524 152.328C49.0756 154.547 51.1417 155.476 52.4673 154.402Z" fill="#FFEABE"/>
<path d="M44.716 142.555C43.1124 145.111 43.9829 148.444 45.0826 146.611C46.1822 144.778 47.0527 143.278 48.7022 143.333C50.3975 143.389 51.8637 144.111 52.8258 145.333C53.8338 146.555 55.0251 145.389 53.284 143.111C51.5887 140.833 47.236 138.5 44.716 142.555Z" fill="#FFAF2B"/>
<path d="M71.814 140.8C69.1839 138.669 65.194 140.313 62.9023 144.471C60.6107 148.63 60.885 153.729 63.5151 155.859C66.1452 157.99 70.1351 156.347 72.4268 152.188C74.7184 148.03 74.4441 142.931 71.814 140.8Z" fill="#ED9A2A"/>
<path d="M62.5857 145.11C61.3027 148.777 61.8526 152.721 64.0977 154.499C66.7093 156.61 70.6955 154.999 72.9864 150.833C73.078 150.666 73.1697 150.444 73.2613 150.277C73.0322 150.944 72.7573 151.61 72.3907 152.221C70.0998 156.388 66.1137 157.999 63.502 155.888C61.0278 153.833 60.6613 149.11 62.5857 145.11Z" fill="#DE852A"/>
<path d="M69.5493 146.411C68.2237 145.337 66.1576 146.266 64.9344 148.485C63.7113 150.705 63.7943 153.375 65.1199 154.449C66.4454 155.523 68.5116 154.594 69.7347 152.375C70.9579 150.155 70.8749 147.485 69.5493 146.411Z" fill="#FFEABE"/>
<path d="M72.8486 142.555C74.4523 145.111 73.5817 148.444 72.4821 146.611C71.3825 144.778 70.5119 143.278 68.8625 143.333C67.1672 143.389 65.701 144.111 64.7388 145.333C63.7308 146.555 62.5395 145.389 64.2806 143.111C65.9759 140.833 70.3286 138.5 72.8486 142.555Z" fill="#FFAF2B"/>
<path d="M51.4972 129.555C56.3081 132.166 56.2623 136.499 54.3837 138.61C52.5052 140.722 48.7481 139.944 45.9532 136.833C43.2041 133.722 42.5168 129.555 44.3495 127.388C48.2899 122.722 51.039 122.555 51.6346 124.611C51.7721 125.111 49.3437 126.722 49.5728 127.222C49.8935 127.999 50.6724 129.111 51.4972 129.555Z" fill="#FFAF2B"/>
<path d="M54.3838 133.11C55.2543 134.11 55.575 136.61 54.338 137.999C53.1009 139.388 50.7183 139.166 49.8478 138.222C48.9772 137.222 49.2521 135.277 50.535 133.888C51.818 132.499 53.5132 132.11 54.3838 133.11Z" fill="#DE852A"/>
<path d="M66.0674 129.332C61.2564 131.943 61.3023 136.277 63.1808 138.388C65.0594 140.499 68.8164 139.721 71.6114 136.61C74.3604 133.499 75.0477 129.332 73.215 127.166C69.2746 122.499 66.5255 122.332 65.9299 124.388C65.7924 124.888 68.2208 126.499 67.9917 126.999C67.671 127.777 66.8921 128.888 66.0674 129.332Z" fill="#FFAF2B"/>
<path d="M63.1809 132.833C62.3104 133.833 61.9897 136.333 63.2268 137.722C64.4638 139.111 66.8464 138.889 67.7169 137.944C68.5875 136.944 68.3126 135 67.0297 133.611C65.7926 132.222 64.0515 131.889 63.1809 132.833Z" fill="#DE852A"/>
<path d="M67.9918 127C68.2209 126.5 65.7925 124.833 65.93 124.389C66.434 122.722 68.3125 122.5 71.1075 124.944C70.0536 126.166 68.8165 127.222 67.3962 128.111C67.6253 127.722 67.8544 127.333 67.9918 127ZM46.5947 125.055C47.5569 126.166 48.6565 127.111 49.9395 127.889C49.802 127.666 49.6645 127.444 49.5729 127.222C49.3438 126.722 51.7722 125.055 51.6347 124.611C51.1307 122.944 49.298 122.722 46.5947 125.055Z" fill="#ED9A2A"/>
<path d="M69.1832 124.388C69.0457 124.555 68.9083 124.722 68.8166 124.888C66.3424 127.888 63.181 129.722 59.9279 130.055C59.5155 130.11 59.149 130.11 58.7366 130.11C58.3243 130.11 57.9577 130.11 57.5454 130.055C54.2923 129.722 51.1308 127.888 48.6566 124.888C48.5192 124.722 48.3817 124.555 48.2443 124.388C47.5112 123.388 48.1068 121.833 49.2064 121.888L58.6908 122.555L68.1752 121.888C69.3206 121.777 69.9163 123.388 69.1832 124.388Z" fill="#FD2A43"/>
<path d="M58.7825 134.943C60.3767 134.943 61.6691 133.376 61.6691 131.443C61.6691 129.51 60.3767 127.943 58.7825 127.943C57.1883 127.943 55.896 129.51 55.896 131.443C55.896 133.376 57.1883 134.943 58.7825 134.943Z" fill="#FFF318"/>
<path d="M58.7826 133.555C57.4081 133.555 56.2626 132.388 55.9877 130.777C55.9419 131 55.9419 131.222 55.9419 131.5C55.9419 133.444 57.2248 135 58.8284 135C60.4321 135 61.715 133.444 61.715 131.5C61.715 131.277 61.715 131.055 61.6692 130.777C61.3026 132.333 60.1572 133.555 58.7826 133.555Z" fill="#FFAF2B"/>
<path d="M47.3279 109.611C49.8584 109.611 51.9097 107.124 51.9097 104.056C51.9097 100.987 49.8584 98.5 47.3279 98.5C44.7974 98.5 42.7461 100.987 42.7461 104.056C42.7461 107.124 44.7974 109.611 47.3279 109.611Z" fill="#DE852A"/>
<path d="M48.3821 109.166C50.1534 109.166 51.5893 107.425 51.5893 105.278C51.5893 103.13 50.1534 101.389 48.3821 101.389C46.6107 101.389 45.1748 103.13 45.1748 105.278C45.1748 107.425 46.6107 109.166 48.3821 109.166Z" fill="#FFEABE"/>
<path d="M70.2371 109.611C72.7676 109.611 74.8189 107.124 74.8189 104.056C74.8189 100.987 72.7676 98.5 70.2371 98.5C67.7066 98.5 65.6553 100.987 65.6553 104.056C65.6553 107.124 67.7066 109.611 70.2371 109.611Z" fill="#DE852A"/>
<path d="M69.2292 109.166C71.0006 109.166 72.4365 107.425 72.4365 105.278C72.4365 103.13 71.0006 101.389 69.2292 101.389C67.4579 101.389 66.022 103.13 66.022 105.278C66.022 107.425 67.4579 109.166 69.2292 109.166Z" fill="#FFEABE"/>
<path d="M61.5317 97.8332C60.4321 96.4999 58.7826 96.2777 57.8663 97.3332C57.6372 97.611 57.4997 97.9443 57.4081 98.3332C56.5375 97.9443 55.6212 98.111 55.0714 98.8332C54.155 99.9443 54.3383 101.889 55.4837 103.278C56.5834 104.611 58.2328 104.833 59.1492 103.778C59.3783 103.5 59.5157 103.167 59.6074 102.778C60.4779 103.167 61.3943 103 61.9441 102.278C62.8146 101.167 62.6314 99.2221 61.5317 97.8332Z" fill="#FFAF2B"/>
<path d="M58.7825 126.945C66.7029 126.945 73.1236 120.727 73.1236 113.056C73.1236 105.385 66.7029 99.167 58.7825 99.167C50.8621 99.167 44.4414 105.385 44.4414 113.056C44.4414 120.727 50.8621 126.945 58.7825 126.945Z" fill="#FFAF2B"/>
<path d="M58.7825 120C51.7265 120 45.8618 116 44.6705 110.667C44.533 111.445 44.4414 112.223 44.4414 113.056C44.4414 120.723 50.856 126.945 58.7825 126.945C66.709 126.945 73.1236 120.723 73.1236 113.056C73.1236 112.223 73.0319 111.445 72.8945 110.667C71.7032 116 65.8385 120 58.7825 120Z" fill="#ED9A2A"/>
<path d="M53.33 115.501C54.2915 115.501 55.0711 114.555 55.0711 113.389C55.0711 112.223 54.2915 111.278 53.33 111.278C52.3684 111.278 51.5889 112.223 51.5889 113.389C51.5889 114.555 52.3684 115.501 53.33 115.501Z" fill="#DE852A"/>
<path d="M53.3298 115.501C54.0383 115.501 54.6127 114.804 54.6127 113.945C54.6127 113.086 54.0383 112.39 53.3298 112.39C52.6213 112.39 52.0469 113.086 52.0469 113.945C52.0469 114.804 52.6213 115.501 53.3298 115.501Z" fill="#401113"/>
<path d="M53.33 115C53.8108 115 54.2006 114.527 54.2006 113.944C54.2006 113.361 53.8108 112.889 53.33 112.889C52.8492 112.889 52.4595 113.361 52.4595 113.944C52.4595 114.527 52.8492 115 53.33 115Z" fill="#A14D51"/>
<path d="M52.9177 113.889C53.1455 113.889 53.3301 113.665 53.3301 113.389C53.3301 113.113 53.1455 112.889 52.9177 112.889C52.69 112.889 52.5054 113.113 52.5054 113.389C52.5054 113.665 52.69 113.889 52.9177 113.889Z" fill="#FFFFC4"/>
<path d="M64.2347 115.501C65.1963 115.501 65.9758 114.555 65.9758 113.389C65.9758 112.223 65.1963 111.278 64.2347 111.278C63.2732 111.278 62.4937 112.223 62.4937 113.389C62.4937 114.555 63.2732 115.501 64.2347 115.501Z" fill="#DE852A"/>
<path d="M64.2346 115.501C64.9431 115.501 65.5175 114.804 65.5175 113.945C65.5175 113.086 64.9431 112.39 64.2346 112.39C63.526 112.39 62.9517 113.086 62.9517 113.945C62.9517 114.804 63.526 115.501 64.2346 115.501Z" fill="#401113"/>
<path d="M64.2348 115C64.7156 115 65.1054 114.527 65.1054 113.944C65.1054 113.361 64.7156 112.889 64.2348 112.889C63.754 112.889 63.3643 113.361 63.3643 113.944C63.3643 114.527 63.754 115 64.2348 115Z" fill="#A14D51"/>
<path d="M63.7766 113.889C64.0044 113.889 64.189 113.665 64.189 113.389C64.189 113.113 64.0044 112.889 63.7766 112.889C63.5489 112.889 63.3643 113.113 63.3643 113.389C63.3643 113.665 63.5489 113.889 63.7766 113.889Z" fill="#FFFFC4"/>
<path d="M63.9599 120C63.9599 123.833 61.669 125.556 58.7824 125.556C55.8959 125.556 53.605 123.833 53.605 120C53.605 116.167 55.8959 113.056 58.7824 113.056C61.669 113.056 63.9599 116.167 63.9599 120Z" fill="#FFEABE"/>
<path d="M58.7825 121.278C58.7825 121.278 57.4996 123.556 56.3542 123C54.9796 122.333 53.9716 121 53.6967 119C53.6509 119.333 53.6509 119.722 53.6509 120.056C53.6509 123.889 55.9418 125.611 58.8283 125.611C61.7149 125.611 64.0058 123.889 64.0058 120.056C64.0058 119.667 63.96 119.333 63.96 119C63.7309 121.056 62.7229 122.5 61.3025 123.056C60.0196 123.389 58.7825 121.278 58.7825 121.278Z" fill="#FFCD85"/>
<path d="M62.3563 122.223C62.3105 122.167 62.2188 122.111 62.173 122.167C62.0355 122.278 61.8981 122.389 61.8065 122.445C61.2108 122.834 60.5235 122.834 59.9737 122.389C59.3781 121.945 59.0115 121.167 59.0115 120.334C59.0115 120.223 58.9657 120.167 58.8741 120.167C58.7825 120.167 58.7366 120.223 58.7366 120.334C58.7366 121.167 58.3701 121.945 57.7745 122.389C57.1788 122.778 56.4915 122.834 55.9417 122.445C55.8043 122.334 55.6668 122.278 55.5752 122.167C55.5294 122.111 55.4377 122.111 55.3919 122.223C55.3461 122.334 55.3461 122.389 55.4377 122.445C55.5752 122.556 55.7126 122.667 55.8501 122.778C56.1708 123 56.5374 123.111 56.8581 123.111C57.2246 123.111 57.5912 123 57.9577 122.723C58.4159 122.389 58.7366 121.889 58.9199 121.334C59.1032 121.889 59.4239 122.389 59.8821 122.723C60.5694 123.223 61.3483 123.223 61.9897 122.778C62.1272 122.667 62.2646 122.556 62.4021 122.445C62.3563 122.389 62.4021 122.278 62.3563 122.223Z" fill="#A14D51"/>
<path d="M61.6691 117.222C61.6691 118.778 60.3862 120.722 58.7825 120.722C57.1789 120.722 55.896 118.778 55.896 117.222C55.896 115.667 57.1789 114.444 58.7825 114.444C60.3862 114.444 61.6691 115.667 61.6691 117.222Z" fill="#401113"/>
<path d="M58.7826 117.888C59.896 117.888 60.7986 117.266 60.7986 116.499C60.7986 115.732 59.896 115.11 58.7826 115.11C57.6692 115.11 56.7666 115.732 56.7666 116.499C56.7666 117.266 57.6692 117.888 58.7826 117.888Z" fill="#A14D51"/>
</g>
<defs>
<clipPath id="clip0_5458_97697">
<rect width="198" height="250" fill="white"/>
</clipPath>
</defs>
</svg>
