<svg width="570" height="220" viewBox="0 0 570 220" fill="none" xmlns="http://www.w3.org/2000/svg">
<rect x="200.5" y="0.5" width="168" height="159" rx="4.5" stroke="#D0D0D0"/>
<path d="M200 5C200 2.23858 202.239 0 205 0H364C366.761 0 369 2.23858 369 5V45H200V5Z" fill="#DEF0AA"/>
<path d="M284.953 5L290.772 14.9907L302.072 17.4377L294.368 26.0593L295.533 37.5623L284.953 32.9L274.373 37.5623L275.537 26.0593L267.834 17.4377L279.134 14.9907L284.953 5Z" fill="#98C11F"/>
<path d="M230.096 57L235.915 66.9907L247.215 69.4377L239.511 78.0593L240.676 89.5623L230.096 84.9L219.516 89.5623L220.68 78.0593L212.977 69.4377L224.277 66.9907L230.096 57Z" fill="#98C11F"/>
<path d="M278.048 57L283.867 66.9907L295.167 69.4377L287.463 78.0593L288.628 89.5623L278.048 84.9L267.468 89.5623L268.633 78.0593L260.929 69.4377L272.229 66.9907L278.048 57Z" fill="#98C11F"/>
<path d="M326 57L331.819 66.9907L343.119 69.4377L335.416 78.0593L336.58 89.5623L326 84.9L315.42 89.5623L316.585 78.0593L308.881 69.4377L320.181 66.9907L326 57Z" fill="#98C11F"/>
<path d="M230.096 107L235.915 116.991L247.215 119.438L239.511 128.059L240.676 139.562L230.096 134.9L219.516 139.562L220.68 128.059L212.977 119.438L224.277 116.991L230.096 107Z" fill="#98C11F"/>
<rect x="401.5" y="0.5" width="168" height="159" rx="4.5" stroke="#D0D0D0"/>
<path d="M401 5C401 2.23858 403.239 0 406 0H565C567.761 0 570 2.23858 570 5V45H401V5Z" fill="#E1ECF9"/>
<rect x="468.472" y="23" width="24.3137" height="24.3137" transform="rotate(-45 468.472 23)" fill="#639AD6"/>
<rect x="413.663" y="75" width="24.3137" height="24.3137" transform="rotate(-45 413.663 75)" fill="#639AD6"/>
<rect x="461.615" y="75" width="24.3137" height="24.3137" transform="rotate(-45 461.615 75)" fill="#639AD6"/>
<rect x="509.568" y="75" width="24.3137" height="24.3137" transform="rotate(-45 509.568 75)" fill="#639AD6"/>
<rect x="413.663" y="125" width="24.3137" height="24.3137" transform="rotate(-45 413.663 125)" fill="#639AD6"/>
<path d="M85.7453 203.35C86.5733 203.35 87.3113 203.506 87.9593 203.818C88.6193 204.13 89.1353 204.58 89.5073 205.168C89.8793 205.744 90.0653 206.41 90.0653 207.166C90.0653 207.958 89.8673 208.654 89.4713 209.254C89.0873 209.854 88.5533 210.322 87.8693 210.658C87.1973 210.982 86.4413 211.144 85.6013 211.144C83.9093 211.144 82.6013 210.598 81.6773 209.506C80.7653 208.414 80.3093 206.866 80.3093 204.862C80.3093 203.458 80.5553 202.264 81.0473 201.28C81.5513 200.284 82.2473 199.534 83.1353 199.03C84.0353 198.514 85.0793 198.256 86.2673 198.256C86.8793 198.256 87.4553 198.322 87.9953 198.454C88.5353 198.574 89.0033 198.754 89.3993 198.994L88.7153 200.398C88.1153 200.002 87.3113 199.804 86.3033 199.804C84.9953 199.804 83.9693 200.212 83.2253 201.028C82.4813 201.832 82.1093 203.008 82.1093 204.556C82.1093 204.748 82.1153 204.898 82.1273 205.006C82.4873 204.466 82.9793 204.058 83.6033 203.782C84.2393 203.494 84.9533 203.35 85.7453 203.35ZM85.5293 209.686C86.3573 209.686 87.0293 209.464 87.5453 209.02C88.0613 208.576 88.3193 207.982 88.3193 207.238C88.3193 206.494 88.0553 205.906 87.5273 205.474C87.0113 205.03 86.3153 204.808 85.4393 204.808C84.8753 204.808 84.3713 204.916 83.9273 205.132C83.4953 205.348 83.1533 205.642 82.9013 206.014C82.6613 206.386 82.5413 206.8 82.5413 207.256C82.5413 207.7 82.6553 208.108 82.8833 208.48C83.1233 208.84 83.4653 209.134 83.9093 209.362C84.3653 209.578 84.9053 209.686 85.5293 209.686Z" fill="#2F2F2F"/>
<path d="M55 191H115V189H55V191ZM119 195V215H121V195H119ZM115 219H55V221H115V219ZM51 215V195H49V215H51ZM55 219C52.7909 219 51 217.209 51 215H49C49 218.314 51.6863 221 55 221V219ZM119 215C119 217.209 117.209 219 115 219V221C118.314 221 121 218.314 121 215H119ZM115 191C117.209 191 119 192.791 119 195H121C121 191.686 118.314 189 115 189V191ZM55 189C51.6863 189 49 191.686 49 195H51C51 192.791 52.7909 191 55 191V189Z" fill="#2F2F2F"/>
<path d="M290.805 207.904H288.411V211H286.665V207.904H279.663V206.644L286.107 198.4H288.051L281.877 206.356H286.719V203.62H288.411V206.356H290.805V207.904Z" fill="#2F2F2F"/>
<path d="M255 191H315V189H255V191ZM319 195V215H321V195H319ZM315 219H255V221H315V219ZM251 215V195H249V215H251ZM255 219C252.791 219 251 217.209 251 215H249C249 218.314 251.686 221 255 221V219ZM319 215C319 217.209 317.209 219 315 219V221C318.314 221 321 218.314 321 215H319ZM315 191C317.209 191 319 192.791 319 195H321C321 191.686 318.314 189 315 189V191ZM255 189C251.686 189 249 191.686 249 195H251C251 192.791 252.791 191 255 191V189Z" fill="#2F2F2F"/>
<path d="M491.805 207.904H489.411V211H487.665V207.904H480.663V206.644L487.107 198.4H489.051L482.877 206.356H487.719V203.62H489.411V206.356H491.805V207.904Z" fill="#2F2F2F"/>
<path d="M456 191H516V189H456V191ZM520 195V215H522V195H520ZM516 219H456V221H516V219ZM452 215V195H450V215H452ZM456 219C453.791 219 452 217.209 452 215H450C450 218.314 452.686 221 456 221V219ZM520 215C520 217.209 518.209 219 516 219V221C519.314 221 522 218.314 522 215H520ZM516 191C518.209 191 520 192.791 520 195H522C522 191.686 519.314 189 516 189V191ZM456 189C452.686 189 450 191.686 450 195H452C452 192.791 453.791 191 456 191V189Z" fill="#2F2F2F"/>
<rect x="0.5" y="0.5" width="169" height="159" rx="4.5" stroke="#D0D0D0"/>
<path d="M0 5C0 2.23858 2.23858 0 5 0H165C167.761 0 170 2.23858 170 5V45H0V5Z" fill="#FFE5E1"/>
<path d="M101.598 17.617C101.598 12.0257 97.3096 8 92.9477 8C89.2511 8 85.9981 10.4602 85.037 13.8895C84.0759 10.4602 80.7489 8 77.0524 8C72.6904 8 68.4024 12.0257 68.4024 17.617C68.4024 26.1157 81.3404 35.8817 84.5195 36.8509C84.5934 36.8509 84.6673 36.9254 84.7412 36.9254C84.8152 36.9254 84.963 37 85.037 37C85.1109 37 85.1848 37 85.3327 36.9254C85.4066 36.9254 85.4806 36.9255 85.5545 36.8509C88.6596 35.8817 101.598 26.1157 101.598 17.617Z" fill="#DA4632"/>
<path d="M46 69.617C46 64.0257 41.7372 60 37.4009 60C33.7261 60 30.4922 62.4602 29.5367 65.8895C28.5813 62.4602 25.2739 60 21.5991 60C17.2628 60 13 64.0257 13 69.617C13 78.1157 25.8619 87.8817 29.0223 88.8509C29.0958 88.8509 29.1693 88.9254 29.2428 88.9254C29.3163 88.9254 29.4633 89 29.5367 89C29.6102 89 29.6837 89 29.8307 88.9254C29.9042 88.9254 29.9777 88.9255 30.0512 88.8509C33.1381 87.8817 46 78.1157 46 69.617Z" fill="#DA4632"/>
<path d="M93.9523 69.617C93.9523 64.0257 89.6895 60 85.3532 60C81.6783 60 78.4445 62.4602 77.489 65.8895C76.5336 62.4602 73.2262 60 69.5514 60C65.2151 60 60.9523 64.0257 60.9523 69.617C60.9523 78.1157 73.8142 87.8817 76.9745 88.8509C77.048 88.8509 77.1215 88.9254 77.195 88.9254C77.2685 88.9254 77.4155 89 77.489 89C77.5625 89 77.636 89 77.783 88.9254C77.8565 88.9254 77.93 88.9255 78.0035 88.8509C81.0904 87.8817 93.9523 78.1157 93.9523 69.617Z" fill="#DA4632"/>
<path d="M141.905 69.617C141.905 64.0257 137.642 60 133.305 60C129.631 60 126.397 62.4602 125.441 65.8895C124.486 62.4602 121.178 60 117.504 60C113.167 60 108.905 64.0257 108.905 69.617C108.905 78.1157 121.766 87.8817 124.927 88.8509C125 88.8509 125.074 88.9254 125.147 88.9254C125.221 88.9254 125.368 89 125.441 89C125.515 89 125.588 89 125.735 88.9254C125.809 88.9254 125.882 88.9255 125.956 88.8509C129.043 87.8817 141.905 78.1157 141.905 69.617Z" fill="#DA4632"/>
<path d="M46 119.617C46 114.026 41.7372 110 37.4009 110C33.7261 110 30.4922 112.46 29.5367 115.889C28.5813 112.46 25.2739 110 21.5991 110C17.2628 110 13 114.026 13 119.617C13 128.116 25.8619 137.882 29.0223 138.851C29.0958 138.851 29.1693 138.925 29.2428 138.925C29.3163 138.925 29.4633 139 29.5367 139C29.6102 139 29.6837 139 29.8307 138.925C29.9042 138.925 29.9777 138.925 30.0512 138.851C33.1381 137.882 46 128.116 46 119.617Z" fill="#DA4632"/>
<path d="M93.9523 119.617C93.9523 114.026 89.6895 110 85.3532 110C81.6783 110 78.4445 112.46 77.489 115.889C76.5336 112.46 73.2262 110 69.5514 110C65.2151 110 60.9523 114.026 60.9523 119.617C60.9523 128.116 73.8142 137.882 76.9745 138.851C77.048 138.851 77.1215 138.925 77.195 138.925C77.2685 138.925 77.4155 139 77.489 139C77.5625 139 77.636 139 77.783 138.925C77.8565 138.925 77.93 138.925 78.0035 138.851C81.0904 137.882 93.9523 128.116 93.9523 119.617Z" fill="#DA4632"/>
<path d="M141.905 119.617C141.905 114.026 137.642 110 133.305 110C129.631 110 126.397 112.46 125.441 115.889C124.486 112.46 121.178 110 117.504 110C113.167 110 108.905 114.026 108.905 119.617C108.905 128.116 121.766 137.882 124.927 138.851C125 138.851 125.074 138.925 125.147 138.925C125.221 138.925 125.368 139 125.441 139C125.515 139 125.588 139 125.735 138.925C125.809 138.925 125.882 138.925 125.956 138.851C129.043 137.882 141.905 128.116 141.905 119.617Z" fill="#DA4632"/>
</svg>
