<svg width="38" height="40" viewBox="0 0 38 40" fill="none" xmlns="http://www.w3.org/2000/svg">
<path d="M35 14.617C35 9.02571 30.7372 5 26.4009 5C22.7261 5 19.4922 7.46015 18.5367 10.8895C17.5813 7.46015 14.2739 5 10.5991 5C6.26281 5 2 9.02571 2 14.617C2 23.1157 14.8619 32.8817 18.0223 33.8509C18.0958 33.8509 18.1693 33.9254 18.2428 33.9254C18.3163 33.9254 18.4633 34 18.5367 34C18.6102 34 18.6837 34 18.8307 33.9254C18.9042 33.9254 18.9777 33.9254 19.0512 33.8509C22.1381 32.8817 35 23.1157 35 14.617Z" fill="#DA4632"/>
</svg>
