<svg width="60" height="60" viewBox="0 0 60 60" fill="none" xmlns="http://www.w3.org/2000/svg">
<g clip-path="url(#clip0_5308_121425)">
<path d="M44.9808 52.8008H15.0919C13.3914 52.8008 12 54.4879 12 56.5498C12 58.6118 13.3914 60.2989 15.0919 60.2989H44.9808C46.6813 60.2989 48.0727 58.6118 48.0727 56.5498C48.0727 54.4879 46.6813 52.8008 44.9808 52.8008Z" fill="#ED2136"/>
<path d="M42.9192 45.3027H17.153C15.4524 45.3027 14.061 46.9898 14.061 49.0518C14.061 51.1138 15.4524 52.8008 17.153 52.8008H42.9192C44.6198 52.8008 46.0112 51.1138 46.0112 49.0518C46.0112 46.9898 44.6198 45.3027 42.9192 45.3027Z" fill="#FFCB18"/>
<path d="M40.8581 37.8037H19.2145C17.5139 37.8037 16.1226 39.4908 16.1226 41.5528C16.1226 43.6147 17.5139 45.3018 19.2145 45.3018H40.8581C42.5587 45.3018 43.9501 43.6147 43.9501 41.5528C43.9501 39.4908 42.5587 37.8037 40.8581 37.8037Z" fill="#1C7EE0"/>
<path d="M38.7966 30.3057H21.2755C19.575 30.3057 18.1836 31.9927 18.1836 34.0547C18.1836 36.1167 19.575 37.8038 21.2755 37.8038H38.7966C40.4972 37.8038 41.8885 36.1167 41.8885 34.0547C41.8885 31.9927 40.4972 30.3057 38.7966 30.3057Z" fill="#3BCF4D"/>
<path d="M36.6324 30.5554L23.234 29.993C21.5334 29.9305 20.1936 28.181 20.2451 26.119C20.2966 24.057 21.7395 22.4324 23.4401 22.4949L36.8386 23.0573C38.5392 23.1198 39.879 24.8693 39.8275 26.9313C39.7759 28.9933 38.333 30.6179 36.6324 30.5554Z" fill="#ED9A2A"/>
<path d="M34.6744 15.3105H25.3986C23.698 15.3105 22.3066 16.9976 22.3066 19.0596C22.3066 21.1216 23.698 22.8087 25.3986 22.8087H34.6744C36.375 22.8087 37.7664 21.1216 37.7664 19.0596C37.7664 16.9976 36.375 15.3105 34.6744 15.3105Z" fill="#9226A5"/>
<path d="M35.2927 8.87376L32.2008 5.12471C31.6339 4.43738 30.8609 4 30.0364 4C29.1604 4 28.3874 4.43738 27.8721 5.12471L24.7801 8.87376C24.2133 9.56109 23.8525 10.4984 23.8525 11.4981C23.8525 13.5601 25.2439 15.2472 26.9445 15.2472C28.6451 15.2472 31.4278 15.2472 33.1284 15.2472C34.8289 15.2472 36.2203 13.5601 36.2203 11.4981C36.2203 10.4984 35.8596 9.56109 35.2927 8.87376Z" fill="#ED2136"/>
<path d="M39.3121 52.8008H20.7604C19.0598 52.8008 17.6685 54.4879 17.6685 56.5498C17.6685 58.6118 19.0598 60.2989 20.7604 60.2989H39.3121C41.0127 60.2989 42.404 58.6118 42.404 56.5498C42.404 54.4879 41.0127 52.8008 39.3121 52.8008Z" fill="#FD2A43"/>
<path d="M37.7661 45.3027H22.3063C20.6057 45.3027 19.2144 46.9898 19.2144 49.0518C19.2144 51.1138 20.6057 52.8008 22.3063 52.8008H37.7661C39.4666 52.8008 40.858 51.1138 40.858 49.0518C40.858 46.9898 39.4666 45.3027 37.7661 45.3027Z" fill="#FFF318"/>
<path d="M36.22 37.8037H23.8522C22.1516 37.8037 20.7603 39.4908 20.7603 41.5528C20.7603 43.6147 22.1516 45.3018 23.8522 45.3018H36.22C37.9205 45.3018 39.3119 43.6147 39.3119 41.5528C39.3119 39.4908 37.9205 37.8037 36.22 37.8037Z" fill="#2195E8"/>
<path d="M34.6739 30.3057H25.3981C23.6975 30.3057 22.3062 31.9927 22.3062 34.0547C22.3062 36.1167 23.6975 37.8038 25.3981 37.8038H34.6739C36.3745 37.8038 37.7659 36.1167 37.7659 34.0547C37.7659 31.9927 36.3745 30.3057 34.6739 30.3057Z" fill="#4DE25E"/>
<path d="M33.1279 22.8076H26.944C25.2434 22.8076 23.8521 24.4947 23.8521 26.5567C23.8521 28.6187 25.2434 30.3057 26.944 30.3057H33.1279C34.8285 30.3057 36.2198 28.6187 36.2198 26.5567C36.2198 24.4947 34.8285 22.8076 33.1279 22.8076Z" fill="#FFAF2B"/>
<path d="M31.5818 15.3105H28.4899C26.7893 15.3105 25.3979 16.9976 25.3979 19.0596C25.3979 21.1216 26.7893 22.8087 28.4899 22.8087H31.5818C33.2824 22.8087 34.6738 21.1216 34.6738 19.0596C34.6738 16.9976 33.2824 15.3105 31.5818 15.3105Z" fill="#9C2EAF"/>
<path d="M32.4585 8.87376L31.0155 5.12471C30.7579 4.43738 30.3972 4 30.0364 4C29.6757 4 29.315 4.43738 29.0573 5.12471L27.6144 8.87376C27.3567 9.56109 27.2021 10.4984 27.2021 11.4981C27.2021 13.5601 27.8205 15.2472 28.645 15.2472C29.4696 15.2472 30.7063 15.2472 31.4793 15.2472C32.2523 15.2472 32.9222 13.5601 32.9222 11.4981C32.8707 10.4984 32.7161 9.56109 32.4585 8.87376Z" fill="#FD2A43"/>
<path d="M44.9808 58.4231H15.0919C13.649 58.4231 12.4638 57.2359 12.1031 55.6113C12.0515 55.9237 12 56.2362 12 56.5486C12 58.6106 13.3914 60.2976 15.0919 60.2976H44.9808C46.6813 60.2976 48.0727 58.6106 48.0727 56.5486C48.0727 56.2362 48.0212 55.9237 47.9697 55.6113C47.6089 57.2359 46.4237 58.4231 44.9808 58.4231Z" fill="#D92235"/>
<path d="M42.9192 50.926H17.153C15.7101 50.926 14.5248 49.7388 14.1641 48.1143C14.1126 48.4267 14.061 48.7391 14.061 49.0515C14.061 51.1135 15.4524 52.8006 17.153 52.8006H42.9192C44.6198 52.8006 46.0112 51.1135 46.0112 49.0515C46.0112 48.7391 45.9596 48.4267 45.9081 48.1143C45.5474 49.7388 44.3621 50.926 42.9192 50.926Z" fill="#FFAF2B"/>
<path d="M40.8581 43.428H19.2145C17.7716 43.428 16.5864 42.2408 16.2256 40.6162C16.1741 40.9286 16.1226 41.2411 16.1226 41.5535C16.1226 43.6155 17.5139 45.3025 19.2145 45.3025H40.8581C42.5587 45.3025 43.9501 43.6155 43.9501 41.5535C43.9501 41.2411 43.8986 40.9286 43.847 40.6162C43.4863 42.2408 42.3011 43.428 40.8581 43.428Z" fill="#1B6BB8"/>
<path d="M38.7966 35.9299H21.2755C19.8326 35.9299 18.6474 34.7428 18.2867 33.1182C18.2351 33.4306 18.1836 33.743 18.1836 34.0554C18.1836 36.1174 19.575 37.8045 21.2755 37.8045H38.7966C40.4972 37.8045 41.8885 36.1174 41.8885 34.0554C41.8885 33.743 41.837 33.4306 41.7855 33.1182C41.4247 34.7428 40.2395 35.9299 38.7966 35.9299Z" fill="#3ABA4D"/>
<path d="M36.7355 28.4309H23.3371C21.8942 28.4309 20.7089 27.2437 20.3482 25.6191C20.2967 25.9316 20.2451 26.244 20.2451 26.5564C20.2451 28.6184 21.6365 30.3055 23.3371 30.3055H36.7355C38.4361 30.3055 39.8275 28.6184 39.8275 26.5564C39.8275 26.244 39.7759 25.9316 39.7244 25.6191C39.3637 27.2437 38.1784 28.4309 36.7355 28.4309Z" fill="#DE852A"/>
<path d="M34.6744 20.9329H25.3986C23.9557 20.9329 22.7704 19.7457 22.4097 18.1211C22.3582 18.4335 22.3066 18.7459 22.3066 19.0584C22.3066 21.1203 23.698 22.8074 25.3986 22.8074H34.6744C36.375 22.8074 37.7664 21.1203 37.7664 19.0584C37.7664 18.7459 37.7148 18.4335 37.6633 18.1211C37.3026 19.7457 36.1173 20.9329 34.6744 20.9329Z" fill="#762696"/>
<path d="M33.1284 13.4348C31.4278 13.4348 28.6451 13.4348 26.9445 13.4348C25.5016 13.4348 24.3163 12.2476 23.9556 10.623C23.9041 10.9355 23.8525 11.2479 23.8525 11.5603C23.8525 13.6223 25.2439 15.3094 26.9445 15.3094C28.6451 15.3094 31.4278 15.3094 33.1284 15.3094C34.8289 15.3094 36.2203 13.6223 36.2203 11.5603C36.2203 11.2479 36.1688 10.9355 36.1173 10.623C35.7565 12.2476 34.5713 13.4348 33.1284 13.4348Z" fill="#D92235"/>
</g>
<defs>
<clipPath id="clip0_5308_121425">
<rect width="60" height="60" fill="white"/>
</clipPath>
</defs>
</svg>
