<svg width="702" height="57" viewBox="0 0 702 57" fill="none" xmlns="http://www.w3.org/2000/svg">
<path d="M0.93934 10.9393C0.353553 11.5251 0.353553 12.4749 0.93934 13.0607L10.4853 22.6066C11.0711 23.1924 12.0208 23.1924 12.6066 22.6066C13.1924 22.0208 13.1924 21.0711 12.6066 20.4853L4.12132 12L12.6066 3.51472C13.1924 2.92893 13.1924 1.97918 12.6066 1.3934C12.0208 0.807612 11.0711 0.807612 10.4853 1.3934L0.93934 10.9393ZM701.061 13.0607C701.646 12.4749 701.646 11.5251 701.061 10.9393L691.515 1.3934C690.929 0.807612 689.979 0.807612 689.393 1.3934C688.808 1.97918 688.808 2.92893 689.393 3.51472L697.879 12L689.393 20.4853C688.808 21.0711 688.808 22.0208 689.393 22.6066C689.979 23.1924 690.929 23.1924 691.515 22.6066L701.061 13.0607ZM2 13.5H700V10.5H2V13.5Z" fill="#369CB7"/>
<line x1="80.5" y1="3.5" x2="80.5" y2="20.5" stroke="#369CB7" stroke-width="3" stroke-linecap="round"/>
<path d="M75.77 29.4V42H73.988V30.966H71.144V29.4H75.77ZM89.4881 38.904H87.0941V42H85.3481V38.904H78.3461V37.644L84.7901 29.4H86.7341L80.5601 37.356H85.4021V34.62H87.0941V37.356H89.4881V38.904Z" fill="#2F2F2F"/>
<path d="M155.77 29.4V42H153.988V30.966H151.144V29.4H155.77ZM162.126 34.422C163.926 34.422 165.246 34.764 166.086 35.448C166.938 36.12 167.364 37.044 167.364 38.22C167.364 38.964 167.184 39.636 166.824 40.236C166.476 40.824 165.942 41.292 165.222 41.64C164.514 41.976 163.638 42.144 162.594 42.144C161.706 42.144 160.848 42.012 160.02 41.748C159.192 41.472 158.508 41.094 157.968 40.614L158.796 39.192C159.228 39.6 159.78 39.93 160.452 40.182C161.124 40.422 161.832 40.542 162.576 40.542C163.524 40.542 164.256 40.344 164.772 39.948C165.3 39.54 165.564 38.988 165.564 38.292C165.564 37.536 165.276 36.966 164.7 36.582C164.124 36.186 163.14 35.988 161.748 35.988H158.886L159.552 29.4H166.662V30.966H161.064L160.722 34.422H162.126Z" fill="#2F2F2F"/>
<path d="M629.72 40.434V42H620.666V40.776L625.796 35.826C626.42 35.226 626.84 34.71 627.056 34.278C627.272 33.834 627.38 33.39 627.38 32.946C627.38 32.286 627.146 31.776 626.678 31.416C626.222 31.044 625.562 30.858 624.698 30.858C623.306 30.858 622.232 31.314 621.476 32.226L620.252 31.164C620.744 30.564 621.386 30.096 622.178 29.76C622.982 29.424 623.876 29.256 624.86 29.256C626.18 29.256 627.23 29.574 628.01 30.21C628.79 30.834 629.18 31.686 629.18 32.766C629.18 33.438 629.036 34.074 628.748 34.674C628.46 35.274 627.914 35.958 627.11 36.726L623.258 40.434H629.72ZM635.106 29.4V42H633.324V30.966H630.48V29.4H635.106Z" fill="#2F2F2F"/>
<path d="M232.77 29.4V42H230.988V30.966H228.144V29.4H232.77ZM240.962 34.35C241.79 34.35 242.528 34.506 243.176 34.818C243.836 35.13 244.352 35.58 244.724 36.168C245.096 36.744 245.282 37.41 245.282 38.166C245.282 38.958 245.084 39.654 244.688 40.254C244.304 40.854 243.77 41.322 243.086 41.658C242.414 41.982 241.658 42.144 240.818 42.144C239.126 42.144 237.818 41.598 236.894 40.506C235.982 39.414 235.526 37.866 235.526 35.862C235.526 34.458 235.772 33.264 236.264 32.28C236.768 31.284 237.464 30.534 238.352 30.03C239.252 29.514 240.296 29.256 241.484 29.256C242.096 29.256 242.672 29.322 243.212 29.454C243.752 29.574 244.22 29.754 244.616 29.994L243.932 31.398C243.332 31.002 242.528 30.804 241.52 30.804C240.212 30.804 239.186 31.212 238.442 32.028C237.698 32.832 237.326 34.008 237.326 35.556C237.326 35.748 237.332 35.898 237.344 36.006C237.704 35.466 238.196 35.058 238.82 34.782C239.456 34.494 240.17 34.35 240.962 34.35ZM240.746 40.686C241.574 40.686 242.246 40.464 242.762 40.02C243.278 39.576 243.536 38.982 243.536 38.238C243.536 37.494 243.272 36.906 242.744 36.474C242.228 36.03 241.532 35.808 240.656 35.808C240.092 35.808 239.588 35.916 239.144 36.132C238.712 36.348 238.37 36.642 238.118 37.014C237.878 37.386 237.758 37.8 237.758 38.256C237.758 38.7 237.872 39.108 238.1 39.48C238.34 39.84 238.682 40.134 239.126 40.362C239.582 40.578 240.122 40.686 240.746 40.686Z" fill="#2F2F2F"/>
<path d="M387.77 29.4V42H385.988V30.966H383.144V29.4H387.77ZM398.23 35.394C398.95 35.67 399.502 36.066 399.886 36.582C400.27 37.098 400.462 37.716 400.462 38.436C400.462 39.192 400.258 39.852 399.85 40.416C399.442 40.968 398.86 41.394 398.104 41.694C397.348 41.994 396.46 42.144 395.44 42.144C394.432 42.144 393.55 41.994 392.794 41.694C392.05 41.394 391.474 40.968 391.066 40.416C390.658 39.852 390.454 39.192 390.454 38.436C390.454 37.716 390.64 37.098 391.012 36.582C391.396 36.066 391.948 35.67 392.668 35.394C392.092 35.118 391.654 34.752 391.354 34.296C391.054 33.84 390.904 33.3 390.904 32.676C390.904 31.98 391.09 31.374 391.462 30.858C391.846 30.342 392.38 29.946 393.064 29.67C393.748 29.394 394.54 29.256 395.44 29.256C396.352 29.256 397.15 29.394 397.834 29.67C398.53 29.946 399.064 30.342 399.436 30.858C399.82 31.374 400.012 31.98 400.012 32.676C400.012 33.288 399.856 33.828 399.544 34.296C399.244 34.752 398.806 35.118 398.23 35.394ZM395.44 30.714C394.588 30.714 393.916 30.9 393.424 31.272C392.932 31.632 392.686 32.124 392.686 32.748C392.686 33.372 392.926 33.864 393.406 34.224C393.898 34.584 394.576 34.764 395.44 34.764C396.316 34.764 397 34.584 397.492 34.224C397.996 33.864 398.248 33.372 398.248 32.748C398.248 32.124 397.99 31.632 397.474 31.272C396.97 30.9 396.292 30.714 395.44 30.714ZM395.44 40.686C396.436 40.686 397.222 40.482 397.798 40.074C398.374 39.654 398.662 39.09 398.662 38.382C398.662 37.686 398.374 37.14 397.798 36.744C397.222 36.336 396.436 36.132 395.44 36.132C394.444 36.132 393.664 36.336 393.1 36.744C392.536 37.14 392.254 37.686 392.254 38.382C392.254 39.09 392.536 39.654 393.1 40.074C393.664 40.482 394.444 40.686 395.44 40.686Z" fill="#2F2F2F"/>
<path d="M467.77 29.4V42H465.988V30.966H463.144V29.4H467.77ZM474.612 29.256C476.304 29.256 477.606 29.802 478.518 30.894C479.442 31.986 479.904 33.534 479.904 35.538C479.904 36.942 479.652 38.142 479.148 39.138C478.656 40.122 477.96 40.872 477.06 41.388C476.172 41.892 475.134 42.144 473.946 42.144C473.334 42.144 472.758 42.084 472.218 41.964C471.678 41.832 471.21 41.646 470.814 41.406L471.498 40.002C472.11 40.398 472.92 40.596 473.928 40.596C475.236 40.596 476.256 40.194 476.988 39.39C477.732 38.574 478.104 37.392 478.104 35.844V35.394C477.744 35.934 477.246 36.348 476.61 36.636C475.974 36.912 475.26 37.05 474.468 37.05C473.64 37.05 472.896 36.894 472.236 36.582C471.588 36.27 471.078 35.826 470.706 35.25C470.346 34.662 470.166 33.99 470.166 33.234C470.166 32.442 470.358 31.746 470.742 31.146C471.138 30.546 471.672 30.084 472.344 29.76C473.016 29.424 473.772 29.256 474.612 29.256ZM474.774 35.592C475.338 35.592 475.842 35.484 476.286 35.268C476.73 35.052 477.072 34.758 477.312 34.386C477.564 34.014 477.69 33.6 477.69 33.144C477.69 32.7 477.57 32.298 477.33 31.938C477.102 31.566 476.76 31.272 476.304 31.056C475.86 30.828 475.32 30.714 474.684 30.714C473.856 30.714 473.184 30.936 472.668 31.38C472.164 31.824 471.912 32.418 471.912 33.162C471.912 33.906 472.17 34.5 472.686 34.944C473.202 35.376 473.898 35.592 474.774 35.592Z" fill="#2F2F2F"/>
<path d="M546.72 40.434V42H537.666V40.776L542.796 35.826C543.42 35.226 543.84 34.71 544.056 34.278C544.272 33.834 544.38 33.39 544.38 32.946C544.38 32.286 544.146 31.776 543.678 31.416C543.222 31.044 542.562 30.858 541.698 30.858C540.306 30.858 539.232 31.314 538.476 32.226L537.252 31.164C537.744 30.564 538.386 30.096 539.178 29.76C539.982 29.424 540.876 29.256 541.86 29.256C543.18 29.256 544.23 29.574 545.01 30.21C545.79 30.834 546.18 31.686 546.18 32.766C546.18 33.438 546.036 34.074 545.748 34.674C545.46 35.274 544.914 35.958 544.11 36.726L540.258 40.434H546.72ZM553.295 42.144C552.299 42.144 551.411 41.892 550.631 41.388C549.863 40.872 549.257 40.128 548.813 39.156C548.369 38.184 548.147 37.032 548.147 35.7C548.147 34.368 548.369 33.216 548.813 32.244C549.257 31.272 549.863 30.534 550.631 30.03C551.411 29.514 552.299 29.256 553.295 29.256C554.279 29.256 555.155 29.514 555.923 30.03C556.703 30.534 557.315 31.272 557.759 32.244C558.203 33.216 558.425 34.368 558.425 35.7C558.425 37.032 558.203 38.184 557.759 39.156C557.315 40.128 556.703 40.872 555.923 41.388C555.155 41.892 554.279 42.144 553.295 42.144ZM553.295 40.542C554.303 40.542 555.107 40.128 555.707 39.3C556.319 38.472 556.625 37.272 556.625 35.7C556.625 34.128 556.319 32.928 555.707 32.1C555.107 31.272 554.303 30.858 553.295 30.858C552.275 30.858 551.459 31.272 550.847 32.1C550.247 32.928 549.947 34.128 549.947 35.7C549.947 37.272 550.247 38.472 550.847 39.3C551.459 40.128 552.275 40.542 553.295 40.542Z" fill="#2F2F2F"/>
<path d="M311.77 35.4V48H309.988V36.966H307.144V35.4H311.77ZM323.706 35.4V36.624L318.612 48H316.704L321.69 36.966H315.93V39.216H314.202V35.4H323.706Z" fill="#2F2F2F"/>
<line x1="158.5" y1="3.5" x2="158.5" y2="20.5" stroke="#369CB7" stroke-width="3" stroke-linecap="round"/>
<line x1="236.5" y1="3.5" x2="236.5" y2="20.5" stroke="#369CB7" stroke-width="3" stroke-linecap="round"/>
<line x1="314.5" y1="3.5" x2="314.5" y2="20.5" stroke="#369CB7" stroke-width="3" stroke-linecap="round"/>
<line x1="392.5" y1="3.5" x2="392.5" y2="20.5" stroke="#369CB7" stroke-width="3" stroke-linecap="round"/>
<line x1="470.5" y1="3.5" x2="470.5" y2="20.5" stroke="#369CB7" stroke-width="3" stroke-linecap="round"/>
<line x1="548.5" y1="3.5" x2="548.5" y2="20.5" stroke="#369CB7" stroke-width="3" stroke-linecap="round"/>
<line x1="626.5" y1="3.5" x2="626.5" y2="20.5" stroke="#369CB7" stroke-width="3" stroke-linecap="round"/>
<path d="M286 28H346V26H286V28ZM350 32V52H352V32H350ZM346 56H286V58H346V56ZM282 52V32H280V52H282ZM286 56C283.791 56 282 54.2091 282 52H280C280 55.3137 282.686 58 286 58V56ZM350 52C350 54.2091 348.209 56 346 56V58C349.314 58 352 55.3137 352 52H350ZM346 28C348.209 28 350 29.7909 350 32H352C352 28.6863 349.314 26 346 26V28ZM286 26C282.686 26 280 28.6863 280 32H282C282 29.7909 283.791 28 286 28V26Z" fill="#2F2F2F"/>
</svg>
