<svg width="170" height="45" viewBox="0 0 170 45" fill="none" xmlns="http://www.w3.org/2000/svg">
<path d="M0 5C0 2.23858 2.23858 0 5 0H165C167.761 0 170 2.23858 170 5V40C170 42.7614 167.761 45 165 45H5C2.23858 45 0 42.7614 0 40V5Z" fill="#48B736"/>
<path d="M78.4818 15.9V28.5H77.2038V18.42L72.2538 26.898H71.6238L66.6738 18.474V28.5H65.3958V15.9H66.4938L71.9658 25.242L77.3838 15.9H78.4818ZM82.3172 19.032H83.5952V28.5H82.3172V19.032ZM82.9652 16.962C82.7012 16.962 82.4792 16.872 82.2992 16.692C82.1192 16.512 82.0292 16.296 82.0292 16.044C82.0292 15.804 82.1192 15.594 82.2992 15.414C82.4792 15.234 82.7012 15.144 82.9652 15.144C83.2292 15.144 83.4512 15.234 83.6312 15.414C83.8112 15.582 83.9012 15.786 83.9012 16.026C83.9012 16.29 83.8112 16.512 83.6312 16.692C83.4512 16.872 83.2292 16.962 82.9652 16.962ZM90.6611 23.748L88.4291 25.8V28.5H87.1511V15.144H88.4291V24.198L94.0811 19.032H95.6651L91.6151 22.902L96.0431 28.5H94.4771L90.6611 23.748ZM105.819 24.162H97.899C97.971 25.146 98.349 25.944 99.033 26.556C99.717 27.156 100.581 27.456 101.625 27.456C102.213 27.456 102.753 27.354 103.245 27.15C103.737 26.934 104.163 26.622 104.523 26.214L105.243 27.042C104.823 27.546 104.295 27.93 103.659 28.194C103.035 28.458 102.345 28.59 101.589 28.59C100.617 28.59 99.753 28.386 98.997 27.978C98.253 27.558 97.671 26.982 97.251 26.25C96.831 25.518 96.621 24.69 96.621 23.766C96.621 22.842 96.819 22.014 97.215 21.282C97.623 20.55 98.175 19.98 98.871 19.572C99.579 19.164 100.371 18.96 101.247 18.96C102.123 18.96 102.909 19.164 103.605 19.572C104.301 19.98 104.847 20.55 105.243 21.282C105.639 22.002 105.837 22.83 105.837 23.766L105.819 24.162ZM101.247 20.058C100.335 20.058 99.567 20.352 98.943 20.94C98.331 21.516 97.983 22.272 97.899 23.208H104.613C104.529 22.272 104.175 21.516 103.551 20.94C102.939 20.352 102.171 20.058 101.247 20.058Z" fill="white"/>
</svg>
