<svg width="117" height="209" viewBox="0 0 117 209" fill="none" xmlns="http://www.w3.org/2000/svg">
<path d="M116.571 26.2818C114.698 24.732 112.422 30.8546 111.906 30.6441C111.39 30.4336 116.61 22.8761 113.78 21.5942C111.753 20.6758 109.267 28.1185 108.961 27.9081C108.655 27.6976 112.652 18.8964 110.051 18.1693C107.91 17.5762 106.093 26.0713 105.481 25.9756C104.85 25.88 107.107 18.9729 104.621 18.7433C102.269 18.5137 101.447 27.2958 100.969 28.6925C100.261 30.7206 99.7259 29.7831 99.7259 29.7831C98.9611 26.3583 97.3932 24.9616 96.6092 25.2677C95.156 25.8608 95.7488 29.19 96.1694 32.7105C96.4945 35.5039 97.7756 36.958 98.3492 37.3215C97.7182 38.6034 92.8424 49.8346 90.7008 53.3168C87.3547 58.7506 80.0122 64.0122 80.0122 64.0122L90.1654 77.1183C98.6934 71.2253 105.137 57.5835 108.579 41.2055C108.579 41.2055 110.491 40.6316 112.155 37.9338C114.449 34.2602 117.757 27.2767 116.571 26.2818Z" fill="#FFC597"/>
<path opacity="0.4" d="M84.5052 60.3379C82.0577 62.5382 79.9927 64.0306 79.9927 64.0306L90.1459 77.1367C91.8668 75.9505 93.5112 74.4389 95.06 72.6404C93.6259 68.0485 88.0235 61.8877 84.5052 60.3379Z" fill="#FFAA7E"/>
<path d="M75.4418 89.9754C75.4418 89.9754 90.9871 79.9879 93.1096 76.257C92.5742 66.633 80.9486 61.7158 80.9486 61.7158L66.6079 69.1203L75.4418 89.9754Z" fill="#384B82"/>
<path d="M93.1291 76.2384C92.5937 66.6145 80.9682 61.6973 80.9682 61.6973L78.3486 63.0557C84.104 66.5953 89.1137 72.0865 91.0641 78.5726C92.0392 77.6734 92.7658 76.8698 93.1291 76.2384Z" fill="#407387"/>
<path opacity="0.4" d="M81.2166 82.0352C77.8131 84.1207 73.9506 80.1984 71.3311 77.8068L75.4421 89.9563C75.4421 89.9563 90.9874 79.9688 93.1099 76.2379C93.0525 75.1664 92.8613 74.1715 92.5553 73.2148C89.5342 76.257 85.7483 79.3565 81.2166 82.0352Z" fill="#684A82"/>
<path d="M8.6143 125.008C7.81122 123.937 -5.01893 110.563 2.18967 96.1172L12.8783 99.5994L8.6143 125.008Z" fill="#FFC597"/>
<path opacity="0.4" d="M12.8974 99.5991L10.3544 98.7764C7.27588 106.391 6.39632 116.36 7.21852 123.305C7.94511 124.223 8.4805 124.816 8.63347 125.008L12.8974 99.5991Z" fill="#FFAA7E"/>
<path d="M19.3794 75.874C19.3794 75.874 7.81125 81.6905 0.334961 98.7955C0.334961 98.7955 3.01189 103.885 11.8266 104.956C11.8266 104.956 13.4328 99.599 14.2359 95.0645C15.995 88.234 18.0027 82.9724 19.3794 75.874Z" fill="#384B82"/>
<path d="M0.334961 98.7953C0.334961 98.7953 3.01189 103.885 11.8266 104.956C11.8266 104.956 12.2091 103.674 12.7062 101.818C8.57609 100.996 4.65629 99.1397 1.48222 96.3271C1.08068 97.1307 0.698259 97.9535 0.334961 98.7953Z" fill="#407387"/>
<path opacity="0.5" d="M12.2857 92.7105C11.0428 96.5371 9.97206 100.134 8.44238 104.286C9.45579 104.573 10.5839 104.803 11.8268 104.956C11.8268 104.956 13.433 99.5984 14.236 95.0639C15.7657 89.0944 16.0334 85.6121 17.391 79.7383C16.5879 81.5368 14.1404 86.9897 12.2857 92.7105Z" fill="#384B82"/>
<path d="M47.6972 208.218C71.6266 208.218 91.0253 205.014 91.0253 201.062C91.0253 197.11 71.6266 193.906 47.6972 193.906C23.7678 193.906 4.36914 197.11 4.36914 201.062C4.36914 205.014 23.7678 208.218 47.6972 208.218Z" fill="#EAE6F2"/>
<path d="M20.4883 127.935C18.385 128.203 11.3676 128.758 10.3733 130.633C9.45551 132.374 24.8861 136.468 26.8364 136.813C36.0336 138.458 46.2442 140.104 58.0801 138.133C70.2983 136.105 79.4573 133.522 80.7766 130.901C76.8377 128.605 63.7972 127.208 60.4511 126.94C55.9576 126.577 50.5655 126.653 46.053 126.596C35.9571 126.462 25.7848 127.265 20.4883 127.935Z" fill="#FFC597"/>
<path d="M44.8123 190.997C44.8123 190.997 46.0552 194.46 45.6536 197.617C45.3095 200.334 37.6037 202.515 33.7987 202.86C30.2804 203.185 23.894 202.974 23.9131 198.248C23.9131 195.914 26.5327 195.398 29.0949 193.695C33.1868 191.743 33.0338 189.811 33.0338 189.811C33.0338 189.811 34.3914 188.299 37.1257 189.639C39.0569 190.595 39.6305 192.394 39.6305 192.394C39.6305 192.394 41.6956 193.274 44.8123 190.997Z" fill="#6F6D91"/>
<path d="M25.6511 195.666C25.6703 195.666 25.6894 195.685 25.7085 195.685C27.3911 194.537 32.114 196.622 33.2039 200.105C37.2384 200.086 42.5158 198.402 45.862 195.723C45.9193 196.412 46.0341 197.101 45.9384 197.675C45.5369 200.373 37.7547 202.573 33.9305 202.917C30.4122 203.243 23.3566 203.013 23.8346 198.153C23.8538 196.929 24.8098 196.087 25.6511 195.666Z" fill="#FFF1D7"/>
<path d="M33.9498 195.149C33.8733 195.149 33.7969 195.111 33.7395 195.053C33.0129 194.345 31.3876 193.924 30.8905 193.943C30.7184 193.963 30.5654 193.81 30.5654 193.637C30.5654 193.465 30.6993 193.312 30.8714 193.312C31.5597 193.293 33.3188 193.771 34.1602 194.613C34.2749 194.728 34.294 194.938 34.1602 195.053C34.1219 195.111 34.0263 195.149 33.9498 195.149Z" fill="#FFF1D7"/>
<path d="M35.154 193.829C35.0966 193.829 35.0392 193.81 34.9819 193.772C34.37 193.351 32.7638 192.835 31.9416 192.72C31.7696 192.701 31.6548 192.528 31.674 192.375C31.6931 192.203 31.846 192.088 32.0181 192.108C32.8212 192.222 34.5803 192.758 35.326 193.255C35.479 193.351 35.5173 193.542 35.4025 193.696C35.3643 193.772 35.2496 193.829 35.154 193.829Z" fill="#FFF1D7"/>
<path d="M49.7625 190.997C49.7625 190.997 48.5197 194.46 48.9212 197.617C49.2654 200.334 56.9711 202.515 60.7762 202.86C64.2944 203.185 70.6808 202.974 70.6617 198.248C70.6617 195.914 68.0421 195.398 65.4799 193.695C61.388 191.743 61.541 189.811 61.541 189.811C61.541 189.811 60.1834 188.299 57.4491 189.639C55.5179 190.595 54.9443 192.394 54.9443 192.394C54.9443 192.394 52.8792 193.274 49.7625 190.997Z" fill="#6F6D91"/>
<path d="M68.9217 195.665C68.9026 195.665 68.8835 195.684 68.8643 195.684C67.1817 194.536 62.4588 196.622 61.3689 200.104C57.3344 200.085 52.057 198.401 48.7109 195.722C48.6535 196.411 48.5388 197.1 48.6344 197.674C49.0359 200.372 56.8181 202.572 60.6423 202.916C64.1606 203.242 71.2162 203.012 70.7382 198.152C70.7191 196.928 69.763 196.086 68.9217 195.665Z" fill="#FFF1D7"/>
<path d="M60.623 195.149C60.6995 195.149 60.776 195.111 60.8334 195.053C61.56 194.345 63.1852 193.924 63.6824 193.943C63.8545 193.963 64.0074 193.81 64.0074 193.637C64.0074 193.465 63.8736 193.312 63.7015 193.312C63.0131 193.293 61.254 193.771 60.4127 194.613C60.298 194.728 60.2788 194.938 60.4127 195.053C60.4509 195.111 60.5465 195.149 60.623 195.149Z" fill="#FFF1D7"/>
<path d="M59.4183 193.828C59.4757 193.828 59.533 193.809 59.5904 193.771C60.2023 193.35 61.8084 192.834 62.6306 192.719C62.8027 192.7 62.9174 192.527 62.8983 192.374C62.8792 192.202 62.7262 192.087 62.5541 192.107C61.7511 192.221 59.9919 192.757 59.2462 193.255C59.0932 193.35 59.055 193.541 59.1697 193.695C59.208 193.771 59.3227 193.828 59.4183 193.828Z" fill="#FFF1D7"/>
<path d="M45.5751 137.463C24.523 137.023 14.6757 131.532 9.83809 128.03C9.22622 152.635 27.1043 182.827 31.7507 190.978C33.5672 192.987 44.7147 193.159 46.2252 191.303C47.1048 186.042 45.556 177.241 45.5751 167.062C45.5751 155.505 45.5751 153.688 46.8945 152.808C48.6536 154.128 48.3285 164.211 48.4241 170.793C48.5962 180.971 48.7492 186.577 49.0742 191.189C53.2044 193.504 57.4875 193.331 62.2294 190.978C63.2811 189.256 66.7037 178.905 73.4726 161.398C78.4631 150.684 81.6563 137.826 81.9431 129.121C77.4115 130.805 64.0651 137.846 45.5751 137.463Z" fill="#892829"/>
<path opacity="0.3" d="M21.2341 134.497C15.6508 132.852 12.2282 129.771 9.83804 128.03C9.72332 132.986 10.2396 138.171 11.2147 143.375C14.4844 142.342 19.5897 138.458 21.2341 134.497Z" fill="#4C2A2D"/>
<path opacity="0.3" d="M79.687 145.537C80.9681 139.625 81.7903 133.866 81.9624 129.121C79.4384 130.556 76.8188 132.182 70.2412 134.172C71.4841 137.253 72.2298 137.961 74.4669 140.448C76.0157 142.266 77.7175 144.122 79.687 145.537Z" fill="#4C2A2D"/>
<path opacity="0.3" d="M51.8082 174.984C52.1524 166.469 52.8598 156.405 55.2117 154.033C59.4757 152.502 63.7397 146.935 63.5102 146.227C63.2808 145.519 58.6535 148.905 51.9229 149.613C49.1313 149.9 44.8482 150.225 40.24 149.537C34.8097 148.714 31.9033 147.26 30.0868 146.552C28.7675 148.312 38.5956 153.65 40.1635 155.851C41.1005 156.941 41.3108 163.14 42.0565 167.923C43.7392 178.695 42.764 186.138 42.8787 188.855C42.9934 191.572 37.4101 192.356 36.8365 192.49C40.6607 192.854 45.2688 192.471 46.2058 191.323C47.0853 186.062 45.5365 177.26 45.5556 167.082C45.5556 155.525 45.5557 153.708 46.875 152.828C48.6341 154.148 48.3091 164.231 48.4047 170.813C48.5768 180.991 48.7297 186.597 49.0548 191.208C50.6418 192.089 52.2289 192.605 53.8733 192.796C53.8159 192.28 52.4009 190.634 52.3436 190.156C51.9038 184.646 51.5787 180.896 51.8082 174.984Z" fill="#4C2A2D"/>
<path d="M67.6978 69.3682C67.6978 69.3682 61.8086 69.923 54.4662 70.1717C46.5692 70.4396 41.7699 69.636 35.3643 70.6883C30.1443 71.5493 21.081 74.1706 17.9834 76.6387C17.9834 76.6387 15.6698 82.0534 11.3676 106.525C8.40381 123.438 6.12841 130.9 8.74798 132.201C8.74798 132.201 21.9414 140.007 43.5481 140.62C63.0897 141.175 81.5414 132.852 83.7021 132.201C85.8819 131.551 83.5109 114.273 79.9926 99.8663C76.6464 86.1479 67.6978 69.3682 67.6978 69.3682Z" fill="#384B82"/>
<path d="M79.7247 98.8721C74.3709 102.029 56.9899 104.956 47.1044 104.956C34.0066 104.956 24.3887 104.153 12.2469 100.575C11.9027 102.565 11.5968 104.574 11.3482 106.544C11.0805 108.802 10.7746 110.868 10.4878 112.801C19.8379 116.723 33.7771 118.79 46.569 118.33C62.0952 117.795 80.2601 113.241 82.5738 112.016C81.8472 108.018 80.9676 103.847 79.9924 99.867C79.9159 99.5417 79.8203 99.2165 79.7247 98.8721Z" fill="#407387"/>
<path d="M37.334 74.5157C38.7872 76.3716 40.1257 77.5196 42.2864 78.4571C44.2749 79.3373 46.5503 79.5477 48.7301 79.3947C50.298 79.2799 51.8277 78.8398 53.2427 78.1701C56.2255 76.7543 57.8317 73.9609 58.9407 70.9379C57.4493 70.5935 55.9387 70.3256 54.4664 70.1726C50.5084 69.809 46.4739 69.9047 42.4967 70.0769C41.1965 70.1343 39.8963 70.2108 38.5769 70.3256C37.5444 70.4213 36.378 70.4213 35.4028 70.7083C35.6896 71.6075 36.6648 73.6548 37.334 74.5157Z" fill="white"/>
<path d="M54.677 68.1064C54.677 68.1064 56.245 76.3719 47.6023 76.4867C38.9405 76.6015 39.7245 68.3934 39.7245 68.3934C39.7245 68.3934 46.761 70.3641 54.677 68.1064Z" fill="#F8AF94"/>
<path opacity="0.4" d="M48.8446 76.9264C57.2961 76.9264 67.6979 71.3013 68.501 68.6992C65.499 69.2923 58.0036 70.4977 54.4662 70.1725C49.9728 69.7515 39.8004 69.9237 35.3644 70.6891C33.0507 71.0908 30.087 71.8179 27.3145 72.7363C29.2648 73.7503 30.8327 74.3052 33.5288 75.0131C36.2248 75.7211 43.4334 76.9264 48.8446 76.9264Z" fill="#684A82"/>
<path d="M76.7043 50.446C76.494 52.455 76.1498 57.2 75.6718 59.3046C75.4041 66.6708 67.1247 71.7602 53.3959 72.296C52.0574 73.1187 49.7246 73.8266 45.2503 73.3866C42.191 73.0804 39.6288 72.2194 38.2521 70.8993C23.6246 67.9145 16.0527 60.3569 17.5441 53.7369C17.6397 50.1208 18.1942 45.1079 18.5957 41.9318C22.8788 23.9659 40.929 12.773 55.9581 17.9389C78.3105 25.6304 78.1957 36.3449 76.7043 50.446Z" fill="#FFC597"/>
<path opacity="0.4" d="M55.9388 17.9391C44.2368 13.9212 30.7183 19.8141 23.2803 31.0835C23.6818 31.5236 25.8042 32.6716 27.4104 33.1116C30.8713 34.0492 32.8407 33.9918 35.097 33.743C37.8313 33.4369 42.5159 31.6575 44.5428 30.1651C44.5045 30.4713 42.5542 32.442 40.2788 33.7622C46.9138 35.0632 54.8298 33.743 59.285 27.984C60.7764 29.2659 63.0136 31.0453 67.7556 33.3221C72.4211 35.5607 75.5187 37.053 77.5646 46.9066C78.1383 36.0199 70.509 22.952 55.9388 17.9391Z" fill="#FFAA7E"/>
<path d="M58.7111 25.7458C58.7111 25.7458 60.4702 28.0035 72.4973 34.547C78.5586 38.3927 77.0672 48.6863 76.0155 56.3587C76.0155 56.3587 78.463 57.2388 80.6428 53.3165C82.574 49.796 88.8074 35.7715 84.4479 23.4689C86.7998 24.7126 88.7883 22.034 88.6354 20.6373C87.6793 21.4982 85.7481 21.747 82.3828 17.6908C78.4248 12.9458 73.721 5.82826 63.4722 2.59477C54.1221 -0.35172 46.8179 2.69044 46.8179 2.69044C46.8179 2.69044 52.2291 4.43155 55.9959 11.5108C58.0992 15.5096 59.5907 20.0441 58.7111 25.7458Z" fill="#68412E"/>
<path opacity="0.4" d="M85.6718 31.887C85.4423 32.4993 85.6718 33.1498 85.3085 33.5707C84.9643 33.8386 84.7157 34.4509 84.5245 34.7379C83.7023 36.2111 83.1669 39.8655 81.5608 40.1334C80.5282 37.7992 77.9469 35.6371 76.4172 33.8769C76.0157 33.3603 74.8876 33.5325 73.9506 33.4177C74.0271 34.0491 73.8933 34.7761 73.7212 35.5032C78.3293 39.9038 76.9718 49.2599 76.0157 56.3391C76.0157 56.3391 78.4632 57.2192 80.643 53.297C82.1535 50.5609 86.2645 41.4344 85.9395 31.7148C85.8439 31.7914 85.7483 31.8296 85.6718 31.887Z" fill="#68412E"/>
<path d="M76.4742 48.4379C76.4742 48.4379 78.9791 46.2567 81.6943 49.3562C84.2373 52.2453 81.7899 56.646 80.0307 58.0618C78.7496 59.095 76.6846 59.956 74.9446 58.9611C74.9254 58.9611 76.1301 52.8959 76.4742 48.4379Z" fill="#FFC597"/>
<path opacity="0.4" d="M75.5566 56.6646C75.5566 56.6646 78.2718 57.1429 79.0366 54.4643C79.8015 51.7665 78.0615 50.4655 76.3788 50.5037C76.3788 50.4846 76.2068 52.9528 75.5566 56.6646Z" fill="#FFAA7E"/>
<path d="M57.449 10.3815C54.3323 4.54592 50.814 2.57521 50.814 2.57521C50.814 2.57521 42.3626 -2.28459 30.6223 2.36475C25.7465 4.29719 19.3983 9.90318 17.3524 12.9645C12.706 15.7005 10.0673 12.5627 10.182 14.7056C10.2776 17.0207 13.3943 17.2886 15.9374 16.4276C8.88178 21.4596 8.95827 36.2877 10.5835 36.5938C11.5587 36.766 11.0998 35.8094 11.9603 34.6422C11.5014 38.5263 12.2279 41.2814 13.0693 44.821C14.5798 51.0967 17.5818 53.9475 17.5818 53.9475C16.3963 45.2228 20.9089 37.3974 25.7656 30.4904C27.7159 32.4993 33.7773 32.595 37.1234 31.8871C43.7966 30.4904 47.2766 28.1179 49.8771 25.114C49.9536 27.276 45.0395 31.5618 42.9553 32.4611C42.9553 32.4611 46.9898 33.1881 50.9287 32.0593C55.709 30.6817 58.0991 28.998 59.0169 25.7262C60.145 23.7364 60.4319 15.9301 57.449 10.3815Z" fill="#68412E"/>
<path opacity="0.4" d="M18.9589 29.6678C19.6281 28.1754 19.3222 26.7021 19.8193 25.3437C19.5134 25.3054 19.2074 25.1141 18.8824 25.2289C16.6835 26.3769 15.1156 30.127 13.7771 29.3234C11.4635 27.6014 13.3182 22.9329 15.5362 20.3691C15.7274 20.0821 15.6127 19.7377 15.6509 19.4316C15.823 19.2977 16.1481 19.1829 16.1672 19.0298C16.4158 18.2645 16.7408 17.04 16.3011 16.6764C15.8804 16.2746 15.4024 16.9826 14.8096 17.3461C8.88213 23.0669 9.01598 36.3069 10.5648 36.5748C11.5399 36.747 11.081 35.7903 11.9415 34.6232C11.4826 38.5072 12.2092 41.2624 13.0505 44.802C14.561 51.0777 17.563 53.9285 17.563 53.9285C16.7408 47.825 18.7103 42.1425 21.6167 36.9192C21.2725 36.8427 20.9092 36.747 20.565 36.6513C17.3909 35.7903 18.0219 32.0785 18.9589 29.6678Z" fill="#68412E"/>
<path d="M19.1501 42.8691C19.1501 42.8691 17.2188 40.8218 13.7771 43.3474C11.5782 44.9737 12.1136 48.9534 13.5859 50.8667C14.8861 52.5504 16.7217 53.6027 18.7676 52.627C18.7676 52.627 17.8307 47.4228 19.1501 42.8691Z" fill="#FFC597"/>
<path opacity="0.6" d="M18.3093 50.9042C18.3093 50.9042 15.3073 50.9234 14.9822 48.2639C14.6572 45.6044 16.7605 44.6477 18.5578 44.9347C18.5578 44.9539 18.271 47.3072 18.3093 50.9042Z" fill="#FFAA7E"/>
<path opacity="0.3" d="M33.9688 6.0383C35.2308 5.67477 37.2959 5.13904 38.6152 5.27298C38.8638 5.29211 38.9212 5.6365 38.6917 5.7513C37.2003 6.44009 35.8809 7.07149 34.7528 8.00901C34.5616 8.18121 34.7146 8.48733 34.9631 8.44907C36.5693 8.14294 38.6535 7.45415 40.2023 8.02814C40.4126 8.10467 40.4126 8.39167 40.2214 8.48734C39.3036 8.96566 38.424 9.55879 37.6592 10.2476C37.468 10.4198 37.6401 10.7259 37.8886 10.6685C40.9289 10.018 43.5293 9.99885 46.4548 10.6685C46.7416 10.7259 46.7034 11.1468 46.3974 11.166C42.7262 11.2808 39.0932 12.1035 35.6324 13.8446C31.5978 15.8727 29.5519 17.9391 27.9457 19.6228C27.7545 19.8333 27.4295 19.6037 27.5442 19.3549C28.0796 18.1495 29.2842 16.5806 30.355 15.4135C30.5462 15.203 30.2785 14.8778 30.0299 15.0308C29.246 15.5092 28.4046 16.1023 27.7545 16.5806C27.5442 16.7337 27.2765 16.5041 27.3721 16.2745C27.9266 15.0117 28.8062 13.7872 29.7814 12.6966C29.9726 12.467 29.6857 12.1609 29.4563 12.3331C28.0413 13.328 26.5499 14.3803 25.1732 15.337C24.9438 15.5092 24.6569 15.203 24.829 14.9735C25.9189 13.5193 27.3339 12.0461 28.6915 10.8407C28.9018 10.6494 28.6915 10.3241 28.4429 10.4198C27.0088 10.9938 24.7908 12.18 23.0508 13.5385C22.8213 13.7298 22.5154 13.4237 22.7066 13.1941C25.3262 9.80751 30.7948 6.91842 33.9688 6.0383Z" fill="#BE8D64"/>
<mask id="mask0_5308_115950" style="mask-type:alpha" maskUnits="userSpaceOnUse" x="45" y="48" width="4" height="5">
<path d="M47.1048 52.2068C47.6593 52.1112 48.7301 50.9823 48.5771 49.7195C48.4433 48.7055 45.9384 48.5524 45.4986 49.069C45.0589 49.5856 46.0149 52.4173 47.1048 52.2068Z" fill="url(#paint0_radial_5308_115950)"/>
</mask>
<g mask="url(#mask0_5308_115950)">
<path d="M47.1048 52.2068C47.6593 52.1112 48.7301 50.9823 48.5771 49.7195C48.4433 48.7055 45.9384 48.5524 45.4986 49.069C45.0589 49.5856 46.0149 52.4173 47.1048 52.2068Z" fill="url(#paint1_radial_5308_115950)"/>
<path d="M46.3213 51.9772C46.436 51.9963 46.436 51.7858 46.3786 51.6902C45.2505 50.0447 45.3843 49.4134 45.5564 49.1838C45.8624 48.7628 46.8375 48.8585 47.6215 49.1264C48.0039 49.2603 48.2334 49.1455 48.3672 49.0116C48.9791 48.4184 48.4628 46.4286 48.3672 46.0268C48.329 45.912 48.2143 45.8546 48.1186 45.8737C48.0039 45.912 48.0613 45.912 48.0804 46.0268C48.329 46.9069 48.4055 48.3802 48.0804 48.6863C48.0613 48.7054 47.9848 48.782 47.7553 48.7054C46.8375 48.3993 45.5182 48.2845 45.0402 48.8968C44.6004 49.4707 45.0593 50.4848 45.6712 51.3458C45.8815 51.6711 46.0918 51.9389 46.3213 51.9772Z" fill="#3C2415"/>
</g>
<mask id="mask1_5308_115950" style="mask-type:alpha" maskUnits="userSpaceOnUse" x="17" y="46" width="18" height="18">
<path d="M25.7086 63.3223C30.2918 63.3223 34.0071 59.6046 34.0071 55.0186C34.0071 50.4326 30.2918 46.7148 25.7086 46.7148C21.1255 46.7148 17.4102 50.4326 17.4102 55.0186C17.4102 59.6046 21.1255 63.3223 25.7086 63.3223Z" fill="url(#paint2_radial_5308_115950)"/>
</mask>
<g mask="url(#mask1_5308_115950)">
<path opacity="0.5" d="M24.3589 51.0751C24.8503 50.9502 25.1706 50.5418 25.0745 50.1629C24.9783 49.7839 24.5021 49.5779 24.0107 49.7027C23.5194 49.8275 23.199 50.2359 23.2952 50.6149C23.3914 50.9939 23.8676 51.1999 24.3589 51.0751Z" fill="white"/>
</g>
<path d="M32.4197 52.3591C35.0387 52.3591 37.1617 50.2347 37.1617 47.6141C37.1617 44.9935 35.0387 42.8691 32.4197 42.8691C29.8008 42.8691 27.6777 44.9935 27.6777 47.6141C27.6777 50.2347 29.8008 52.3591 32.4197 52.3591Z" fill="white"/>
<path d="M33.414 43.1179C35.6894 43.6154 37.2191 45.6244 37.1426 47.7864C37.1426 47.7673 37.1617 47.7481 37.1617 47.729C37.6971 45.3182 36.0909 42.8884 33.5861 42.3335C31.0812 41.7786 28.5955 43.2901 28.0601 45.7009C28.0601 45.72 28.0601 45.7392 28.041 45.7583C28.9015 43.7685 31.1386 42.6205 33.414 43.1179Z" fill="#441800"/>
<path d="M31.7508 50.8292C33.7044 50.8292 35.2881 49.2445 35.2881 47.2896C35.2881 45.3347 33.7044 43.75 31.7508 43.75C29.7971 43.75 28.2134 45.3347 28.2134 47.2896C28.2134 49.2445 29.7971 50.8292 31.7508 50.8292Z" fill="#441800"/>
<path d="M33.2804 46.7912C33.6922 46.7912 34.0261 46.4571 34.0261 46.045C34.0261 45.6329 33.6922 45.2988 33.2804 45.2988C32.8685 45.2988 32.5347 45.6329 32.5347 46.045C32.5347 46.4571 32.8685 46.7912 33.2804 46.7912Z" fill="white"/>
<path d="M63.7205 54.8854C66.2761 54.8854 68.3478 52.8124 68.3478 50.2552C68.3478 47.698 66.2761 45.625 63.7205 45.625C61.165 45.625 59.0933 47.698 59.0933 50.2552C59.0933 52.8124 61.165 54.8854 63.7205 54.8854Z" fill="white"/>
<path d="M64.6957 45.8734C66.9137 46.3708 68.4051 48.3224 68.3478 50.427C68.3478 50.4079 68.3669 50.3888 68.3669 50.3696C68.8832 48.0163 67.3344 45.6438 64.8678 45.108C62.4203 44.5723 60.0111 46.0456 59.4757 48.3989C59.4757 48.4181 59.4757 48.4372 59.4565 48.4563C60.2979 46.5047 62.4777 45.3759 64.6957 45.8734Z" fill="#441800"/>
<path d="M62.8793 53.4311C64.7907 53.4311 66.3402 51.8806 66.3402 49.968C66.3402 48.0554 64.7907 46.5049 62.8793 46.5049C60.9679 46.5049 59.4185 48.0554 59.4185 49.968C59.4185 51.8806 60.9679 53.4311 62.8793 53.4311Z" fill="#441800"/>
<path d="M64.7915 49.7383C65.1928 49.7383 65.5181 49.4128 65.5181 49.0112C65.5181 48.6097 65.1928 48.2842 64.7915 48.2842C64.3902 48.2842 64.0649 48.6097 64.0649 49.0112C64.0649 49.4128 64.3902 49.7383 64.7915 49.7383Z" fill="white"/>
<path d="M36.1291 38.9277C35.8996 38.9277 35.6893 38.8512 35.4981 38.6981C34.6185 37.9519 32.3049 37.6075 31.2915 38.2963C30.8517 38.6024 30.259 38.4876 29.953 38.0476C29.6471 37.6075 29.7618 37.0144 30.2016 36.7083C31.9799 35.4837 35.2878 35.9812 36.741 37.2248C37.1425 37.5692 37.1807 38.1815 36.8366 38.5833C36.6645 38.832 36.3968 38.9277 36.1291 38.9277Z" fill="#68412E"/>
<path d="M67.5261 42.8886C67.2966 42.8886 67.0863 42.8121 66.8951 42.659C66.0155 41.9128 63.7019 41.5685 62.6885 42.2573C62.2487 42.5634 61.6559 42.4486 61.35 42.0085C61.0441 41.5685 61.1588 40.9753 61.5986 40.6692C63.3768 39.4447 66.6848 39.9421 68.1379 41.1858C68.5395 41.5302 68.5777 42.1425 68.2336 42.5442C68.0615 42.7738 67.7938 42.8886 67.5261 42.8886Z" fill="#68412E"/>
<path d="M42.9551 59.668C42.9551 59.668 44.5039 70.9374 49.7621 68.4693C55.0204 66.0011 53.2039 57.8887 53.2039 57.8887C53.2039 57.8887 47.1808 60.6821 42.9551 59.668Z" fill="#974145"/>
<path d="M44.5229 65.2928C45.5746 67.6653 47.2381 69.636 49.7621 68.4497C51.483 67.6462 52.439 66.2494 52.9553 64.7188C50.6417 63.7047 47.0087 63.6856 44.5229 65.2928Z" fill="#FF9490"/>
<path d="M44.8481 61.1984C46.9132 61.6384 51.1962 60.3183 51.942 59.7251C52.2097 59.2659 52.8215 58.6537 52.8024 58.0605C51.4831 58.6154 47.1235 60.28 43.6626 59.7825C43.7773 60.5479 44.2936 60.9879 44.8481 61.1984Z" fill="white"/>
<defs>
<radialGradient id="paint0_radial_5308_115950" cx="0" cy="0" r="1" gradientUnits="userSpaceOnUse" gradientTransform="translate(45.0315 48.9747) rotate(-177.035) scale(3.23331 3.23536)">
<stop stop-color="white"/>
<stop offset="0.2208" stop-color="#FCFCFC"/>
<stop offset="0.3567" stop-color="#F4F4F4"/>
<stop offset="0.4696" stop-color="#E5E5E5"/>
<stop offset="0.57" stop-color="#D1D1D1"/>
<stop offset="0.662" stop-color="#B6B6B6"/>
<stop offset="0.7479" stop-color="#969696"/>
<stop offset="0.8292" stop-color="#6F6F6F"/>
<stop offset="0.9068" stop-color="#424242"/>
<stop offset="0.9787" stop-color="#101010"/>
<stop offset="1"/>
</radialGradient>
<radialGradient id="paint1_radial_5308_115950" cx="0" cy="0" r="1" gradientUnits="userSpaceOnUse" gradientTransform="translate(45.0315 48.9747) rotate(-177.035) scale(3.23331 3.23536)">
<stop stop-color="#FFA993"/>
<stop offset="0.4562" stop-color="#FFAC93"/>
<stop offset="0.7364" stop-color="#FFB495"/>
<stop offset="0.9689" stop-color="#FFC297"/>
<stop offset="1" stop-color="#FFC597"/>
</radialGradient>
<radialGradient id="paint2_radial_5308_115950" cx="0" cy="0" r="1" gradientUnits="userSpaceOnUse" gradientTransform="translate(25.8369 54.9486) rotate(15.7636) scale(8.18364 8.18805)">
<stop stop-color="white"/>
<stop offset="0.2208" stop-color="#FCFCFC"/>
<stop offset="0.3567" stop-color="#F4F4F4"/>
<stop offset="0.4696" stop-color="#E5E5E5"/>
<stop offset="0.57" stop-color="#D1D1D1"/>
<stop offset="0.662" stop-color="#B6B6B6"/>
<stop offset="0.7479" stop-color="#969696"/>
<stop offset="0.8292" stop-color="#6F6F6F"/>
<stop offset="0.9068" stop-color="#424242"/>
<stop offset="0.9787" stop-color="#101010"/>
<stop offset="1"/>
</radialGradient>
</defs>
</svg>
