<svg width="702" height="45" viewBox="0 0 702 45" fill="none" xmlns="http://www.w3.org/2000/svg">
<path d="M0.93934 10.9393C0.353553 11.5251 0.353553 12.4749 0.93934 13.0607L10.4853 22.6066C11.0711 23.1924 12.0208 23.1924 12.6066 22.6066C13.1924 22.0208 13.1924 21.0711 12.6066 20.4853L4.12132 12L12.6066 3.51472C13.1924 2.92893 13.1924 1.97918 12.6066 1.3934C12.0208 0.807612 11.0711 0.807612 10.4853 1.3934L0.93934 10.9393ZM701.061 13.0607C701.646 12.4749 701.646 11.5251 701.061 10.9393L691.515 1.3934C690.929 0.807612 689.979 0.807612 689.393 1.3934C688.808 1.97918 688.808 2.92893 689.393 3.51472L697.879 12L689.393 20.4853C688.808 21.0711 688.808 22.0208 689.393 22.6066C689.979 23.1924 690.929 23.1924 691.515 22.6066L701.061 13.0607ZM2 13.5H700V10.5H2V13.5Z" fill="#369CB7"/>
<line x1="80.5" y1="3.5" x2="80.5" y2="20.5" stroke="#369CB7" stroke-width="3" stroke-linecap="round"/>
<path d="M79.464 34.422C81.264 34.422 82.584 34.764 83.424 35.448C84.276 36.12 84.702 37.044 84.702 38.22C84.702 38.964 84.522 39.636 84.162 40.236C83.814 40.824 83.28 41.292 82.56 41.64C81.852 41.976 80.976 42.144 79.932 42.144C79.044 42.144 78.186 42.012 77.358 41.748C76.53 41.472 75.846 41.094 75.306 40.614L76.134 39.192C76.566 39.6 77.118 39.93 77.79 40.182C78.462 40.422 79.17 40.542 79.914 40.542C80.862 40.542 81.594 40.344 82.11 39.948C82.638 39.54 82.902 38.988 82.902 38.292C82.902 37.536 82.614 36.966 82.038 36.582C81.462 36.186 80.478 35.988 79.086 35.988H76.224L76.89 29.4H84V30.966H78.402L78.06 34.422H79.464Z" fill="#2F2F2F"/>
<path d="M242.044 29.4V30.624L236.95 42H235.042L240.028 30.966H234.268V33.216H232.54V29.4H242.044Z" fill="#2F2F2F"/>
<path d="M318.568 35.394C319.288 35.67 319.84 36.066 320.224 36.582C320.608 37.098 320.8 37.716 320.8 38.436C320.8 39.192 320.596 39.852 320.188 40.416C319.78 40.968 319.198 41.394 318.442 41.694C317.686 41.994 316.798 42.144 315.778 42.144C314.77 42.144 313.888 41.994 313.132 41.694C312.388 41.394 311.812 40.968 311.404 40.416C310.996 39.852 310.792 39.192 310.792 38.436C310.792 37.716 310.978 37.098 311.35 36.582C311.734 36.066 312.286 35.67 313.006 35.394C312.43 35.118 311.992 34.752 311.692 34.296C311.392 33.84 311.242 33.3 311.242 32.676C311.242 31.98 311.428 31.374 311.8 30.858C312.184 30.342 312.718 29.946 313.402 29.67C314.086 29.394 314.878 29.256 315.778 29.256C316.69 29.256 317.488 29.394 318.172 29.67C318.868 29.946 319.402 30.342 319.774 30.858C320.158 31.374 320.35 31.98 320.35 32.676C320.35 33.288 320.194 33.828 319.882 34.296C319.582 34.752 319.144 35.118 318.568 35.394ZM315.778 30.714C314.926 30.714 314.254 30.9 313.762 31.272C313.27 31.632 313.024 32.124 313.024 32.748C313.024 33.372 313.264 33.864 313.744 34.224C314.236 34.584 314.914 34.764 315.778 34.764C316.654 34.764 317.338 34.584 317.83 34.224C318.334 33.864 318.586 33.372 318.586 32.748C318.586 32.124 318.328 31.632 317.812 31.272C317.308 30.9 316.63 30.714 315.778 30.714ZM315.778 40.686C316.774 40.686 317.56 40.482 318.136 40.074C318.712 39.654 319 39.09 319 38.382C319 37.686 318.712 37.14 318.136 36.744C317.56 36.336 316.774 36.132 315.778 36.132C314.782 36.132 314.002 36.336 313.438 36.744C312.874 37.14 312.592 37.686 312.592 38.382C312.592 39.09 312.874 39.654 313.438 40.074C314.002 40.482 314.782 40.686 315.778 40.686Z" fill="#2F2F2F"/>
<path d="M392.95 29.256C394.642 29.256 395.944 29.802 396.856 30.894C397.78 31.986 398.242 33.534 398.242 35.538C398.242 36.942 397.99 38.142 397.486 39.138C396.994 40.122 396.298 40.872 395.398 41.388C394.51 41.892 393.472 42.144 392.284 42.144C391.672 42.144 391.096 42.084 390.556 41.964C390.016 41.832 389.548 41.646 389.152 41.406L389.836 40.002C390.448 40.398 391.258 40.596 392.266 40.596C393.574 40.596 394.594 40.194 395.326 39.39C396.07 38.574 396.442 37.392 396.442 35.844V35.394C396.082 35.934 395.584 36.348 394.948 36.636C394.312 36.912 393.598 37.05 392.806 37.05C391.978 37.05 391.234 36.894 390.574 36.582C389.926 36.27 389.416 35.826 389.044 35.25C388.684 34.662 388.504 33.99 388.504 33.234C388.504 32.442 388.696 31.746 389.08 31.146C389.476 30.546 390.01 30.084 390.682 29.76C391.354 29.424 392.11 29.256 392.95 29.256ZM393.112 35.592C393.676 35.592 394.18 35.484 394.624 35.268C395.068 35.052 395.41 34.758 395.65 34.386C395.902 34.014 396.028 33.6 396.028 33.144C396.028 32.7 395.908 32.298 395.668 31.938C395.44 31.566 395.098 31.272 394.642 31.056C394.198 30.828 393.658 30.714 393.022 30.714C392.194 30.714 391.522 30.936 391.006 31.38C390.502 31.824 390.25 32.418 390.25 33.162C390.25 33.906 390.508 34.5 391.024 34.944C391.54 35.376 392.236 35.592 393.112 35.592Z" fill="#2F2F2F"/>
<path d="M467.77 29.4V42H465.988V30.966H463.144V29.4H467.77ZM475.674 42.144C474.678 42.144 473.79 41.892 473.01 41.388C472.242 40.872 471.636 40.128 471.192 39.156C470.748 38.184 470.526 37.032 470.526 35.7C470.526 34.368 470.748 33.216 471.192 32.244C471.636 31.272 472.242 30.534 473.01 30.03C473.79 29.514 474.678 29.256 475.674 29.256C476.658 29.256 477.534 29.514 478.302 30.03C479.082 30.534 479.694 31.272 480.138 32.244C480.582 33.216 480.804 34.368 480.804 35.7C480.804 37.032 480.582 38.184 480.138 39.156C479.694 40.128 479.082 40.872 478.302 41.388C477.534 41.892 476.658 42.144 475.674 42.144ZM475.674 40.542C476.682 40.542 477.486 40.128 478.086 39.3C478.698 38.472 479.004 37.272 479.004 35.7C479.004 34.128 478.698 32.928 478.086 32.1C477.486 31.272 476.682 30.858 475.674 30.858C474.654 30.858 473.838 31.272 473.226 32.1C472.626 32.928 472.326 34.128 472.326 35.7C472.326 37.272 472.626 38.472 473.226 39.3C473.838 40.128 474.654 40.542 475.674 40.542Z" fill="#2F2F2F"/>
<path d="M547.77 29.4V42H545.988V30.966H543.144V29.4H547.77ZM554.432 29.4V42H552.65V30.966H549.806V29.4H554.432Z" fill="#2F2F2F"/>
<line x1="158.5" y1="3.5" x2="158.5" y2="20.5" stroke="#369CB7" stroke-width="3" stroke-linecap="round"/>
<line x1="236.5" y1="3.5" x2="236.5" y2="20.5" stroke="#369CB7" stroke-width="3" stroke-linecap="round"/>
<line x1="314.5" y1="3.5" x2="314.5" y2="20.5" stroke="#369CB7" stroke-width="3" stroke-linecap="round"/>
<line x1="392.5" y1="3.5" x2="392.5" y2="20.5" stroke="#369CB7" stroke-width="3" stroke-linecap="round"/>
<line x1="470.5" y1="3.5" x2="470.5" y2="20.5" stroke="#369CB7" stroke-width="3" stroke-linecap="round"/>
<line x1="548.5" y1="3.5" x2="548.5" y2="20.5" stroke="#369CB7" stroke-width="3" stroke-linecap="round"/>
<line x1="626.5" y1="3.5" x2="626.5" y2="20.5" stroke="#369CB7" stroke-width="3" stroke-linecap="round"/>
</svg>
