<svg width="172" height="310" viewBox="0 0 172 310" fill="none" xmlns="http://www.w3.org/2000/svg">
<path d="M38.776 267.41C39.496 267.686 40.048 268.082 40.432 268.598C40.816 269.114 41.008 269.732 41.008 270.452C41.008 271.208 40.804 271.868 40.396 272.432C39.988 272.984 39.406 273.41 38.65 273.71C37.894 274.01 37.006 274.16 35.986 274.16C34.978 274.16 34.096 274.01 33.34 273.71C32.596 273.41 32.02 272.984 31.612 272.432C31.204 271.868 31 271.208 31 270.452C31 269.732 31.186 269.114 31.558 268.598C31.942 268.082 32.494 267.686 33.214 267.41C32.638 267.134 32.2 266.768 31.9 266.312C31.6 265.856 31.45 265.316 31.45 264.692C31.45 263.996 31.636 263.39 32.008 262.874C32.392 262.358 32.926 261.962 33.61 261.686C34.294 261.41 35.086 261.272 35.986 261.272C36.898 261.272 37.696 261.41 38.38 261.686C39.076 261.962 39.61 262.358 39.982 262.874C40.366 263.39 40.558 263.996 40.558 264.692C40.558 265.304 40.402 265.844 40.09 266.312C39.79 266.768 39.352 267.134 38.776 267.41ZM35.986 262.73C35.134 262.73 34.462 262.916 33.97 263.288C33.478 263.648 33.232 264.14 33.232 264.764C33.232 265.388 33.472 265.88 33.952 266.24C34.444 266.6 35.122 266.78 35.986 266.78C36.862 266.78 37.546 266.6 38.038 266.24C38.542 265.88 38.794 265.388 38.794 264.764C38.794 264.14 38.536 263.648 38.02 263.288C37.516 262.916 36.838 262.73 35.986 262.73ZM35.986 272.702C36.982 272.702 37.768 272.498 38.344 272.09C38.92 271.67 39.208 271.106 39.208 270.398C39.208 269.702 38.92 269.156 38.344 268.76C37.768 268.352 36.982 268.148 35.986 268.148C34.99 268.148 34.21 268.352 33.646 268.76C33.082 269.156 32.8 269.702 32.8 270.398C32.8 271.106 33.082 271.67 33.646 272.09C34.21 272.498 34.99 272.702 35.986 272.702Z" fill="#2F2F2F"/>
<path d="M6 254.016H66V252.016H6V254.016ZM70 258.016V278.016H72V258.016H70ZM66 282.016H6V284.016H66V282.016ZM2 278.016V258.016H0V278.016H2ZM6 282.016C3.79086 282.016 2 280.225 2 278.016H0C0 281.329 2.68629 284.016 6 284.016V282.016ZM70 278.016C70 280.225 68.2091 282.016 66 282.016V284.016C69.3137 284.016 72 281.329 72 278.016H70ZM66 254.016C68.2091 254.016 70 255.806 70 258.016H72C72 254.702 69.3137 252.016 66 252.016V254.016ZM6 252.016C2.68629 252.016 0 254.702 0 258.016H2C2 255.806 3.79086 254.016 6 254.016V252.016Z" fill="#2F2F2F"/>
<path d="M15.9813 300.464C16.6773 300.692 17.2293 301.076 17.6373 301.616C18.0453 302.144 18.2493 302.804 18.2493 303.596C18.2493 304.688 17.8293 305.534 16.9893 306.134C16.1493 306.722 14.9253 307.016 13.3173 307.016H7.05333V294.416H12.9573C14.4453 294.416 15.5913 294.71 16.3953 295.298C17.1993 295.874 17.6013 296.672 17.6013 297.692C17.6013 298.316 17.4573 298.868 17.1693 299.348C16.8813 299.828 16.4853 300.2 15.9813 300.464ZM9.39333 296.252V299.726H12.7053C13.5213 299.726 14.1453 299.582 14.5773 299.294C15.0213 298.994 15.2433 298.562 15.2433 297.998C15.2433 297.422 15.0213 296.99 14.5773 296.702C14.1453 296.402 13.5213 296.252 12.7053 296.252H9.39333ZM13.1733 305.18C14.9853 305.18 15.8913 304.574 15.8913 303.362C15.8913 302.15 14.9853 301.544 13.1733 301.544H9.39333V305.18H13.1733ZM20.5307 293.66H22.7807V307.016H20.5307V293.66ZM30.0538 307.142C29.0818 307.142 28.2058 306.932 27.4258 306.512C26.6458 306.092 26.0338 305.51 25.5898 304.766C25.1578 304.01 24.9418 303.158 24.9418 302.21C24.9418 301.262 25.1578 300.416 25.5898 299.672C26.0338 298.928 26.6458 298.346 27.4258 297.926C28.2058 297.506 29.0818 297.296 30.0538 297.296C31.0378 297.296 31.9198 297.506 32.6998 297.926C33.4798 298.346 34.0858 298.928 34.5178 299.672C34.9618 300.416 35.1838 301.262 35.1838 302.21C35.1838 303.158 34.9618 304.01 34.5178 304.766C34.0858 305.51 33.4798 306.092 32.6998 306.512C31.9198 306.932 31.0378 307.142 30.0538 307.142ZM30.0538 305.216C30.8818 305.216 31.5658 304.94 32.1058 304.388C32.6458 303.836 32.9158 303.11 32.9158 302.21C32.9158 301.31 32.6458 300.584 32.1058 300.032C31.5658 299.48 30.8818 299.204 30.0538 299.204C29.2258 299.204 28.5418 299.48 28.0018 300.032C27.4738 300.584 27.2098 301.31 27.2098 302.21C27.2098 303.11 27.4738 303.836 28.0018 304.388C28.5418 304.94 29.2258 305.216 30.0538 305.216ZM41.7454 307.142C40.7494 307.142 39.8554 306.932 39.0634 306.512C38.2714 306.092 37.6534 305.51 37.2094 304.766C36.7654 304.01 36.5434 303.158 36.5434 302.21C36.5434 301.262 36.7654 300.416 37.2094 299.672C37.6534 298.928 38.2654 298.346 39.0454 297.926C39.8374 297.506 40.7374 297.296 41.7454 297.296C42.6934 297.296 43.5214 297.488 44.2294 297.872C44.9494 298.256 45.4894 298.808 45.8494 299.528L44.1214 300.536C43.8454 300.092 43.4974 299.762 43.0774 299.546C42.6694 299.318 42.2194 299.204 41.7274 299.204C40.8874 299.204 40.1914 299.48 39.6394 300.032C39.0874 300.572 38.8114 301.298 38.8114 302.21C38.8114 303.122 39.0814 303.854 39.6214 304.406C40.1734 304.946 40.8754 305.216 41.7274 305.216C42.2194 305.216 42.6694 305.108 43.0774 304.892C43.4974 304.664 43.8454 304.328 44.1214 303.884L45.8494 304.892C45.4774 305.612 44.9314 306.17 44.2114 306.566C43.5034 306.95 42.6814 307.142 41.7454 307.142ZM51.6305 302.894L49.9565 304.478V307.016H47.7065V293.66H49.9565V301.724L54.6185 297.404H57.3185L53.3045 301.436L57.6965 307.016H54.9605L51.6305 302.894ZM61.821 307.142C61.041 307.142 60.279 307.04 59.535 306.836C58.791 306.632 58.197 306.374 57.753 306.062L58.617 304.352C59.049 304.64 59.565 304.874 60.165 305.054C60.777 305.222 61.377 305.306 61.965 305.306C63.309 305.306 63.981 304.952 63.981 304.244C63.981 303.908 63.807 303.674 63.459 303.542C63.123 303.41 62.577 303.284 61.821 303.164C61.029 303.044 60.381 302.906 59.877 302.75C59.385 302.594 58.953 302.324 58.581 301.94C58.221 301.544 58.041 300.998 58.041 300.302C58.041 299.39 58.419 298.664 59.175 298.124C59.943 297.572 60.975 297.296 62.271 297.296C62.931 297.296 63.591 297.374 64.251 297.53C64.911 297.674 65.451 297.872 65.871 298.124L65.007 299.834C64.191 299.354 63.273 299.114 62.253 299.114C61.593 299.114 61.089 299.216 60.741 299.42C60.405 299.612 60.237 299.87 60.237 300.194C60.237 300.554 60.417 300.812 60.777 300.968C61.149 301.112 61.719 301.25 62.487 301.382C63.255 301.502 63.885 301.64 64.377 301.796C64.869 301.952 65.289 302.216 65.637 302.588C65.997 302.96 66.177 303.488 66.177 304.172C66.177 305.072 65.787 305.792 65.007 306.332C64.227 306.872 63.165 307.142 61.821 307.142Z" fill="#2F2F2F"/>
<path d="M141.665 261.4V262.624L136.571 274H134.663L139.649 262.966H133.889V265.216H132.161V261.4H141.665Z" fill="#2F2F2F"/>
<path d="M107 254H167V252H107V254ZM171 258V278H173V258H171ZM167 282H107V284H167V282ZM103 278V258H101V278H103ZM107 282C104.791 282 103 280.209 103 278H101C101 281.314 103.686 284 107 284V282ZM171 278C171 280.209 169.209 282 167 282V284C170.314 284 173 281.314 173 278H171ZM167 254C169.209 254 171 255.791 171 258H173C173 254.686 170.314 252 167 252V254ZM107 252C103.686 252 101 254.686 101 258H103C103 255.791 104.791 254 107 254V252Z" fill="#2F2F2F"/>
<path d="M116.981 300.448C117.677 300.676 118.229 301.06 118.637 301.6C119.045 302.128 119.249 302.788 119.249 303.58C119.249 304.672 118.829 305.518 117.989 306.118C117.149 306.706 115.925 307 114.317 307H108.053V294.4H113.957C115.445 294.4 116.591 294.694 117.395 295.282C118.199 295.858 118.601 296.656 118.601 297.676C118.601 298.3 118.457 298.852 118.169 299.332C117.881 299.812 117.485 300.184 116.981 300.448ZM110.393 296.236V299.71H113.705C114.521 299.71 115.145 299.566 115.577 299.278C116.021 298.978 116.243 298.546 116.243 297.982C116.243 297.406 116.021 296.974 115.577 296.686C115.145 296.386 114.521 296.236 113.705 296.236H110.393ZM114.173 305.164C115.985 305.164 116.891 304.558 116.891 303.346C116.891 302.134 115.985 301.528 114.173 301.528H110.393V305.164H114.173ZM121.531 293.644H123.781V307H121.531V293.644ZM131.054 307.126C130.082 307.126 129.206 306.916 128.426 306.496C127.646 306.076 127.034 305.494 126.59 304.75C126.158 303.994 125.942 303.142 125.942 302.194C125.942 301.246 126.158 300.4 126.59 299.656C127.034 298.912 127.646 298.33 128.426 297.91C129.206 297.49 130.082 297.28 131.054 297.28C132.038 297.28 132.92 297.49 133.7 297.91C134.48 298.33 135.086 298.912 135.518 299.656C135.962 300.4 136.184 301.246 136.184 302.194C136.184 303.142 135.962 303.994 135.518 304.75C135.086 305.494 134.48 306.076 133.7 306.496C132.92 306.916 132.038 307.126 131.054 307.126ZM131.054 305.2C131.882 305.2 132.566 304.924 133.106 304.372C133.646 303.82 133.916 303.094 133.916 302.194C133.916 301.294 133.646 300.568 133.106 300.016C132.566 299.464 131.882 299.188 131.054 299.188C130.226 299.188 129.542 299.464 129.002 300.016C128.474 300.568 128.21 301.294 128.21 302.194C128.21 303.094 128.474 303.82 129.002 304.372C129.542 304.924 130.226 305.2 131.054 305.2ZM142.745 307.126C141.749 307.126 140.855 306.916 140.063 306.496C139.271 306.076 138.653 305.494 138.209 304.75C137.765 303.994 137.543 303.142 137.543 302.194C137.543 301.246 137.765 300.4 138.209 299.656C138.653 298.912 139.265 298.33 140.045 297.91C140.837 297.49 141.737 297.28 142.745 297.28C143.693 297.28 144.521 297.472 145.229 297.856C145.949 298.24 146.489 298.792 146.849 299.512L145.121 300.52C144.845 300.076 144.497 299.746 144.077 299.53C143.669 299.302 143.219 299.188 142.727 299.188C141.887 299.188 141.191 299.464 140.639 300.016C140.087 300.556 139.811 301.282 139.811 302.194C139.811 303.106 140.081 303.838 140.621 304.39C141.173 304.93 141.875 305.2 142.727 305.2C143.219 305.2 143.669 305.092 144.077 304.876C144.497 304.648 144.845 304.312 145.121 303.868L146.849 304.876C146.477 305.596 145.931 306.154 145.211 306.55C144.503 306.934 143.681 307.126 142.745 307.126ZM152.63 302.878L150.956 304.462V307H148.706V293.644H150.956V301.708L155.618 297.388H158.318L154.304 301.42L158.696 307H155.96L152.63 302.878ZM162.821 307.126C162.041 307.126 161.279 307.024 160.535 306.82C159.791 306.616 159.197 306.358 158.753 306.046L159.617 304.336C160.049 304.624 160.565 304.858 161.165 305.038C161.777 305.206 162.377 305.29 162.965 305.29C164.309 305.29 164.981 304.936 164.981 304.228C164.981 303.892 164.807 303.658 164.459 303.526C164.123 303.394 163.577 303.268 162.821 303.148C162.029 303.028 161.381 302.89 160.877 302.734C160.385 302.578 159.953 302.308 159.581 301.924C159.221 301.528 159.041 300.982 159.041 300.286C159.041 299.374 159.419 298.648 160.175 298.108C160.943 297.556 161.975 297.28 163.271 297.28C163.931 297.28 164.591 297.358 165.251 297.514C165.911 297.658 166.451 297.856 166.871 298.108L166.007 299.818C165.191 299.338 164.273 299.098 163.253 299.098C162.593 299.098 162.089 299.2 161.741 299.404C161.405 299.596 161.237 299.854 161.237 300.178C161.237 300.538 161.417 300.796 161.777 300.952C162.149 301.096 162.719 301.234 163.487 301.366C164.255 301.486 164.885 301.624 165.377 301.78C165.869 301.936 166.289 302.2 166.637 302.572C166.997 302.944 167.177 303.472 167.177 304.156C167.177 305.056 166.787 305.776 166.007 306.316C165.227 306.856 164.165 307.126 162.821 307.126Z" fill="#2F2F2F"/>
<g clip-path="url(#clip0_5347_112398)">
<path d="M2.00098 108.407C2.00098 65.3268 4.47797 30.3945 7.51429 30.3945C8.28669 30.3945 9.00582 32.5794 9.64504 36.5122C11.616 48.3362 13.001 76.0713 13.001 108.407C13.001 123.753 12.6814 138.045 12.1487 150.1C11.1632 171.923 9.4586 186.395 7.48766 186.395C5.46345 186.395 3.70558 170.946 2.74674 147.941C2.26732 136.374 2.00098 122.853 2.00098 108.407Z" fill="#864A52"/>
<path opacity="0.32" d="M2.12632 109.138C2.12632 66.2145 4.50811 31.4095 7.42773 31.4095C3.48368 50.6176 5.48132 145.736 5.48132 145.736C4.73861 146.914 3.84223 147.836 2.84342 148.527C2.38242 137.003 2.12632 123.531 2.12632 109.138Z" fill="#CE765C"/>
<path opacity="0.32" d="M9.47617 37.504C11.3714 49.2849 12.7031 76.9189 12.7031 109.137C12.7031 124.427 12.3958 138.666 11.8836 150.678C8.37491 149.295 8.37491 145.735 8.37491 145.735C8.37491 145.735 11.1409 74.2298 9.47617 37.504Z" fill="#CE765C"/>
<path d="M2.73953 190.913C3.81518 189.274 6.09453 189.222 8.11778 189.632C10.2179 190.042 12.0874 190.913 12.0874 190.913C12.0874 190.913 16.5437 197.239 14.1875 204.871C11.8313 212.477 9.00049 220.395 7.50049 222.895V222.869C7.37243 222.562 6.14575 223.054 4.78839 219.341C2.89319 214.142 0.61384 207.637 0.204069 205.408C-0.48742 201.541 0.562618 194.268 2.73953 190.913Z" fill="#CE765C"/>
<path opacity="0.4" d="M2.74089 190.912C3.81654 189.273 6.09589 189.222 8.11914 189.631C6.55689 191.014 -1.51049 199.261 4.78975 219.34C2.89455 214.141 0.615201 207.636 0.205429 205.408C-0.48606 201.54 0.563978 194.267 2.74089 190.912Z" fill="#CE765C"/>
<path opacity="0.54" d="M8.11778 189.632C10.2179 190.042 12.0874 190.913 12.0874 190.913C12.0874 190.913 16.5437 197.239 14.1875 204.871C11.8313 212.477 7.50049 216.748 7.50049 222.895C6.93705 220.999 5.32621 215.397 9.55198 205.562C13.7777 195.728 8.11778 189.632 8.11778 189.632Z" fill="#CE765C"/>
<path d="M2.74096 190.914H12.0889V145.737H2.74096V190.914Z" fill="#F0D6C8"/>
<path opacity="0.42" d="M8.37526 190.914H10.7314V145.737H8.37526V190.914Z" fill="#F0D6C8"/>
<path opacity="0.44" d="M2.7411 190.914H5.48145V145.737H2.7411V190.914Z" fill="#F0D6C8"/>
</g>
<path fill-rule="evenodd" clip-rule="evenodd" d="M53.333 201.279L19.9997 198.512V220.609L53.333 223.376V201.279Z" fill="#BFD638"/>
<path fill-rule="evenodd" clip-rule="evenodd" d="M53.3334 201.282L20.0001 198.515L36.6667 193L70 195.767L53.3334 201.282Z" fill="#6A982D"/>
<path fill-rule="evenodd" clip-rule="evenodd" d="M53.3334 201.282L70 195.768V217.865L53.3334 223.38V201.282Z" fill="#9FBC26"/>
<path fill-rule="evenodd" clip-rule="evenodd" d="M53.333 177.279L19.9997 174.512V196.609L53.333 199.376V177.279Z" fill="#BFD638"/>
<path fill-rule="evenodd" clip-rule="evenodd" d="M53.3334 177.282L20.0001 174.515L36.6667 169L70 171.767L53.3334 177.282Z" fill="#6A982D"/>
<path fill-rule="evenodd" clip-rule="evenodd" d="M53.3334 177.282L70 171.768V193.865L53.3334 199.38V177.282Z" fill="#9FBC26"/>
<path fill-rule="evenodd" clip-rule="evenodd" d="M53.333 153.279L19.9997 150.512V172.609L53.333 175.376V153.279Z" fill="#BFD638"/>
<path fill-rule="evenodd" clip-rule="evenodd" d="M53.3334 153.282L20.0001 150.515L36.6667 145L70 147.767L53.3334 153.282Z" fill="#6A982D"/>
<path fill-rule="evenodd" clip-rule="evenodd" d="M53.3334 153.282L70 147.768V169.865L53.3334 175.38V153.282Z" fill="#9FBC26"/>
<path fill-rule="evenodd" clip-rule="evenodd" d="M53.333 129.279L19.9997 126.512V148.609L53.333 151.376V129.279Z" fill="#BFD638"/>
<path fill-rule="evenodd" clip-rule="evenodd" d="M53.3334 129.282L20.0001 126.515L36.6667 121L70 123.767L53.3334 129.282Z" fill="#6A982D"/>
<path fill-rule="evenodd" clip-rule="evenodd" d="M53.3334 129.282L70 123.768V145.865L53.3334 151.38V129.282Z" fill="#9FBC26"/>
<path fill-rule="evenodd" clip-rule="evenodd" d="M53.333 105.279L19.9997 102.512V124.609L53.333 127.376V105.279Z" fill="#BFD638"/>
<path fill-rule="evenodd" clip-rule="evenodd" d="M53.3334 105.282L20.0001 102.515L36.6667 97L70 99.767L53.3334 105.282Z" fill="#6A982D"/>
<path fill-rule="evenodd" clip-rule="evenodd" d="M53.3334 105.282L70 99.7676V121.865L53.3334 127.38V105.282Z" fill="#9FBC26"/>
<path fill-rule="evenodd" clip-rule="evenodd" d="M53.333 81.2788L19.9997 78.5117V100.609L53.333 103.376V81.2788Z" fill="#BFD638"/>
<path fill-rule="evenodd" clip-rule="evenodd" d="M53.3334 81.2816L20.0001 78.5146L36.6667 73L70 75.767L53.3334 81.2816Z" fill="#6A982D"/>
<path fill-rule="evenodd" clip-rule="evenodd" d="M53.3334 81.2822L70 75.7676V97.8649L53.3334 103.38V81.2822Z" fill="#9FBC26"/>
<path fill-rule="evenodd" clip-rule="evenodd" d="M53.333 57.2788L19.9997 54.5117V76.6091L53.333 79.3761V57.2788Z" fill="#BFD638"/>
<path fill-rule="evenodd" clip-rule="evenodd" d="M53.3334 57.2816L20.0001 54.5146L36.6667 49L70 51.767L53.3334 57.2816Z" fill="#6A982D"/>
<path fill-rule="evenodd" clip-rule="evenodd" d="M53.3334 57.2822L70 51.7676V73.8649L53.3334 79.3795V57.2822Z" fill="#9FBC26"/>
<path fill-rule="evenodd" clip-rule="evenodd" d="M53.333 33.2788L19.9997 30.5117V52.6091L53.333 55.3761V33.2788Z" fill="#BFD638"/>
<path fill-rule="evenodd" clip-rule="evenodd" d="M53.3334 33.2816L20.0001 30.5146L36.6667 25L70 27.767L53.3334 33.2816Z" fill="#6A982D"/>
<path fill-rule="evenodd" clip-rule="evenodd" d="M53.3334 33.2822L70 27.7676V49.8649L53.3334 55.3795V33.2822Z" fill="#9FBC26"/>
<path fill-rule="evenodd" clip-rule="evenodd" d="M53.2236 9.25202L20.0007 6.49414V28.5183L53.2236 31.2762V9.25202Z" fill="white" stroke="#676767" stroke-width="0.646241" stroke-dasharray="3.88 3.88"/>
<path fill-rule="evenodd" clip-rule="evenodd" d="M53.2245 9.25422L20.0015 6.49634L36.613 1L69.8359 3.75788L53.2245 9.25422Z" fill="white" stroke="#676767" stroke-width="0.646241" stroke-dasharray="3.88 3.88"/>
<path fill-rule="evenodd" clip-rule="evenodd" d="M53.2245 9.25611L69.8359 3.75977V25.784L53.2245 31.2803V9.25611Z" fill="white" stroke="#676767" stroke-width="0.646241" stroke-dasharray="3.88 3.88"/>
<path fill-rule="evenodd" clip-rule="evenodd" d="M135.333 201.279L102 198.512V220.609L135.333 223.376V201.279Z" fill="#BFD638"/>
<path fill-rule="evenodd" clip-rule="evenodd" d="M135.333 201.282L102 198.515L118.667 193L152 195.767L135.333 201.282Z" fill="#6A982D"/>
<path fill-rule="evenodd" clip-rule="evenodd" d="M135.333 201.282L152 195.768V217.865L135.333 223.38V201.282Z" fill="#9FBC26"/>
<path fill-rule="evenodd" clip-rule="evenodd" d="M135.333 177.279L102 174.512V196.609L135.333 199.376V177.279Z" fill="#BFD638"/>
<path fill-rule="evenodd" clip-rule="evenodd" d="M135.333 177.282L102 174.515L118.667 169L152 171.767L135.333 177.282Z" fill="#6A982D"/>
<path fill-rule="evenodd" clip-rule="evenodd" d="M135.333 177.282L152 171.768V193.865L135.333 199.38V177.282Z" fill="#9FBC26"/>
<path fill-rule="evenodd" clip-rule="evenodd" d="M135.333 153.279L102 150.512V172.609L135.333 175.376V153.279Z" fill="#BFD638"/>
<path fill-rule="evenodd" clip-rule="evenodd" d="M135.333 153.282L102 150.515L118.667 145L152 147.767L135.333 153.282Z" fill="#6A982D"/>
<path fill-rule="evenodd" clip-rule="evenodd" d="M135.333 153.282L152 147.768V169.865L135.333 175.38V153.282Z" fill="#9FBC26"/>
<path fill-rule="evenodd" clip-rule="evenodd" d="M135.333 129.279L102 126.512V148.609L135.333 151.376V129.279Z" fill="#BFD638"/>
<path fill-rule="evenodd" clip-rule="evenodd" d="M135.333 129.282L102 126.515L118.667 121L152 123.767L135.333 129.282Z" fill="#6A982D"/>
<path fill-rule="evenodd" clip-rule="evenodd" d="M135.333 129.282L152 123.768V145.865L135.333 151.38V129.282Z" fill="#9FBC26"/>
<path fill-rule="evenodd" clip-rule="evenodd" d="M135.333 105.279L102 102.512V124.609L135.333 127.376V105.279Z" fill="#BFD638"/>
<path fill-rule="evenodd" clip-rule="evenodd" d="M135.333 105.282L102 102.515L118.667 97L152 99.767L135.333 105.282Z" fill="#6A982D"/>
<path fill-rule="evenodd" clip-rule="evenodd" d="M135.333 105.282L152 99.7676V121.865L135.333 127.38V105.282Z" fill="#9FBC26"/>
<path fill-rule="evenodd" clip-rule="evenodd" d="M135.333 81.2788L102 78.5117V100.609L135.333 103.376V81.2788Z" fill="#BFD638"/>
<path fill-rule="evenodd" clip-rule="evenodd" d="M135.333 81.2816L102 78.5146L118.667 73L152 75.767L135.333 81.2816Z" fill="#6A982D"/>
<path fill-rule="evenodd" clip-rule="evenodd" d="M135.333 81.2822L152 75.7676V97.8649L135.333 103.38V81.2822Z" fill="#9FBC26"/>
<path fill-rule="evenodd" clip-rule="evenodd" d="M135.333 57.2788L102 54.5117V76.6091L135.333 79.3761V57.2788Z" fill="#BFD638"/>
<path fill-rule="evenodd" clip-rule="evenodd" d="M135.333 57.2816L102 54.5146L118.667 49L152 51.767L135.333 57.2816Z" fill="#6A982D"/>
<path fill-rule="evenodd" clip-rule="evenodd" d="M135.333 57.2822L152 51.7676V73.8649L135.333 79.3795V57.2822Z" fill="#9FBC26"/>
<path fill-rule="evenodd" clip-rule="evenodd" d="M135.224 9.25202L102.001 6.49414V28.5183L135.224 31.2762V9.25202Z" fill="white" stroke="#676767" stroke-width="0.646241" stroke-dasharray="3.88 3.88"/>
<path fill-rule="evenodd" clip-rule="evenodd" d="M135.224 9.25422L102.001 6.49634L118.613 1L151.836 3.75788L135.224 9.25422Z" fill="white" stroke="#676767" stroke-width="0.646241" stroke-dasharray="3.88 3.88"/>
<path fill-rule="evenodd" clip-rule="evenodd" d="M135.224 9.25611L151.836 3.75977V25.784L135.224 31.2803V9.25611Z" fill="white" stroke="#676767" stroke-width="0.646241" stroke-dasharray="3.88 3.88"/>
<path fill-rule="evenodd" clip-rule="evenodd" d="M135.223 33.252L102 30.4941V52.5183L135.223 55.2762V33.252Z" fill="white" stroke="#676767" stroke-width="0.646241" stroke-dasharray="3.88 3.88"/>
<path fill-rule="evenodd" clip-rule="evenodd" d="M135.223 33.2542L102.001 30.4963L118.612 25L151.835 27.7579L135.223 33.2542Z" fill="white" stroke="#676767" stroke-width="0.646241" stroke-dasharray="3.88 3.88"/>
<path fill-rule="evenodd" clip-rule="evenodd" d="M135.223 33.2561L151.835 27.7598V49.784L135.223 55.2803V33.2561Z" fill="white" stroke="#676767" stroke-width="0.646241" stroke-dasharray="3.88 3.88"/>
<g clip-path="url(#clip1_5347_112398)">
<path d="M157 74.1797H168V247.149H157V74.1797Z" fill="#F0AF60"/>
<path opacity="0.49" d="M157 74.1797H160.429V247.149H157V74.1797Z" fill="#F0AF60"/>
<path opacity="0.42" d="M165.629 74.1797H168V247.149H165.629V74.1797Z" fill="#F0AF60"/>
<path d="M157 74.1786H168L165.029 60.8073L162.514 49.3789L159.972 60.8073L157 74.1786Z" fill="#F0D6C8"/>
<path d="M159.971 60.8073H165.028L162.514 49.3789L159.971 60.8073Z" fill="#7C4352"/>
<path opacity="0.44" d="M156.999 74.1786H160.428L162.514 49.3789L159.971 60.8073L156.999 74.1786Z" fill="#F0D6C8"/>
</g>
<defs>
<clipPath id="clip0_5347_112398">
<rect width="15" height="193" fill="white" transform="translate(15 223.379) rotate(-180)"/>
</clipPath>
<clipPath id="clip1_5347_112398">
<rect width="11" height="174" fill="white" transform="matrix(-1 0 0 1 168 49.3789)"/>
</clipPath>
</defs>
</svg>
