<svg width="15" height="194" viewBox="0 0 15 194" fill="none" xmlns="http://www.w3.org/2000/svg">
<g clip-path="url(#clip0_5347_93366)">
<path d="M2 78.0422C2 34.9616 4.477 0.0292969 7.51332 0.0292969C8.28571 0.0292969 9.00484 2.21419 9.64407 6.14696C11.615 17.971 13 45.706 13 78.0422C13 93.3877 12.6804 107.679 12.1477 119.735C11.1622 141.558 9.45763 156.029 7.48668 156.029C5.46247 156.029 3.7046 140.581 2.74576 117.576C2.26634 106.009 2 92.488 2 78.0422Z" fill="#864A52"/>
<path opacity="0.32" d="M2.12534 78.7719C2.12534 35.8483 4.50714 1.04331 7.42676 1.04331C3.48271 20.2514 5.48034 115.37 5.48034 115.37C4.73763 116.548 3.84126 117.47 2.84244 118.161C2.38145 106.636 2.12534 93.1651 2.12534 78.7719Z" fill="#CE765C"/>
<path opacity="0.32" d="M9.47569 7.13972C11.3709 18.9207 12.7026 46.5546 12.7026 78.7729C12.7026 94.0625 12.3953 108.302 11.8831 120.313C8.37443 118.93 8.37443 115.371 8.37443 115.371C8.37443 115.371 11.1404 43.8655 9.47569 7.13972Z" fill="#CE765C"/>
<path d="M2.73904 160.547C3.81469 158.908 6.09405 158.857 8.11729 159.267C10.2174 159.677 12.087 160.547 12.087 160.547C12.087 160.547 16.5432 166.873 14.187 174.505C11.8308 182.112 9 190.029 7.5 192.529V192.504C7.37195 192.196 6.14527 192.689 4.7879 188.975C2.8927 183.776 0.613352 177.271 0.203581 175.043C-0.487908 171.176 0.56213 163.902 2.73904 160.547Z" fill="#CE765C"/>
<path opacity="0.4" d="M2.7404 160.548C3.81605 158.909 6.09541 158.857 8.11865 159.267C6.5564 160.65 -1.51098 168.897 4.78926 188.976C2.89407 183.777 0.614712 177.271 0.20494 175.043C-0.486548 171.176 0.56349 163.903 2.7404 160.548Z" fill="#CE765C"/>
<path opacity="0.54" d="M8.11729 159.267C10.2174 159.677 12.087 160.548 12.087 160.548C12.087 160.548 16.5432 166.874 14.187 174.506C11.8308 182.112 7.5 186.383 7.5 192.529C6.93656 190.634 5.32572 185.032 9.55149 175.197C13.7773 165.363 8.11729 159.267 8.11729 159.267Z" fill="#CE765C"/>
<path d="M2.73998 160.548H12.0879V115.371H2.73998V160.548Z" fill="#F0D6C8"/>
<path opacity="0.42" d="M8.37477 160.548H10.731V115.371H8.37477V160.548Z" fill="#F0D6C8"/>
<path opacity="0.44" d="M2.74012 160.548H5.48047V115.371H2.74012V160.548Z" fill="#F0D6C8"/>
</g>
<defs>
<clipPath id="clip0_5347_93366">
<rect width="15" height="193" fill="white" transform="translate(15 193.015) rotate(-180)"/>
</clipPath>
</defs>
</svg>
