<svg width="170" height="168" viewBox="0 0 170 168" fill="none" xmlns="http://www.w3.org/2000/svg">
<rect x="0.5" y="0.5" width="169" height="167" rx="4.5" stroke="#D0D0D0"/>
<path d="M0 5C0 2.23858 2.23858 0 5 0H165C167.761 0 170 2.23858 170 5V28H0V5Z" fill="#205B64"/>
<path d="M61.0314 20.192C60.1461 20.192 59.2874 20.0747 58.4554 19.84C57.6341 19.5947 56.9728 19.28 56.4714 18.896L57.3514 16.944C57.8314 17.296 58.4021 17.5787 59.0634 17.792C59.7248 18.0053 60.3861 18.112 61.0474 18.112C61.7834 18.112 62.3274 18.0053 62.6794 17.792C63.0314 17.568 63.2074 17.2747 63.2074 16.912C63.2074 16.6453 63.1008 16.4267 62.8874 16.256C62.6848 16.0747 62.4181 15.9307 62.0874 15.824C61.7674 15.7173 61.3301 15.6 60.7754 15.472C59.9221 15.2693 59.2234 15.0667 58.6794 14.864C58.1354 14.6613 57.6661 14.336 57.2714 13.888C56.8874 13.44 56.6954 12.8427 56.6954 12.096C56.6954 11.4453 56.8714 10.8587 57.2234 10.336C57.5754 9.80267 58.1034 9.38133 58.8074 9.072C59.5221 8.76267 60.3914 8.608 61.4154 8.608C62.1301 8.608 62.8288 8.69333 63.5114 8.864C64.1941 9.03467 64.7914 9.28 65.3034 9.6L64.5034 11.568C63.4688 10.9813 62.4341 10.688 61.3994 10.688C60.6741 10.688 60.1354 10.8053 59.7834 11.04C59.4421 11.2747 59.2714 11.584 59.2714 11.968C59.2714 12.352 59.4688 12.64 59.8634 12.832C60.2688 13.0133 60.8821 13.1947 61.7034 13.376C62.5568 13.5787 63.2554 13.7813 63.7994 13.984C64.3434 14.1867 64.8074 14.5067 65.1914 14.944C65.5861 15.3813 65.7834 15.9733 65.7834 16.72C65.7834 17.36 65.6021 17.9467 65.2394 18.48C64.8874 19.0027 64.3541 19.4187 63.6394 19.728C62.9248 20.0373 62.0554 20.192 61.0314 20.192ZM76.1146 11.392V23.104H73.6186V19.088C72.9999 19.7813 72.1412 20.128 71.0426 20.128C70.2319 20.128 69.4959 19.9467 68.8346 19.584C68.1839 19.2213 67.6719 18.704 67.2986 18.032C66.9252 17.36 66.7386 16.5813 66.7386 15.696C66.7386 14.8107 66.9252 14.032 67.2986 13.36C67.6719 12.688 68.1839 12.1707 68.8346 11.808C69.4959 11.4453 70.2319 11.264 71.0426 11.264C72.2159 11.264 73.1119 11.6373 73.7306 12.384V11.392H76.1146ZM71.4746 18.08C72.1039 18.08 72.6266 17.8667 73.0426 17.44C73.4586 17.0027 73.6666 16.4213 73.6666 15.696C73.6666 14.9707 73.4586 14.3947 73.0426 13.968C72.6266 13.5307 72.1039 13.312 71.4746 13.312C70.8346 13.312 70.3066 13.5307 69.8906 13.968C69.4746 14.3947 69.2666 14.9707 69.2666 15.696C69.2666 16.4213 69.4746 17.0027 69.8906 17.44C70.3066 17.8667 70.8346 18.08 71.4746 18.08ZM87.0974 11.392V20H84.7294V18.976C84.3988 19.3493 84.0041 19.6373 83.5454 19.84C83.0868 20.032 82.5908 20.128 82.0574 20.128C80.9268 20.128 80.0308 19.8027 79.3694 19.152C78.7081 18.5013 78.3774 17.536 78.3774 16.256V11.392H80.8734V15.888C80.8734 17.2747 81.4548 17.968 82.6174 17.968C83.2148 17.968 83.6948 17.776 84.0574 17.392C84.4201 16.9973 84.6014 16.416 84.6014 15.648V11.392H87.0974ZM92.8818 11.264C94.2151 11.264 95.2391 11.584 95.9538 12.224C96.6685 12.8533 97.0258 13.808 97.0258 15.088V20H94.6898V18.928C94.2205 19.728 93.3458 20.128 92.0658 20.128C91.4045 20.128 90.8285 20.016 90.3378 19.792C89.8578 19.568 89.4898 19.2587 89.2338 18.864C88.9778 18.4693 88.8498 18.0213 88.8498 17.52C88.8498 16.72 89.1485 16.0907 89.7458 15.632C90.3538 15.1733 91.2871 14.944 92.5458 14.944H94.5298C94.5298 14.4 94.3645 13.984 94.0338 13.696C93.7031 13.3973 93.2071 13.248 92.5458 13.248C92.0871 13.248 91.6338 13.3227 91.1858 13.472C90.7485 13.6107 90.3751 13.8027 90.0658 14.048L89.1698 12.304C89.6391 11.9733 90.1991 11.7173 90.8498 11.536C91.5111 11.3547 92.1885 11.264 92.8818 11.264ZM92.6898 18.448C93.1165 18.448 93.4951 18.352 93.8258 18.16C94.1565 17.9573 94.3911 17.664 94.5298 17.28V16.4H92.8178C91.7938 16.4 91.2818 16.736 91.2818 17.408C91.2818 17.728 91.4045 17.984 91.6498 18.176C91.9058 18.3573 92.2525 18.448 92.6898 18.448ZM101.669 12.528C101.967 12.112 102.367 11.7973 102.869 11.584C103.381 11.3707 103.967 11.264 104.629 11.264V13.568C104.351 13.5467 104.165 13.536 104.069 13.536C103.354 13.536 102.794 13.7387 102.389 14.144C101.983 14.5387 101.781 15.136 101.781 15.936V20H99.2848V11.392H101.669V12.528ZM114.467 15.728C114.467 15.76 114.451 15.984 114.419 16.4H107.907C108.024 16.9333 108.301 17.3547 108.739 17.664C109.176 17.9733 109.72 18.128 110.371 18.128C110.819 18.128 111.213 18.064 111.555 17.936C111.907 17.7973 112.232 17.584 112.531 17.296L113.859 18.736C113.048 19.664 111.864 20.128 110.307 20.128C109.336 20.128 108.477 19.9413 107.731 19.568C106.984 19.184 106.408 18.656 106.003 17.984C105.597 17.312 105.395 16.5493 105.395 15.696C105.395 14.8533 105.592 14.096 105.987 13.424C106.392 12.7413 106.941 12.2133 107.635 11.84C108.339 11.456 109.123 11.264 109.987 11.264C110.829 11.264 111.592 11.4453 112.275 11.808C112.957 12.1707 113.491 12.6933 113.875 13.376C114.269 14.048 114.467 14.832 114.467 15.728ZM110.003 13.152C109.437 13.152 108.963 13.312 108.579 13.632C108.195 13.952 107.96 14.3893 107.875 14.944H112.115C112.029 14.4 111.795 13.968 111.411 13.648C111.027 13.3173 110.557 13.152 110.003 13.152Z" fill="white"/>
<path d="M40.6811 41H11V90H40.6811V41Z" fill="#065F2C"/>
<path d="M38.5833 44.6162H14.5964V86.6461H38.5833V44.6162Z" fill="#ADADAD"/>
<path d="M38.2282 44.9795H14.9739V86.2837H38.2282V44.9795Z" fill="#F5F5F5"/>
<path d="M36.7517 46.4424H16.45V84.8222H36.7517V46.4424Z" fill="#E3F7FB"/>
<path d="M32.7779 46.4424L16.45 62.4825V65.7697L36.0968 46.4424H32.7779Z" fill="#B9EBF5"/>
<path d="M16.45 75.4876V84.8214H36.7406V55.3906L16.45 75.4876Z" fill="#B9EBF5"/>
<path d="M27.9384 46.4424H16.45V57.6892L27.9384 46.4424Z" fill="#B9EBF5"/>
<path d="M16.45 46.4424V84.8222H36.7517V46.4424H16.45ZM36.008 84.0966H17.1825V47.179H36.008V84.0966Z" fill="#51CEE5"/>
<path d="M38.0282 65.1759H37.0958C36.9737 65.1759 36.8738 65.077 36.8738 64.956V63.8127C36.8738 63.6917 36.9737 63.5928 37.0958 63.5928H38.0282C38.1503 63.5928 38.2502 63.6917 38.2502 63.8127V64.956C38.2502 65.0879 38.1503 65.1759 38.0282 65.1759Z" fill="#BDBDBD"/>
<path d="M33.8213 67.5615L33.3773 66.9678C33.344 66.9239 33.3551 66.8689 33.3995 66.8359L37.351 63.9225C37.3954 63.8895 37.4509 63.9005 37.4842 63.9445L37.9282 64.5382C37.9615 64.5821 37.9504 64.6371 37.906 64.6701L33.9545 67.5835C33.9101 67.6055 33.8546 67.6055 33.8213 67.5615Z" fill="#CECECE"/>
<path d="M65.9998 41H40.4812V90H65.9998V41Z" fill="#065F2C"/>
<path d="M62.2037 44.6162H38.2168V86.6461H62.2037V44.6162Z" fill="#ADADAD"/>
<path d="M61.8375 44.9795H38.5833V86.2837H61.8375V44.9795Z" fill="#F5F5F5"/>
<path d="M60.3615 46.4424H40.0598V84.8222H60.3615V46.4424Z" fill="#E3F7FB"/>
<path d="M56.3767 46.4424L40.0598 62.4825V65.7697L59.6955 46.4424H56.3767Z" fill="#B9EBF5"/>
<path d="M40.0598 75.4876V84.8214H60.3615V55.3906L40.0598 75.4876Z" fill="#B9EBF5"/>
<path d="M51.5371 46.4424H40.0598V57.6892L51.5371 46.4424Z" fill="#B9EBF5"/>
<path d="M40.0598 46.4424V84.8222H60.3615V46.4424H40.0598ZM40.8035 47.179H59.6289V84.0966H40.8035V47.179Z" fill="#51CEE5"/>
<path d="M38.9827 65.1759H39.9151C40.0372 65.1759 40.1371 65.077 40.1371 64.956V63.8127C40.1371 63.6917 40.0372 63.5928 39.9151 63.5928H38.9827C38.8606 63.5928 38.7607 63.6917 38.7607 63.8127V64.956C38.7607 65.0879 38.8606 65.1759 38.9827 65.1759Z" fill="#BDBDBD"/>
<path d="M43.1896 67.5615L43.6335 66.9678C43.6668 66.9239 43.6557 66.8689 43.6113 66.8359L39.6598 63.9225C39.6154 63.8895 39.5599 63.9005 39.5266 63.9445L39.0826 64.5382C39.0493 64.5821 39.0604 64.6371 39.1048 64.6701L43.0564 67.5835C43.1008 67.6055 43.1563 67.6055 43.1896 67.5615Z" fill="#CECECE"/>
<g clip-path="url(#clip0_6050_131000)">
<g clip-path="url(#clip1_6050_131000)">
<path d="M132.6 37H75V94.6H132.6V37Z" fill="#5B5B5C"/>
<path d="M130 39.5996H77.6001V91.9996H130V39.5996Z" fill="white"/>
<path d="M127.5 42H80V89.5H127.5V42Z" fill="#CCF4FA"/>
<rect x="80" y="73" width="47" height="16" fill="#56AD5F"/>
<circle cx="88.5" cy="50.5" r="4.5" fill="#FFC700"/>
</g>
</g>
<defs>
<clipPath id="clip0_6050_131000">
<rect width="55" height="55" fill="white" transform="translate(76 38)"/>
</clipPath>
<clipPath id="clip1_6050_131000">
<rect width="57.6" height="57.6" fill="white" transform="translate(75 37)"/>
</clipPath>
</defs>
</svg>
