<svg width="170" height="168" viewBox="0 0 170 168" fill="none" xmlns="http://www.w3.org/2000/svg">
<rect x="0.5" y="0.5" width="169" height="167" rx="4.5" stroke="#D0D0D0"/>
<path d="M0 5C0 2.23858 2.23858 0 5 0H165C167.761 0 170 2.23858 170 5V28H0V5Z" fill="#205B64"/>
<path d="M50.6984 20L48.5384 16.88H48.4104H46.1544V20H43.5624V8.8H48.4104C49.4024 8.8 50.261 8.96533 50.9864 9.296C51.7224 9.62667 52.2877 10.096 52.6824 10.704C53.077 11.312 53.2744 12.032 53.2744 12.864C53.2744 13.696 53.0717 14.416 52.6664 15.024C52.2717 15.6213 51.7064 16.08 50.9704 16.4L53.4824 20H50.6984ZM50.6504 12.864C50.6504 12.2347 50.4477 11.7547 50.0424 11.424C49.637 11.0827 49.045 10.912 48.2664 10.912H46.1544V14.816H48.2664C49.045 14.816 49.637 14.6453 50.0424 14.304C50.4477 13.9627 50.6504 13.4827 50.6504 12.864ZM63.584 15.728C63.584 15.76 63.568 15.984 63.536 16.4H57.024C57.1413 16.9333 57.4187 17.3547 57.856 17.664C58.2933 17.9733 58.8373 18.128 59.488 18.128C59.936 18.128 60.3307 18.064 60.672 17.936C61.024 17.7973 61.3493 17.584 61.648 17.296L62.976 18.736C62.1653 19.664 60.9813 20.128 59.424 20.128C58.4533 20.128 57.5947 19.9413 56.848 19.568C56.1013 19.184 55.5253 18.656 55.12 17.984C54.7147 17.312 54.512 16.5493 54.512 15.696C54.512 14.8533 54.7093 14.096 55.104 13.424C55.5093 12.7413 56.0587 12.2133 56.752 11.84C57.456 11.456 58.24 11.264 59.104 11.264C59.9467 11.264 60.7093 11.4453 61.392 11.808C62.0747 12.1707 62.608 12.6933 62.992 13.376C63.3867 14.048 63.584 14.832 63.584 15.728ZM59.12 13.152C58.5547 13.152 58.08 13.312 57.696 13.632C57.312 13.952 57.0773 14.3893 56.992 14.944H61.232C61.1467 14.4 60.912 13.968 60.528 13.648C60.144 13.3173 59.6747 13.152 59.12 13.152ZM69.4058 20.128C68.4884 20.128 67.6618 19.9413 66.9258 19.568C66.2004 19.184 65.6298 18.656 65.2138 17.984C64.8084 17.312 64.6058 16.5493 64.6058 15.696C64.6058 14.8427 64.8084 14.08 65.2138 13.408C65.6298 12.736 66.2004 12.2133 66.9258 11.84C67.6618 11.456 68.4884 11.264 69.4058 11.264C70.3124 11.264 71.1018 11.456 71.7738 11.84C72.4564 12.2133 72.9524 12.752 73.2618 13.456L71.3258 14.496C70.8778 13.7067 70.2324 13.312 69.3898 13.312C68.7391 13.312 68.2004 13.5253 67.7738 13.952C67.3471 14.3787 67.1338 14.96 67.1338 15.696C67.1338 16.432 67.3471 17.0133 67.7738 17.44C68.2004 17.8667 68.7391 18.08 69.3898 18.08C70.2431 18.08 70.8884 17.6853 71.3258 16.896L73.2618 17.952C72.9524 18.6347 72.4564 19.168 71.7738 19.552C71.1018 19.936 70.3124 20.128 69.4058 20.128ZM80.3759 19.584C80.1305 19.7653 79.8265 19.904 79.4639 20C79.1119 20.0853 78.7385 20.128 78.3439 20.128C77.3199 20.128 76.5252 19.8667 75.9599 19.344C75.4052 18.8213 75.1279 18.0533 75.1279 17.04V13.504H73.7999V11.584H75.1279V9.488H77.6239V11.584H79.7679V13.504H77.6239V17.008C77.6239 17.3707 77.7145 17.6533 77.8959 17.856C78.0879 18.048 78.3545 18.144 78.6959 18.144C79.0905 18.144 79.4265 18.0373 79.7039 17.824L80.3759 19.584ZM85.249 11.264C86.5823 11.264 87.6063 11.584 88.321 12.224C89.0357 12.8533 89.393 13.808 89.393 15.088V20H87.057V18.928C86.5877 19.728 85.713 20.128 84.433 20.128C83.7717 20.128 83.1957 20.016 82.705 19.792C82.225 19.568 81.857 19.2587 81.601 18.864C81.345 18.4693 81.217 18.0213 81.217 17.52C81.217 16.72 81.5157 16.0907 82.113 15.632C82.721 15.1733 83.6543 14.944 84.913 14.944H86.897C86.897 14.4 86.7317 13.984 86.401 13.696C86.0703 13.3973 85.5743 13.248 84.913 13.248C84.4543 13.248 84.001 13.3227 83.553 13.472C83.1157 13.6107 82.7423 13.8027 82.433 14.048L81.537 12.304C82.0063 11.9733 82.5663 11.7173 83.217 11.536C83.8783 11.3547 84.5557 11.264 85.249 11.264ZM85.057 18.448C85.4837 18.448 85.8623 18.352 86.193 18.16C86.5237 17.9573 86.7583 17.664 86.897 17.28V16.4H85.185C84.161 16.4 83.649 16.736 83.649 17.408C83.649 17.728 83.7717 17.984 84.017 18.176C84.273 18.3573 84.6197 18.448 85.057 18.448ZM96.884 11.264C97.9507 11.264 98.8093 11.584 99.46 12.224C100.121 12.864 100.452 13.8133 100.452 15.072V20H97.956V15.456C97.956 14.7733 97.8067 14.2667 97.508 13.936C97.2093 13.5947 96.7773 13.424 96.212 13.424C95.5827 13.424 95.0813 13.6213 94.708 14.016C94.3347 14.4 94.148 14.976 94.148 15.744V20H91.652V11.392H94.036V12.4C94.3667 12.0373 94.7773 11.76 95.268 11.568C95.7587 11.3653 96.2973 11.264 96.884 11.264ZM111.688 11.392V18.56C111.688 20.1387 111.278 21.312 110.456 22.08C109.635 22.848 108.435 23.232 106.856 23.232C106.024 23.232 105.235 23.1307 104.488 22.928C103.742 22.7253 103.123 22.432 102.632 22.048L103.624 20.256C103.987 20.5547 104.446 20.7893 105 20.96C105.555 21.1413 106.11 21.232 106.664 21.232C107.528 21.232 108.163 21.0347 108.568 20.64C108.984 20.256 109.192 19.6693 109.192 18.88V18.512C108.542 19.2267 107.635 19.584 106.472 19.584C105.683 19.584 104.958 19.4133 104.296 19.072C103.646 18.72 103.128 18.2293 102.744 17.6C102.36 16.9707 102.168 16.2453 102.168 15.424C102.168 14.6027 102.36 13.8773 102.744 13.248C103.128 12.6187 103.646 12.1333 104.296 11.792C104.958 11.44 105.683 11.264 106.472 11.264C107.72 11.264 108.67 11.6747 109.32 12.496V11.392H111.688ZM106.968 17.536C107.63 17.536 108.168 17.344 108.584 16.96C109.011 16.5653 109.224 16.0533 109.224 15.424C109.224 14.7947 109.011 14.288 108.584 13.904C108.168 13.5093 107.63 13.312 106.968 13.312C106.307 13.312 105.763 13.5093 105.336 13.904C104.91 14.288 104.696 14.7947 104.696 15.424C104.696 16.0533 104.91 16.5653 105.336 16.96C105.763 17.344 106.307 17.536 106.968 17.536ZM114.011 8.128H116.507V20H114.011V8.128ZM127.256 15.728C127.256 15.76 127.24 15.984 127.208 16.4H120.696C120.813 16.9333 121.091 17.3547 121.528 17.664C121.965 17.9733 122.509 18.128 123.16 18.128C123.608 18.128 124.003 18.064 124.344 17.936C124.696 17.7973 125.021 17.584 125.32 17.296L126.648 18.736C125.837 19.664 124.653 20.128 123.096 20.128C122.125 20.128 121.267 19.9413 120.52 19.568C119.773 19.184 119.197 18.656 118.792 17.984C118.387 17.312 118.184 16.5493 118.184 15.696C118.184 14.8533 118.381 14.096 118.776 13.424C119.181 12.7413 119.731 12.2133 120.424 11.84C121.128 11.456 121.912 11.264 122.776 11.264C123.619 11.264 124.381 11.4453 125.064 11.808C125.747 12.1707 126.28 12.6933 126.664 13.376C127.059 14.048 127.256 14.832 127.256 15.728ZM122.792 13.152C122.227 13.152 121.752 13.312 121.368 13.632C120.984 13.952 120.749 14.3893 120.664 14.944H124.904C124.819 14.4 124.584 13.968 124.2 13.648C123.816 13.3173 123.347 13.152 122.792 13.152Z" fill="white"/>
<g clip-path="url(#clip0_6050_131073)">
<path d="M66 46H12V79.8981H66V46Z" fill="white"/>
<path d="M65.7407 46.2295H12.1621V79.9307H32.2906C34.3326 80.4886 36.6015 80.8167 38.9676 80.8167C41.3338 80.8167 43.5703 80.4886 45.6123 79.9307H65.7407V46.2295Z" fill="#434244"/>
<path d="M41.1068 80.6855H36.7959V82.556H41.1068V80.6855Z" fill="#434244"/>
<path d="M57.151 83.8689C57.2482 83.9345 57.2482 84.0002 57.1186 84.0002H20.8161C20.6864 84.0002 20.6864 83.9345 20.7837 83.9017L24.2843 81.9656C24.3815 81.9 24.576 81.8672 24.7056 81.8672H53.7801C53.9097 81.8672 54.0718 81.9328 54.2014 81.9984L57.151 83.8689Z" fill="#434244"/>
<path d="M63.7634 47.8379H14.1392V76.3543H63.7634V47.8379Z" fill="#C5F3FA"/>
<path d="M63.7634 76.3867H14.1392V76.6821H63.7634V76.3867Z" fill="white"/>
<path d="M40.0373 78.388C40.0373 78.5849 39.8753 78.7162 39.7132 78.7162H38.287C38.0925 78.7162 37.9629 78.5521 37.9629 78.388C37.9629 78.1911 38.125 78.0599 38.287 78.0599H39.7132C39.9077 78.0271 40.0373 78.1911 40.0373 78.388Z" fill="white"/>
<path d="M14.4311 78.7169C14.6101 78.7169 14.7552 78.5699 14.7552 78.3887C14.7552 78.2075 14.6101 78.0605 14.4311 78.0605C14.2521 78.0605 14.1069 78.2075 14.1069 78.3887C14.1069 78.5699 14.2521 78.7169 14.4311 78.7169Z" fill="#B84936"/>
<path d="M33.0566 66.3536C32.7228 65.7695 32.1387 65.2688 31.638 64.8516C31.0539 64.4343 30.3863 63.9336 29.7187 63.6833C29.0511 63.4329 28.3001 63.5164 27.6325 63.7667C27.0483 63.9336 26.5477 64.3509 26.2973 64.935C26.047 65.6026 26.047 66.1867 26.5477 66.6874C27.0483 67.1047 27.7159 67.4385 28.3001 67.5219C28.467 67.5219 28.9677 67.6053 29.1345 67.4384C29.3014 67.2716 29.218 66.6874 29.218 66.5205C29.0511 65.9364 28.467 65.4357 27.9663 65.9364C27.4656 66.4371 26.7146 65.5191 27.2152 65.0185C27.7994 64.4343 28.7173 64.4343 29.3849 64.8516C30.0525 65.2688 30.3863 66.1033 30.3863 66.9378C30.3863 67.7722 30.1359 68.5233 29.3014 68.6902C28.5504 68.9405 27.6325 68.7736 26.9649 68.4398C26.2973 68.106 25.6297 67.6053 25.2125 66.9378C24.8787 66.1867 24.9621 65.2688 25.2959 64.5178C25.9635 62.9323 27.6325 62.3481 29.218 62.4316C30.2194 62.515 31.1373 63.0992 31.8883 63.5998C32.6394 64.184 33.4738 64.7681 33.9745 65.6026C34.3083 66.2702 33.3904 67.0212 33.0566 66.3536Z" fill="#369CB7"/>
<path d="M47.3261 59.761C47.493 61.0961 46.9088 62.2644 46.0744 62.3479C45.2399 62.4313 44.4054 61.3465 44.2385 60.0113C44.0716 58.6762 44.6557 57.5079 45.4902 57.4244C46.3247 57.341 47.1592 58.4258 47.3261 59.761Z" fill="#369CB7"/>
<path d="M31.3042 61.0128C31.3042 65.1018 34.7256 67.8555 38.8145 67.8555C42.9035 67.8555 46.1579 65.6859 46.2414 61.0128C46.3248 56.9239 42.9035 53.5859 38.8145 53.5859C34.6421 53.5859 31.3042 56.8404 31.3042 61.0128Z" fill="#369CB7"/>
<path d="M40.817 54.0028C40.817 53.669 38.6474 53.5855 38.0632 52.3338C37.9798 52.1669 37.9798 52 37.9798 52C37.7294 52.0834 37.3122 52.2503 36.895 52.6676C36.4777 53.0848 36.3943 53.5021 36.3108 53.669C36.2274 53.669 35.977 53.5021 35.8101 53.3352C35.6432 53.0848 35.6432 52.751 35.6432 52.6676C35.4763 52.8345 35.226 53.0014 35.0591 53.3352C34.475 54.2531 34.7253 55.171 34.8088 55.4214C39.7322 54.6703 40.817 54.2531 40.817 54.0028Z" fill="#369CB7"/>
<path d="M35.3933 64.3503C35.8105 66.2696 38.3139 67.3544 40.9008 66.6868C43.5712 66.1027 45.407 64.0165 44.9898 62.1806C44.5725 60.2613 42.0691 59.1765 39.3988 59.8441C36.8119 60.4282 35.0595 62.431 35.3933 64.3503Z" fill="#C5F3FA"/>
<path d="M34.5589 60.8457C34.8927 62.5147 36.3948 63.5995 37.8969 63.1822C39.3989 62.765 40.4003 61.096 40.0665 59.4271C39.7327 57.7581 38.2306 56.6733 36.7286 57.0905C35.1431 57.4243 34.2251 59.0933 34.5589 60.8457Z" fill="#C5F3FA"/>
<path d="M43.9045 58.3423C44.2383 60.0947 43.3204 61.7637 41.9852 62.0975C40.5666 62.4313 39.148 61.3464 38.8976 59.6775C38.4804 57.9251 39.3983 56.2561 40.8169 55.9223C42.1521 55.5051 43.5707 56.5899 43.9045 58.3423Z" fill="#C5F3FA"/>
<path d="M32.4724 64.8511C31.9717 64.9346 31.471 64.6842 31.0538 64.1835C30.6365 63.6828 30.2193 62.9318 30.0524 62.0973C29.8855 61.2628 29.969 60.4284 30.1358 59.7608C30.3862 59.0932 30.8034 58.676 31.3041 58.5925C31.8048 58.4256 32.3055 58.676 32.7227 59.1766C33.14 59.6773 33.5572 60.4284 33.7241 61.2628C33.891 62.0973 33.8076 62.9318 33.6407 63.5994C33.3069 64.3504 32.9731 64.7677 32.4724 64.8511Z" fill="#369CB7"/>
<path d="M33.3069 63.5995C33.0566 64.1837 32.7228 64.5175 32.389 64.6009L32.4724 65.1016C33.14 64.9347 33.5573 64.434 33.8076 63.7664L33.3069 63.5995ZM33.3904 61.4299C33.5573 62.2644 33.4738 63.0154 33.3069 63.5995L33.8911 63.7664C34.1414 63.0989 34.2249 62.1809 34.058 61.263L33.3904 61.4299ZM32.4724 59.4271C32.8897 59.8444 33.2235 60.5954 33.3904 61.4299L33.9745 61.3464C33.8076 60.4285 33.3904 59.594 32.9731 59.0934L32.4724 59.4271ZM31.3042 58.843C31.638 58.7596 32.1387 58.9265 32.4724 59.4271L32.8897 59.0099C32.4724 58.5092 31.8883 58.1754 31.2207 58.2589L31.3042 58.843ZM30.4697 59.8444C30.6366 59.2602 30.9704 58.9265 31.3042 58.843L31.2207 58.2589C30.5531 58.4258 30.1359 58.9265 29.8856 59.594L30.4697 59.8444ZM30.3028 62.014C30.1359 61.1796 30.2194 60.4285 30.3862 59.8444L29.8856 59.594C29.6352 60.2616 29.5518 61.1796 29.7187 62.0975L30.3028 62.014ZM31.2207 64.0168C30.8035 63.5995 30.4697 62.8485 30.3028 62.014L29.7187 62.0975C29.8856 63.0154 30.3028 63.8499 30.72 64.3506L31.2207 64.0168ZM32.389 64.6009C32.0552 64.6844 31.638 64.5175 31.2207 64.0168L30.8035 64.3506C31.3042 64.9347 31.8883 65.2685 32.5559 65.1016L32.389 64.6009ZM33.5573 63.683L33.8076 63.7664L33.5573 63.683ZM33.7242 61.3464L33.4738 61.4299L33.7242 61.3464ZM32.7228 59.1768L32.9731 59.0099L32.7228 59.1768ZM31.3042 58.5927L31.2207 58.2589L31.3042 58.5927ZM30.1359 59.7609L29.8856 59.594L30.1359 59.7609ZM30.0525 62.0975L30.3028 62.014L30.0525 62.0975ZM30.9704 64.1837L30.8035 64.3506L30.9704 64.1837ZM32.4724 64.8513L32.389 64.6009L32.4724 64.8513Z" fill="#C5F3FA"/>
<path d="M31.388 62.0133C32.3893 64.0995 32.5562 65.685 33.3073 65.5181C34.0583 65.3512 34.2252 63.0981 33.9749 61.2622C33.7245 59.5098 32.2225 58.2581 31.9721 58.5085C31.6383 58.5919 31.1376 60.2609 31.388 62.0133Z" fill="#369CB7"/>
<path d="M42.6533 64.3504C42.5699 64.4338 41.5685 65.6021 39.8161 65.6021C38.5644 65.6021 37.3961 64.9345 36.7285 64.0166C36.9789 64.1835 38.0637 65.1014 39.7326 65.1849C41.3182 65.1849 42.3195 64.5173 42.6533 64.3504Z" fill="#369CB7"/>
<path d="M39.4819 63.0155C39.5654 63.0155 39.8992 63.099 40.3164 63.099C40.7337 63.0155 40.984 62.9321 41.0674 62.8486C40.8171 62.8486 40.5668 62.9321 40.3164 62.9321C39.9826 63.0155 39.6488 63.0155 39.4819 63.0155Z" fill="#369CB7"/>
<path d="M46.1575 61.2637C46.241 61.2637 46.3244 61.2637 46.3244 61.3471L46.6582 67.9395C46.6582 68.023 46.6582 68.023 46.5748 68.1064L40.7334 71.0271H40.65L34.3914 68.9409C34.3079 68.9409 34.3079 68.8574 34.3079 68.8574L33.9741 62.265C33.9741 62.1816 33.9741 62.1816 34.0576 62.1816H34.141L40.3162 64.3512C40.3996 64.3512 40.3996 64.3512 40.4831 64.3512L46.1575 61.2637Z" fill="#369CB7"/>
<path d="M40.6503 64.517L46.3247 61.5963L45.9909 60.9287L40.3165 63.8494L40.6503 64.517ZM40.233 64.517C40.3999 64.6004 40.4834 64.517 40.6503 64.517L40.3165 63.9328H40.3999L40.233 64.517ZM40.3999 64.517V63.8494V64.517ZM34.0579 62.3473L40.233 64.517L40.4834 63.8494L34.3082 61.7632L34.0579 62.3473ZM34.1413 62.4308V61.7632V62.4308ZM34.3082 62.3473L34.2248 62.4308C34.1413 62.4308 34.1413 62.4308 34.0579 62.4308L34.3082 61.7632C34.1413 61.6797 33.9744 61.7632 33.891 61.8466L34.3082 62.3473ZM34.3082 62.1804C34.3082 62.2639 34.3082 62.2639 34.2248 62.3473L33.8075 61.8466C33.7241 61.9301 33.6406 62.097 33.6406 62.2639L34.3082 62.1804ZM34.7254 68.7728L34.3917 62.1804H33.7241L34.0579 68.7728H34.7254ZM34.5586 68.5225C34.642 68.5225 34.7254 68.6894 34.7254 68.6894L34.0579 68.7728C34.0579 68.9397 34.1413 69.1066 34.3917 69.1901L34.5586 68.5225ZM34.4751 68.5225V69.1901V68.5225ZM40.8172 70.6921L34.5586 68.6059L34.3082 69.2735L40.5668 71.3597L40.8172 70.6921ZM40.6503 70.6087V71.2763V70.6087ZM40.5668 70.6921C40.6503 70.6921 40.7337 70.6921 40.7337 70.6921L40.4834 71.2763C40.5668 71.3597 40.7337 71.2763 40.8172 71.2763L40.5668 70.6921ZM40.4834 70.7756L40.984 71.2763L40.4834 70.7756ZM46.4916 67.7714L40.6503 70.6921L40.984 71.2763L46.8254 68.3556L46.4916 67.7714ZM46.3247 67.9383C46.3247 67.8549 46.3247 67.7714 46.4082 67.7714L46.6585 68.3556C46.8254 68.2721 46.9089 68.1052 46.9089 67.9383H46.3247ZM45.9909 61.4294L46.3247 68.0218H46.9923L46.6585 61.346L45.9909 61.4294ZM46.3247 61.5963C46.2413 61.6797 46.1578 61.5963 46.0744 61.5963C45.9909 61.5963 45.9909 61.5128 45.9909 61.4294H46.6585C46.6585 61.0956 46.3247 60.8453 45.9909 61.0122L46.3247 61.5963ZM40.4834 64.1832L40.3165 63.8494L40.4834 64.1832ZM40.3999 64.1832L40.4834 63.8494H40.3999H40.3165V64.1832H40.3999ZM40.3999 64.1832L40.3165 64.517H40.3999H40.4834V64.1832H40.3999ZM34.1413 62.097L34.2248 61.7632H34.1413V62.097ZM34.1413 62.097L34.0579 62.4308H34.1413V62.097ZM34.0579 62.097L34.3082 62.3473L34.0579 62.097ZM33.9744 62.1804H34.3082H33.9744ZM34.3917 68.7728H34.0579H34.3917ZM34.4751 68.8563L34.3917 69.1901H34.4751H34.5586V68.8563H34.4751ZM34.4751 68.8563L34.5586 68.5225H34.4751H34.3917V68.8563H34.4751ZM40.6503 70.9425L40.5668 71.2763H40.6503H40.7337V70.9425H40.6503ZM40.6503 70.9425L40.7337 70.6087H40.6503H40.5668V70.9425H40.6503ZM40.7337 70.9425L40.9006 71.2763H40.984L40.7337 70.9425ZM40.7337 70.9425L40.5668 70.6087H40.4834L40.7337 70.9425ZM46.5751 68.1052L46.4082 67.7714L46.5751 68.1052ZM46.6585 67.9383H46.9923H46.6585ZM46.3247 61.346H46.6585H46.3247ZM46.1578 61.2625L46.3247 61.5963L46.1578 61.2625Z" fill="#C5F3FA"/>
<path d="M40.6502 70.7763L40.3164 64.768L40.8171 64.6846L41.0674 70.5259L40.6502 70.7763Z" fill="#C5F3FA"/>
<path d="M34.809 61.6806L34.7256 62.0144V61.9309V61.6806V61.5137L39.2318 63.2661L34.809 61.6806Z" fill="#369CB7"/>
<path d="M34.642 61.6809L34.9758 61.7644L34.642 61.6809ZM34.8924 61.514L34.7255 61.8478L34.8924 61.514ZM39.3151 63.0995L34.8924 61.514L34.8089 61.8478L39.1482 63.4333L39.3151 63.0995ZM34.642 61.5975L39.1482 63.4333L39.2317 63.0995L34.7255 61.2637L34.642 61.5975ZM34.8924 61.6809V61.4306H34.5586V61.6809H34.8924ZM34.8924 61.9313V61.6809L34.5586 61.7644V62.0147L34.8924 61.9313ZM34.8924 61.8478L34.642 62.0982L34.8924 61.8478ZM34.642 61.6809V61.9313H34.9758V61.6809H34.642ZM34.8089 61.6809L34.8924 61.514L34.7255 61.4306V61.6809H34.8089ZM34.8089 61.6809L34.7255 61.8478L34.8089 61.6809ZM39.2317 63.2664L39.1482 63.4333L39.2317 63.0995V63.2664ZM34.7255 61.514L34.8089 61.3471L34.5586 61.2637V61.514H34.7255ZM34.7255 61.6809H34.5586H34.7255ZM34.7255 61.9313H34.5586V62.0147L34.7255 61.9313ZM34.7255 62.0147L34.642 62.0982L34.8924 62.3485V62.0147H34.7255ZM34.8089 61.6809H34.642H34.8089Z" fill="#C5F3FA"/>
<path d="M46.2414 61.4293L46.0745 60.7617L41.4849 63.7658L46.0745 61.179V61.0955V61.179L46.2414 61.4293Z" fill="#369CB7"/>
<path d="M46.4082 61.4296H46.0744H46.4082ZM46.2413 61.5965V61.2628V61.5965ZM45.9075 61.2628L46.0744 61.5131L46.3247 61.3462L46.1579 61.0959L45.9075 61.2628ZM45.9075 61.1793L46.2413 61.0124L45.9075 61.1793ZM46.1579 61.2628L45.991 60.929L46.1579 61.2628ZM41.5682 63.8496L46.1579 61.2628L45.991 61.0124L41.4013 63.5993L41.5682 63.8496ZM45.9075 60.6786L41.3179 63.5993L41.4848 63.8496L46.0744 60.929L45.9075 60.6786ZM46.4082 61.3462L46.2413 60.7621L45.9075 60.8455L46.0744 61.4296L46.4082 61.3462ZM46.2413 61.4296V61.5965H46.4082V61.4296H46.2413ZM46.2413 61.4296L46.0744 61.5131L46.1579 61.5965H46.2413V61.4296ZM46.0744 61.1793L45.9075 61.2628L46.0744 61.1793ZM46.0744 61.0959L46.2413 61.0124L46.1579 60.929L45.991 61.0124L46.0744 61.0959ZM46.0744 61.1793L45.991 61.0124L46.0744 61.1793ZM41.4848 63.7662L41.4013 63.5993L41.5682 63.8496L41.4848 63.7662ZM46.0744 60.7621L46.2413 60.6786L46.1579 60.5117L45.991 60.5952L46.0744 60.7621ZM46.2413 61.4296H46.4082H46.2413Z" fill="#C5F3FA"/>
<path d="M34.7428 68.4379C35.6183 68.4217 36.3197 67.9604 36.3095 67.4074C36.2993 66.8545 35.5813 66.4194 34.7058 66.4355C33.8303 66.4517 33.1289 66.9131 33.1391 67.466C33.1493 68.019 33.8673 68.4541 34.7428 68.4379Z" fill="#369CB7"/>
<path d="M34.7352 68.0206C35.2421 68.0114 35.6483 67.7425 35.6424 67.42C35.6366 67.0974 35.221 66.8434 34.7141 66.8526C34.2073 66.8617 33.8011 67.1306 33.8069 67.4532C33.8128 67.7757 34.2284 68.0298 34.7352 68.0206Z" fill="#C5F3FA"/>
<path d="M36.311 66.4367C36.311 67.1043 35.56 67.605 34.6421 67.605C33.7241 67.605 32.9731 67.1043 32.8896 66.5201C32.8896 65.936 33.6407 65.3519 34.5586 65.3519C35.4765 65.2684 36.2276 65.7691 36.311 66.4367Z" fill="#369CB7"/>
<path d="M35.56 66.1861C35.56 66.5199 35.1427 66.8537 34.642 66.8537C34.1414 66.8537 33.7241 66.6034 33.7241 66.1861C33.7241 65.8523 34.1414 65.5186 34.642 65.5186C35.1427 65.5186 35.56 65.8523 35.56 66.1861Z" fill="#C5F3FA"/>
<path d="M36.0607 65.2685C36.0607 65.7692 35.3931 66.1864 34.4752 66.1864C33.6407 66.1864 32.8896 65.7692 32.8896 65.2685V65.1851C32.9731 64.6844 33.6407 64.3506 34.4752 64.3506C35.3096 64.434 36.0607 64.7678 36.0607 65.2685Z" fill="#369CB7"/>
<path d="M35.393 65.2691C35.393 65.6029 34.9757 65.9367 34.4751 65.9367C34.1413 65.9367 33.6406 65.6864 33.5571 65.3526V65.2691C33.5571 64.9354 34.0578 64.6016 34.4751 64.6016C34.9757 64.6016 35.393 64.9354 35.393 65.2691Z" fill="#C5F3FA"/>
<path d="M33.9744 63.7666C33.8075 63.85 33.3068 64.0169 33.0565 64.5176C32.8896 64.8514 32.8062 65.1852 32.8062 65.3521C33.1399 65.1018 33.5572 64.8514 33.891 64.5176C33.9744 64.2673 34.0579 64.0169 33.9744 63.7666Z" fill="#369CB7"/>
<path d="M33.9743 64.934C33.8074 65.1009 33.724 65.3512 33.5571 65.5181C33.5571 65.4347 33.3902 65.0174 33.5571 64.5168C33.6405 64.0995 33.8909 63.9326 33.9743 63.9326C33.8074 64.2664 33.724 64.6836 33.8074 64.8505C33.8909 64.934 33.9743 64.934 33.9743 64.934Z" fill="#C5F3FA"/>
<path d="M44.906 66.0193C44.906 66.6034 45.657 67.0207 46.408 66.9372C47.2425 66.8538 47.8267 66.3531 47.8267 65.8524C47.8267 65.2683 47.0756 64.851 46.3246 64.9345C45.4901 64.9345 44.8225 65.4351 44.906 66.0193Z" fill="#369CB7"/>
<path d="M46.3898 65.3521C45.884 65.3866 45.4918 65.6755 45.5138 65.9974C45.5358 66.3193 45.9636 66.5522 46.4694 66.5176C46.9752 66.4831 47.3674 66.1942 47.3454 65.8723C47.3235 65.5504 46.8956 65.3175 46.3898 65.3521Z" fill="#C5F3FA"/>
<path d="M44.6558 65.0177C44.6558 65.6018 45.4902 66.1025 46.4082 66.0191C47.3261 65.9356 48.0771 65.3515 47.9937 64.7673C47.9937 64.1832 47.1592 63.6825 46.2413 63.766C45.3233 63.8494 44.5723 64.3501 44.6558 65.0177Z" fill="#369CB7"/>
<path d="M46.1774 63.9468C45.5336 63.9898 45.0316 64.3229 45.0562 64.6908C45.0808 65.0587 45.6226 65.3221 46.2664 65.2791C46.9102 65.236 47.4122 64.9029 47.3876 64.5351C47.363 64.1672 46.8212 63.9038 46.1774 63.9468Z" fill="#C5F3FA"/>
<path d="M44.906 63.85C44.906 64.3507 45.657 64.6845 46.408 64.6845C47.2425 64.601 47.8267 64.1838 47.8267 63.6831V63.5997C47.7432 63.099 47.0756 62.8486 46.3246 62.8486C45.4901 62.9321 44.8225 63.3493 44.906 63.85Z" fill="#369CB7"/>
<path d="M45.5737 63.849C45.5737 64.1828 45.991 64.5165 46.4917 64.4331C46.8254 64.4331 47.3261 64.0993 47.3261 63.7655V63.6821C47.3261 63.3483 46.8255 63.0145 46.4082 63.0979C45.9075 63.0979 45.5737 63.4317 45.5737 63.849Z" fill="#C5F3FA"/>
<path d="M46.4917 62.1807C46.6586 62.2641 47.1593 62.431 47.4931 62.9317C47.7434 63.2655 47.8269 63.5993 47.8269 63.7662C47.4096 63.5158 46.9924 63.2655 46.5751 63.0151C46.5751 62.8482 46.5751 62.7648 46.4917 62.5979C46.4917 62.431 46.4917 62.2641 46.4917 62.1807Z" fill="#369CB7"/>
<path d="M46.8256 63.2656C46.9925 63.4325 47.1594 63.5994 47.3263 63.7663C47.3263 63.6828 47.4098 63.2656 47.2429 62.8483C47.076 62.5146 46.7422 62.4311 46.7422 62.3477C46.9925 62.6814 47.076 63.0152 46.9925 63.0987C46.9091 63.1821 46.9091 63.2656 46.8256 63.2656Z" fill="#C5F3FA"/>
<path d="M38.5639 61.0127C38.6473 61.5968 38.3135 62.0975 37.8129 62.1809C37.3122 62.2644 36.8949 61.8471 36.8115 61.263C36.6446 60.6789 36.9784 60.1782 37.4791 60.0947C37.9798 60.0947 38.4804 60.4285 38.5639 61.0127Z" fill="#369CB7"/>
<path d="M37.6464 60.5954C37.6464 60.9292 37.4795 61.1796 37.2292 61.263C36.9789 61.263 36.7285 61.0961 36.7285 60.7623C36.7285 60.4285 36.8954 60.1782 37.1458 60.0947C37.3961 60.0947 37.563 60.3451 37.6464 60.5954Z" fill="#C5F3FA"/>
<path d="M42.5699 60.0952C42.6533 60.6793 42.3195 61.18 41.9023 61.2634C41.4851 61.3469 41.0678 60.9296 40.9844 60.3455C40.9844 59.7614 41.2347 59.2607 41.7354 59.2607C42.1526 59.1772 42.5699 59.5945 42.5699 60.0952Z" fill="#369CB7"/>
<path d="M41.9023 59.5106C41.9023 59.6774 41.7354 59.8443 41.4851 59.9278C41.2347 59.9278 40.9844 59.8443 40.9844 59.594C40.9844 59.4271 41.1513 59.2602 41.4016 59.1768C41.652 59.1768 41.9023 59.3437 41.9023 59.5106Z" fill="#C5F3FA"/>
<path d="M34.7256 61.6807V62.0145L35.1428 62.1814L34.9759 61.8476L34.7256 61.6807Z" fill="#C5F3FA"/>
<path d="M34.7256 61.6807L37.7297 62.9324L40.3166 63.9338L34.809 61.8476L34.7256 61.6807Z" fill="#369CB7"/>
<path d="M44.9062 61.8478L41.4849 63.7671L44.0718 62.5154L46.2414 61.514L46.0745 61.2637L44.9062 61.8478Z" fill="#C5F3FA"/>
<path d="M45.7405 61.2637L42.9033 62.6823L40.3164 63.934L45.6571 61.3471L45.7405 61.2637Z" fill="#369CB7"/>
</g>
<g clip-path="url(#clip1_6050_131073)">
<path d="M119.999 40.5854L93.1206 38.9941L90.7552 78.5589L117.634 80.1501L119.999 40.5854Z" fill="#9C4F33"/>
<path d="M106.556 39.7951L93.1128 39L93.9118 40.0138L106.497 40.7691L119.101 41.5046L120 40.5902L106.556 39.7951Z" fill="#CE714F"/>
<path d="M91.9344 58.7773L93.113 38.999L93.912 40.0128L92.7934 58.8369L91.6747 77.5021L90.7559 78.5556L91.9344 58.7773Z" fill="#8C462D"/>
<path d="M104.2 79.3511L117.643 80.1661L116.844 79.1324L104.259 78.397L91.5549 77.6416L90.7559 78.556L104.2 79.3511Z" fill="#81412A"/>
<path d="M118.822 60.3681L117.643 80.1663L116.844 79.1327L117.963 60.3284L119.102 41.5042L120 40.5898L118.822 60.3681Z" fill="#633321"/>
<path d="M102.011 41.8765L94.4136 41.4268L93.9035 49.9588L101.501 50.4085L102.011 41.8765Z" fill="#9C4F33"/>
<path d="M98.206 41.664L94.4106 41.4453L94.91 42.0814L98.1661 42.2603L101.422 42.4591L102.001 41.8826L98.206 41.664Z" fill="#CE714F"/>
<path d="M101.742 46.1565L102.002 41.8828L101.422 42.4593L101.203 46.1168L100.983 49.7742L101.502 50.4103L101.742 46.1565Z" fill="#633321"/>
<path d="M97.687 50.1909L101.502 50.4096L100.983 49.8132L97.727 49.6343L94.5508 49.4355L93.8916 49.9722L97.687 50.1909Z" fill="#81412A"/>
<path d="M94.9104 42.0814L94.411 41.4453L94.1513 45.6991L93.8916 49.9728L94.5508 49.4361L94.9104 42.0814Z" fill="#8C462D"/>
<path d="M99.9245 42.3792L94.9106 42.0811L94.6709 46.0963C94.6709 46.0963 94.8307 42.5184 99.9245 42.3792Z" fill="#CE714F"/>
<path d="M110.08 42.3716L102.483 41.9219L101.973 50.4539L109.57 50.9036L110.08 42.3716Z" fill="#9C4F33"/>
<path d="M106.298 42.1405L102.482 41.9219L103.002 42.558L106.258 42.7369L109.514 42.9356L110.093 42.3592L106.298 42.1405Z" fill="#CE714F"/>
<path d="M109.833 46.6331L110.093 42.3594L109.514 42.9358L109.294 46.5933L109.074 50.2508L109.574 50.9068L109.833 46.6331Z" fill="#633321"/>
<path d="M105.778 50.6675L109.574 50.906L109.074 50.2898L105.818 50.1109L102.622 49.9121L101.983 50.4488L105.778 50.6675Z" fill="#81412A"/>
<path d="M103.001 42.558L102.482 41.9219L102.242 46.1757L101.982 50.4494L102.622 49.9127L103.001 42.558Z" fill="#8C462D"/>
<path d="M108.016 42.8558L103.002 42.5576L102.762 46.5729C102.762 46.5729 102.922 42.9949 108.016 42.8558Z" fill="#CE714F"/>
<path d="M118.191 42.8492L110.594 42.3994L110.084 50.9314L117.681 51.3812L118.191 42.8492Z" fill="#9C4F33"/>
<path d="M114.408 42.6181L110.612 42.3994L111.112 43.0355L114.368 43.2343L117.624 43.4132L118.203 42.8367L114.408 42.6181Z" fill="#CE714F"/>
<path d="M117.944 47.1106L118.203 42.8369L117.624 43.4134L117.404 47.0709L117.185 50.7482L117.684 51.3843L117.944 47.1106Z" fill="#633321"/>
<path d="M113.889 51.145L117.684 51.3835L117.185 50.7872L113.929 50.5884L110.732 50.3896L110.093 50.9263L113.889 51.145Z" fill="#81412A"/>
<path d="M111.112 43.0355L110.612 42.3994L110.352 46.6532L110.093 50.9269L110.732 50.3902L111.112 43.0355Z" fill="#8C462D"/>
<path d="M116.126 43.3333L111.112 43.0352L110.873 47.0504C110.873 47.0504 111.032 43.4725 116.126 43.3333Z" fill="#CE714F"/>
<path d="M101.453 51.1187L93.8555 50.6689L93.3454 59.201L100.942 59.6507L101.453 51.1187Z" fill="#9C4F33"/>
<path d="M97.6484 50.9065L93.853 50.668L94.3524 51.3041L97.6285 51.5028L100.885 51.7016L101.444 51.1252L97.6484 50.9065Z" fill="#CE714F"/>
<path d="M101.204 55.3987L101.444 51.125L100.885 51.7015L100.665 55.3589L100.445 59.0164L100.945 59.6525L101.204 55.3987Z" fill="#633321"/>
<path d="M97.1494 59.4341L100.945 59.6527L100.445 59.0564L97.1694 58.8576L93.9932 58.6787L93.354 59.2154L97.1494 59.4341Z" fill="#81412A"/>
<path d="M94.3523 51.3041L93.8529 50.668L93.5932 54.9417L93.3535 59.2154L93.9927 58.6787L94.3523 51.3041Z" fill="#8C462D"/>
<path d="M99.3669 51.6019L94.353 51.3037L94.1133 55.319C94.1133 55.319 94.2931 51.7609 99.3669 51.6019Z" fill="#CE714F"/>
<path d="M109.541 51.5962L101.944 51.1465L101.434 59.6785L109.031 60.1283L109.541 51.5962Z" fill="#9C4F33"/>
<path d="M105.738 51.384L101.942 51.1455L102.442 51.7816L105.698 51.9804L108.954 52.1791L109.533 51.6027L105.738 51.384Z" fill="#CE714F"/>
<path d="M109.273 55.8762L109.533 51.6025L108.954 52.179L108.734 55.8365L108.514 59.494L109.014 60.1301L109.273 55.8762Z" fill="#633321"/>
<path d="M105.218 59.9116L109.014 60.1303L108.514 59.5339L105.258 59.355L102.062 59.1562L101.423 59.6929L105.218 59.9116Z" fill="#81412A"/>
<path d="M102.442 51.7816L101.942 51.1455L101.683 55.4192L101.423 59.6929L102.062 59.1562L102.442 51.7816Z" fill="#8C462D"/>
<path d="M107.456 52.0794L102.442 51.7812L102.202 55.7965C102.202 55.8164 102.362 52.2384 107.456 52.0794Z" fill="#CE714F"/>
<path d="M117.652 52.0728L110.055 51.623L109.545 60.1551L117.142 60.6048L117.652 52.0728Z" fill="#9C4F33"/>
<path d="M113.848 51.8612L110.052 51.6426L110.552 52.2787L113.808 52.4576L117.064 52.6563L117.643 52.0799L113.848 51.8612Z" fill="#CE714F"/>
<path d="M117.384 56.3528L117.643 52.0791L117.064 52.6556L116.844 56.313L116.625 59.9705L117.144 60.6066L117.384 56.3528Z" fill="#633321"/>
<path d="M113.329 60.3882L117.144 60.6068L116.625 60.0105L113.369 59.8316L110.192 59.6328L109.533 60.1695L113.329 60.3882Z" fill="#81412A"/>
<path d="M110.552 52.2787L110.053 51.6426L109.793 55.8964L109.533 60.1701L110.192 59.6334L110.552 52.2787Z" fill="#8C462D"/>
<path d="M115.566 52.5765L110.552 52.2783L110.312 56.2936C110.312 56.2936 110.472 52.7156 115.566 52.5765Z" fill="#CE714F"/>
<path d="M100.912 60.2827L93.3145 59.833L92.8044 68.365L100.401 68.8147L100.912 60.2827Z" fill="#9C4F33"/>
<path d="M97.1074 60.0706L93.312 59.832L93.8114 60.4681L97.0675 60.6669L100.324 60.8657L100.903 60.2892L97.1074 60.0706Z" fill="#CE714F"/>
<path d="M100.643 64.5628L100.903 60.2891L100.324 60.8655L100.104 64.523L99.8843 68.1805L100.384 68.8166L100.643 64.5628Z" fill="#633321"/>
<path d="M96.5884 68.5981L100.384 68.8168L99.8844 68.2204L96.6283 68.0217L93.4322 67.8428L92.793 68.3795L96.5884 68.5981Z" fill="#81412A"/>
<path d="M93.8117 60.4681L93.3123 59.832L93.0527 64.1057L92.793 68.3794L93.4322 67.8427L93.8117 60.4681Z" fill="#8C462D"/>
<path d="M98.8259 60.7659L93.812 60.4678L93.5723 64.4831C93.5723 64.5029 93.7321 60.925 98.8259 60.7659Z" fill="#CE714F"/>
<path d="M108.983 60.7584L101.386 60.3086L100.876 68.8406L108.473 69.2904L108.983 60.7584Z" fill="#9C4F33"/>
<path d="M105.179 60.5471L101.384 60.3086L101.903 60.9646L105.159 61.1435L108.415 61.3422L108.995 60.7658L105.179 60.5471Z" fill="#CE714F"/>
<path d="M108.735 65.0393L108.994 60.7656L108.415 61.3421L108.195 64.9996L107.976 68.6571L108.475 69.2931L108.735 65.0393Z" fill="#633321"/>
<path d="M104.68 69.0747L108.475 69.2933L107.976 68.697L104.72 68.5181L101.524 68.3193L100.884 68.856L104.68 69.0747Z" fill="#81412A"/>
<path d="M101.903 60.9646L101.383 60.3086L101.143 64.5823L100.884 68.856L101.523 68.3193L101.903 60.9646Z" fill="#8C462D"/>
<path d="M106.917 61.2425L101.903 60.9443L101.664 64.9596C101.664 64.9795 101.823 61.4015 106.917 61.2425Z" fill="#CE714F"/>
<path d="M117.092 61.2554L109.495 60.8057L108.985 69.3377L116.582 69.7874L117.092 61.2554Z" fill="#9C4F33"/>
<path d="M113.31 61.0243L109.514 60.8057L110.014 61.4418L113.27 61.6207L116.526 61.8194L117.105 61.243L113.31 61.0243Z" fill="#CE714F"/>
<path d="M116.845 65.5169L117.105 61.2432L116.525 61.8196L116.306 65.4771L116.086 69.1346L116.585 69.7906L116.845 65.5169Z" fill="#633321"/>
<path d="M112.79 69.5513L116.585 69.7898L116.086 69.1736L112.83 68.9947L109.634 68.7959L108.995 69.3326L112.79 69.5513Z" fill="#81412A"/>
<path d="M110.013 61.4418L109.514 60.8057L109.254 65.0595L108.994 69.3332L109.633 68.7965L110.013 61.4418Z" fill="#8C462D"/>
<path d="M115.028 61.7396L110.014 61.4414L109.774 65.4567C109.774 65.4567 109.934 61.8787 115.028 61.7396Z" fill="#CE714F"/>
<path d="M100.354 69.4449L92.7568 68.9951L92.2468 77.5271L99.8438 77.9769L100.354 69.4449Z" fill="#9C4F33"/>
<path d="M96.5498 69.2337L92.7544 68.9951L93.2738 69.6312L96.5298 69.83L99.7859 70.0288L100.365 69.4523L96.5498 69.2337Z" fill="#CE714F"/>
<path d="M100.105 73.7258L100.365 69.4521L99.7857 70.0286L99.5659 73.6861L99.3462 77.3436L99.8456 77.9797L100.105 73.7258Z" fill="#633321"/>
<path d="M96.0503 77.7612L99.8457 77.9799L99.3463 77.3835L96.0902 77.2046L92.8941 77.0059L92.2549 77.5426L96.0503 77.7612Z" fill="#81412A"/>
<path d="M93.2732 69.6312L92.7538 68.9951L92.5141 73.2688L92.2544 77.5425L92.8936 77.0058L93.2732 69.6312Z" fill="#8C462D"/>
<path d="M98.2878 69.929L93.2739 69.6309L93.0342 73.6462C93.0342 73.666 93.194 70.088 98.2878 69.929Z" fill="#CE714F"/>
<path d="M108.443 69.9224L100.846 69.4727L100.336 78.0047L107.933 78.4544L108.443 69.9224Z" fill="#9C4F33"/>
<path d="M104.639 69.7112L100.844 69.4727L101.343 70.1286L104.599 70.3075L107.855 70.5063L108.435 69.9298L104.639 69.7112Z" fill="#CE714F"/>
<path d="M108.175 74.2034L108.434 69.9297L107.855 70.5061L107.635 74.1636L107.416 77.8211L107.935 78.4572L108.175 74.2034Z" fill="#633321"/>
<path d="M104.14 78.2387L107.935 78.4574L107.416 77.8611L104.16 77.6822L100.983 77.4834L100.324 78.0201L104.14 78.2387Z" fill="#81412A"/>
<path d="M101.343 70.1286L100.844 69.4727L100.584 73.7464L100.324 78.02L100.983 77.4834L101.343 70.1286Z" fill="#8C462D"/>
<path d="M106.357 70.4066L101.343 70.1084L101.104 74.1237C101.104 74.1436 101.263 70.5656 106.357 70.4066Z" fill="#CE714F"/>
<path d="M116.553 70.4195L108.956 69.9697L108.445 78.5017L116.043 78.9515L116.553 70.4195Z" fill="#9C4F33"/>
<path d="M112.75 70.1884L108.955 69.9697L109.454 70.6058L112.71 70.7847L115.966 70.9835L116.545 70.407L112.75 70.1884Z" fill="#CE714F"/>
<path d="M116.286 74.6809L116.546 70.4072L115.966 70.9837L115.747 74.6412L115.547 78.2987L116.046 78.9546L116.286 74.6809Z" fill="#633321"/>
<path d="M112.25 78.7153L116.046 78.9538L115.527 78.3376L112.27 78.1587L109.094 77.96L108.455 78.4967L112.25 78.7153Z" fill="#81412A"/>
<path d="M109.453 70.6058L108.954 69.9697L108.694 74.2235L108.455 78.4972L109.094 77.9605L109.453 70.6058Z" fill="#8C462D"/>
<path d="M114.468 70.9036L109.454 70.6055L109.214 74.6208C109.214 74.6208 109.374 71.0428 114.468 70.9036Z" fill="#CE714F"/>
<path fill-rule="evenodd" clip-rule="evenodd" d="M102.341 60.2689C102.781 60.6068 103.3 60.9249 103.72 60.9448C104.699 61.0044 104.758 61.7796 106.736 63.7475C108.694 65.7154 109.932 65.2383 111.83 66.5105C113.728 67.7628 115.685 68.0013 116.864 68.6573C117.583 69.0747 118.042 69.2934 118.482 69.6512L117.343 88.5548L89.6568 86.9249L91.1949 61.3224C91.1949 61.3026 91.2149 60.8454 90.8354 60.5075C90.4558 60.1497 89.3971 59.2949 88.678 58.9967C87.9588 58.6787 87 58.9769 87 58.9769C87 58.9769 88.3184 57.2475 89.477 56.9493C90.6556 56.6313 91.4946 55.2796 91.5145 54.9815C91.5345 54.6833 90.7954 52.9539 90.8953 51.483C90.9752 50.012 91.3947 48.7796 91.4546 49.4356C91.5345 50.0916 93.9516 52.6955 94.3511 53.3117C94.7506 53.9279 94.2712 54.564 94.1713 55.3194C94.0714 56.0747 96.7282 55.5778 97.2875 55.6175C97.8469 55.6573 98.2064 55.9356 98.8257 57.2276C99.4649 58.5197 99.2252 58.0227 100.224 58.5197C101.243 59.0166 102.341 60.2689 102.341 60.2689Z" fill="#F42B3B"/>
<path fill-rule="evenodd" clip-rule="evenodd" d="M104.039 61.0044C104.519 61.1435 104.779 61.5809 105.458 62.376C105.358 62.3561 105.258 62.3362 105.158 62.3163C104.838 62.2964 104.559 62.376 104.339 62.5747C104.119 62.7735 104 63.012 103.98 63.3301C103.96 63.6481 104.039 63.9065 104.219 64.1053C104.399 64.3041 104.659 64.4234 105.018 64.483L104.878 66.0334C104.079 65.8744 103.46 65.5763 103.061 65.0793C102.641 64.6023 102.461 63.986 102.501 63.2705C102.541 62.535 102.841 61.9188 103.36 61.4616C103.56 61.2628 103.8 61.1237 104.039 61.0044ZM106.257 63.2903C106.397 63.4494 106.556 63.6084 106.716 63.7674C106.996 64.0656 107.276 64.3041 107.535 64.483C107.395 64.8408 107.176 65.139 106.876 65.4172C106.516 65.7353 106.017 65.9539 105.398 66.0533L105.378 64.4631C105.937 64.324 106.217 64.0059 106.257 63.4891C106.257 63.4295 106.257 63.35 106.257 63.2903ZM109.413 65.457C109.673 65.5564 109.932 65.6359 110.192 65.7353L108.954 86.4876L108.154 86.4478L109.413 65.457ZM100.504 58.6787C100.763 58.8377 101.023 59.0365 101.263 59.2353L99.6648 85.9111L98.8657 85.8714L100.504 58.6787ZM107.395 69.2536C107.355 69.9494 107.056 70.5457 106.516 71.0227C105.977 71.4998 105.338 71.7185 104.619 71.6787C103.88 71.639 103.28 71.3408 102.801 70.8041C102.322 70.2674 102.102 69.6313 102.142 68.9157C102.182 68.2001 102.481 67.5839 103.021 67.1068C103.56 66.6298 104.199 66.4111 104.918 66.4509C105.657 66.4906 106.257 66.7888 106.736 67.3255C107.216 67.8622 107.435 68.5182 107.395 69.2536ZM105.917 69.1344C105.937 68.8362 105.837 68.5579 105.618 68.3393C105.398 68.1206 105.138 67.9815 104.819 67.9616C104.499 67.9417 104.219 68.0411 103.98 68.2399C103.74 68.4386 103.62 68.6971 103.6 68.9952C103.58 69.2934 103.68 69.5717 103.88 69.7903C104.099 70.009 104.359 70.1282 104.679 70.1481C104.998 70.168 105.278 70.0686 105.518 69.8698C105.777 69.6909 105.897 69.4325 105.917 69.1344ZM107.076 72.4142L106.996 73.8851L104.019 73.7062C103.78 73.6864 103.64 73.7261 103.54 73.7857C103.46 73.8653 103.42 74.0044 103.4 74.2231V74.3026L101.942 74.2231L101.962 73.8255C102.002 73.2888 102.182 72.8714 102.521 72.5931C102.861 72.3148 103.3 72.1955 103.86 72.2154L107.076 72.4142ZM104.339 76.668L103.021 76.5885L103.041 76.1711L101.842 76.0916L101.922 74.6206L105.098 74.7995C105.717 74.8393 106.177 75.038 106.496 75.376C106.816 75.7338 106.956 76.2108 106.916 76.827C106.876 77.4035 106.696 77.8408 106.377 78.0992C106.057 78.3576 105.558 78.4769 104.918 78.4371L101.682 78.2383L101.762 76.7674L104.898 76.9463C105.098 76.9662 105.218 76.9463 105.298 76.9065C105.378 76.8668 105.418 76.7873 105.418 76.668C105.438 76.4295 105.278 76.3102 104.918 76.2903L104.299 76.2506L104.339 76.668ZM105.098 81.5182L101.542 81.2995L101.622 79.8286L105.178 80.0472L105.238 78.9142L106.676 78.9937L106.477 82.7307L105.038 82.6512L105.098 81.5182ZM104.319 85.8316L103.2 85.772L103.26 84.8179C103.26 84.6787 103.26 84.5992 103.22 84.5396C103.18 84.4799 103.121 84.4601 103.021 84.4402C102.921 84.4402 102.841 84.4601 102.801 84.5197C102.761 84.5793 102.741 84.6787 102.721 84.8576L102.661 85.8515L101.243 85.772L101.303 84.6191C101.343 84.0625 101.483 83.6649 101.762 83.3867C102.042 83.1084 102.421 82.9891 102.921 83.0289L104.878 83.1481C105.358 83.168 105.717 83.327 105.977 83.6252C106.217 83.9234 106.337 84.301 106.297 84.798L106.217 86.09L104.779 86.0105L104.838 85.0763C104.858 84.8179 104.779 84.6986 104.619 84.6787C104.519 84.6787 104.459 84.6986 104.419 84.7582C104.379 84.8179 104.359 84.9172 104.339 85.0763L104.319 85.8316Z" fill="#FFCB00"/>
<path d="M117.331 88.5594L89.6543 86.9209L89.5084 89.3614L117.185 90.9999L117.331 88.5594Z" fill="#BB1D2E"/>
<path fill-rule="evenodd" clip-rule="evenodd" d="M118.462 69.6708C118.003 69.3329 117.563 69.0943 116.844 68.6769C116.185 68.2992 115.286 68.0607 114.287 67.7029C113.768 67.6234 113.248 67.5439 112.749 67.4246C111.97 67.2258 111.291 66.868 110.552 66.5699C109.113 65.9934 107.835 65.6158 106.716 64.4628C104.759 62.495 104.679 61.7197 103.7 61.6601C103.28 61.6402 102.761 61.3222 102.322 60.9843C102.322 60.9843 101.243 59.732 100.224 59.235C99.2054 58.7381 99.4651 59.235 98.8259 57.943C98.1866 56.6509 97.8271 56.3528 97.2877 56.3329C96.9282 56.313 95.6697 56.5118 94.8707 56.4521C94.8307 56.4521 94.7708 56.4521 94.7308 56.4323H94.7109C94.6709 56.4323 94.6309 56.4124 94.611 56.4124H94.591C94.5111 56.3925 94.4512 56.3726 94.3912 56.3329C94.3912 56.3329 94.3713 56.3329 94.3713 56.313C94.3513 56.2931 94.3313 56.2931 94.3113 56.2732C94.3113 56.2732 94.3113 56.2732 94.2914 56.2534C94.2714 56.2335 94.2514 56.2136 94.2314 56.1937C94.2314 56.1937 94.2314 56.1937 94.2314 56.1739C94.2314 56.154 94.2115 56.1341 94.2115 56.1142V56.0943C94.2115 56.0745 94.2115 56.0347 94.2115 56.0148C94.2314 55.8558 94.2714 55.6968 94.3113 55.5577C94.2314 55.498 94.1915 55.4185 94.2115 55.3191C94.2714 54.9216 94.4112 54.5836 94.4911 54.2457C94.4711 54.1662 94.4312 54.1066 94.3912 54.0271C93.9917 53.4109 91.5747 50.8069 91.4947 50.1509C91.4947 50.1112 91.4947 50.0913 91.4748 50.0515V50.0317C91.4748 50.0118 91.4548 49.9919 91.4548 49.972L91.4348 49.9521C91.4348 49.9521 91.4148 49.9521 91.4148 49.972C91.3949 49.9919 91.3949 49.9919 91.3749 50.0118C91.2351 50.2503 91.0353 51.1051 90.9554 52.0791C91.0553 53.3711 91.5946 54.7029 91.5747 54.9613C91.5747 55.021 91.5347 55.1203 91.4748 55.2197C91.4947 55.2595 91.4947 55.2992 91.5147 55.3589C91.5347 55.3986 91.5347 55.4384 91.5347 55.4781C91.5347 55.498 91.5347 55.498 91.5347 55.5179C91.5347 55.5378 91.5547 55.5577 91.5547 55.5974V55.6173C91.5547 55.6372 91.5547 55.657 91.5547 55.6769C91.5547 55.6968 91.5547 55.7167 91.5347 55.7365V55.7564C91.4148 56.1739 90.5958 57.3466 89.5171 57.6448C88.8979 57.8038 88.2387 58.3604 87.7593 58.8573C88.0589 58.8375 88.3985 58.8573 88.6981 58.9965C89.4173 59.3145 90.476 60.1693 90.8555 60.5072C91.2351 60.8451 91.2151 61.2824 91.2151 61.3222L91.1951 61.6402C91.3749 61.8589 91.7744 62.3558 91.9941 62.9521C92.3138 63.7671 92.0141 63.9063 92.3138 63.787C92.6134 63.6677 94.5311 63.3696 95.3301 63.5882C96.1491 63.8069 98.6461 64.8405 98.8259 65.0592C99.0056 65.258 100.244 64.8604 101.523 65.2778C102.821 65.6754 102.881 65.8145 104.239 65.7947C105.578 65.7748 106.377 65.7947 107.016 66.1326C107.316 66.2916 108.075 66.5699 108.774 66.8283C109.273 67.206 109.693 67.524 110.072 67.6035C110.751 67.7625 113.508 68.657 114.167 68.8757C115.226 69.2136 116.065 70.0683 117.204 70.1677C117.543 70.2075 118.083 70.4858 118.442 70.4858L118.462 69.6708Z" fill="#EAEAEA"/>
<path fill-rule="evenodd" clip-rule="evenodd" d="M91.0551 60.8052C90.9952 60.7058 90.9352 60.6064 90.8354 60.507C90.4558 60.1492 89.3971 59.2945 88.678 58.9963C87.9588 58.6783 87 58.9764 87 58.9764C87 58.9764 88.3184 57.2471 89.477 56.9489C90.6556 56.6309 91.4946 55.2792 91.5145 54.981C91.5345 54.7425 91.115 53.7287 90.9552 52.5957C91.5944 53.1523 92.813 54.1263 94.1913 55.1997C94.1913 55.2394 94.1713 55.2792 94.1713 55.3189C94.1314 55.5774 94.431 55.6966 94.8705 55.7364C97.9268 58.1217 101.462 60.8251 101.462 60.8251L110.252 66.6095C110.252 66.6095 107.635 65.7547 107.016 65.4168C106.377 65.0789 105.577 65.059 104.239 65.0789C102.901 65.0988 102.821 64.9596 101.522 64.5621C100.224 64.1645 99.0054 64.5422 98.8257 64.3434C98.6459 64.1446 96.1289 63.0911 95.3299 62.8725C94.5109 62.6538 92.6132 62.952 92.3136 63.0712C92.0139 63.1905 92.3136 63.0514 91.9939 62.2364C91.6544 61.4413 91.0551 60.8052 91.0551 60.8052Z" fill="#BB1D2E"/>
<path fill-rule="evenodd" clip-rule="evenodd" d="M102.341 60.2686C102.781 60.6066 103.3 60.9246 103.719 60.9445C104.698 61.0041 104.758 61.7793 106.736 63.7472C108.693 65.7151 109.932 65.2381 111.83 66.5102C113.727 67.7625 115.685 68.001 116.864 68.657C117.583 69.0744 118.042 69.2931 118.482 69.6509C118.482 69.6509 116.904 69.4919 116.224 69.154C115.545 68.816 114.826 68.3191 114.167 68.1203C113.508 67.9215 110.751 67.0072 110.072 66.8481C109.393 66.6891 108.634 65.8741 107.535 65.1387C106.456 64.4231 102.161 63.4093 100.763 62.7136C99.3648 62.0179 95.9289 60.9644 94.231 59.2748C92.5131 57.5851 91.6741 56.9491 91.4943 56.313C91.3545 55.816 91.4344 55.2793 91.4943 55.0607C91.5143 55.0209 91.5143 54.9812 91.5143 54.9414C91.5343 54.6433 90.7952 52.9139 90.895 51.4429C90.9749 49.972 91.3944 48.7396 91.4544 49.3955C91.5343 50.0515 93.9513 52.6555 94.3508 53.2717C94.7504 53.8879 94.2709 54.524 94.1711 55.2793C94.0712 56.0347 96.728 55.5377 97.2873 55.5775C97.8466 55.6173 98.2062 55.8955 98.8254 57.1876C99.4646 58.4796 99.2249 57.9827 100.224 58.4796C101.242 59.0163 102.341 60.2686 102.341 60.2686Z" fill="#CCCCCC"/>
<path fill-rule="evenodd" clip-rule="evenodd" d="M102.341 60.2688C102.781 60.6067 103.3 60.9247 103.719 60.9446C104.698 61.0043 104.758 61.7795 106.736 63.7474C108.693 65.7153 109.932 65.2382 111.83 66.5104C113.727 67.7627 115.685 68.0012 116.864 68.6572C117.583 69.0746 118.042 69.2932 118.482 69.651C118.482 69.651 116.903 69.492 116.224 69.1541C115.545 68.8162 114.826 68.3192 114.167 68.1205C113.508 67.9217 110.751 67.0073 110.072 66.8483C109.393 66.6893 108.634 65.8743 107.535 65.1388C106.976 64.7611 105.577 64.3238 104.139 63.8666C103.979 63.3498 103.819 62.833 103.66 62.3559C103.16 60.8651 100.583 59.5731 100.244 59.2749C99.8841 58.9767 99.5645 58.9966 99.3647 60.2091C99.165 61.4416 99.3448 60.6862 99.165 61.4018C99.1051 61.6403 99.185 61.8987 99.3048 62.1174C98.7255 61.8789 98.0863 61.6205 97.4471 61.3223C97.4471 61.3223 97.7467 60.8651 98.326 60.4278C98.9053 59.9905 98.5857 59.5333 98.6456 58.778C98.7055 58.0226 98.2061 57.0685 97.8865 56.6709C97.5469 56.2734 96.8078 56.1939 96.5881 56.4523C96.3684 56.7306 96.2086 56.4324 96.1287 56.2734C96.0488 56.1143 95.3696 56.333 94.9501 56.2932C94.5306 56.2535 94.4906 56.2535 94.3109 55.9951C94.1311 55.7367 94.191 55.9156 93.9313 56.2535C93.6716 56.5914 93.5518 57.9828 93.5518 57.9828C93.5518 57.9828 93.412 56.6312 93.2322 56.4324C93.0524 56.2336 93.4319 55.2198 93.4319 54.8024C93.4319 54.385 93.6916 53.7887 93.1523 53.4507C92.6329 53.1128 93.1523 52.6954 92.6729 52.3376C92.1934 51.9798 92.1735 51.8804 91.694 50.8269C91.4344 50.2902 91.3544 49.7336 91.3345 49.3162C91.3944 49.2168 91.4543 49.2367 91.4743 49.4354C91.5542 50.0914 93.9713 52.6954 94.3708 53.3116C94.7703 53.9278 94.2909 54.5639 94.191 55.3192C94.0911 56.0746 96.7479 55.5776 97.3072 55.6174C97.8666 55.6572 98.2261 55.9354 98.8454 57.2275C99.4846 58.5195 99.2449 58.0226 100.244 58.5195C101.242 59.0165 102.341 60.2688 102.341 60.2688Z" fill="#E6E6E6"/>
</g>
<defs>
<clipPath id="clip0_6050_131073">
<rect width="54" height="38" fill="white" transform="translate(12 46)"/>
</clipPath>
<clipPath id="clip1_6050_131073">
<rect width="33" height="52" fill="white" transform="translate(87 39)"/>
</clipPath>
</defs>
</svg>
