<svg width="170" height="168" viewBox="0 0 170 168" fill="none" xmlns="http://www.w3.org/2000/svg">
<rect x="0.5" y="0.5" width="169" height="167" rx="4.5" stroke="#D0D0D0"/>
<path d="M0 5C0 2.23858 2.23858 0 5 0H165C167.761 0 170 2.23858 170 5V28H0V5Z" fill="#205B64"/>
<path d="M54.9058 10.912H51.3218V8.8H61.0818V10.912H57.4978V20H54.9058V10.912ZM64.4969 12.528C64.7956 12.112 65.1956 11.7973 65.6969 11.584C66.2089 11.3707 66.7956 11.264 67.4569 11.264V13.568C67.1796 13.5467 66.9929 13.536 66.8969 13.536C66.1823 13.536 65.6223 13.7387 65.2169 14.144C64.8116 14.5387 64.6089 15.136 64.6089 15.936V20H62.1129V11.392H64.4969V12.528ZM68.9411 11.392H71.4371V20H68.9411V11.392ZM70.1891 10.192C69.7304 10.192 69.3571 10.0587 69.0691 9.792C68.7811 9.52533 68.6371 9.19467 68.6371 8.8C68.6371 8.40533 68.7811 8.07467 69.0691 7.808C69.3571 7.54133 69.7304 7.408 70.1891 7.408C70.6477 7.408 71.0211 7.536 71.3091 7.792C71.5971 8.048 71.7411 8.368 71.7411 8.752C71.7411 9.168 71.5971 9.51467 71.3091 9.792C71.0211 10.0587 70.6477 10.192 70.1891 10.192ZM77.2256 11.264C78.5589 11.264 79.5829 11.584 80.2976 12.224C81.0122 12.8533 81.3696 13.808 81.3696 15.088V20H79.0336V18.928C78.5642 19.728 77.6896 20.128 76.4096 20.128C75.7482 20.128 75.1722 20.016 74.6816 19.792C74.2016 19.568 73.8336 19.2587 73.5776 18.864C73.3216 18.4693 73.1936 18.0213 73.1936 17.52C73.1936 16.72 73.4922 16.0907 74.0896 15.632C74.6976 15.1733 75.6309 14.944 76.8896 14.944H78.8736C78.8736 14.4 78.7082 13.984 78.3776 13.696C78.0469 13.3973 77.5509 13.248 76.8896 13.248C76.4309 13.248 75.9776 13.3227 75.5296 13.472C75.0922 13.6107 74.7189 13.8027 74.4096 14.048L73.5136 12.304C73.9829 11.9733 74.5429 11.7173 75.1936 11.536C75.8549 11.3547 76.5322 11.264 77.2256 11.264ZM77.0336 18.448C77.4602 18.448 77.8389 18.352 78.1696 18.16C78.5002 17.9573 78.7349 17.664 78.8736 17.28V16.4H77.1616C76.1376 16.4 75.6256 16.736 75.6256 17.408C75.6256 17.728 75.7482 17.984 75.9936 18.176C76.2496 18.3573 76.5962 18.448 77.0336 18.448ZM88.8606 11.264C89.9272 11.264 90.7859 11.584 91.4366 12.224C92.0979 12.864 92.4286 13.8133 92.4286 15.072V20H89.9326V15.456C89.9326 14.7733 89.7832 14.2667 89.4846 13.936C89.1859 13.5947 88.7539 13.424 88.1886 13.424C87.5592 13.424 87.0579 13.6213 86.6846 14.016C86.3112 14.4 86.1246 14.976 86.1246 15.744V20H83.6286V11.392H86.0126V12.4C86.3432 12.0373 86.7539 11.76 87.2446 11.568C87.7352 11.3653 88.2739 11.264 88.8606 11.264ZM103.665 11.392V18.56C103.665 20.1387 103.254 21.312 102.433 22.08C101.611 22.848 100.411 23.232 98.8328 23.232C98.0008 23.232 97.2115 23.1307 96.4648 22.928C95.7181 22.7253 95.0995 22.432 94.6088 22.048L95.6008 20.256C95.9635 20.5547 96.4221 20.7893 96.9768 20.96C97.5315 21.1413 98.0861 21.232 98.6408 21.232C99.5048 21.232 100.139 21.0347 100.545 20.64C100.961 20.256 101.169 19.6693 101.169 18.88V18.512C100.518 19.2267 99.6115 19.584 98.4488 19.584C97.6595 19.584 96.9341 19.4133 96.2728 19.072C95.6221 18.72 95.1048 18.2293 94.7208 17.6C94.3368 16.9707 94.1448 16.2453 94.1448 15.424C94.1448 14.6027 94.3368 13.8773 94.7208 13.248C95.1048 12.6187 95.6221 12.1333 96.2728 11.792C96.9341 11.44 97.6595 11.264 98.4488 11.264C99.6968 11.264 100.646 11.6747 101.297 12.496V11.392H103.665ZM98.9448 17.536C99.6061 17.536 100.145 17.344 100.561 16.96C100.987 16.5653 101.201 16.0533 101.201 15.424C101.201 14.7947 100.987 14.288 100.561 13.904C100.145 13.5093 99.6061 13.312 98.9448 13.312C98.2835 13.312 97.7395 13.5093 97.3128 13.904C96.8861 14.288 96.6728 14.7947 96.6728 15.424C96.6728 16.0533 96.8861 16.5653 97.3128 16.96C97.7395 17.344 98.2835 17.536 98.9448 17.536ZM105.988 8.128H108.484V20H105.988V8.128ZM119.232 15.728C119.232 15.76 119.216 15.984 119.184 16.4H112.672C112.79 16.9333 113.067 17.3547 113.504 17.664C113.942 17.9733 114.486 18.128 115.136 18.128C115.584 18.128 115.979 18.064 116.32 17.936C116.672 17.7973 116.998 17.584 117.296 17.296L118.624 18.736C117.814 19.664 116.63 20.128 115.072 20.128C114.102 20.128 113.243 19.9413 112.496 19.568C111.75 19.184 111.174 18.656 110.768 17.984C110.363 17.312 110.16 16.5493 110.16 15.696C110.16 14.8533 110.358 14.096 110.752 13.424C111.158 12.7413 111.707 12.2133 112.4 11.84C113.104 11.456 113.888 11.264 114.752 11.264C115.595 11.264 116.358 11.4453 117.04 11.808C117.723 12.1707 118.256 12.6933 118.64 13.376C119.035 14.048 119.232 14.832 119.232 15.728ZM114.768 13.152C114.203 13.152 113.728 13.312 113.344 13.632C112.96 13.952 112.726 14.3893 112.64 14.944H116.88C116.795 14.4 116.56 13.968 116.176 13.648C115.792 13.3173 115.323 13.152 114.768 13.152Z" fill="white"/>
<path d="M61.7988 88H15.2476C14.4679 88 13.6882 87.5943 13.3213 86.918C12.9085 86.2418 12.9085 85.3852 13.3213 84.709L36.574 45.082C36.9868 44.4057 37.7206 44 38.5003 44C39.2799 44 40.0596 44.4057 40.4265 45.082L63.6792 84.709C64.092 85.3852 64.092 86.2418 63.6792 86.918C63.3123 87.5943 62.5785 88 61.7988 88ZM19.1001 83.627H57.9004L38.5003 50.582L19.1001 83.627Z" fill="#BF1B00"/>
<path d="M39.6009 62.664C39.7844 62.8895 39.922 63.3403 39.922 63.6108V69.3813L42.3069 71.7255C42.5362 71.9509 42.7655 72.3116 42.9031 72.5821L45.3797 78.8485C45.609 79.3895 45.3338 79.9755 44.7376 80.1558L44.5083 80.246C43.9579 80.4263 43.3158 80.1108 43.1324 79.5698L41.0685 73.8444C41.0227 73.664 40.8392 73.4386 40.7475 73.3485L36.9867 69.7419C36.7574 69.5165 36.6198 69.1558 36.6198 68.8403V64.4673C36.6198 64.1968 36.4363 64.0616 36.207 64.2419L34.6935 65.0985C34.556 65.1886 34.4184 65.414 34.3725 65.5944L34.0056 69.1108C33.9597 69.6968 33.4552 70.1026 32.859 70.0575C32.3086 70.0124 31.8959 69.4714 31.9876 68.9304L32.4921 64.828C32.538 64.5575 32.7673 64.1968 32.9966 64.0165L36.8491 61.6272C37.0784 61.4919 37.5371 61.4018 37.8122 61.537C38.4543 61.6272 39.0964 62.078 39.6009 62.664ZM36.207 70.0124L31.2997 78.0821C30.9786 78.578 31.1162 79.2091 31.6207 79.5247L31.6666 79.5698C32.1711 79.8854 32.8131 79.7501 33.1801 79.2542L37.9957 71.7255C38.0874 71.5903 38.0874 71.3649 37.9498 71.2296L36.6657 69.9673C36.4822 69.8321 36.3446 69.8321 36.207 70.0124ZM40.564 68.0288L42.3527 69.5165C42.8113 69.8772 43.4534 69.8772 43.7745 69.4714C44.0955 69.0657 44.0038 68.4345 43.5452 68.0739L40.564 65.5042C40.4265 65.369 40.3347 65.4591 40.3347 65.5944V67.4427C40.2889 67.7132 40.4265 67.9386 40.564 68.0288ZM38.9588 60.8608C40.0595 60.8608 40.9768 59.9591 40.9768 58.8772C40.9768 57.7952 40.0595 56.8936 38.9588 56.8936C37.8581 56.8936 36.9408 57.7952 36.9408 58.8772C36.9408 59.9591 37.8122 60.8608 38.9588 60.8608Z" fill="black"/>
<path d="M37.2617 75.1963H39.6007L40.1511 81.7783H36.7572L37.2617 75.1963ZM48.911 81.8233H52.3049L48.3148 75.1963H45.9757L48.911 81.8233ZM30.8867 75.1963H28.5477L24.5117 81.7783H27.9056L30.8867 75.1963Z" fill="black"/>
<g clip-path="url(#clip0_6050_131045)">
<path d="M124.666 86.0006H82.3343C80.6728 86.0006 79.228 85.0687 78.4334 83.635C77.711 82.2013 77.8555 80.4092 78.7946 79.1188L100.033 50.8034C100.827 49.7282 102.127 49.083 103.5 49.083C104.873 49.083 106.173 49.7282 106.967 50.8034L128.133 79.1188L126.038 80.6959L104.873 52.3805C104.511 51.9504 104.006 51.6637 103.5 51.6637C102.922 51.6637 102.416 51.9504 102.127 52.3805L80.9617 80.6242C80.6006 81.126 80.5283 81.8429 80.8173 82.4163C81.1062 82.9898 81.6841 83.3482 82.3343 83.3482H124.593V86.0006H124.666Z" fill="#BABABA"/>
<path d="M104.078 48.0791H102.85V51.9501H104.078V48.0791Z" fill="#4F4F4F"/>
<path d="M103.861 46.1436H103.139V48.079H103.861V46.1436Z" fill="#BABABA"/>
<g opacity="0.15">
<path opacity="0.15" d="M124.666 83.3477H103.5V85.9283H124.666V83.3477Z" fill="black"/>
<path opacity="0.15" d="M106.967 50.8031C106.245 49.8712 105.234 49.2977 104.15 49.0826V48.079H103.861V46.1436H103.5V51.8783H104.15V51.8066C104.439 51.95 104.728 52.0934 104.873 52.3801L126.038 80.6955L128.133 79.1185L106.967 50.8031Z" fill="black"/>
</g>
<path d="M102.41 73.2567L129.066 46.79L128.249 45.9793L101.593 72.446L102.41 73.2567Z" fill="#BABABA"/>
<path d="M98.3709 78.7606L102.705 74.4595C102.994 74.1728 102.777 73.671 102.344 73.1692L101.622 72.4523C101.188 72.0222 100.61 71.8789 100.321 72.0939L95.987 76.395C95.6981 76.6817 95.9148 77.1835 96.3482 77.6853L97.0706 78.4022C97.5763 78.8323 98.0819 78.9756 98.3709 78.7606Z" fill="#FFAD42"/>
<path opacity="0.15" d="M128.639 46.4307L129.072 46.8608L102.416 73.2407H102.344C102.777 73.6708 102.922 74.2443 102.705 74.531L98.371 78.8321C98.082 79.1188 97.5764 78.9038 97.0707 78.4737L96.7817 78.0436L128.639 46.4307Z" fill="black"/>
</g>
<defs>
<clipPath id="clip0_6050_131045">
<rect width="51" height="40" fill="white" transform="translate(78 46)"/>
</clipPath>
</defs>
</svg>
