<svg width="55" height="55" viewBox="0 0 55 55" fill="none" xmlns="http://www.w3.org/2000/svg">
<path d="M50.7988 50H4.24756C3.46788 50 2.6882 49.5943 2.3213 48.918C1.90853 48.2418 1.90853 47.3852 2.3213 46.709L25.574 7.08197C25.9868 6.40574 26.7206 6 27.5003 6C28.2799 6 29.0596 6.40574 29.4265 7.08197L52.6792 46.709C53.092 47.3852 53.092 48.2418 52.6792 48.918C52.3123 49.5943 51.5785 50 50.7988 50ZM8.10007 45.627H46.9004L27.5003 12.582L8.10007 45.627Z" fill="#BF1B00"/>
<path d="M28.6009 24.664C28.7844 24.8895 28.922 25.3403 28.922 25.6108V31.3813L31.3069 33.7255C31.5362 33.9509 31.7655 34.3116 31.9031 34.5821L34.3797 40.8485C34.609 41.3895 34.3338 41.9755 33.7376 42.1558L33.5083 42.246C32.9579 42.4263 32.3158 42.1108 32.1324 41.5698L30.0685 35.8444C30.0227 35.664 29.8392 35.4386 29.7475 35.3485L25.9867 31.7419C25.7574 31.5165 25.6198 31.1558 25.6198 30.8403V26.4673C25.6198 26.1968 25.4363 26.0616 25.207 26.2419L23.6935 27.0985C23.556 27.1886 23.4184 27.414 23.3725 27.5944L23.0056 31.1108C22.9597 31.6968 22.4552 32.1026 21.859 32.0575C21.3086 32.0124 20.8959 31.4714 20.9876 30.9304L21.4921 26.828C21.538 26.5575 21.7673 26.1968 21.9966 26.0165L25.8491 23.6272C26.0784 23.4919 26.5371 23.4018 26.8122 23.537C27.4543 23.6272 28.0964 24.078 28.6009 24.664ZM25.207 32.0124L20.2997 40.0821C19.9786 40.578 20.1162 41.2091 20.6207 41.5247L20.6666 41.5698C21.1711 41.8854 21.8131 41.7501 22.1801 41.2542L26.9957 33.7255C27.0874 33.5903 27.0874 33.3649 26.9498 33.2296L25.6657 31.9673C25.4822 31.8321 25.3446 31.8321 25.207 32.0124ZM29.564 30.0288L31.3527 31.5165C31.8113 31.8772 32.4534 31.8772 32.7745 31.4714C33.0955 31.0657 33.0038 30.4345 32.5452 30.0739L29.564 27.5042C29.4265 27.369 29.3347 27.4591 29.3347 27.5944V29.4427C29.2889 29.7132 29.4265 29.9386 29.564 30.0288ZM27.9588 22.8608C29.0595 22.8608 29.9768 21.9591 29.9768 20.8772C29.9768 19.7952 29.0595 18.8936 27.9588 18.8936C26.8581 18.8936 25.9408 19.7952 25.9408 20.8772C25.9408 21.9591 26.8122 22.8608 27.9588 22.8608Z" fill="black"/>
<path d="M26.2617 37.1963H28.6007L29.1511 43.7783H25.7572L26.2617 37.1963ZM37.911 43.8233H41.3049L37.3148 37.1963H34.9757L37.911 43.8233ZM19.8867 37.1963H17.5477L13.5117 43.7783H16.9056L19.8867 37.1963Z" fill="black"/>
</svg>
