<svg width="73" height="58" viewBox="0 0 73 58" fill="none" xmlns="http://www.w3.org/2000/svg">
<path d="M40.6694 11.5996L40.9764 54.3767C41.1811 55.8423 40.0298 56.5064 38.3922 56.6896H33.6588C32.0213 56.8728 30.5117 55.8423 30.307 54.3767L30 11.5996H40.6694Z" fill="#E2484B"/>
<path opacity="0.4" d="M40.3334 12.0762H30.4048L30.4286 17.1367H40.3572L40.3334 12.0762Z" fill="#CA484B"/>
<path d="M64.6095 12.8887L69.9788 55.6658C70.1631 57.1314 69.1261 57.7955 67.6513 57.9787H63.3881C61.9133 58.1619 60.5537 57.1314 60.3693 55.6658L55 12.8887H64.6095Z" fill="#E2484B"/>
<path opacity="0.4" d="M59.7597 15.9802H64.9314L64.5423 12.8887H55L60.3547 55.6658C60.5378 57.1314 61.8879 58.1619 63.3524 57.9787H65L59.7597 15.9802Z" fill="#CA484B"/>
<path d="M5.74991 12.8887L0.0226346 55.6658C-0.17401 57.1314 0.932115 57.7955 2.50527 57.9787H7.05268C8.62583 58.1619 10.0761 57.1314 10.2727 55.6658L16 12.8887H5.74991Z" fill="#E2484B"/>
<path opacity="0.4" d="M10.7523 15.9802H5.5L5.9289 12.8887H16L10.1216 55.6658C9.91973 57.1314 8.43119 58.1619 6.81651 57.9787H5L10.7523 15.9802Z" fill="#CA484B"/>
<path d="M67.7857 14.2712H4.21429C1.90476 14.2712 0 12.1292 0 9.50523V4.73923C0 2.14202 1.90476 0 4.21429 0H67.7619C70.0952 0 71.9762 2.14202 71.9762 4.73923V9.50523C72 12.1292 70.0952 14.2712 67.7857 14.2712Z" fill="#E2484B"/>
<path opacity="0.2" d="M67.881 10.496H4.11905C1.85714 10.496 0 8.43428 0 5.89062V9.63917C0 12.1828 1.85714 14.2713 4.11905 14.2713H67.9048C70.1667 14.2713 72.0238 12.1828 72.0238 9.63917V5.89062C72 8.43428 70.1667 10.496 67.881 10.496Z" fill="#CA484B"/>
<path opacity="0.4" d="M67.4524 2.49023H5.47626C5.04769 2.49023 4.71436 2.0886 4.71436 1.63342V1.5531C4.71436 1.07114 5.0715 0.696289 5.47626 0.696289H67.4524C67.881 0.696289 68.2144 1.09792 68.2144 1.5531V1.63342C68.2144 2.11538 67.881 2.49023 67.4524 2.49023Z" fill="#E2484B"/>
</svg>
