<svg width="55" height="55" viewBox="0 0 55 55" fill="none" xmlns="http://www.w3.org/2000/svg">
<g clip-path="url(#clip0_5308_118667)">
<path d="M48.6657 48.0006H6.33427C4.67279 48.0006 3.22803 47.0687 2.43342 45.635C1.71104 44.2013 1.85551 42.4092 2.79461 41.1188L24.0326 12.8034C24.8272 11.7282 26.1275 11.083 27.5 11.083C28.8725 11.083 30.1728 11.7282 30.9674 12.8034L52.1331 41.1188L50.0382 42.6959L28.8725 14.3805C28.5113 13.9504 28.0057 13.6637 27.5 13.6637C26.9221 13.6637 26.4164 13.9504 26.1275 14.3805L4.96175 42.6242C4.60056 43.126 4.52832 43.8429 4.81727 44.4163C5.10622 44.9898 5.68412 45.3482 6.33427 45.3482H48.5935V48.0006H48.6657Z" fill="#BABABA"/>
<path d="M28.0777 10.0791H26.8496V13.9501H28.0777V10.0791Z" fill="#4F4F4F"/>
<path d="M27.8611 8.14355H27.1387V10.079H27.8611V8.14355Z" fill="#BABABA"/>
<g opacity="0.15">
<path opacity="0.15" d="M48.6657 45.3477H27.5V47.9283H48.6657V45.3477Z" fill="black"/>
<path opacity="0.15" d="M30.9674 12.8031C30.245 11.8712 29.2337 11.2977 28.1501 11.0826V10.079H27.8612V8.14355H27.5V13.8783H28.1501V13.8066C28.4391 13.95 28.728 14.0934 28.8725 14.3801L50.0382 42.6955L52.1331 41.1185L30.9674 12.8031Z" fill="black"/>
</g>
<path d="M26.4105 35.2567L53.0664 8.79004L52.2489 7.97926L25.593 34.446L26.4105 35.2567Z" fill="#BABABA"/>
<path d="M22.3709 40.7606L26.7052 36.4595C26.9941 36.1728 26.7774 35.671 26.344 35.1692L25.6216 34.4523C25.1882 34.0222 24.6103 33.8789 24.3213 34.0939L19.987 38.395C19.6981 38.6817 19.9148 39.1835 20.3482 39.6853L21.0706 40.4022C21.5763 40.8323 22.0819 40.9756 22.3709 40.7606Z" fill="#FFAD42"/>
<path opacity="0.15" d="M52.6387 8.43066L53.0721 8.86077L26.4163 35.2407H26.3441C26.7775 35.6708 26.922 36.2443 26.7053 36.531L22.371 40.8321C22.082 41.1188 21.5764 40.9038 21.0707 40.4737L20.7817 40.0436L52.6387 8.43066Z" fill="black"/>
</g>
<defs>
<clipPath id="clip0_5308_118667">
<rect width="51" height="40" fill="white" transform="translate(2 8)"/>
</clipPath>
</defs>
</svg>
