<svg width="55" height="55" viewBox="0 0 55 55" fill="none" xmlns="http://www.w3.org/2000/svg">
<g clip-path="url(#clip0_5308_118665)">
<path d="M55 8H1V41.8981H55V8Z" fill="white"/>
<path d="M54.7407 8.22949H1.16211V41.9307H21.2906C23.3326 42.4886 25.6015 42.8167 27.9676 42.8167C30.3338 42.8167 32.5703 42.4886 34.6123 41.9307H54.7407V8.22949Z" fill="#434244"/>
<path d="M30.1068 42.6855H25.7959V44.556H30.1068V42.6855Z" fill="#434244"/>
<path d="M46.151 45.8689C46.2482 45.9345 46.2482 46.0002 46.1186 46.0002H9.81608C9.68643 46.0002 9.68643 45.9345 9.78367 45.9017L13.2843 43.9656C13.3815 43.9 13.576 43.8672 13.7056 43.8672H42.7801C42.9097 43.8672 43.0718 43.9328 43.2014 43.9984L46.151 45.8689Z" fill="#434244"/>
<path d="M52.7634 9.83789H3.13916V38.3543H52.7634V9.83789Z" fill="#C5F3FA"/>
<path d="M52.7634 38.3867H3.13916V38.6821H52.7634V38.3867Z" fill="white"/>
<path d="M29.0373 40.388C29.0373 40.5849 28.8753 40.7162 28.7132 40.7162H27.287C27.0925 40.7162 26.9629 40.5521 26.9629 40.388C26.9629 40.1911 27.125 40.0599 27.287 40.0599H28.7132C28.9077 40.0271 29.0373 40.1911 29.0373 40.388Z" fill="white"/>
<path d="M3.43106 40.7169C3.61007 40.7169 3.75519 40.5699 3.75519 40.3887C3.75519 40.2075 3.61007 40.0605 3.43106 40.0605C3.25205 40.0605 3.10693 40.2075 3.10693 40.3887C3.10693 40.5699 3.25205 40.7169 3.43106 40.7169Z" fill="#B84936"/>
<path d="M22.0566 28.3536C21.7228 27.7695 21.1387 27.2688 20.638 26.8516C20.0539 26.4343 19.3863 25.9336 18.7187 25.6833C18.0511 25.4329 17.3001 25.5164 16.6325 25.7667C16.0483 25.9336 15.5477 26.3509 15.2973 26.935C15.047 27.6026 15.047 28.1867 15.5477 28.6874C16.0483 29.1047 16.7159 29.4385 17.3001 29.5219C17.467 29.5219 17.9677 29.6053 18.1345 29.4384C18.3014 29.2716 18.218 28.6874 18.218 28.5205C18.0511 27.9364 17.467 27.4357 16.9663 27.9364C16.4656 28.4371 15.7146 27.5191 16.2152 27.0185C16.7994 26.4343 17.7173 26.4343 18.3849 26.8516C19.0525 27.2688 19.3863 28.1033 19.3863 28.9378C19.3863 29.7722 19.1359 30.5233 18.3014 30.6902C17.5504 30.9405 16.6325 30.7736 15.9649 30.4398C15.2973 30.106 14.6297 29.6053 14.2125 28.9378C13.8787 28.1867 13.9621 27.2688 14.2959 26.5178C14.9635 24.9323 16.6325 24.3481 18.218 24.4316C19.2194 24.515 20.1373 25.0992 20.8883 25.5998C21.6394 26.184 22.4738 26.7681 22.9745 27.6026C23.3083 28.2702 22.3904 29.0212 22.0566 28.3536Z" fill="#369CB7"/>
<path d="M36.3261 21.761C36.493 23.0961 35.9088 24.2644 35.0744 24.3479C34.2399 24.4313 33.4054 23.3465 33.2385 22.0113C33.0716 20.6762 33.6557 19.5079 34.4902 19.4244C35.3247 19.341 36.1592 20.4258 36.3261 21.761Z" fill="#369CB7"/>
<path d="M20.3042 23.0128C20.3042 27.1018 23.7256 29.8555 27.8145 29.8555C31.9035 29.8555 35.1579 27.6859 35.2414 23.0128C35.3248 18.9239 31.9035 15.5859 27.8145 15.5859C23.6421 15.5859 20.3042 18.8404 20.3042 23.0128Z" fill="#369CB7"/>
<path d="M29.817 16.0028C29.817 15.669 27.6474 15.5855 27.0632 14.3338C26.9798 14.1669 26.9798 14 26.9798 14C26.7294 14.0834 26.3122 14.2503 25.895 14.6676C25.4777 15.0848 25.3943 15.5021 25.3108 15.669C25.2274 15.669 24.977 15.5021 24.8101 15.3352C24.6432 15.0848 24.6432 14.751 24.6432 14.6676C24.4763 14.8345 24.226 15.0014 24.0591 15.3352C23.475 16.2531 23.7253 17.171 23.8088 17.4214C28.7322 16.6703 29.817 16.2531 29.817 16.0028Z" fill="#369CB7"/>
<path d="M24.3933 26.3503C24.8105 28.2696 27.3139 29.3544 29.9008 28.6868C32.5712 28.1027 34.407 26.0165 33.9898 24.1806C33.5725 22.2613 31.0691 21.1765 28.3988 21.8441C25.8119 22.4282 24.0595 24.431 24.3933 26.3503Z" fill="#C5F3FA"/>
<path d="M23.5589 22.8457C23.8927 24.5147 25.3948 25.5995 26.8969 25.1822C28.3989 24.765 29.4003 23.096 29.0665 21.4271C28.7327 19.7581 27.2306 18.6733 25.7286 19.0905C24.1431 19.4243 23.2251 21.0933 23.5589 22.8457Z" fill="#C5F3FA"/>
<path d="M32.9045 20.3423C33.2383 22.0947 32.3204 23.7637 30.9852 24.0975C29.5666 24.4313 28.148 23.3464 27.8976 21.6775C27.4804 19.9251 28.3983 18.2561 29.8169 17.9223C31.1521 17.5051 32.5707 18.5899 32.9045 20.3423Z" fill="#C5F3FA"/>
<path d="M21.4724 26.8511C20.9717 26.9346 20.471 26.6842 20.0538 26.1835C19.6365 25.6828 19.2193 24.9318 19.0524 24.0973C18.8855 23.2628 18.969 22.4284 19.1358 21.7608C19.3862 21.0932 19.8034 20.676 20.3041 20.5925C20.8048 20.4256 21.3055 20.676 21.7227 21.1766C22.14 21.6773 22.5572 22.4284 22.7241 23.2628C22.891 24.0973 22.8076 24.9318 22.6407 25.5994C22.3069 26.3504 21.9731 26.7677 21.4724 26.8511Z" fill="#369CB7"/>
<path d="M22.3069 25.5995C22.0566 26.1837 21.7228 26.5175 21.389 26.6009L21.4724 27.1016C22.14 26.9347 22.5573 26.434 22.8076 25.7664L22.3069 25.5995ZM22.3904 23.4299C22.5573 24.2644 22.4738 25.0154 22.3069 25.5995L22.8911 25.7664C23.1414 25.0989 23.2249 24.1809 23.058 23.263L22.3904 23.4299ZM21.4724 21.4271C21.8897 21.8444 22.2235 22.5954 22.3904 23.4299L22.9745 23.3464C22.8076 22.4285 22.3904 21.594 21.9731 21.0934L21.4724 21.4271ZM20.3042 20.843C20.638 20.7596 21.1387 20.9265 21.4724 21.4271L21.8897 21.0099C21.4724 20.5092 20.8883 20.1754 20.2207 20.2589L20.3042 20.843ZM19.4697 21.8444C19.6366 21.2602 19.9704 20.9265 20.3042 20.843L20.2207 20.2589C19.5531 20.4258 19.1359 20.9265 18.8856 21.594L19.4697 21.8444ZM19.3028 24.014C19.1359 23.1796 19.2194 22.4285 19.3862 21.8444L18.8856 21.594C18.6352 22.2616 18.5518 23.1796 18.7187 24.0975L19.3028 24.014ZM20.2207 26.0168C19.8035 25.5995 19.4697 24.8485 19.3028 24.014L18.7187 24.0975C18.8856 25.0154 19.3028 25.8499 19.72 26.3506L20.2207 26.0168ZM21.389 26.6009C21.0552 26.6844 20.638 26.5175 20.2207 26.0168L19.8035 26.3506C20.3042 26.9347 20.8883 27.2685 21.5559 27.1016L21.389 26.6009ZM22.5573 25.683L22.8076 25.7664L22.5573 25.683ZM22.7242 23.3464L22.4738 23.4299L22.7242 23.3464ZM21.7228 21.1768L21.9731 21.0099L21.7228 21.1768ZM20.3042 20.5927L20.2207 20.2589L20.3042 20.5927ZM19.1359 21.7609L18.8856 21.594L19.1359 21.7609ZM19.0525 24.0975L19.3028 24.014L19.0525 24.0975ZM19.9704 26.1837L19.8035 26.3506L19.9704 26.1837ZM21.4724 26.8513L21.389 26.6009L21.4724 26.8513Z" fill="#C5F3FA"/>
<path d="M20.388 24.0133C21.3893 26.0995 21.5562 27.685 22.3073 27.5181C23.0583 27.3512 23.2252 25.0981 22.9749 23.2622C22.7245 21.5098 21.2225 20.2581 20.9721 20.5085C20.6383 20.5919 20.1376 22.2609 20.388 24.0133Z" fill="#369CB7"/>
<path d="M31.6533 26.3504C31.5699 26.4338 30.5685 27.6021 28.8161 27.6021C27.5644 27.6021 26.3961 26.9345 25.7285 26.0166C25.9789 26.1835 27.0637 27.1014 28.7326 27.1849C30.3182 27.1849 31.3195 26.5173 31.6533 26.3504Z" fill="#369CB7"/>
<path d="M28.4819 25.0155C28.5654 25.0155 28.8992 25.099 29.3164 25.099C29.7337 25.0155 29.984 24.9321 30.0674 24.8486C29.8171 24.8486 29.5668 24.9321 29.3164 24.9321C28.9826 25.0155 28.6488 25.0155 28.4819 25.0155Z" fill="#369CB7"/>
<path d="M35.1575 23.2637C35.241 23.2637 35.3244 23.2637 35.3244 23.3471L35.6582 29.9395C35.6582 30.023 35.6582 30.023 35.5748 30.1064L29.7334 33.0271H29.65L23.3914 30.9409C23.3079 30.9409 23.3079 30.8574 23.3079 30.8574L22.9741 24.265C22.9741 24.1816 22.9741 24.1816 23.0576 24.1816H23.141L29.3162 26.3512C29.3996 26.3512 29.3996 26.3512 29.4831 26.3512L35.1575 23.2637Z" fill="#369CB7"/>
<path d="M29.6503 26.517L35.3247 23.5963L34.9909 22.9287L29.3165 25.8494L29.6503 26.517ZM29.233 26.517C29.3999 26.6004 29.4834 26.517 29.6503 26.517L29.3165 25.9328H29.3999L29.233 26.517ZM29.3999 26.517V25.8494V26.517ZM23.0579 24.3473L29.233 26.517L29.4834 25.8494L23.3082 23.7632L23.0579 24.3473ZM23.1413 24.4308V23.7632V24.4308ZM23.3082 24.3473L23.2248 24.4308C23.1413 24.4308 23.1413 24.4308 23.0579 24.4308L23.3082 23.7632C23.1413 23.6797 22.9744 23.7632 22.891 23.8466L23.3082 24.3473ZM23.3082 24.1804C23.3082 24.2639 23.3082 24.2639 23.2248 24.3473L22.8075 23.8466C22.7241 23.9301 22.6406 24.097 22.6406 24.2639L23.3082 24.1804ZM23.7254 30.7728L23.3917 24.1804H22.7241L23.0579 30.7728H23.7254ZM23.5586 30.5225C23.642 30.5225 23.7254 30.6894 23.7254 30.6894L23.0579 30.7728C23.0579 30.9397 23.1413 31.1066 23.3917 31.1901L23.5586 30.5225ZM23.4751 30.5225V31.1901V30.5225ZM29.8172 32.6921L23.5586 30.6059L23.3082 31.2735L29.5668 33.3597L29.8172 32.6921ZM29.6503 32.6087V33.2763V32.6087ZM29.5668 32.6921C29.6503 32.6921 29.7337 32.6921 29.7337 32.6921L29.4834 33.2763C29.5668 33.3597 29.7337 33.2763 29.8172 33.2763L29.5668 32.6921ZM29.4834 32.7756L29.984 33.2763L29.4834 32.7756ZM35.4916 29.7714L29.6503 32.6921L29.984 33.2763L35.8254 30.3556L35.4916 29.7714ZM35.3247 29.9383C35.3247 29.8549 35.3247 29.7714 35.4082 29.7714L35.6585 30.3556C35.8254 30.2721 35.9089 30.1052 35.9089 29.9383H35.3247ZM34.9909 23.4294L35.3247 30.0218H35.9923L35.6585 23.346L34.9909 23.4294ZM35.3247 23.5963C35.2413 23.6797 35.1578 23.5963 35.0744 23.5963C34.9909 23.5963 34.9909 23.5128 34.9909 23.4294H35.6585C35.6585 23.0956 35.3247 22.8453 34.9909 23.0122L35.3247 23.5963ZM29.4834 26.1832L29.3165 25.8494L29.4834 26.1832ZM29.3999 26.1832L29.4834 25.8494H29.3999H29.3165V26.1832H29.3999ZM29.3999 26.1832L29.3165 26.517H29.3999H29.4834V26.1832H29.3999ZM23.1413 24.097L23.2248 23.7632H23.1413V24.097ZM23.1413 24.097L23.0579 24.4308H23.1413V24.097ZM23.0579 24.097L23.3082 24.3473L23.0579 24.097ZM22.9744 24.1804H23.3082H22.9744ZM23.3917 30.7728H23.0579H23.3917ZM23.4751 30.8563L23.3917 31.1901H23.4751H23.5586V30.8563H23.4751ZM23.4751 30.8563L23.5586 30.5225H23.4751H23.3917V30.8563H23.4751ZM29.6503 32.9425L29.5668 33.2763H29.6503H29.7337V32.9425H29.6503ZM29.6503 32.9425L29.7337 32.6087H29.6503H29.5668V32.9425H29.6503ZM29.7337 32.9425L29.9006 33.2763H29.984L29.7337 32.9425ZM29.7337 32.9425L29.5668 32.6087H29.4834L29.7337 32.9425ZM35.5751 30.1052L35.4082 29.7714L35.5751 30.1052ZM35.6585 29.9383H35.9923H35.6585ZM35.3247 23.346H35.6585H35.3247ZM35.1578 23.2625L35.3247 23.5963L35.1578 23.2625Z" fill="#C5F3FA"/>
<path d="M29.6502 32.7763L29.3164 26.768L29.8171 26.6846L30.0674 32.5259L29.6502 32.7763Z" fill="#C5F3FA"/>
<path d="M23.809 23.6806L23.7256 24.0144V23.9309V23.6806V23.5137L28.2318 25.2661L23.809 23.6806Z" fill="#369CB7"/>
<path d="M23.642 23.6809L23.9758 23.7644L23.642 23.6809ZM23.8924 23.514L23.7255 23.8478L23.8924 23.514ZM28.3151 25.0995L23.8924 23.514L23.8089 23.8478L28.1482 25.4333L28.3151 25.0995ZM23.642 23.5975L28.1482 25.4333L28.2317 25.0995L23.7255 23.2637L23.642 23.5975ZM23.8924 23.6809V23.4306H23.5586V23.6809H23.8924ZM23.8924 23.9313V23.6809L23.5586 23.7644V24.0147L23.8924 23.9313ZM23.8924 23.8478L23.642 24.0982L23.8924 23.8478ZM23.642 23.6809V23.9313H23.9758V23.6809H23.642ZM23.8089 23.6809L23.8924 23.514L23.7255 23.4306V23.6809H23.8089ZM23.8089 23.6809L23.7255 23.8478L23.8089 23.6809ZM28.2317 25.2664L28.1482 25.4333L28.2317 25.0995V25.2664ZM23.7255 23.514L23.8089 23.3471L23.5586 23.2637V23.514H23.7255ZM23.7255 23.6809H23.5586H23.7255ZM23.7255 23.9313H23.5586V24.0147L23.7255 23.9313ZM23.7255 24.0147L23.642 24.0982L23.8924 24.3485V24.0147H23.7255ZM23.8089 23.6809H23.642H23.8089Z" fill="#C5F3FA"/>
<path d="M35.2414 23.4293L35.0745 22.7617L30.4849 25.7658L35.0745 23.179V23.0955V23.179L35.2414 23.4293Z" fill="#369CB7"/>
<path d="M35.4082 23.4296H35.0744H35.4082ZM35.2413 23.5965V23.2628V23.5965ZM34.9075 23.2628L35.0744 23.5131L35.3247 23.3462L35.1579 23.0959L34.9075 23.2628ZM34.9075 23.1793L35.2413 23.0124L34.9075 23.1793ZM35.1579 23.2628L34.991 22.929L35.1579 23.2628ZM30.5682 25.8496L35.1579 23.2628L34.991 23.0124L30.4013 25.5993L30.5682 25.8496ZM34.9075 22.6786L30.3179 25.5993L30.4848 25.8496L35.0744 22.929L34.9075 22.6786ZM35.4082 23.3462L35.2413 22.7621L34.9075 22.8455L35.0744 23.4296L35.4082 23.3462ZM35.2413 23.4296V23.5965H35.4082V23.4296H35.2413ZM35.2413 23.4296L35.0744 23.5131L35.1579 23.5965H35.2413V23.4296ZM35.0744 23.1793L34.9075 23.2628L35.0744 23.1793ZM35.0744 23.0959L35.2413 23.0124L35.1579 22.929L34.991 23.0124L35.0744 23.0959ZM35.0744 23.1793L34.991 23.0124L35.0744 23.1793ZM30.4848 25.7662L30.4013 25.5993L30.5682 25.8496L30.4848 25.7662ZM35.0744 22.7621L35.2413 22.6786L35.1579 22.5117L34.991 22.5952L35.0744 22.7621ZM35.2413 23.4296H35.4082H35.2413Z" fill="#C5F3FA"/>
<path d="M23.7428 30.4379C24.6183 30.4217 25.3197 29.9604 25.3095 29.4074C25.2993 28.8545 24.5813 28.4194 23.7058 28.4355C22.8303 28.4517 22.1289 28.9131 22.1391 29.466C22.1493 30.019 22.8673 30.4541 23.7428 30.4379Z" fill="#369CB7"/>
<path d="M23.7352 30.0206C24.2421 30.0114 24.6483 29.7425 24.6424 29.42C24.6366 29.0974 24.221 28.8434 23.7141 28.8526C23.2073 28.8617 22.8011 29.1306 22.8069 29.4532C22.8128 29.7757 23.2284 30.0298 23.7352 30.0206Z" fill="#C5F3FA"/>
<path d="M25.311 28.4367C25.311 29.1043 24.56 29.605 23.6421 29.605C22.7241 29.605 21.9731 29.1043 21.8896 28.5201C21.8896 27.936 22.6407 27.3519 23.5586 27.3519C24.4765 27.2684 25.2276 27.7691 25.311 28.4367Z" fill="#369CB7"/>
<path d="M24.56 28.1861C24.56 28.5199 24.1427 28.8537 23.642 28.8537C23.1414 28.8537 22.7241 28.6034 22.7241 28.1861C22.7241 27.8523 23.1414 27.5186 23.642 27.5186C24.1427 27.5186 24.56 27.8523 24.56 28.1861Z" fill="#C5F3FA"/>
<path d="M25.0607 27.2685C25.0607 27.7692 24.3931 28.1864 23.4752 28.1864C22.6407 28.1864 21.8896 27.7692 21.8896 27.2685V27.1851C21.9731 26.6844 22.6407 26.3506 23.4752 26.3506C24.3096 26.434 25.0607 26.7678 25.0607 27.2685Z" fill="#369CB7"/>
<path d="M24.393 27.2691C24.393 27.6029 23.9757 27.9367 23.4751 27.9367C23.1413 27.9367 22.6406 27.6864 22.5571 27.3526V27.2691C22.5571 26.9354 23.0578 26.6016 23.4751 26.6016C23.9757 26.6016 24.393 26.9354 24.393 27.2691Z" fill="#C5F3FA"/>
<path d="M22.9744 25.7666C22.8075 25.85 22.3068 26.0169 22.0565 26.5176C21.8896 26.8514 21.8062 27.1852 21.8062 27.3521C22.1399 27.1018 22.5572 26.8514 22.891 26.5176C22.9744 26.2673 23.0579 26.0169 22.9744 25.7666Z" fill="#369CB7"/>
<path d="M22.9743 26.934C22.8074 27.1009 22.724 27.3512 22.5571 27.5181C22.5571 27.4347 22.3902 27.0174 22.5571 26.5168C22.6405 26.0995 22.8909 25.9326 22.9743 25.9326C22.8074 26.2664 22.724 26.6836 22.8074 26.8505C22.8909 26.934 22.9743 26.934 22.9743 26.934Z" fill="#C5F3FA"/>
<path d="M33.906 28.0193C33.906 28.6034 34.657 29.0207 35.408 28.9372C36.2425 28.8538 36.8267 28.3531 36.8267 27.8524C36.8267 27.2683 36.0756 26.851 35.3246 26.9345C34.4901 26.9345 33.8225 27.4351 33.906 28.0193Z" fill="#369CB7"/>
<path d="M35.3898 27.3521C34.884 27.3866 34.4918 27.6755 34.5138 27.9974C34.5358 28.3193 34.9636 28.5522 35.4694 28.5176C35.9752 28.4831 36.3674 28.1942 36.3454 27.8723C36.3235 27.5504 35.8956 27.3175 35.3898 27.3521Z" fill="#C5F3FA"/>
<path d="M33.6558 27.0177C33.6558 27.6018 34.4902 28.1025 35.4082 28.0191C36.3261 27.9356 37.0771 27.3515 36.9937 26.7673C36.9937 26.1832 36.1592 25.6825 35.2413 25.766C34.3233 25.8494 33.5723 26.3501 33.6558 27.0177Z" fill="#369CB7"/>
<path d="M35.1774 25.9468C34.5336 25.9898 34.0316 26.3229 34.0562 26.6908C34.0808 27.0587 34.6226 27.3221 35.2664 27.2791C35.9102 27.236 36.4122 26.9029 36.3876 26.5351C36.363 26.1672 35.8212 25.9038 35.1774 25.9468Z" fill="#C5F3FA"/>
<path d="M33.906 25.85C33.906 26.3507 34.657 26.6845 35.408 26.6845C36.2425 26.601 36.8267 26.1838 36.8267 25.6831V25.5997C36.7432 25.099 36.0756 24.8486 35.3246 24.8486C34.4901 24.9321 33.8225 25.3493 33.906 25.85Z" fill="#369CB7"/>
<path d="M34.5737 25.849C34.5737 26.1828 34.991 26.5165 35.4917 26.4331C35.8254 26.4331 36.3261 26.0993 36.3261 25.7655V25.6821C36.3261 25.3483 35.8255 25.0145 35.4082 25.0979C34.9075 25.0979 34.5737 25.4317 34.5737 25.849Z" fill="#C5F3FA"/>
<path d="M35.4917 24.1807C35.6586 24.2641 36.1593 24.431 36.4931 24.9317C36.7434 25.2655 36.8269 25.5993 36.8269 25.7662C36.4096 25.5158 35.9924 25.2655 35.5751 25.0151C35.5751 24.8482 35.5751 24.7648 35.4917 24.5979C35.4917 24.431 35.4917 24.2641 35.4917 24.1807Z" fill="#369CB7"/>
<path d="M35.8256 25.2656C35.9925 25.4325 36.1594 25.5994 36.3263 25.7663C36.3263 25.6828 36.4098 25.2656 36.2429 24.8483C36.076 24.5146 35.7422 24.4311 35.7422 24.3477C35.9925 24.6814 36.076 25.0152 35.9925 25.0987C35.9091 25.1821 35.9091 25.2656 35.8256 25.2656Z" fill="#C5F3FA"/>
<path d="M27.5639 23.0127C27.6473 23.5968 27.3135 24.0975 26.8129 24.1809C26.3122 24.2644 25.8949 23.8471 25.8115 23.263C25.6446 22.6789 25.9784 22.1782 26.4791 22.0947C26.9798 22.0947 27.4804 22.4285 27.5639 23.0127Z" fill="#369CB7"/>
<path d="M26.6464 22.5954C26.6464 22.9292 26.4795 23.1796 26.2292 23.263C25.9789 23.263 25.7285 23.0961 25.7285 22.7623C25.7285 22.4285 25.8954 22.1782 26.1458 22.0947C26.3961 22.0947 26.563 22.3451 26.6464 22.5954Z" fill="#C5F3FA"/>
<path d="M31.5699 22.0952C31.6533 22.6793 31.3195 23.18 30.9023 23.2634C30.4851 23.3469 30.0678 22.9296 29.9844 22.3455C29.9844 21.7614 30.2347 21.2607 30.7354 21.2607C31.1526 21.1772 31.5699 21.5945 31.5699 22.0952Z" fill="#369CB7"/>
<path d="M30.9023 21.5106C30.9023 21.6774 30.7354 21.8443 30.4851 21.9278C30.2347 21.9278 29.9844 21.8443 29.9844 21.594C29.9844 21.4271 30.1513 21.2602 30.4016 21.1768C30.652 21.1768 30.9023 21.3437 30.9023 21.5106Z" fill="#C5F3FA"/>
<path d="M23.7256 23.6807V24.0145L24.1428 24.1814L23.9759 23.8476L23.7256 23.6807Z" fill="#C5F3FA"/>
<path d="M23.7256 23.6807L26.7297 24.9324L29.3166 25.9338L23.809 23.8476L23.7256 23.6807Z" fill="#369CB7"/>
<path d="M33.9062 23.8478L30.4849 25.7671L33.0718 24.5154L35.2414 23.514L35.0745 23.2637L33.9062 23.8478Z" fill="#C5F3FA"/>
<path d="M34.7405 23.2637L31.9033 24.6823L29.3164 25.934L34.6571 23.3471L34.7405 23.2637Z" fill="#369CB7"/>
</g>
<defs>
<clipPath id="clip0_5308_118665">
<rect width="54" height="38" fill="white" transform="translate(1 8)"/>
</clipPath>
</defs>
</svg>
