<svg width="50" height="50" viewBox="0 0 50 50" fill="none" xmlns="http://www.w3.org/2000/svg">
<g clip-path="url(#clip0_5301_92123)">
<path d="M45.7892 40.5708C45.6053 41.5518 44.0112 42.1343 42.601 42.2876C42.0185 42.3489 41.62 42.962 41.7426 43.5138C41.9572 44.3109 41.6813 45.2306 40.5777 45.813C39.9033 46.1503 39.3208 46.1809 38.769 45.9663C38.1865 45.7517 37.5427 46.1809 37.4508 46.794C37.3895 47.2539 37.2668 47.7137 37.0522 48.1429C36.5617 49.1239 35.5807 49.7983 34.5078 49.9823C32.7604 50.2888 32.1166 46.6408 32.2699 43.5445C32.3619 41.7664 32.2086 38.3943 33.9866 37.4746C34.0479 37.4439 34.1093 37.4133 34.1706 37.3826C35.6421 36.8308 38.2785 37.3213 40.4857 37.5359C41.0069 37.5972 41.5587 37.6585 42.0798 37.7811C44.1645 38.2716 46.0038 39.3446 45.7892 40.5708Z" fill="#F64A3C"/>
<path d="M45.7892 40.5704C45.6053 41.5514 44.0112 42.1339 42.601 42.2871C42.0185 42.3484 41.62 42.9616 41.7426 43.5134C41.9572 44.3104 41.6813 45.2301 40.5777 45.8126C39.9033 46.1498 39.3208 46.1805 38.769 45.9659C38.1865 45.7513 37.5427 46.1805 37.4508 46.7936C37.3895 47.2534 37.2668 47.7133 37.0522 48.1425C36.5617 49.1234 35.5807 49.7979 34.5078 49.9818C32.7604 50.2884 32.1166 46.6403 32.2699 43.544C32.3619 41.766 32.2086 38.3938 33.9866 37.4741C34.4771 39.1296 34.3545 41.2448 34.5078 42.9309C34.5384 43.4214 34.6611 44.0039 35.0903 44.2185C35.9486 44.617 36.7457 43.3601 36.9603 42.3791C37.88 42.9003 39.1369 41.9806 39.6887 40.9996C40.2711 40.0186 40.5777 38.8536 41.4667 38.1179C41.6507 37.9646 41.8346 37.842 42.0492 37.75C44.1645 38.2712 46.0038 39.3441 45.7892 40.5704Z" fill="#D7342B"/>
<path d="M15.2253 7.79928C15.2253 7.98322 15.2253 8.16715 15.1946 8.38175C15.1333 10.3131 15.1027 13.2867 13.3246 13.9612C11.8531 14.5436 9.2167 14.0225 7.00946 13.8079C4.37303 13.5626 1.39939 12.3364 1.70595 10.7729C1.82858 10.1291 2.53367 9.66931 3.4227 9.36274C3.88254 9.20946 4.40369 9.08684 4.89419 9.02553C5.47666 8.96422 6.15109 8.16715 5.99781 7.61534C5.78322 6.81828 6.05912 5.8986 7.16274 5.31613C7.83718 4.97892 8.41964 4.97892 8.97145 5.16285C9.55392 5.37745 10.1977 4.97892 10.2897 4.33514C10.351 3.8753 10.2284 3.63005 10.4123 3.20086C10.9028 2.21987 11.8838 1.54543 12.9567 1.3615C14.7348 1.05494 15.3786 4.67236 15.2253 7.79928Z" fill="#F64A3C"/>
<path d="M15.1946 8.38135C15.1333 10.3127 15.1027 13.2863 13.3246 13.9608C11.8531 14.5432 9.2167 14.0221 7.00946 13.8075C4.37303 13.5622 1.39939 12.336 1.70595 10.7725C1.82858 10.1287 2.53367 9.66891 3.4227 9.36234C4.55697 10.5273 6.427 10.9258 8.20505 11.0484C9.58458 11.1711 11.0254 11.263 12.3436 10.7419C13.5392 10.3127 14.4896 9.42366 15.1946 8.38135Z" fill="#D7342B"/>
<path d="M23.8092 12.7956L36.5008 28.4302C36.6541 28.6141 36.8074 28.8287 36.93 29.0433C37.0833 29.2886 37.2059 29.5338 37.3285 29.8097C37.6351 30.5148 37.819 31.2812 37.8803 32.0476C37.911 32.7221 37.8497 33.4272 37.6964 34.1016C37.6657 34.2242 37.6351 34.3468 37.6044 34.4695C37.1752 35.9103 36.3169 37.2592 35.0293 38.3015L34.1709 38.9759C33.2819 39.7117 32.2703 40.2022 31.228 40.4781C30.0937 40.7846 28.9287 40.8153 27.8558 40.57C26.9361 40.3861 26.0471 39.9876 25.2807 39.4051C24.9128 39.1292 24.5449 38.792 24.2384 38.3935L11.5467 22.7588C11.4854 22.6975 11.4241 22.6055 11.3934 22.5442C11.3321 22.4523 11.2402 22.3296 11.1789 22.2377C11.1482 22.1764 11.1175 22.1457 11.0869 22.0844C11.0562 22.0231 11.0256 21.9618 10.9949 21.9005L10.9643 21.8698C10.9336 21.8085 10.903 21.7472 10.8416 21.6552C10.7803 21.5632 10.7497 21.4713 10.719 21.3793C10.6884 21.3486 10.6884 21.318 10.6884 21.2873C10.6577 21.226 10.627 21.1647 10.627 21.1034C10.5964 21.0114 10.5657 20.8888 10.5351 20.7968C10.5351 20.7662 10.5044 20.7355 10.5044 20.7355C10.4738 20.6742 10.4738 20.5822 10.4431 20.5209C10.4125 20.429 10.4125 20.3676 10.3818 20.2757C10.3818 20.2144 10.3511 20.1531 10.3511 20.0917C10.3205 19.9998 10.3205 19.9078 10.2898 19.8158C10.2592 19.5706 10.2285 19.356 10.2285 19.1107C10.2285 19.0188 10.2285 18.9575 10.2285 18.8655C10.2285 18.7429 10.2285 18.6509 10.2285 18.5283C10.2285 18.4363 10.2285 18.3443 10.2592 18.2524C10.2898 18.0071 10.3205 17.7619 10.3818 17.486C10.4125 17.394 10.4125 17.302 10.4431 17.2101C10.4738 17.1181 10.4738 17.0261 10.5044 16.9648C10.5351 16.8422 10.5657 16.7196 10.627 16.5969C10.6577 16.505 10.719 16.3824 10.7497 16.2904C10.7803 16.1984 10.811 16.1371 10.8416 16.0451C10.8723 15.9838 10.903 15.9532 10.903 15.8919C10.9336 15.8305 10.9643 15.7386 10.9949 15.6773C11.0256 15.5853 11.0869 15.4933 11.1482 15.4014C11.2095 15.3094 11.2402 15.2174 11.3015 15.1561C11.3321 15.0948 11.3628 15.0641 11.3934 15.0028C11.4241 14.9415 11.4854 14.8802 11.5161 14.8189C11.5161 14.7882 11.5467 14.7882 11.5467 14.7576C11.608 14.6656 11.6694 14.6043 11.7307 14.5123C11.8839 14.3284 12.0372 14.1445 12.1905 13.9912C12.2212 13.9299 12.2825 13.8992 12.3438 13.8379C12.4051 13.7766 12.4358 13.7459 12.4971 13.6846C12.6503 13.5313 12.8343 13.3781 12.9876 13.2248L14.1832 12.2438C15.1642 11.4467 16.2984 10.9256 17.4327 10.6803C17.7086 10.619 17.9845 10.5883 18.2298 10.5577C19.0575 10.4964 19.8852 10.5577 20.6516 10.7723C21.2954 10.9562 21.9085 11.2015 22.4603 11.5693C22.7056 11.7226 22.9201 11.8759 23.1041 12.0598C23.38 12.3051 23.5946 12.5503 23.8092 12.7956Z" fill="#FBDBCD"/>
<path d="M37.6044 34.4395C37.1752 35.8803 36.3169 37.2292 35.0293 38.2715L34.1709 38.9459C31.0134 41.4904 26.5682 41.2452 24.2384 38.3635L11.5467 22.7289C11.3934 22.5449 11.2708 22.3916 11.1789 22.2077C11.1482 22.1464 11.1175 22.1157 11.0869 22.0544C11.0562 21.9931 11.0256 21.9318 10.9949 21.8705L10.9643 21.8398C10.9336 21.7785 10.903 21.7172 10.8416 21.6252C10.811 21.5333 10.7497 21.4413 10.719 21.3493C10.719 21.3187 10.6884 21.288 10.6884 21.2574C10.6577 21.1961 10.627 21.1347 10.627 21.0734C10.5964 20.9815 10.5657 20.8588 10.5351 20.7669C10.5351 20.7362 10.5044 20.7056 10.5044 20.7056C10.4738 20.6442 10.4738 20.5523 10.4431 20.491C10.4125 20.399 10.4125 20.3377 10.3818 20.2457C10.3818 20.1844 10.3511 20.1231 10.3511 20.0618C10.2898 19.7246 10.2592 19.418 10.2285 19.0808C10.2285 18.9888 10.2285 18.9275 10.2285 18.8355C10.2285 18.7129 10.2285 18.6209 10.2285 18.4983C10.2285 18.4063 10.2285 18.3144 10.2592 18.2224C10.2898 17.9772 10.3205 17.7319 10.3818 17.456C10.4125 17.364 10.4125 17.2721 10.4431 17.1801C10.4738 17.0881 10.4738 16.9962 10.5044 16.9349C10.5351 16.8122 10.5657 16.6896 10.627 16.5363C10.6577 16.4444 10.6884 16.3217 10.7497 16.2298C10.7803 16.1378 10.811 16.0765 10.8416 15.9845C10.8723 15.9232 10.903 15.8925 10.903 15.8312C10.9336 15.7699 10.9643 15.678 10.9949 15.6166C11.0256 15.5247 11.0869 15.4327 11.1482 15.3407C11.2095 15.2488 11.2402 15.1568 11.3015 15.0955C11.3321 15.0342 11.3628 15.0035 11.3934 14.9422C11.4241 14.8809 11.4854 14.8196 11.5161 14.7583C11.5161 14.7276 11.5467 14.7276 11.5467 14.697C11.608 14.605 11.6694 14.5437 11.7307 14.4517C11.8839 14.2678 12.0372 14.0838 12.1905 13.8999C12.2212 13.8386 12.2825 13.8079 12.3131 13.7466C12.3744 13.6853 12.4051 13.6547 12.4664 13.5933C12.6197 13.4401 12.8036 13.2868 12.9876 13.1335L13.4474 12.7656C13.5087 14.9729 13.8153 17.0881 14.9189 19.0808C15.7773 20.6442 17.0342 21.9011 18.1071 23.342C19.5786 25.2733 25.5259 33.4278 27.3346 34.9607C27.9171 35.4511 28.5302 35.8803 29.2353 36.1869C29.8484 36.4628 30.5229 36.6161 31.228 36.7081C32.6688 36.8613 34.1709 36.5854 35.5198 35.911C36.3169 35.5738 36.9913 35.0526 37.6044 34.4395Z" fill="#EAA292"/>
<path d="M20.6826 10.7723L11.4244 22.5136C11.3631 22.4216 11.2711 22.299 11.2098 22.207C11.1792 22.1457 11.1485 22.115 11.1179 22.0537C11.0872 21.9924 11.0565 21.9311 11.0259 21.8698L10.9952 21.8391C10.9646 21.7778 10.9339 21.7165 10.8726 21.6245C10.8113 21.5326 10.7806 21.4406 10.75 21.3486C10.7193 21.318 10.7193 21.2873 10.7193 21.2567C10.6887 21.1954 10.658 21.1341 10.658 21.0727C10.6274 20.9808 10.5967 20.8581 10.5661 20.7662C10.5661 20.7355 10.5354 20.7049 10.5354 20.7049C10.5047 20.6436 10.5047 20.5516 10.4741 20.4903C10.4434 20.3983 10.4434 20.337 10.4128 20.245C10.4128 20.1837 10.3821 20.1224 10.3821 20.0611C10.3515 19.9691 10.3515 19.8771 10.3208 19.7852L17.4637 10.6803C17.7396 10.619 18.0155 10.5883 18.2607 10.5577C19.0885 10.4964 19.8855 10.5577 20.6826 10.7723Z" fill="#D7342B"/>
<path d="M23.8095 12.7964L24.8519 14.084L14.858 26.7756L13.1719 24.7216L23.1045 12.0913C23.3804 12.3059 23.595 12.5511 23.8095 12.7964Z" fill="#D7342B"/>
<path d="M26.6296 16.2603L28.2851 18.3449L18.2912 31.0365L16.6357 28.9519L26.6296 16.2603Z" fill="#D7342B"/>
<path d="M30.0632 20.5215L31.7493 22.5754L21.7554 35.2671L20.0693 33.2131L30.0632 20.5215Z" fill="#D7342B"/>
<path d="M33.5271 24.7515L35.2132 26.8054L25.3113 39.3744C24.9434 39.0985 24.5755 38.7613 24.2689 38.3628L23.5332 37.4431L33.5271 24.7515Z" fill="#D7342B"/>
<path d="M36.9297 29.0439C37.083 29.2892 37.2056 29.5344 37.3282 29.8103C37.6348 30.5154 37.8187 31.2818 37.88 32.0482L31.2276 40.4787C30.0934 40.7852 28.9284 40.8159 27.8555 40.5706L36.9297 29.0439Z" fill="#D7342B"/>
<path d="M13.2942 9.14849C13.5088 7.73831 13.1716 5.9296 12.3438 4.76467C12.1906 4.55008 11.9147 4.76467 12.0066 4.97926C12.2519 5.71501 12.5891 6.35879 12.7424 7.12519C12.8957 7.79962 12.9263 8.47406 12.9876 9.17915C12.9876 9.36309 13.2635 9.33243 13.2942 9.14849Z" fill="white"/>
<path d="M11.3012 9.94561C11.0866 9.57773 10.872 9.20986 10.6574 8.81133C10.4735 8.50477 10.3509 8.19821 10.075 7.95296C9.983 7.89165 9.86038 7.98361 9.89103 8.07558C9.95234 8.4128 10.1976 8.71936 10.3815 9.02592C10.5961 9.36314 10.8107 9.73101 11.0253 10.0682C11.1173 10.2522 11.3932 10.1295 11.3012 9.94561Z" fill="white"/>
<path d="M7.53087 9.69991C7.71481 9.88385 7.9294 10.0678 8.17465 10.1904C8.35859 10.313 8.57318 10.4357 8.78777 10.313C8.81843 10.2824 8.84909 10.2211 8.84909 10.1904C8.78777 9.97582 8.60384 9.91451 8.4199 9.82254C8.20531 9.69991 7.99072 9.57729 7.80678 9.39335C7.62284 9.27073 7.34694 9.54663 7.53087 9.69991Z" fill="white"/>
<path d="M36.2556 38.7617C36.6235 39.0069 37.022 39.2522 37.4205 39.4668C37.7271 39.62 38.0643 39.8959 38.4015 39.804C38.4935 39.7733 38.5548 39.6814 38.5241 39.5894C38.3709 39.2522 37.9723 39.1295 37.6658 38.9763C37.2979 38.7617 36.93 38.5471 36.5621 38.3018C36.2862 38.1792 36.0103 38.5777 36.2556 38.7617Z" fill="white"/>
<path d="M35.9179 40.2024C36.0712 40.3557 36.2245 40.5396 36.4084 40.6316C36.5924 40.7542 36.8376 40.5396 36.6843 40.3251C36.5617 40.1411 36.3471 39.9878 36.1632 39.8346C36.0712 39.7426 35.9179 39.8039 35.8566 39.8959C35.7953 40.0185 35.8259 40.1411 35.9179 40.2024Z" fill="white"/>
<path d="M35.642 41.7969C35.5194 41.6743 35.3968 41.5517 35.2435 41.429C35.1515 41.3677 35.0289 41.4597 35.0902 41.5517C35.1822 41.7049 35.2742 41.8582 35.3661 42.0115C35.4888 42.1954 35.7953 41.9502 35.642 41.7969Z" fill="white"/>
<path d="M16.3291 13.1639C19.8852 12.796 22.4603 15.647 24.5756 18.0688C24.9128 18.4367 25.5566 18.0688 25.342 17.609C24.5756 15.8309 22.6749 14.3288 21.0194 13.4091C19.5173 12.5507 17.9232 12.1829 16.2371 12.5507C15.8079 12.5814 15.8999 13.1945 16.3291 13.1639Z" fill="white"/>
<path d="M26.047 19.4791C26.1084 19.8163 26.3536 20.1229 26.5375 20.3988C26.7521 20.736 27.028 21.0426 27.2733 21.3491C27.4266 21.5331 27.6718 21.5637 27.8864 21.5024C27.9784 21.4717 28.0397 21.4104 28.101 21.3185C28.2236 21.1039 28.2543 20.8586 28.0703 20.6747C27.6412 20.1535 27.12 19.3565 26.4762 19.1112C26.2616 19.0499 26.0164 19.2645 26.047 19.4791Z" fill="white"/>
<path d="M29.3271 23.6791C29.3885 23.771 29.4804 23.863 29.5417 23.9856C29.695 24.1696 29.8483 24.2309 30.0629 24.2002C30.2162 24.2002 30.3695 24.0469 30.4001 23.9243C30.4614 23.7097 30.4308 23.5258 30.3081 23.3418C30.2468 23.2499 30.1549 23.1579 30.0629 23.0659C29.9096 22.882 29.5724 22.8207 29.3885 23.0046C29.2045 23.1886 29.1739 23.4645 29.3271 23.6791Z" fill="white"/>
</g>
<defs>
<clipPath id="clip0_5301_92123">
<rect width="50" height="50" fill="white"/>
</clipPath>
</defs>
</svg>
