<svg width="810" height="30" viewBox="0 0 810 30" fill="none" xmlns="http://www.w3.org/2000/svg">
<path d="M0 5C0 2.23858 2.23858 0 5 0H49C51.7614 0 54 2.23858 54 5V25C54 27.7614 51.7614 30 49 30H5C2.23858 30 0 27.7614 0 25V5Z" fill="#369CB7"/>
<path d="M22.436 8.4V21H20.654V9.966H17.81V8.4H22.436ZM30.3401 21.144C29.3441 21.144 28.4561 20.892 27.6761 20.388C26.9081 19.872 26.3021 19.128 25.8581 18.156C25.4141 17.184 25.1921 16.032 25.1921 14.7C25.1921 13.368 25.4141 12.216 25.8581 11.244C26.3021 10.272 26.9081 9.534 27.6761 9.03C28.4561 8.514 29.3441 8.256 30.3401 8.256C31.3241 8.256 32.2001 8.514 32.9681 9.03C33.7481 9.534 34.3601 10.272 34.8041 11.244C35.2481 12.216 35.4701 13.368 35.4701 14.7C35.4701 16.032 35.2481 17.184 34.8041 18.156C34.3601 19.128 33.7481 19.872 32.9681 20.388C32.2001 20.892 31.3241 21.144 30.3401 21.144ZM30.3401 19.542C31.3481 19.542 32.1521 19.128 32.7521 18.3C33.3641 17.472 33.6701 16.272 33.6701 14.7C33.6701 13.128 33.3641 11.928 32.7521 11.1C32.1521 10.272 31.3481 9.858 30.3401 9.858C29.3201 9.858 28.5041 10.272 27.8921 11.1C27.2921 11.928 26.9921 13.128 26.9921 14.7C26.9921 16.272 27.2921 17.472 27.8921 18.3C28.5041 19.128 29.3201 19.542 30.3401 19.542Z" fill="white"/>
<path d="M5 1H49V-1H5V1ZM53 5V25H55V5H53ZM49 29H5V31H49V29ZM1 25V5H-1V25H1ZM5 29C2.79086 29 1 27.2091 1 25H-1C-1 28.3137 1.68629 31 5 31V29ZM53 25C53 27.2091 51.2091 29 49 29V31C52.3137 31 55 28.3137 55 25H53ZM49 1C51.2091 1 53 2.79086 53 5H55C55 1.68629 52.3137 -1 49 -1V1ZM5 -1C1.68629 -1 -1 1.68629 -1 5H1C1 2.79086 2.79086 1 5 1V-1Z" fill="#369CB7"/>
<path d="M84 5C84 2.23858 86.2386 0 89 0H133C135.761 0 138 2.23858 138 5V25C138 27.7614 135.761 30 133 30H89C86.2386 30 84 27.7614 84 25V5Z" fill="#369CB7"/>
<path d="M109.575 19.434V21H100.521V19.776L105.651 14.826C106.275 14.226 106.695 13.71 106.911 13.278C107.127 12.834 107.235 12.39 107.235 11.946C107.235 11.286 107.001 10.776 106.533 10.416C106.077 10.044 105.417 9.858 104.553 9.858C103.161 9.858 102.087 10.314 101.331 11.226L100.107 10.164C100.599 9.564 101.241 9.096 102.033 8.76C102.837 8.424 103.731 8.256 104.715 8.256C106.035 8.256 107.085 8.574 107.865 9.21C108.645 9.834 109.035 10.686 109.035 11.766C109.035 12.438 108.891 13.074 108.603 13.674C108.315 14.274 107.769 14.958 106.965 15.726L103.113 19.434H109.575ZM116.151 21.144C115.155 21.144 114.267 20.892 113.487 20.388C112.719 19.872 112.113 19.128 111.669 18.156C111.225 17.184 111.003 16.032 111.003 14.7C111.003 13.368 111.225 12.216 111.669 11.244C112.113 10.272 112.719 9.534 113.487 9.03C114.267 8.514 115.155 8.256 116.151 8.256C117.135 8.256 118.011 8.514 118.779 9.03C119.559 9.534 120.171 10.272 120.615 11.244C121.059 12.216 121.281 13.368 121.281 14.7C121.281 16.032 121.059 17.184 120.615 18.156C120.171 19.128 119.559 19.872 118.779 20.388C118.011 20.892 117.135 21.144 116.151 21.144ZM116.151 19.542C117.159 19.542 117.963 19.128 118.563 18.3C119.175 17.472 119.481 16.272 119.481 14.7C119.481 13.128 119.175 11.928 118.563 11.1C117.963 10.272 117.159 9.858 116.151 9.858C115.131 9.858 114.315 10.272 113.703 11.1C113.103 11.928 112.803 13.128 112.803 14.7C112.803 16.272 113.103 17.472 113.703 18.3C114.315 19.128 115.131 19.542 116.151 19.542Z" fill="white"/>
<path d="M89 1H133V-1H89V1ZM137 5V25H139V5H137ZM133 29H89V31H133V29ZM85 25V5H83V25H85ZM89 29C86.7909 29 85 27.2091 85 25H83C83 28.3137 85.6863 31 89 31V29ZM137 25C137 27.2091 135.209 29 133 29V31C136.314 31 139 28.3137 139 25H137ZM133 1C135.209 1 137 2.79086 137 5H139C139 1.68629 136.314 -1 133 -1V1ZM89 -1C85.6863 -1 83 1.68629 83 5H85C85 2.79086 86.7909 1 89 1V-1Z" fill="#369CB7"/>
<path d="M168 5C168 2.23858 170.239 0 173 0H217C219.761 0 222 2.23858 222 5V25C222 27.7614 219.761 30 217 30H173C170.239 30 168 27.7614 168 25V5Z" fill="#369CB7"/>
<path d="M189.535 13.692C190.771 13.812 191.713 14.196 192.361 14.844C193.009 15.48 193.333 16.296 193.333 17.292C193.333 18.012 193.153 18.666 192.793 19.254C192.433 19.83 191.893 20.292 191.173 20.64C190.465 20.976 189.595 21.144 188.563 21.144C187.663 21.144 186.799 21.012 185.971 20.748C185.143 20.472 184.465 20.094 183.937 19.614L184.765 18.192C185.197 18.6 185.749 18.93 186.421 19.182C187.093 19.422 187.807 19.542 188.563 19.542C189.499 19.542 190.225 19.344 190.741 18.948C191.269 18.552 191.533 18.006 191.533 17.31C191.533 16.614 191.275 16.074 190.759 15.69C190.243 15.306 189.463 15.114 188.419 15.114H187.411V13.854L190.579 9.966H184.513V8.4H192.829V9.624L189.535 13.692ZM200.159 21.144C199.163 21.144 198.275 20.892 197.495 20.388C196.727 19.872 196.121 19.128 195.677 18.156C195.233 17.184 195.011 16.032 195.011 14.7C195.011 13.368 195.233 12.216 195.677 11.244C196.121 10.272 196.727 9.534 197.495 9.03C198.275 8.514 199.163 8.256 200.159 8.256C201.143 8.256 202.019 8.514 202.787 9.03C203.567 9.534 204.179 10.272 204.623 11.244C205.067 12.216 205.289 13.368 205.289 14.7C205.289 16.032 205.067 17.184 204.623 18.156C204.179 19.128 203.567 19.872 202.787 20.388C202.019 20.892 201.143 21.144 200.159 21.144ZM200.159 19.542C201.167 19.542 201.971 19.128 202.571 18.3C203.183 17.472 203.489 16.272 203.489 14.7C203.489 13.128 203.183 11.928 202.571 11.1C201.971 10.272 201.167 9.858 200.159 9.858C199.139 9.858 198.323 10.272 197.711 11.1C197.111 11.928 196.811 13.128 196.811 14.7C196.811 16.272 197.111 17.472 197.711 18.3C198.323 19.128 199.139 19.542 200.159 19.542Z" fill="white"/>
<path d="M173 1H217V-1H173V1ZM221 5V25H223V5H221ZM217 29H173V31H217V29ZM169 25V5H167V25H169ZM173 29C170.791 29 169 27.2091 169 25H167C167 28.3137 169.686 31 173 31V29ZM221 25C221 27.2091 219.209 29 217 29V31C220.314 31 223 28.3137 223 25H221ZM217 1C219.209 1 221 2.79086 221 5H223C223 1.68629 220.314 -1 217 -1V1ZM173 -1C169.686 -1 167 1.68629 167 5H169C169 2.79086 170.791 1 173 1V-1Z" fill="#369CB7"/>
<path d="M252 5C252 2.23858 254.239 0 257 0H301C303.761 0 306 2.23858 306 5V25C306 27.7614 303.761 30 301 30H257C254.239 30 252 27.7614 252 25V5Z" fill="#369CB7"/>
<path d="M278.803 17.904H276.409V21H274.663V17.904H267.661V16.644L274.105 8.4H276.049L269.875 16.356H274.717V13.62H276.409V16.356H278.803V17.904ZM285.03 21.144C284.034 21.144 283.146 20.892 282.366 20.388C281.598 19.872 280.992 19.128 280.548 18.156C280.104 17.184 279.882 16.032 279.882 14.7C279.882 13.368 280.104 12.216 280.548 11.244C280.992 10.272 281.598 9.534 282.366 9.03C283.146 8.514 284.034 8.256 285.03 8.256C286.014 8.256 286.89 8.514 287.658 9.03C288.438 9.534 289.05 10.272 289.494 11.244C289.938 12.216 290.16 13.368 290.16 14.7C290.16 16.032 289.938 17.184 289.494 18.156C289.05 19.128 288.438 19.872 287.658 20.388C286.89 20.892 286.014 21.144 285.03 21.144ZM285.03 19.542C286.038 19.542 286.842 19.128 287.442 18.3C288.054 17.472 288.36 16.272 288.36 14.7C288.36 13.128 288.054 11.928 287.442 11.1C286.842 10.272 286.038 9.858 285.03 9.858C284.01 9.858 283.194 10.272 282.582 11.1C281.982 11.928 281.682 13.128 281.682 14.7C281.682 16.272 281.982 17.472 282.582 18.3C283.194 19.128 284.01 19.542 285.03 19.542Z" fill="white"/>
<path d="M257 1H301V-1H257V1ZM305 5V25H307V5H305ZM301 29H257V31H301V29ZM253 25V5H251V25H253ZM257 29C254.791 29 253 27.2091 253 25H251C251 28.3137 253.686 31 257 31V29ZM305 25C305 27.2091 303.209 29 301 29V31C304.314 31 307 28.3137 307 25H305ZM301 1C303.209 1 305 2.79086 305 5H307C307 1.68629 304.314 -1 301 -1V1ZM257 -1C253.686 -1 251 1.68629 251 5H253C253 2.79086 254.791 1 257 1V-1Z" fill="#369CB7"/>
<path d="M336 5C336 2.23858 338.239 0 341 0H385C387.761 0 390 2.23858 390 5V25C390 27.7614 387.761 30 385 30H341C338.239 30 336 27.7614 336 25V5Z" fill="#369CB7"/>
<path d="M356.293 13.422C358.093 13.422 359.413 13.764 360.253 14.448C361.105 15.12 361.531 16.044 361.531 17.22C361.531 17.964 361.351 18.636 360.991 19.236C360.643 19.824 360.109 20.292 359.389 20.64C358.681 20.976 357.805 21.144 356.761 21.144C355.873 21.144 355.015 21.012 354.187 20.748C353.359 20.472 352.675 20.094 352.135 19.614L352.963 18.192C353.395 18.6 353.947 18.93 354.619 19.182C355.291 19.422 355.999 19.542 356.743 19.542C357.691 19.542 358.423 19.344 358.939 18.948C359.467 18.54 359.731 17.988 359.731 17.292C359.731 16.536 359.443 15.966 358.867 15.582C358.291 15.186 357.307 14.988 355.915 14.988H353.053L353.719 8.4H360.829V9.966H355.231L354.889 13.422H356.293ZM368.177 21.144C367.181 21.144 366.293 20.892 365.513 20.388C364.745 19.872 364.139 19.128 363.695 18.156C363.251 17.184 363.029 16.032 363.029 14.7C363.029 13.368 363.251 12.216 363.695 11.244C364.139 10.272 364.745 9.534 365.513 9.03C366.293 8.514 367.181 8.256 368.177 8.256C369.161 8.256 370.037 8.514 370.805 9.03C371.585 9.534 372.197 10.272 372.641 11.244C373.085 12.216 373.307 13.368 373.307 14.7C373.307 16.032 373.085 17.184 372.641 18.156C372.197 19.128 371.585 19.872 370.805 20.388C370.037 20.892 369.161 21.144 368.177 21.144ZM368.177 19.542C369.185 19.542 369.989 19.128 370.589 18.3C371.201 17.472 371.507 16.272 371.507 14.7C371.507 13.128 371.201 11.928 370.589 11.1C369.989 10.272 369.185 9.858 368.177 9.858C367.157 9.858 366.341 10.272 365.729 11.1C365.129 11.928 364.829 13.128 364.829 14.7C364.829 16.272 365.129 17.472 365.729 18.3C366.341 19.128 367.157 19.542 368.177 19.542Z" fill="white"/>
<path d="M341 1H385V-1H341V1ZM389 5V25H391V5H389ZM385 29H341V31H385V29ZM337 25V5H335V25H337ZM341 29C338.791 29 337 27.2091 337 25H335C335 28.3137 337.686 31 341 31V29ZM389 25C389 27.2091 387.209 29 385 29V31C388.314 31 391 28.3137 391 25H389ZM385 1C387.209 1 389 2.79086 389 5H391C391 1.68629 388.314 -1 385 -1V1ZM341 -1C337.686 -1 335 1.68629 335 5H337C337 2.79086 338.791 1 341 1V-1Z" fill="#369CB7"/>
<path d="M420 5C420 2.23858 422.239 0 425 0H469C471.761 0 474 2.23858 474 5V25C474 27.7614 471.761 30 469 30H425C422.239 30 420 27.7614 420 25V5Z" fill="#369CB7"/>
<path d="M441.742 13.35C442.57 13.35 443.308 13.506 443.956 13.818C444.616 14.13 445.132 14.58 445.504 15.168C445.876 15.744 446.062 16.41 446.062 17.166C446.062 17.958 445.864 18.654 445.468 19.254C445.084 19.854 444.55 20.322 443.866 20.658C443.194 20.982 442.438 21.144 441.598 21.144C439.906 21.144 438.598 20.598 437.674 19.506C436.762 18.414 436.306 16.866 436.306 14.862C436.306 13.458 436.552 12.264 437.044 11.28C437.548 10.284 438.244 9.534 439.132 9.03C440.032 8.514 441.076 8.256 442.264 8.256C442.876 8.256 443.452 8.322 443.992 8.454C444.532 8.574 445 8.754 445.396 8.994L444.712 10.398C444.112 10.002 443.308 9.804 442.3 9.804C440.992 9.804 439.966 10.212 439.222 11.028C438.478 11.832 438.106 13.008 438.106 14.556C438.106 14.748 438.112 14.898 438.124 15.006C438.484 14.466 438.976 14.058 439.6 13.782C440.236 13.494 440.95 13.35 441.742 13.35ZM441.526 19.686C442.354 19.686 443.026 19.464 443.542 19.02C444.058 18.576 444.316 17.982 444.316 17.238C444.316 16.494 444.052 15.906 443.524 15.474C443.008 15.03 442.312 14.808 441.436 14.808C440.872 14.808 440.368 14.916 439.924 15.132C439.492 15.348 439.15 15.642 438.898 16.014C438.658 16.386 438.538 16.8 438.538 17.256C438.538 17.7 438.652 18.108 438.88 18.48C439.12 18.84 439.462 19.134 439.906 19.362C440.362 19.578 440.902 19.686 441.526 19.686ZM452.564 21.144C451.568 21.144 450.68 20.892 449.9 20.388C449.132 19.872 448.526 19.128 448.082 18.156C447.638 17.184 447.416 16.032 447.416 14.7C447.416 13.368 447.638 12.216 448.082 11.244C448.526 10.272 449.132 9.534 449.9 9.03C450.68 8.514 451.568 8.256 452.564 8.256C453.548 8.256 454.424 8.514 455.192 9.03C455.972 9.534 456.584 10.272 457.028 11.244C457.472 12.216 457.694 13.368 457.694 14.7C457.694 16.032 457.472 17.184 457.028 18.156C456.584 19.128 455.972 19.872 455.192 20.388C454.424 20.892 453.548 21.144 452.564 21.144ZM452.564 19.542C453.572 19.542 454.376 19.128 454.976 18.3C455.588 17.472 455.894 16.272 455.894 14.7C455.894 13.128 455.588 11.928 454.976 11.1C454.376 10.272 453.572 9.858 452.564 9.858C451.544 9.858 450.728 10.272 450.116 11.1C449.516 11.928 449.216 13.128 449.216 14.7C449.216 16.272 449.516 17.472 450.116 18.3C450.728 19.128 451.544 19.542 452.564 19.542Z" fill="white"/>
<path d="M425 1H469V-1H425V1ZM473 5V25H475V5H473ZM469 29H425V31H469V29ZM421 25V5H419V25H421ZM425 29C422.791 29 421 27.2091 421 25H419C419 28.3137 421.686 31 425 31V29ZM473 25C473 27.2091 471.209 29 469 29V31C472.314 31 475 28.3137 475 25H473ZM469 1C471.209 1 473 2.79086 473 5H475C475 1.68629 472.314 -1 469 -1V1ZM425 -1C421.686 -1 419 1.68629 419 5H421C421 2.79086 422.791 1 425 1V-1Z" fill="#369CB7"/>
<path d="M504 5C504 2.23858 506.239 0 509 0H553C555.761 0 558 2.23858 558 5V25C558 27.7614 555.761 30 553 30H509C506.239 30 504 27.7614 504 25V5Z" fill="#369CB7"/>
<path d="M529.838 8.4V9.624L524.744 21H522.836L527.822 9.966H522.062V12.216H520.334V8.4H529.838ZM536.212 21.144C535.216 21.144 534.328 20.892 533.548 20.388C532.78 19.872 532.174 19.128 531.73 18.156C531.286 17.184 531.064 16.032 531.064 14.7C531.064 13.368 531.286 12.216 531.73 11.244C532.174 10.272 532.78 9.534 533.548 9.03C534.328 8.514 535.216 8.256 536.212 8.256C537.196 8.256 538.072 8.514 538.84 9.03C539.62 9.534 540.232 10.272 540.676 11.244C541.12 12.216 541.342 13.368 541.342 14.7C541.342 16.032 541.12 17.184 540.676 18.156C540.232 19.128 539.62 19.872 538.84 20.388C538.072 20.892 537.196 21.144 536.212 21.144ZM536.212 19.542C537.22 19.542 538.024 19.128 538.624 18.3C539.236 17.472 539.542 16.272 539.542 14.7C539.542 13.128 539.236 11.928 538.624 11.1C538.024 10.272 537.22 9.858 536.212 9.858C535.192 9.858 534.376 10.272 533.764 11.1C533.164 11.928 532.864 13.128 532.864 14.7C532.864 16.272 533.164 17.472 533.764 18.3C534.376 19.128 535.192 19.542 536.212 19.542Z" fill="white"/>
<path d="M509 1H553V-1H509V1ZM557 5V25H559V5H557ZM553 29H509V31H553V29ZM505 25V5H503V25H505ZM509 29C506.791 29 505 27.2091 505 25H503C503 28.3137 505.686 31 509 31V29ZM557 25C557 27.2091 555.209 29 553 29V31C556.314 31 559 28.3137 559 25H557ZM553 1C555.209 1 557 2.79086 557 5H559C559 1.68629 556.314 -1 553 -1V1ZM509 -1C505.686 -1 503 1.68629 503 5H505C505 2.79086 506.791 1 509 1V-1Z" fill="#369CB7"/>
<path d="M588 5C588 2.23858 590.239 0 593 0H637C639.761 0 642 2.23858 642 5V25C642 27.7614 639.761 30 637 30H593C590.239 30 588 27.7614 588 25V5Z" fill="#369CB7"/>
<path d="M611.773 14.394C612.493 14.67 613.045 15.066 613.429 15.582C613.813 16.098 614.005 16.716 614.005 17.436C614.005 18.192 613.801 18.852 613.393 19.416C612.985 19.968 612.403 20.394 611.647 20.694C610.891 20.994 610.003 21.144 608.983 21.144C607.975 21.144 607.093 20.994 606.337 20.694C605.593 20.394 605.017 19.968 604.609 19.416C604.201 18.852 603.997 18.192 603.997 17.436C603.997 16.716 604.183 16.098 604.555 15.582C604.939 15.066 605.491 14.67 606.211 14.394C605.635 14.118 605.197 13.752 604.897 13.296C604.597 12.84 604.447 12.3 604.447 11.676C604.447 10.98 604.633 10.374 605.005 9.858C605.389 9.342 605.923 8.946 606.607 8.67C607.291 8.394 608.083 8.256 608.983 8.256C609.895 8.256 610.693 8.394 611.377 8.67C612.073 8.946 612.607 9.342 612.979 9.858C613.363 10.374 613.555 10.98 613.555 11.676C613.555 12.288 613.399 12.828 613.087 13.296C612.787 13.752 612.349 14.118 611.773 14.394ZM608.983 9.714C608.131 9.714 607.459 9.9 606.967 10.272C606.475 10.632 606.229 11.124 606.229 11.748C606.229 12.372 606.469 12.864 606.949 13.224C607.441 13.584 608.119 13.764 608.983 13.764C609.859 13.764 610.543 13.584 611.035 13.224C611.539 12.864 611.791 12.372 611.791 11.748C611.791 11.124 611.533 10.632 611.017 10.272C610.513 9.9 609.835 9.714 608.983 9.714ZM608.983 19.686C609.979 19.686 610.765 19.482 611.341 19.074C611.917 18.654 612.205 18.09 612.205 17.382C612.205 16.686 611.917 16.14 611.341 15.744C610.765 15.336 609.979 15.132 608.983 15.132C607.987 15.132 607.207 15.336 606.643 15.744C606.079 16.14 605.797 16.686 605.797 17.382C605.797 18.09 606.079 18.654 606.643 19.074C607.207 19.482 607.987 19.686 608.983 19.686ZM620.801 21.144C619.805 21.144 618.917 20.892 618.137 20.388C617.369 19.872 616.763 19.128 616.319 18.156C615.875 17.184 615.653 16.032 615.653 14.7C615.653 13.368 615.875 12.216 616.319 11.244C616.763 10.272 617.369 9.534 618.137 9.03C618.917 8.514 619.805 8.256 620.801 8.256C621.785 8.256 622.661 8.514 623.429 9.03C624.209 9.534 624.821 10.272 625.265 11.244C625.709 12.216 625.931 13.368 625.931 14.7C625.931 16.032 625.709 17.184 625.265 18.156C624.821 19.128 624.209 19.872 623.429 20.388C622.661 20.892 621.785 21.144 620.801 21.144ZM620.801 19.542C621.809 19.542 622.613 19.128 623.213 18.3C623.825 17.472 624.131 16.272 624.131 14.7C624.131 13.128 623.825 11.928 623.213 11.1C622.613 10.272 621.809 9.858 620.801 9.858C619.781 9.858 618.965 10.272 618.353 11.1C617.753 11.928 617.453 13.128 617.453 14.7C617.453 16.272 617.753 17.472 618.353 18.3C618.965 19.128 619.781 19.542 620.801 19.542Z" fill="white"/>
<path d="M593 1H637V-1H593V1ZM641 5V25H643V5H641ZM637 29H593V31H637V29ZM589 25V5H587V25H589ZM593 29C590.791 29 589 27.2091 589 25H587C587 28.3137 589.686 31 593 31V29ZM641 25C641 27.2091 639.209 29 637 29V31C640.314 31 643 28.3137 643 25H641ZM637 1C639.209 1 641 2.79086 641 5H643C643 1.68629 640.314 -1 637 -1V1ZM593 -1C589.686 -1 587 1.68629 587 5H589C589 2.79086 590.791 1 593 1V-1Z" fill="#369CB7"/>
<path d="M672 5C672 2.23858 674.239 0 677 0H721C723.761 0 726 2.23858 726 5V25C726 27.7614 723.761 30 721 30H677C674.239 30 672 27.7614 672 25V5Z" fill="#369CB7"/>
<path d="M692.392 8.256C694.084 8.256 695.386 8.802 696.298 9.894C697.222 10.986 697.684 12.534 697.684 14.538C697.684 15.942 697.432 17.142 696.928 18.138C696.436 19.122 695.74 19.872 694.84 20.388C693.952 20.892 692.914 21.144 691.726 21.144C691.114 21.144 690.538 21.084 689.998 20.964C689.458 20.832 688.99 20.646 688.594 20.406L689.278 19.002C689.89 19.398 690.7 19.596 691.708 19.596C693.016 19.596 694.036 19.194 694.768 18.39C695.512 17.574 695.884 16.392 695.884 14.844V14.394C695.524 14.934 695.026 15.348 694.39 15.636C693.754 15.912 693.04 16.05 692.248 16.05C691.42 16.05 690.676 15.894 690.016 15.582C689.368 15.27 688.858 14.826 688.486 14.25C688.126 13.662 687.946 12.99 687.946 12.234C687.946 11.442 688.138 10.746 688.522 10.146C688.918 9.546 689.452 9.084 690.124 8.76C690.796 8.424 691.552 8.256 692.392 8.256ZM692.554 14.592C693.118 14.592 693.622 14.484 694.066 14.268C694.51 14.052 694.852 13.758 695.092 13.386C695.344 13.014 695.47 12.6 695.47 12.144C695.47 11.7 695.35 11.298 695.11 10.938C694.882 10.566 694.54 10.272 694.084 10.056C693.64 9.828 693.1 9.714 692.464 9.714C691.636 9.714 690.964 9.936 690.448 10.38C689.944 10.824 689.692 11.418 689.692 12.162C689.692 12.906 689.95 13.5 690.466 13.944C690.982 14.376 691.678 14.592 692.554 14.592ZM704.564 21.144C703.568 21.144 702.68 20.892 701.9 20.388C701.132 19.872 700.526 19.128 700.082 18.156C699.638 17.184 699.416 16.032 699.416 14.7C699.416 13.368 699.638 12.216 700.082 11.244C700.526 10.272 701.132 9.534 701.9 9.03C702.68 8.514 703.568 8.256 704.564 8.256C705.548 8.256 706.424 8.514 707.192 9.03C707.972 9.534 708.584 10.272 709.028 11.244C709.472 12.216 709.694 13.368 709.694 14.7C709.694 16.032 709.472 17.184 709.028 18.156C708.584 19.128 707.972 19.872 707.192 20.388C706.424 20.892 705.548 21.144 704.564 21.144ZM704.564 19.542C705.572 19.542 706.376 19.128 706.976 18.3C707.588 17.472 707.894 16.272 707.894 14.7C707.894 13.128 707.588 11.928 706.976 11.1C706.376 10.272 705.572 9.858 704.564 9.858C703.544 9.858 702.728 10.272 702.116 11.1C701.516 11.928 701.216 13.128 701.216 14.7C701.216 16.272 701.516 17.472 702.116 18.3C702.728 19.128 703.544 19.542 704.564 19.542Z" fill="white"/>
<path d="M677 1H721V-1H677V1ZM725 5V25H727V5H725ZM721 29H677V31H721V29ZM673 25V5H671V25H673ZM677 29C674.791 29 673 27.2091 673 25H671C671 28.3137 673.686 31 677 31V29ZM725 25C725 27.2091 723.209 29 721 29V31C724.314 31 727 28.3137 727 25H725ZM721 1C723.209 1 725 2.79086 725 5H727C727 1.68629 724.314 -1 721 -1V1ZM677 -1C673.686 -1 671 1.68629 671 5H673C673 2.79086 674.791 1 677 1V-1Z" fill="#369CB7"/>
<path d="M756 5C756 2.23858 758.239 0 761 0H805C807.761 0 810 2.23858 810 5V25C810 27.7614 807.761 30 805 30H761C758.239 30 756 27.7614 756 25V5Z" fill="#369CB7"/>
<path d="M772.433 8.4V21H770.651V9.966H767.807V8.4H772.433ZM780.337 21.144C779.341 21.144 778.453 20.892 777.673 20.388C776.905 19.872 776.299 19.128 775.855 18.156C775.411 17.184 775.189 16.032 775.189 14.7C775.189 13.368 775.411 12.216 775.855 11.244C776.299 10.272 776.905 9.534 777.673 9.03C778.453 8.514 779.341 8.256 780.337 8.256C781.321 8.256 782.197 8.514 782.965 9.03C783.745 9.534 784.357 10.272 784.801 11.244C785.245 12.216 785.467 13.368 785.467 14.7C785.467 16.032 785.245 17.184 784.801 18.156C784.357 19.128 783.745 19.872 782.965 20.388C782.197 20.892 781.321 21.144 780.337 21.144ZM780.337 19.542C781.345 19.542 782.149 19.128 782.749 18.3C783.361 17.472 783.667 16.272 783.667 14.7C783.667 13.128 783.361 11.928 782.749 11.1C782.149 10.272 781.345 9.858 780.337 9.858C779.317 9.858 778.501 10.272 777.889 11.1C777.289 11.928 776.989 13.128 776.989 14.7C776.989 16.272 777.289 17.472 777.889 18.3C778.501 19.128 779.317 19.542 780.337 19.542ZM792.343 21.144C791.347 21.144 790.459 20.892 789.679 20.388C788.911 19.872 788.305 19.128 787.861 18.156C787.417 17.184 787.195 16.032 787.195 14.7C787.195 13.368 787.417 12.216 787.861 11.244C788.305 10.272 788.911 9.534 789.679 9.03C790.459 8.514 791.347 8.256 792.343 8.256C793.327 8.256 794.203 8.514 794.971 9.03C795.751 9.534 796.363 10.272 796.807 11.244C797.251 12.216 797.473 13.368 797.473 14.7C797.473 16.032 797.251 17.184 796.807 18.156C796.363 19.128 795.751 19.872 794.971 20.388C794.203 20.892 793.327 21.144 792.343 21.144ZM792.343 19.542C793.351 19.542 794.155 19.128 794.755 18.3C795.367 17.472 795.673 16.272 795.673 14.7C795.673 13.128 795.367 11.928 794.755 11.1C794.155 10.272 793.351 9.858 792.343 9.858C791.323 9.858 790.507 10.272 789.895 11.1C789.295 11.928 788.995 13.128 788.995 14.7C788.995 16.272 789.295 17.472 789.895 18.3C790.507 19.128 791.323 19.542 792.343 19.542Z" fill="white"/>
<path d="M761 1H805V-1H761V1ZM809 5V25H811V5H809ZM805 29H761V31H805V29ZM757 25V5H755V25H757ZM761 29C758.791 29 757 27.2091 757 25H755C755 28.3137 757.686 31 761 31V29ZM809 25C809 27.2091 807.209 29 805 29V31C808.314 31 811 28.3137 811 25H809ZM805 1C807.209 1 809 2.79086 809 5H811C811 1.68629 808.314 -1 805 -1V1ZM761 -1C757.686 -1 755 1.68629 755 5H757C757 2.79086 758.791 1 761 1V-1Z" fill="#369CB7"/>
</svg>
