<svg width="360" height="125" viewBox="0 0 360 125" fill="none" xmlns="http://www.w3.org/2000/svg">
<path d="M43.0463 16.16C42.1823 16.16 41.345 16.0373 40.5343 15.792C39.7343 15.5467 39.0996 15.2213 38.6303 14.816L39.3503 13.2C39.809 13.5627 40.369 13.8613 41.0303 14.096C41.7023 14.32 42.3743 14.432 43.0463 14.432C43.8783 14.432 44.497 14.2987 44.9023 14.032C45.3183 13.7653 45.5263 13.4133 45.5263 12.976C45.5263 12.656 45.409 12.3947 45.1743 12.192C44.9503 11.9787 44.6623 11.8133 44.3103 11.696C43.9583 11.5787 43.4783 11.4453 42.8703 11.296C42.017 11.0933 41.3236 10.8907 40.7903 10.688C40.2676 10.4853 39.8143 10.1707 39.4303 9.744C39.057 9.30667 38.8703 8.72 38.8703 7.984C38.8703 7.36533 39.0356 6.80533 39.3663 6.304C39.7076 5.792 40.2143 5.38667 40.8863 5.088C41.569 4.78933 42.401 4.64 43.3823 4.64C44.065 4.64 44.737 4.72533 45.3983 4.896C46.0596 5.06667 46.6303 5.312 47.1103 5.632L46.4543 7.248C45.9636 6.96 45.4516 6.74133 44.9183 6.592C44.385 6.44267 43.8676 6.368 43.3663 6.368C42.545 6.368 41.9316 6.50667 41.5263 6.784C41.1316 7.06133 40.9343 7.42933 40.9343 7.888C40.9343 8.208 41.0463 8.46933 41.2703 8.672C41.505 8.87467 41.7983 9.03467 42.1503 9.152C42.5023 9.26933 42.9823 9.40267 43.5903 9.552C44.4223 9.744 45.105 9.94667 45.6383 10.16C46.1716 10.3627 46.625 10.6773 46.9983 11.104C47.3823 11.5307 47.5743 12.1067 47.5743 12.832C47.5743 13.4507 47.4036 14.0107 47.0623 14.512C46.7316 15.0133 46.225 15.4133 45.5423 15.712C44.8596 16.0107 44.0276 16.16 43.0463 16.16ZM49.4448 7.456H51.4448V16H49.4448V7.456ZM50.4528 6.048C50.0901 6.048 49.7861 5.936 49.5408 5.712C49.2955 5.47733 49.1728 5.18933 49.1728 4.848C49.1728 4.50667 49.2955 4.224 49.5408 4C49.7861 3.76533 50.0901 3.648 50.4528 3.648C50.8155 3.648 51.1195 3.76 51.3648 3.984C51.6101 4.19733 51.7328 4.46933 51.7328 4.8C51.7328 5.152 51.6101 5.45067 51.3648 5.696C51.1301 5.93067 50.8261 6.048 50.4528 6.048ZM59.5098 16L57.3178 13.04L55.1098 16H52.9018L56.2298 11.664L53.0458 7.456H55.2698L57.3658 10.256L59.4618 7.456H61.6218L58.4218 11.632L61.7658 16H59.5098Z" fill="#2F2F2F"/>
<path d="M30.2132 58.4258L35.4546 67.4247L45.6328 69.6288L38.6939 77.3945L39.743 87.7556L30.2132 83.5562L20.6833 87.7556L21.7324 77.3945L14.7935 69.6288L24.9717 67.4247L30.2132 58.4258Z" fill="#D53232"/>
<path d="M70.2132 58.4258L75.4546 67.4247L85.6328 69.6288L78.6939 77.3945L79.743 87.7556L70.2132 83.5562L60.6833 87.7556L61.7324 77.3945L54.7935 69.6288L64.9717 67.4247L70.2132 58.4258Z" fill="#D53232"/>
<path d="M30.2132 29L35.4546 37.999L45.6328 40.203L38.6939 47.9687L39.743 58.3299L30.2132 54.1304L20.6833 58.3299L21.7324 47.9687L14.7935 40.203L24.9717 37.999L30.2132 29Z" fill="#D53232"/>
<path d="M70.2132 29L75.4546 37.999L85.6328 40.203L78.6939 47.9687L79.743 58.3299L70.2132 54.1304L60.6833 58.3299L61.7324 47.9687L54.7935 40.203L64.9717 37.999L70.2132 29Z" fill="#D53232"/>
<path d="M30.2132 87.8525L35.4546 96.8515L45.6328 99.0556L38.6939 106.821L39.743 117.182L30.2132 112.983L20.6833 117.182L21.7324 106.821L14.7935 99.0556L24.9717 96.8515L30.2132 87.8525Z" fill="#D53232"/>
<path d="M70.2132 87.8525L75.4546 96.8515L85.6328 99.0556L78.6939 106.821L79.743 117.182L70.2132 112.983L60.6833 117.182L61.7324 106.821L54.7935 99.0556L64.9717 96.8515L70.2132 87.8525Z" fill="#D53232"/>
<path d="M167.81 14.256V16H159.41V4.8H167.586V6.544H161.49V9.456H166.898V11.168H161.49V14.256H167.81ZM169.937 7.456H171.937V16H169.937V7.456ZM170.945 6.048C170.582 6.048 170.278 5.936 170.033 5.712C169.788 5.47733 169.665 5.18933 169.665 4.848C169.665 4.50667 169.788 4.224 170.033 4C170.278 3.76533 170.582 3.648 170.945 3.648C171.308 3.648 171.612 3.76 171.857 3.984C172.102 4.19733 172.225 4.46933 172.225 4.8C172.225 5.152 172.102 5.45067 171.857 5.696C171.622 5.93067 171.318 6.048 170.945 6.048ZM183.042 7.456V14.704C183.042 17.712 181.506 19.216 178.434 19.216C177.613 19.216 176.834 19.1093 176.098 18.896C175.362 18.6933 174.754 18.3947 174.274 18L175.17 16.496C175.543 16.8053 176.013 17.0507 176.578 17.232C177.154 17.424 177.735 17.52 178.322 17.52C179.261 17.52 179.949 17.3067 180.386 16.88C180.823 16.4533 181.042 15.8027 181.042 14.928V14.48C180.701 14.8533 180.285 15.136 179.794 15.328C179.303 15.52 178.765 15.616 178.178 15.616C177.367 15.616 176.631 15.4453 175.97 15.104C175.319 14.752 174.802 14.2613 174.418 13.632C174.045 13.0027 173.858 12.2827 173.858 11.472C173.858 10.6613 174.045 9.94667 174.418 9.328C174.802 8.69867 175.319 8.21333 175.97 7.872C176.631 7.53067 177.367 7.36 178.178 7.36C178.797 7.36 179.357 7.46133 179.858 7.664C180.37 7.86667 180.797 8.176 181.138 8.592V7.456H183.042ZM178.482 13.92C179.239 13.92 179.858 13.696 180.338 13.248C180.829 12.7893 181.074 12.1973 181.074 11.472C181.074 10.7573 180.829 10.176 180.338 9.728C179.858 9.28 179.239 9.056 178.482 9.056C177.714 9.056 177.085 9.28 176.594 9.728C176.114 10.176 175.874 10.7573 175.874 11.472C175.874 12.1973 176.114 12.7893 176.594 13.248C177.085 13.696 177.714 13.92 178.482 13.92ZM190.519 7.36C191.597 7.36 192.461 7.67467 193.111 8.304C193.762 8.93333 194.087 9.86667 194.087 11.104V16H192.087V11.36C192.087 10.6133 191.911 10.0533 191.559 9.68C191.207 9.296 190.706 9.104 190.055 9.104C189.319 9.104 188.738 9.328 188.311 9.776C187.885 10.2133 187.671 10.848 187.671 11.68V16H185.671V4.128H187.671V8.448C188.002 8.096 188.407 7.82933 188.887 7.648C189.378 7.456 189.922 7.36 190.519 7.36ZM201.761 15.536C201.526 15.728 201.238 15.872 200.897 15.968C200.566 16.064 200.214 16.112 199.841 16.112C198.902 16.112 198.177 15.8667 197.664 15.376C197.153 14.8853 196.897 14.1707 196.897 13.232V9.12H195.489V7.52H196.897V5.568H198.897V7.52H201.185V9.12H198.897V13.184C198.897 13.6 198.998 13.92 199.201 14.144C199.403 14.3573 199.697 14.464 200.081 14.464C200.529 14.464 200.902 14.3467 201.201 14.112L201.761 15.536Z" fill="#2F2F2F"/>
<rect x="150" y="47.2227" width="17.7778" height="27.7778" transform="rotate(-90 150 47.2227)" fill="#9DD765"/>
<rect x="181.111" y="47.2227" width="17.7778" height="27.7778" transform="rotate(-90 181.111 47.2227)" fill="#9DD765"/>
<rect x="150" y="71.667" width="17.7778" height="27.7778" transform="rotate(-90 150 71.667)" fill="#9DD765"/>
<rect x="181.111" y="71.667" width="17.7778" height="27.7778" transform="rotate(-90 181.111 71.667)" fill="#9DD765"/>
<rect x="150" y="96.1113" width="18.8889" height="27.7778" transform="rotate(-90 150 96.1113)" fill="#9DD765"/>
<rect x="181.111" y="96.1113" width="18.8889" height="27.7778" transform="rotate(-90 181.111 96.1113)" fill="#9DD765"/>
<rect x="150" y="119.444" width="17.7778" height="27.7778" transform="rotate(-90 150 119.444)" fill="#9DD765"/>
<rect x="181.111" y="119.444" width="17.7778" height="27.7778" transform="rotate(-90 181.111 119.444)" fill="#9DD765"/>
<path d="M290.253 6.56H286.541V4.8H296.045V6.56H292.333V16H290.253V6.56ZM302.262 7.36C303.339 7.36 304.203 7.67467 304.854 8.304C305.504 8.93333 305.83 9.86667 305.83 11.104V16H303.83V11.36C303.83 10.6133 303.654 10.0533 303.302 9.68C302.95 9.296 302.448 9.104 301.798 9.104C301.062 9.104 300.48 9.328 300.054 9.776C299.627 10.2133 299.414 10.848 299.414 11.68V16H297.414V4.128H299.414V8.448C299.744 8.096 300.15 7.82933 300.63 7.648C301.12 7.456 301.664 7.36 302.262 7.36ZM310.271 8.704C310.847 7.808 311.86 7.36 313.311 7.36V9.264C313.14 9.232 312.985 9.216 312.847 9.216C312.068 9.216 311.46 9.44533 311.023 9.904C310.585 10.352 310.367 11.0027 310.367 11.856V16H308.367V7.456H310.271V8.704ZM322.961 11.776C322.961 11.9147 322.951 12.112 322.929 12.368H316.225C316.343 12.9973 316.647 13.4987 317.137 13.872C317.639 14.2347 318.257 14.416 318.993 14.416C319.932 14.416 320.705 14.1067 321.313 13.488L322.385 14.72C322.001 15.1787 321.516 15.5253 320.929 15.76C320.343 15.9947 319.681 16.112 318.945 16.112C318.007 16.112 317.18 15.9253 316.465 15.552C315.751 15.1787 315.196 14.6613 314.801 14C314.417 13.328 314.225 12.5707 314.225 11.728C314.225 10.896 314.412 10.1493 314.785 9.488C315.169 8.816 315.697 8.29333 316.369 7.92C317.041 7.54667 317.799 7.36 318.641 7.36C319.473 7.36 320.215 7.54667 320.865 7.92C321.527 8.28267 322.039 8.8 322.401 9.472C322.775 10.1333 322.961 10.9013 322.961 11.776ZM318.641 8.96C318.001 8.96 317.457 9.152 317.009 9.536C316.572 9.90933 316.305 10.4107 316.209 11.04H321.057C320.972 10.4213 320.711 9.92 320.273 9.536C319.836 9.152 319.292 8.96 318.641 8.96ZM332.914 11.776C332.914 11.9147 332.904 12.112 332.882 12.368H326.178C326.296 12.9973 326.6 13.4987 327.09 13.872C327.592 14.2347 328.21 14.416 328.946 14.416C329.885 14.416 330.658 14.1067 331.266 13.488L332.338 14.72C331.954 15.1787 331.469 15.5253 330.882 15.76C330.296 15.9947 329.634 16.112 328.898 16.112C327.96 16.112 327.133 15.9253 326.418 15.552C325.704 15.1787 325.149 14.6613 324.754 14C324.37 13.328 324.178 12.5707 324.178 11.728C324.178 10.896 324.365 10.1493 324.738 9.488C325.122 8.816 325.65 8.29333 326.322 7.92C326.994 7.54667 327.752 7.36 328.594 7.36C329.426 7.36 330.168 7.54667 330.818 7.92C331.48 8.28267 331.992 8.8 332.354 9.472C332.728 10.1333 332.914 10.9013 332.914 11.776ZM328.594 8.96C327.954 8.96 327.41 9.152 326.962 9.536C326.525 9.90933 326.258 10.4107 326.162 11.04H331.01C330.925 10.4213 330.664 9.92 330.226 9.536C329.789 9.152 329.245 8.96 328.594 8.96Z" fill="#2F2F2F"/>
<g clip-path="url(#clip0_5347_107706)">
<g filter="url(#filter0_d_5347_107706)">
<path d="M287.14 35L307.669 49.9147L299.828 74.0471H274.453L266.612 49.9147L287.14 35Z" fill="#59C6F2"/>
<path d="M267.458 50.1895L287.14 35.8893L306.823 50.1895L299.305 73.3276H274.976L267.458 50.1895Z" stroke="white" stroke-width="1.43898"/>
</g>
<g filter="url(#filter1_d_5347_107706)">
<path d="M331.029 35L352.241 50.4118L344.139 75.3487H317.919L309.816 50.4118L331.029 35Z" fill="#59C6F2"/>
<path d="M310.662 50.6866L331.029 35.8893L351.396 50.6866L343.616 74.6292H318.441L310.662 50.6866Z" stroke="white" stroke-width="1.43898"/>
</g>
<g filter="url(#filter2_d_5347_107706)">
<path d="M294.306 76.8873L319.138 80.064L323.79 104.662L301.833 116.688L283.611 99.5224L294.306 76.8873Z" fill="#59C6F2"/>
<path d="M284.485 99.3572L294.733 77.6673L318.528 80.7114L322.986 104.283L301.946 115.806L284.485 99.3572Z" stroke="white" stroke-width="1.43898"/>
</g>
</g>
<defs>
<filter id="filter0_d_5347_107706" x="255.1" y="23.4882" width="64.0803" height="62.0706" filterUnits="userSpaceOnUse" color-interpolation-filters="sRGB">
<feFlood flood-opacity="0" result="BackgroundImageFix"/>
<feColorMatrix in="SourceAlpha" type="matrix" values="0 0 0 0 0 0 0 0 0 0 0 0 0 0 0 0 0 0 127 0" result="hardAlpha"/>
<feMorphology radius="2.87796" operator="dilate" in="SourceAlpha" result="effect1_dropShadow_5347_107706"/>
<feOffset/>
<feGaussianBlur stdDeviation="4.31694"/>
<feColorMatrix type="matrix" values="0 0 0 0 0 0 0 0 0 0 0 0 0 0 0 0 0 0 0.07 0"/>
<feBlend mode="normal" in2="BackgroundImageFix" result="effect1_dropShadow_5347_107706"/>
<feBlend mode="normal" in="SourceGraphic" in2="effect1_dropShadow_5347_107706" result="shape"/>
</filter>
<filter id="filter1_d_5347_107706" x="298.305" y="23.4882" width="65.4485" height="63.3723" filterUnits="userSpaceOnUse" color-interpolation-filters="sRGB">
<feFlood flood-opacity="0" result="BackgroundImageFix"/>
<feColorMatrix in="SourceAlpha" type="matrix" values="0 0 0 0 0 0 0 0 0 0 0 0 0 0 0 0 0 0 127 0" result="hardAlpha"/>
<feMorphology radius="2.87796" operator="dilate" in="SourceAlpha" result="effect1_dropShadow_5347_107706"/>
<feOffset/>
<feGaussianBlur stdDeviation="4.31694"/>
<feColorMatrix type="matrix" values="0 0 0 0 0 0 0 0 0 0 0 0 0 0 0 0 0 0 0.07 0"/>
<feBlend mode="normal" in2="BackgroundImageFix" result="effect1_dropShadow_5347_107706"/>
<feBlend mode="normal" in="SourceGraphic" in2="effect1_dropShadow_5347_107706" result="shape"/>
</filter>
<filter id="filter2_d_5347_107706" x="272.099" y="65.3759" width="63.2034" height="62.8245" filterUnits="userSpaceOnUse" color-interpolation-filters="sRGB">
<feFlood flood-opacity="0" result="BackgroundImageFix"/>
<feColorMatrix in="SourceAlpha" type="matrix" values="0 0 0 0 0 0 0 0 0 0 0 0 0 0 0 0 0 0 127 0" result="hardAlpha"/>
<feMorphology radius="2.87796" operator="dilate" in="SourceAlpha" result="effect1_dropShadow_5347_107706"/>
<feOffset/>
<feGaussianBlur stdDeviation="4.31694"/>
<feColorMatrix type="matrix" values="0 0 0 0 0 0 0 0 0 0 0 0 0 0 0 0 0 0 0.07 0"/>
<feBlend mode="normal" in2="BackgroundImageFix" result="effect1_dropShadow_5347_107706"/>
<feBlend mode="normal" in="SourceGraphic" in2="effect1_dropShadow_5347_107706" result="shape"/>
</filter>
<clipPath id="clip0_5347_107706">
<rect x="260" y="25" width="100" height="100" rx="5" fill="white"/>
</clipPath>
</defs>
</svg>
