<svg width="100" height="100" viewBox="0 0 100 100" fill="none" xmlns="http://www.w3.org/2000/svg">
<path d="M30.2132 33.4258L35.4546 42.4247L45.6328 44.6288L38.6939 52.3945L39.743 62.7556L30.2132 58.5562L20.6833 62.7556L21.7324 52.3945L14.7935 44.6288L24.9717 42.4247L30.2132 33.4258Z" fill="#D53232"/>
<path d="M70.2132 33.4258L75.4546 42.4247L85.6328 44.6288L78.6939 52.3945L79.743 62.7556L70.2132 58.5562L60.6833 62.7556L61.7324 52.3945L54.7935 44.6288L64.9717 42.4247L70.2132 33.4258Z" fill="#D53232"/>
<path d="M30.2132 4L35.4546 12.999L45.6328 15.203L38.6939 22.9687L39.743 33.3299L30.2132 29.1304L20.6833 33.3299L21.7324 22.9687L14.7935 15.203L24.9717 12.999L30.2132 4Z" fill="#D53232"/>
<path d="M70.2132 4L75.4546 12.999L85.6328 15.203L78.6939 22.9687L79.743 33.3299L70.2132 29.1304L60.6833 33.3299L61.7324 22.9687L54.7935 15.203L64.9717 12.999L70.2132 4Z" fill="#D53232"/>
<path d="M30.2132 62.8525L35.4546 71.8515L45.6328 74.0556L38.6939 81.8213L39.743 92.1824L30.2132 87.9829L20.6833 92.1824L21.7324 81.8213L14.7935 74.0556L24.9717 71.8515L30.2132 62.8525Z" fill="#D53232"/>
<path d="M70.2132 62.8525L75.4546 71.8515L85.6328 74.0556L78.6939 81.8213L79.743 92.1824L70.2132 87.9829L60.6833 92.1824L61.7324 81.8213L54.7935 74.0556L64.9717 71.8515L70.2132 62.8525Z" fill="#D53232"/>
</svg>
