<svg width="87" height="220" viewBox="0 0 87 220" fill="none" xmlns="http://www.w3.org/2000/svg">
<path d="M45.5669 219.218C68.4498 219.218 87 216.447 87 213.029C87 209.611 68.4498 206.84 45.5669 206.84C22.684 206.84 4.13379 209.611 4.13379 213.029C4.13379 216.447 22.684 219.218 45.5669 219.218Z" fill="#EAE6F2"/>
<path d="M76.0297 120.789C75.9383 122.99 75.8286 124.082 75.8286 124.082C78.6444 128.964 78.2422 138.314 76.3771 138.148C75.4629 138.065 75.28 135.55 75.2435 134.59C75.2435 134.359 75.2435 134.226 75.2435 134.226C75.2435 134.226 75.2435 134.359 75.2435 134.59C75.2435 135.683 75.1521 138.876 73.7441 138.744C72.4459 138.612 72.5008 134.475 72.5008 134.475C72.5008 134.475 72.2996 139.505 70.9283 139.489C69.2278 139.472 69.9226 135.153 70.0141 134.657C70.0141 134.623 70.0141 134.607 70.0141 134.607C70.0141 134.607 70.0141 134.623 70.0141 134.657C69.9226 135.12 69.2278 138.794 67.8565 138.512C65.7355 138.099 68.1125 132.72 67.4359 131.38C67.0337 131.827 67.1068 134.077 65.3515 133.713C63.8521 133.035 65.1869 126.73 66.5948 124.694C66.7228 124.248 66.6497 122.957 66.4851 121.186C69.6484 121.567 72.903 121.219 76.0297 120.789Z" fill="#FFD3A6"/>
<path d="M62.809 68.9756C62.809 68.9756 65.9905 69.985 69.428 75.0323C70.8725 77.1504 74.0723 82.6941 75.6082 94.2614C76.5773 101.625 78.6801 122.029 76.8516 125.107C76.8516 125.107 71.9513 127.391 66.7402 126.051C66.7585 126.067 62.2422 77.6469 62.809 68.9756Z" fill="#369CB7"/>
<g opacity="0.7">
<path opacity="0.7" d="M64.6562 77.0508C66.1007 80.1288 68.9897 99.06 69.4285 104.173C69.8673 109.287 69.9405 123.833 69.7942 126.464C68.8068 126.431 67.7829 126.315 66.7407 126.05C66.759 126.067 64.9488 89.8757 64.6562 77.0508Z" fill="#0E80A4"/>
</g>
<path d="M4.33426 121.286C4.42569 123.487 4.5354 124.579 4.5354 124.579C1.71956 129.461 2.12182 138.811 3.98686 138.645C4.90109 138.563 5.08393 136.047 5.1205 135.087C5.1205 134.856 5.1205 134.723 5.1205 134.723C5.1205 134.723 5.1205 134.856 5.1205 135.087C5.1205 136.18 5.21193 139.373 6.61985 139.241C7.91806 139.109 7.8632 134.972 7.8632 134.972C7.8632 134.972 8.06434 140.002 9.43569 139.986C11.1362 139.969 10.4414 135.65 10.3499 135.154C10.3499 135.12 10.3499 135.104 10.3499 135.104C10.3499 135.104 10.3499 135.12 10.3499 135.154C10.4414 135.617 11.1362 139.291 12.5075 139.009C14.6285 138.596 12.2515 133.217 12.9281 131.877C13.3303 132.324 13.2572 134.574 15.0125 134.21C16.5119 133.532 15.1771 127.227 13.7692 125.192C13.6412 124.745 13.7143 123.454 13.8789 121.683C10.7339 122.064 7.47923 121.716 4.33426 121.286Z" fill="#FFD3A6"/>
<path d="M17.2626 69.918C17.2626 69.918 14.3737 70.4806 10.9361 75.5278C9.49165 77.646 4.86561 84.7784 3.01885 96.1139C1.99491 102.419 1.48294 123.187 3.51254 125.603C3.51254 125.603 8.41284 127.887 13.624 126.546C13.624 126.563 17.8478 78.6058 17.2626 69.918Z" fill="#369CB7"/>
<g opacity="0.7">
<path opacity="0.7" d="M15.7079 77.5479C14.2634 80.6258 11.3745 99.5571 10.9356 104.671C10.4968 109.784 10.4237 124.33 10.5699 126.961C11.5573 126.928 12.5812 126.812 13.6235 126.547C13.6235 126.564 15.4336 90.3728 15.7079 77.5479Z" fill="#0E80A4"/>
</g>
<path d="M57.3782 205.3C57.3782 205.3 56.1714 208.329 56.5554 211.092C56.8845 213.475 64.3447 215.378 68.0382 215.693C71.4392 215.974 77.6194 215.809 77.6194 211.672C77.6194 209.636 75.0778 209.189 72.6094 207.683C68.6416 205.979 68.7879 204.274 68.7879 204.274C68.7879 204.274 67.4714 202.951 64.8201 204.109C62.955 204.936 62.3882 206.525 62.3882 206.525C62.3882 206.525 60.3952 207.303 57.3782 205.3Z" fill="#852117"/>
<path d="M75.919 209.403C75.9007 209.403 75.8824 209.419 75.8641 209.419C74.2368 208.426 69.6656 210.23 68.6051 213.275C64.6922 213.242 59.5907 211.786 56.3543 209.419C56.2995 210.015 56.1898 210.627 56.2812 211.124C56.6652 213.49 64.1985 215.41 67.892 215.724C71.293 216.006 78.1132 215.807 77.6743 211.571C77.656 210.512 76.7235 209.767 75.919 209.403Z" fill="#FFF1D7"/>
<path d="M68.203 209.172C68.1298 209.139 68.1116 209.073 68.1116 209.006C68.2213 208.51 68.459 207.865 68.6967 207.302C67.8739 207.302 66.923 207.385 65.9174 207.616C65.8442 207.633 65.7711 207.616 65.7163 207.567C65.6797 207.517 65.6614 207.451 65.7163 207.385C65.7528 207.335 66.7768 206.044 69.4829 205.829C69.556 205.829 69.6109 205.846 69.6475 205.895C69.684 205.945 69.684 205.995 69.6658 206.044C69.6658 206.061 69.4646 206.458 69.2269 206.987C70.9457 207.07 72.0793 207.5 72.1525 207.534C72.2256 207.567 72.2622 207.633 72.2622 207.699C72.2439 207.765 72.1891 207.815 72.0976 207.831C70.1229 208.013 68.4224 209.139 68.4224 209.155C68.4041 209.172 68.3675 209.188 68.3493 209.188C68.2944 209.188 68.2395 209.188 68.203 209.172ZM69.0989 207.302C68.9161 207.732 68.715 208.229 68.587 208.659C69.1172 208.361 70.1412 207.848 71.348 207.616C70.836 207.5 70.068 207.335 69.0989 207.302ZM66.4294 207.186C67.307 207.021 68.1116 206.971 68.8429 206.971C68.9892 206.64 69.1172 206.359 69.2086 206.16C67.7824 206.342 66.9048 206.839 66.4294 207.186Z" fill="#FFF1EC"/>
<path d="M33.7575 205.73C33.7575 205.73 34.9826 208.808 34.5803 211.621C34.2329 214.038 26.6448 215.974 22.8781 216.288C19.4223 216.569 13.1141 216.387 13.1324 212.184C13.1324 210.116 15.7288 209.652 18.2521 208.113C22.293 206.392 22.1467 204.655 22.1467 204.655C22.1467 204.655 23.4998 203.298 26.1876 204.506C28.0892 205.35 28.6561 206.971 28.6561 206.971C28.6561 206.971 30.6857 207.766 33.7575 205.73Z" fill="#852117"/>
<path d="M14.8668 209.866C14.8851 209.866 14.9034 209.882 14.9217 209.882C16.5856 208.873 21.2299 210.726 22.3087 213.821C26.2947 213.804 31.4876 212.315 34.7971 209.915C34.852 210.527 34.9617 211.14 34.8703 211.653C34.468 214.069 26.7884 216.005 23.0218 216.319C19.566 216.601 12.5995 216.402 13.0749 212.066C13.0932 210.991 14.044 210.246 14.8668 209.866Z" fill="#FFF1D7"/>
<path d="M22.5829 209.668C22.5463 209.668 22.528 209.651 22.5098 209.635C22.4915 209.618 20.7727 208.46 18.7614 208.278C18.6882 208.261 18.6151 208.211 18.5968 208.145C18.5785 208.079 18.6334 208.013 18.7065 207.98C18.7797 207.947 19.9316 207.516 21.6869 207.434C21.4492 206.888 21.2481 206.49 21.2298 206.474C21.2115 206.424 21.2115 206.358 21.2481 206.325C21.2847 206.275 21.3578 206.259 21.4127 206.259C24.1737 206.474 25.1976 207.781 25.2525 207.847C25.289 207.897 25.289 207.98 25.2525 208.029C25.1976 208.079 25.1245 208.112 25.0513 208.096C24.0274 207.847 23.0583 207.765 22.2172 207.765C22.4549 208.344 22.7109 208.989 22.8206 209.502C22.8389 209.568 22.8023 209.635 22.7292 209.668C22.6743 209.668 22.6195 209.668 22.5829 209.668ZM19.511 208.063C20.7361 208.311 21.7784 208.824 22.3269 209.122C22.1989 208.675 21.9978 208.178 21.8149 207.732C20.8276 207.781 20.0413 207.93 19.511 208.063ZM21.6869 206.59C21.7784 206.788 21.9246 207.07 22.0709 207.417C22.8023 207.401 23.6434 207.467 24.5211 207.632C24.0457 207.268 23.1497 206.755 21.6869 206.59Z" fill="#FFF1EC"/>
<path d="M40.7208 120.822C33.5532 121.55 20.8271 120.458 14.3726 117.363C12.8184 137.023 15.9085 187.859 19.3277 205.483C19.8031 207.949 35.7291 210.183 38.289 207.866C39.5872 188.107 37.265 141.706 40.8488 140.779C45.4566 141.242 51.07 191.682 54.1418 208.329C58.2376 210.183 66.7217 208.693 71.6403 206.526C72.7374 204.937 71.2563 190.11 70.8723 174.389C70.3603 153.571 67.3068 128.815 66.2828 119.101C60.6694 120.954 49.918 119.895 40.7208 120.822Z" fill="#494840"/>
<path opacity="0.5" d="M51.272 167.785C49.6081 156.351 46.0974 143.493 45.8963 140.712C45.7134 137.767 51.4548 136.542 49.7361 136.029C44.3604 137.237 38.619 137.767 32.0913 136.542C32.2742 137.535 36.6991 138.826 36.8819 139.322C37.6133 143.459 36.0225 149.235 35.9311 153.372C35.7483 161.183 35.1814 169.589 35.3643 174.719C35.9128 186.799 35.5288 190.755 34.7975 202.835C34.6695 205.003 34.4135 206.823 32.5301 208.759C35.1814 208.875 37.467 208.627 38.3081 207.865C39.6063 188.107 37.2842 141.705 40.868 140.779C45.4757 141.242 51.0891 191.681 54.161 208.329C55.3678 208.875 56.8122 209.123 58.3664 209.173C54.9106 207.865 53.3747 182.365 51.272 167.785Z" fill="#494840"/>
<path opacity="0.5" d="M39.8259 119.498C32.6583 120.226 21.2304 118.422 14.7759 115.328C15.1781 119.101 15.6353 123.271 16.0558 129.179C16.7141 129.658 17.6283 129.774 20.1333 130.37C22.6383 130.966 29.8242 132.207 34.5965 130.85C34.5233 130.37 34.5233 129.658 34.5965 128.649C34.6696 126.15 34.7245 125.488 34.7245 124.247C36.4249 124.181 41.8555 124.346 45.3113 123.949C45.5673 125.439 45.4393 128.533 45.6404 129.956C45.9147 131.876 59.0796 131.644 66.3569 128.401C66.0461 122.758 65.717 118.025 65.3696 114.864C59.7745 116.718 49.0231 118.571 39.8259 119.498Z" fill="#494840"/>
<path d="M58.0188 67.3202C58.0188 67.3202 52.6065 64.7552 45.5669 64.4243C40.8494 64.2091 33.5721 64.4243 28.9644 65.2848C24.192 66.1949 18.1398 68.8427 16.933 70.1003C16.933 70.1003 17.317 80.4099 16.2016 89.5446C14.2452 105.646 15.0497 109.816 14.2817 116.402C14.6657 118.653 22.5647 123.717 39.2952 123.518C59.7009 123.287 65.3509 117.296 65.9726 115.244C65.9726 115.244 64.4367 101.757 63.1019 87.807C62.3705 79.8473 58.0188 67.3202 58.0188 67.3202Z" fill="white"/>
<path d="M35.0533 75.9916C27.392 74.5519 25.7281 67.8499 25.0881 66.1123C21.1752 66.9563 18.0302 68.8593 16.8234 70.117C16.8234 70.117 14.8121 87.5424 13.6967 96.677C11.7403 112.779 12.7094 118.719 11.9414 125.322C12.2705 127.275 22.4551 131.164 33.7368 130.088C34.651 129.707 33.627 116.005 33.7368 111.637C34.4133 95.9489 34.7973 91.696 35.0533 75.9916Z" fill="#369CB7"/>
<path d="M68.4594 124.809C68.4594 124.809 65.9727 103.66 64.6196 89.6935C63.8517 81.7172 62.8826 69.1074 62.8826 69.1074C62.8826 69.1074 60.2496 66.8403 58.3846 66.6748C56.4647 72.748 44.6162 74.5187 42.6963 75.975C43.8665 93.4831 45.567 111.934 46.3715 129.294C46.4081 130.154 47.6514 130.353 48.6023 130.402C57.324 130.866 67.9292 126.53 68.4594 124.809Z" fill="#369CB7"/>
<path opacity="0.7" d="M34.961 75.9926C34.961 75.9926 32.1451 77.3826 27.0437 75.9926C23.6976 75.0824 19.7847 73.6262 18.7608 70.4986C16.9689 64.9218 32.1634 62.7043 40.1355 62.4064C48.1077 62.1251 57.6888 63.3166 59.499 67.2716C61.8029 71.9714 46.718 77.5978 42.8782 75.9098C43.5182 74.7515 48.6196 68.6948 46.718 65.8154C44.7981 62.9194 30.1155 63.7965 29.1647 65.8154C28.2139 67.8343 31.7795 74.5529 34.961 75.9926Z" fill="#0E80A4"/>
<path d="M35.2176 76.0749C35.2176 76.0749 19.4013 74.8338 18.7614 69.0584C18.1214 63.2831 32.164 60.685 40.1362 60.3871C48.1083 60.1058 57.6895 62.9852 59.2802 67.023C60.871 71.0608 42.4035 76.7534 42.7326 75.9756C43.1166 75.2972 48.1997 69.257 46.2798 66.3776C44.3599 63.4817 30.8658 64.1436 29.915 66.1625C28.9825 68.1814 32.0361 74.6352 35.2176 76.0749Z" fill="#369CB7"/>
<path d="M46.7554 61.8936C46.7554 61.8936 47.4319 66.9408 46.4628 69.059C45.2743 70.8793 42.0562 72.4679 38.5639 72.5176C34.3584 72.5838 31.4328 70.9289 30.2443 68.9928C29.4946 67.2221 29.6409 62.4397 29.6409 62.4397C29.6409 62.4397 38.4541 63.9124 46.7554 61.8936Z" fill="#FFD3A6"/>
<path opacity="0.4" d="M39.0576 67.2048C44.4699 66.9731 53.6306 66.0464 57.0315 64.4412C53.3563 61.8266 46.2801 60.1718 40.1547 60.3869C34.2671 60.602 25.1064 62.0748 20.9375 65.1363C23.7168 66.5098 33.7002 67.4365 39.0576 67.2048Z" fill="#684A82"/>
<path d="M64.638 44.7819C64.7843 50.9876 61.2736 56.101 55.5139 59.3279C49.3886 62.7534 40.7948 64.0773 33.1152 63.316C26.807 62.6872 21.0107 61.3799 16.9149 58.3185C11.3747 54.1648 9.3268 45.5101 10.113 37.087C12.1061 20.7207 26.0573 11.5364 41.4164 14.4489C64.254 18.7845 64.2906 30.8152 64.638 44.7819Z" fill="#FFD3A6"/>
<path opacity="0.4" d="M41.4162 14.4493C26.4776 11.6195 12.8555 20.2412 10.314 35.7966C11.5208 35.9787 14.172 35.1512 15.2874 34.9196C20.4071 33.2978 22.583 32.7352 26.7885 30.7494C28.0684 30.2529 30.1894 29.1608 31.4694 28.4988C30.9391 29.5083 30.2808 30.4681 30.1529 30.8652C35.8211 29.8723 42.3305 26.9267 45.0732 22.4587C45.6034 23.1868 47.1393 24.9906 49.3152 26.2483C52.7162 28.2175 55.2394 29.5414 58.2381 30.3853C61.0905 31.1962 62.4985 33.3475 63.431 34.1749C62.1145 24.9906 58.2016 17.6266 41.4162 14.4493Z" fill="#FFAA7E"/>
<path opacity="0.6" d="M53.3381 35.8108C53.3381 35.8108 50.4309 34.4703 47.7979 35.5956C47.7979 35.5956 47.7796 34.1394 49.0778 33.6595C51.016 32.9479 52.5336 33.4444 53.521 34.4703C53.5027 34.4703 54.9837 36.1417 53.3381 35.8108Z" fill="#FFAA7E"/>
<path d="M53.4123 35.3645C53.4123 35.3645 50.5051 34.0241 47.8721 35.1494C47.8721 35.1494 47.8538 33.6931 49.152 33.2132C51.0902 32.5016 52.6078 32.9981 53.5952 34.0241C53.5769 34.0075 55.058 35.6954 53.4123 35.3645Z" fill="#775313"/>
<path d="M43.7742 19.0492C43.7742 19.0492 45.6758 24.808 58.2191 29.2595C64.6187 31.99 64.893 39.8504 63.8691 46.6352C63.8691 46.6352 66.4106 45.1293 68.0562 41.406C69.519 38.0798 73.1942 26.8765 67.4163 16.4677C69.8847 17.3116 71.4755 14.7301 71.1646 13.5055C70.3418 14.366 69.2447 15.4417 65.4598 12.2313C60.9984 8.47482 55.129 2.13682 44.7067 0.415792C35.1987 -1.1563 29.6401 2.23611 29.6401 2.23611C29.6401 2.23611 39.331 15.392 43.7742 19.0492Z" fill="#CEA036"/>
<path opacity="0.3" d="M67.4177 16.4845C69.8861 17.3284 71.4769 14.7469 71.1661 13.5223C70.3981 14.3167 69.4107 15.3096 66.2109 12.877C66.7777 13.8037 67.2531 15.1606 66.8326 15.6074C66.412 16.0542 65.0224 15.1441 64.3641 14.8793C65.9732 18.371 67.052 24.0636 65.2235 27.605C64.5835 28.9454 63.0659 31.3118 61.5117 31.1463C65.2235 35.5481 64.7298 40.9594 63.8705 46.6686C63.8705 46.6686 66.412 45.1627 68.0576 41.4393C69.5204 38.08 73.1957 26.8768 67.4177 16.4845Z" fill="#C78741"/>
<path d="M64.2349 39.3048C64.2349 39.3048 66.5753 37.2031 69.2815 39.9502C71.6219 42.3166 69.9946 46.3047 68.3672 47.6617C67.1787 48.6546 65.204 49.5647 63.4121 48.7704C63.4304 48.7704 64.1983 43.3095 64.2349 39.3048Z" fill="#FFD3A6"/>
<path opacity="0.4" d="M63.8877 46.6861C63.8877 46.6861 66.5939 46.9509 67.1607 44.5183C67.7275 42.0691 65.9356 41.0266 64.2717 41.1424C64.2717 41.1424 64.29 43.3434 63.8877 46.6861Z" fill="#FFAA7E"/>
<path d="M41.4529 9.35217C36.7355 3.11346 32.8591 2.60046 32.8591 2.60046C32.8591 2.60046 26.2584 0.2506 15.3241 5.6619C10.7895 7.91247 7.88223 12.6287 4.97496 15.6902C3.31106 17.4277 0.988904 16.4845 0.93405 17.2126C0.769488 19.2812 3.42076 18.8509 5.79777 17.8084C-0.492161 23.0542 0.568356 34.969 2.21398 35.0517C3.20135 35.1013 2.63452 34.307 3.32934 33.1652C3.36591 36.6569 4.06073 39.95 5.34066 42.9949C7.58967 48.3896 11.8866 51.5504 11.8866 51.5504C9.27186 39.5032 10.6798 36.6569 11.9597 34.3567C15.5069 33.8768 20.4987 32.1557 23.6619 31.047C25.6001 30.3685 34.4316 27.0589 35.2361 24.4277C35.5653 24.9407 35.0716 26.4797 32.4203 28.8792C32.4203 28.8792 38.6919 29.7562 46.2069 20.5885C47.0663 18.702 43.6105 12.1819 41.4529 9.35217Z" fill="#CEA036"/>
<path opacity="0.3" d="M7.07766 26.4131C5.21263 26.6282 5.17606 28.6968 4.2984 30.0703C4.02413 30.4509 3.5853 30.2027 3.36588 30.1861C2.30538 29.0939 1.66541 27.6377 1.35457 26.1152C0.458627 30.6991 1.22658 35.0182 2.21395 35.0679C3.20132 35.1175 2.6345 34.3232 3.32931 33.1814C3.36588 36.6731 4.0607 39.9662 5.34062 43.0111C7.58963 48.4058 11.8865 51.5665 11.8865 51.5665C9.78379 45.1458 10.2226 39.7676 10.8626 35.978C7.71763 35.9449 5.77945 31.692 7.07766 26.4131Z" fill="#C78741"/>
<path d="M10.7897 39.5862C10.7897 39.5862 8.65035 37.981 5.5968 40.5957C3.64033 42.2836 4.66428 45.7422 6.32819 47.2646C7.80925 48.6216 9.72914 49.3497 11.6125 48.2575C11.6125 48.2741 10.0583 43.7729 10.7897 39.5862Z" fill="#FFD3A6"/>
<path opacity="0.6" d="M10.9536 46.8022C10.9536 46.8022 8.02808 47.1498 7.38813 44.833C6.74817 42.5162 8.68633 41.4406 10.4782 41.5068C10.4782 41.4902 10.4782 43.6084 10.9536 46.8022Z" fill="#FFAA7E"/>
<path opacity="0.3" d="M19.7671 6.10847C20.9556 5.64512 22.9121 4.95009 24.2103 4.91699C24.4663 4.91699 24.5577 5.21486 24.3383 5.3307C22.9669 6.10847 21.7418 6.8035 20.7728 7.7633C20.6082 7.92878 20.791 8.19356 21.0287 8.12736C22.5646 7.66401 24.5028 6.8366 26.1119 7.18411C26.313 7.23376 26.3679 7.48198 26.185 7.58127C25.3439 8.09427 24.5577 8.7231 23.8994 9.41813C23.7349 9.58362 23.936 9.84839 24.1737 9.76565C27.081 8.85549 29.6042 8.55762 32.5481 8.82239C32.8406 8.85549 32.8406 9.21955 32.5664 9.2692C28.9826 9.76565 25.5268 10.8909 22.3635 12.8271C18.67 15.0777 16.9147 17.1131 15.5433 18.7845C15.3788 18.9831 15.0314 18.8176 15.1045 18.5859C15.4702 17.4606 16.4576 15.9382 17.3718 14.7963C17.5364 14.5812 17.2438 14.333 17.0244 14.4985C16.3113 15.0115 15.5799 15.6237 14.9948 16.1202C14.8119 16.2691 14.5194 16.1202 14.5925 15.8885C14.9765 14.7136 15.7079 13.5387 16.5124 12.4465C16.677 12.2313 16.3661 11.9831 16.1467 12.1486C14.8668 13.1911 13.5503 14.2833 12.307 15.2928C12.1058 15.4583 11.795 15.2431 11.923 15.0115C12.8189 13.5883 14.0074 12.1486 15.1959 10.924C15.3788 10.742 15.1411 10.4607 14.8851 10.5765C13.5503 11.255 11.5207 12.5292 9.98479 13.9358C9.78366 14.1179 9.45453 13.8862 9.60081 13.671C11.7767 10.411 16.7684 7.2503 19.7671 6.10847Z" fill="#C8D69A"/>
<path opacity="0.6" d="M25.6917 36.2414C25.6917 36.2414 22.8393 35.3147 20.5903 36.6386C20.5903 36.6386 20.3709 35.2982 21.5046 34.719C23.1867 33.8585 24.6495 34.1564 25.6735 34.9838C25.6735 35.0003 27.2459 36.3738 25.6917 36.2414Z" fill="#FFAA7E"/>
<path d="M26.0951 35.9274C26.0951 35.9274 22.877 34.7359 20.628 36.0432C20.628 36.0432 20.5183 34.8021 21.6336 34.2229C23.3158 33.3624 24.87 33.8257 25.9123 34.6531C25.894 34.6531 27.1008 35.9108 26.0951 35.9274Z" fill="#775313"/>
<path d="M37.3028 46.2042C36.7726 46.0718 35.8218 44.9796 36.096 43.8709C36.3155 42.9938 38.8022 43.06 39.1862 43.5564C39.5702 44.0529 38.3451 46.4855 37.3028 46.2042Z" fill="url(#paint0_radial_5308_116152)"/>
<path d="M38.1093 46.0719C37.9996 46.0719 38.0179 45.8899 38.0911 45.8071C39.3527 44.4502 39.2796 43.871 39.1333 43.6558C38.859 43.2587 37.9082 43.2587 37.122 43.4242C36.738 43.5069 36.5186 43.3745 36.4089 43.2587C35.8604 42.6795 36.5552 40.9585 36.7014 40.611C36.738 40.5117 36.866 40.462 36.9757 40.5117C37.0854 40.5448 37.0306 40.5613 36.994 40.6441C36.6649 41.4053 36.4455 42.7126 36.738 43.0105C36.7563 43.027 36.8294 43.1097 37.0489 43.0601C37.9814 42.8615 39.2978 42.8781 39.7001 43.4738C40.0658 44.0199 39.5355 44.8804 38.8407 45.592C38.5665 45.8237 38.3288 46.0553 38.1093 46.0719Z" fill="#3C2415"/>
<path d="M23.4422 46.602C25.8052 46.602 27.7208 44.8683 27.7208 42.7297C27.7208 40.5911 25.8052 38.8574 23.4422 38.8574C21.0792 38.8574 19.1636 40.5911 19.1636 42.7297C19.1636 44.8683 21.0792 46.602 23.4422 46.602Z" fill="white"/>
<path d="M23.2953 45.5262C25.0726 45.5262 26.5134 44.2222 26.5134 42.6137C26.5134 41.0051 25.0726 39.7012 23.2953 39.7012C21.5179 39.7012 20.0771 41.0051 20.0771 42.6137C20.0771 44.2222 21.5179 45.5262 23.2953 45.5262Z" fill="black"/>
<path d="M24.3196 42.4316C24.6932 42.4316 24.9961 42.1575 24.9961 41.8193C24.9961 41.4812 24.6932 41.207 24.3196 41.207C23.946 41.207 23.6431 41.4812 23.6431 41.8193C23.6431 42.1575 23.946 42.4316 24.3196 42.4316Z" fill="white"/>
<path d="M51.2908 45.9897C53.6538 45.9897 55.5694 44.256 55.5694 42.1174C55.5694 39.9788 53.6538 38.2451 51.2908 38.2451C48.9278 38.2451 47.0122 39.9788 47.0122 42.1174C47.0122 44.256 48.9278 45.9897 51.2908 45.9897Z" fill="white"/>
<path d="M51.2538 44.8319C53.0311 44.8319 54.4719 43.5279 54.4719 41.9193C54.4719 40.3108 53.0311 39.0068 51.2538 39.0068C49.4765 39.0068 48.0356 40.3108 48.0356 41.9193C48.0356 43.5279 49.4765 44.8319 51.2538 44.8319Z" fill="black"/>
<path d="M52.3323 41.3564C52.7059 41.3564 53.0088 41.0823 53.0088 40.7441C53.0088 40.406 52.7059 40.1318 52.3323 40.1318C51.9586 40.1318 51.6558 40.406 51.6558 40.7441C51.6558 41.0823 51.9586 41.3564 52.3323 41.3564Z" fill="white"/>
<path d="M37.6134 57.1104C36.0958 57.1104 34.6513 56.6139 33.609 55.6707C32.6765 54.8267 31.9086 52.7416 32.0183 51.3847C32.0366 51.153 32.256 50.9875 32.512 51.0041C32.768 51.0206 32.9508 51.2192 32.9325 51.4509C32.8228 52.6423 33.5908 54.4792 34.249 55.0749C35.7301 56.4154 38.2899 56.647 40.4658 55.6045C41.9651 54.8929 42.7148 53.5525 42.7331 51.5336C42.7331 51.3019 42.9525 51.1199 43.2085 51.1199C43.4645 51.1199 43.6656 51.3185 43.6656 51.5502C43.6291 53.8835 42.6965 55.4887 40.8863 56.3492C39.8441 56.8622 38.7105 57.1104 37.6134 57.1104Z" fill="#961F1B"/>
<defs>
<radialGradient id="paint0_radial_5308_116152" cx="0" cy="0" r="1" gradientUnits="userSpaceOnUse" gradientTransform="translate(39.6578 43.5182) rotate(2.38137) scale(3.18721 2.88563)">
<stop stop-color="#FFA993"/>
<stop offset="0.2975" stop-color="#FFAE95"/>
<stop offset="0.6294" stop-color="#FFBB9B"/>
<stop offset="0.9769" stop-color="#FFD1A5"/>
<stop offset="1" stop-color="#FFD3A6"/>
</radialGradient>
</defs>
</svg>
