<svg width="50" height="50" viewBox="0 0 50 50" fill="none" xmlns="http://www.w3.org/2000/svg">
<path d="M37.5527 23.5641C38.7315 23.0342 39.9104 22.4353 41.02 21.7442C43.7475 20.0855 47.9083 16.7452 44.9264 13.3818C43.7244 12.0226 41.0662 11.7001 39.4019 11.8844C35.2643 12.276 31.8663 15.7085 29.5779 18.9106C28.3528 20.6384 26.4805 24.9924 29.601 26.0751C31.1035 26.5819 33.6693 25.1306 35.1256 24.5777C35.9577 24.2552 36.7668 23.9327 37.5527 23.5641Z" fill="#F43A1C"/>
<path d="M24.8859 37.4318C25.1171 38.6988 25.4176 39.9658 25.8105 41.2098C26.7814 44.2737 29.0235 49.1115 33.0225 47.0382C34.6405 46.2088 35.5883 43.7209 35.8194 42.0622C36.4204 37.9616 33.9008 33.838 31.3351 30.8663C29.9481 29.2537 26.1573 26.3971 24.3543 29.1615C23.499 30.4746 24.2849 33.3312 24.4698 34.8747C24.6085 35.7271 24.7241 36.5794 24.8859 37.4318Z" fill="#F43A1C"/>
<path d="M12.0573 25.1534C10.786 25.4068 9.51463 25.7063 8.26641 26.1209C5.19209 27.1115 0.384119 29.3922 2.4876 33.3545C3.34287 34.9671 5.83931 35.8655 7.50361 36.0959C11.6181 36.6488 15.7326 34.1147 18.6914 31.5346C20.2863 30.1293 23.1295 26.3283 20.3326 24.5775C18.9919 23.7251 16.1487 24.5544 14.6 24.7617C13.7447 24.8539 12.8895 24.9921 12.0573 25.1534Z" fill="#F43A1C"/>
<path d="M22.7828 12.8979C22.4823 11.6308 22.1356 10.3868 21.6964 9.16589C20.5869 6.14805 18.1367 1.42549 14.2302 3.66007C12.6584 4.55851 11.8262 7.09257 11.6413 8.75122C11.2252 12.8748 13.9066 16.8832 16.6111 19.7398C18.0673 21.2833 21.9738 23.9786 23.6612 21.122C24.4702 19.7629 23.5456 16.9754 23.2914 15.4319C23.1527 14.5796 22.9909 13.7272 22.7828 12.8979Z" fill="#F43A1C"/>
<path d="M46.9384 31.4195C47.5856 26.9964 43.0088 25.0153 39.1716 24.3702C36.3747 23.9095 28.8854 22.8728 27.198 26.0519C25.5799 29.1158 29.9256 31.742 32.0984 32.7787C35.9124 34.5525 45.9213 38.3075 46.9384 31.4195Z" fill="#F43A1C"/>
<path d="M32.2375 3.31446C27.9612 1.90921 25.2336 6.07888 23.9391 9.74175C23.0145 12.414 20.703 19.5785 23.5693 21.767C26.32 23.8864 29.6486 20.0623 31.0355 18.1041C33.4626 14.6947 38.8716 5.50296 32.2375 3.31446Z" fill="#F43A1C"/>
<path d="M15.6403 46.4849C19.986 47.6598 22.4824 43.3519 23.5688 39.6199C24.3547 36.9015 26.2733 29.6219 23.2914 27.5716C20.4252 25.6135 17.3046 29.5989 16.0333 31.6261C13.8142 35.1738 8.89067 44.665 15.6403 46.4849Z" fill="#F43A1C"/>
<path d="M2.02537 19.7164C1.44748 24.1625 6.07053 26.0516 9.93077 26.6045C12.7277 27.0191 20.2402 27.8945 21.8582 24.6924C23.4301 21.6054 19.0151 19.0714 16.8422 18.0808C13.0051 16.3761 2.90375 12.8054 2.02537 19.7164Z" fill="#F43A1C"/>
<path d="M25.419 15.5704C20.3336 15.3631 15.3639 20.5695 16.2423 25.7528C17.5367 33.2397 27.9848 35.244 32.1918 29.4617C35.5435 24.8543 32.8852 18.2658 27.8692 16.1233C27.0602 15.8008 26.2511 15.6165 25.419 15.5704Z" fill="#F88686"/>
</svg>
