<svg width="50" height="50" viewBox="0 0 50 50" fill="none" xmlns="http://www.w3.org/2000/svg">
<path d="M37.8229 23.5286C39.0262 22.9878 40.2295 22.3765 41.362 21.671C44.1461 19.978 48.393 16.5685 45.3494 13.1354C44.1225 11.7481 41.4092 11.4189 39.7104 11.607C35.4871 12.0068 32.0188 15.5104 29.683 18.7788C28.4325 20.5424 26.5214 24.9865 29.7066 26.0917C31.2402 26.609 33.8591 25.1276 35.3456 24.5633C36.1949 24.2341 37.0207 23.9049 37.8229 23.5286Z" fill="#0F8AB5"/>
<path d="M24.8944 37.6836C25.1304 38.9769 25.4371 40.2702 25.8382 41.5399C26.8291 44.6673 29.1177 49.6052 33.1995 47.489C34.8511 46.6425 35.8184 44.103 36.0544 42.41C36.6678 38.2245 34.0961 34.0155 31.4771 30.9822C30.0615 29.3362 26.1921 26.4204 24.3518 29.2421C23.4788 30.5824 24.281 33.4982 24.4697 35.0736C24.6113 35.9436 24.7293 36.8136 24.8944 37.6836Z" fill="#0F8AB5"/>
<path d="M11.7999 25.1507C10.5023 25.4093 9.20461 25.715 7.93053 26.1382C4.79254 27.1493 -0.115009 29.4772 2.03204 33.5216C2.90502 35.1676 5.45317 36.0847 7.15193 36.3198C11.3517 36.8841 15.5514 34.2976 18.5714 31.664C20.1994 30.2297 23.1014 26.3499 20.2466 24.5628C18.8781 23.6928 15.9761 24.5393 14.3953 24.7509C13.5223 24.845 12.6493 24.9861 11.7999 25.1507Z" fill="#0F8AB5"/>
<path d="M22.7472 12.6413C22.4404 11.348 22.0865 10.0782 21.6382 8.83199C20.5057 5.75165 18.0048 0.931285 14.0174 3.21214C12.413 4.12919 11.5636 6.71573 11.3749 8.40874C10.9502 12.6177 13.6871 16.7092 16.4476 19.6249C17.934 21.2004 21.9214 23.9515 23.6437 21.0358C24.4695 19.6484 23.5258 16.8032 23.2662 15.2278C23.1247 14.3578 22.9595 13.4878 22.7472 12.6413Z" fill="#0F8AB5"/>
<path d="M47.4034 31.5463C48.064 27.0316 43.3924 25.0094 39.4758 24.351C36.621 23.8808 28.9765 22.8226 27.2542 26.0676C25.6026 29.1949 30.0382 31.8755 32.2561 32.9336C36.1491 34.7442 46.3653 38.577 47.4034 31.5463Z" fill="#0F8AB5"/>
<path d="M32.3981 2.8593C28.0332 1.42495 25.2492 5.68098 23.9279 9.41971C22.9841 12.1473 20.6247 19.4602 23.5504 21.694C26.3581 23.8573 29.7556 19.954 31.1712 17.9553C33.6486 14.4752 39.1696 5.09313 32.3981 2.8593Z" fill="#0F8AB5"/>
<path d="M15.4572 46.9236C19.8929 48.1229 22.4411 43.7257 23.55 39.9165C24.3522 37.1418 26.3105 29.7114 23.2668 27.6187C20.3412 25.62 17.156 29.6879 15.8583 31.7571C13.5933 35.3783 8.56781 45.066 15.4572 46.9236Z" fill="#0F8AB5"/>
<path d="M1.56038 19.6019C0.970533 24.1401 5.68933 26.0682 9.62952 26.6326C12.4844 27.0558 20.1524 27.9493 21.804 24.6809C23.4084 21.53 18.9019 18.9435 16.6841 17.9324C12.7675 16.1923 2.45695 12.5477 1.56038 19.6019Z" fill="#0F8AB5"/>
<path d="M25.4387 15.3684C20.248 15.1568 15.1753 20.471 16.0719 25.7616C17.3932 33.4037 28.0576 35.4494 32.3517 29.5474C35.7729 24.8446 33.0596 18.1196 27.9397 15.9328C27.1139 15.6036 26.2881 15.4155 25.4387 15.3684Z" fill="#EDB544"/>
</svg>
