<svg width="170" height="46" viewBox="0 0 170 46" fill="none" xmlns="http://www.w3.org/2000/svg">
<path d="M0 5.75977C0 2.99834 2.23858 0.759766 5 0.759766H165C167.761 0.759766 170 2.99834 170 5.75977V40.7598C170 43.5212 167.761 45.7598 165 45.7598H5C2.23858 45.7598 0 43.5212 0 40.7598V5.75977Z" fill="#BBEDF4"/>
<path d="M68.0427 22.7618C68.8707 22.9418 69.5067 23.3018 69.9507 23.8418C70.4067 24.3698 70.6347 25.0538 70.6347 25.8938C70.6347 26.9738 70.2327 27.8078 69.4287 28.3958C68.6367 28.9718 67.4607 29.2598 65.9007 29.2598H60.1047V16.6598H65.5407C66.9447 16.6598 68.0307 16.9418 68.7987 17.5058C69.5787 18.0698 69.9687 18.8678 69.9687 19.8998C69.9687 20.5958 69.7947 21.1898 69.4467 21.6818C69.1107 22.1618 68.6427 22.5218 68.0427 22.7618ZM61.4367 17.7578V22.3298H65.4507C66.4707 22.3298 67.2567 22.1378 67.8087 21.7538C68.3607 21.3578 68.6367 20.7878 68.6367 20.0438C68.6367 19.2998 68.3607 18.7358 67.8087 18.3518C67.2567 17.9558 66.4707 17.7578 65.4507 17.7578H61.4367ZM65.8827 28.1618C67.0107 28.1618 67.8627 27.9698 68.4387 27.5858C69.0147 27.2018 69.3027 26.6018 69.3027 25.7858C69.3027 24.2138 68.1627 23.4278 65.8827 23.4278H61.4367V28.1618H65.8827ZM74.629 21.6458C74.929 21.0098 75.373 20.5298 75.961 20.2058C76.561 19.8818 77.299 19.7198 78.175 19.7198V20.9618L77.869 20.9438C76.873 20.9438 76.093 21.2498 75.529 21.8618C74.965 22.4738 74.683 23.3318 74.683 24.4358V29.2598H73.405V19.7918H74.629V21.6458ZM89.1617 19.7918V29.2598H87.9377V27.5318C87.6017 28.1078 87.1397 28.5578 86.5517 28.8818C85.9637 29.1938 85.2917 29.3498 84.5357 29.3498C83.2997 29.3498 82.3217 29.0078 81.6017 28.3238C80.8937 27.6278 80.5397 26.6138 80.5397 25.2818V19.7918H81.8177V25.1558C81.8177 26.1518 82.0637 26.9078 82.5557 27.4238C83.0477 27.9398 83.7497 28.1978 84.6617 28.1978C85.6577 28.1978 86.4437 27.8978 87.0197 27.2978C87.5957 26.6858 87.8837 25.8398 87.8837 24.7598V19.7918H89.1617ZM95.279 29.3498C94.511 29.3498 93.773 29.2418 93.065 29.0258C92.369 28.7978 91.823 28.5158 91.427 28.1798L92.003 27.1718C92.399 27.4838 92.897 27.7418 93.497 27.9458C94.097 28.1378 94.721 28.2338 95.369 28.2338C96.233 28.2338 96.869 28.1018 97.277 27.8378C97.697 27.5618 97.907 27.1778 97.907 26.6858C97.907 26.3378 97.793 26.0678 97.565 25.8758C97.337 25.6718 97.049 25.5218 96.701 25.4258C96.353 25.3178 95.891 25.2158 95.315 25.1198C94.547 24.9758 93.929 24.8318 93.461 24.6878C92.993 24.5318 92.591 24.2738 92.255 23.9138C91.931 23.5538 91.769 23.0558 91.769 22.4198C91.769 21.6278 92.099 20.9798 92.759 20.4758C93.419 19.9718 94.337 19.7198 95.513 19.7198C96.125 19.7198 96.737 19.8038 97.349 19.9718C97.961 20.1278 98.465 20.3378 98.861 20.6018L98.303 21.6278C97.523 21.0878 96.593 20.8178 95.513 20.8178C94.697 20.8178 94.079 20.9618 93.659 21.2498C93.251 21.5378 93.047 21.9158 93.047 22.3838C93.047 22.7438 93.161 23.0318 93.389 23.2478C93.629 23.4638 93.923 23.6258 94.271 23.7338C94.619 23.8298 95.099 23.9318 95.711 24.0398C96.467 24.1838 97.073 24.3278 97.529 24.4718C97.985 24.6158 98.375 24.8618 98.699 25.2098C99.023 25.5578 99.185 26.0378 99.185 26.6498C99.185 27.4778 98.837 28.1378 98.141 28.6298C97.457 29.1098 96.503 29.3498 95.279 29.3498ZM106.372 19.7198C107.56 19.7198 108.502 20.0678 109.198 20.7638C109.906 21.4478 110.26 22.4498 110.26 23.7698V29.2598H108.982V23.8958C108.982 22.9118 108.736 22.1618 108.244 21.6458C107.752 21.1298 107.05 20.8718 106.138 20.8718C105.118 20.8718 104.308 21.1778 103.708 21.7898C103.12 22.3898 102.826 23.2238 102.826 24.2918V29.2598H101.548V15.9038H102.826V21.4478C103.174 20.8958 103.654 20.4698 104.266 20.1698C104.878 19.8698 105.58 19.7198 106.372 19.7198Z" fill="#0E80A4"/>
</svg>
