<svg width="50" height="50" viewBox="0 0 50 50" fill="none" xmlns="http://www.w3.org/2000/svg">
<path d="M35.8113 23.7934C36.8331 23.3342 37.8549 22.815 38.8166 22.216C41.1808 20.7784 44.7871 17.8831 42.2026 14.9679C41.1607 13.7898 38.8567 13.5103 37.4142 13.67C33.8279 14.0095 30.8827 16.9846 28.8992 19.76C27.8374 21.2576 26.2145 25.0314 28.9193 25.9699C30.2215 26.4091 32.4454 25.1512 33.7077 24.672C34.4289 24.3924 35.1302 24.1129 35.8113 23.7934Z" fill="#56AD5F"/>
<path d="M24.8328 35.8135C25.0331 36.9117 25.2936 38.0099 25.6342 39.0881C26.4757 41.7437 28.4191 45.9369 31.8851 44.1398C33.2876 43.421 34.109 41.2645 34.3094 39.8269C34.8303 36.2727 32.6465 32.6986 30.4226 30.1228C29.2205 28.7251 25.9347 26.2492 24.372 28.6452C23.6307 29.7834 24.3119 32.2593 24.4722 33.5971C24.5924 34.3359 24.6925 35.0747 24.8328 35.8135Z" fill="#56AD5F"/>
<path d="M13.7133 25.1709C12.6114 25.3905 11.5094 25.6501 10.4275 26.0095C7.76286 26.8681 3.59555 28.8449 5.41875 32.2792C6.16005 33.6769 8.32384 34.4557 9.76637 34.6553C13.3326 35.1345 16.8989 32.9381 19.4634 30.7018C20.8458 29.4838 23.3101 26.1892 20.8859 24.6717C19.7238 23.9329 17.2595 24.6517 15.9172 24.8315C15.1759 24.9113 14.4346 25.0311 13.7133 25.1709Z" fill="#56AD5F"/>
<path d="M23.0096 14.5485C22.7491 13.4503 22.4486 12.3721 22.068 11.3138C21.1063 8.6981 18.9825 4.60482 15.5966 6.54164C14.2342 7.32036 13.5129 9.51676 13.3527 10.9544C12.992 14.5285 15.3161 18.0028 17.6602 20.4788C18.9224 21.8166 22.3084 24.1527 23.7709 21.6768C24.4722 20.4987 23.6708 18.0827 23.4504 16.7449C23.3302 16.0061 23.1899 15.2673 23.0096 14.5485Z" fill="#56AD5F"/>
<path d="M43.9466 30.6022C44.5076 26.7685 40.5406 25.0513 37.2148 24.4923C34.7905 24.0929 28.2991 23.1944 26.8366 25.9499C25.4341 28.6055 29.2007 30.8818 31.084 31.7803C34.3898 33.3178 43.065 36.5724 43.9466 30.6022Z" fill="#56AD5F"/>
<path d="M31.2048 6.24208C27.4983 5.02408 25.1341 8.63815 24.0122 11.8129C23.2108 14.1291 21.2073 20.3389 23.6916 22.2358C26.0758 24.0728 28.9609 20.7583 30.163 19.061C32.2667 16.1059 36.9549 8.13897 31.2048 6.24208Z" fill="#56AD5F"/>
<path d="M16.819 43.6601C20.5856 44.6785 22.7494 40.9446 23.691 37.7099C24.3722 35.3538 26.0352 29.0441 23.4506 27.2671C20.9663 25.5698 18.2615 29.0242 17.1596 30.7813C15.2362 33.8562 10.9688 42.0827 16.819 43.6601Z" fill="#56AD5F"/>
<path d="M5.01837 20.4589C4.51749 24.3126 8.52452 25.9499 11.8704 26.4291C14.2946 26.7885 20.8061 27.5472 22.2085 24.7718C23.5709 22.0962 19.7442 19.8998 17.8609 19.0412C14.5351 17.5636 5.77971 14.4687 5.01837 20.4589Z" fill="#56AD5F"/>
<path d="M25.2949 16.8646C20.8871 16.6849 16.5796 21.1975 17.3409 25.6901C18.4629 32.1794 27.5188 33.9166 31.1652 28.9048C34.0702 24.9114 31.7662 19.2007 27.4186 17.3438C26.7174 17.0642 26.0161 16.9045 25.2949 16.8646Z" fill="#EDB544"/>
</svg>
