<svg width="50" height="50" viewBox="0 0 50 50" fill="none" xmlns="http://www.w3.org/2000/svg">
<g clip-path="url(#clip0_5472_97340)">
<g clip-path="url(#clip1_5472_97340)">
<path d="M32.2578 2.35175C32.23 2.34469 32.23 2.34469 32.2022 2.33763C32.1744 2.33057 32.1744 2.33057 32.1466 2.3235C32.1188 2.31644 32.1188 2.31644 32.091 2.30938C32.091 2.30938 32.0632 2.30232 32.0354 2.29526C31.9798 2.28114 31.9449 2.30187 31.8893 2.28775C31.8615 2.28069 31.8615 2.28069 31.8267 2.30143C31.5204 2.342 31.2345 2.53569 31.1012 2.82735L11.9072 43.7892C11.7038 44.2406 11.8895 44.7909 12.3409 44.9943L18.5001 47.8905C18.7083 48.0026 18.9448 48.0035 19.1399 47.9347C19.1677 47.9417 19.2025 47.921 19.2374 47.9002C19.2722 47.8795 19.3 47.8866 19.3349 47.8658C19.3698 47.8451 19.4046 47.8244 19.4046 47.8244C19.4395 47.8036 19.4465 47.7758 19.4814 47.7551C19.5163 47.7343 19.5233 47.7065 19.5582 47.6858C19.593 47.6651 19.6001 47.6373 19.635 47.6165C19.642 47.5887 19.6769 47.568 19.6839 47.5402C19.691 47.5124 19.7259 47.4917 19.7329 47.4639L38.8992 6.49493C39.1026 6.04355 38.9169 5.49331 38.4655 5.28987L32.3063 2.39367C32.2856 2.35881 32.2578 2.35175 32.2578 2.35175ZM34.3795 5.99786C34.9072 6.25028 35.1552 6.90509 34.9028 7.43281C34.7836 7.66887 34.5881 7.85595 34.3582 7.94551C34.0864 8.0836 33.7595 8.08932 33.4749 7.92825C32.9472 7.67583 32.6992 7.02101 32.9516 6.4933C33.0289 6.30578 33.1824 6.16723 33.3289 6.05649C33.6148 5.8628 34.0115 5.8156 34.3795 5.99786Z" fill="#E43C3C"/>
<path d="M33.467 7.95622C33.7587 8.08949 34.0856 8.08377 34.3504 7.97347C34.0644 8.16717 33.6748 8.18656 33.3276 8.03917C32.7998 7.78675 32.5519 7.13193 32.8043 6.60421C32.9235 6.36815 33.0841 6.20181 33.314 6.11225C33.1675 6.223 33.0139 6.36154 32.9367 6.54907C32.6913 7.04898 32.9115 7.69674 33.467 7.95622Z" fill="#F7941E"/>
<path d="M31.3939 2.48778C31.5889 2.41895 31.8183 2.44764 32.0337 2.53193L38.1999 5.40034C38.6513 5.60378 38.8648 6.16108 38.6336 6.6054L19.4325 47.5951C19.3694 47.727 19.2507 47.8448 19.139 47.9348C19.3897 47.8801 19.5852 47.693 19.7043 47.457L38.8983 6.4951C39.1018 6.04372 38.916 5.49348 38.4647 5.29004L32.3055 2.39384C31.9931 2.22571 31.652 2.28702 31.3939 2.48778Z" fill="#F7941E"/>
<path opacity="0.15" d="M12.9802 45.2993L13.3438 45.4697L33.3181 2.85285L32.9546 2.68245L12.9802 45.2993Z" fill="white"/>
<path d="M12.1095 43.2983L11.9756 43.584L14.0792 44.5699L14.2131 44.2843L12.1095 43.2983Z" fill="#7A3F0D"/>
<path d="M13.9752 39.3266L13.8413 39.6123L15.9448 40.5985L16.0787 40.3128L13.9752 39.3266Z" fill="#7A3F0D"/>
<path d="M15.84 35.354L15.7061 35.6396L17.8096 36.6258L17.9435 36.3401L15.84 35.354Z" fill="#7A3F0D"/>
<path d="M17.7052 31.3804L17.5713 31.666L19.6748 32.6522L19.8087 32.3665L17.7052 31.3804Z" fill="#7A3F0D"/>
<path d="M19.57 27.4077L19.436 27.6934L21.5396 28.6795L21.6735 28.3939L19.57 27.4077Z" fill="#7A3F0D"/>
<path d="M21.423 23.4604L21.2891 23.7461L23.3926 24.7323L23.5265 24.4466L21.423 23.4604Z" fill="#7A3F0D"/>
<path d="M23.2882 19.4868L23.1543 19.7725L25.2578 20.7586L25.3917 20.473L23.2882 19.4868Z" fill="#7A3F0D"/>
<path d="M25.1529 15.5141L25.019 15.7998L27.1226 16.7857L27.2565 16.5001L25.1529 15.5141Z" fill="#7A3F0D"/>
<path d="M27.0177 11.5415L26.8838 11.8271L28.9874 12.8131L29.1213 12.5274L27.0177 11.5415Z" fill="#7A3F0D"/>
<path d="M28.8829 7.56883L28.749 7.85449L30.8525 8.84066L30.9865 8.55499L28.8829 7.56883Z" fill="#7A3F0D"/>
<path d="M30.736 3.62156L30.6021 3.90723L32.7056 4.89339L32.8395 4.60773L30.736 3.62156Z" fill="#7A3F0D"/>
<path d="M13.0324 41.3413L12.8984 41.627L14.1969 42.2357L14.3308 41.95L13.0324 41.3413Z" fill="#7A3F0D"/>
<path d="M14.8976 37.3686L14.7637 37.6543L16.0621 38.263L16.1961 37.9774L14.8976 37.3686Z" fill="#7A3F0D"/>
<path d="M16.7623 33.395L16.6284 33.6807L17.9269 34.2893L18.0608 34.0036L16.7623 33.395Z" fill="#7A3F0D"/>
<path d="M18.6271 29.4223L18.4932 29.708L19.7917 30.3166L19.9256 30.0309L18.6271 29.4223Z" fill="#7A3F0D"/>
<path d="M20.4801 25.4761L20.3462 25.7617L21.6447 26.3705L21.7786 26.0848L20.4801 25.4761Z" fill="#7A3F0D"/>
<path d="M22.3453 21.5024L22.2114 21.7881L23.5099 22.3968L23.6438 22.1112L22.3453 21.5024Z" fill="#7A3F0D"/>
<path d="M24.2106 17.5298L24.0767 17.8154L25.3751 18.4242L25.509 18.1385L24.2106 17.5298Z" fill="#7A3F0D"/>
<path d="M26.0753 13.5571L25.9414 13.8428L27.2399 14.4515L27.3738 14.1659L26.0753 13.5571Z" fill="#7A3F0D"/>
<path d="M27.9406 9.58348L27.8066 9.86914L29.1051 10.4779L29.239 10.1922L27.9406 9.58348Z" fill="#7A3F0D"/>
<path d="M29.7931 5.63719L29.6592 5.92285L30.9576 6.5316L31.0916 6.24593L29.7931 5.63719Z" fill="#7A3F0D"/>
<path opacity="0.15" d="M30.4196 24.6116L24.8585 36.4857L13.3581 40.6367L18.9541 28.742L30.4196 24.6116Z" fill="white"/>
</g>
</g>
<defs>
<clipPath id="clip0_5472_97340">
<rect width="50" height="50" fill="white"/>
</clipPath>
<clipPath id="clip1_5472_97340">
<rect width="17.0364" height="47.5242" fill="white" transform="translate(23) rotate(14.253)"/>
</clipPath>
</defs>
</svg>
