<svg width="50" height="50" viewBox="0 0 50 50" fill="none" xmlns="http://www.w3.org/2000/svg">
<path d="M29.9445 37.6566C29.8221 36.8259 29.6079 36.0568 29.3937 35.5646C27.68 32.0266 22.0188 26.4274 21.5904 24.4893C21.162 22.5511 21.2538 15.506 21.162 13.8139C21.0702 12.1219 20.3969 9.19922 20.3969 9.19922L9.59474 9.69145C9.59474 9.69145 9.25813 12.9217 9.59474 15.9982C9.93135 19.0747 10.421 21.3513 10.0844 22.8895C9.93135 23.5663 9.65594 24.397 9.41113 25.2276L14.9193 26.3659C14.9193 26.3659 15.2559 27.658 14.1543 29.6885C13.7259 30.4884 13.0527 31.2883 12.4712 31.9036C15.0417 33.1649 15.4395 35.2877 16.6024 37.0413C17.4286 38.2719 18.8363 41.1637 21.0395 42.8558C22.08 41.133 24.6199 37.7489 29.9445 37.6566Z" fill="#EC2E28"/>
<path d="M9.62549 9.661C9.62549 9.661 10.2987 8.46117 9.9621 6.33841C11.7064 6.49223 19.9993 6 19.9993 6C19.9993 6 19.9075 7.19982 19.9993 7.78435C20.0911 8.33811 20.4277 9.16876 20.4277 9.16876C20.4277 9.16876 19.326 9.72253 15.3173 10.0609C10.7271 10.4301 9.62549 9.661 9.62549 9.661Z" fill="#FF6161"/>
<path d="M21.1313 42.6402C22.08 43.3785 23.1816 43.9015 24.4669 43.9323C28.6592 44.0861 29.6385 41.5941 29.9751 40.5481C30.1587 39.9329 30.1281 38.6407 29.9445 37.4717C24.6199 37.564 22.08 40.9481 21.1313 42.6402Z" fill="#FF6161"/>
<path d="M14.9802 26.3356L9.472 25.1973C9.16599 26.274 8.89058 27.3508 9.04359 28.1199C9.07419 28.3045 9.10479 28.4583 9.16599 28.6429C10.1452 27.9661 12.1037 26.8586 14.9802 26.3356Z" fill="#FF4D4D"/>
<path d="M9.16504 28.6428C9.47105 29.7811 10.2055 30.7963 12.47 31.8423C12.5006 31.8423 12.5006 31.8731 12.5312 31.8731C13.1126 31.2578 13.7858 30.4579 14.2142 29.658C15.2547 27.7506 15.0098 26.4585 14.9792 26.3662C12.1027 26.8584 10.1443 27.966 9.16504 28.6428Z" fill="#FF6161"/>
<path d="M41.8458 37.6566C41.7234 36.8259 41.5092 36.0568 41.295 35.5646C39.5814 32.0266 33.9202 26.4274 33.4917 24.4893C33.0633 22.5511 33.1551 15.506 33.0633 13.8139C32.9715 12.1219 32.2983 9.19922 32.2983 9.19922L21.4961 9.69145C21.4961 9.69145 21.1595 12.9217 21.4961 15.9982C21.8327 19.0747 22.3223 21.3513 21.9857 22.8895C21.8327 23.5663 21.5573 24.397 21.3125 25.2276L26.8207 26.3659C26.8207 26.3659 27.1573 27.658 26.0557 29.6885C25.6273 30.4884 24.954 31.2883 24.3726 31.9036C26.9431 33.1649 27.3409 35.2877 28.5038 37.0413C29.33 38.2719 30.7376 41.1637 32.9409 42.8558C33.9814 41.133 36.5212 37.7489 41.8458 37.6566Z" fill="#EC2E28"/>
<path d="M21.5269 9.661C21.5269 9.661 22.2001 8.46117 21.8635 6.33841C23.6077 6.49223 31.9006 6 31.9006 6C31.9006 6 31.8088 7.19982 31.9006 7.78435C31.9924 8.33811 32.329 9.16876 32.329 9.16876C32.329 9.16876 31.2274 9.72253 27.2187 10.0609C22.6285 10.4301 21.5269 9.661 21.5269 9.661Z" fill="#FF6161"/>
<path d="M33.0327 42.6402C33.9813 43.3785 35.083 43.9015 36.3682 43.9323C40.5606 44.0861 41.5398 41.5941 41.8764 40.5481C42.06 39.9329 42.0294 38.6407 41.8458 37.4717C36.5212 37.564 33.9813 40.9481 33.0327 42.6402Z" fill="#FF6161"/>
<path d="M26.8816 26.3356L21.3734 25.1973C21.0674 26.274 20.792 27.3508 20.945 28.1199C20.9756 28.3045 21.0062 28.4583 21.0674 28.6429C22.0466 27.9661 24.0051 26.8586 26.8816 26.3356Z" fill="#FF4D4D"/>
<path d="M21.0664 28.6428C21.3724 29.7811 22.1068 30.7963 24.3713 31.8423C24.4019 31.8423 24.4019 31.8731 24.4325 31.8731C25.0139 31.2578 25.6872 30.4579 26.1156 29.658C27.156 27.7506 26.9112 26.4585 26.8806 26.3662C24.0041 26.8584 22.0456 27.966 21.0664 28.6428Z" fill="#FF6161"/>
</svg>
