<svg width="50" height="50" viewBox="0 0 50 50" fill="none" xmlns="http://www.w3.org/2000/svg">
<g clip-path="url(#clip0_5213_91374)">
<path d="M36.2861 6.64391C36.7546 7.1124 37.0101 7.58088 36.8398 7.9216C36.6268 8.39008 35.7324 8.47526 34.6251 8.26231C34.114 8.13454 33.5604 7.96419 32.9641 7.70865C31.942 7.24017 31.0902 6.64391 30.6217 6.09025C30.2384 5.66436 30.068 5.28105 30.2384 4.98293C30.4088 4.55703 31.218 4.42926 32.2401 4.59962C32.7938 4.6848 33.4752 4.89775 34.114 5.19587C35.0084 5.62177 35.8176 6.13284 36.2861 6.64391Z" fill="#4570AB"/>
<path d="M32.1976 4.59966C31.1755 4.4293 30.4089 4.51448 30.1959 4.98296C30.0681 5.28109 30.2385 5.6644 30.5792 6.09029C22.2317 8.64566 16.3118 13.2879 12.6065 18.3986C3.96082 30.4514 7.45315 41.4395 8.26235 43.569C3.19421 39.0119 0 32.368 0 25C0 11.201 11.201 0 25 0C26.8313 0 28.5775 0.212947 30.2811 0.553663C30.5366 0.936968 31.7717 2.85349 32.1976 4.59966Z" fill="#3A6BB4"/>
<path d="M42.9728 7.75133C39.5656 6.21811 36.8399 6.55882 36.3288 6.644C35.8178 6.13293 35.0512 5.62185 34.1142 5.19596C33.4328 4.89783 32.7939 4.68489 32.2403 4.59971C31.8144 2.85354 30.5793 0.894426 30.3237 0.553711C35.2641 1.61845 39.6934 4.13122 43.058 7.66615L42.9728 7.75133Z" fill="#5B9EC7"/>
<path d="M43.058 7.66621C47.3595 12.1381 50.0427 18.271 50.0427 25.0001C50.0427 38.7991 38.8416 50.0001 25.0427 50.0001C22.7854 50.0001 20.5708 49.702 18.4839 49.1483V49.1057C18.4839 49.1057 29.472 45.7838 34.6253 29.7275C38.288 18.3136 34.6253 8.39023 34.6253 8.39023L34.6679 8.21987C35.8178 8.47541 36.6696 8.34764 36.8825 7.87916C37.0529 7.53844 36.7973 7.06996 36.3289 6.60148C36.8399 6.55889 39.6082 6.13299 43.058 7.66621Z" fill="#3A79B4"/>
<path d="M34.5828 8.43264C34.5828 8.43264 38.2455 18.3134 34.5828 29.77C29.4295 45.7836 18.4414 49.1482 18.4414 49.1482V49.1907C14.6083 48.1686 11.116 46.2095 8.26252 43.6115C7.45332 41.4395 3.96098 30.494 12.6492 18.4412C16.3119 13.3304 22.2319 8.68818 30.622 6.13281C31.0905 6.68648 31.9422 7.28273 33.007 7.70862C33.5606 7.96416 34.1569 8.13452 34.668 8.26228L34.5828 8.43264Z" fill="#5B9EC7"/>
<path d="M35.9457 6.43104C36.3716 6.85694 36.5419 7.24024 36.4142 7.53837C36.2438 7.92167 35.4772 8.00685 34.4976 7.83649C34.0717 7.75131 33.6033 7.58096 33.0922 7.36801C32.2404 6.94211 31.5164 6.43104 31.0905 5.96256C30.7498 5.62184 30.622 5.28113 30.7498 5.02559C30.9201 4.64228 31.559 4.5571 32.4533 4.72746C32.9218 4.81264 33.4755 4.983 34.0717 5.23854C34.8384 5.57925 35.5198 6.00515 35.9457 6.43104Z" fill="#4490BF"/>
<path d="M23.2537 1.74618C23.2537 0.894391 19.1225 1.14993 14.8636 3.15163C10.6047 5.15333 7.6234 8.73085 8.4326 9.79558C9.2418 10.8603 12.7341 7.58093 15.8006 5.87736C19.3355 3.91824 23.2111 3.36458 23.2537 1.74618Z" fill="white"/>
<path d="M27.9815 2.00162C27.9815 1.40536 25.0855 0.766523 25.0003 1.83126C24.9151 2.93858 27.9815 3.06635 27.9815 2.00162Z" fill="white"/>
<circle cx="25" cy="26" r="16" fill="white"/>
<path d="M23.1902 29.624V32H13.6682V30.11L18.5282 25.52C19.0442 25.028 19.3922 24.608 19.5722 24.26C19.7522 23.9 19.8422 23.546 19.8422 23.198C19.8422 22.694 19.6682 22.31 19.3202 22.046C18.9842 21.77 18.4862 21.632 17.8262 21.632C17.2742 21.632 16.7762 21.74 16.3322 21.956C15.8882 22.16 15.5162 22.472 15.2162 22.892L13.0922 21.524C13.5842 20.792 14.2622 20.222 15.1262 19.814C15.9902 19.394 16.9802 19.184 18.0962 19.184C19.0322 19.184 19.8482 19.34 20.5442 19.652C21.2522 19.952 21.7982 20.384 22.1822 20.948C22.5782 21.5 22.7762 22.154 22.7762 22.91C22.7762 23.594 22.6322 24.236 22.3442 24.836C22.0562 25.436 21.4982 26.12 20.6702 26.888L17.7722 29.624H23.1902ZM35.7556 29.354H33.7036V32H30.8596V29.354H24.0736V27.392L30.0136 19.4H33.0736L27.5656 26.978H30.9496V24.62H33.7036V26.978H35.7556V29.354Z" fill="#2F2F2F"/>
</g>
<defs>
<clipPath id="clip0_5213_91374">
<rect width="50" height="50" fill="white"/>
</clipPath>
</defs>
</svg>
