<svg width="50" height="50" viewBox="0 0 50 50" fill="none" xmlns="http://www.w3.org/2000/svg">
<g clip-path="url(#clip0_4979_91551)">
<path d="M36.2861 6.64391C36.7546 7.1124 37.0101 7.58088 36.8398 7.9216C36.6268 8.39008 35.7324 8.47526 34.6251 8.26231C34.114 8.13454 33.5604 7.96419 32.9641 7.70865C31.942 7.24017 31.0902 6.64391 30.6217 6.09025C30.2384 5.66436 30.068 5.28105 30.2384 4.98293C30.4088 4.55703 31.218 4.42926 32.2401 4.59962C32.7938 4.6848 33.4752 4.89775 34.114 5.19587C35.0084 5.62177 35.8176 6.13284 36.2861 6.64391Z" fill="#4570AB"/>
<path d="M32.1976 4.59966C31.1755 4.4293 30.4089 4.51448 30.1959 4.98296C30.0681 5.28109 30.2385 5.6644 30.5792 6.09029C22.2317 8.64566 16.3118 13.2879 12.6065 18.3986C3.96082 30.4514 7.45315 41.4395 8.26235 43.569C3.19421 39.0119 0 32.368 0 25C0 11.201 11.201 0 25 0C26.8313 0 28.5775 0.212947 30.2811 0.553663C30.5366 0.936968 31.7717 2.85349 32.1976 4.59966Z" fill="#3A6BB4"/>
<path d="M42.9728 7.75133C39.5656 6.21811 36.8399 6.55882 36.3288 6.644C35.8178 6.13293 35.0512 5.62185 34.1142 5.19596C33.4328 4.89783 32.7939 4.68489 32.2403 4.59971C31.8144 2.85354 30.5793 0.894426 30.3237 0.553711C35.2641 1.61845 39.6934 4.13122 43.058 7.66615L42.9728 7.75133Z" fill="#5B9EC7"/>
<path d="M43.058 7.66621C47.3595 12.1381 50.0427 18.271 50.0427 25.0001C50.0427 38.7991 38.8416 50.0001 25.0427 50.0001C22.7854 50.0001 20.5708 49.702 18.4839 49.1483V49.1057C18.4839 49.1057 29.472 45.7838 34.6253 29.7275C38.288 18.3136 34.6253 8.39023 34.6253 8.39023L34.6679 8.21987C35.8178 8.47541 36.6696 8.34764 36.8825 7.87916C37.0529 7.53844 36.7973 7.06996 36.3289 6.60148C36.8399 6.55889 39.6082 6.13299 43.058 7.66621Z" fill="#3A79B4"/>
<path d="M34.5828 8.43264C34.5828 8.43264 38.2455 18.3134 34.5828 29.77C29.4295 45.7836 18.4414 49.1482 18.4414 49.1482V49.1907C14.6083 48.1686 11.116 46.2095 8.26252 43.6115C7.45332 41.4395 3.96098 30.494 12.6492 18.4412C16.3119 13.3304 22.2319 8.68818 30.622 6.13281C31.0905 6.68648 31.9422 7.28273 33.007 7.70862C33.5606 7.96416 34.1569 8.13452 34.668 8.26228L34.5828 8.43264Z" fill="#5B9EC7"/>
<path d="M35.9457 6.43104C36.3716 6.85694 36.5419 7.24024 36.4142 7.53837C36.2438 7.92167 35.4772 8.00685 34.4976 7.83649C34.0717 7.75131 33.6033 7.58096 33.0922 7.36801C32.2404 6.94211 31.5164 6.43104 31.0905 5.96256C30.7498 5.62184 30.622 5.28113 30.7498 5.02559C30.9201 4.64228 31.559 4.5571 32.4533 4.72746C32.9218 4.81264 33.4755 4.983 34.0717 5.23854C34.8384 5.57925 35.5198 6.00515 35.9457 6.43104Z" fill="#4490BF"/>
<path d="M23.2537 1.74618C23.2537 0.894391 19.1225 1.14993 14.8636 3.15163C10.6047 5.15333 7.6234 8.73085 8.4326 9.79558C9.2418 10.8603 12.7341 7.58093 15.8006 5.87736C19.3355 3.91824 23.2111 3.36458 23.2537 1.74618Z" fill="white"/>
<path d="M27.9815 2.00162C27.9815 1.40536 25.0855 0.766523 25.0003 1.83126C24.9151 2.93858 27.9815 3.06635 27.9815 2.00162Z" fill="white"/>
<circle cx="25" cy="26" r="16" fill="white"/>
<path d="M23.5945 29.624V32H14.0725V30.11L18.9325 25.52C19.4485 25.028 19.7965 24.608 19.9765 24.26C20.1565 23.9 20.2465 23.546 20.2465 23.198C20.2465 22.694 20.0725 22.31 19.7245 22.046C19.3885 21.77 18.8905 21.632 18.2305 21.632C17.6785 21.632 17.1805 21.74 16.7365 21.956C16.2925 22.16 15.9205 22.472 15.6205 22.892L13.4965 21.524C13.9885 20.792 14.6665 20.222 15.5305 19.814C16.3945 19.394 17.3845 19.184 18.5005 19.184C19.4365 19.184 20.2525 19.34 20.9485 19.652C21.6565 19.952 22.2025 20.384 22.5865 20.948C22.9825 21.5 23.1805 22.154 23.1805 22.91C23.1805 23.594 23.0365 24.236 22.7485 24.836C22.4605 25.436 21.9025 26.12 21.0745 26.888L18.1765 29.624H23.5945ZM30.8285 24.098C31.6325 24.098 32.3645 24.26 33.0245 24.584C33.6845 24.908 34.2065 25.37 34.5905 25.97C34.9745 26.558 35.1665 27.242 35.1665 28.022C35.1665 28.862 34.9565 29.6 34.5365 30.236C34.1165 30.872 33.5405 31.364 32.8085 31.712C32.0885 32.048 31.2845 32.216 30.3965 32.216C28.6325 32.216 27.2525 31.676 26.2565 30.596C25.2605 29.516 24.7625 27.974 24.7625 25.97C24.7625 24.542 25.0325 23.318 25.5725 22.298C26.1125 21.278 26.8625 20.504 27.8225 19.976C28.7945 19.448 29.9165 19.184 31.1885 19.184C31.8605 19.184 32.5025 19.262 33.1145 19.418C33.7385 19.562 34.2665 19.772 34.6985 20.048L33.6185 22.19C32.9945 21.77 32.2085 21.56 31.2605 21.56C30.1925 21.56 29.3465 21.872 28.7225 22.496C28.0985 23.12 27.7625 24.026 27.7145 25.214C28.4585 24.47 29.4965 24.098 30.8285 24.098ZM30.2345 30.038C30.8585 30.038 31.3625 29.87 31.7465 29.534C32.1425 29.198 32.3405 28.742 32.3405 28.166C32.3405 27.59 32.1425 27.134 31.7465 26.798C31.3625 26.45 30.8465 26.276 30.1985 26.276C29.5625 26.276 29.0405 26.456 28.6325 26.816C28.2245 27.164 28.0205 27.614 28.0205 28.166C28.0205 28.718 28.2185 29.168 28.6145 29.516C29.0105 29.864 29.5505 30.038 30.2345 30.038Z" fill="#2F2F2F"/>
</g>
<defs>
<clipPath id="clip0_4979_91551">
<rect width="50" height="50" fill="white"/>
</clipPath>
</defs>
</svg>
