<svg width="50" height="50" viewBox="0 0 50 50" fill="none" xmlns="http://www.w3.org/2000/svg">
<g clip-path="url(#clip0_4979_91593)">
<path d="M36.2861 6.64391C36.7546 7.1124 37.0101 7.58088 36.8398 7.9216C36.6268 8.39008 35.7324 8.47526 34.6251 8.26231C34.114 8.13454 33.5604 7.96419 32.9641 7.70865C31.942 7.24017 31.0902 6.64391 30.6217 6.09025C30.2384 5.66436 30.068 5.28105 30.2384 4.98293C30.4088 4.55703 31.218 4.42926 32.2401 4.59962C32.7938 4.6848 33.4752 4.89775 34.114 5.19587C35.0084 5.62177 35.8176 6.13284 36.2861 6.64391Z" fill="#4570AB"/>
<path d="M32.1976 4.59966C31.1755 4.4293 30.4089 4.51448 30.1959 4.98296C30.0681 5.28109 30.2385 5.6644 30.5792 6.09029C22.2317 8.64566 16.3118 13.2879 12.6065 18.3986C3.96082 30.4514 7.45315 41.4395 8.26235 43.569C3.19421 39.0119 0 32.368 0 25C0 11.201 11.201 0 25 0C26.8313 0 28.5775 0.212947 30.2811 0.553663C30.5366 0.936968 31.7717 2.85349 32.1976 4.59966Z" fill="#3A6BB4"/>
<path d="M42.9728 7.75133C39.5656 6.21811 36.8399 6.55882 36.3288 6.644C35.8178 6.13293 35.0512 5.62185 34.1142 5.19596C33.4328 4.89783 32.7939 4.68489 32.2403 4.59971C31.8144 2.85354 30.5793 0.894426 30.3237 0.553711C35.2641 1.61845 39.6934 4.13122 43.058 7.66615L42.9728 7.75133Z" fill="#5B9EC7"/>
<path d="M43.058 7.66621C47.3595 12.1381 50.0427 18.271 50.0427 25.0001C50.0427 38.7991 38.8416 50.0001 25.0427 50.0001C22.7854 50.0001 20.5708 49.702 18.4839 49.1483V49.1057C18.4839 49.1057 29.472 45.7838 34.6253 29.7275C38.288 18.3136 34.6253 8.39023 34.6253 8.39023L34.6679 8.21987C35.8178 8.47541 36.6696 8.34764 36.8825 7.87916C37.0529 7.53844 36.7973 7.06996 36.3289 6.60148C36.8399 6.55889 39.6082 6.13299 43.058 7.66621Z" fill="#3A79B4"/>
<path d="M34.5828 8.43264C34.5828 8.43264 38.2455 18.3134 34.5828 29.77C29.4295 45.7836 18.4414 49.1482 18.4414 49.1482V49.1907C14.6083 48.1686 11.116 46.2095 8.26252 43.6115C7.45332 41.4395 3.96098 30.494 12.6492 18.4412C16.3119 13.3304 22.2319 8.68818 30.622 6.13281C31.0905 6.68648 31.9422 7.28273 33.007 7.70862C33.5606 7.96416 34.1569 8.13452 34.668 8.26228L34.5828 8.43264Z" fill="#5B9EC7"/>
<path d="M35.9457 6.43104C36.3716 6.85694 36.5419 7.24024 36.4142 7.53837C36.2438 7.92167 35.4772 8.00685 34.4976 7.83649C34.0717 7.75131 33.6033 7.58096 33.0922 7.36801C32.2404 6.94211 31.5164 6.43104 31.0905 5.96256C30.7498 5.62184 30.622 5.28113 30.7498 5.02559C30.9201 4.64228 31.559 4.5571 32.4533 4.72746C32.9218 4.81264 33.4755 4.983 34.0717 5.23854C34.8384 5.57925 35.5198 6.00515 35.9457 6.43104Z" fill="#4490BF"/>
<path d="M23.2537 1.74618C23.2537 0.894391 19.1225 1.14993 14.8636 3.15163C10.6047 5.15333 7.6234 8.73085 8.4326 9.79558C9.2418 10.8603 12.7341 7.58093 15.8006 5.87736C19.3355 3.91824 23.2111 3.36458 23.2537 1.74618Z" fill="white"/>
<path d="M27.9815 2.00162C27.9815 1.40536 25.0855 0.766523 25.0003 1.83126C24.9151 2.93858 27.9815 3.06635 27.9815 2.00162Z" fill="white"/>
<circle cx="25" cy="26" r="16" fill="white"/>
<path d="M23.366 29.624V32H13.844V30.11L18.704 25.52C19.22 25.028 19.568 24.608 19.748 24.26C19.928 23.9 20.018 23.546 20.018 23.198C20.018 22.694 19.844 22.31 19.496 22.046C19.16 21.77 18.662 21.632 18.002 21.632C17.45 21.632 16.952 21.74 16.508 21.956C16.064 22.16 15.692 22.472 15.392 22.892L13.268 21.524C13.76 20.792 14.438 20.222 15.302 19.814C16.166 19.394 17.156 19.184 18.272 19.184C19.208 19.184 20.024 19.34 20.72 19.652C21.428 19.952 21.974 20.384 22.358 20.948C22.754 21.5 22.952 22.154 22.952 22.91C22.952 23.594 22.808 24.236 22.52 24.836C22.232 25.436 21.674 26.12 20.846 26.888L17.948 29.624H23.366ZM33.1912 25.376C33.8152 25.688 34.2892 26.096 34.6132 26.6C34.9492 27.104 35.1172 27.686 35.1172 28.346C35.1172 29.126 34.8952 29.81 34.4512 30.398C34.0072 30.974 33.3832 31.424 32.5792 31.748C31.7752 32.06 30.8452 32.216 29.7892 32.216C28.7332 32.216 27.8032 32.06 26.9992 31.748C26.2072 31.424 25.5892 30.974 25.1452 30.398C24.7132 29.81 24.4972 29.126 24.4972 28.346C24.4972 27.686 24.6592 27.104 24.9832 26.6C25.3192 26.096 25.7932 25.688 26.4052 25.376C25.9372 25.088 25.5772 24.728 25.3252 24.296C25.0732 23.852 24.9472 23.348 24.9472 22.784C24.9472 22.052 25.1512 21.416 25.5592 20.876C25.9672 20.336 26.5372 19.922 27.2692 19.634C28.0012 19.334 28.8412 19.184 29.7892 19.184C30.7492 19.184 31.5952 19.334 32.3272 19.634C33.0712 19.922 33.6472 20.336 34.0552 20.876C34.4632 21.416 34.6672 22.052 34.6672 22.784C34.6672 23.348 34.5412 23.852 34.2892 24.296C34.0372 24.728 33.6712 25.088 33.1912 25.376ZM29.7892 21.326C29.2012 21.326 28.7272 21.47 28.3672 21.758C28.0192 22.034 27.8452 22.418 27.8452 22.91C27.8452 23.39 28.0192 23.768 28.3672 24.044C28.7152 24.32 29.1892 24.458 29.7892 24.458C30.3892 24.458 30.8692 24.32 31.2292 24.044C31.5892 23.768 31.7692 23.39 31.7692 22.91C31.7692 22.418 31.5892 22.034 31.2292 21.758C30.8692 21.47 30.3892 21.326 29.7892 21.326ZM29.7892 30.074C30.5212 30.074 31.0972 29.912 31.5172 29.588C31.9492 29.252 32.1652 28.808 32.1652 28.256C32.1652 27.704 31.9492 27.266 31.5172 26.942C31.0972 26.618 30.5212 26.456 29.7892 26.456C29.0692 26.456 28.4992 26.618 28.0792 26.942C27.6592 27.266 27.4492 27.704 27.4492 28.256C27.4492 28.82 27.6592 29.264 28.0792 29.588C28.4992 29.912 29.0692 30.074 29.7892 30.074Z" fill="#2F2F2F"/>
</g>
<defs>
<clipPath id="clip0_4979_91593">
<rect width="50" height="50" fill="white"/>
</clipPath>
</defs>
</svg>
