<svg width="450" height="50" viewBox="0 0 450 50" fill="none" xmlns="http://www.w3.org/2000/svg">
<g clip-path="url(#clip0_5859_123289)">
<path d="M36.2856 6.64465C36.7541 7.11313 37.0096 7.58161 36.8393 7.92233C36.6263 8.39081 35.7319 8.47599 34.6246 8.26304C34.1136 8.13527 33.5599 7.96492 32.9636 7.70938C31.9415 7.2409 31.0897 6.64465 30.6212 6.09098C30.2379 5.66509 30.0676 5.28178 30.2379 4.98366C30.4083 4.55776 31.2175 4.43 32.2396 4.60035C32.7933 4.68553 33.4747 4.89848 34.1135 5.19661C35.0079 5.6225 35.8171 6.13357 36.2856 6.64465Z" fill="#4570AB"/>
<path d="M32.1976 4.59966C31.1755 4.4293 30.4089 4.51448 30.1959 4.98296C30.0681 5.28109 30.2385 5.6644 30.5792 6.09029C22.2317 8.64566 16.3118 13.2879 12.6065 18.3986C3.96082 30.4514 7.45315 41.4395 8.26235 43.569C3.19421 39.0119 0 32.368 0 25C0 11.201 11.201 0 25 0C26.8313 0 28.5775 0.212947 30.2811 0.553663C30.5366 0.936968 31.7717 2.85349 32.1976 4.59966Z" fill="#3A6BB4"/>
<path d="M42.9733 7.75133C39.5661 6.21811 36.8404 6.55882 36.3293 6.644C35.8183 6.13293 35.0516 5.62185 34.1147 5.19596C33.4332 4.89783 32.7944 4.68489 32.2407 4.59971C31.8148 2.85354 30.5798 0.894426 30.3242 0.553711C35.2646 1.61845 39.6939 4.13122 43.0585 7.66615L42.9733 7.75133Z" fill="#5B9EC7"/>
<path d="M43.0585 7.66646C47.36 12.1383 50.0431 18.2712 50.0431 25.0004C50.0431 38.7993 38.8421 50.0004 25.0431 50.0004C22.7859 50.0004 20.5713 49.7022 18.4844 49.1486V49.106C18.4844 49.106 29.4724 45.784 34.6258 29.7278C38.2885 18.3138 34.6258 8.39048 34.6258 8.39048L34.6684 8.22012C35.8183 8.47565 36.6701 8.34789 36.883 7.8794C37.0534 7.53869 36.7978 7.0702 36.3293 6.60172C36.8404 6.55913 39.6087 6.13324 43.0585 7.66646Z" fill="#3A79B4"/>
<path d="M34.5833 8.43264C34.5833 8.43264 38.246 18.3134 34.5833 29.77C29.43 45.7836 18.4419 49.1482 18.4419 49.1482V49.1907C14.6088 48.1686 11.1165 46.2095 8.26301 43.6115C7.45381 41.4395 3.96147 30.494 12.6497 18.4412C16.3124 13.3304 22.2323 8.68818 30.6225 6.13281C31.0909 6.68648 31.9427 7.28273 33.0075 7.70862C33.5611 7.96416 34.1574 8.13452 34.6685 8.26228L34.5833 8.43264Z" fill="#5B9EC7"/>
<path d="M35.9457 6.4308C36.3716 6.85669 36.5419 7.24 36.4142 7.53812C36.2438 7.92143 35.4772 8.00661 34.4976 7.83625C34.0717 7.75107 33.6033 7.58071 33.0922 7.36776C32.2404 6.94187 31.5164 6.4308 31.0905 5.96231C30.7498 5.6216 30.622 5.28088 30.7498 5.02534C30.9201 4.64204 31.559 4.55686 32.4533 4.72722C32.9218 4.8124 33.4755 4.98276 34.0717 5.23829C34.8384 5.57901 35.5198 6.0049 35.9457 6.4308Z" fill="#4490BF"/>
<path d="M23.2527 1.74618C23.2527 0.894391 19.1216 1.14993 14.8626 3.15163C10.6037 5.15333 7.62242 8.73085 8.43162 9.79558C9.24082 10.8603 12.7332 7.58093 15.7996 5.87736C19.3345 3.91824 23.2102 3.36458 23.2527 1.74618Z" fill="white"/>
<path d="M27.981 2.0021C27.981 1.40585 25.085 0.767011 24.9998 1.83175C24.9146 2.93907 27.981 3.06684 27.981 2.0021Z" fill="white"/>
<ellipse cx="25" cy="26" rx="16" ry="16" fill="white"/>
<path d="M23.1473 30.958V33.334H13.6252V31.444L18.4853 26.854C19.0013 26.362 19.3493 25.942 19.5293 25.594C19.7093 25.234 19.7993 24.88 19.7993 24.532C19.7993 24.028 19.6253 23.644 19.2773 23.38C18.9413 23.104 18.4433 22.966 17.7832 22.966C17.2313 22.966 16.7333 23.074 16.2893 23.29C15.8453 23.494 15.4733 23.806 15.1733 24.226L13.0493 22.858C13.5413 22.126 14.2193 21.556 15.0833 21.148C15.9473 20.728 16.9373 20.518 18.0533 20.518C18.9893 20.518 19.8053 20.674 20.5013 20.986C21.2093 21.286 21.7553 21.718 22.1393 22.282C22.5353 22.834 22.7333 23.488 22.7333 24.244C22.7333 24.928 22.5893 25.57 22.3013 26.17C22.0133 26.77 21.4553 27.454 20.6273 28.222L17.7293 30.958H23.1473ZM30.2364 25.864C31.3404 26.044 32.1864 26.458 32.7744 27.106C33.3624 27.742 33.6564 28.534 33.6564 29.482C33.6564 30.214 33.4644 30.892 33.0804 31.516C32.6964 32.128 32.1084 32.62 31.3164 32.992C30.5364 33.364 29.5764 33.55 28.4364 33.55C27.5484 33.55 26.6724 33.436 25.8084 33.208C24.9564 32.968 24.2304 32.632 23.6304 32.2L24.7644 29.968C25.2444 30.328 25.7964 30.61 26.4204 30.814C27.0564 31.006 27.7044 31.102 28.3644 31.102C29.0964 31.102 29.6724 30.964 30.0924 30.688C30.5124 30.4 30.7224 29.998 30.7224 29.482C30.7224 28.45 29.9364 27.934 28.3644 27.934H27.0324V26.008L29.6244 23.074H24.2604V20.734H33.0804V22.624L30.2364 25.864Z" fill="#2F2F2F"/>
</g>
<g clip-path="url(#clip1_5859_123289)">
<path d="M116.286 6.64367C116.754 7.11215 117.01 7.58064 116.839 7.92135C116.626 8.38984 115.732 8.47501 114.625 8.26207C114.114 8.1343 113.56 7.96394 112.964 7.70841C111.941 7.23992 111.09 6.64367 110.621 6.09001C110.238 5.66411 110.068 5.28081 110.238 4.98268C110.408 4.55679 111.217 4.42902 112.24 4.59938C112.793 4.68456 113.475 4.8975 114.114 5.19563C115.008 5.62152 115.817 6.1326 116.286 6.64367Z" fill="#4570AB"/>
<path d="M112.198 4.59966C111.175 4.4293 110.409 4.51448 110.196 4.98296C110.068 5.28109 110.239 5.6644 110.579 6.09029C102.232 8.64566 96.3118 13.2879 92.6065 18.3986C83.9608 30.4514 87.4532 41.4395 88.2624 43.569C83.1942 39.0119 80 32.368 80 25C80 11.201 91.201 0 105 0C106.831 0 108.578 0.212947 110.281 0.553663C110.537 0.936968 111.772 2.85349 112.198 4.59966Z" fill="#3A6BB4"/>
<path d="M122.973 7.75133C119.566 6.21811 116.84 6.55882 116.329 6.644C115.818 6.13293 115.052 5.62185 114.115 5.19596C113.433 4.89783 112.794 4.68489 112.241 4.59971C111.815 2.85354 110.58 0.894426 110.324 0.553711C115.265 1.61845 119.694 4.13122 123.058 7.66615L122.973 7.75133Z" fill="#5B9EC7"/>
<path d="M123.058 7.66646C127.36 12.1383 130.043 18.2712 130.043 25.0004C130.043 38.7993 118.842 50.0004 105.043 50.0004C102.786 50.0004 100.571 49.7022 98.4844 49.1486V49.106C98.4844 49.106 109.472 45.784 114.626 29.7278C118.288 18.3138 114.626 8.39048 114.626 8.39048L114.668 8.22012C115.818 8.47565 116.67 8.34789 116.883 7.8794C117.053 7.53869 116.798 7.0702 116.329 6.60172C116.84 6.55913 119.609 6.13324 123.058 7.66646Z" fill="#3A79B4"/>
<path d="M114.583 8.43264C114.583 8.43264 118.246 18.3134 114.583 29.77C109.43 45.7836 98.4419 49.1482 98.4419 49.1482V49.1907C94.6088 48.1686 91.1165 46.2095 88.263 43.6115C87.4538 41.4395 83.9615 30.494 92.6497 18.4412C96.3124 13.3304 102.232 8.68818 110.622 6.13281C111.091 6.68648 111.943 7.28273 113.007 7.70862C113.561 7.96416 114.157 8.13452 114.668 8.26228L114.583 8.43264Z" fill="#5B9EC7"/>
<path d="M115.946 6.4308C116.372 6.85669 116.542 7.24 116.414 7.53812C116.244 7.92143 115.477 8.00661 114.498 7.83625C114.072 7.75107 113.603 7.58071 113.092 7.36776C112.24 6.94187 111.516 6.4308 111.09 5.96231C110.75 5.6216 110.622 5.28088 110.75 5.02534C110.92 4.64204 111.559 4.55686 112.453 4.72722C112.922 4.8124 113.475 4.98276 114.072 5.23829C114.838 5.57901 115.52 6.0049 115.946 6.4308Z" fill="#4490BF"/>
<path d="M103.255 1.74618C103.255 0.894391 99.1235 1.14993 94.8646 3.15163C90.6056 5.15333 87.6244 8.73085 88.4336 9.79558C89.2428 10.8603 92.7351 7.58093 95.8015 5.87736C99.3365 3.91824 103.212 3.36458 103.255 1.74618Z" fill="white"/>
<path d="M107.981 2.0021C107.981 1.40585 105.085 0.767011 105 1.83175C104.915 2.93907 107.981 3.06684 107.981 2.0021Z" fill="white"/>
<circle cx="105" cy="26" r="16" fill="white"/>
<path d="M103.19 29.624V32H93.6682V30.11L98.5282 25.52C99.0442 25.028 99.3922 24.608 99.5722 24.26C99.7522 23.9 99.8422 23.546 99.8422 23.198C99.8422 22.694 99.6682 22.31 99.3202 22.046C98.9842 21.77 98.4862 21.632 97.8262 21.632C97.2742 21.632 96.7762 21.74 96.3322 21.956C95.8882 22.16 95.5162 22.472 95.2162 22.892L93.0922 21.524C93.5842 20.792 94.2622 20.222 95.1262 19.814C95.9902 19.394 96.9802 19.184 98.0962 19.184C99.0322 19.184 99.8482 19.34 100.544 19.652C101.252 19.952 101.798 20.384 102.182 20.948C102.578 21.5 102.776 22.154 102.776 22.91C102.776 23.594 102.632 24.236 102.344 24.836C102.056 25.436 101.498 26.12 100.67 26.888L97.7722 29.624H103.19ZM115.756 29.354H113.704V32H110.86V29.354H104.074V27.392L110.014 19.4H113.074L107.566 26.978H110.95V24.62H113.704V26.978H115.756V29.354Z" fill="#2F2F2F"/>
</g>
<g clip-path="url(#clip2_5859_123289)">
<path d="M196.286 6.64367C196.754 7.11215 197.01 7.58064 196.839 7.92135C196.626 8.38984 195.732 8.47501 194.625 8.26207C194.114 8.1343 193.56 7.96394 192.964 7.70841C191.941 7.23992 191.09 6.64367 190.621 6.09001C190.238 5.66411 190.068 5.28081 190.238 4.98268C190.408 4.55679 191.217 4.42902 192.24 4.59938C192.793 4.68456 193.475 4.8975 194.114 5.19563C195.008 5.62152 195.817 6.1326 196.286 6.64367Z" fill="#4570AB"/>
<path d="M192.198 4.59966C191.175 4.4293 190.409 4.51448 190.196 4.98296C190.068 5.28109 190.239 5.6644 190.579 6.09029C182.232 8.64566 176.312 13.2879 172.606 18.3986C163.961 30.4514 167.453 41.4395 168.262 43.569C163.194 39.0119 160 32.368 160 25C160 11.201 171.201 0 185 0C186.831 0 188.578 0.212947 190.281 0.553663C190.537 0.936968 191.772 2.85349 192.198 4.59966Z" fill="#3A6BB4"/>
<path d="M202.973 7.75133C199.566 6.21811 196.84 6.55882 196.329 6.644C195.818 6.13293 195.052 5.62185 194.115 5.19596C193.433 4.89783 192.794 4.68489 192.241 4.59971C191.815 2.85354 190.58 0.894426 190.324 0.553711C195.265 1.61845 199.694 4.13122 203.058 7.66615L202.973 7.75133Z" fill="#5B9EC7"/>
<path d="M203.058 7.66646C207.36 12.1383 210.043 18.2712 210.043 25.0004C210.043 38.7993 198.842 50.0004 185.043 50.0004C182.786 50.0004 180.571 49.7022 178.484 49.1486V49.106C178.484 49.106 189.472 45.784 194.626 29.7278C198.288 18.3138 194.626 8.39048 194.626 8.39048L194.668 8.22012C195.818 8.47565 196.67 8.34789 196.883 7.8794C197.053 7.53869 196.798 7.0702 196.329 6.60172C196.84 6.55913 199.609 6.13324 203.058 7.66646Z" fill="#3A79B4"/>
<path d="M194.583 8.43264C194.583 8.43264 198.246 18.3134 194.583 29.77C189.43 45.7836 178.442 49.1482 178.442 49.1482V49.1907C174.609 48.1686 171.116 46.2095 168.263 43.6115C167.454 41.4395 163.961 30.494 172.65 18.4412C176.312 13.3304 182.232 8.68818 190.622 6.13281C191.091 6.68648 191.943 7.28273 193.007 7.70862C193.561 7.96416 194.157 8.13452 194.668 8.26228L194.583 8.43264Z" fill="#5B9EC7"/>
<path d="M195.946 6.4308C196.372 6.85669 196.542 7.24 196.414 7.53812C196.244 7.92143 195.477 8.00661 194.498 7.83625C194.072 7.75107 193.603 7.58071 193.092 7.36776C192.24 6.94187 191.516 6.4308 191.09 5.96231C190.75 5.6216 190.622 5.28088 190.75 5.02534C190.92 4.64204 191.559 4.55686 192.453 4.72722C192.922 4.8124 193.475 4.98276 194.072 5.23829C194.838 5.57901 195.52 6.0049 195.946 6.4308Z" fill="#4490BF"/>
<path d="M183.255 1.74618C183.255 0.894391 179.124 1.14993 174.865 3.15163C170.606 5.15333 167.624 8.73085 168.434 9.79558C169.243 10.8603 172.735 7.58093 175.802 5.87736C179.336 3.91824 183.212 3.36458 183.255 1.74618Z" fill="white"/>
<path d="M187.981 2.0021C187.981 1.40585 185.085 0.767011 185 1.83175C184.915 2.93907 187.981 3.06684 187.981 2.0021Z" fill="white"/>
<circle cx="185" cy="26" r="16" fill="white"/>
<path d="M183.955 29.624V32H174.433V30.11L179.293 25.52C179.809 25.028 180.157 24.608 180.337 24.26C180.517 23.9 180.607 23.546 180.607 23.198C180.607 22.694 180.433 22.31 180.085 22.046C179.749 21.77 179.251 21.632 178.591 21.632C178.039 21.632 177.541 21.74 177.097 21.956C176.653 22.16 176.281 22.472 175.981 22.892L173.857 21.524C174.349 20.792 175.027 20.222 175.891 19.814C176.755 19.394 177.745 19.184 178.861 19.184C179.797 19.184 180.613 19.34 181.309 19.652C182.017 19.952 182.563 20.384 182.947 20.948C183.343 21.5 183.541 22.154 183.541 22.91C183.541 23.594 183.397 24.236 183.109 24.836C182.821 25.436 182.263 26.12 181.435 26.888L178.537 29.624H183.955ZM189.478 24.134C191.254 24.134 192.562 24.488 193.402 25.196C194.254 25.904 194.68 26.852 194.68 28.04C194.68 28.808 194.488 29.51 194.104 30.146C193.72 30.77 193.132 31.274 192.34 31.658C191.56 32.03 190.594 32.216 189.442 32.216C188.554 32.216 187.678 32.102 186.814 31.874C185.962 31.634 185.236 31.298 184.636 30.866L185.788 28.634C186.268 28.994 186.82 29.276 187.444 29.48C188.068 29.672 188.71 29.768 189.37 29.768C190.102 29.768 190.678 29.624 191.098 29.336C191.518 29.048 191.728 28.646 191.728 28.13C191.728 27.59 191.506 27.182 191.062 26.906C190.63 26.63 189.874 26.492 188.794 26.492H185.572L186.22 19.4H193.906V21.74H188.65L188.452 24.134H189.478Z" fill="#2F2F2F"/>
</g>
<g clip-path="url(#clip3_5859_123289)">
<path d="M276.286 6.64367C276.754 7.11215 277.01 7.58064 276.839 7.92135C276.626 8.38984 275.732 8.47501 274.625 8.26207C274.114 8.1343 273.56 7.96394 272.964 7.70841C271.941 7.23992 271.09 6.64367 270.621 6.09001C270.238 5.66411 270.068 5.28081 270.238 4.98268C270.408 4.55679 271.217 4.42902 272.24 4.59938C272.793 4.68456 273.475 4.8975 274.114 5.19563C275.008 5.62152 275.817 6.1326 276.286 6.64367Z" fill="#4570AB"/>
<path d="M272.198 4.59966C271.175 4.4293 270.409 4.51448 270.196 4.98296C270.068 5.28109 270.239 5.6644 270.579 6.09029C262.232 8.64566 256.312 13.2879 252.606 18.3986C243.961 30.4514 247.453 41.4395 248.262 43.569C243.194 39.0119 240 32.368 240 25C240 11.201 251.201 0 265 0C266.831 0 268.578 0.212947 270.281 0.553663C270.537 0.936968 271.772 2.85349 272.198 4.59966Z" fill="#3A6BB4"/>
<path d="M282.973 7.75133C279.566 6.21811 276.84 6.55882 276.329 6.644C275.818 6.13293 275.052 5.62185 274.115 5.19596C273.433 4.89783 272.794 4.68489 272.241 4.59971C271.815 2.85354 270.58 0.894426 270.324 0.553711C275.265 1.61845 279.694 4.13122 283.058 7.66615L282.973 7.75133Z" fill="#5B9EC7"/>
<path d="M283.058 7.66646C287.36 12.1383 290.043 18.2712 290.043 25.0004C290.043 38.7993 278.842 50.0004 265.043 50.0004C262.786 50.0004 260.571 49.7022 258.484 49.1486V49.106C258.484 49.106 269.472 45.784 274.626 29.7278C278.288 18.3138 274.626 8.39048 274.626 8.39048L274.668 8.22012C275.818 8.47565 276.67 8.34789 276.883 7.8794C277.053 7.53869 276.798 7.0702 276.329 6.60172C276.84 6.55913 279.609 6.13324 283.058 7.66646Z" fill="#3A79B4"/>
<path d="M274.583 8.43264C274.583 8.43264 278.246 18.3134 274.583 29.77C269.43 45.7836 258.442 49.1482 258.442 49.1482V49.1907C254.609 48.1686 251.116 46.2095 248.263 43.6115C247.454 41.4395 243.961 30.494 252.65 18.4412C256.312 13.3304 262.232 8.68818 270.622 6.13281C271.091 6.68648 271.943 7.28273 273.007 7.70862C273.561 7.96416 274.157 8.13452 274.668 8.26228L274.583 8.43264Z" fill="#5B9EC7"/>
<path d="M275.946 6.4308C276.372 6.85669 276.542 7.24 276.414 7.53812C276.244 7.92143 275.477 8.00661 274.498 7.83625C274.072 7.75107 273.603 7.58071 273.092 7.36776C272.24 6.94187 271.516 6.4308 271.09 5.96231C270.75 5.6216 270.622 5.28088 270.75 5.02534C270.92 4.64204 271.559 4.55686 272.453 4.72722C272.922 4.8124 273.475 4.98276 274.072 5.23829C274.838 5.57901 275.52 6.0049 275.946 6.4308Z" fill="#4490BF"/>
<path d="M263.255 1.74618C263.255 0.894391 259.124 1.14993 254.865 3.15163C250.606 5.15333 247.624 8.73085 248.434 9.79558C249.243 10.8603 252.735 7.58093 255.802 5.87736C259.336 3.91824 263.212 3.36458 263.255 1.74618Z" fill="white"/>
<path d="M267.981 2.0021C267.981 1.40585 265.085 0.767011 265 1.83175C264.915 2.93907 267.981 3.06684 267.981 2.0021Z" fill="white"/>
<circle cx="265" cy="26" r="16" fill="white"/>
<path d="M263.595 29.624V32H254.073V30.11L258.933 25.52C259.449 25.028 259.797 24.608 259.977 24.26C260.157 23.9 260.247 23.546 260.247 23.198C260.247 22.694 260.073 22.31 259.725 22.046C259.389 21.77 258.891 21.632 258.231 21.632C257.679 21.632 257.181 21.74 256.737 21.956C256.293 22.16 255.921 22.472 255.621 22.892L253.497 21.524C253.989 20.792 254.667 20.222 255.531 19.814C256.395 19.394 257.385 19.184 258.501 19.184C259.437 19.184 260.253 19.34 260.949 19.652C261.657 19.952 262.203 20.384 262.587 20.948C262.983 21.5 263.181 22.154 263.181 22.91C263.181 23.594 263.037 24.236 262.749 24.836C262.461 25.436 261.903 26.12 261.075 26.888L258.177 29.624H263.595ZM270.829 24.098C271.633 24.098 272.365 24.26 273.025 24.584C273.685 24.908 274.207 25.37 274.591 25.97C274.975 26.558 275.167 27.242 275.167 28.022C275.167 28.862 274.957 29.6 274.537 30.236C274.117 30.872 273.541 31.364 272.809 31.712C272.089 32.048 271.285 32.216 270.397 32.216C268.633 32.216 267.253 31.676 266.257 30.596C265.261 29.516 264.763 27.974 264.763 25.97C264.763 24.542 265.033 23.318 265.573 22.298C266.113 21.278 266.863 20.504 267.823 19.976C268.795 19.448 269.917 19.184 271.189 19.184C271.861 19.184 272.503 19.262 273.115 19.418C273.739 19.562 274.267 19.772 274.699 20.048L273.619 22.19C272.995 21.77 272.209 21.56 271.261 21.56C270.193 21.56 269.347 21.872 268.723 22.496C268.099 23.12 267.763 24.026 267.715 25.214C268.459 24.47 269.497 24.098 270.829 24.098ZM270.235 30.038C270.859 30.038 271.363 29.87 271.747 29.534C272.143 29.198 272.341 28.742 272.341 28.166C272.341 27.59 272.143 27.134 271.747 26.798C271.363 26.45 270.847 26.276 270.199 26.276C269.563 26.276 269.041 26.456 268.633 26.816C268.225 27.164 268.021 27.614 268.021 28.166C268.021 28.718 268.219 29.168 268.615 29.516C269.011 29.864 269.551 30.038 270.235 30.038Z" fill="#2F2F2F"/>
</g>
<g clip-path="url(#clip4_5859_123289)">
<path d="M356.286 6.64367C356.754 7.11215 357.01 7.58064 356.839 7.92135C356.626 8.38984 355.732 8.47501 354.625 8.26207C354.114 8.1343 353.56 7.96394 352.964 7.70841C351.941 7.23992 351.09 6.64367 350.621 6.09001C350.238 5.66411 350.068 5.28081 350.238 4.98268C350.408 4.55679 351.217 4.42902 352.24 4.59938C352.793 4.68456 353.475 4.8975 354.114 5.19563C355.008 5.62152 355.817 6.1326 356.286 6.64367Z" fill="#4570AB"/>
<path d="M352.198 4.59966C351.175 4.4293 350.409 4.51448 350.196 4.98296C350.068 5.28109 350.239 5.6644 350.579 6.09029C342.232 8.64566 336.312 13.2879 332.606 18.3986C323.961 30.4514 327.453 41.4395 328.262 43.569C323.194 39.0119 320 32.368 320 25C320 11.201 331.201 0 345 0C346.831 0 348.578 0.212947 350.281 0.553663C350.537 0.936968 351.772 2.85349 352.198 4.59966Z" fill="#3A6BB4"/>
<path d="M362.973 7.75133C359.566 6.21811 356.84 6.55882 356.329 6.644C355.818 6.13293 355.052 5.62185 354.115 5.19596C353.433 4.89783 352.794 4.68489 352.241 4.59971C351.815 2.85354 350.58 0.894426 350.324 0.553711C355.265 1.61845 359.694 4.13122 363.058 7.66615L362.973 7.75133Z" fill="#5B9EC7"/>
<path d="M363.058 7.66646C367.36 12.1383 370.043 18.2712 370.043 25.0004C370.043 38.7993 358.842 50.0004 345.043 50.0004C342.786 50.0004 340.571 49.7022 338.484 49.1486V49.106C338.484 49.106 349.472 45.784 354.626 29.7278C358.288 18.3138 354.626 8.39048 354.626 8.39048L354.668 8.22012C355.818 8.47565 356.67 8.34789 356.883 7.8794C357.053 7.53869 356.798 7.0702 356.329 6.60172C356.84 6.55913 359.609 6.13324 363.058 7.66646Z" fill="#3A79B4"/>
<path d="M354.583 8.43264C354.583 8.43264 358.246 18.3134 354.583 29.77C349.43 45.7836 338.442 49.1482 338.442 49.1482V49.1907C334.609 48.1686 331.116 46.2095 328.263 43.6115C327.454 41.4395 323.961 30.494 332.65 18.4412C336.312 13.3304 342.232 8.68818 350.622 6.13281C351.091 6.68648 351.943 7.28273 353.007 7.70862C353.561 7.96416 354.157 8.13452 354.668 8.26228L354.583 8.43264Z" fill="#5B9EC7"/>
<path d="M355.946 6.4308C356.372 6.85669 356.542 7.24 356.414 7.53812C356.244 7.92143 355.477 8.00661 354.498 7.83625C354.072 7.75107 353.603 7.58071 353.092 7.36776C352.24 6.94187 351.516 6.4308 351.09 5.96231C350.75 5.6216 350.622 5.28088 350.75 5.02534C350.92 4.64204 351.559 4.55686 352.453 4.72722C352.922 4.8124 353.475 4.98276 354.072 5.23829C354.838 5.57901 355.52 6.0049 355.946 6.4308Z" fill="#4490BF"/>
<path d="M343.255 1.74618C343.255 0.894391 339.124 1.14993 334.865 3.15163C330.606 5.15333 327.624 8.73085 328.434 9.79558C329.243 10.8603 332.735 7.58093 335.802 5.87736C339.336 3.91824 343.212 3.36458 343.255 1.74618Z" fill="white"/>
<path d="M347.981 2.0021C347.981 1.40585 345.085 0.767011 345 1.83175C344.915 2.93907 347.981 3.06684 347.981 2.0021Z" fill="white"/>
<circle cx="345" cy="26" r="16" fill="white"/>
<path d="M343.744 29.624V32H334.222V30.11L339.082 25.52C339.598 25.028 339.946 24.608 340.126 24.26C340.306 23.9 340.396 23.546 340.396 23.198C340.396 22.694 340.222 22.31 339.874 22.046C339.538 21.77 339.04 21.632 338.38 21.632C337.828 21.632 337.33 21.74 336.886 21.956C336.442 22.16 336.07 22.472 335.77 22.892L333.646 21.524C334.138 20.792 334.816 20.222 335.68 19.814C336.544 19.394 337.534 19.184 338.65 19.184C339.586 19.184 340.402 19.34 341.098 19.652C341.806 19.952 342.352 20.384 342.736 20.948C343.132 21.5 343.33 22.154 343.33 22.91C343.33 23.594 343.186 24.236 342.898 24.836C342.61 25.436 342.052 26.12 341.224 26.888L338.326 29.624H343.744ZM354.776 19.4V21.29L350.096 32H346.928L351.446 21.776H347.27V23.828H344.678V19.4H354.776Z" fill="#2F2F2F"/>
</g>
<g clip-path="url(#clip5_5859_123289)">
<path d="M436.286 6.64367C436.754 7.11215 437.01 7.58064 436.839 7.92135C436.626 8.38984 435.732 8.47501 434.625 8.26207C434.114 8.1343 433.56 7.96394 432.964 7.70841C431.941 7.23992 431.09 6.64367 430.621 6.09001C430.238 5.66411 430.068 5.28081 430.238 4.98268C430.408 4.55679 431.217 4.42902 432.24 4.59938C432.793 4.68456 433.475 4.8975 434.114 5.19563C435.008 5.62152 435.817 6.1326 436.286 6.64367Z" fill="#4570AB"/>
<path d="M432.198 4.59966C431.175 4.4293 430.409 4.51448 430.196 4.98296C430.068 5.28109 430.239 5.6644 430.579 6.09029C422.232 8.64566 416.312 13.2879 412.606 18.3986C403.961 30.4514 407.453 41.4395 408.262 43.569C403.194 39.0119 400 32.368 400 25C400 11.201 411.201 0 425 0C426.831 0 428.578 0.212947 430.281 0.553663C430.537 0.936968 431.772 2.85349 432.198 4.59966Z" fill="#3A6BB4"/>
<path d="M442.973 7.75133C439.566 6.21811 436.84 6.55882 436.329 6.644C435.818 6.13293 435.052 5.62185 434.115 5.19596C433.433 4.89783 432.794 4.68489 432.241 4.59971C431.815 2.85354 430.58 0.894426 430.324 0.553711C435.265 1.61845 439.694 4.13122 443.058 7.66615L442.973 7.75133Z" fill="#5B9EC7"/>
<path d="M443.058 7.66646C447.36 12.1383 450.043 18.2712 450.043 25.0004C450.043 38.7993 438.842 50.0004 425.043 50.0004C422.786 50.0004 420.571 49.7022 418.484 49.1486V49.106C418.484 49.106 429.472 45.784 434.626 29.7278C438.288 18.3138 434.626 8.39048 434.626 8.39048L434.668 8.22012C435.818 8.47565 436.67 8.34789 436.883 7.8794C437.053 7.53869 436.798 7.0702 436.329 6.60172C436.84 6.55913 439.609 6.13324 443.058 7.66646Z" fill="#3A79B4"/>
<path d="M434.583 8.43264C434.583 8.43264 438.246 18.3134 434.583 29.77C429.43 45.7836 418.442 49.1482 418.442 49.1482V49.1907C414.609 48.1686 411.116 46.2095 408.263 43.6115C407.454 41.4395 403.961 30.494 412.65 18.4412C416.312 13.3304 422.232 8.68818 430.622 6.13281C431.091 6.68648 431.943 7.28273 433.007 7.70862C433.561 7.96416 434.157 8.13452 434.668 8.26228L434.583 8.43264Z" fill="#5B9EC7"/>
<path d="M435.946 6.4308C436.372 6.85669 436.542 7.24 436.414 7.53812C436.244 7.92143 435.477 8.00661 434.498 7.83625C434.072 7.75107 433.603 7.58071 433.092 7.36776C432.24 6.94187 431.516 6.4308 431.09 5.96231C430.75 5.6216 430.622 5.28088 430.75 5.02534C430.92 4.64204 431.559 4.55686 432.453 4.72722C432.922 4.8124 433.475 4.98276 434.072 5.23829C434.838 5.57901 435.52 6.0049 435.946 6.4308Z" fill="#4490BF"/>
<path d="M423.255 1.74618C423.255 0.894391 419.124 1.14993 414.865 3.15163C410.606 5.15333 407.624 8.73085 408.434 9.79558C409.243 10.8603 412.735 7.58093 415.802 5.87736C419.336 3.91824 423.212 3.36458 423.255 1.74618Z" fill="white"/>
<path d="M427.981 2.0021C427.981 1.40585 425.085 0.767011 425 1.83175C424.915 2.93907 427.981 3.06684 427.981 2.0021Z" fill="white"/>
<circle cx="425" cy="26" r="16" fill="white"/>
<path d="M423.366 29.624V32H413.844V30.11L418.704 25.52C419.22 25.028 419.568 24.608 419.748 24.26C419.928 23.9 420.018 23.546 420.018 23.198C420.018 22.694 419.844 22.31 419.496 22.046C419.16 21.77 418.662 21.632 418.002 21.632C417.45 21.632 416.952 21.74 416.508 21.956C416.064 22.16 415.692 22.472 415.392 22.892L413.268 21.524C413.76 20.792 414.438 20.222 415.302 19.814C416.166 19.394 417.156 19.184 418.272 19.184C419.208 19.184 420.024 19.34 420.72 19.652C421.428 19.952 421.974 20.384 422.358 20.948C422.754 21.5 422.952 22.154 422.952 22.91C422.952 23.594 422.808 24.236 422.52 24.836C422.232 25.436 421.674 26.12 420.846 26.888L417.948 29.624H423.366ZM433.191 25.376C433.815 25.688 434.289 26.096 434.613 26.6C434.949 27.104 435.117 27.686 435.117 28.346C435.117 29.126 434.895 29.81 434.451 30.398C434.007 30.974 433.383 31.424 432.579 31.748C431.775 32.06 430.845 32.216 429.789 32.216C428.733 32.216 427.803 32.06 426.999 31.748C426.207 31.424 425.589 30.974 425.145 30.398C424.713 29.81 424.497 29.126 424.497 28.346C424.497 27.686 424.659 27.104 424.983 26.6C425.319 26.096 425.793 25.688 426.405 25.376C425.937 25.088 425.577 24.728 425.325 24.296C425.073 23.852 424.947 23.348 424.947 22.784C424.947 22.052 425.151 21.416 425.559 20.876C425.967 20.336 426.537 19.922 427.269 19.634C428.001 19.334 428.841 19.184 429.789 19.184C430.749 19.184 431.595 19.334 432.327 19.634C433.071 19.922 433.647 20.336 434.055 20.876C434.463 21.416 434.667 22.052 434.667 22.784C434.667 23.348 434.541 23.852 434.289 24.296C434.037 24.728 433.671 25.088 433.191 25.376ZM429.789 21.326C429.201 21.326 428.727 21.47 428.367 21.758C428.019 22.034 427.845 22.418 427.845 22.91C427.845 23.39 428.019 23.768 428.367 24.044C428.715 24.32 429.189 24.458 429.789 24.458C430.389 24.458 430.869 24.32 431.229 24.044C431.589 23.768 431.769 23.39 431.769 22.91C431.769 22.418 431.589 22.034 431.229 21.758C430.869 21.47 430.389 21.326 429.789 21.326ZM429.789 30.074C430.521 30.074 431.097 29.912 431.517 29.588C431.949 29.252 432.165 28.808 432.165 28.256C432.165 27.704 431.949 27.266 431.517 26.942C431.097 26.618 430.521 26.456 429.789 26.456C429.069 26.456 428.499 26.618 428.079 26.942C427.659 27.266 427.449 27.704 427.449 28.256C427.449 28.82 427.659 29.264 428.079 29.588C428.499 29.912 429.069 30.074 429.789 30.074Z" fill="#2F2F2F"/>
</g>
<defs>
<clipPath id="clip0_5859_123289">
<rect width="50" height="50" fill="white"/>
</clipPath>
<clipPath id="clip1_5859_123289">
<rect width="50" height="50" fill="white" transform="translate(80)"/>
</clipPath>
<clipPath id="clip2_5859_123289">
<rect width="50" height="50" fill="white" transform="translate(160)"/>
</clipPath>
<clipPath id="clip3_5859_123289">
<rect width="50" height="50" fill="white" transform="translate(240)"/>
</clipPath>
<clipPath id="clip4_5859_123289">
<rect width="50" height="50" fill="white" transform="translate(320)"/>
</clipPath>
<clipPath id="clip5_5859_123289">
<rect width="50" height="50" fill="white" transform="translate(400)"/>
</clipPath>
</defs>
</svg>
