<svg width="38" height="41" viewBox="0 0 38 41" fill="none" xmlns="http://www.w3.org/2000/svg">
<g clip-path="url(#clip0_5018_132948)">
<path d="M18.3881 10.005C18.3881 10.005 1.74334 19.2059 0 1.46814C0 1.46814 11.8852 -3.11159 18.3881 10.005Z" fill="#619631"/>
<path d="M1.99219 2.56056C2.04754 2.56056 2.04754 2.47754 1.99219 2.47754C1.93685 2.47754 1.93685 2.56056 1.99219 2.56056Z" fill="#5D8C30"/>
<path d="M2.3521 2.94893C4.89793 4.38788 7.55445 5.63312 10.1833 6.90604C11.4839 7.52866 12.7845 8.15128 14.0989 8.76007C14.763 9.06446 15.4272 9.34118 16.0913 9.60407C16.7139 9.85312 17.3642 10.2267 18.056 10.0191C18.3189 9.93613 18.3742 9.63174 18.2497 9.4242C17.89 8.84308 17.1428 8.69089 16.534 8.46951C15.8561 8.22046 15.1781 7.97141 14.4863 7.72236C13.1165 7.2381 11.7468 6.75384 10.3908 6.22807C7.69281 5.17653 5.06397 3.9728 2.40745 2.82441C2.32443 2.76906 2.26908 2.90742 2.3521 2.94893Z" fill="#5D8C30"/>
<path d="M6.28132 1.6619C6.29516 2.35371 6.58572 3.03167 6.8486 3.66813C7.09765 4.30459 7.37437 5.0379 7.80329 5.56367C7.94165 5.7297 8.21837 5.60518 8.14919 5.3838C7.91398 4.70583 7.49889 4.08321 7.20834 3.43292C6.94545 2.82413 6.75175 2.17384 6.39201 1.60656C6.3505 1.57889 6.26749 1.60656 6.28132 1.6619Z" fill="#5D8C30"/>
<path d="M3.59767 7.73652C4.37249 7.3076 5.17498 6.97554 6.00514 6.64347C6.66927 6.38059 7.55478 5.85482 8.30193 5.96551C8.68934 6.02085 8.80002 5.46741 8.41262 5.38439C7.61013 5.19069 6.62777 5.85482 5.93596 6.17305C5.11964 6.54662 4.05426 6.89252 3.48698 7.612C3.4178 7.69501 3.51466 7.79186 3.59767 7.73652Z" fill="#5D8C30"/>
<path d="M10.543 3.23964C10.626 3.93145 10.9304 4.62325 11.0964 5.30121C11.2901 6.04836 11.4285 6.80934 11.5945 7.57032C11.6499 7.84704 12.1479 7.75019 12.0926 7.45964C11.9681 6.71249 11.7605 5.96534 11.5115 5.24587C11.2901 4.58174 11.0272 3.76541 10.5845 3.21197C10.5845 3.19813 10.543 3.21197 10.543 3.23964Z" fill="#5D8C30"/>
<path d="M7.25015 9.75496C8.02497 9.39522 8.75828 8.93863 9.5331 8.53738C10.3909 8.09463 11.2626 7.72106 12.1758 7.38899C12.577 7.23679 12.328 6.61417 11.9544 6.79404C10.3079 7.56886 8.50923 8.39902 7.16714 9.63043C7.09796 9.67194 7.18097 9.78263 7.25015 9.75496Z" fill="#5D8C30"/>
<path d="M17.5995 4.02764C18.2775 3.88928 19.0108 4.06914 19.5227 4.5119C18.734 5.23137 18.7479 6.46278 18.7479 7.4313C18.7479 8.06776 19.8133 13.1733 18.9416 13.1318C17.475 13.0626 17.0737 4.13832 17.5995 4.02764Z" fill="#666720"/>
<path d="M33.5938 35.8777C33.0957 36.3343 32.5838 36.7632 32.058 37.1645C31.7951 37.372 31.5322 37.5657 31.2555 37.7456C28.9311 39.3921 25.9286 41.1216 23.0507 39.8764C22.7879 39.821 22.525 39.7795 22.2621 39.738C21.9992 39.6965 21.7363 39.6688 21.4596 39.655C20.5326 39.6135 19.5917 39.8487 18.7754 40.1669C18.4157 40.2638 18.0559 40.3468 17.6962 40.416C16.2434 40.7065 14.7491 40.7895 13.3102 40.582C12.9504 40.5266 12.5907 40.4713 12.2448 40.3744C9.49142 39.4613 6.89024 37.7871 4.71798 35.7947C4.51044 35.5872 4.28906 35.3796 4.09536 35.1721C-0.0416179 30.8553 -0.332175 23.2039 2.4212 18.1399C2.83628 17.3651 3.27903 16.6733 3.76329 16.0784C4.98087 14.5564 6.47516 13.5602 8.73043 12.9653C10.9442 12.3841 13.241 12.1074 15.5239 12.1628C17.8761 12.2181 19.6886 12.2458 21.8608 11.4295C23.5903 10.7792 25.472 10.71 27.2846 11.0005C30.5222 11.5263 33.3724 12.8131 35.1434 15.5526C36.4994 17.6557 37.3987 20.1046 37.7861 22.6228C38.4779 27.4239 37.288 32.4741 33.5938 35.8777Z" fill="#98C11F"/>
<path d="M33.5938 35.878C33.0957 36.3346 32.5838 36.7635 32.058 37.1647C31.7951 37.3723 31.5322 37.566 31.2555 37.7459C28.9311 39.3923 25.9286 41.1218 23.0507 39.8766C22.7879 39.8213 22.525 39.7798 22.2621 39.7382C21.9992 39.6967 21.7363 39.6691 21.4596 39.6552C20.5326 39.6137 19.5917 39.8489 18.7754 40.1672C18.4157 40.264 18.0559 40.347 17.6962 40.4162C16.2434 40.7068 14.7491 40.7898 13.3102 40.5822C12.9504 40.5269 12.5907 40.4716 12.2448 40.3747C9.49142 39.4615 6.89024 37.7874 4.71798 35.795C4.51044 35.5874 4.28906 35.3799 4.09536 35.1723C-0.0416179 30.8555 -0.332175 23.2042 2.4212 18.1402C2.83628 17.3654 3.27903 16.6736 3.76329 16.0786C2.46271 18.3892 1.9231 21.1564 2.22749 23.7853C2.50421 26.1374 3.41739 28.3789 4.77332 30.3297C4.9947 30.6618 5.24375 30.9662 5.4928 31.2844C8.35686 34.4529 12.2725 36.4314 16.4786 36.4729C16.8522 36.5006 17.2119 36.5144 17.5855 36.5283C18.1943 36.556 18.8031 36.556 19.4119 36.5421C20.0206 36.5283 20.6294 36.5006 21.2244 36.4453C25.0708 36.2239 29.2216 35.5874 32.0718 32.6542C32.6253 32.1976 33.1372 31.6995 33.6215 31.1876C34.1057 30.6618 34.5623 30.1222 34.9774 29.5411C36.4579 27.4933 37.3987 25.0859 37.7723 22.6092C38.4779 27.4242 37.288 32.4743 33.5938 35.878Z" fill="#8AAF26"/>
<path d="M26.828 17.0475C27.1047 17.3381 27.4091 17.5733 27.7135 17.7393C30.4531 19.2613 33.9674 15.4564 31.0618 13.6162C30.0656 12.9797 28.3777 12.3294 27.1601 12.6753C24.8356 13.3533 25.5274 15.6916 26.828 17.0475Z" fill="#BDD14C"/>
<path d="M33.912 16.951C34.507 17.1447 34.9774 17.7534 34.4655 18.722C34.4101 18.8188 34.3409 18.9157 34.2579 18.9849C34.1472 19.054 34.0227 19.0817 33.8982 19.0955C33.3032 19.137 32.7083 18.6943 32.5561 18.1132C32.307 17.0755 33.2064 16.7157 33.912 16.951Z" fill="#BDD14C"/>
</g>
<defs>
<clipPath id="clip0_5018_132948">
<rect width="37.9523" height="40" fill="white" transform="translate(0 0.693359)"/>
</clipPath>
</defs>
</svg>
