<svg width="192" height="30" viewBox="0 0 192 30" fill="none" xmlns="http://www.w3.org/2000/svg">
<path d="M24.296 13.422C26.096 13.422 27.416 13.764 28.256 14.448C29.108 15.12 29.534 16.044 29.534 17.22C29.534 17.964 29.354 18.636 28.994 19.236C28.646 19.824 28.112 20.292 27.392 20.64C26.684 20.976 25.808 21.144 24.764 21.144C23.876 21.144 23.018 21.012 22.19 20.748C21.362 20.472 20.678 20.094 20.138 19.614L20.966 18.192C21.398 18.6 21.95 18.93 22.622 19.182C23.294 19.422 24.002 19.542 24.746 19.542C25.694 19.542 26.426 19.344 26.942 18.948C27.47 18.54 27.734 17.988 27.734 17.292C27.734 16.536 27.446 15.966 26.87 15.582C26.294 15.186 25.31 14.988 23.918 14.988H21.056L21.722 8.4H28.832V9.966H23.234L22.892 13.422H24.296Z" fill="#2F2F2F"/>
<path d="M5 1H45V-1H5V1ZM49 5V25H51V5H49ZM45 29H5V31H45V29ZM1 25V5H-1V25H1ZM5 29C2.79086 29 1 27.2091 1 25H-1C-1 28.3137 1.68629 31 5 31V29ZM49 25C49 27.2091 47.2091 29 45 29V31C48.3137 31 51 28.3137 51 25H49ZM45 1C47.2091 1 49 2.79086 49 5H51C51 1.68629 48.3137 -1 45 -1V1ZM5 -1C1.68629 -1 -1 1.68629 -1 5H1C1 2.79086 2.79086 1 5 1V-1Z" fill="#2F2F2F"/>
<path d="M64.5317 15.42H61.2557V18.642H59.7437V15.42H56.4677V13.998H59.7437V10.758H61.2557V13.998H64.5317V15.42Z" fill="#2F2F2F"/>
<path d="M96.5376 13.692C97.7736 13.812 98.7156 14.196 99.3636 14.844C100.012 15.48 100.336 16.296 100.336 17.292C100.336 18.012 100.156 18.666 99.7956 19.254C99.4356 19.83 98.8956 20.292 98.1756 20.64C97.4676 20.976 96.5976 21.144 95.5656 21.144C94.6656 21.144 93.8016 21.012 92.9736 20.748C92.1456 20.472 91.4676 20.094 90.9396 19.614L91.7676 18.192C92.1996 18.6 92.7516 18.93 93.4236 19.182C94.0956 19.422 94.8096 19.542 95.5656 19.542C96.5016 19.542 97.2276 19.344 97.7436 18.948C98.2716 18.552 98.5356 18.006 98.5356 17.31C98.5356 16.614 98.2776 16.074 97.7616 15.69C97.2456 15.306 96.4656 15.114 95.4216 15.114H94.4136V13.854L97.5816 9.966H91.5156V8.4H99.8316V9.624L96.5376 13.692Z" fill="#2F2F2F"/>
<path d="M76 1H116V-1H76V1ZM120 5V25H122V5H120ZM116 29H76V31H116V29ZM72 25V5H70V25H72ZM76 29C73.7909 29 72 27.2091 72 25H70C70 28.3137 72.6863 31 76 31V29ZM120 25C120 27.2091 118.209 29 116 29V31C119.314 31 122 28.3137 122 25H120ZM116 1C118.209 1 120 2.79086 120 5H122C122 1.68629 119.314 -1 116 -1V1ZM76 -1C72.6863 -1 70 1.68629 70 5H72C72 2.79086 73.7909 1 76 1V-1Z" fill="#2F2F2F"/>
<path d="M127.468 11.856H135.532V13.278H127.468V11.856ZM127.468 16.122H135.532V17.544H127.468V16.122Z" fill="#2F2F2F"/>
<path d="M169.776 14.394C170.496 14.67 171.048 15.066 171.432 15.582C171.816 16.098 172.008 16.716 172.008 17.436C172.008 18.192 171.804 18.852 171.396 19.416C170.988 19.968 170.406 20.394 169.65 20.694C168.894 20.994 168.006 21.144 166.986 21.144C165.978 21.144 165.096 20.994 164.34 20.694C163.596 20.394 163.02 19.968 162.612 19.416C162.204 18.852 162 18.192 162 17.436C162 16.716 162.186 16.098 162.558 15.582C162.942 15.066 163.494 14.67 164.214 14.394C163.638 14.118 163.2 13.752 162.9 13.296C162.6 12.84 162.45 12.3 162.45 11.676C162.45 10.98 162.636 10.374 163.008 9.858C163.392 9.342 163.926 8.946 164.61 8.67C165.294 8.394 166.086 8.256 166.986 8.256C167.898 8.256 168.696 8.394 169.38 8.67C170.076 8.946 170.61 9.342 170.982 9.858C171.366 10.374 171.558 10.98 171.558 11.676C171.558 12.288 171.402 12.828 171.09 13.296C170.79 13.752 170.352 14.118 169.776 14.394ZM166.986 9.714C166.134 9.714 165.462 9.9 164.97 10.272C164.478 10.632 164.232 11.124 164.232 11.748C164.232 12.372 164.472 12.864 164.952 13.224C165.444 13.584 166.122 13.764 166.986 13.764C167.862 13.764 168.546 13.584 169.038 13.224C169.542 12.864 169.794 12.372 169.794 11.748C169.794 11.124 169.536 10.632 169.02 10.272C168.516 9.9 167.838 9.714 166.986 9.714ZM166.986 19.686C167.982 19.686 168.768 19.482 169.344 19.074C169.92 18.654 170.208 18.09 170.208 17.382C170.208 16.686 169.92 16.14 169.344 15.744C168.768 15.336 167.982 15.132 166.986 15.132C165.99 15.132 165.21 15.336 164.646 15.744C164.082 16.14 163.8 16.686 163.8 17.382C163.8 18.09 164.082 18.654 164.646 19.074C165.21 19.482 165.99 19.686 166.986 19.686Z" fill="#2F2F2F"/>
<path d="M147 1H187V-1H147V1ZM191 5V25H193V5H191ZM187 29H147V31H187V29ZM143 25V5H141V25H143ZM147 29C144.791 29 143 27.2091 143 25H141C141 28.3137 143.686 31 147 31V29ZM191 25C191 27.2091 189.209 29 187 29V31C190.314 31 193 28.3137 193 25H191ZM187 1C189.209 1 191 2.79086 191 5H193C193 1.68629 190.314 -1 187 -1V1ZM147 -1C143.686 -1 141 1.68629 141 5H143C143 2.79086 144.791 1 147 1V-1Z" fill="#2F2F2F"/>
</svg>
