<svg width="38" height="79" viewBox="0 0 38 79" fill="none" xmlns="http://www.w3.org/2000/svg">
<path d="M33.0544 8.35458C32.7894 8.81268 32.2485 9.06354 31.9725 9.51073C31.0451 11.0159 33.5291 12.1721 35.1631 12.9356C37.7464 14.1353 39.0933 17.931 36.8963 19.687C35.7923 20.5705 34.2357 20.6469 32.8888 21.105C31.5309 21.574 30.2061 22.9046 30.7581 24.1808C31.2107 25.2278 32.7894 25.8277 32.6238 26.9512C32.4472 28.1182 30.6918 28.1618 29.7203 28.8817C28.4617 29.8197 29.1572 32.1647 30.736 32.3393C28.263 33.7245 25.3926 36.3094 26.7947 38.7199C28.3072 41.3267 33.7389 40.9777 33.7499 43.9662C33.7499 45.7768 31.5529 46.6712 29.93 47.5874C28.3072 48.5036 27.1259 51.0994 28.826 51.852C29.8969 52.3319 31.6965 51.7757 31.9725 52.8773C32.2705 54.0662 29.9852 54.4261 29.7534 55.6259C29.6099 56.3567 30.2944 56.9566 30.8464 57.4801C33.0434 59.5852 34.9422 63.7953 32.6128 65.7695C31.6523 66.5875 30.0294 65.9985 28.8481 65.5186C27.5123 66.413 28.1636 68.3981 28.8481 69.816C29.5326 71.2339 29.8528 73.3826 28.3403 73.9498C27.4681 73.5571 26.5849 73.1645 25.7127 72.7827C26.1433 75.2259 22.754 79.4033 20.0602 78.9561C16.6709 78.3999 21.0538 74.1897 23.6482 66.5439C26.4745 58.2218 24.4983 45.5914 23.6703 38.8617C22.5994 30.2124 20.8882 21.4431 20.292 12.7501C19.8725 6.67489 24.686 -3.79591 29.632 1.40677C30.8243 2.66109 28.9806 4.80978 28.7819 6.52219C29.8969 6.02047 34.5006 5.9223 33.0544 8.35458Z" fill="#C3234C"/>
<path d="M10.7312 24.9553C13.3035 28.3365 13.3035 30.7688 13.3035 30.7688C13.3035 30.7688 7.16523 35.1426 5.46505 36.7023C1.8991 39.9744 0.34245 45.1553 1.53478 49.769C2.72711 54.3827 6.61322 58.2547 11.3715 59.5526C14.7387 60.4688 19.0444 60.567 20.6121 63.5773C22.1577 66.5441 21.705 71.5831 16.6707 72.7938C15.3901 73.0992 12.3872 71.8885 11.7579 70.7651C10.3889 68.3546 12.1664 66.4895 13.4802 66.4241C14.805 66.3586 10.7422 68.7037 12.8398 69.369C13.701 69.6417 15.8096 68.78 16.1187 67.962C16.4279 67.1439 16.0635 66.195 15.4343 65.5733C13.6678 63.8282 10.2454 64.6244 9.00892 66.7513C7.77243 68.8782 8.4238 71.6704 10.0136 73.5682C11.9787 75.9132 15.3018 77.1239 18.382 76.6222C22.9857 75.8805 26.916 71.4086 27.8654 67.0021C28.8148 62.5957 27.8985 58.5928 26.8166 54.2191C25.7347 49.8453 24.3767 46.475 24.3105 40.607C24.2663 36.3532 24.0897 33.5938 25.7678 29.6563C27.4459 25.7188 30.8241 21.4542 30.6585 17.2113C30.3936 10.9834 26.7945 6.10791 19.8172 6.10791C12.8398 6.10791 10.0136 11.5615 8.6446 16.8732C7.94907 19.5672 3.75384 18.891 3.75384 18.891C3.75384 18.891 -1.14796 14.1792 0.254129 21.9232C1.65622 29.6672 4.44936 22.5994 4.44936 22.5994C4.44936 22.5994 8.6998 22.2831 10.7312 24.9553Z" fill="#FF648D"/>
<g opacity="0.23">
<path opacity="0.23" d="M26.4192 10.9834C26.3088 9.80541 26.0217 8.66017 25.6022 7.56946C24.0345 6.63145 22.1136 6.10791 19.8172 6.10791C12.8288 6.10791 10.0136 11.5615 8.64464 16.8732C8.5232 17.3531 8.28031 17.7349 7.97119 18.0184C8.00431 18.073 8.02639 18.1166 8.05951 18.1711C8.97584 19.6109 10.1351 20.9088 11.5923 21.8032C14.8381 23.7774 19.2983 23.3302 22.2902 21.007C25.2821 18.6838 26.7725 14.7245 26.4192 10.9834Z" fill="white"/>
</g>
<path d="M18.5142 21.3447C20.7112 20.2758 21.9477 17.6144 21.2963 15.4003C20.6339 13.1862 18.3155 12.2482 16.1296 13.3062C13.9326 14.375 12.6961 17.0364 13.3475 19.2505C13.9988 21.4755 16.3173 22.4136 18.5142 21.3447Z" fill="#E9365C"/>
<path d="M19.7949 19.087C20.5898 17.6581 20.093 15.9021 18.6909 15.1713C17.2778 14.4296 15.4893 14.9859 14.6944 16.4147C13.8995 17.8436 14.3963 19.5996 15.7984 20.3304C17.2116 21.0612 19 20.5049 19.7949 19.087Z" fill="white"/>
<path d="M19.232 18.4977C19.8171 17.4506 19.4749 16.1635 18.4481 15.6291C17.4325 15.0946 16.1297 15.5091 15.5336 16.5671C14.9484 17.6142 15.2907 18.9012 16.3174 19.4357C17.3331 19.9701 18.6358 19.5447 19.232 18.4977Z" fill="#2F363C"/>
<g opacity="0.46">
<path opacity="0.46" d="M18.503 16.742C18.7791 16.5675 18.8674 16.2185 18.7128 15.9676C18.5582 15.7059 18.205 15.6404 17.929 15.804C17.653 15.9786 17.5646 16.3276 17.7192 16.5784C17.8738 16.8402 18.227 16.9166 18.503 16.742Z" fill="white"/>
</g>
<g opacity="0.46">
<path opacity="0.46" d="M16.8915 20.0577C17.311 19.7959 17.4435 19.2615 17.2006 18.8688C16.9577 18.4762 16.4278 18.3671 16.0083 18.618C15.5888 18.8688 15.4563 19.4142 15.6992 19.8068C15.9421 20.2104 16.472 20.3195 16.8915 20.0577Z" fill="white"/>
</g>
<g opacity="0.52">
<g opacity="0.69">
<path opacity="0.69" d="M13.3037 30.7577C13.3037 30.7577 7.16537 35.1315 5.4652 36.6912C1.89925 39.9742 0.342592 45.1551 1.53492 49.7688C2.72725 54.3825 6.61336 58.2545 11.3716 59.5524C13.3589 60.0978 15.6662 60.3486 17.5541 61.0794C15.2798 59.4215 13.5686 57.0438 12.7958 54.3934C11.8022 50.9467 12.4315 47.0965 14.485 44.108C15.865 42.1011 17.8191 40.5087 19.1328 38.4581C20.4466 36.4076 20.3583 33.4082 18.36 31.9684C14.9818 29.5471 13.3037 30.7577 13.3037 30.7577Z" fill="white"/>
</g>
<g opacity="0.52">
<path opacity="0.52" d="M19.6406 62.3228C19.6627 62.3448 19.6848 62.3557 19.7069 62.3777C19.7179 62.3777 19.74 62.3777 19.751 62.3667C19.7069 62.3557 19.6737 62.3338 19.6406 62.3228Z" fill="#FFD0B5"/>
</g>
</g>
<path d="M1.13721 18.2364C-0.419439 18.8363 0.717691 24.3008 1.97626 23.8972C3.23483 23.4827 3.23483 17.4184 1.13721 18.2364Z" fill="#E9365C"/>
<path d="M10.8086 32.71C11.9236 32.3282 13.4913 32.4373 14.783 33.1245C16.6709 34.1061 17.4326 35.8403 17.521 36.0367C17.2781 35.7422 16.0195 34.1715 14.5953 33.4953C12.8731 32.5791 11.206 32.6773 10.8086 32.71Z" fill="#E9365C"/>
<path d="M6.7124 35.8186C7.13193 35.7096 7.56249 35.6768 7.99305 35.655C8.42362 35.6441 8.86522 35.6659 9.29578 35.7314C10.1569 35.8404 11.007 36.0913 11.8019 36.4621C12.5968 36.833 13.3144 37.3456 13.9437 37.9455C14.5619 38.5563 15.0808 39.2544 15.4562 40.0178C14.9041 39.3743 14.319 38.7744 13.6787 38.24C13.0273 37.7165 12.3318 37.2693 11.5811 36.9202C10.8304 36.5603 10.0465 36.2985 9.22954 36.1131C8.82106 36.0259 8.41258 35.9495 7.99305 35.9059C7.56249 35.8514 7.14297 35.8295 6.7124 35.8186Z" fill="#E9365C"/>
<path d="M2.30762 50.9684C4.18443 49.6704 6.49181 49.2887 6.53597 49.2778C7.22046 49.1578 9.16352 48.8524 11.0735 49.5941C10.6319 49.5177 8.79919 49.2123 6.60222 49.6486C5.06764 49.9213 3.37851 50.5212 2.30762 50.9684Z" fill="#E9365C"/>
<path d="M4.87988 54.612C5.33253 54.2957 6.19365 53.8376 7.4191 53.5976C8.89847 53.314 9.89208 53.7067 10.135 53.783C9.66024 53.7285 8.90951 53.5649 7.45222 53.8157C6.6463 53.9684 5.75205 54.2411 4.87988 54.612Z" fill="#E9365C"/>
<path d="M2.49512 41.2068C2.92568 40.9668 3.38936 40.8032 3.86409 40.6614C4.33881 40.5196 4.82458 40.4215 5.32138 40.356C6.30395 40.2251 7.31964 40.2469 8.30221 40.4106C9.28477 40.5742 10.2453 40.9123 11.1285 41.3704C12.0006 41.8503 12.7955 42.4393 13.4579 43.1592C12.641 42.6247 11.8019 42.1448 10.9297 41.7739C10.0576 41.4031 9.14125 41.1304 8.20285 40.9668C7.26444 40.8032 6.31499 40.7487 5.36554 40.7923C4.89082 40.8141 4.40505 40.8577 3.93033 40.9232C3.44457 40.9995 2.96984 41.0868 2.49512 41.2068Z" fill="#E9365C"/>
<path d="M1.19287 45.9292C1.61239 45.6674 2.06504 45.482 2.52872 45.3075C2.99241 45.1438 3.47817 45.013 3.96393 44.9257C4.9465 44.7403 5.95115 44.7076 6.94476 44.8275C7.93837 44.9475 8.90989 45.2311 9.81518 45.6456C10.7094 46.071 11.5374 46.6381 12.233 47.3144C11.3829 46.8235 10.5217 46.3873 9.6275 46.06C8.73325 45.7328 7.80589 45.5038 6.86748 45.3947C5.92907 45.2856 4.96858 45.2747 4.01913 45.362C3.54441 45.4056 3.06969 45.4711 2.59496 45.5692C2.13128 45.6783 1.6676 45.7874 1.19287 45.9292Z" fill="#E9365C"/>
</svg>
