<svg width="223" height="31" viewBox="0 0 223 31" fill="none" xmlns="http://www.w3.org/2000/svg">
<path d="M27.7951 13.4479C28.6231 13.4448 29.3617 13.5981 30.0108 13.9076C30.672 14.2172 31.1896 14.6653 31.5638 15.2519C31.938 15.8265 32.1264 16.4918 32.1293 17.2478C32.1322 18.0398 31.9368 18.7365 31.543 19.338C31.1613 19.9394 30.629 20.4094 29.9463 20.7479C29.2755 21.0744 28.5201 21.2392 27.6801 21.2424C25.9881 21.2487 24.6781 20.7075 23.75 19.619C22.834 18.5304 22.3722 16.9841 22.3648 14.9801C22.3595 13.5761 22.6011 12.3812 23.0894 11.3954C23.5897 10.3975 24.2829 9.64493 25.169 9.13763C26.0671 8.61829 27.1101 8.3564 28.2981 8.35198C28.9101 8.3497 29.4864 8.41356 30.0268 8.54354C30.5673 8.66153 31.036 8.83979 31.4328 9.07831L30.7541 10.4848C30.1526 10.0911 29.3479 9.89608 28.3399 9.89983C27.0319 9.9047 26.0074 10.3165 25.2665 11.1353C24.5255 11.942 24.1578 13.1194 24.1636 14.6674C24.1643 14.8594 24.1709 15.0094 24.1833 15.1173C24.5413 14.576 25.0317 14.1662 25.6547 13.8879C26.2896 13.5975 27.0031 13.4508 27.7951 13.4479ZM27.6027 19.7846C28.4307 19.7816 29.1018 19.5571 29.6162 19.1111C30.1305 18.6652 30.3863 18.0703 30.3835 17.3263C30.3808 16.5823 30.1146 15.9953 29.585 15.5652C29.0673 15.1232 28.3705 14.9038 27.4945 14.907C26.9305 14.9091 26.4269 15.019 25.9837 15.2366C25.5525 15.4542 25.2116 15.7495 24.961 16.1225C24.7224 16.4953 24.604 16.9098 24.6056 17.3658C24.6073 17.8098 24.7228 18.2174 24.9522 18.5885C25.1935 18.9476 25.5366 19.2403 25.9815 19.4667C26.4383 19.681 26.9787 19.787 27.6027 19.7846Z" fill="#2F2F2F"/>
<path d="M5.00369 1.18255L49.0034 1.01876L48.9959 -0.981226L4.99624 -0.817434L5.00369 1.18255ZM53.0182 5.00384L53.0927 25.0037L55.0927 24.9963L55.0182 4.9964L53.0182 5.00384ZM49.1076 29.0186L5.10792 29.1824L5.11536 31.1823L49.1151 31.0186L49.1076 29.0186ZM1.09306 25.1973L1.01861 5.19742L-0.98138 5.20486L-0.90693 25.2047L1.09306 25.1973ZM5.10792 29.1824C2.8988 29.1906 1.10128 27.4064 1.09306 25.1973L-0.90693 25.2047C-0.894594 28.5184 1.80168 31.1947 5.11536 31.1823L5.10792 29.1824ZM53.0927 25.0037C53.1009 27.2128 51.3167 29.0103 49.1076 29.0186L49.1151 31.0186C52.4287 31.0062 55.105 28.3099 55.0927 24.9963L53.0927 25.0037ZM49.0034 1.01876C51.2125 1.01054 53.01 2.79472 53.0182 5.00384L55.0182 4.9964C55.0059 1.68271 52.3096 -0.993561 48.9959 -0.981226L49.0034 1.01876ZM4.99624 -0.817434C1.68256 -0.805098 -0.993716 1.89118 -0.98138 5.20486L1.01861 5.19742C1.01038 2.98829 2.79456 1.19078 5.00369 1.18255L4.99624 -0.817434Z" fill="#2F2F2F"/>
<path d="M84.1113 5C84.1113 2.23858 86.3499 0 89.1113 0H133.111C135.873 0 138.111 2.23858 138.111 5V25C138.111 27.7614 135.873 30 133.111 30H89.1113C86.3499 30 84.1113 27.7614 84.1113 25V5Z" fill="#369CB7"/>
<path d="M115.143 12.234L108.753 14.7L115.143 17.166V18.66L107.079 15.474V13.926L115.143 10.74V12.234Z" fill="white"/>
<path d="M89.1113 1H133.111V-1H89.1113V1ZM137.111 5V25H139.111V5H137.111ZM133.111 29H89.1113V31H133.111V29ZM85.1113 25V5H83.1113V25H85.1113ZM89.1113 29C86.9022 29 85.1113 27.2091 85.1113 25H83.1113C83.1113 28.3137 85.7976 31 89.1113 31V29ZM137.111 25C137.111 27.2091 135.32 29 133.111 29V31C136.425 31 139.111 28.3137 139.111 25H137.111ZM133.111 1C135.32 1 137.111 2.79086 137.111 5H139.111C139.111 1.68629 136.425 -1 133.111 -1V1ZM89.1113 -1C85.7976 -1 83.1113 1.68629 83.1113 5H85.1113C85.1113 2.79086 86.9022 1 89.1113 1V-1Z" fill="#369CB7"/>
<path d="M199.776 8.4V9.624L194.682 21H192.774L197.76 9.966H192V12.216H190.272V8.4H199.776Z" fill="#2F2F2F"/>
<path d="M173.111 1H217.111V-1H173.111V1ZM221.111 5V25H223.111V5H221.111ZM217.111 29H173.111V31H217.111V29ZM169.111 25V5H167.111V25H169.111ZM173.111 29C170.902 29 169.111 27.2091 169.111 25H167.111C167.111 28.3137 169.798 31 173.111 31V29ZM221.111 25C221.111 27.2091 219.32 29 217.111 29V31C220.425 31 223.111 28.3137 223.111 25H221.111ZM217.111 1C219.32 1 221.111 2.79086 221.111 5H223.111C223.111 1.68629 220.425 -1 217.111 -1V1ZM173.111 -1C169.798 -1 167.111 1.68629 167.111 5H169.111C169.111 2.79086 170.902 1 173.111 1V-1Z" fill="#2F2F2F"/>
</svg>
