<svg width="42" height="39" viewBox="0 0 42 39" fill="none" xmlns="http://www.w3.org/2000/svg">
<g clip-path="url(#clip0_5192_92182)">
<path d="M34.0692 26.3925C30.6369 26.3925 22.96 23.313 22.96 19.5205C22.96 15.7279 30.6369 12.6484 34.0692 12.6484C36.9024 12.6484 41.1979 14.8392 41.9493 17.7017C42.1118 18.3114 40.2941 18.8591 40.2941 19.5205C40.2941 20.1198 42.122 20.7915 42.0001 21.3392C41.2994 24.305 36.9633 26.3925 34.0692 26.3925Z" fill="#7162A7"/>
<path d="M29.8041 18.7973C29.8041 18.7973 31.1852 17.8363 32.6576 17.5469C34.0691 17.2679 37.5928 18.167 38.8723 17.5469C40.6697 16.6789 39.5831 15.1185 38.2224 14.4881C36.9632 13.9094 35.0135 13.4134 33.5918 13.5064C30.4134 13.7131 27.7427 15.7178 25.204 17.5676C22.0865 19.8514 26.9811 22.7139 29.0324 23.4269C31.9772 24.45 35.044 24.3466 38.0295 23.5922C39.6441 23.1789 40.7103 22.7552 40.0401 20.8124C39.4714 19.1797 37.6842 19.066 36.1711 18.8387C34.6581 18.6217 31.0328 17.6813 29.8041 18.7973Z" fill="#9789CB"/>
<path d="M7.48416 13.6093C10.9063 13.32 18.8067 15.7381 19.1215 19.5203C19.4363 23.3025 12.0335 27.0227 8.61134 27.312C5.78832 27.5601 1.33039 25.7413 0.34538 22.9408C0.142285 22.3518 1.89905 21.6491 1.84828 20.9877C1.79751 20.3884 -0.081119 19.882 0.0001189 19.3136C0.457082 16.3168 4.60021 13.8574 7.48416 13.6093Z" fill="#7162A7"/>
<path d="M12.3586 20.8225C12.3586 20.8225 11.0588 21.8972 9.62696 22.3106C8.24591 22.7136 4.66129 22.1143 3.43257 22.8376C1.71642 23.8607 2.91467 25.3178 4.33634 25.8344C5.63614 26.2995 7.61632 26.6302 9.02783 26.4235C12.1758 25.9481 14.684 23.7263 17.0501 21.6596C19.9645 19.1174 14.8566 16.6786 12.7546 16.1413C9.73866 15.3766 6.68208 15.7383 3.77783 16.7407C2.19369 17.2883 1.17821 17.805 2.00075 19.6858C2.70143 21.2669 4.48866 21.2255 6.02202 21.3289C7.53508 21.4116 11.2314 22.0316 12.3586 20.8225Z" fill="#9789CB"/>
<path d="M9.60663 28.2214C10.9268 24.9972 16.6743 18.9622 20.1168 20.4296C23.5592 21.8867 23.3968 30.2882 22.0767 33.5123C20.9901 36.1785 17.3547 39.3716 14.4606 38.9686C13.8513 38.8859 14.0443 36.9638 13.4451 36.7158C12.9069 36.4885 11.5868 37.9455 11.14 37.6149C8.73333 35.8168 8.49977 30.9392 9.60663 28.2214Z" fill="#7162A7"/>
<path d="M18.1366 27.1366C18.1366 27.1366 18.4717 28.8004 18.1772 30.2885C17.8929 31.7249 15.7198 34.6907 15.7909 36.1271C15.8924 38.1525 17.7203 37.7288 18.817 36.6851C19.8223 35.7344 21.0206 34.0913 21.4877 32.7066C22.5235 29.6478 21.7415 26.3616 21.0307 23.2614C20.1574 19.4586 15.6792 22.9514 14.2372 24.6048C12.1758 26.9713 11.0892 29.9061 10.6221 32.9959C10.3682 34.67 10.3581 35.8377 12.3789 35.9514C14.0747 36.0444 14.8668 34.4117 15.6589 33.0786C16.4408 31.7662 18.685 28.7177 18.1366 27.1366Z" fill="#9789CB"/>
<path d="M33.1348 12.3076C31.0937 15.1184 24.1073 19.5827 21.1015 17.3402C18.0957 15.0874 20.218 6.97536 22.2489 4.15421C23.9346 1.82909 28.2098 -0.392687 30.9211 0.692369C31.4999 0.919714 30.8602 2.73847 31.3781 3.13116C31.8553 3.48251 33.4699 2.38712 33.8253 2.82114C35.7649 5.13593 34.851 9.93084 33.1348 12.3076Z" fill="#7162A7"/>
<path d="M24.6052 11.2945C24.6052 11.2945 24.6661 9.58941 25.3058 8.21501C25.9253 6.89227 28.728 4.53615 28.992 3.12042C29.3677 1.12598 27.4993 1.09498 26.1893 1.83902C24.9809 2.53139 23.4272 3.83345 22.6554 5.06318C20.9393 7.79132 20.9291 11.1705 20.8987 14.343C20.8581 18.2492 26.0268 15.9344 27.8039 14.6737C30.3629 12.8652 32.0994 10.2921 33.2671 7.39863C33.9069 5.82789 34.1912 4.7015 32.2517 4.10213C30.6269 3.59577 29.4693 4.99084 28.3929 6.09657C27.3368 7.21262 24.4427 9.63075 24.6052 11.2945Z" fill="#9789CB"/>
<path d="M21.8634 34.5769C20.0559 31.6007 18.6038 23.3336 21.7822 21.3392C24.9606 19.3448 31.5612 24.3774 33.3688 27.3535C34.8615 29.813 35.2779 34.6802 33.2774 36.8297C32.8509 37.2844 31.4394 36.003 30.8808 36.3543C30.3833 36.6643 30.7793 38.6071 30.2513 38.7828C27.4079 39.7438 23.3765 37.088 21.8634 34.5769Z" fill="#7162A7"/>
<path d="M25.976 26.8987C25.976 26.8987 27.4992 27.5911 28.5147 28.7071C29.4895 29.7818 30.5863 33.3057 31.7744 34.0911C33.4499 35.1865 34.181 33.44 33.9881 31.921C33.8155 30.5362 33.2062 28.5831 32.3735 27.3947C30.5355 24.7493 27.4586 23.4782 24.5747 22.2588C21.0306 20.7604 21.2033 26.506 21.6806 28.6555C22.3711 31.7453 24.0669 34.3494 26.2603 36.5402C27.4484 37.7286 28.3725 38.421 29.6419 36.8192C30.7081 35.4758 29.8653 33.8637 29.2661 32.4273C28.6772 31.0116 27.55 27.3741 25.976 26.8987Z" fill="#9789CB"/>
<path d="M20.3401 4.58804C22.0664 7.60553 23.3256 15.914 20.0964 17.8257C16.8672 19.7375 10.3986 14.5396 8.66215 11.5117C7.23033 9.02127 6.92568 4.14369 8.9871 2.03558C9.42375 1.59122 10.8048 2.90362 11.3633 2.57294C11.871 2.27326 11.5156 0.320158 12.0538 0.16515C14.9175 -0.713228 18.888 2.04591 20.3401 4.58804Z" fill="#7162A7"/>
<path d="M16.0346 12.1628C16.0346 12.1628 14.5215 11.4291 13.5365 10.2924C12.5921 9.19701 11.5766 5.64216 10.4089 4.82579C8.76379 3.67873 7.99203 5.41482 8.14435 6.94423C8.28651 8.3393 8.84502 10.3027 9.64725 11.5118C11.4243 14.1986 14.4708 15.5523 17.3242 16.8441C20.8276 18.4355 20.7972 12.6899 20.3707 10.5197C19.7614 7.41959 18.1265 4.76378 15.9838 2.52133C14.8262 1.30194 13.9224 0.588902 12.6124 2.15965C11.5157 3.48238 12.3078 5.11513 12.8866 6.56187C13.435 7.98795 14.4707 11.6461 16.0346 12.1628Z" fill="#9789CB"/>
<path d="M21.4267 23.2923C19.3754 23.2923 17.7202 21.6078 17.7202 19.5204C17.7202 17.433 19.3754 15.7485 21.4267 15.7485C23.4779 15.7485 25.1332 17.433 25.1332 19.5204C25.1332 21.6078 23.4779 23.2923 21.4267 23.2923Z" fill="#E0922F"/>
<path d="M22.422 22.3827C22.6251 22.3827 22.5642 21.8764 22.7267 21.835C22.9704 21.773 23.275 22.1554 23.4273 22.0727C23.6711 21.928 23.2243 21.37 23.468 21.091C23.7117 20.8016 23.9351 21.0703 24.0569 20.8016C24.1788 20.533 23.6101 20.564 23.5086 20.1816C23.407 19.8096 23.8945 19.6133 23.8234 19.4376C23.7523 19.2619 23.336 19.6029 23.1329 19.5202C22.9399 19.4376 22.9907 19.0966 23.0008 18.8589C23.0008 18.7969 22.9095 18.7555 22.879 18.8279C22.7978 19.0242 22.6759 19.4376 22.3611 19.4789C22.0463 19.5202 21.8737 19.2309 21.701 19.0759C21.6604 19.0346 21.5792 19.0449 21.569 19.1172C21.5284 19.4272 21.7417 19.7166 21.5183 20.0059C21.305 20.3056 20.909 20.3366 20.777 20.6156C20.7465 20.6776 20.7871 20.7396 20.848 20.7396C22.1072 20.8326 21.1425 21.3493 21.2136 21.9177C21.2339 22.0624 21.6807 21.587 22.1072 21.804C22.2088 21.8247 22.2291 22.3827 22.422 22.3827Z" fill="#E8AE30"/>
</g>
<defs>
<clipPath id="clip0_5192_92182">
<rect width="42" height="39" fill="white"/>
</clipPath>
</defs>
</svg>
