<svg width="57" height="70" viewBox="0 0 57 70" fill="none" xmlns="http://www.w3.org/2000/svg">
<g clip-path="url(#clip0_5192_91845)">
<path d="M40.0502 62.8226C37.5513 63.7918 34.7939 62.4012 34.207 59.872L30.0735 42.2904L33.2239 40.7434L42.3618 56.667C43.6638 58.933 42.5745 61.8437 40.0502 62.8226Z" fill="#F7931E"/>
<g opacity="0.53">
<g opacity="0.53">
<path opacity="0.53" d="M32.1232 46.2601C33.053 49.2219 35.3705 57.1167 35.7199 60.1622C35.4984 58.6505 32.1375 46.297 32.1232 46.2601Z" fill="#F9D9A0"/>
</g>
<g opacity="0.53">
<path opacity="0.53" d="M32.1523 44.2265C34.07 49.5477 36.371 56.3462 37.8427 61.0064C36.2046 56.4814 33.7511 49.2897 32.1523 44.2265Z" fill="#F9D9A0"/>
</g>
<g opacity="0.53">
<path opacity="0.53" d="M34.0269 46.4263C35.5849 49.7664 37.9071 55.0015 39.6179 59.1872C38.0472 55.852 35.7377 50.612 34.0269 46.4263Z" fill="#F9D9A0"/>
</g>
<g opacity="0.53">
<path opacity="0.53" d="M35.9657 53.5351C36.7075 55.2973 37.9485 58.7605 38.535 60.7243C37.7582 58.8343 36.5173 55.3711 35.9657 53.5351Z" fill="#F9D9A0"/>
</g>
</g>
<path opacity="0.66" d="M42.3049 56.5621L37.4683 48.1174L33.2352 40.7393L30.0848 42.2863L32.0092 50.4466C34.6584 48.9244 37.874 50.0665 38.9828 52.662C40.4743 56.1693 41.3313 59.3572 40.1742 60.5128C38.2453 62.4626 36.2991 62.1853 34.7473 61.1189C35.8221 62.8369 38.0716 63.6327 40.1377 62.789C42.6096 61.7879 43.6021 58.8158 42.3049 56.5621Z" fill="#F38F13"/>
<path d="M33.2366 40.7385C37.688 49.6577 42.0809 56.3942 42.4591 57.5199C43.0837 59.469 42.2621 61.7528 40.1264 62.7932C42.2956 62.065 43.5676 59.6631 42.9301 57.3797C42.6058 56.2048 36.777 46.1798 33.2366 40.7385Z" fill="#99550B"/>
<path d="M10.0998 36.5066C10.8827 42.8901 12.558 48.3761 15.8754 50.0443C22.9561 53.5895 44.4777 45.2287 47.334 37.8439C48.6767 34.3825 46.253 29.1867 42.5605 23.9175L10.0998 36.5066Z" fill="#57AB10"/>
<path d="M47.3463 37.8386C44.6711 45.8035 23.2178 54.152 15.8877 50.0391C19.4857 51.4146 25.1374 50.1841 28.8527 49.0401C34.4994 47.345 44.7312 43.0234 47.3463 37.8386Z" fill="#457F0D"/>
<path d="M10.9727 41.5408C11.2764 42.8509 11.6452 44.0651 12.0821 45.1539C12.744 46.0706 13.4963 46.7685 14.3847 47.2156C21.4654 50.7608 42.987 42.4001 45.8433 35.0152C46.5574 33.169 46.2149 30.856 45.176 28.29L10.9774 41.5531L10.9727 41.5408Z" fill="#F7D39D"/>
<path d="M44.6932 27.1619C40.9921 20.8923 34.6451 14.0088 30.1268 9.46994C27.0067 6.3539 22.0069 5.46539 17.5038 7.21183C13.026 8.94842 9.94859 12.9412 9.71354 17.3019C9.4504 22.3804 9.27269 29.5605 9.9429 35.8039C10.3444 38.5323 10.6788 40.6363 11.3099 42.8657C11.9719 43.7823 13.2189 44.5145 14.09 44.9543C21.1707 48.4995 42.6922 40.1387 45.5486 32.7539L45.5565 32.7366C45.9618 31.6746 45.9388 30.5243 45.5972 29.4551C45.354 28.7153 45.0585 27.9533 44.6932 27.1619Z" fill="#FF276B"/>
<path d="M15.7766 24.4656C15.7766 24.4656 13.7135 27.4994 15.0963 29.522C16.4838 31.557 19.4012 27.8666 15.7766 24.4656Z" fill="#6F2A19"/>
<path d="M27.5227 19.9098C27.5227 19.9098 31.0918 20.7594 31.4344 23.1854C31.7817 25.6237 27.1389 24.8654 27.5227 19.9098Z" fill="#6F2A19"/>
<path opacity="0.47" d="M18.9162 6.74887C24.5646 9.98715 31.3257 14.7024 34.9264 20.2617C41.4197 30.2693 48.2275 40.8619 29.6943 49.7037C37.6086 47.3836 45.756 42.5415 47.3421 37.8264C50.0306 30.8742 37.5935 16.9794 30.1105 9.46211C27.3379 6.67782 23.0249 5.67852 18.9162 6.74887Z" fill="#D3A3A3"/>
<path d="M30.3476 35.2845C30.8576 36.5994 30.1638 38.0843 28.8192 38.6058C27.462 39.1321 25.9564 38.4861 25.4512 37.1834C24.9412 35.8685 26.1264 31.6623 26.1264 31.6623C26.1264 31.6623 29.8376 33.9695 30.3476 35.2845Z" fill="#6F2A19"/>
<path opacity="0.26" d="M26.3288 32.5592C26.3288 32.5592 25.842 35.1797 26.1807 36.5045C26.5194 37.8293 27.6916 38.0674 28.1482 37.8903C28.5922 37.7181 28.401 36.322 27.3666 35.8749C26.3243 35.445 26.3288 32.5592 26.3288 32.5592Z" fill="#00B3D9"/>
<path opacity="0.26" d="M15.9885 25.8393C15.9885 25.8393 14.8921 27.5652 15.302 28.6221C15.7166 29.6912 16.9458 27.2918 15.9885 25.8393Z" fill="#00B3D9"/>
<path opacity="0.26" d="M28.2545 21.0821C28.2545 21.0821 28.7621 23.5573 29.8833 23.3628C30.9997 23.156 28.2545 21.0821 28.2545 21.0821Z" fill="#00B3D9"/>
<path opacity="0.26" d="M14.1843 15.2427C11.2893 21.6247 13.403 40.4703 15.4632 42.8099C18.8471 46.6436 31.2839 43.0785 36.6298 37.3719C41.9805 31.6775 25.5734 12.6636 22.794 11.4795C20.0192 10.3078 16.5805 9.94486 14.1843 15.2427Z" fill="#00B3D9"/>
<path opacity="0.52" d="M12.9043 14.764C11.7245 17.5542 12.2733 32.2142 12.3768 35.2278C11.8892 31.7128 10.1988 17.6087 11.4052 14.2851C12.0731 12.2447 13.3421 10.0984 15.2067 9.14909C15.9392 8.78019 16.6503 9.63542 16.1336 10.2599C15.6946 10.7836 14.1821 11.5116 12.9043 14.764Z" fill="#00B3D9"/>
</g>
<defs>
<clipPath id="clip0_5192_91845">
<rect width="37.3334" height="60.0002" fill="white" transform="translate(0 14) rotate(-21.1976)"/>
</clipPath>
</defs>
</svg>
