<svg width="270" height="161" viewBox="0 0 270 161" fill="none" xmlns="http://www.w3.org/2000/svg">
<rect x="0.5" y="1.19336" width="269" height="159" rx="4.5" stroke="#D0D0D0"/>
<path d="M0 5.69336C0 2.93194 2.23858 0.693359 5 0.693359H265C267.761 0.693359 270 2.93194 270 5.69336V28.6934H0V5.69336Z" fill="#205B64"/>
<path d="M115.648 9.49336H120.736C121.952 9.49336 123.024 9.72803 123.952 10.1974C124.891 10.656 125.616 11.3067 126.128 12.1494C126.651 12.992 126.912 13.9734 126.912 15.0934C126.912 16.2134 126.651 17.1947 126.128 18.0374C125.616 18.88 124.891 19.536 123.952 20.0054C123.024 20.464 121.952 20.6934 120.736 20.6934H115.648V9.49336ZM120.608 18.5654C121.728 18.5654 122.619 18.256 123.28 17.6374C123.952 17.008 124.288 16.16 124.288 15.0934C124.288 14.0267 123.952 13.184 123.28 12.5654C122.619 11.936 121.728 11.6214 120.608 11.6214H118.24V18.5654H120.608ZM132.163 11.9574C133.496 11.9574 134.52 12.2774 135.235 12.9174C135.95 13.5467 136.307 14.5014 136.307 15.7814V20.6934H133.971V19.6214C133.502 20.4214 132.627 20.8214 131.347 20.8214C130.686 20.8214 130.11 20.7094 129.619 20.4854C129.139 20.2614 128.771 19.952 128.515 19.5574C128.259 19.1627 128.131 18.7147 128.131 18.2134C128.131 17.4134 128.43 16.784 129.027 16.3254C129.635 15.8667 130.568 15.6374 131.827 15.6374H133.811C133.811 15.0934 133.646 14.6774 133.315 14.3894C132.984 14.0907 132.488 13.9414 131.827 13.9414C131.368 13.9414 130.915 14.016 130.467 14.1654C130.03 14.304 129.656 14.496 129.347 14.7414L128.451 12.9974C128.92 12.6667 129.48 12.4107 130.131 12.2294C130.792 12.048 131.47 11.9574 132.163 11.9574ZM131.971 19.1414C132.398 19.1414 132.776 19.0454 133.107 18.8534C133.438 18.6507 133.672 18.3574 133.811 17.9734V17.0934H132.099C131.075 17.0934 130.563 17.4294 130.563 18.1014C130.563 18.4214 130.686 18.6774 130.931 18.8694C131.187 19.0507 131.534 19.1414 131.971 19.1414ZM146.954 12.0854L143.322 20.6934H140.746L137.13 12.0854H139.706L142.09 17.9414L144.554 12.0854H146.954ZM156.17 16.4214C156.17 16.4534 156.154 16.6774 156.122 17.0934H149.61C149.727 17.6267 150.005 18.048 150.442 18.3574C150.879 18.6667 151.423 18.8214 152.074 18.8214C152.522 18.8214 152.917 18.7574 153.258 18.6294C153.61 18.4907 153.935 18.2774 154.234 17.9894L155.562 19.4294C154.751 20.3574 153.567 20.8214 152.01 20.8214C151.039 20.8214 150.181 20.6347 149.434 20.2614C148.687 19.8774 148.111 19.3494 147.706 18.6774C147.301 18.0054 147.098 17.2427 147.098 16.3894C147.098 15.5467 147.295 14.7894 147.69 14.1174C148.095 13.4347 148.645 12.9067 149.338 12.5334C150.042 12.1494 150.826 11.9574 151.69 11.9574C152.533 11.9574 153.295 12.1387 153.978 12.5014C154.661 12.864 155.194 13.3867 155.578 14.0694C155.973 14.7414 156.17 15.5254 156.17 16.4214ZM151.706 13.8454C151.141 13.8454 150.666 14.0054 150.282 14.3254C149.898 14.6454 149.663 15.0827 149.578 15.6374H153.818C153.733 15.0934 153.498 14.6614 153.114 14.3414C152.73 14.0107 152.261 13.8454 151.706 13.8454Z" fill="white"/>
<g clip-path="url(#clip0_6050_129888)">
<path d="M55.7892 79.5713C55.6053 80.5523 54.0112 81.1348 52.601 81.2881C52.0185 81.3494 51.62 81.9625 51.7426 82.5143C51.9572 83.3114 51.6813 84.2311 50.5777 84.8135C49.9033 85.1507 49.3208 85.1814 48.769 84.9668C48.1865 84.7522 47.5427 85.1814 47.4508 85.7945C47.3895 86.2544 47.2668 86.7142 47.0522 87.1434C46.5617 88.1244 45.5807 88.7988 44.5078 88.9828C42.7604 89.2893 42.1166 85.6412 42.2699 82.545C42.3619 80.7669 42.2086 77.3947 43.9866 76.4751C44.0479 76.4444 44.1093 76.4138 44.1706 76.3831C45.6421 75.8313 48.2785 76.3218 50.4857 76.5364C51.0069 76.5977 51.5587 76.659 52.0798 76.7816C54.1645 77.2721 56.0038 78.3451 55.7892 79.5713Z" fill="#F64A3C"/>
<path d="M55.7892 79.5709C55.6053 80.5519 54.0112 81.1343 52.601 81.2876C52.0185 81.3489 51.62 81.9621 51.7426 82.5139C51.9572 83.3109 51.6813 84.2306 50.5777 84.8131C49.9033 85.1503 49.3208 85.1809 48.769 84.9664C48.1865 84.7518 47.5427 85.1809 47.4508 85.7941C47.3895 86.2539 47.2668 86.7138 47.0522 87.1429C46.5617 88.1239 45.5807 88.7984 44.5078 88.9823C42.7604 89.2889 42.1166 85.6408 42.2699 82.5445C42.3619 80.7665 42.2086 77.3943 43.9866 76.4746C44.4771 78.13 44.3545 80.2453 44.5078 81.9314C44.5384 82.4219 44.6611 83.0044 45.0903 83.219C45.9486 83.6175 46.7457 82.3606 46.9603 81.3796C47.88 81.9007 49.1369 80.9811 49.6887 80.0001C50.2711 79.0191 50.5777 77.8541 51.4667 77.1184C51.6507 76.9651 51.8346 76.8425 52.0492 76.7505C54.1645 77.2717 56.0038 78.3446 55.7892 79.5709Z" fill="#D7342B"/>
<path d="M25.2253 46.7998C25.2253 46.9837 25.2253 47.1676 25.1946 47.3822C25.1333 49.3136 25.1027 52.2872 23.3246 52.9617C21.8531 53.5441 19.2167 53.023 17.0095 52.8084C14.373 52.5631 11.3994 51.3369 11.706 49.7734C11.8286 49.1296 12.5337 48.6698 13.4227 48.3632C13.8825 48.21 14.4037 48.0873 14.8942 48.026C15.4767 47.9647 16.1511 47.1676 15.9978 46.6158C15.7832 45.8188 16.0591 44.8991 17.1627 44.3166C17.8372 43.9794 18.4196 43.9794 18.9715 44.1633C19.5539 44.3779 20.1977 43.9794 20.2897 43.3356C20.351 42.8758 20.2284 42.6305 20.4123 42.2014C20.9028 41.2204 21.8838 40.5459 22.9567 40.362C24.7348 40.0554 25.3786 43.6728 25.2253 46.7998Z" fill="#F64A3C"/>
<path d="M25.1946 47.3818C25.1333 49.3132 25.1027 52.2868 23.3246 52.9613C21.8531 53.5437 19.2167 53.0226 17.0095 52.808C14.373 52.5627 11.3994 51.3365 11.706 49.773C11.8286 49.1292 12.5337 48.6694 13.4227 48.3628C14.557 49.5278 16.427 49.9263 18.2051 50.0489C19.5846 50.1715 21.0254 50.2635 22.3436 49.7424C23.5392 49.3132 24.4896 48.4241 25.1946 47.3818Z" fill="#D7342B"/>
<path d="M33.8092 51.7956L46.5008 67.4302C46.6541 67.6141 46.8074 67.8287 46.93 68.0433C47.0833 68.2886 47.2059 68.5338 47.3285 68.8097C47.6351 69.5148 47.819 70.2812 47.8803 71.0476C47.911 71.7221 47.8497 72.4272 47.6964 73.1016C47.6657 73.2242 47.6351 73.3468 47.6044 73.4695C47.1752 74.9103 46.3169 76.2592 45.0293 77.3015L44.1709 77.9759C43.2819 78.7117 42.2703 79.2022 41.228 79.4781C40.0937 79.7846 38.9287 79.8153 37.8558 79.57C36.9361 79.3861 36.0471 78.9876 35.2807 78.4051C34.9128 78.1292 34.5449 77.792 34.2384 77.3935L21.5467 61.7588C21.4854 61.6975 21.4241 61.6055 21.3934 61.5442C21.3321 61.4523 21.2402 61.3296 21.1789 61.2377C21.1482 61.1764 21.1175 61.1457 21.0869 61.0844C21.0562 61.0231 21.0256 60.9618 20.9949 60.9005L20.9643 60.8698C20.9336 60.8085 20.903 60.7472 20.8416 60.6552C20.7803 60.5632 20.7497 60.4713 20.719 60.3793C20.6884 60.3486 20.6884 60.318 20.6884 60.2873C20.6577 60.226 20.627 60.1647 20.627 60.1034C20.5964 60.0114 20.5657 59.8888 20.5351 59.7968C20.5351 59.7662 20.5044 59.7355 20.5044 59.7355C20.4738 59.6742 20.4738 59.5822 20.4431 59.5209C20.4125 59.429 20.4125 59.3676 20.3818 59.2757C20.3818 59.2144 20.3511 59.1531 20.3511 59.0917C20.3205 58.9998 20.3205 58.9078 20.2898 58.8158C20.2592 58.5706 20.2285 58.356 20.2285 58.1107C20.2285 58.0188 20.2285 57.9575 20.2285 57.8655C20.2285 57.7429 20.2285 57.6509 20.2285 57.5283C20.2285 57.4363 20.2285 57.3443 20.2592 57.2524C20.2898 57.0071 20.3205 56.7619 20.3818 56.486C20.4125 56.394 20.4125 56.302 20.4431 56.2101C20.4738 56.1181 20.4738 56.0261 20.5044 55.9648C20.5351 55.8422 20.5657 55.7196 20.627 55.5969C20.6577 55.505 20.719 55.3824 20.7497 55.2904C20.7803 55.1984 20.811 55.1371 20.8416 55.0451C20.8723 54.9838 20.903 54.9532 20.903 54.8919C20.9336 54.8305 20.9643 54.7386 20.9949 54.6773C21.0256 54.5853 21.0869 54.4933 21.1482 54.4014C21.2095 54.3094 21.2402 54.2174 21.3015 54.1561C21.3321 54.0948 21.3628 54.0641 21.3934 54.0028C21.4241 53.9415 21.4854 53.8802 21.5161 53.8189C21.5161 53.7882 21.5467 53.7882 21.5467 53.7576C21.608 53.6656 21.6694 53.6043 21.7307 53.5123C21.8839 53.3284 22.0372 53.1445 22.1905 52.9912C22.2212 52.9299 22.2825 52.8992 22.3438 52.8379C22.4051 52.7766 22.4358 52.7459 22.4971 52.6846C22.6503 52.5313 22.8343 52.3781 22.9876 52.2248L24.1832 51.2438C25.1642 50.4467 26.2984 49.9256 27.4327 49.6803C27.7086 49.619 27.9845 49.5883 28.2298 49.5577C29.0575 49.4964 29.8852 49.5577 30.6516 49.7723C31.2954 49.9562 31.9085 50.2015 32.4603 50.5693C32.7056 50.7226 32.9201 50.8759 33.1041 51.0598C33.38 51.3051 33.5946 51.5503 33.8092 51.7956Z" fill="#FBDBCD"/>
<path d="M47.6044 73.4405C47.1752 74.8813 46.3169 76.2302 45.0293 77.2725L44.1709 77.9469C41.0134 80.4914 36.5682 80.2461 34.2384 77.3645L21.5467 61.7298C21.3934 61.5459 21.2708 61.3926 21.1789 61.2087C21.1482 61.1474 21.1175 61.1167 21.0869 61.0554C21.0562 60.9941 21.0256 60.9328 20.9949 60.8715L20.9643 60.8408C20.9336 60.7795 20.903 60.7182 20.8416 60.6262C20.811 60.5342 20.7497 60.4423 20.719 60.3503C20.719 60.3197 20.6884 60.289 20.6884 60.2583C20.6577 60.197 20.627 60.1357 20.627 60.0744C20.5964 59.9824 20.5657 59.8598 20.5351 59.7678C20.5351 59.7372 20.5044 59.7065 20.5044 59.7065C20.4738 59.6452 20.4738 59.5533 20.4431 59.4919C20.4125 59.4 20.4125 59.3387 20.3818 59.2467C20.3818 59.1854 20.3511 59.1241 20.3511 59.0628C20.2898 58.7255 20.2592 58.419 20.2285 58.0818C20.2285 57.9898 20.2285 57.9285 20.2285 57.8365C20.2285 57.7139 20.2285 57.6219 20.2285 57.4993C20.2285 57.4073 20.2285 57.3154 20.2592 57.2234C20.2898 56.9781 20.3205 56.7329 20.3818 56.457C20.4125 56.365 20.4125 56.273 20.4431 56.1811C20.4738 56.0891 20.4738 55.9971 20.5044 55.9358C20.5351 55.8132 20.5657 55.6906 20.627 55.5373C20.6577 55.4453 20.6884 55.3227 20.7497 55.2307C20.7803 55.1388 20.811 55.0775 20.8416 54.9855C20.8723 54.9242 20.903 54.8935 20.903 54.8322C20.9336 54.7709 20.9643 54.6789 20.9949 54.6176C21.0256 54.5257 21.0869 54.4337 21.1482 54.3417C21.2095 54.2497 21.2402 54.1578 21.3015 54.0965C21.3321 54.0352 21.3628 54.0045 21.3934 53.9432C21.4241 53.8819 21.4854 53.8206 21.5161 53.7592C21.5161 53.7286 21.5467 53.7286 21.5467 53.6979C21.608 53.606 21.6694 53.5447 21.7307 53.4527C21.8839 53.2688 22.0372 53.0848 22.1905 52.9009C22.2212 52.8396 22.2825 52.8089 22.3131 52.7476C22.3744 52.6863 22.4051 52.6556 22.4664 52.5943C22.6197 52.441 22.8036 52.2878 22.9876 52.1345L23.4474 51.7666C23.5087 53.9738 23.8153 56.0891 24.9189 58.0818C25.7773 59.6452 27.0342 60.9021 28.1071 62.343C29.5786 64.2743 35.5259 72.4288 37.3346 73.9616C37.9171 74.4521 38.5302 74.8813 39.2353 75.1879C39.8484 75.4638 40.5229 75.6171 41.228 75.709C42.6688 75.8623 44.1709 75.5864 45.5198 74.912C46.3169 74.5748 46.9913 74.0536 47.6044 73.4405Z" fill="#EAA292"/>
<path d="M30.6826 49.7723L21.4244 61.5136C21.3631 61.4216 21.2711 61.299 21.2098 61.207C21.1792 61.1457 21.1485 61.115 21.1179 61.0537C21.0872 60.9924 21.0565 60.9311 21.0259 60.8698L20.9952 60.8391C20.9646 60.7778 20.9339 60.7165 20.8726 60.6245C20.8113 60.5326 20.7806 60.4406 20.75 60.3486C20.7193 60.318 20.7193 60.2873 20.7193 60.2567C20.6887 60.1954 20.658 60.1341 20.658 60.0727C20.6274 59.9808 20.5967 59.8581 20.5661 59.7662C20.5661 59.7355 20.5354 59.7049 20.5354 59.7049C20.5047 59.6436 20.5047 59.5516 20.4741 59.4903C20.4434 59.3983 20.4434 59.337 20.4128 59.245C20.4128 59.1837 20.3821 59.1224 20.3821 59.0611C20.3515 58.9691 20.3515 58.8771 20.3208 58.7852L27.4637 49.6803C27.7396 49.619 28.0155 49.5883 28.2607 49.5577C29.0885 49.4964 29.8855 49.5577 30.6826 49.7723Z" fill="#D7342B"/>
<path d="M33.8095 51.7969L34.8519 53.0844L24.858 65.7761L23.1719 63.7221L33.1045 51.0918C33.3804 51.3064 33.595 51.5516 33.8095 51.7969Z" fill="#D7342B"/>
<path d="M36.6296 55.2598L38.2851 57.3444L28.2912 70.036L26.6357 67.9514L36.6296 55.2598Z" fill="#D7342B"/>
<path d="M40.0632 59.5215L41.7493 61.5754L31.7554 74.2671L30.0693 72.2131L40.0632 59.5215Z" fill="#D7342B"/>
<path d="M43.5271 63.751L45.2132 65.8049L35.3113 78.3739C34.9434 78.098 34.5755 77.7608 34.2689 77.3623L33.5332 76.4426L43.5271 63.751Z" fill="#D7342B"/>
<path d="M46.9297 68.0439C47.083 68.2892 47.2056 68.5344 47.3282 68.8103C47.6348 69.5154 47.8187 70.2818 47.88 71.0482L41.2276 79.4787C40.0934 79.7852 38.9284 79.8159 37.8555 79.5706L46.9297 68.0439Z" fill="#D7342B"/>
<path d="M23.2942 48.1485C23.5088 46.7383 23.1716 44.9296 22.3438 43.7647C22.1906 43.5501 21.9147 43.7647 22.0066 43.9793C22.2519 44.715 22.5891 45.3588 22.7424 46.1252C22.8957 46.7996 22.9263 47.4741 22.9876 48.1792C22.9876 48.3631 23.2635 48.3324 23.2942 48.1485Z" fill="white"/>
<path d="M21.3012 48.9461C21.0866 48.5782 20.872 48.2103 20.6574 47.8118C20.4735 47.5053 20.3509 47.1987 20.075 46.9534C19.983 46.8921 19.8604 46.9841 19.891 47.0761C19.9523 47.4133 20.1976 47.7198 20.3815 48.0264C20.5961 48.3636 20.8107 48.7315 21.0253 49.0687C21.1173 49.2527 21.3932 49.13 21.3012 48.9461Z" fill="white"/>
<path d="M17.5309 48.7004C17.7148 48.8843 17.9294 49.0683 18.1747 49.1909C18.3586 49.3135 18.5732 49.4361 18.7878 49.3135C18.8184 49.2829 18.8491 49.2216 18.8491 49.1909C18.7878 48.9763 18.6038 48.915 18.4199 48.823C18.2053 48.7004 17.9907 48.5778 17.8068 48.3938C17.6228 48.2712 17.3469 48.5471 17.5309 48.7004Z" fill="white"/>
<path d="M46.2556 77.7622C46.6235 78.0074 47.022 78.2527 47.4205 78.4672C47.7271 78.6205 48.0643 78.8964 48.4015 78.8045C48.4935 78.7738 48.5548 78.6818 48.5241 78.5899C48.3709 78.2527 47.9723 78.13 47.6658 77.9767C47.2979 77.7622 46.93 77.5476 46.5621 77.3023C46.2862 77.1797 46.0103 77.5782 46.2556 77.7622Z" fill="white"/>
<path d="M45.9179 79.2024C46.0712 79.3557 46.2245 79.5396 46.4084 79.6316C46.5924 79.7542 46.8376 79.5396 46.6843 79.3251C46.5617 79.1411 46.3471 78.9878 46.1632 78.8346C46.0712 78.7426 45.9179 78.8039 45.8566 78.8959C45.7953 79.0185 45.8259 79.1411 45.9179 79.2024Z" fill="white"/>
<path d="M45.642 80.7969C45.5194 80.6743 45.3968 80.5517 45.2435 80.429C45.1515 80.3677 45.0289 80.4597 45.0902 80.5517C45.1822 80.7049 45.2742 80.8582 45.3661 81.0115C45.4888 81.1954 45.7953 80.9502 45.642 80.7969Z" fill="white"/>
<path d="M26.3291 52.1643C29.8852 51.7965 32.4603 54.6475 34.5756 57.0693C34.9128 57.4372 35.5566 57.0693 35.342 56.6095C34.5756 54.8314 32.6749 53.3293 31.0194 52.4096C29.5173 51.5512 27.9232 51.1834 26.2371 51.5512C25.8079 51.5819 25.8999 52.195 26.3291 52.1643Z" fill="white"/>
<path d="M36.047 58.4801C36.1084 58.8173 36.3536 59.1238 36.5375 59.3998C36.7521 59.737 37.028 60.0435 37.2733 60.3501C37.4266 60.534 37.6718 60.5647 37.8864 60.5034C37.9784 60.4727 38.0397 60.4114 38.101 60.3194C38.2236 60.1048 38.2543 59.8596 38.0703 59.6757C37.6412 59.1545 37.12 58.3574 36.4762 58.1122C36.2616 58.0509 36.0164 58.2655 36.047 58.4801Z" fill="white"/>
<path d="M39.3271 62.68C39.3885 62.772 39.4804 62.864 39.5417 62.9866C39.695 63.1705 39.8483 63.2318 40.0629 63.2012C40.2162 63.2012 40.3695 63.0479 40.4001 62.9253C40.4614 62.7107 40.4308 62.5267 40.3081 62.3428C40.2468 62.2508 40.1549 62.1589 40.0629 62.0669C39.9096 61.883 39.5724 61.8217 39.3885 62.0056C39.2045 62.1895 39.1739 62.4654 39.3271 62.68Z" fill="white"/>
</g>
<g clip-path="url(#clip1_6050_129888)">
<path d="M115.789 79.5713C115.605 80.5523 114.011 81.1348 112.601 81.2881C112.019 81.3494 111.62 81.9625 111.743 82.5143C111.957 83.3114 111.681 84.2311 110.578 84.8135C109.903 85.1507 109.321 85.1814 108.769 84.9668C108.187 84.7522 107.543 85.1814 107.451 85.7945C107.389 86.2544 107.267 86.7142 107.052 87.1434C106.562 88.1244 105.581 88.7988 104.508 88.9828C102.76 89.2893 102.117 85.6412 102.27 82.545C102.362 80.7669 102.209 77.3947 103.987 76.4751C104.048 76.4444 104.109 76.4138 104.171 76.3831C105.642 75.8313 108.278 76.3218 110.486 76.5364C111.007 76.5977 111.559 76.659 112.08 76.7816C114.164 77.2721 116.004 78.3451 115.789 79.5713Z" fill="#F64A3C"/>
<path d="M115.789 79.5709C115.605 80.5519 114.011 81.1343 112.601 81.2876C112.019 81.3489 111.62 81.9621 111.743 82.5139C111.957 83.3109 111.681 84.2306 110.578 84.8131C109.903 85.1503 109.321 85.1809 108.769 84.9664C108.187 84.7518 107.543 85.1809 107.451 85.7941C107.389 86.2539 107.267 86.7138 107.052 87.1429C106.562 88.1239 105.581 88.7984 104.508 88.9823C102.76 89.2889 102.117 85.6408 102.27 82.5445C102.362 80.7665 102.209 77.3943 103.987 76.4746C104.477 78.13 104.355 80.2453 104.508 81.9314C104.538 82.4219 104.661 83.0044 105.09 83.219C105.949 83.6175 106.746 82.3606 106.96 81.3796C107.88 81.9007 109.137 80.9811 109.689 80.0001C110.271 79.0191 110.578 77.8541 111.467 77.1184C111.651 76.9651 111.835 76.8425 112.049 76.7505C114.164 77.2717 116.004 78.3446 115.789 79.5709Z" fill="#D7342B"/>
<path d="M85.2253 46.7998C85.2253 46.9837 85.2253 47.1676 85.1946 47.3822C85.1333 49.3136 85.1027 52.2872 83.3246 52.9617C81.8531 53.5441 79.2167 53.023 77.0095 52.8084C74.373 52.5631 71.3994 51.3369 71.706 49.7734C71.8286 49.1296 72.5337 48.6698 73.4227 48.3632C73.8825 48.21 74.4037 48.0873 74.8942 48.026C75.4767 47.9647 76.1511 47.1676 75.9978 46.6158C75.7832 45.8188 76.0591 44.8991 77.1627 44.3166C77.8372 43.9794 78.4196 43.9794 78.9715 44.1633C79.5539 44.3779 80.1977 43.9794 80.2897 43.3356C80.351 42.8758 80.2284 42.6305 80.4123 42.2014C80.9028 41.2204 81.8838 40.5459 82.9567 40.362C84.7348 40.0554 85.3786 43.6728 85.2253 46.7998Z" fill="#F64A3C"/>
<path d="M85.1946 47.3818C85.1333 49.3132 85.1027 52.2868 83.3246 52.9613C81.8531 53.5437 79.2167 53.0226 77.0095 52.808C74.373 52.5627 71.3994 51.3365 71.706 49.773C71.8286 49.1292 72.5337 48.6694 73.4227 48.3628C74.557 49.5278 76.427 49.9263 78.2051 50.0489C79.5846 50.1715 81.0254 50.2635 82.3436 49.7424C83.5392 49.3132 84.4896 48.4241 85.1946 47.3818Z" fill="#D7342B"/>
<path d="M93.8092 51.7956L106.501 67.4302C106.654 67.6141 106.807 67.8287 106.93 68.0433C107.083 68.2886 107.206 68.5338 107.329 68.8097C107.635 69.5148 107.819 70.2812 107.88 71.0476C107.911 71.7221 107.85 72.4272 107.696 73.1016C107.666 73.2242 107.635 73.3468 107.604 73.4695C107.175 74.9103 106.317 76.2592 105.029 77.3015L104.171 77.9759C103.282 78.7117 102.27 79.2022 101.228 79.4781C100.094 79.7846 98.9287 79.8153 97.8558 79.57C96.9361 79.3861 96.0471 78.9876 95.2807 78.4051C94.9128 78.1292 94.5449 77.792 94.2384 77.3935L81.5467 61.7588C81.4854 61.6975 81.4241 61.6055 81.3934 61.5442C81.3321 61.4523 81.2402 61.3296 81.1789 61.2377C81.1482 61.1764 81.1175 61.1457 81.0869 61.0844C81.0562 61.0231 81.0256 60.9618 80.9949 60.9005L80.9643 60.8698C80.9336 60.8085 80.903 60.7472 80.8416 60.6552C80.7803 60.5632 80.7497 60.4713 80.719 60.3793C80.6884 60.3486 80.6884 60.318 80.6884 60.2873C80.6577 60.226 80.627 60.1647 80.627 60.1034C80.5964 60.0114 80.5657 59.8888 80.5351 59.7968C80.5351 59.7662 80.5044 59.7355 80.5044 59.7355C80.4738 59.6742 80.4738 59.5822 80.4431 59.5209C80.4125 59.429 80.4125 59.3676 80.3818 59.2757C80.3818 59.2144 80.3511 59.1531 80.3511 59.0917C80.3205 58.9998 80.3205 58.9078 80.2898 58.8158C80.2592 58.5706 80.2285 58.356 80.2285 58.1107C80.2285 58.0188 80.2285 57.9575 80.2285 57.8655C80.2285 57.7429 80.2285 57.6509 80.2285 57.5283C80.2285 57.4363 80.2285 57.3443 80.2592 57.2524C80.2898 57.0071 80.3205 56.7619 80.3818 56.486C80.4125 56.394 80.4125 56.302 80.4431 56.2101C80.4738 56.1181 80.4738 56.0261 80.5044 55.9648C80.5351 55.8422 80.5657 55.7196 80.627 55.5969C80.6577 55.505 80.719 55.3824 80.7497 55.2904C80.7803 55.1984 80.811 55.1371 80.8416 55.0451C80.8723 54.9838 80.903 54.9532 80.903 54.8919C80.9336 54.8305 80.9643 54.7386 80.9949 54.6773C81.0256 54.5853 81.0869 54.4933 81.1482 54.4014C81.2095 54.3094 81.2402 54.2174 81.3015 54.1561C81.3321 54.0948 81.3628 54.0641 81.3934 54.0028C81.4241 53.9415 81.4854 53.8802 81.5161 53.8189C81.5161 53.7882 81.5467 53.7882 81.5467 53.7576C81.608 53.6656 81.6694 53.6043 81.7307 53.5123C81.8839 53.3284 82.0372 53.1445 82.1905 52.9912C82.2212 52.9299 82.2825 52.8992 82.3438 52.8379C82.4051 52.7766 82.4358 52.7459 82.4971 52.6846C82.6503 52.5313 82.8343 52.3781 82.9876 52.2248L84.1832 51.2438C85.1642 50.4467 86.2984 49.9256 87.4327 49.6803C87.7086 49.619 87.9845 49.5883 88.2298 49.5577C89.0575 49.4964 89.8852 49.5577 90.6516 49.7723C91.2954 49.9562 91.9085 50.2015 92.4603 50.5693C92.7056 50.7226 92.9201 50.8759 93.1041 51.0598C93.38 51.3051 93.5946 51.5503 93.8092 51.7956Z" fill="#FBDBCD"/>
<path d="M107.604 73.4405C107.175 74.8813 106.317 76.2302 105.029 77.2725L104.171 77.9469C101.013 80.4914 96.5682 80.2461 94.2384 77.3645L81.5467 61.7298C81.3934 61.5459 81.2708 61.3926 81.1789 61.2087C81.1482 61.1474 81.1175 61.1167 81.0869 61.0554C81.0562 60.9941 81.0256 60.9328 80.9949 60.8715L80.9643 60.8408C80.9336 60.7795 80.903 60.7182 80.8416 60.6262C80.811 60.5342 80.7497 60.4423 80.719 60.3503C80.719 60.3197 80.6884 60.289 80.6884 60.2583C80.6577 60.197 80.627 60.1357 80.627 60.0744C80.5964 59.9824 80.5657 59.8598 80.5351 59.7678C80.5351 59.7372 80.5044 59.7065 80.5044 59.7065C80.4738 59.6452 80.4738 59.5533 80.4431 59.4919C80.4125 59.4 80.4125 59.3387 80.3818 59.2467C80.3818 59.1854 80.3511 59.1241 80.3511 59.0628C80.2898 58.7255 80.2592 58.419 80.2285 58.0818C80.2285 57.9898 80.2285 57.9285 80.2285 57.8365C80.2285 57.7139 80.2285 57.6219 80.2285 57.4993C80.2285 57.4073 80.2285 57.3154 80.2592 57.2234C80.2898 56.9781 80.3205 56.7329 80.3818 56.457C80.4125 56.365 80.4125 56.273 80.4431 56.1811C80.4738 56.0891 80.4738 55.9971 80.5044 55.9358C80.5351 55.8132 80.5657 55.6906 80.627 55.5373C80.6577 55.4453 80.6884 55.3227 80.7497 55.2307C80.7803 55.1388 80.811 55.0775 80.8416 54.9855C80.8723 54.9242 80.903 54.8935 80.903 54.8322C80.9336 54.7709 80.9643 54.6789 80.9949 54.6176C81.0256 54.5257 81.0869 54.4337 81.1482 54.3417C81.2095 54.2497 81.2402 54.1578 81.3015 54.0965C81.3321 54.0352 81.3628 54.0045 81.3934 53.9432C81.4241 53.8819 81.4854 53.8206 81.5161 53.7592C81.5161 53.7286 81.5467 53.7286 81.5467 53.6979C81.608 53.606 81.6694 53.5447 81.7307 53.4527C81.8839 53.2688 82.0372 53.0848 82.1905 52.9009C82.2212 52.8396 82.2825 52.8089 82.3131 52.7476C82.3744 52.6863 82.4051 52.6556 82.4664 52.5943C82.6197 52.441 82.8036 52.2878 82.9876 52.1345L83.4474 51.7666C83.5087 53.9738 83.8153 56.0891 84.9189 58.0818C85.7773 59.6452 87.0342 60.9021 88.1071 62.343C89.5786 64.2743 95.5259 72.4288 97.3346 73.9616C97.9171 74.4521 98.5302 74.8813 99.2353 75.1879C99.8484 75.4638 100.523 75.6171 101.228 75.709C102.669 75.8623 104.171 75.5864 105.52 74.912C106.317 74.5748 106.991 74.0536 107.604 73.4405Z" fill="#EAA292"/>
<path d="M90.6826 49.7723L81.4244 61.5136C81.3631 61.4216 81.2711 61.299 81.2098 61.207C81.1792 61.1457 81.1485 61.115 81.1179 61.0537C81.0872 60.9924 81.0565 60.9311 81.0259 60.8698L80.9952 60.8391C80.9646 60.7778 80.9339 60.7165 80.8726 60.6245C80.8113 60.5326 80.7806 60.4406 80.75 60.3486C80.7193 60.318 80.7193 60.2873 80.7193 60.2567C80.6887 60.1954 80.658 60.1341 80.658 60.0727C80.6274 59.9808 80.5967 59.8581 80.5661 59.7662C80.5661 59.7355 80.5354 59.7049 80.5354 59.7049C80.5047 59.6436 80.5047 59.5516 80.4741 59.4903C80.4434 59.3983 80.4434 59.337 80.4128 59.245C80.4128 59.1837 80.3821 59.1224 80.3821 59.0611C80.3515 58.9691 80.3515 58.8771 80.3208 58.7852L87.4637 49.6803C87.7396 49.619 88.0155 49.5883 88.2607 49.5577C89.0885 49.4964 89.8855 49.5577 90.6826 49.7723Z" fill="#D7342B"/>
<path d="M93.8095 51.7969L94.8519 53.0844L84.858 65.7761L83.1719 63.7221L93.1045 51.0918C93.3804 51.3064 93.595 51.5516 93.8095 51.7969Z" fill="#D7342B"/>
<path d="M96.6296 55.2598L98.2851 57.3444L88.2912 70.036L86.6357 67.9514L96.6296 55.2598Z" fill="#D7342B"/>
<path d="M100.063 59.5215L101.749 61.5754L91.7554 74.2671L90.0693 72.2131L100.063 59.5215Z" fill="#D7342B"/>
<path d="M103.527 63.751L105.213 65.8049L95.3113 78.3739C94.9434 78.098 94.5755 77.7608 94.2689 77.3623L93.5332 76.4426L103.527 63.751Z" fill="#D7342B"/>
<path d="M106.93 68.0439C107.083 68.2892 107.206 68.5344 107.328 68.8103C107.635 69.5154 107.819 70.2818 107.88 71.0482L101.228 79.4787C100.093 79.7852 98.9284 79.8159 97.8555 79.5706L106.93 68.0439Z" fill="#D7342B"/>
<path d="M83.2942 48.1485C83.5088 46.7383 83.1716 44.9296 82.3438 43.7647C82.1906 43.5501 81.9147 43.7647 82.0066 43.9793C82.2519 44.715 82.5891 45.3588 82.7424 46.1252C82.8957 46.7996 82.9263 47.4741 82.9876 48.1792C82.9876 48.3631 83.2635 48.3324 83.2942 48.1485Z" fill="white"/>
<path d="M81.3012 48.9461C81.0866 48.5782 80.872 48.2103 80.6574 47.8118C80.4735 47.5053 80.3509 47.1987 80.075 46.9534C79.983 46.8921 79.8604 46.9841 79.891 47.0761C79.9523 47.4133 80.1976 47.7198 80.3815 48.0264C80.5961 48.3636 80.8107 48.7315 81.0253 49.0687C81.1173 49.2527 81.3932 49.13 81.3012 48.9461Z" fill="white"/>
<path d="M77.5309 48.7004C77.7148 48.8843 77.9294 49.0683 78.1747 49.1909C78.3586 49.3135 78.5732 49.4361 78.7878 49.3135C78.8184 49.2829 78.8491 49.2216 78.8491 49.1909C78.7878 48.9763 78.6038 48.915 78.4199 48.823C78.2053 48.7004 77.9907 48.5778 77.8068 48.3938C77.6228 48.2712 77.3469 48.5471 77.5309 48.7004Z" fill="white"/>
<path d="M106.256 77.7622C106.623 78.0074 107.022 78.2527 107.421 78.4672C107.727 78.6205 108.064 78.8964 108.402 78.8045C108.493 78.7738 108.555 78.6818 108.524 78.5899C108.371 78.2527 107.972 78.13 107.666 77.9767C107.298 77.7622 106.93 77.5476 106.562 77.3023C106.286 77.1797 106.01 77.5782 106.256 77.7622Z" fill="white"/>
<path d="M105.918 79.2024C106.071 79.3557 106.224 79.5396 106.408 79.6316C106.592 79.7542 106.838 79.5396 106.684 79.3251C106.562 79.1411 106.347 78.9878 106.163 78.8346C106.071 78.7426 105.918 78.8039 105.857 78.8959C105.795 79.0185 105.826 79.1411 105.918 79.2024Z" fill="white"/>
<path d="M105.642 80.7969C105.519 80.6743 105.397 80.5517 105.244 80.429C105.152 80.3677 105.029 80.4597 105.09 80.5517C105.182 80.7049 105.274 80.8582 105.366 81.0115C105.489 81.1954 105.795 80.9502 105.642 80.7969Z" fill="white"/>
<path d="M86.3291 52.1643C89.8852 51.7965 92.4603 54.6475 94.5756 57.0693C94.9128 57.4372 95.5566 57.0693 95.342 56.6095C94.5756 54.8314 92.6749 53.3293 91.0194 52.4096C89.5173 51.5512 87.9232 51.1834 86.2371 51.5512C85.8079 51.5819 85.8999 52.195 86.3291 52.1643Z" fill="white"/>
<path d="M96.047 58.4801C96.1084 58.8173 96.3536 59.1238 96.5375 59.3998C96.7521 59.737 97.028 60.0435 97.2733 60.3501C97.4266 60.534 97.6718 60.5647 97.8864 60.5034C97.9784 60.4727 98.0397 60.4114 98.101 60.3194C98.2236 60.1048 98.2543 59.8596 98.0703 59.6757C97.6412 59.1545 97.12 58.3574 96.4762 58.1122C96.2616 58.0509 96.0164 58.2655 96.047 58.4801Z" fill="white"/>
<path d="M99.3271 62.68C99.3885 62.772 99.4804 62.864 99.5417 62.9866C99.695 63.1705 99.8483 63.2318 100.063 63.2012C100.216 63.2012 100.369 63.0479 100.4 62.9253C100.461 62.7107 100.431 62.5267 100.308 62.3428C100.247 62.2508 100.155 62.1589 100.063 62.0669C99.9096 61.883 99.5724 61.8217 99.3885 62.0056C99.2045 62.1895 99.1739 62.4654 99.3271 62.68Z" fill="white"/>
</g>
<g clip-path="url(#clip2_6050_129888)">
<path d="M175.789 79.5713C175.605 80.5523 174.011 81.1348 172.601 81.2881C172.019 81.3494 171.62 81.9625 171.743 82.5143C171.957 83.3114 171.681 84.2311 170.578 84.8135C169.903 85.1507 169.321 85.1814 168.769 84.9668C168.187 84.7522 167.543 85.1814 167.451 85.7945C167.389 86.2544 167.267 86.7142 167.052 87.1434C166.562 88.1244 165.581 88.7988 164.508 88.9828C162.76 89.2893 162.117 85.6412 162.27 82.545C162.362 80.7669 162.209 77.3947 163.987 76.4751C164.048 76.4444 164.109 76.4138 164.171 76.3831C165.642 75.8313 168.278 76.3218 170.486 76.5364C171.007 76.5977 171.559 76.659 172.08 76.7816C174.164 77.2721 176.004 78.3451 175.789 79.5713Z" fill="#F64A3C"/>
<path d="M175.789 79.5709C175.605 80.5519 174.011 81.1343 172.601 81.2876C172.019 81.3489 171.62 81.9621 171.743 82.5139C171.957 83.3109 171.681 84.2306 170.578 84.8131C169.903 85.1503 169.321 85.1809 168.769 84.9664C168.187 84.7518 167.543 85.1809 167.451 85.7941C167.389 86.2539 167.267 86.7138 167.052 87.1429C166.562 88.1239 165.581 88.7984 164.508 88.9823C162.76 89.2889 162.117 85.6408 162.27 82.5445C162.362 80.7665 162.209 77.3943 163.987 76.4746C164.477 78.13 164.355 80.2453 164.508 81.9314C164.538 82.4219 164.661 83.0044 165.09 83.219C165.949 83.6175 166.746 82.3606 166.96 81.3796C167.88 81.9007 169.137 80.9811 169.689 80.0001C170.271 79.0191 170.578 77.8541 171.467 77.1184C171.651 76.9651 171.835 76.8425 172.049 76.7505C174.164 77.2717 176.004 78.3446 175.789 79.5709Z" fill="#D7342B"/>
<path d="M145.225 46.7998C145.225 46.9837 145.225 47.1676 145.195 47.3822C145.133 49.3136 145.103 52.2872 143.325 52.9617C141.853 53.5441 139.217 53.023 137.009 52.8084C134.373 52.5631 131.399 51.3369 131.706 49.7734C131.829 49.1296 132.534 48.6698 133.423 48.3632C133.883 48.21 134.404 48.0873 134.894 48.026C135.477 47.9647 136.151 47.1676 135.998 46.6158C135.783 45.8188 136.059 44.8991 137.163 44.3166C137.837 43.9794 138.42 43.9794 138.971 44.1633C139.554 44.3779 140.198 43.9794 140.29 43.3356C140.351 42.8758 140.228 42.6305 140.412 42.2014C140.903 41.2204 141.884 40.5459 142.957 40.362C144.735 40.0554 145.379 43.6728 145.225 46.7998Z" fill="#F64A3C"/>
<path d="M145.195 47.3818C145.133 49.3132 145.103 52.2868 143.325 52.9613C141.853 53.5437 139.217 53.0226 137.009 52.808C134.373 52.5627 131.399 51.3365 131.706 49.773C131.829 49.1292 132.534 48.6694 133.423 48.3628C134.557 49.5278 136.427 49.9263 138.205 50.0489C139.585 50.1715 141.025 50.2635 142.344 49.7424C143.539 49.3132 144.49 48.4241 145.195 47.3818Z" fill="#D7342B"/>
<path d="M153.809 51.7956L166.501 67.4302C166.654 67.6141 166.807 67.8287 166.93 68.0433C167.083 68.2886 167.206 68.5338 167.329 68.8097C167.635 69.5148 167.819 70.2812 167.88 71.0476C167.911 71.7221 167.85 72.4272 167.696 73.1016C167.666 73.2242 167.635 73.3468 167.604 73.4695C167.175 74.9103 166.317 76.2592 165.029 77.3015L164.171 77.9759C163.282 78.7117 162.27 79.2022 161.228 79.4781C160.094 79.7846 158.929 79.8153 157.856 79.57C156.936 79.3861 156.047 78.9876 155.281 78.4051C154.913 78.1292 154.545 77.792 154.238 77.3935L141.547 61.7588C141.485 61.6975 141.424 61.6055 141.393 61.5442C141.332 61.4523 141.24 61.3296 141.179 61.2377C141.148 61.1764 141.118 61.1457 141.087 61.0844C141.056 61.0231 141.026 60.9618 140.995 60.9005L140.964 60.8698C140.934 60.8085 140.903 60.7472 140.842 60.6552C140.78 60.5632 140.75 60.4713 140.719 60.3793C140.688 60.3486 140.688 60.318 140.688 60.2873C140.658 60.226 140.627 60.1647 140.627 60.1034C140.596 60.0114 140.566 59.8888 140.535 59.7968C140.535 59.7662 140.504 59.7355 140.504 59.7355C140.474 59.6742 140.474 59.5822 140.443 59.5209C140.412 59.429 140.412 59.3676 140.382 59.2757C140.382 59.2144 140.351 59.1531 140.351 59.0917C140.32 58.9998 140.32 58.9078 140.29 58.8158C140.259 58.5706 140.229 58.356 140.229 58.1107C140.229 58.0188 140.229 57.9575 140.229 57.8655C140.229 57.7429 140.229 57.6509 140.229 57.5283C140.229 57.4363 140.229 57.3443 140.259 57.2524C140.29 57.0071 140.32 56.7619 140.382 56.486C140.412 56.394 140.412 56.302 140.443 56.2101C140.474 56.1181 140.474 56.0261 140.504 55.9648C140.535 55.8422 140.566 55.7196 140.627 55.5969C140.658 55.505 140.719 55.3824 140.75 55.2904C140.78 55.1984 140.811 55.1371 140.842 55.0451C140.872 54.9838 140.903 54.9532 140.903 54.8919C140.934 54.8305 140.964 54.7386 140.995 54.6773C141.026 54.5853 141.087 54.4933 141.148 54.4014C141.21 54.3094 141.24 54.2174 141.301 54.1561C141.332 54.0948 141.363 54.0641 141.393 54.0028C141.424 53.9415 141.485 53.8802 141.516 53.8189C141.516 53.7882 141.547 53.7882 141.547 53.7576C141.608 53.6656 141.669 53.6043 141.731 53.5123C141.884 53.3284 142.037 53.1445 142.191 52.9912C142.221 52.9299 142.282 52.8992 142.344 52.8379C142.405 52.7766 142.436 52.7459 142.497 52.6846C142.65 52.5313 142.834 52.3781 142.988 52.2248L144.183 51.2438C145.164 50.4467 146.298 49.9256 147.433 49.6803C147.709 49.619 147.985 49.5883 148.23 49.5577C149.057 49.4964 149.885 49.5577 150.652 49.7723C151.295 49.9562 151.909 50.2015 152.46 50.5693C152.706 50.7226 152.92 50.8759 153.104 51.0598C153.38 51.3051 153.595 51.5503 153.809 51.7956Z" fill="#FBDBCD"/>
<path d="M167.604 73.4405C167.175 74.8813 166.317 76.2302 165.029 77.2725L164.171 77.9469C161.013 80.4914 156.568 80.2461 154.238 77.3645L141.547 61.7298C141.393 61.5459 141.271 61.3926 141.179 61.2087C141.148 61.1474 141.118 61.1167 141.087 61.0554C141.056 60.9941 141.026 60.9328 140.995 60.8715L140.964 60.8408C140.934 60.7795 140.903 60.7182 140.842 60.6262C140.811 60.5342 140.75 60.4423 140.719 60.3503C140.719 60.3197 140.688 60.289 140.688 60.2583C140.658 60.197 140.627 60.1357 140.627 60.0744C140.596 59.9824 140.566 59.8598 140.535 59.7678C140.535 59.7372 140.504 59.7065 140.504 59.7065C140.474 59.6452 140.474 59.5533 140.443 59.4919C140.412 59.4 140.412 59.3387 140.382 59.2467C140.382 59.1854 140.351 59.1241 140.351 59.0628C140.29 58.7255 140.259 58.419 140.229 58.0818C140.229 57.9898 140.229 57.9285 140.229 57.8365C140.229 57.7139 140.229 57.6219 140.229 57.4993C140.229 57.4073 140.229 57.3154 140.259 57.2234C140.29 56.9781 140.32 56.7329 140.382 56.457C140.412 56.365 140.412 56.273 140.443 56.1811C140.474 56.0891 140.474 55.9971 140.504 55.9358C140.535 55.8132 140.566 55.6906 140.627 55.5373C140.658 55.4453 140.688 55.3227 140.75 55.2307C140.78 55.1388 140.811 55.0775 140.842 54.9855C140.872 54.9242 140.903 54.8935 140.903 54.8322C140.934 54.7709 140.964 54.6789 140.995 54.6176C141.026 54.5257 141.087 54.4337 141.148 54.3417C141.21 54.2497 141.24 54.1578 141.301 54.0965C141.332 54.0352 141.363 54.0045 141.393 53.9432C141.424 53.8819 141.485 53.8206 141.516 53.7592C141.516 53.7286 141.547 53.7286 141.547 53.6979C141.608 53.606 141.669 53.5447 141.731 53.4527C141.884 53.2688 142.037 53.0848 142.191 52.9009C142.221 52.8396 142.282 52.8089 142.313 52.7476C142.374 52.6863 142.405 52.6556 142.466 52.5943C142.62 52.441 142.804 52.2878 142.988 52.1345L143.447 51.7666C143.509 53.9738 143.815 56.0891 144.919 58.0818C145.777 59.6452 147.034 60.9021 148.107 62.343C149.579 64.2743 155.526 72.4288 157.335 73.9616C157.917 74.4521 158.53 74.8813 159.235 75.1879C159.848 75.4638 160.523 75.6171 161.228 75.709C162.669 75.8623 164.171 75.5864 165.52 74.912C166.317 74.5748 166.991 74.0536 167.604 73.4405Z" fill="#EAA292"/>
<path d="M150.683 49.7723L141.424 61.5136C141.363 61.4216 141.271 61.299 141.21 61.207C141.179 61.1457 141.149 61.115 141.118 61.0537C141.087 60.9924 141.057 60.9311 141.026 60.8698L140.995 60.8391C140.965 60.7778 140.934 60.7165 140.873 60.6245C140.811 60.5326 140.781 60.4406 140.75 60.3486C140.719 60.318 140.719 60.2873 140.719 60.2567C140.689 60.1954 140.658 60.1341 140.658 60.0727C140.627 59.9808 140.597 59.8581 140.566 59.7662C140.566 59.7355 140.535 59.7049 140.535 59.7049C140.505 59.6436 140.505 59.5516 140.474 59.4903C140.443 59.3983 140.443 59.337 140.413 59.245C140.413 59.1837 140.382 59.1224 140.382 59.0611C140.351 58.9691 140.351 58.8771 140.321 58.7852L147.464 49.6803C147.74 49.619 148.015 49.5883 148.261 49.5577C149.088 49.4964 149.886 49.5577 150.683 49.7723Z" fill="#D7342B"/>
<path d="M153.81 51.7969L154.852 53.0844L144.858 65.7761L143.172 63.7221L153.104 51.0918C153.38 51.3064 153.595 51.5516 153.81 51.7969Z" fill="#D7342B"/>
<path d="M156.63 55.2598L158.285 57.3444L148.291 70.036L146.636 67.9514L156.63 55.2598Z" fill="#D7342B"/>
<path d="M160.063 59.5215L161.749 61.5754L151.755 74.2671L150.069 72.2131L160.063 59.5215Z" fill="#D7342B"/>
<path d="M163.527 63.751L165.213 65.8049L155.311 78.3739C154.943 78.098 154.576 77.7608 154.269 77.3623L153.533 76.4426L163.527 63.751Z" fill="#D7342B"/>
<path d="M166.93 68.0439C167.083 68.2892 167.206 68.5344 167.328 68.8103C167.635 69.5154 167.819 70.2818 167.88 71.0482L161.228 79.4787C160.093 79.7852 158.928 79.8159 157.855 79.5706L166.93 68.0439Z" fill="#D7342B"/>
<path d="M143.294 48.1485C143.509 46.7383 143.172 44.9296 142.344 43.7647C142.191 43.5501 141.915 43.7647 142.007 43.9793C142.252 44.715 142.589 45.3588 142.742 46.1252C142.896 46.7996 142.926 47.4741 142.988 48.1792C142.988 48.3631 143.264 48.3324 143.294 48.1485Z" fill="white"/>
<path d="M141.301 48.9461C141.087 48.5782 140.872 48.2103 140.657 47.8118C140.473 47.5053 140.351 47.1987 140.075 46.9534C139.983 46.8921 139.86 46.9841 139.891 47.0761C139.952 47.4133 140.198 47.7198 140.382 48.0264C140.596 48.3636 140.811 48.7315 141.025 49.0687C141.117 49.2527 141.393 49.13 141.301 48.9461Z" fill="white"/>
<path d="M137.531 48.7004C137.715 48.8843 137.929 49.0683 138.175 49.1909C138.359 49.3135 138.573 49.4361 138.788 49.3135C138.818 49.2829 138.849 49.2216 138.849 49.1909C138.788 48.9763 138.604 48.915 138.42 48.823C138.205 48.7004 137.991 48.5778 137.807 48.3938C137.623 48.2712 137.347 48.5471 137.531 48.7004Z" fill="white"/>
<path d="M166.256 77.7622C166.623 78.0074 167.022 78.2527 167.421 78.4672C167.727 78.6205 168.064 78.8964 168.402 78.8045C168.493 78.7738 168.555 78.6818 168.524 78.5899C168.371 78.2527 167.972 78.13 167.666 77.9767C167.298 77.7622 166.93 77.5476 166.562 77.3023C166.286 77.1797 166.01 77.5782 166.256 77.7622Z" fill="white"/>
<path d="M165.918 79.2024C166.071 79.3557 166.224 79.5396 166.408 79.6316C166.592 79.7542 166.838 79.5396 166.684 79.3251C166.562 79.1411 166.347 78.9878 166.163 78.8346C166.071 78.7426 165.918 78.8039 165.857 78.8959C165.795 79.0185 165.826 79.1411 165.918 79.2024Z" fill="white"/>
<path d="M165.642 80.7969C165.519 80.6743 165.397 80.5517 165.244 80.429C165.152 80.3677 165.029 80.4597 165.09 80.5517C165.182 80.7049 165.274 80.8582 165.366 81.0115C165.489 81.1954 165.795 80.9502 165.642 80.7969Z" fill="white"/>
<path d="M146.329 52.1643C149.885 51.7965 152.46 54.6475 154.576 57.0693C154.913 57.4372 155.557 57.0693 155.342 56.6095C154.576 54.8314 152.675 53.3293 151.019 52.4096C149.517 51.5512 147.923 51.1834 146.237 51.5512C145.808 51.5819 145.9 52.195 146.329 52.1643Z" fill="white"/>
<path d="M156.047 58.4801C156.108 58.8173 156.354 59.1238 156.538 59.3998C156.752 59.737 157.028 60.0435 157.273 60.3501C157.427 60.534 157.672 60.5647 157.886 60.5034C157.978 60.4727 158.04 60.4114 158.101 60.3194C158.224 60.1048 158.254 59.8596 158.07 59.6757C157.641 59.1545 157.12 58.3574 156.476 58.1122C156.262 58.0509 156.016 58.2655 156.047 58.4801Z" fill="white"/>
<path d="M159.327 62.68C159.388 62.772 159.48 62.864 159.542 62.9866C159.695 63.1705 159.848 63.2318 160.063 63.2012C160.216 63.2012 160.369 63.0479 160.4 62.9253C160.461 62.7107 160.431 62.5267 160.308 62.3428C160.247 62.2508 160.155 62.1589 160.063 62.0669C159.91 61.883 159.572 61.8217 159.388 62.0056C159.205 62.1895 159.174 62.4654 159.327 62.68Z" fill="white"/>
</g>
<defs>
<clipPath id="clip0_6050_129888">
<rect width="50" height="50" fill="white" transform="translate(10 39)"/>
</clipPath>
<clipPath id="clip1_6050_129888">
<rect width="50" height="50" fill="white" transform="translate(70 39)"/>
</clipPath>
<clipPath id="clip2_6050_129888">
<rect width="50" height="50" fill="white" transform="translate(130 39)"/>
</clipPath>
</defs>
</svg>
