<svg width="270" height="161" viewBox="0 0 270 161" fill="none" xmlns="http://www.w3.org/2000/svg">
<rect x="0.5" y="1.19336" width="269" height="159" rx="4.5" stroke="#D0D0D0"/>
<path d="M0 5.69336C0 2.93194 2.23858 0.693359 5 0.693359H265C267.761 0.693359 270 2.93194 270 5.69336V28.6934H0V5.69336Z" fill="#205B64"/>
<path d="M127.669 14.8694C128.309 15.072 128.811 15.4134 129.173 15.8934C129.536 16.3627 129.717 16.944 129.717 17.6374C129.717 18.6187 129.333 19.376 128.565 19.9094C127.808 20.432 126.699 20.6934 125.237 20.6934H119.445V9.49336H124.917C126.283 9.49336 127.328 9.75469 128.053 10.2774C128.789 10.8 129.157 11.5094 129.157 12.4054C129.157 12.9494 129.024 13.4347 128.757 13.8614C128.501 14.288 128.139 14.624 127.669 14.8694ZM122.021 11.4454V14.0854H124.597C125.237 14.0854 125.723 13.9734 126.053 13.7494C126.384 13.5254 126.549 13.1947 126.549 12.7574C126.549 12.32 126.384 11.9947 126.053 11.7814C125.723 11.5574 125.237 11.4454 124.597 11.4454H122.021ZM125.045 18.7414C125.728 18.7414 126.24 18.6294 126.581 18.4054C126.933 18.1814 127.109 17.8347 127.109 17.3654C127.109 16.4374 126.421 15.9734 125.045 15.9734H122.021V18.7414H125.045ZM135.6 20.8214C134.693 20.8214 133.877 20.6347 133.152 20.2614C132.437 19.8774 131.877 19.3494 131.472 18.6774C131.066 18.0054 130.864 17.2427 130.864 16.3894C130.864 15.536 131.066 14.7734 131.472 14.1014C131.877 13.4294 132.437 12.9067 133.152 12.5334C133.877 12.1494 134.693 11.9574 135.6 11.9574C136.506 11.9574 137.317 12.1494 138.032 12.5334C138.746 12.9067 139.306 13.4294 139.712 14.1014C140.117 14.7734 140.32 15.536 140.32 16.3894C140.32 17.2427 140.117 18.0054 139.712 18.6774C139.306 19.3494 138.746 19.8774 138.032 20.2614C137.317 20.6347 136.506 20.8214 135.6 20.8214ZM135.6 18.7734C136.24 18.7734 136.762 18.56 137.168 18.1334C137.584 17.696 137.792 17.1147 137.792 16.3894C137.792 15.664 137.584 15.088 137.168 14.6614C136.762 14.224 136.24 14.0054 135.6 14.0054C134.96 14.0054 134.432 14.224 134.016 14.6614C133.6 15.088 133.392 15.664 133.392 16.3894C133.392 17.1147 133.6 17.696 134.016 18.1334C134.432 18.56 134.96 18.7734 135.6 18.7734ZM147.076 11.9574C147.876 11.9574 148.601 12.144 149.252 12.5174C149.913 12.88 150.431 13.3974 150.804 14.0694C151.177 14.7307 151.364 15.504 151.364 16.3894C151.364 17.2747 151.177 18.0534 150.804 18.7254C150.431 19.3867 149.913 19.904 149.252 20.2774C148.601 20.64 147.876 20.8214 147.076 20.8214C145.892 20.8214 144.991 20.448 144.372 19.7014V20.6934H141.988V8.82136H144.484V12.9974C145.113 12.304 145.977 11.9574 147.076 11.9574ZM146.644 18.7734C147.284 18.7734 147.807 18.56 148.212 18.1334C148.628 17.696 148.836 17.1147 148.836 16.3894C148.836 15.664 148.628 15.088 148.212 14.6614C147.807 14.224 147.284 14.0054 146.644 14.0054C146.004 14.0054 145.476 14.224 145.06 14.6614C144.655 15.088 144.452 15.664 144.452 16.3894C144.452 17.1147 144.655 17.696 145.06 18.1334C145.476 18.56 146.004 18.7734 146.644 18.7734Z" fill="white"/>
<g clip-path="url(#clip0_6050_129745)">
<path d="M55.7892 79.5713C55.6053 80.5523 54.0112 81.1348 52.601 81.2881C52.0185 81.3494 51.62 81.9625 51.7426 82.5143C51.9572 83.3114 51.6813 84.2311 50.5777 84.8135C49.9033 85.1507 49.3208 85.1814 48.769 84.9668C48.1865 84.7522 47.5427 85.1814 47.4508 85.7945C47.3895 86.2544 47.2668 86.7142 47.0522 87.1434C46.5617 88.1244 45.5807 88.7988 44.5078 88.9828C42.7604 89.2893 42.1166 85.6412 42.2699 82.545C42.3619 80.7669 42.2086 77.3947 43.9866 76.4751C44.0479 76.4444 44.1093 76.4138 44.1706 76.3831C45.6421 75.8313 48.2785 76.3218 50.4857 76.5364C51.0069 76.5977 51.5587 76.659 52.0798 76.7816C54.1645 77.2721 56.0038 78.3451 55.7892 79.5713Z" fill="#F64A3C"/>
<path d="M55.7892 79.5709C55.6053 80.5519 54.0112 81.1343 52.601 81.2876C52.0185 81.3489 51.62 81.9621 51.7426 82.5139C51.9572 83.3109 51.6813 84.2306 50.5777 84.8131C49.9033 85.1503 49.3208 85.1809 48.769 84.9664C48.1865 84.7518 47.5427 85.1809 47.4508 85.7941C47.3895 86.2539 47.2668 86.7138 47.0522 87.1429C46.5617 88.1239 45.5807 88.7984 44.5078 88.9823C42.7604 89.2889 42.1166 85.6408 42.2699 82.5445C42.3619 80.7665 42.2086 77.3943 43.9866 76.4746C44.4771 78.13 44.3545 80.2453 44.5078 81.9314C44.5384 82.4219 44.6611 83.0044 45.0903 83.219C45.9486 83.6175 46.7457 82.3606 46.9603 81.3796C47.88 81.9007 49.1369 80.9811 49.6887 80.0001C50.2711 79.0191 50.5777 77.8541 51.4667 77.1184C51.6507 76.9651 51.8346 76.8425 52.0492 76.7505C54.1645 77.2717 56.0038 78.3446 55.7892 79.5709Z" fill="#D7342B"/>
<path d="M25.2255 46.7998C25.2255 46.9837 25.2255 47.1676 25.1949 47.3822C25.1336 49.3136 25.1029 52.2872 23.3249 52.9617C21.8534 53.5441 19.2169 53.023 17.0097 52.8084C14.3733 52.5631 11.3996 51.3369 11.7062 49.7734C11.8288 49.1296 12.5339 48.6698 13.4229 48.3632C13.8828 48.21 14.4039 48.0873 14.8944 48.026C15.4769 47.9647 16.1513 47.1676 15.9981 46.6158C15.7835 45.8188 16.0594 44.8991 17.163 44.3166C17.8374 43.9794 18.4199 43.9794 18.9717 44.1633C19.5542 44.3779 20.1979 43.9794 20.2899 43.3356C20.3512 42.8758 20.2286 42.6305 20.4125 42.2014C20.903 41.2204 21.884 40.5459 22.957 40.362C24.735 40.0554 25.3788 43.6728 25.2255 46.7998Z" fill="#F64A3C"/>
<path d="M25.1946 47.3818C25.1333 49.3132 25.1027 52.2868 23.3246 52.9613C21.8531 53.5437 19.2167 53.0226 17.0095 52.808C14.373 52.5627 11.3994 51.3365 11.706 49.773C11.8286 49.1292 12.5337 48.6694 13.4227 48.3628C14.557 49.5278 16.427 49.9263 18.2051 50.0489C19.5846 50.1715 21.0254 50.2635 22.3436 49.7424C23.5392 49.3132 24.4896 48.4241 25.1946 47.3818Z" fill="#D7342B"/>
<path d="M33.8092 51.7956L46.5008 67.4302C46.6541 67.6141 46.8074 67.8287 46.93 68.0433C47.0833 68.2886 47.2059 68.5338 47.3285 68.8097C47.6351 69.5148 47.819 70.2812 47.8803 71.0476C47.911 71.7221 47.8497 72.4272 47.6964 73.1016C47.6657 73.2242 47.6351 73.3468 47.6044 73.4695C47.1752 74.9103 46.3169 76.2592 45.0293 77.3015L44.1709 77.9759C43.2819 78.7117 42.2703 79.2022 41.228 79.4781C40.0937 79.7846 38.9287 79.8153 37.8558 79.57C36.9361 79.3861 36.0471 78.9876 35.2807 78.4051C34.9128 78.1292 34.5449 77.792 34.2384 77.3935L21.5467 61.7588C21.4854 61.6975 21.4241 61.6055 21.3934 61.5442C21.3321 61.4523 21.2402 61.3296 21.1789 61.2377C21.1482 61.1764 21.1175 61.1457 21.0869 61.0844C21.0562 61.0231 21.0256 60.9618 20.9949 60.9005L20.9643 60.8698C20.9336 60.8085 20.903 60.7472 20.8416 60.6552C20.7803 60.5632 20.7497 60.4713 20.719 60.3793C20.6884 60.3486 20.6884 60.318 20.6884 60.2873C20.6577 60.226 20.627 60.1647 20.627 60.1034C20.5964 60.0114 20.5657 59.8888 20.5351 59.7968C20.5351 59.7662 20.5044 59.7355 20.5044 59.7355C20.4738 59.6742 20.4738 59.5822 20.4431 59.5209C20.4125 59.429 20.4125 59.3676 20.3818 59.2757C20.3818 59.2144 20.3511 59.1531 20.3511 59.0917C20.3205 58.9998 20.3205 58.9078 20.2898 58.8158C20.2592 58.5706 20.2285 58.356 20.2285 58.1107C20.2285 58.0188 20.2285 57.9575 20.2285 57.8655C20.2285 57.7429 20.2285 57.6509 20.2285 57.5283C20.2285 57.4363 20.2285 57.3443 20.2592 57.2524C20.2898 57.0071 20.3205 56.7619 20.3818 56.486C20.4125 56.394 20.4125 56.302 20.4431 56.2101C20.4738 56.1181 20.4738 56.0261 20.5044 55.9648C20.5351 55.8422 20.5657 55.7196 20.627 55.5969C20.6577 55.505 20.719 55.3824 20.7497 55.2904C20.7803 55.1984 20.811 55.1371 20.8416 55.0451C20.8723 54.9838 20.903 54.9532 20.903 54.8919C20.9336 54.8305 20.9643 54.7386 20.9949 54.6773C21.0256 54.5853 21.0869 54.4933 21.1482 54.4014C21.2095 54.3094 21.2402 54.2174 21.3015 54.1561C21.3321 54.0948 21.3628 54.0641 21.3934 54.0028C21.4241 53.9415 21.4854 53.8802 21.5161 53.8189C21.5161 53.7882 21.5467 53.7882 21.5467 53.7576C21.608 53.6656 21.6694 53.6043 21.7307 53.5123C21.8839 53.3284 22.0372 53.1445 22.1905 52.9912C22.2212 52.9299 22.2825 52.8992 22.3438 52.8379C22.4051 52.7766 22.4358 52.7459 22.4971 52.6846C22.6503 52.5313 22.8343 52.3781 22.9876 52.2248L24.1832 51.2438C25.1642 50.4467 26.2984 49.9256 27.4327 49.6803C27.7086 49.619 27.9845 49.5883 28.2298 49.5577C29.0575 49.4964 29.8852 49.5577 30.6516 49.7723C31.2954 49.9562 31.9085 50.2015 32.4603 50.5693C32.7056 50.7226 32.9201 50.8759 33.1041 51.0598C33.38 51.3051 33.5946 51.5503 33.8092 51.7956Z" fill="#FBDBCD"/>
<path d="M47.6044 73.4405C47.1752 74.8813 46.3169 76.2302 45.0293 77.2725L44.1709 77.9469C41.0134 80.4914 36.5682 80.2461 34.2384 77.3645L21.5467 61.7298C21.3934 61.5459 21.2708 61.3926 21.1789 61.2087C21.1482 61.1474 21.1175 61.1167 21.0869 61.0554C21.0562 60.9941 21.0256 60.9328 20.9949 60.8715L20.9643 60.8408C20.9336 60.7795 20.903 60.7182 20.8416 60.6262C20.811 60.5342 20.7497 60.4423 20.719 60.3503C20.719 60.3197 20.6884 60.289 20.6884 60.2583C20.6577 60.197 20.627 60.1357 20.627 60.0744C20.5964 59.9824 20.5657 59.8598 20.5351 59.7678C20.5351 59.7372 20.5044 59.7065 20.5044 59.7065C20.4738 59.6452 20.4738 59.5533 20.4431 59.4919C20.4125 59.4 20.4125 59.3387 20.3818 59.2467C20.3818 59.1854 20.3511 59.1241 20.3511 59.0628C20.2898 58.7255 20.2592 58.419 20.2285 58.0818C20.2285 57.9898 20.2285 57.9285 20.2285 57.8365C20.2285 57.7139 20.2285 57.6219 20.2285 57.4993C20.2285 57.4073 20.2285 57.3154 20.2592 57.2234C20.2898 56.9781 20.3205 56.7329 20.3818 56.457C20.4125 56.365 20.4125 56.273 20.4431 56.1811C20.4738 56.0891 20.4738 55.9971 20.5044 55.9358C20.5351 55.8132 20.5657 55.6906 20.627 55.5373C20.6577 55.4453 20.6884 55.3227 20.7497 55.2307C20.7803 55.1388 20.811 55.0775 20.8416 54.9855C20.8723 54.9242 20.903 54.8935 20.903 54.8322C20.9336 54.7709 20.9643 54.6789 20.9949 54.6176C21.0256 54.5257 21.0869 54.4337 21.1482 54.3417C21.2095 54.2497 21.2402 54.1578 21.3015 54.0965C21.3321 54.0352 21.3628 54.0045 21.3934 53.9432C21.4241 53.8819 21.4854 53.8206 21.5161 53.7592C21.5161 53.7286 21.5467 53.7286 21.5467 53.6979C21.608 53.606 21.6694 53.5447 21.7307 53.4527C21.8839 53.2688 22.0372 53.0848 22.1905 52.9009C22.2212 52.8396 22.2825 52.8089 22.3131 52.7476C22.3744 52.6863 22.4051 52.6556 22.4664 52.5943C22.6197 52.441 22.8036 52.2878 22.9876 52.1345L23.4474 51.7666C23.5087 53.9738 23.8153 56.0891 24.9189 58.0818C25.7773 59.6452 27.0342 60.9021 28.1071 62.343C29.5786 64.2743 35.5259 72.4288 37.3346 73.9616C37.9171 74.4521 38.5302 74.8813 39.2353 75.1879C39.8484 75.4638 40.5229 75.6171 41.228 75.709C42.6688 75.8623 44.1709 75.5864 45.5198 74.912C46.3169 74.5748 46.9913 74.0536 47.6044 73.4405Z" fill="#EAA292"/>
<path d="M30.6823 49.7723L21.4242 61.5136C21.3629 61.4216 21.2709 61.299 21.2096 61.207C21.1789 61.1457 21.1483 61.115 21.1176 61.0537C21.087 60.9924 21.0563 60.9311 21.0256 60.8698L20.995 60.8391C20.9643 60.7778 20.9337 60.7165 20.8724 60.6245C20.8111 60.5326 20.7804 60.4406 20.7497 60.3486C20.7191 60.318 20.7191 60.2873 20.7191 60.2567C20.6884 60.1954 20.6578 60.1341 20.6578 60.0727C20.6271 59.9808 20.5965 59.8581 20.5658 59.7662C20.5658 59.7355 20.5351 59.7049 20.5351 59.7049C20.5045 59.6436 20.5045 59.5516 20.4738 59.4903C20.4432 59.3983 20.4432 59.337 20.4125 59.245C20.4125 59.1837 20.3819 59.1224 20.3819 59.0611C20.3512 58.9691 20.3512 58.8771 20.3206 58.7852L27.4634 49.6803C27.7393 49.619 28.0152 49.5883 28.2605 49.5577C29.0882 49.4964 29.8853 49.5577 30.6823 49.7723Z" fill="#D7342B"/>
<path d="M33.8093 51.7969L34.8516 53.0844L24.8577 65.7761L23.1716 63.7221L33.1042 51.0918C33.3801 51.3064 33.5947 51.5516 33.8093 51.7969Z" fill="#D7342B"/>
<path d="M36.6296 55.2598L38.2851 57.3444L28.2912 70.036L26.6357 67.9514L36.6296 55.2598Z" fill="#D7342B"/>
<path d="M40.0627 59.5215L41.7488 61.5754L31.7549 74.2671L30.0688 72.2131L40.0627 59.5215Z" fill="#D7342B"/>
<path d="M43.5269 63.751L45.2129 65.8049L35.311 78.3739C34.9431 78.098 34.5753 77.7608 34.2687 77.3623L33.533 76.4426L43.5269 63.751Z" fill="#D7342B"/>
<path d="M46.9297 68.0439C47.083 68.2892 47.2056 68.5344 47.3282 68.8103C47.6348 69.5154 47.8187 70.2818 47.88 71.0482L41.2276 79.4787C40.0934 79.7852 38.9284 79.8159 37.8555 79.5706L46.9297 68.0439Z" fill="#D7342B"/>
<path d="M23.2942 48.1485C23.5088 46.7383 23.1716 44.9296 22.3438 43.7647C22.1906 43.5501 21.9147 43.7647 22.0066 43.9793C22.2519 44.715 22.5891 45.3588 22.7424 46.1252C22.8957 46.7996 22.9263 47.4741 22.9876 48.1792C22.9876 48.3631 23.2635 48.3324 23.2942 48.1485Z" fill="white"/>
<path d="M21.3012 48.9461C21.0866 48.5782 20.872 48.2103 20.6574 47.8118C20.4735 47.5053 20.3509 47.1987 20.075 46.9534C19.983 46.8921 19.8604 46.9841 19.891 47.0761C19.9523 47.4133 20.1976 47.7198 20.3815 48.0264C20.5961 48.3636 20.8107 48.7315 21.0253 49.0687C21.1173 49.2527 21.3932 49.13 21.3012 48.9461Z" fill="white"/>
<path d="M17.5309 48.7004C17.7148 48.8843 17.9294 49.0683 18.1747 49.1909C18.3586 49.3135 18.5732 49.4361 18.7878 49.3135C18.8184 49.2829 18.8491 49.2216 18.8491 49.1909C18.7878 48.9763 18.6038 48.915 18.4199 48.823C18.2053 48.7004 17.9907 48.5778 17.8068 48.3938C17.6228 48.2712 17.3469 48.5471 17.5309 48.7004Z" fill="white"/>
<path d="M46.2556 77.7622C46.6235 78.0074 47.022 78.2527 47.4205 78.4672C47.7271 78.6205 48.0643 78.8964 48.4015 78.8045C48.4935 78.7738 48.5548 78.6818 48.5241 78.5899C48.3709 78.2527 47.9723 78.13 47.6658 77.9767C47.2979 77.7622 46.93 77.5476 46.5621 77.3023C46.2862 77.1797 46.0103 77.5782 46.2556 77.7622Z" fill="white"/>
<path d="M45.9179 79.2024C46.0712 79.3557 46.2245 79.5396 46.4084 79.6316C46.5924 79.7542 46.8376 79.5396 46.6843 79.3251C46.5617 79.1411 46.3471 78.9878 46.1632 78.8346C46.0712 78.7426 45.9179 78.8039 45.8566 78.8959C45.7953 79.0185 45.8259 79.1411 45.9179 79.2024Z" fill="white"/>
<path d="M45.6423 80.7969C45.5197 80.6743 45.397 80.5517 45.2438 80.429C45.1518 80.3677 45.0292 80.4597 45.0905 80.5517C45.1824 80.7049 45.2744 80.8582 45.3664 81.0115C45.489 81.1954 45.7956 80.9502 45.6423 80.7969Z" fill="white"/>
<path d="M26.3291 52.1643C29.8852 51.7965 32.4603 54.6475 34.5756 57.0693C34.9128 57.4372 35.5566 57.0693 35.342 56.6095C34.5756 54.8314 32.6749 53.3293 31.0194 52.4096C29.5173 51.5512 27.9232 51.1834 26.2371 51.5512C25.8079 51.5819 25.8999 52.195 26.3291 52.1643Z" fill="white"/>
<path d="M36.0468 58.4801C36.1081 58.8173 36.3534 59.1238 36.5373 59.3998C36.7519 59.737 37.0278 60.0435 37.273 60.3501C37.4263 60.534 37.6716 60.5647 37.8862 60.5034C37.9781 60.4727 38.0394 60.4114 38.1008 60.3194C38.2234 60.1048 38.254 59.8596 38.0701 59.6757C37.6409 59.1545 37.1198 58.3574 36.476 58.1122C36.2614 58.0509 36.0161 58.2655 36.0468 58.4801Z" fill="white"/>
<path d="M39.3274 62.68C39.3887 62.772 39.4807 62.864 39.542 62.9866C39.6953 63.1705 39.8485 63.2318 40.0631 63.2012C40.2164 63.2012 40.3697 63.0479 40.4004 62.9253C40.4617 62.7107 40.431 62.5267 40.3084 62.3428C40.2471 62.2508 40.1551 62.1589 40.0631 62.0669C39.9099 61.883 39.5726 61.8217 39.3887 62.0056C39.2048 62.1895 39.1741 62.4654 39.3274 62.68Z" fill="white"/>
</g>
<g clip-path="url(#clip1_6050_129745)">
<path d="M115.789 79.5713C115.605 80.5523 114.011 81.1348 112.601 81.2881C112.019 81.3494 111.62 81.9625 111.743 82.5143C111.957 83.3114 111.681 84.2311 110.578 84.8135C109.903 85.1507 109.321 85.1814 108.769 84.9668C108.187 84.7522 107.543 85.1814 107.451 85.7945C107.389 86.2544 107.267 86.7142 107.052 87.1434C106.562 88.1244 105.581 88.7988 104.508 88.9828C102.76 89.2893 102.117 85.6412 102.27 82.545C102.362 80.7669 102.209 77.3947 103.987 76.4751C104.048 76.4444 104.109 76.4138 104.171 76.3831C105.642 75.8313 108.278 76.3218 110.486 76.5364C111.007 76.5977 111.559 76.659 112.08 76.7816C114.164 77.2721 116.004 78.3451 115.789 79.5713Z" fill="#F64A3C"/>
<path d="M115.789 79.5709C115.605 80.5519 114.011 81.1343 112.601 81.2876C112.019 81.3489 111.62 81.9621 111.743 82.5139C111.957 83.3109 111.681 84.2306 110.578 84.8131C109.903 85.1503 109.321 85.1809 108.769 84.9664C108.187 84.7518 107.543 85.1809 107.451 85.7941C107.389 86.2539 107.267 86.7138 107.052 87.1429C106.562 88.1239 105.581 88.7984 104.508 88.9823C102.76 89.2889 102.117 85.6408 102.27 82.5445C102.362 80.7665 102.209 77.3943 103.987 76.4746C104.477 78.13 104.355 80.2453 104.508 81.9314C104.538 82.4219 104.661 83.0044 105.09 83.219C105.949 83.6175 106.746 82.3606 106.96 81.3796C107.88 81.9007 109.137 80.9811 109.689 80.0001C110.271 79.0191 110.578 77.8541 111.467 77.1184C111.651 76.9651 111.835 76.8425 112.049 76.7505C114.164 77.2717 116.004 78.3446 115.789 79.5709Z" fill="#D7342B"/>
<path d="M85.2255 46.7998C85.2255 46.9837 85.2255 47.1676 85.1949 47.3822C85.1336 49.3136 85.1029 52.2872 83.3249 52.9617C81.8534 53.5441 79.2169 53.023 77.0097 52.8084C74.3733 52.5631 71.3996 51.3369 71.7062 49.7734C71.8288 49.1296 72.5339 48.6698 73.4229 48.3632C73.8828 48.21 74.4039 48.0873 74.8944 48.026C75.4769 47.9647 76.1513 47.1676 75.9981 46.6158C75.7835 45.8188 76.0594 44.8991 77.163 44.3166C77.8374 43.9794 78.4199 43.9794 78.9717 44.1633C79.5542 44.3779 80.1979 43.9794 80.2899 43.3356C80.3512 42.8758 80.2286 42.6305 80.4125 42.2014C80.903 41.2204 81.884 40.5459 82.957 40.362C84.735 40.0554 85.3788 43.6728 85.2255 46.7998Z" fill="#F64A3C"/>
<path d="M85.1946 47.3818C85.1333 49.3132 85.1027 52.2868 83.3246 52.9613C81.8531 53.5437 79.2167 53.0226 77.0095 52.808C74.373 52.5627 71.3994 51.3365 71.706 49.773C71.8286 49.1292 72.5337 48.6694 73.4227 48.3628C74.557 49.5278 76.427 49.9263 78.2051 50.0489C79.5846 50.1715 81.0254 50.2635 82.3436 49.7424C83.5392 49.3132 84.4896 48.4241 85.1946 47.3818Z" fill="#D7342B"/>
<path d="M93.8092 51.7956L106.501 67.4302C106.654 67.6141 106.807 67.8287 106.93 68.0433C107.083 68.2886 107.206 68.5338 107.329 68.8097C107.635 69.5148 107.819 70.2812 107.88 71.0476C107.911 71.7221 107.85 72.4272 107.696 73.1016C107.666 73.2242 107.635 73.3468 107.604 73.4695C107.175 74.9103 106.317 76.2592 105.029 77.3015L104.171 77.9759C103.282 78.7117 102.27 79.2022 101.228 79.4781C100.094 79.7846 98.9287 79.8153 97.8558 79.57C96.9361 79.3861 96.0471 78.9876 95.2807 78.4051C94.9128 78.1292 94.5449 77.792 94.2384 77.3935L81.5467 61.7588C81.4854 61.6975 81.4241 61.6055 81.3934 61.5442C81.3321 61.4523 81.2402 61.3296 81.1789 61.2377C81.1482 61.1764 81.1175 61.1457 81.0869 61.0844C81.0562 61.0231 81.0256 60.9618 80.9949 60.9005L80.9643 60.8698C80.9336 60.8085 80.903 60.7472 80.8416 60.6552C80.7803 60.5632 80.7497 60.4713 80.719 60.3793C80.6884 60.3486 80.6884 60.318 80.6884 60.2873C80.6577 60.226 80.627 60.1647 80.627 60.1034C80.5964 60.0114 80.5657 59.8888 80.5351 59.7968C80.5351 59.7662 80.5044 59.7355 80.5044 59.7355C80.4738 59.6742 80.4738 59.5822 80.4431 59.5209C80.4125 59.429 80.4125 59.3676 80.3818 59.2757C80.3818 59.2144 80.3511 59.1531 80.3511 59.0917C80.3205 58.9998 80.3205 58.9078 80.2898 58.8158C80.2592 58.5706 80.2285 58.356 80.2285 58.1107C80.2285 58.0188 80.2285 57.9575 80.2285 57.8655C80.2285 57.7429 80.2285 57.6509 80.2285 57.5283C80.2285 57.4363 80.2285 57.3443 80.2592 57.2524C80.2898 57.0071 80.3205 56.7619 80.3818 56.486C80.4125 56.394 80.4125 56.302 80.4431 56.2101C80.4738 56.1181 80.4738 56.0261 80.5044 55.9648C80.5351 55.8422 80.5657 55.7196 80.627 55.5969C80.6577 55.505 80.719 55.3824 80.7497 55.2904C80.7803 55.1984 80.811 55.1371 80.8416 55.0451C80.8723 54.9838 80.903 54.9532 80.903 54.8919C80.9336 54.8305 80.9643 54.7386 80.9949 54.6773C81.0256 54.5853 81.0869 54.4933 81.1482 54.4014C81.2095 54.3094 81.2402 54.2174 81.3015 54.1561C81.3321 54.0948 81.3628 54.0641 81.3934 54.0028C81.4241 53.9415 81.4854 53.8802 81.5161 53.8189C81.5161 53.7882 81.5467 53.7882 81.5467 53.7576C81.608 53.6656 81.6694 53.6043 81.7307 53.5123C81.8839 53.3284 82.0372 53.1445 82.1905 52.9912C82.2212 52.9299 82.2825 52.8992 82.3438 52.8379C82.4051 52.7766 82.4358 52.7459 82.4971 52.6846C82.6503 52.5313 82.8343 52.3781 82.9876 52.2248L84.1832 51.2438C85.1642 50.4467 86.2984 49.9256 87.4327 49.6803C87.7086 49.619 87.9845 49.5883 88.2298 49.5577C89.0575 49.4964 89.8852 49.5577 90.6516 49.7723C91.2954 49.9562 91.9085 50.2015 92.4603 50.5693C92.7056 50.7226 92.9201 50.8759 93.1041 51.0598C93.38 51.3051 93.5946 51.5503 93.8092 51.7956Z" fill="#FBDBCD"/>
<path d="M107.604 73.4405C107.175 74.8813 106.317 76.2302 105.029 77.2725L104.171 77.9469C101.013 80.4914 96.5682 80.2461 94.2384 77.3645L81.5467 61.7298C81.3934 61.5459 81.2708 61.3926 81.1789 61.2087C81.1482 61.1474 81.1175 61.1167 81.0869 61.0554C81.0562 60.9941 81.0256 60.9328 80.9949 60.8715L80.9643 60.8408C80.9336 60.7795 80.903 60.7182 80.8416 60.6262C80.811 60.5342 80.7497 60.4423 80.719 60.3503C80.719 60.3197 80.6884 60.289 80.6884 60.2583C80.6577 60.197 80.627 60.1357 80.627 60.0744C80.5964 59.9824 80.5657 59.8598 80.5351 59.7678C80.5351 59.7372 80.5044 59.7065 80.5044 59.7065C80.4738 59.6452 80.4738 59.5533 80.4431 59.4919C80.4125 59.4 80.4125 59.3387 80.3818 59.2467C80.3818 59.1854 80.3511 59.1241 80.3511 59.0628C80.2898 58.7255 80.2592 58.419 80.2285 58.0818C80.2285 57.9898 80.2285 57.9285 80.2285 57.8365C80.2285 57.7139 80.2285 57.6219 80.2285 57.4993C80.2285 57.4073 80.2285 57.3154 80.2592 57.2234C80.2898 56.9781 80.3205 56.7329 80.3818 56.457C80.4125 56.365 80.4125 56.273 80.4431 56.1811C80.4738 56.0891 80.4738 55.9971 80.5044 55.9358C80.5351 55.8132 80.5657 55.6906 80.627 55.5373C80.6577 55.4453 80.6884 55.3227 80.7497 55.2307C80.7803 55.1388 80.811 55.0775 80.8416 54.9855C80.8723 54.9242 80.903 54.8935 80.903 54.8322C80.9336 54.7709 80.9643 54.6789 80.9949 54.6176C81.0256 54.5257 81.0869 54.4337 81.1482 54.3417C81.2095 54.2497 81.2402 54.1578 81.3015 54.0965C81.3321 54.0352 81.3628 54.0045 81.3934 53.9432C81.4241 53.8819 81.4854 53.8206 81.5161 53.7592C81.5161 53.7286 81.5467 53.7286 81.5467 53.6979C81.608 53.606 81.6694 53.5447 81.7307 53.4527C81.8839 53.2688 82.0372 53.0848 82.1905 52.9009C82.2212 52.8396 82.2825 52.8089 82.3131 52.7476C82.3744 52.6863 82.4051 52.6556 82.4664 52.5943C82.6197 52.441 82.8036 52.2878 82.9876 52.1345L83.4474 51.7666C83.5087 53.9738 83.8153 56.0891 84.9189 58.0818C85.7773 59.6452 87.0342 60.9021 88.1071 62.343C89.5786 64.2743 95.5259 72.4288 97.3346 73.9616C97.9171 74.4521 98.5302 74.8813 99.2353 75.1879C99.8484 75.4638 100.523 75.6171 101.228 75.709C102.669 75.8623 104.171 75.5864 105.52 74.912C106.317 74.5748 106.991 74.0536 107.604 73.4405Z" fill="#EAA292"/>
<path d="M90.6823 49.7723L81.4242 61.5136C81.3629 61.4216 81.2709 61.299 81.2096 61.207C81.1789 61.1457 81.1483 61.115 81.1176 61.0537C81.087 60.9924 81.0563 60.9311 81.0256 60.8698L80.995 60.8391C80.9643 60.7778 80.9337 60.7165 80.8724 60.6245C80.8111 60.5326 80.7804 60.4406 80.7497 60.3486C80.7191 60.318 80.7191 60.2873 80.7191 60.2567C80.6884 60.1954 80.6578 60.1341 80.6578 60.0727C80.6271 59.9808 80.5965 59.8581 80.5658 59.7662C80.5658 59.7355 80.5351 59.7049 80.5351 59.7049C80.5045 59.6436 80.5045 59.5516 80.4738 59.4903C80.4432 59.3983 80.4432 59.337 80.4125 59.245C80.4125 59.1837 80.3819 59.1224 80.3819 59.0611C80.3512 58.9691 80.3512 58.8771 80.3206 58.7852L87.4634 49.6803C87.7393 49.619 88.0152 49.5883 88.2605 49.5577C89.0882 49.4964 89.8853 49.5577 90.6823 49.7723Z" fill="#D7342B"/>
<path d="M93.8093 51.7969L94.8516 53.0844L84.8577 65.7761L83.1716 63.7221L93.1042 51.0918C93.3801 51.3064 93.5947 51.5516 93.8093 51.7969Z" fill="#D7342B"/>
<path d="M96.6296 55.2598L98.2851 57.3444L88.2912 70.036L86.6357 67.9514L96.6296 55.2598Z" fill="#D7342B"/>
<path d="M100.063 59.5215L101.749 61.5754L91.7549 74.2671L90.0688 72.2131L100.063 59.5215Z" fill="#D7342B"/>
<path d="M103.527 63.751L105.213 65.8049L95.311 78.3739C94.9431 78.098 94.5753 77.7608 94.2687 77.3623L93.533 76.4426L103.527 63.751Z" fill="#D7342B"/>
<path d="M106.93 68.0439C107.083 68.2892 107.206 68.5344 107.328 68.8103C107.635 69.5154 107.819 70.2818 107.88 71.0482L101.228 79.4787C100.093 79.7852 98.9284 79.8159 97.8555 79.5706L106.93 68.0439Z" fill="#D7342B"/>
<path d="M83.2942 48.1485C83.5088 46.7383 83.1716 44.9296 82.3438 43.7647C82.1906 43.5501 81.9147 43.7647 82.0066 43.9793C82.2519 44.715 82.5891 45.3588 82.7424 46.1252C82.8957 46.7996 82.9263 47.4741 82.9876 48.1792C82.9876 48.3631 83.2635 48.3324 83.2942 48.1485Z" fill="white"/>
<path d="M81.3012 48.9461C81.0866 48.5782 80.872 48.2103 80.6574 47.8118C80.4735 47.5053 80.3509 47.1987 80.075 46.9534C79.983 46.8921 79.8604 46.9841 79.891 47.0761C79.9523 47.4133 80.1976 47.7198 80.3815 48.0264C80.5961 48.3636 80.8107 48.7315 81.0253 49.0687C81.1173 49.2527 81.3932 49.13 81.3012 48.9461Z" fill="white"/>
<path d="M77.5309 48.7004C77.7148 48.8843 77.9294 49.0683 78.1747 49.1909C78.3586 49.3135 78.5732 49.4361 78.7878 49.3135C78.8184 49.2829 78.8491 49.2216 78.8491 49.1909C78.7878 48.9763 78.6038 48.915 78.4199 48.823C78.2053 48.7004 77.9907 48.5778 77.8068 48.3938C77.6228 48.2712 77.3469 48.5471 77.5309 48.7004Z" fill="white"/>
<path d="M106.256 77.7622C106.623 78.0074 107.022 78.2527 107.421 78.4672C107.727 78.6205 108.064 78.8964 108.402 78.8045C108.493 78.7738 108.555 78.6818 108.524 78.5899C108.371 78.2527 107.972 78.13 107.666 77.9767C107.298 77.7622 106.93 77.5476 106.562 77.3023C106.286 77.1797 106.01 77.5782 106.256 77.7622Z" fill="white"/>
<path d="M105.918 79.2024C106.071 79.3557 106.224 79.5396 106.408 79.6316C106.592 79.7542 106.838 79.5396 106.684 79.3251C106.562 79.1411 106.347 78.9878 106.163 78.8346C106.071 78.7426 105.918 78.8039 105.857 78.8959C105.795 79.0185 105.826 79.1411 105.918 79.2024Z" fill="white"/>
<path d="M105.642 80.7969C105.52 80.6743 105.397 80.5517 105.244 80.429C105.152 80.3677 105.029 80.4597 105.09 80.5517C105.182 80.7049 105.274 80.8582 105.366 81.0115C105.489 81.1954 105.796 80.9502 105.642 80.7969Z" fill="white"/>
<path d="M86.3291 52.1643C89.8852 51.7965 92.4603 54.6475 94.5756 57.0693C94.9128 57.4372 95.5566 57.0693 95.342 56.6095C94.5756 54.8314 92.6749 53.3293 91.0194 52.4096C89.5173 51.5512 87.9232 51.1834 86.2371 51.5512C85.8079 51.5819 85.8999 52.195 86.3291 52.1643Z" fill="white"/>
<path d="M96.0468 58.4801C96.1081 58.8173 96.3534 59.1238 96.5373 59.3998C96.7519 59.737 97.0278 60.0435 97.273 60.3501C97.4263 60.534 97.6716 60.5647 97.8862 60.5034C97.9781 60.4727 98.0394 60.4114 98.1008 60.3194C98.2234 60.1048 98.254 59.8596 98.0701 59.6757C97.6409 59.1545 97.1198 58.3574 96.476 58.1122C96.2614 58.0509 96.0161 58.2655 96.0468 58.4801Z" fill="white"/>
<path d="M99.3274 62.68C99.3887 62.772 99.4807 62.864 99.542 62.9866C99.6953 63.1705 99.8485 63.2318 100.063 63.2012C100.216 63.2012 100.37 63.0479 100.4 62.9253C100.462 62.7107 100.431 62.5267 100.308 62.3428C100.247 62.2508 100.155 62.1589 100.063 62.0669C99.9099 61.883 99.5726 61.8217 99.3887 62.0056C99.2048 62.1895 99.1741 62.4654 99.3274 62.68Z" fill="white"/>
</g>
<g clip-path="url(#clip2_6050_129745)">
<path d="M175.789 79.5713C175.605 80.5523 174.011 81.1348 172.601 81.2881C172.019 81.3494 171.62 81.9625 171.743 82.5143C171.957 83.3114 171.681 84.2311 170.578 84.8135C169.903 85.1507 169.321 85.1814 168.769 84.9668C168.187 84.7522 167.543 85.1814 167.451 85.7945C167.389 86.2544 167.267 86.7142 167.052 87.1434C166.562 88.1244 165.581 88.7988 164.508 88.9828C162.76 89.2893 162.117 85.6412 162.27 82.545C162.362 80.7669 162.209 77.3947 163.987 76.4751C164.048 76.4444 164.109 76.4138 164.171 76.3831C165.642 75.8313 168.278 76.3218 170.486 76.5364C171.007 76.5977 171.559 76.659 172.08 76.7816C174.164 77.2721 176.004 78.3451 175.789 79.5713Z" fill="#F64A3C"/>
<path d="M175.789 79.5709C175.605 80.5519 174.011 81.1343 172.601 81.2876C172.019 81.3489 171.62 81.9621 171.743 82.5139C171.957 83.3109 171.681 84.2306 170.578 84.8131C169.903 85.1503 169.321 85.1809 168.769 84.9664C168.187 84.7518 167.543 85.1809 167.451 85.7941C167.389 86.2539 167.267 86.7138 167.052 87.1429C166.562 88.1239 165.581 88.7984 164.508 88.9823C162.76 89.2889 162.117 85.6408 162.27 82.5445C162.362 80.7665 162.209 77.3943 163.987 76.4746C164.477 78.13 164.355 80.2453 164.508 81.9314C164.538 82.4219 164.661 83.0044 165.09 83.219C165.949 83.6175 166.746 82.3606 166.96 81.3796C167.88 81.9007 169.137 80.9811 169.689 80.0001C170.271 79.0191 170.578 77.8541 171.467 77.1184C171.651 76.9651 171.835 76.8425 172.049 76.7505C174.164 77.2717 176.004 78.3446 175.789 79.5709Z" fill="#D7342B"/>
<path d="M145.226 46.7998C145.226 46.9837 145.226 47.1676 145.195 47.3822C145.134 49.3136 145.103 52.2872 143.325 52.9617C141.853 53.5441 139.217 53.023 137.01 52.8084C134.373 52.5631 131.4 51.3369 131.706 49.7734C131.829 49.1296 132.534 48.6698 133.423 48.3632C133.883 48.21 134.404 48.0873 134.894 48.026C135.477 47.9647 136.151 47.1676 135.998 46.6158C135.783 45.8188 136.059 44.8991 137.163 44.3166C137.837 43.9794 138.42 43.9794 138.972 44.1633C139.554 44.3779 140.198 43.9794 140.29 43.3356C140.351 42.8758 140.229 42.6305 140.413 42.2014C140.903 41.2204 141.884 40.5459 142.957 40.362C144.735 40.0554 145.379 43.6728 145.226 46.7998Z" fill="#F64A3C"/>
<path d="M145.195 47.3818C145.133 49.3132 145.103 52.2868 143.325 52.9613C141.853 53.5437 139.217 53.0226 137.009 52.808C134.373 52.5627 131.399 51.3365 131.706 49.773C131.829 49.1292 132.534 48.6694 133.423 48.3628C134.557 49.5278 136.427 49.9263 138.205 50.0489C139.585 50.1715 141.025 50.2635 142.344 49.7424C143.539 49.3132 144.49 48.4241 145.195 47.3818Z" fill="#D7342B"/>
<path d="M153.809 51.7956L166.501 67.4302C166.654 67.6141 166.807 67.8287 166.93 68.0433C167.083 68.2886 167.206 68.5338 167.329 68.8097C167.635 69.5148 167.819 70.2812 167.88 71.0476C167.911 71.7221 167.85 72.4272 167.696 73.1016C167.666 73.2242 167.635 73.3468 167.604 73.4695C167.175 74.9103 166.317 76.2592 165.029 77.3015L164.171 77.9759C163.282 78.7117 162.27 79.2022 161.228 79.4781C160.094 79.7846 158.929 79.8153 157.856 79.57C156.936 79.3861 156.047 78.9876 155.281 78.4051C154.913 78.1292 154.545 77.792 154.238 77.3935L141.547 61.7588C141.485 61.6975 141.424 61.6055 141.393 61.5442C141.332 61.4523 141.24 61.3296 141.179 61.2377C141.148 61.1764 141.118 61.1457 141.087 61.0844C141.056 61.0231 141.026 60.9618 140.995 60.9005L140.964 60.8698C140.934 60.8085 140.903 60.7472 140.842 60.6552C140.78 60.5632 140.75 60.4713 140.719 60.3793C140.688 60.3486 140.688 60.318 140.688 60.2873C140.658 60.226 140.627 60.1647 140.627 60.1034C140.596 60.0114 140.566 59.8888 140.535 59.7968C140.535 59.7662 140.504 59.7355 140.504 59.7355C140.474 59.6742 140.474 59.5822 140.443 59.5209C140.412 59.429 140.412 59.3676 140.382 59.2757C140.382 59.2144 140.351 59.1531 140.351 59.0917C140.32 58.9998 140.32 58.9078 140.29 58.8158C140.259 58.5706 140.229 58.356 140.229 58.1107C140.229 58.0188 140.229 57.9575 140.229 57.8655C140.229 57.7429 140.229 57.6509 140.229 57.5283C140.229 57.4363 140.229 57.3443 140.259 57.2524C140.29 57.0071 140.32 56.7619 140.382 56.486C140.412 56.394 140.412 56.302 140.443 56.2101C140.474 56.1181 140.474 56.0261 140.504 55.9648C140.535 55.8422 140.566 55.7196 140.627 55.5969C140.658 55.505 140.719 55.3824 140.75 55.2904C140.78 55.1984 140.811 55.1371 140.842 55.0451C140.872 54.9838 140.903 54.9532 140.903 54.8919C140.934 54.8305 140.964 54.7386 140.995 54.6773C141.026 54.5853 141.087 54.4933 141.148 54.4014C141.21 54.3094 141.24 54.2174 141.301 54.1561C141.332 54.0948 141.363 54.0641 141.393 54.0028C141.424 53.9415 141.485 53.8802 141.516 53.8189C141.516 53.7882 141.547 53.7882 141.547 53.7576C141.608 53.6656 141.669 53.6043 141.731 53.5123C141.884 53.3284 142.037 53.1445 142.191 52.9912C142.221 52.9299 142.282 52.8992 142.344 52.8379C142.405 52.7766 142.436 52.7459 142.497 52.6846C142.65 52.5313 142.834 52.3781 142.988 52.2248L144.183 51.2438C145.164 50.4467 146.298 49.9256 147.433 49.6803C147.709 49.619 147.985 49.5883 148.23 49.5577C149.057 49.4964 149.885 49.5577 150.652 49.7723C151.295 49.9562 151.909 50.2015 152.46 50.5693C152.706 50.7226 152.92 50.8759 153.104 51.0598C153.38 51.3051 153.595 51.5503 153.809 51.7956Z" fill="#FBDBCD"/>
<path d="M167.604 73.4405C167.175 74.8813 166.317 76.2302 165.029 77.2725L164.171 77.9469C161.013 80.4914 156.568 80.2461 154.238 77.3645L141.547 61.7298C141.393 61.5459 141.271 61.3926 141.179 61.2087C141.148 61.1474 141.118 61.1167 141.087 61.0554C141.056 60.9941 141.026 60.9328 140.995 60.8715L140.964 60.8408C140.934 60.7795 140.903 60.7182 140.842 60.6262C140.811 60.5342 140.75 60.4423 140.719 60.3503C140.719 60.3197 140.688 60.289 140.688 60.2583C140.658 60.197 140.627 60.1357 140.627 60.0744C140.596 59.9824 140.566 59.8598 140.535 59.7678C140.535 59.7372 140.504 59.7065 140.504 59.7065C140.474 59.6452 140.474 59.5533 140.443 59.4919C140.412 59.4 140.412 59.3387 140.382 59.2467C140.382 59.1854 140.351 59.1241 140.351 59.0628C140.29 58.7255 140.259 58.419 140.229 58.0818C140.229 57.9898 140.229 57.9285 140.229 57.8365C140.229 57.7139 140.229 57.6219 140.229 57.4993C140.229 57.4073 140.229 57.3154 140.259 57.2234C140.29 56.9781 140.32 56.7329 140.382 56.457C140.412 56.365 140.412 56.273 140.443 56.1811C140.474 56.0891 140.474 55.9971 140.504 55.9358C140.535 55.8132 140.566 55.6906 140.627 55.5373C140.658 55.4453 140.688 55.3227 140.75 55.2307C140.78 55.1388 140.811 55.0775 140.842 54.9855C140.872 54.9242 140.903 54.8935 140.903 54.8322C140.934 54.7709 140.964 54.6789 140.995 54.6176C141.026 54.5257 141.087 54.4337 141.148 54.3417C141.21 54.2497 141.24 54.1578 141.301 54.0965C141.332 54.0352 141.363 54.0045 141.393 53.9432C141.424 53.8819 141.485 53.8206 141.516 53.7592C141.516 53.7286 141.547 53.7286 141.547 53.6979C141.608 53.606 141.669 53.5447 141.731 53.4527C141.884 53.2688 142.037 53.0848 142.191 52.9009C142.221 52.8396 142.282 52.8089 142.313 52.7476C142.374 52.6863 142.405 52.6556 142.466 52.5943C142.62 52.441 142.804 52.2878 142.988 52.1345L143.447 51.7666C143.509 53.9738 143.815 56.0891 144.919 58.0818C145.777 59.6452 147.034 60.9021 148.107 62.343C149.579 64.2743 155.526 72.4288 157.335 73.9616C157.917 74.4521 158.53 74.8813 159.235 75.1879C159.848 75.4638 160.523 75.6171 161.228 75.709C162.669 75.8623 164.171 75.5864 165.52 74.912C166.317 74.5748 166.991 74.0536 167.604 73.4405Z" fill="#EAA292"/>
<path d="M150.682 49.7723L141.424 61.5136C141.363 61.4216 141.271 61.299 141.21 61.207C141.179 61.1457 141.148 61.115 141.118 61.0537C141.087 60.9924 141.056 60.9311 141.026 60.8698L140.995 60.8391C140.964 60.7778 140.934 60.7165 140.872 60.6245C140.811 60.5326 140.78 60.4406 140.75 60.3486C140.719 60.318 140.719 60.2873 140.719 60.2567C140.688 60.1954 140.658 60.1341 140.658 60.0727C140.627 59.9808 140.596 59.8581 140.566 59.7662C140.566 59.7355 140.535 59.7049 140.535 59.7049C140.504 59.6436 140.504 59.5516 140.474 59.4903C140.443 59.3983 140.443 59.337 140.413 59.245C140.413 59.1837 140.382 59.1224 140.382 59.0611C140.351 58.9691 140.351 58.8771 140.321 58.7852L147.463 49.6803C147.739 49.619 148.015 49.5883 148.26 49.5577C149.088 49.4964 149.885 49.5577 150.682 49.7723Z" fill="#D7342B"/>
<path d="M153.809 51.7969L154.852 53.0844L144.858 65.7761L143.172 63.7221L153.104 51.0918C153.38 51.3064 153.595 51.5516 153.809 51.7969Z" fill="#D7342B"/>
<path d="M156.63 55.2598L158.285 57.3444L148.291 70.036L146.636 67.9514L156.63 55.2598Z" fill="#D7342B"/>
<path d="M160.063 59.5215L161.749 61.5754L151.755 74.2671L150.069 72.2131L160.063 59.5215Z" fill="#D7342B"/>
<path d="M163.527 63.751L165.213 65.8049L155.311 78.3739C154.943 78.098 154.575 77.7608 154.269 77.3623L153.533 76.4426L163.527 63.751Z" fill="#D7342B"/>
<path d="M166.93 68.0439C167.083 68.2892 167.206 68.5344 167.328 68.8103C167.635 69.5154 167.819 70.2818 167.88 71.0482L161.228 79.4787C160.093 79.7852 158.928 79.8159 157.855 79.5706L166.93 68.0439Z" fill="#D7342B"/>
<path d="M143.294 48.1485C143.509 46.7383 143.172 44.9296 142.344 43.7647C142.191 43.5501 141.915 43.7647 142.007 43.9793C142.252 44.715 142.589 45.3588 142.742 46.1252C142.896 46.7996 142.926 47.4741 142.988 48.1792C142.988 48.3631 143.264 48.3324 143.294 48.1485Z" fill="white"/>
<path d="M141.301 48.9461C141.087 48.5782 140.872 48.2103 140.657 47.8118C140.473 47.5053 140.351 47.1987 140.075 46.9534C139.983 46.8921 139.86 46.9841 139.891 47.0761C139.952 47.4133 140.198 47.7198 140.382 48.0264C140.596 48.3636 140.811 48.7315 141.025 49.0687C141.117 49.2527 141.393 49.13 141.301 48.9461Z" fill="white"/>
<path d="M137.531 48.7004C137.715 48.8843 137.929 49.0683 138.175 49.1909C138.359 49.3135 138.573 49.4361 138.788 49.3135C138.818 49.2829 138.849 49.2216 138.849 49.1909C138.788 48.9763 138.604 48.915 138.42 48.823C138.205 48.7004 137.991 48.5778 137.807 48.3938C137.623 48.2712 137.347 48.5471 137.531 48.7004Z" fill="white"/>
<path d="M166.256 77.7622C166.623 78.0074 167.022 78.2527 167.421 78.4672C167.727 78.6205 168.064 78.8964 168.402 78.8045C168.493 78.7738 168.555 78.6818 168.524 78.5899C168.371 78.2527 167.972 78.13 167.666 77.9767C167.298 77.7622 166.93 77.5476 166.562 77.3023C166.286 77.1797 166.01 77.5782 166.256 77.7622Z" fill="white"/>
<path d="M165.918 79.2024C166.071 79.3557 166.224 79.5396 166.408 79.6316C166.592 79.7542 166.838 79.5396 166.684 79.3251C166.562 79.1411 166.347 78.9878 166.163 78.8346C166.071 78.7426 165.918 78.8039 165.857 78.8959C165.795 79.0185 165.826 79.1411 165.918 79.2024Z" fill="white"/>
<path d="M165.642 80.7969C165.52 80.6743 165.397 80.5517 165.244 80.429C165.152 80.3677 165.029 80.4597 165.09 80.5517C165.182 80.7049 165.274 80.8582 165.366 81.0115C165.489 81.1954 165.796 80.9502 165.642 80.7969Z" fill="white"/>
<path d="M146.329 52.1643C149.885 51.7965 152.46 54.6475 154.576 57.0693C154.913 57.4372 155.557 57.0693 155.342 56.6095C154.576 54.8314 152.675 53.3293 151.019 52.4096C149.517 51.5512 147.923 51.1834 146.237 51.5512C145.808 51.5819 145.9 52.195 146.329 52.1643Z" fill="white"/>
<path d="M156.047 58.4801C156.108 58.8173 156.353 59.1238 156.537 59.3998C156.752 59.737 157.028 60.0435 157.273 60.3501C157.426 60.534 157.672 60.5647 157.886 60.5034C157.978 60.4727 158.039 60.4114 158.101 60.3194C158.223 60.1048 158.254 59.8596 158.07 59.6757C157.641 59.1545 157.12 58.3574 156.476 58.1122C156.261 58.0509 156.016 58.2655 156.047 58.4801Z" fill="white"/>
<path d="M159.327 62.68C159.389 62.772 159.481 62.864 159.542 62.9866C159.695 63.1705 159.849 63.2318 160.063 63.2012C160.216 63.2012 160.37 63.0479 160.4 62.9253C160.462 62.7107 160.431 62.5267 160.308 62.3428C160.247 62.2508 160.155 62.1589 160.063 62.0669C159.91 61.883 159.573 61.8217 159.389 62.0056C159.205 62.1895 159.174 62.4654 159.327 62.68Z" fill="white"/>
</g>
<g clip-path="url(#clip3_6050_129745)">
<path d="M235.789 79.5713C235.605 80.5523 234.011 81.1348 232.601 81.2881C232.019 81.3494 231.62 81.9625 231.743 82.5143C231.957 83.3114 231.681 84.2311 230.578 84.8135C229.903 85.1507 229.321 85.1814 228.769 84.9668C228.187 84.7522 227.543 85.1814 227.451 85.7945C227.389 86.2544 227.267 86.7142 227.052 87.1434C226.562 88.1244 225.581 88.7988 224.508 88.9828C222.76 89.2893 222.117 85.6412 222.27 82.545C222.362 80.7669 222.209 77.3947 223.987 76.4751C224.048 76.4444 224.109 76.4138 224.171 76.3831C225.642 75.8313 228.278 76.3218 230.486 76.5364C231.007 76.5977 231.559 76.659 232.08 76.7816C234.164 77.2721 236.004 78.3451 235.789 79.5713Z" fill="#F64A3C"/>
<path d="M235.789 79.5709C235.605 80.5519 234.011 81.1343 232.601 81.2876C232.019 81.3489 231.62 81.9621 231.743 82.5139C231.957 83.3109 231.681 84.2306 230.578 84.8131C229.903 85.1503 229.321 85.1809 228.769 84.9664C228.187 84.7518 227.543 85.1809 227.451 85.7941C227.389 86.2539 227.267 86.7138 227.052 87.1429C226.562 88.1239 225.581 88.7984 224.508 88.9823C222.76 89.2889 222.117 85.6408 222.27 82.5445C222.362 80.7665 222.209 77.3943 223.987 76.4746C224.477 78.13 224.355 80.2453 224.508 81.9314C224.538 82.4219 224.661 83.0044 225.09 83.219C225.949 83.6175 226.746 82.3606 226.96 81.3796C227.88 81.9007 229.137 80.9811 229.689 80.0001C230.271 79.0191 230.578 77.8541 231.467 77.1184C231.651 76.9651 231.835 76.8425 232.049 76.7505C234.164 77.2717 236.004 78.3446 235.789 79.5709Z" fill="#D7342B"/>
<path d="M205.226 46.7998C205.226 46.9837 205.226 47.1676 205.195 47.3822C205.134 49.3136 205.103 52.2872 203.325 52.9617C201.853 53.5441 199.217 53.023 197.01 52.8084C194.373 52.5631 191.4 51.3369 191.706 49.7734C191.829 49.1296 192.534 48.6698 193.423 48.3632C193.883 48.21 194.404 48.0873 194.894 48.026C195.477 47.9647 196.151 47.1676 195.998 46.6158C195.783 45.8188 196.059 44.8991 197.163 44.3166C197.837 43.9794 198.42 43.9794 198.972 44.1633C199.554 44.3779 200.198 43.9794 200.29 43.3356C200.351 42.8758 200.229 42.6305 200.413 42.2014C200.903 41.2204 201.884 40.5459 202.957 40.362C204.735 40.0554 205.379 43.6728 205.226 46.7998Z" fill="#F64A3C"/>
<path d="M205.195 47.3818C205.133 49.3132 205.103 52.2868 203.325 52.9613C201.853 53.5437 199.217 53.0226 197.009 52.808C194.373 52.5627 191.399 51.3365 191.706 49.773C191.829 49.1292 192.534 48.6694 193.423 48.3628C194.557 49.5278 196.427 49.9263 198.205 50.0489C199.585 50.1715 201.025 50.2635 202.344 49.7424C203.539 49.3132 204.49 48.4241 205.195 47.3818Z" fill="#D7342B"/>
<path d="M213.809 51.7956L226.501 67.4302C226.654 67.6141 226.807 67.8287 226.93 68.0433C227.083 68.2886 227.206 68.5338 227.329 68.8097C227.635 69.5148 227.819 70.2812 227.88 71.0476C227.911 71.7221 227.85 72.4272 227.696 73.1016C227.666 73.2242 227.635 73.3468 227.604 73.4695C227.175 74.9103 226.317 76.2592 225.029 77.3015L224.171 77.9759C223.282 78.7117 222.27 79.2022 221.228 79.4781C220.094 79.7846 218.929 79.8153 217.856 79.57C216.936 79.3861 216.047 78.9876 215.281 78.4051C214.913 78.1292 214.545 77.792 214.238 77.3935L201.547 61.7588C201.485 61.6975 201.424 61.6055 201.393 61.5442C201.332 61.4523 201.24 61.3296 201.179 61.2377C201.148 61.1764 201.118 61.1457 201.087 61.0844C201.056 61.0231 201.026 60.9618 200.995 60.9005L200.964 60.8698C200.934 60.8085 200.903 60.7472 200.842 60.6552C200.78 60.5632 200.75 60.4713 200.719 60.3793C200.688 60.3486 200.688 60.318 200.688 60.2873C200.658 60.226 200.627 60.1647 200.627 60.1034C200.596 60.0114 200.566 59.8888 200.535 59.7968C200.535 59.7662 200.504 59.7355 200.504 59.7355C200.474 59.6742 200.474 59.5822 200.443 59.5209C200.412 59.429 200.412 59.3676 200.382 59.2757C200.382 59.2144 200.351 59.1531 200.351 59.0917C200.32 58.9998 200.32 58.9078 200.29 58.8158C200.259 58.5706 200.229 58.356 200.229 58.1107C200.229 58.0188 200.229 57.9575 200.229 57.8655C200.229 57.7429 200.229 57.6509 200.229 57.5283C200.229 57.4363 200.229 57.3443 200.259 57.2524C200.29 57.0071 200.32 56.7619 200.382 56.486C200.412 56.394 200.412 56.302 200.443 56.2101C200.474 56.1181 200.474 56.0261 200.504 55.9648C200.535 55.8422 200.566 55.7196 200.627 55.5969C200.658 55.505 200.719 55.3824 200.75 55.2904C200.78 55.1984 200.811 55.1371 200.842 55.0451C200.872 54.9838 200.903 54.9532 200.903 54.8919C200.934 54.8305 200.964 54.7386 200.995 54.6773C201.026 54.5853 201.087 54.4933 201.148 54.4014C201.21 54.3094 201.24 54.2174 201.301 54.1561C201.332 54.0948 201.363 54.0641 201.393 54.0028C201.424 53.9415 201.485 53.8802 201.516 53.8189C201.516 53.7882 201.547 53.7882 201.547 53.7576C201.608 53.6656 201.669 53.6043 201.731 53.5123C201.884 53.3284 202.037 53.1445 202.191 52.9912C202.221 52.9299 202.282 52.8992 202.344 52.8379C202.405 52.7766 202.436 52.7459 202.497 52.6846C202.65 52.5313 202.834 52.3781 202.988 52.2248L204.183 51.2438C205.164 50.4467 206.298 49.9256 207.433 49.6803C207.709 49.619 207.985 49.5883 208.23 49.5577C209.057 49.4964 209.885 49.5577 210.652 49.7723C211.295 49.9562 211.909 50.2015 212.46 50.5693C212.706 50.7226 212.92 50.8759 213.104 51.0598C213.38 51.3051 213.595 51.5503 213.809 51.7956Z" fill="#FBDBCD"/>
<path d="M227.604 73.4405C227.175 74.8813 226.317 76.2302 225.029 77.2725L224.171 77.9469C221.013 80.4914 216.568 80.2461 214.238 77.3645L201.547 61.7298C201.393 61.5459 201.271 61.3926 201.179 61.2087C201.148 61.1474 201.118 61.1167 201.087 61.0554C201.056 60.9941 201.026 60.9328 200.995 60.8715L200.964 60.8408C200.934 60.7795 200.903 60.7182 200.842 60.6262C200.811 60.5342 200.75 60.4423 200.719 60.3503C200.719 60.3197 200.688 60.289 200.688 60.2583C200.658 60.197 200.627 60.1357 200.627 60.0744C200.596 59.9824 200.566 59.8598 200.535 59.7678C200.535 59.7372 200.504 59.7065 200.504 59.7065C200.474 59.6452 200.474 59.5533 200.443 59.4919C200.412 59.4 200.412 59.3387 200.382 59.2467C200.382 59.1854 200.351 59.1241 200.351 59.0628C200.29 58.7255 200.259 58.419 200.229 58.0818C200.229 57.9898 200.229 57.9285 200.229 57.8365C200.229 57.7139 200.229 57.6219 200.229 57.4993C200.229 57.4073 200.229 57.3154 200.259 57.2234C200.29 56.9781 200.32 56.7329 200.382 56.457C200.412 56.365 200.412 56.273 200.443 56.1811C200.474 56.0891 200.474 55.9971 200.504 55.9358C200.535 55.8132 200.566 55.6906 200.627 55.5373C200.658 55.4453 200.688 55.3227 200.75 55.2307C200.78 55.1388 200.811 55.0775 200.842 54.9855C200.872 54.9242 200.903 54.8935 200.903 54.8322C200.934 54.7709 200.964 54.6789 200.995 54.6176C201.026 54.5257 201.087 54.4337 201.148 54.3417C201.21 54.2497 201.24 54.1578 201.301 54.0965C201.332 54.0352 201.363 54.0045 201.393 53.9432C201.424 53.8819 201.485 53.8206 201.516 53.7592C201.516 53.7286 201.547 53.7286 201.547 53.6979C201.608 53.606 201.669 53.5447 201.731 53.4527C201.884 53.2688 202.037 53.0848 202.191 52.9009C202.221 52.8396 202.282 52.8089 202.313 52.7476C202.374 52.6863 202.405 52.6556 202.466 52.5943C202.62 52.441 202.804 52.2878 202.988 52.1345L203.447 51.7666C203.509 53.9738 203.815 56.0891 204.919 58.0818C205.777 59.6452 207.034 60.9021 208.107 62.343C209.579 64.2743 215.526 72.4288 217.335 73.9616C217.917 74.4521 218.53 74.8813 219.235 75.1879C219.848 75.4638 220.523 75.6171 221.228 75.709C222.669 75.8623 224.171 75.5864 225.52 74.912C226.317 74.5748 226.991 74.0536 227.604 73.4405Z" fill="#EAA292"/>
<path d="M210.682 49.7723L201.424 61.5136C201.363 61.4216 201.271 61.299 201.21 61.207C201.179 61.1457 201.148 61.115 201.118 61.0537C201.087 60.9924 201.056 60.9311 201.026 60.8698L200.995 60.8391C200.964 60.7778 200.934 60.7165 200.872 60.6245C200.811 60.5326 200.78 60.4406 200.75 60.3486C200.719 60.318 200.719 60.2873 200.719 60.2567C200.688 60.1954 200.658 60.1341 200.658 60.0727C200.627 59.9808 200.596 59.8581 200.566 59.7662C200.566 59.7355 200.535 59.7049 200.535 59.7049C200.504 59.6436 200.504 59.5516 200.474 59.4903C200.443 59.3983 200.443 59.337 200.413 59.245C200.413 59.1837 200.382 59.1224 200.382 59.0611C200.351 58.9691 200.351 58.8771 200.321 58.7852L207.463 49.6803C207.739 49.619 208.015 49.5883 208.26 49.5577C209.088 49.4964 209.885 49.5577 210.682 49.7723Z" fill="#D7342B"/>
<path d="M213.809 51.7969L214.852 53.0844L204.858 65.7761L203.172 63.7221L213.104 51.0918C213.38 51.3064 213.595 51.5516 213.809 51.7969Z" fill="#D7342B"/>
<path d="M216.63 55.2598L218.285 57.3444L208.291 70.036L206.636 67.9514L216.63 55.2598Z" fill="#D7342B"/>
<path d="M220.063 59.5215L221.749 61.5754L211.755 74.2671L210.069 72.2131L220.063 59.5215Z" fill="#D7342B"/>
<path d="M223.527 63.751L225.213 65.8049L215.311 78.3739C214.943 78.098 214.575 77.7608 214.269 77.3623L213.533 76.4426L223.527 63.751Z" fill="#D7342B"/>
<path d="M226.93 68.0439C227.083 68.2892 227.206 68.5344 227.328 68.8103C227.635 69.5154 227.819 70.2818 227.88 71.0482L221.228 79.4787C220.093 79.7852 218.928 79.8159 217.855 79.5706L226.93 68.0439Z" fill="#D7342B"/>
<path d="M203.294 48.1485C203.509 46.7383 203.172 44.9296 202.344 43.7647C202.191 43.5501 201.915 43.7647 202.007 43.9793C202.252 44.715 202.589 45.3588 202.742 46.1252C202.896 46.7996 202.926 47.4741 202.988 48.1792C202.988 48.3631 203.264 48.3324 203.294 48.1485Z" fill="white"/>
<path d="M201.301 48.9461C201.087 48.5782 200.872 48.2103 200.657 47.8118C200.473 47.5053 200.351 47.1987 200.075 46.9534C199.983 46.8921 199.86 46.9841 199.891 47.0761C199.952 47.4133 200.198 47.7198 200.382 48.0264C200.596 48.3636 200.811 48.7315 201.025 49.0687C201.117 49.2527 201.393 49.13 201.301 48.9461Z" fill="white"/>
<path d="M197.531 48.7004C197.715 48.8843 197.929 49.0683 198.175 49.1909C198.359 49.3135 198.573 49.4361 198.788 49.3135C198.818 49.2829 198.849 49.2216 198.849 49.1909C198.788 48.9763 198.604 48.915 198.42 48.823C198.205 48.7004 197.991 48.5778 197.807 48.3938C197.623 48.2712 197.347 48.5471 197.531 48.7004Z" fill="white"/>
<path d="M226.256 77.7622C226.623 78.0074 227.022 78.2527 227.421 78.4672C227.727 78.6205 228.064 78.8964 228.402 78.8045C228.493 78.7738 228.555 78.6818 228.524 78.5899C228.371 78.2527 227.972 78.13 227.666 77.9767C227.298 77.7622 226.93 77.5476 226.562 77.3023C226.286 77.1797 226.01 77.5782 226.256 77.7622Z" fill="white"/>
<path d="M225.918 79.2024C226.071 79.3557 226.224 79.5396 226.408 79.6316C226.592 79.7542 226.838 79.5396 226.684 79.3251C226.562 79.1411 226.347 78.9878 226.163 78.8346C226.071 78.7426 225.918 78.8039 225.857 78.8959C225.795 79.0185 225.826 79.1411 225.918 79.2024Z" fill="white"/>
<path d="M225.642 80.7969C225.52 80.6743 225.397 80.5517 225.244 80.429C225.152 80.3677 225.029 80.4597 225.09 80.5517C225.182 80.7049 225.274 80.8582 225.366 81.0115C225.489 81.1954 225.796 80.9502 225.642 80.7969Z" fill="white"/>
<path d="M206.329 52.1643C209.885 51.7965 212.46 54.6475 214.576 57.0693C214.913 57.4372 215.557 57.0693 215.342 56.6095C214.576 54.8314 212.675 53.3293 211.019 52.4096C209.517 51.5512 207.923 51.1834 206.237 51.5512C205.808 51.5819 205.9 52.195 206.329 52.1643Z" fill="white"/>
<path d="M216.047 58.4801C216.108 58.8173 216.353 59.1238 216.537 59.3998C216.752 59.737 217.028 60.0435 217.273 60.3501C217.426 60.534 217.672 60.5647 217.886 60.5034C217.978 60.4727 218.039 60.4114 218.101 60.3194C218.223 60.1048 218.254 59.8596 218.07 59.6757C217.641 59.1545 217.12 58.3574 216.476 58.1122C216.261 58.0509 216.016 58.2655 216.047 58.4801Z" fill="white"/>
<path d="M219.327 62.68C219.389 62.772 219.481 62.864 219.542 62.9866C219.695 63.1705 219.849 63.2318 220.063 63.2012C220.216 63.2012 220.37 63.0479 220.4 62.9253C220.462 62.7107 220.431 62.5267 220.308 62.3428C220.247 62.2508 220.155 62.1589 220.063 62.0669C219.91 61.883 219.573 61.8217 219.389 62.0056C219.205 62.1895 219.174 62.4654 219.327 62.68Z" fill="white"/>
</g>
<defs>
<clipPath id="clip0_6050_129745">
<rect width="50" height="50" fill="white" transform="translate(10 39)"/>
</clipPath>
<clipPath id="clip1_6050_129745">
<rect width="50" height="50" fill="white" transform="translate(70 39)"/>
</clipPath>
<clipPath id="clip2_6050_129745">
<rect width="50" height="50" fill="white" transform="translate(130 39)"/>
</clipPath>
<clipPath id="clip3_6050_129745">
<rect width="50" height="50" fill="white" transform="translate(190 39)"/>
</clipPath>
</defs>
</svg>
