<svg width="182" height="36" viewBox="0 0 182 36" fill="none" xmlns="http://www.w3.org/2000/svg">
<g clip-path="url(#clip0_5192_92393)">
<path d="M16.3355 17.8225C16.984 17.7814 17.541 18.0339 17.592 18.4758L18.5412 29.0417C18.5731 29.4331 18.0578 29.8278 17.4093 29.8688L3.29411 31.1901C2.64559 31.2311 2.08857 30.9786 2.03755 30.5367L1.08845 19.9709C1.05646 19.5794 1.57178 19.1848 2.22029 19.1437L16.3355 17.8225Z" fill="#6BDC8B"/>
<path d="M169.302 4.38396L170.221 15.9038L26.215 28.5988L25.2956 17.0789L169.302 4.38396Z" fill="#2CAE58"/>
<path d="M169.276 4.16413L179.702 9.30918L170.349 16.2107L169.276 4.16413Z" fill="#E4C494"/>
<path d="M169.509 6.92926L170.017 13.3301L26.0219 26.0449L25.5139 19.6441L169.509 6.92926Z" fill="#6BDC8B"/>
<path d="M175.621 7.2903L179.701 9.30687L176.039 12.0031L175.621 7.2903Z" fill="#040607"/>
<path d="M25.7155 16.9272L26.7783 28.9526L13.4228 30.1176L12.36 18.0922L25.7155 16.9272Z" fill="#FFD963"/>
<path d="M24.5158 29.153L23.442 17.1075L24.5158 29.153Z" stroke="#F59120" stroke-width="5" stroke-miterlimit="10"/>
<path d="M22.4513 29.3444L21.3776 17.299L22.4513 29.3444Z" stroke="#F59120" stroke-width="5" stroke-miterlimit="10"/>
</g>
<defs>
<clipPath id="clip0_5192_92393">
<rect width="20" height="180" fill="white" transform="matrix(0.0869971 0.996209 0.996209 -0.0869971 0 15.6592)"/>
</clipPath>
</defs>
</svg>
