<svg width="200" height="48" viewBox="0 0 200 48" fill="none" xmlns="http://www.w3.org/2000/svg">
<g clip-path="url(#clip0_5018_133967)">
<path d="M10.1924 17.8954C10.8387 17.9716 11.4092 17.7497 11.4838 17.311L12.9955 6.80988C13.0483 6.42066 12.554 5.99854 11.9077 5.92232L3.06695 4.6514C2.42063 4.57517 1.85016 4.79713 1.77562 5.23576L0.263912 15.7369C0.211081 16.1261 0.70538 16.5483 1.3517 16.6245L10.1924 17.8954Z" fill="#E78668"/>
<path d="M187.488 42.827L189.014 31.4238L20.6568 7.34994L19.1314 18.7531L187.488 42.827Z" fill="#B34637"/>
<path d="M187.453 43.0456L198.153 38.4727L189.168 31.072L187.453 43.0456Z" fill="#E4C494"/>
<path d="M187.832 40.2964L188.673 33.9824L20.3166 9.88465L19.475 16.1986L187.832 40.2964Z" fill="#E78668"/>
<path d="M193.965 40.2647L198.153 38.4716L194.635 35.58L193.965 40.2647Z" fill="#040607"/>
<path d="M18.8105 19.0807L20.5132 7.13086L9.22082 5.52672L7.51814 17.4765L18.8105 19.0807Z" fill="#FFD963"/>
<path d="M18.259 6.80512L16.544 18.7761L18.259 6.80512Z" stroke="#F59120" stroke-width="5" stroke-miterlimit="10"/>
<path d="M16.2048 6.50289L14.4899 18.4738L16.2048 6.50289Z" stroke="#F59120" stroke-width="5" stroke-miterlimit="10"/>
</g>
<defs>
<clipPath id="clip0_5018_133967">
<rect width="20" height="199" fill="white" transform="translate(0 19.8018) rotate(-81.9297)"/>
</clipPath>
</defs>
</svg>
