<svg width="270" height="58" viewBox="0 0 270 58" fill="none" xmlns="http://www.w3.org/2000/svg">
<g clip-path="url(#clip0_5018_133755)">
<path d="M397.25 57.7388V0.73877L0.25 0.73877V57.7388L397.25 57.7388Z" fill="#FECC7B"/>
<path d="M15.1323 17.7388V24.7388H13.5123V19.0388H12.1123V17.7388H15.1323Z" fill="black"/>
<path d="M42.6705 23.4196V24.7396H37.3805V23.6896L40.0805 21.1396C40.3672 20.8663 40.5605 20.633 40.6605 20.4396C40.7605 20.2396 40.8105 20.043 40.8105 19.8496C40.8105 19.5696 40.7139 19.3563 40.5205 19.2096C40.3339 19.0563 40.0572 18.9796 39.6905 18.9796C39.3839 18.9796 39.1072 19.0396 38.8605 19.1596C38.6139 19.273 38.4072 19.4463 38.2405 19.6796L37.0605 18.9196C37.3339 18.513 37.7105 18.1963 38.1905 17.9696C38.6705 17.7363 39.2205 17.6196 39.8405 17.6196C40.3605 17.6196 40.8139 17.7063 41.2005 17.8796C41.5939 18.0463 41.8972 18.2863 42.1105 18.5996C42.3305 18.9063 42.4405 19.2696 42.4405 19.6896C42.4405 20.0696 42.3605 20.4263 42.2005 20.7596C42.0405 21.093 41.7305 21.473 41.2705 21.8996L39.6605 23.4196H42.6705Z" fill="black"/>
<path d="M67.7013 20.5888C68.3146 20.6888 68.7846 20.9188 69.1113 21.2788C69.4379 21.6321 69.6013 22.0721 69.6013 22.5988C69.6013 23.0054 69.4946 23.3821 69.2813 23.7288C69.0679 24.0688 68.7413 24.3421 68.3013 24.5488C67.8679 24.7554 67.3346 24.8588 66.7013 24.8588C66.2079 24.8588 65.7213 24.7954 65.2413 24.6688C64.7679 24.5354 64.3646 24.3488 64.0312 24.1088L64.6612 22.8688C64.9279 23.0688 65.2346 23.2254 65.5813 23.3388C65.9346 23.4454 66.2946 23.4988 66.6613 23.4988C67.0679 23.4988 67.3879 23.4221 67.6213 23.2688C67.8546 23.1088 67.9713 22.8854 67.9713 22.5988C67.9713 22.0254 67.5346 21.7388 66.6613 21.7388H65.9213V20.6688L67.3613 19.0388H64.3813V17.7388H69.2813V18.7888L67.7013 20.5888Z" fill="black"/>
<path d="M96.8533 23.2688H95.7133V24.7388H94.1333V23.2688H90.3633V22.1788L93.6633 17.7388H95.3633L92.3033 21.9488H94.1833V20.6388H95.7133V21.9488H96.8533V23.2688Z" fill="black"/>
<path d="M118.817 20.3688C119.804 20.3688 120.53 20.5654 120.997 20.9588C121.47 21.3521 121.707 21.8788 121.707 22.5388C121.707 22.9654 121.6 23.3554 121.387 23.7088C121.174 24.0554 120.847 24.3354 120.407 24.5488C119.974 24.7554 119.437 24.8588 118.797 24.8588C118.304 24.8588 117.817 24.7954 117.337 24.6688C116.864 24.5354 116.46 24.3488 116.127 24.1088L116.767 22.8688C117.034 23.0688 117.34 23.2254 117.687 23.3388C118.034 23.4454 118.39 23.4988 118.757 23.4988C119.164 23.4988 119.484 23.4188 119.717 23.2588C119.95 23.0988 120.067 22.8754 120.067 22.5888C120.067 22.2888 119.944 22.0621 119.697 21.9088C119.457 21.7554 119.037 21.6788 118.437 21.6788H116.647L117.007 17.7388H121.277V19.0388H118.357L118.247 20.3688H118.817Z" fill="black"/>
<path d="M147.076 20.3496C147.523 20.3496 147.929 20.4396 148.296 20.6196C148.663 20.7996 148.953 21.0563 149.166 21.3896C149.379 21.7163 149.486 22.0963 149.486 22.5296C149.486 22.9963 149.369 23.4063 149.136 23.7596C148.903 24.113 148.583 24.3863 148.176 24.5796C147.776 24.7663 147.329 24.8596 146.836 24.8596C145.856 24.8596 145.089 24.5596 144.536 23.9596C143.983 23.3596 143.706 22.503 143.706 21.3896C143.706 20.5963 143.856 19.9163 144.156 19.3496C144.456 18.783 144.873 18.353 145.406 18.0596C145.946 17.7663 146.569 17.6196 147.276 17.6196C147.649 17.6196 148.006 17.663 148.346 17.7496C148.693 17.8296 148.986 17.9463 149.226 18.0996L148.626 19.2896C148.279 19.0563 147.843 18.9396 147.316 18.9396C146.723 18.9396 146.253 19.113 145.906 19.4596C145.559 19.8063 145.373 20.3096 145.346 20.9696C145.759 20.5563 146.336 20.3496 147.076 20.3496ZM146.746 23.6496C147.093 23.6496 147.373 23.5563 147.586 23.3696C147.806 23.183 147.916 22.9296 147.916 22.6096C147.916 22.2896 147.806 22.0363 147.586 21.8496C147.373 21.6563 147.086 21.5596 146.726 21.5596C146.373 21.5596 146.083 21.6596 145.856 21.8596C145.629 22.053 145.516 22.303 145.516 22.6096C145.516 22.9163 145.626 23.1663 145.846 23.3596C146.066 23.553 146.366 23.6496 146.746 23.6496Z" fill="black"/>
<path d="M175.269 17.7388V18.7888L172.669 24.7388H170.909L173.419 19.0588H171.099V20.1988H169.659V17.7388H175.269Z" fill="black"/>
<path d="M200.379 21.0596C200.725 21.233 200.989 21.4596 201.169 21.7396C201.355 22.0196 201.449 22.343 201.449 22.7096C201.449 23.143 201.325 23.523 201.079 23.8496C200.832 24.1696 200.485 24.4196 200.039 24.5996C199.592 24.773 199.075 24.8596 198.489 24.8596C197.902 24.8596 197.385 24.773 196.939 24.5996C196.499 24.4196 196.155 24.1696 195.909 23.8496C195.669 23.523 195.549 23.143 195.549 22.7096C195.549 22.343 195.639 22.0196 195.819 21.7396C196.005 21.4596 196.269 21.233 196.609 21.0596C196.349 20.8996 196.149 20.6996 196.009 20.4596C195.869 20.213 195.799 19.933 195.799 19.6196C195.799 19.213 195.912 18.8596 196.139 18.5596C196.365 18.2596 196.682 18.0296 197.089 17.8696C197.495 17.703 197.962 17.6196 198.489 17.6196C199.022 17.6196 199.492 17.703 199.899 17.8696C200.312 18.0296 200.632 18.2596 200.859 18.5596C201.085 18.8596 201.199 19.213 201.199 19.6196C201.199 19.933 201.129 20.213 200.989 20.4596C200.849 20.6996 200.645 20.8996 200.379 21.0596ZM198.489 18.8096C198.162 18.8096 197.899 18.8896 197.699 19.0496C197.505 19.203 197.409 19.4163 197.409 19.6896C197.409 19.9563 197.505 20.1663 197.699 20.3196C197.892 20.473 198.155 20.5496 198.489 20.5496C198.822 20.5496 199.089 20.473 199.289 20.3196C199.489 20.1663 199.589 19.9563 199.589 19.6896C199.589 19.4163 199.489 19.203 199.289 19.0496C199.089 18.8896 198.822 18.8096 198.489 18.8096ZM198.489 23.6696C198.895 23.6696 199.215 23.5796 199.449 23.3996C199.689 23.213 199.809 22.9663 199.809 22.6596C199.809 22.353 199.689 22.1096 199.449 21.9296C199.215 21.7496 198.895 21.6596 198.489 21.6596C198.089 21.6596 197.772 21.7496 197.539 21.9296C197.305 22.1096 197.189 22.353 197.189 22.6596C197.189 22.973 197.305 23.2196 197.539 23.3996C197.772 23.5796 198.089 23.6696 198.489 23.6696Z" fill="black"/>
<path d="M224.167 17.6196C225.147 17.6196 225.913 17.9196 226.467 18.5196C227.02 19.113 227.297 19.9696 227.297 21.0896C227.297 21.883 227.147 22.563 226.847 23.1296C226.553 23.6963 226.137 24.1263 225.597 24.4196C225.057 24.713 224.433 24.8596 223.727 24.8596C223.353 24.8596 222.997 24.8196 222.657 24.7396C222.317 24.653 222.027 24.533 221.787 24.3796L222.387 23.1896C222.727 23.423 223.163 23.5396 223.697 23.5396C224.29 23.5396 224.76 23.3663 225.107 23.0196C225.453 22.6663 225.64 22.1596 225.667 21.4996C225.247 21.9196 224.667 22.1296 223.927 22.1296C223.48 22.1296 223.073 22.0396 222.707 21.8596C222.34 21.6796 222.05 21.4263 221.837 21.0996C221.623 20.7663 221.517 20.383 221.517 19.9496C221.517 19.483 221.633 19.073 221.867 18.7196C222.1 18.3663 222.417 18.0963 222.817 17.9096C223.223 17.7163 223.673 17.6196 224.167 17.6196ZM224.287 20.9196C224.64 20.9196 224.927 20.823 225.147 20.6296C225.373 20.4296 225.487 20.1763 225.487 19.8696C225.487 19.563 225.377 19.313 225.157 19.1196C224.943 18.9263 224.647 18.8296 224.267 18.8296C223.92 18.8296 223.637 18.923 223.417 19.1096C223.203 19.2963 223.097 19.5496 223.097 19.8696C223.097 20.1896 223.203 20.4463 223.417 20.6396C223.637 20.8263 223.927 20.9196 224.287 20.9196Z" fill="black"/>
<path d="M249.239 18.7396V25.7396H247.619V20.0396H246.219V18.7396H249.239Z" fill="black"/>
<path d="M253.455 25.8596C252.875 25.8596 252.358 25.7163 251.905 25.4296C251.451 25.143 251.095 24.7296 250.835 24.1896C250.581 23.643 250.455 22.993 250.455 22.2396C250.455 21.4863 250.581 20.8396 250.835 20.2996C251.095 19.753 251.451 19.3363 251.905 19.0496C252.358 18.763 252.875 18.6196 253.455 18.6196C254.035 18.6196 254.551 18.763 255.005 19.0496C255.458 19.3363 255.811 19.753 256.065 20.2996C256.325 20.8396 256.455 21.4863 256.455 22.2396C256.455 22.993 256.325 23.643 256.065 24.1896C255.811 24.7296 255.458 25.143 255.005 25.4296C254.551 25.7163 254.035 25.8596 253.455 25.8596ZM253.455 24.4896C253.881 24.4896 254.215 24.3063 254.455 23.9396C254.701 23.573 254.825 23.0063 254.825 22.2396C254.825 21.473 254.701 20.9063 254.455 20.5396C254.215 20.173 253.881 19.9896 253.455 19.9896C253.035 19.9896 252.701 20.173 252.455 20.5396C252.215 20.9063 252.095 21.473 252.095 22.2396C252.095 23.0063 252.215 23.573 252.455 23.9396C252.701 24.3063 253.035 24.4896 253.455 24.4896Z" fill="black"/>
<path d="M27.9653 9.94838V0.73877H26.4672V9.94838H27.9653Z" fill="black"/>
<path d="M14.7319 14.9265V0.73877H13.2339V14.9265H14.7319Z" fill="black"/>
<path d="M40.9487 14.9265V0.73877H39.4507V14.9265H40.9487Z" fill="black"/>
<path d="M17.978 8.45493V0.73877H16.4799V8.45493H17.978Z" fill="black"/>
<path d="M21.2236 8.45493V0.73877H19.7256V8.45493H21.2236Z" fill="black"/>
<path d="M24.7192 8.45493V0.73877H23.2212V8.45493H24.7192Z" fill="black"/>
<path d="M30.9614 8.45493V0.73877H29.4633V8.45493H30.9614Z" fill="black"/>
<path d="M34.457 8.45493V0.73877H32.9589V8.45493H34.457Z" fill="black"/>
<path d="M37.7026 8.45493V0.73877H36.2045V8.45493H37.7026Z" fill="black"/>
<path d="M1.49854 9.94838L1.49854 0.73877H0.000396729L0.000396729 9.94838H1.49854Z" fill="black"/>
<path d="M14.7319 14.9265V0.73877H13.2339V14.9265H14.7319Z" fill="black"/>
<path d="M4.74414 8.45493V0.73877H3.24603V8.45493H4.74414Z" fill="black"/>
<path d="M8.23975 8.45493V0.73877H6.74161V8.45493H8.23975Z" fill="black"/>
<path d="M11.4858 8.45493V0.73877H9.98776V8.45493H11.4858Z" fill="black"/>
<path d="M54.1821 9.94838V0.73877H52.684V9.94838H54.1821Z" fill="black"/>
<path d="M67.415 14.9265V0.73877H65.9169V14.9265H67.415Z" fill="black"/>
<path d="M44.4443 8.45493V0.73877H42.9462V8.45493H44.4443Z" fill="black"/>
<path d="M47.6904 8.45493V0.73877H46.1923V8.45493H47.6904Z" fill="black"/>
<path d="M50.936 8.45493V0.73877H49.4379V8.45493H50.936Z" fill="black"/>
<path d="M57.4277 8.45493V0.73877H55.9297V8.45493H57.4277Z" fill="black"/>
<path d="M60.6738 8.45493V0.73877H59.1757V8.45493H60.6738Z" fill="black"/>
<path d="M64.1694 8.45493V0.73877H62.6713V8.45493H64.1694Z" fill="black"/>
<path d="M80.6484 9.94838V0.73877H79.1504V9.94838H80.6484Z" fill="black"/>
<path d="M93.6323 14.9265V0.73877H92.1342V14.9265H93.6323Z" fill="black"/>
<path d="M70.6611 8.45493V0.73877H69.1631V8.45493H70.6611Z" fill="black"/>
<path d="M74.1572 8.45493V0.73877H72.6591V8.45493H74.1572Z" fill="black"/>
<path d="M77.4028 8.45493V0.73877H75.9048V8.45493H77.4028Z" fill="black"/>
<path d="M83.8945 8.45493V0.73877H82.3964V8.45493H83.8945Z" fill="black"/>
<path d="M87.1406 8.45493V0.73877H85.6425V8.45493H87.1406Z" fill="black"/>
<path d="M90.3867 8.45493V0.73877H88.8886V8.45493H90.3867Z" fill="black"/>
<path d="M107.115 9.94838V0.73877H105.617V9.94838H107.115Z" fill="black"/>
<path d="M120.099 14.9265V0.73877H118.601V14.9265H120.099Z" fill="black"/>
<path d="M97.1279 8.45493V0.73877H95.6298V8.45493H97.1279Z" fill="black"/>
<path d="M100.374 8.45493V0.73877H98.8759V8.45493H100.374Z" fill="black"/>
<path d="M103.87 8.45493V0.73877H102.372V8.45493H103.87Z" fill="black"/>
<path d="M110.112 8.45493V0.73877H108.614V8.45493H110.112Z" fill="black"/>
<path d="M113.607 8.45493V0.73877H112.109V8.45493H113.607Z" fill="black"/>
<path d="M116.853 8.45493V0.73877H115.355V8.45493H116.853Z" fill="black"/>
<path d="M133.333 9.94838V0.73877H131.834V9.94838H133.333Z" fill="black"/>
<path d="M146.566 14.9265V0.73877H145.068V14.9265H146.566Z" fill="black"/>
<path d="M123.595 8.45493V0.73877H122.097V8.45493H123.595Z" fill="black"/>
<path d="M126.84 8.45493V0.73877H125.342V8.45493H126.84Z" fill="black"/>
<path d="M130.086 8.45493V0.73877H128.588V8.45493H130.086Z" fill="black"/>
<path d="M136.579 8.45493V0.73877H135.081V8.45493H136.579Z" fill="black"/>
<path d="M139.824 8.45493V0.73877H138.326V8.45493H139.824Z" fill="black"/>
<path d="M143.32 8.45493V0.73877H141.822V8.45493H143.32Z" fill="black"/>
<path d="M159.799 9.94838V0.73877H158.301V9.94838H159.799Z" fill="black"/>
<path d="M172.783 14.9265V0.73877H171.285V14.9265H172.783Z" fill="black"/>
<path d="M149.812 8.45493V0.73877H148.313V8.45493H149.812Z" fill="black"/>
<path d="M153.307 8.45493V0.73877H151.809V8.45493H153.307Z" fill="black"/>
<path d="M156.553 8.45493V0.73877H155.055V8.45493H156.553Z" fill="black"/>
<path d="M163.045 8.45493V0.73877H161.547V8.45493H163.045Z" fill="black"/>
<path d="M166.291 8.45493V0.73877H164.793V8.45493H166.291Z" fill="black"/>
<path d="M169.786 8.45493V0.73877H168.288V8.45493H169.786Z" fill="black"/>
<path d="M186.266 9.94838V0.73877H184.768V9.94838H186.266Z" fill="black"/>
<path d="M199.25 14.9265V0.73877H197.751V14.9265H199.25Z" fill="black"/>
<path d="M176.278 8.45493V0.73877H174.78V8.45493H176.278Z" fill="black"/>
<path d="M179.524 8.45493V0.73877H178.026V8.45493H179.524Z" fill="black"/>
<path d="M183.02 8.45493V0.73877H181.521V8.45493H183.02Z" fill="black"/>
<path d="M189.262 8.45493V0.73877H187.764V8.45493H189.262Z" fill="black"/>
<path d="M192.758 8.45493V0.73877H191.26V8.45493H192.758Z" fill="black"/>
<path d="M196.003 8.45493V0.73877H194.505V8.45493H196.003Z" fill="black"/>
<path d="M212.483 9.94838V0.73877H210.985V9.94838H212.483Z" fill="black"/>
<path d="M225.716 14.9265V0.73877H224.218V14.9265H225.716Z" fill="black"/>
<path d="M202.745 8.45493V0.73877H201.247V8.45493H202.745Z" fill="black"/>
<path d="M205.991 8.45493V0.73877H204.493V8.45493H205.991Z" fill="black"/>
<path d="M209.486 8.45493V0.73877H207.988V8.45493H209.486Z" fill="black"/>
<path d="M215.729 8.45493V0.73877H214.23V8.45493H215.729Z" fill="black"/>
<path d="M219.224 8.45493V0.73877H217.726V8.45493H219.224Z" fill="black"/>
<path d="M222.47 8.45493V0.73877H220.972V8.45493H222.47Z" fill="black"/>
<path d="M238.95 9.94838V0.73877H237.452V9.94838H238.95Z" fill="black"/>
<path d="M251.933 14.9265V0.73877H250.435V14.9265H251.933Z" fill="black"/>
<path d="M228.962 8.45493V0.73877H227.464V8.45493H228.962Z" fill="black"/>
<path d="M232.458 8.45493V0.73877H230.959V8.45493H232.458Z" fill="black"/>
<path d="M235.704 8.45493V0.73877H234.205V8.45493H235.704Z" fill="black"/>
<path d="M242.195 8.45493V0.73877H240.697V8.45493H242.195Z" fill="black"/>
<path d="M245.441 8.45493V0.73877H243.943V8.45493H245.441Z" fill="black"/>
<path d="M248.937 8.45493V0.73877H247.439V8.45493H248.937Z" fill="black"/>
<path d="M265.416 9.94838V0.73877H263.918V9.94838H265.416Z" fill="black"/>
<path d="M255.429 8.45493V0.73877H253.931V8.45493H255.429Z" fill="black"/>
<path d="M258.924 8.45493V0.73877H257.426V8.45493H258.924Z" fill="black"/>
<path d="M262.17 8.45493V0.73877H260.672V8.45493H262.17Z" fill="black"/>
<path d="M268.662 8.45493V0.73877H267.164V8.45493H268.662Z" fill="black"/>
<g clip-path="url(#clip1_5018_133755)">
<path d="M220.317 46.6617C219.494 46.6617 218.917 46.0848 218.917 45.354C218.917 44.6232 219.535 44.0463 220.317 44.0463C221.141 44.0463 221.717 44.6232 221.717 45.354C221.717 46.0848 221.141 46.6617 220.317 46.6617ZM223.488 46.5848C223.2 46.5848 223.076 46.4309 223.076 46.2002V42.9694H221.759V43.5848C221.347 43.1232 220.77 42.854 220.07 42.854C218.629 42.854 217.559 43.9309 217.559 45.354C217.559 46.7771 218.629 47.854 220.07 47.854C220.812 47.854 221.429 47.5079 221.841 47.0079C222.047 47.5079 222.5 47.7771 223.2 47.7771H223.57V46.5848H223.488Z" fill="#9C6A17"/>
<path d="M226.947 47.854C228.306 47.854 229.376 47.0463 229.623 45.8925H228.223C228.017 46.354 227.523 46.6617 226.947 46.6617C226.123 46.6617 225.547 46.0848 225.547 45.354C225.547 44.6232 226.164 44.0463 226.947 44.0463C227.523 44.0463 228.017 44.354 228.223 44.8155H229.623C229.376 43.6617 228.306 42.854 226.947 42.854C225.382 42.854 224.188 43.9309 224.188 45.354C224.188 46.7771 225.382 47.854 226.947 47.854Z" fill="#9C6A17"/>
<path d="M233.453 44.0848V42.9694H232.259V41.7002H231.023V42.5848C231.023 42.854 230.9 42.9694 230.612 42.9694H230.159V44.0848H230.982V46.2387C230.982 47.2387 231.6 47.7387 232.753 47.7387H233.453V46.6233H232.959C232.547 46.6233 232.3 46.3925 232.3 46.0079V44.0848H233.453Z" fill="#9C6A17"/>
<path d="M234.565 47.7388H235.882V42.9695H234.565V47.7388ZM235.223 42.2772C235.676 42.2772 236.047 41.9311 236.047 41.508C236.047 41.0849 235.676 40.7388 235.223 40.7388C234.77 40.7388 234.4 41.0849 234.4 41.508C234.4 41.9311 234.729 42.2772 235.223 42.2772Z" fill="#9C6A17"/>
<path d="M240.247 44.0848V42.9694H239.053V41.7002H237.818V42.5848C237.818 42.854 237.694 42.9694 237.406 42.9694H236.953V44.0848H237.777V46.2387C237.777 47.2387 238.394 47.7387 239.547 47.7387H240.247V46.6233H239.753C239.341 46.6233 239.094 46.3925 239.094 46.0079V44.0848H240.247Z" fill="#9C6A17"/>
<path d="M246.712 46.5852C246.424 46.5852 246.3 46.4314 246.3 46.2006V44.7391C246.3 43.6237 245.518 42.8929 244.283 42.8929C243.624 42.8929 243.047 43.1621 242.636 43.6237V41.0083H241.318V47.7775H242.636V45.1621C242.636 44.5083 243.13 44.0852 243.83 44.0852C244.488 44.0852 244.941 44.5083 244.941 45.1621V46.4698C244.941 47.3545 245.436 47.7775 246.424 47.7775H246.794V46.5852H246.712Z" fill="#9C6A17"/>
<path d="M247.659 47.7388H248.976V42.9695H247.659V47.7388ZM248.318 42.2772C248.771 42.2772 249.141 41.9311 249.141 41.508C249.141 41.0849 248.771 40.7388 248.318 40.7388C247.865 40.7388 247.494 41.0849 247.494 41.508C247.494 41.9311 247.865 42.2772 248.318 42.2772Z" fill="#9C6A17"/>
<path d="M255.73 46.5854C255.441 46.5854 255.318 46.4315 255.318 46.2008V44.7392C255.318 43.6238 254.535 42.8931 253.3 42.8931C252.641 42.8931 252.065 43.1238 251.653 43.5854V42.97H250.335V47.7392H251.653V45.1238C251.653 44.47 252.147 44.0469 252.847 44.0469C253.506 44.0469 253.959 44.47 253.959 45.1238V46.4315C253.959 47.3161 254.453 47.7392 255.441 47.7392H255.812V46.5469H255.73V46.5854Z" fill="#9C6A17"/>
<path fill-rule="evenodd" clip-rule="evenodd" d="M213.482 43.0082C213.482 42.9697 213.482 42.9697 213.482 42.9312C213.441 42.8158 213.4 42.662 213.318 42.5082C213.235 42.3543 213.03 42.1235 212.7 42.0851C212.371 42.0466 212.082 42.2005 211.877 42.3543C211.671 42.5082 211.506 42.7389 211.465 43.0082C211.424 43.3158 211.547 43.5082 211.712 43.662C211.835 43.7774 212 43.8543 212.082 43.8928C212.124 43.9312 212.165 43.9312 212.206 43.9312C212.206 43.9312 212.206 43.9312 212.247 43.9312L211.341 47.9697L212.453 48.2005L213.4 44.0082L215.582 44.0851C215.5 44.2005 215.459 44.3158 215.377 44.4312C215.212 44.7389 215.047 45.0466 214.924 45.3543C214.8 45.6235 214.677 46.0082 214.718 46.3158C214.759 46.7005 214.882 47.1235 215.253 47.4697C215.624 47.7774 216.118 47.9697 216.777 48.0851L217.312 48.162L217.518 47.1235L216.982 47.0466C216.406 46.9312 216.159 46.8158 216.035 46.7005C215.912 46.6235 215.871 46.4697 215.83 46.2005V46.162C215.83 46.1235 215.83 46.1235 215.871 46.0851C215.912 46.0082 215.912 45.8928 215.994 45.7774C216.118 45.5082 216.241 45.2389 216.406 44.9697C216.612 44.4312 216.941 43.9312 216.941 43.9312C216.941 43.8928 217.024 43.8158 217.024 43.662C217.024 43.5851 216.982 43.4697 216.941 43.3543C216.859 43.2389 216.777 43.2005 216.694 43.162C216.612 43.1235 216.53 43.1235 216.488 43.1235L213.482 43.0082Z" fill="#9C6A17"/>
<path d="M194.994 47.4695C194.83 47.2002 194.542 46.9695 194.294 46.7772C194.006 46.5848 193.677 46.3541 193.347 46.2387C193.018 46.1233 192.647 46.1618 192.318 46.2772C192.03 46.3541 191.783 46.5464 191.659 46.8156C191.536 47.1233 191.536 47.3925 191.783 47.6233C192.03 47.8156 192.359 47.9695 192.647 48.0079C192.73 48.0079 192.977 48.0464 193.059 47.9695C193.142 47.8925 193.1 47.6233 193.1 47.5464C193.018 47.2772 192.73 47.0464 192.483 47.2772C192.236 47.5079 191.865 47.0848 192.112 46.8541C192.4 46.5848 192.853 46.5848 193.183 46.7772C193.512 46.9695 193.677 47.3541 193.677 47.7387C193.677 48.1233 193.553 48.4695 193.142 48.5464C192.771 48.6618 192.318 48.5848 191.989 48.431C191.659 48.2772 191.33 48.0464 191.124 47.7387C190.959 47.3925 191 46.9695 191.165 46.6233C191.494 45.8925 192.318 45.6233 193.1 45.6618C193.594 45.7002 194.047 45.9695 194.418 46.2002C194.789 46.4695 195.2 46.7387 195.447 47.1233C195.612 47.431 195.159 47.7772 194.994 47.4695Z" fill="#9C6A17"/>
<path d="M202.035 44.4311C202.118 45.0464 201.829 45.5849 201.418 45.6234C201.006 45.6618 200.594 45.1618 200.512 44.5464C200.429 43.9311 200.718 43.3926 201.129 43.3541C201.541 43.3157 201.953 43.8157 202.035 44.4311Z" fill="#9C6A17"/>
<path d="M194.129 45.0085C194.129 46.8931 195.818 48.1624 197.835 48.1624C199.853 48.1624 201.459 47.1624 201.5 45.0085C201.541 43.1239 199.853 41.5854 197.835 41.5854C195.776 41.5854 194.129 43.0854 194.129 45.0085Z" fill="#9C6A17"/>
<path d="M198.823 41.7766C198.823 41.6227 197.753 41.5843 197.465 41.0074C197.423 40.9304 197.423 40.8535 197.423 40.8535C197.3 40.892 197.094 40.9689 196.888 41.1612C196.682 41.3535 196.641 41.5458 196.6 41.6227C196.559 41.6227 196.435 41.5458 196.353 41.4689C196.27 41.3535 196.27 41.1997 196.27 41.1612C196.188 41.2381 196.065 41.3151 195.982 41.4689C195.694 41.892 195.817 42.3151 195.859 42.4304C198.288 42.0843 198.823 41.892 198.823 41.7766Z" fill="#9C6A17"/>
<path d="M196.147 46.5464C196.353 47.431 197.588 47.931 198.865 47.6233C200.182 47.3541 201.088 46.3926 200.882 45.5464C200.676 44.6618 199.441 44.1618 198.124 44.4695C196.847 44.7387 195.982 45.6618 196.147 46.5464Z" fill="#FECC7B"/>
<path d="M195.735 44.9307C195.9 45.7 196.641 46.2 197.382 46.0077C198.124 45.8154 198.618 45.0461 198.453 44.2769C198.288 43.5077 197.547 43.0077 196.806 43.2C196.024 43.3538 195.571 44.123 195.735 44.9307Z" fill="#FECC7B"/>
<path d="M200.347 43.7776C200.512 44.5853 200.059 45.3546 199.4 45.5084C198.7 45.6623 198 45.1623 197.877 44.393C197.671 43.5853 198.124 42.8161 198.824 42.6623C199.482 42.4699 200.182 42.9699 200.347 43.7776Z" fill="#FECC7B"/>
<path d="M194.706 46.777C194.459 46.8155 194.212 46.7001 194.006 46.4693C193.8 46.2385 193.594 45.8924 193.512 45.5078C193.429 45.1232 193.471 44.7385 193.553 44.4308C193.676 44.1232 193.882 43.9308 194.129 43.8924C194.376 43.8155 194.623 43.9308 194.829 44.1616C195.035 44.3924 195.241 44.7385 195.323 45.1232C195.406 45.5078 195.365 45.8924 195.282 46.2001C195.118 46.5462 194.953 46.7385 194.706 46.777Z" fill="#9C6A17"/>
<path d="M195.118 46.1999C194.994 46.4691 194.829 46.6229 194.665 46.6614L194.706 46.8922C195.035 46.8152 195.241 46.5845 195.365 46.2768L195.118 46.1999ZM195.159 45.1999C195.241 45.5845 195.2 45.9306 195.118 46.1999L195.406 46.2768C195.529 45.9691 195.571 45.546 195.488 45.1229L195.159 45.1999ZM194.706 44.2768C194.912 44.4691 195.076 44.8152 195.159 45.1999L195.447 45.1614C195.365 44.7383 195.159 44.3537 194.953 44.1229L194.706 44.2768ZM194.129 44.0075C194.294 43.9691 194.541 44.046 194.706 44.2768L194.912 44.0845C194.706 43.8537 194.418 43.6999 194.088 43.7383L194.129 44.0075ZM193.718 44.4691C193.8 44.1999 193.965 44.046 194.129 44.0075L194.088 43.7383C193.759 43.8152 193.553 44.046 193.429 44.3537L193.718 44.4691ZM193.635 45.4691C193.553 45.0845 193.594 44.7383 193.676 44.4691L193.429 44.3537C193.306 44.6614 193.265 45.0845 193.347 45.5075L193.635 45.4691ZM194.088 46.3922C193.882 46.1999 193.718 45.8537 193.635 45.4691L193.347 45.5075C193.429 45.9306 193.635 46.3152 193.841 46.546L194.088 46.3922ZM194.665 46.6614C194.5 46.6999 194.294 46.6229 194.088 46.3922L193.882 46.546C194.129 46.8152 194.418 46.9691 194.747 46.8922L194.665 46.6614ZM195.241 46.2383L195.365 46.2768L195.241 46.2383ZM195.324 45.1614L195.2 45.1999L195.324 45.1614ZM194.829 44.1614L194.953 44.0845L194.829 44.1614ZM194.129 43.8922L194.088 43.7383L194.129 43.8922ZM193.553 44.4306L193.429 44.3537L193.553 44.4306ZM193.512 45.5075L193.635 45.4691L193.512 45.5075ZM193.965 46.4691L193.882 46.546L193.965 46.4691ZM194.706 46.7768L194.665 46.6614L194.706 46.7768Z" fill="#FECC7B"/>
<path d="M194.171 45.469C194.665 46.4305 194.747 47.1613 195.118 47.0843C195.488 47.0074 195.571 45.969 195.447 45.1228C195.324 44.3151 194.582 43.7382 194.459 43.8536C194.294 43.892 194.047 44.6613 194.171 45.469Z" fill="#9C6A17"/>
<path d="M199.729 46.5469C199.688 46.5854 199.194 47.1238 198.329 47.1238C197.712 47.1238 197.135 46.8161 196.806 46.3931C196.929 46.47 197.464 46.8931 198.288 46.9315C199.07 46.9315 199.564 46.6238 199.729 46.5469Z" fill="#9C6A17"/>
<path d="M198.165 45.9304C198.206 45.9304 198.37 45.9689 198.576 45.9689C198.782 45.9304 198.906 45.892 198.947 45.8535C198.823 45.8535 198.7 45.892 198.576 45.892C198.412 45.9304 198.247 45.9304 198.165 45.9304Z" fill="#9C6A17"/>
<path d="M201.459 45.123C201.5 45.123 201.541 45.123 201.541 45.1615L201.706 48.2C201.706 48.2384 201.706 48.2384 201.665 48.2769L198.783 49.623H198.741L195.653 48.6615C195.612 48.6615 195.612 48.623 195.612 48.623L195.447 45.5846C195.447 45.5461 195.447 45.5461 195.488 45.5461H195.53L198.577 46.5461C198.618 46.5461 198.618 46.5461 198.659 46.5461L201.459 45.123Z" fill="#9C6A17"/>
<path d="M198.741 46.6236L201.541 45.2774L201.376 44.9697L198.576 46.3159L198.741 46.6236ZM198.535 46.6236C198.618 46.662 198.659 46.6236 198.741 46.6236L198.576 46.3543H198.618L198.535 46.6236ZM198.618 46.6236V46.3159V46.6236ZM195.488 45.6236L198.535 46.6236L198.659 46.3159L195.612 45.3543L195.488 45.6236ZM195.529 45.662V45.3543V45.662ZM195.612 45.6236L195.57 45.662C195.529 45.662 195.529 45.662 195.488 45.662L195.612 45.3543C195.529 45.3159 195.447 45.3543 195.406 45.3928L195.612 45.6236ZM195.612 45.5466C195.612 45.5851 195.612 45.5851 195.57 45.6236L195.365 45.3928C195.323 45.4313 195.282 45.5082 195.282 45.5851L195.612 45.5466ZM195.818 48.5851L195.653 45.5466H195.323L195.488 48.5851H195.818ZM195.735 48.4697C195.776 48.4697 195.818 48.5466 195.818 48.5466L195.488 48.5851C195.488 48.662 195.529 48.739 195.653 48.7774L195.735 48.4697ZM195.694 48.4697V48.7774V48.4697ZM198.823 49.4697L195.735 48.5082L195.612 48.8159L198.7 49.7774L198.823 49.4697ZM198.741 49.4313V49.739V49.4313ZM198.7 49.4697C198.741 49.4697 198.782 49.4697 198.782 49.4697L198.659 49.739C198.7 49.7774 198.782 49.739 198.823 49.739L198.7 49.4697ZM198.659 49.5082L198.906 49.739L198.659 49.5082ZM201.623 48.1236L198.741 49.4697L198.906 49.739L201.788 48.3928L201.623 48.1236ZM201.541 48.2005C201.541 48.162 201.541 48.1236 201.582 48.1236L201.706 48.3928C201.788 48.3543 201.829 48.2774 201.829 48.2005H201.541ZM201.376 45.2005L201.541 48.239H201.87L201.706 45.162L201.376 45.2005ZM201.541 45.2774C201.5 45.3159 201.459 45.2774 201.418 45.2774C201.376 45.2774 201.376 45.239 201.376 45.2005H201.706C201.706 45.0466 201.541 44.9313 201.376 45.0082L201.541 45.2774ZM198.659 46.4697L198.576 46.3159L198.659 46.4697ZM198.618 46.4697L198.659 46.3159H198.618H198.576V46.4697H198.618ZM198.618 46.4697L198.576 46.6236H198.618H198.659V46.4697H198.618ZM195.529 45.5082L195.57 45.3543H195.529V45.5082ZM195.529 45.5082L195.488 45.662H195.529V45.5082ZM195.488 45.5082L195.612 45.6236L195.488 45.5082ZM195.447 45.5466H195.612H195.447ZM195.653 48.5851H195.488H195.653ZM195.694 48.6236L195.653 48.7774H195.694H195.735V48.6236H195.694ZM195.694 48.6236L195.735 48.4697H195.694H195.653V48.6236H195.694ZM198.741 49.5851L198.7 49.739H198.741H198.782V49.5851H198.741ZM198.741 49.5851L198.782 49.4313H198.741H198.7V49.5851H198.741ZM198.782 49.5851L198.865 49.739H198.906L198.782 49.5851ZM198.782 49.5851L198.7 49.4313H198.659L198.782 49.5851ZM201.665 48.2774L201.582 48.1236L201.665 48.2774ZM201.706 48.2005H201.87H201.706ZM201.541 45.162H201.706H201.541ZM201.459 45.1236L201.541 45.2774L201.459 45.1236Z" fill="#FECC7B"/>
<path d="M198.741 49.5079L198.577 46.7387L198.824 46.7002L198.947 49.3925L198.741 49.5079Z" fill="#FECC7B"/>
<path d="M195.859 45.3162L195.818 45.47V45.4316V45.3162V45.2393L198.041 46.047L195.859 45.3162Z" fill="#9C6A17"/>
<path d="M195.777 45.3154L195.941 45.3538L195.777 45.3154ZM195.9 45.2384L195.818 45.3923L195.9 45.2384ZM198.082 45.9692L195.9 45.2384L195.859 45.3923L198 46.123L198.082 45.9692ZM195.777 45.2769L198 46.123L198.041 45.9692L195.818 45.123L195.777 45.2769ZM195.9 45.3154V45.2H195.735V45.3154H195.9ZM195.9 45.4307V45.3154L195.735 45.3538V45.4692L195.9 45.4307ZM195.9 45.3923L195.777 45.5077L195.9 45.3923ZM195.777 45.3154V45.4307H195.941V45.3154H195.777ZM195.859 45.3154L195.9 45.2384L195.818 45.2V45.3154H195.859ZM195.859 45.3154L195.818 45.3923L195.859 45.3154ZM198.041 46.0461L198 46.123L198.041 45.9692V46.0461ZM195.818 45.2384L195.859 45.1615L195.735 45.123V45.2384H195.818ZM195.818 45.3154H195.735H195.818ZM195.818 45.4307H195.735V45.4692L195.818 45.4307ZM195.818 45.4692L195.777 45.5077L195.9 45.623V45.4692H195.818ZM195.859 45.3154H195.777H195.859Z" fill="#FECC7B"/>
<path d="M201.5 45.1998L201.418 44.8921L199.153 46.2767L201.418 45.0844V45.0459V45.0844L201.5 45.1998Z" fill="#9C6A17"/>
<path d="M201.582 45.2004H201.417H201.582ZM201.5 45.2773V45.1235V45.2773ZM201.335 45.1235L201.417 45.2389L201.541 45.162L201.459 45.0466L201.335 45.1235ZM201.335 45.085L201.5 45.0081L201.335 45.085ZM201.459 45.1235L201.376 44.9697L201.459 45.1235ZM199.194 46.3158L201.459 45.1235L201.376 45.0081L199.111 46.2004L199.194 46.3158ZM201.335 44.8543L199.07 46.2004L199.153 46.3158L201.417 44.9697L201.335 44.8543ZM201.582 45.162L201.5 44.8927L201.335 44.9312L201.417 45.2004L201.582 45.162ZM201.5 45.2004V45.2773H201.582V45.2004H201.5ZM201.5 45.2004L201.417 45.2389L201.459 45.2773H201.5V45.2004ZM201.417 45.085L201.335 45.1235L201.417 45.085ZM201.417 45.0466L201.5 45.0081L201.459 44.9697L201.376 45.0081L201.417 45.0466ZM201.417 45.085L201.376 45.0081L201.417 45.085ZM199.153 46.2773L199.111 46.2004L199.194 46.3158L199.153 46.2773ZM201.417 44.8927L201.5 44.8543L201.459 44.7773L201.376 44.8158L201.417 44.8927ZM201.5 45.2004H201.582H201.5Z" fill="#FECC7B"/>
<path d="M195.826 48.4299C196.258 48.4224 196.604 48.2098 196.599 47.9549C196.594 47.7001 196.24 47.4995 195.808 47.507C195.376 47.5145 195.03 47.7271 195.035 47.982C195.04 48.2368 195.394 48.4374 195.826 48.4299Z" fill="#9C6A17"/>
<path d="M195.822 48.2377C196.072 48.2335 196.273 48.1096 196.27 47.9609C196.267 47.8123 196.062 47.6952 195.812 47.6994C195.562 47.7036 195.361 47.8275 195.364 47.9762C195.367 48.1249 195.572 48.242 195.822 48.2377Z" fill="#FECC7B"/>
<path d="M196.6 47.5081C196.6 47.8158 196.229 48.0466 195.776 48.0466C195.323 48.0466 194.953 47.8158 194.912 47.5466C194.912 47.2773 195.282 47.0081 195.735 47.0081C196.188 46.9696 196.559 47.2004 196.6 47.5081Z" fill="#9C6A17"/>
<path d="M196.23 47.3927C196.23 47.5465 196.024 47.7003 195.777 47.7003C195.53 47.7003 195.324 47.585 195.324 47.3927C195.324 47.2388 195.53 47.085 195.777 47.085C196.024 47.085 196.23 47.2388 196.23 47.3927Z" fill="#FECC7B"/>
<path d="M196.476 46.97C196.476 47.2007 196.147 47.393 195.694 47.393C195.282 47.393 194.912 47.2007 194.912 46.97V46.9315C194.953 46.7007 195.282 46.5469 195.694 46.5469C196.106 46.5853 196.476 46.7392 196.476 46.97Z" fill="#9C6A17"/>
<path d="M196.147 46.9693C196.147 47.1232 195.941 47.277 195.694 47.277C195.529 47.277 195.282 47.1616 195.241 47.0078V46.9693C195.241 46.8155 195.488 46.6616 195.694 46.6616C195.941 46.6616 196.147 46.8155 196.147 46.9693Z" fill="#FECC7B"/>
<path d="M195.447 46.2769C195.365 46.3153 195.118 46.3922 194.994 46.623C194.912 46.7769 194.871 46.9307 194.871 47.0076C195.035 46.8922 195.241 46.7769 195.406 46.623C195.447 46.5076 195.488 46.3922 195.447 46.2769Z" fill="#9C6A17"/>
<path d="M195.447 46.816C195.365 46.893 195.324 47.0083 195.241 47.0853C195.241 47.0468 195.159 46.8545 195.241 46.6237C195.282 46.4314 195.406 46.3545 195.447 46.3545C195.365 46.5083 195.324 46.7006 195.365 46.7776C195.406 46.816 195.447 46.816 195.447 46.816Z" fill="#FECC7B"/>
<path d="M200.841 47.3159C200.841 47.5852 201.212 47.7775 201.583 47.739C201.994 47.7006 202.283 47.4698 202.283 47.239C202.283 46.9698 201.912 46.7775 201.541 46.8159C201.13 46.8159 200.8 47.0467 200.841 47.3159Z" fill="#9C6A17"/>
<path d="M201.573 47.0077C201.324 47.0237 201.13 47.1568 201.141 47.3052C201.152 47.4535 201.363 47.5609 201.613 47.5449C201.862 47.529 202.056 47.3959 202.045 47.2475C202.034 47.0992 201.823 46.9918 201.573 47.0077Z" fill="#FECC7B"/>
<path d="M200.717 46.8546C200.717 47.1238 201.129 47.3546 201.582 47.3161C202.035 47.2776 202.406 47.0084 202.365 46.7392C202.365 46.47 201.953 46.2392 201.5 46.2776C201.047 46.3161 200.676 46.5469 200.717 46.8546Z" fill="#9C6A17"/>
<path d="M201.469 46.3603C201.151 46.3802 200.903 46.5337 200.916 46.7033C200.928 46.8728 201.195 46.9942 201.513 46.9744C201.83 46.9545 202.078 46.801 202.066 46.6315C202.054 46.4619 201.786 46.3405 201.469 46.3603Z" fill="#FECC7B"/>
<path d="M200.841 46.3151C200.841 46.5458 201.212 46.6997 201.583 46.6997C201.994 46.6612 202.283 46.4689 202.283 46.2381V46.1997C202.241 45.9689 201.912 45.8535 201.541 45.8535C201.13 45.892 200.8 46.0843 200.841 46.3151Z" fill="#9C6A17"/>
<path d="M201.17 46.316C201.17 46.4698 201.376 46.6237 201.623 46.5852C201.788 46.5852 202.035 46.4314 202.035 46.2775V46.2391C202.035 46.0852 201.788 45.9314 201.582 45.9698C201.335 45.9698 201.17 46.1237 201.17 46.316Z" fill="#FECC7B"/>
<path d="M201.624 45.5464C201.706 45.5848 201.953 45.6618 202.118 45.8925C202.241 46.0464 202.282 46.2002 202.282 46.2772C202.076 46.1618 201.871 46.0464 201.665 45.931C201.665 45.8541 201.665 45.8156 201.624 45.7387C201.624 45.6618 201.624 45.5848 201.624 45.5464Z" fill="#9C6A17"/>
<path d="M201.788 46.0471C201.871 46.124 201.953 46.2009 202.035 46.2779C202.035 46.2394 202.076 46.0471 201.994 45.8548C201.912 45.7009 201.747 45.6625 201.747 45.624C201.871 45.7779 201.912 45.9317 201.871 45.9702C201.829 46.0086 201.829 46.0471 201.788 46.0471Z" fill="#FECC7B"/>
<path d="M197.712 45.008C197.753 45.2773 197.588 45.508 197.341 45.5465C197.094 45.585 196.888 45.3927 196.847 45.1234C196.765 44.8542 196.929 44.6234 197.177 44.585C197.424 44.585 197.671 44.7388 197.712 45.008Z" fill="#9C6A17"/>
<path d="M197.259 44.8157C197.259 44.9696 197.176 45.085 197.053 45.1234C196.929 45.1234 196.806 45.0465 196.806 44.8927C196.806 44.7388 196.888 44.6234 197.012 44.585C197.135 44.585 197.217 44.7003 197.259 44.8157Z" fill="#FECC7B"/>
<path d="M199.688 44.5853C199.729 44.8546 199.565 45.0853 199.359 45.1238C199.153 45.1623 198.947 44.97 198.906 44.7007C198.906 44.4315 199.029 44.2007 199.276 44.2007C199.482 44.1623 199.688 44.3546 199.688 44.5853Z" fill="#9C6A17"/>
<path d="M199.359 44.3155C199.359 44.3924 199.276 44.4693 199.153 44.5078C199.029 44.5078 198.906 44.4693 198.906 44.3539C198.906 44.277 198.988 44.2001 199.112 44.1616C199.235 44.1616 199.359 44.2385 199.359 44.3155Z" fill="#FECC7B"/>
<path d="M195.818 45.3154V45.4693L196.024 45.5462L195.941 45.3924L195.818 45.3154Z" fill="#FECC7B"/>
<path d="M195.818 45.3154L197.3 45.8924L198.577 46.3539L195.859 45.3924L195.818 45.3154Z" fill="#9C6A17"/>
<path d="M200.841 45.3923L199.153 46.2769L200.429 45.7L201.5 45.2384L201.418 45.123L200.841 45.3923Z" fill="#FECC7B"/>
<path d="M201.253 45.123L199.853 45.7769L198.577 46.3538L201.212 45.1615L201.253 45.123Z" fill="#9C6A17"/>
<path d="M207.923 42.854C207.223 42.854 206.647 43.1232 206.235 43.5848V42.9694H204.917V49.5463H206.235V47.1232C206.647 47.5848 207.223 47.854 207.923 47.854C209.365 47.854 210.435 46.7771 210.435 45.354C210.435 43.9309 209.365 42.854 207.923 42.854ZM207.676 46.7002C207.47 46.7002 207.306 46.6617 207.1 46.5848C206.647 46.4309 206.317 46.0078 206.235 45.5463C206.235 45.4694 206.235 45.4309 206.235 45.354C206.235 45.2771 206.235 45.2386 206.235 45.1617C206.317 44.6617 206.606 44.2771 207.1 44.1232C207.265 44.0463 207.47 44.0078 207.676 44.0078C208.459 44.0078 209.117 44.6232 209.117 45.354C209.117 46.0848 208.5 46.7002 207.676 46.7002Z" fill="#9C6A17"/>
<path d="M258.777 45.6619C258.777 45.5081 258.818 45.3158 258.941 45.085C259.024 44.8542 259.188 44.6235 259.312 44.3927C259.435 44.1619 259.6 43.9696 259.682 43.8542C259.724 43.7773 259.765 43.7388 259.806 43.7004L259.847 43.6619L260.177 43.2388L260.3 43.1235L259.065 42.8927L258.941 42.9696L258.9 43.0081C258.859 43.0465 258.818 43.1235 258.777 43.2004C258.653 43.3542 258.488 43.585 258.365 43.8158C258.2 44.0465 258.035 44.3542 257.912 44.6619C257.871 44.7773 257.788 44.9312 257.788 45.1235V40.9312H256.594V47.7004H257.788V46.2773C258.077 47.2388 259.147 47.7388 260.3 47.9312L260.835 48.0081L261.041 46.9696L260.506 46.8927C259.312 46.7004 258.777 46.2004 258.777 45.6619Z" fill="#9C6A17"/>
</g>
</g>
<defs>
<clipPath id="clip0_5018_133755">
<rect width="57" height="270" fill="white" transform="translate(270 0.73877) rotate(90)"/>
</clipPath>
<clipPath id="clip1_5018_133755">
<rect width="70" height="9" fill="white" transform="translate(191 40.7388)"/>
</clipPath>
</defs>
</svg>
