<svg width="174" height="21" viewBox="0 0 174 21" fill="none" xmlns="http://www.w3.org/2000/svg">
<g clip-path="url(#clip0_5018_134188)">
<path d="M163.186 3.35005C162.535 3.36742 162.003 3.66899 161.992 4.11378L162.004 14.7232C162.007 15.116 162.557 15.4627 163.208 15.4454L172.139 15.4337C172.79 15.4163 173.323 15.1147 173.333 14.67L173.322 4.06055C173.318 3.66778 172.768 3.32101 172.118 3.33838L163.186 3.35005Z" fill="#6B9FDC"/>
<path d="M10.1237 3.87878L10.2515 15.3828L155.048 15.0851L154.92 3.58111L10.1237 3.87878Z" fill="#2C7CAE"/>
<path d="M10.1269 3.65756L0.194343 9.71941L10.1486 15.7533L10.1269 3.65756Z" fill="#E4C494"/>
<path d="M10.1469 6.43241L10.2207 12.8018L155.01 12.5242L154.936 6.1549L10.1469 6.43241Z" fill="#6B9FDC"/>
<path d="M4.08118 7.34435L0.19473 9.72009L4.09113 12.0767L4.08118 7.34435Z" fill="#040607"/>
<path d="M154.487 3.4149L154.518 15.4854L165.924 15.4514L165.893 3.38097L154.487 3.4149Z" fill="#FFD963"/>
<path d="M156.796 15.4839L156.774 3.39073L156.796 15.4839Z" stroke="#F59120" stroke-width="5" stroke-miterlimit="10"/>
<path d="M158.872 15.4883L158.85 3.39514L158.872 15.4883Z" stroke="#F59120" stroke-width="5" stroke-miterlimit="10"/>
</g>
<defs>
<clipPath id="clip0_5018_134188">
<rect width="20" height="173" fill="white" transform="translate(173) rotate(89.8147)"/>
</clipPath>
</defs>
</svg>
