<svg width="370" height="250" viewBox="0 0 370 250" fill="none" xmlns="http://www.w3.org/2000/svg">
<rect width="370" height="250" fill="white"/>
<g clip-path="url(#clip0_6050_137386)">
<path d="M284 0H85.9902V250H284V0Z" fill="#8D5631"/>
<path d="M85.9902 0V250H284V0H85.9902ZM276.8 12.7778V79.6111H93.1906V12.7778C93.1906 11.8333 93.6586 11.1111 94.2706 11.1111H275.72C276.332 11.1111 276.8 11.8333 276.8 12.7778ZM276.8 92.3889V159.222H93.1906V92.3889C93.1906 91.4445 93.6586 90.7222 94.2706 90.7222H275.72C276.332 90.7222 276.8 91.5 276.8 92.3889ZM93.1906 238.889V172.056C93.1906 171.111 93.6586 170.389 94.2706 170.389H275.72C276.332 170.389 276.8 171.111 276.8 172.056V238.889H93.1906Z" fill="#EAA064"/>
<path d="M115.08 238.889C113.892 242.056 113.099 245.389 112.307 248.722C112.199 249.167 112.091 249.611 111.983 250H106.871C108.095 248.667 109.283 247.111 110.363 245.389C110.615 244.889 110.831 244.333 111.047 243.833C111.659 242.333 112.019 240.444 112.667 238.944H115.08V238.889ZM88.9423 207.722C88.7982 207.556 88.6902 207.333 88.5462 207.167C87.7902 206 87.1062 204.778 86.4581 203.5C86.3141 203.167 86.1341 202.833 85.9901 202.5V212.167C86.2781 211.722 86.5661 211.222 86.8541 210.778C87.5382 209.722 88.2222 208.722 88.9423 207.722ZM93.1905 217.167V212.722C92.7224 212.278 92.2904 211.833 91.8224 211.389C91.0304 212.444 90.2383 213.611 89.4463 214.778C88.1862 216.722 86.9982 218.722 85.9541 220.778V232.278C87.1422 227.889 89.2303 223.111 92.0384 218.778C92.4344 218.278 92.8304 217.722 93.1905 217.167ZM108.599 239.778C108.707 239.5 108.815 239.222 108.923 238.889H103.595C100.463 243.444 96.2866 246.333 92.0024 248.056C91.3904 248.222 90.8143 248.333 90.2743 248.333C90.2383 248.333 90.2023 248.333 90.1663 248.333C88.5822 248.333 87.2142 247.611 86.2421 246.167C86.1701 246.056 86.0621 245.889 85.9901 245.778V250H100.463C103.415 247.778 106.223 245.222 107.987 241.278C108.203 240.778 108.383 240.278 108.599 239.778ZM91.3904 238.167C91.7144 238.667 92.0744 238.944 92.5064 239.167C92.8304 239.333 93.1905 239.389 93.5865 239.389C93.6945 239.389 93.8385 239.389 93.9825 239.389C94.0185 239.389 94.0545 239.389 94.0905 239.389C94.7745 239.389 95.3866 239.222 95.9626 238.889H93.1905V225.444C90.6703 230.444 89.8423 235.778 91.3904 238.167ZM276.8 126.667V130.111C277.556 129.222 278.348 128.389 279.14 127.611C279.572 127.167 280.04 126.778 280.508 126.444C281.588 125.722 282.776 124.889 284 124.389V120.056C281.732 121.333 279.644 123.389 277.88 125.611C277.52 125.889 277.16 126.278 276.8 126.667ZM251.31 167.111C251.742 166.389 252.174 165.667 252.606 164.944C253.722 163 254.875 161.111 256.063 159.333H252.498C252.174 160.056 251.886 160.833 251.526 161.611C251.31 162.389 251.022 163.111 250.734 163.833C250.446 164.556 250.122 165.222 249.762 165.889C248.97 167.667 247.89 168.889 246.738 169.833C247.278 168.444 247.854 167 248.394 165.556C248.43 164.722 248.358 163.833 248.142 162.944C248.07 162.222 247.926 161.5 247.71 160.833C247.53 160.333 247.35 159.833 247.062 159.389H241.014C241.662 160.556 242.202 161.889 242.562 163.444C243.282 166.778 240.042 166.778 238.602 169C238.278 169.5 238.062 170 237.918 170.5H248.79C249.654 169.333 250.518 168.222 251.31 167.111ZM276.8 149.667C279.176 147.889 281.588 147.111 284 146.278V133.333C281.516 134.111 279.032 135.5 276.8 137.389V149.667ZM258.907 159.278C257.431 160.722 256.063 162.389 254.911 164.278C254.479 165 254.047 165.722 253.686 166.5C252.966 167.889 252.21 169.167 251.418 170.389H254.407C254.587 170.167 254.767 170 254.947 169.778C255.343 169 255.703 168.167 256.099 167.444C257.899 163.944 260.167 161.111 263.011 159.278H258.907ZM277.952 158.944C275.864 160.278 273.631 161.056 271.507 161.944C270.787 162.222 270.103 162.556 269.383 162.833C265.747 164.833 260.815 165.667 258.259 169.222C258.007 169.556 257.791 169.944 257.575 170.333H269.023C270.355 169.833 271.759 169.444 273.163 169.167C273.812 168.833 274.424 168.5 275.072 168.167C276.836 167 278.672 165.889 280.58 164.833C280.94 164.611 281.336 164.333 281.696 164.111C282.452 163.611 283.244 163.167 284 162.778V155.333C282.596 156.056 281.192 156.833 279.788 157.722C279.176 158.167 278.564 158.556 277.952 158.944ZM229.889 239.944C228.269 243.167 226.577 246.5 225.029 250H230.861C231.113 248.611 231.221 247 231.545 245.333C231.761 244.222 232.013 243.111 232.301 242C232.553 241 232.805 239.944 233.093 238.889H230.321C230.177 239.222 230.033 239.611 229.889 239.944ZM235.902 250H241.302C241.446 246.556 241.95 242.778 242.814 238.889H237.918C236.982 242.722 236.298 246.444 235.902 250ZM278.708 173.444C278.132 173.889 277.592 174.333 277.052 174.722C276.98 174.778 276.872 174.833 276.8 174.889V182.056C276.944 181.944 277.124 181.833 277.268 181.722C279.572 180.111 281.84 178.889 284 178.056V170.333C282.632 171 281.264 171.778 279.86 172.667C279.464 172.944 279.104 173.167 278.708 173.444ZM284 250V245.611C282.704 246.833 281.552 248.333 280.472 250H284ZM281.3 235.667C280.976 236.167 280.616 236.722 280.256 237.222C277.124 242.222 273.523 245.556 269.887 249.222C269.527 249.5 269.203 249.778 268.879 250H275.72C277.88 246.722 279.86 243.167 282.488 241C282.92 240.556 283.316 240.056 283.712 239.556C283.82 239.389 283.892 239.222 284 239.056V230.944C283.46 232 282.884 233.056 282.272 234.111C281.948 234.611 281.66 235.167 281.3 235.667ZM252.93 238.889H247.746C247.062 242.944 246.846 246.722 247.17 250H254.695C253.11 247.389 252.57 243.444 252.93 238.889ZM276.8 196.778C279.068 195.444 281.228 194.778 283.136 194.778C283.424 194.778 283.712 194.778 284 194.833V186.111C281.768 186.611 279.32 187.722 276.8 189.389V196.778ZM279.68 203.722C278.78 203.722 277.808 203.944 276.8 204.333V212.722C277.448 212.833 277.988 213.222 278.42 213.889C279.932 216.222 279.176 221.389 276.8 226.278V234.667C277.124 234.222 277.448 233.722 277.736 233.278C280.688 228.722 282.812 223.722 284 219.167V206.667C283.892 206.389 283.748 206.167 283.604 205.944C282.632 204.389 281.3 203.722 279.68 203.722ZM271.651 240.556C272.263 240.111 272.767 239.556 273.271 238.889H258.799C259.015 240.222 259.411 241.333 259.987 242.278C260.959 243.778 262.291 244.444 263.911 244.444C265.603 244.444 267.547 243.667 269.599 242.222C270.319 241.722 270.967 241.167 271.651 240.556ZM281.372 84.7778C281.444 85.5556 281.516 86.2778 281.552 87C281.588 87.7222 281.588 88.4444 281.588 89.1111C281.552 89.9444 281.48 90.7222 281.336 91.4445C281.12 93.8889 279.68 95 278.6 95.5556C277.988 95.9445 277.412 96.2778 276.8 96.6667V110C281.372 108.444 284 102.778 284 92.4444C284 92.4444 284 92.4445 284 92.3889V70.8889C282.308 75.3889 280.328 79.7222 281.372 84.7778ZM282.668 0C283.244 1.77778 283.676 3.61111 284 5.44444V0H282.668ZM280.904 55.6111C280.76 56.2778 280.616 56.9444 280.472 57.6111C280.796 63.2778 279.32 67.3333 277.16 70.7778C277.016 71 276.908 71.1667 276.764 71.3889V79.6667H271.327C268.987 83.5 266.647 87.3889 263.983 90.7778H271.039C274.316 88.4444 277.484 86.6667 277.484 79.5C278.312 78.1111 279.032 76.6667 279.644 75.1111C281.552 70.5556 282.74 65.3889 283.424 59.7778C283.604 59 283.784 58.2222 283.928 57.3889C283.964 57.3333 283.964 57.2778 284 57.1667V42.1111C283.388 45.7778 282.704 49.3889 281.768 52.7778C281.48 53.7222 281.228 54.6667 280.904 55.6111ZM258.727 90.1111C261.931 87.2778 264.703 83.8333 266.755 79.6111H261.463C259.951 82.6111 258.007 85.1667 255.451 87.2222C255.019 87.9445 254.587 88.6667 254.155 89.3889C253.903 89.8333 253.614 90.2778 253.362 90.7222H258.367C258.475 90.5 258.619 90.3333 258.727 90.1111ZM249.222 89.2222C249.762 88.3333 250.302 87.4445 250.806 86.5556C251.166 85.9445 251.49 85.3889 251.814 84.7778C252.894 83.0556 253.975 81.3333 254.983 79.6111H249.798C249.69 79.8333 249.582 80.0556 249.438 80.2778C249.078 80.9445 248.754 81.5556 248.394 82.2222C247.638 83.3333 246.918 84.4444 246.27 86.0556C245.91 86.6667 245.55 87.3333 245.154 87.9445C244.398 88.8889 243.678 89.7778 242.922 90.7222H248.25C248.574 90.2222 248.898 89.7222 249.222 89.2222ZM255.667 10.6667C253.758 8.77778 251.886 8 250.086 8C247.674 8 245.37 9.33333 243.102 11.1667H257.035C256.603 10.9444 256.135 10.8333 255.667 10.6667ZM241.338 80.6111C239.934 87.3333 235.65 88.9445 231.653 90.7222H238.602C240.402 89 242.058 87.0556 243.246 84.2222C243.498 83.6667 243.75 83.1111 243.966 82.5C244.29 81.5 244.65 80.5 245.046 79.5556H241.59C241.482 79.9444 241.41 80.2778 241.338 80.6111ZM237.45 6.72222C242.526 3.22222 247.746 0.944445 253.146 0.944445C254.803 0.944445 256.459 1.16667 258.115 1.61111C258.727 1.66667 259.339 1.77778 259.951 1.94444C261.139 2.22222 262.255 2.66667 263.335 3.22222C263.875 3.5 264.379 3.83333 264.883 4.16667C267.835 5.22222 270.139 7.66667 271.543 11.1111H275.72C276.332 11.1111 276.8 11.8333 276.8 12.7778V51.8889C278.24 48 279.356 43.7778 280.04 39.1667C280.256 38.3889 280.436 37.6111 280.544 36.7778C281.084 33.5556 280.904 30.1111 279.32 26.1111C278.96 24.4444 279.32 22.7778 279.464 21.3333C279.536 20.3333 279.572 19.3333 279.608 18.3333C279.716 11.2222 278.24 4.5 274.784 0H232.085C231.293 3.66667 230.969 7.38889 230.681 11.1111H236.478C236.802 9.66667 237.126 8.22222 237.45 6.72222ZM226.325 11.1111C226.613 7.38889 226.793 3.66667 227.297 0H223.769C223.949 3.72222 223.805 7.44444 223.193 11.1111H226.325ZM216.569 11.1111H218.981C219.161 10.5 219.341 9.83333 219.485 9.22222C219.701 8.27778 219.809 7.33333 219.881 6.38889C220.169 4.11111 219.845 2 219.413 0H211.564C212.14 2 212.5 4.11111 212.536 6.27778C214.049 7.61111 215.417 9.22222 216.569 11.1111ZM154.97 8.55556C155.438 7.94444 155.906 7.38889 156.374 6.83333C157.778 5.11111 159.182 3.27778 160.478 1.11111C160.658 0.722222 160.838 0.333333 161.018 0H155.69C155.15 0.5 154.61 1.05556 154.07 1.61111C153.782 1.88889 153.529 2.22222 153.241 2.5C153.565 4.77778 154.142 6.94444 154.682 9.05556C154.754 8.88889 154.862 8.72222 154.97 8.55556ZM163.862 11.1111C164.078 10.8889 164.33 10.7222 164.546 10.5556C168.506 7.38889 172.61 5.83333 176.607 3.77778C176.679 3.72222 176.751 3.72222 176.823 3.66667C177.507 3.38889 178.191 3.05556 178.839 2.77778C181.359 1.72222 183.843 0.888889 186.255 0.333333C186.723 0.222222 187.191 0.111111 187.659 0H169.766C167.534 1.77778 165.59 4 163.718 6.5C163.214 7.16667 162.71 7.83333 162.206 8.5C161.558 9.38889 160.874 10.2222 160.226 11.1111H163.862ZM203.284 0.777778C203.176 0.5 203.068 0.277778 202.96 0H200.764C201.196 0.111111 201.628 0.222222 202.06 0.333333C202.492 0.5 202.888 0.611111 203.284 0.777778ZM144.385 11.1111H148.993C147.625 7.55556 146.041 4.11111 145.213 0H134.917C135.385 0.444444 135.889 0.888889 136.321 1.33333C139.165 3.55556 142.297 6.94444 144.385 11.1111ZM98.5907 8.33333C100.787 6.38889 102.155 2 104.531 0H94.0545C91.3904 2.11111 88.6902 4.27778 85.9901 6.38889V13.7778C86.3141 13.4444 86.6381 13.1667 86.9982 12.8333C90.6703 9.44445 94.9906 11.6667 98.5907 8.33333ZM132.972 11.1111L132.936 11.0556C132.396 10.5 131.82 9.94445 131.244 9.5C130.74 9 130.236 8.5 129.696 8.11111C126.384 5.38889 122.424 4.11111 118.032 4.11111C116.088 4.11111 114.036 4.38889 111.947 4.88889C111.191 5.05556 110.399 5.27778 109.607 5.55556C108.671 6.11111 106.871 6.11111 106.511 7.22222C105.719 8.77778 104.855 10.0556 103.955 11.1111H132.972ZM91.4984 22.3333C92.0744 22.0556 92.6144 21.8333 93.1905 21.5556V16.7222C92.3264 16.8889 91.4624 17.0556 90.5983 17.2222C89.9143 17.7222 89.3023 18.2222 88.6542 18.7778C87.7542 19.5556 86.8901 20.2778 85.9901 21.0556V26.7778C87.2142 25.6667 88.4382 24.6111 89.6983 23.6667C90.3103 23.1667 90.8863 22.7222 91.4984 22.3333ZM93.1905 48.9444C92.8304 49.1667 92.5064 49.3333 92.1104 49.4444C90.1303 49.7778 88.0062 49.7222 85.9901 50.3333V56.7222C88.4382 55.8889 90.8143 54.6111 93.1905 53.3333V48.9444ZM93.1905 113.722V109.778C90.8143 112.889 88.4022 115.556 85.9901 117.778V124.944C87.6822 123.389 89.4103 121.611 91.1024 119.722C91.7504 117.722 92.4704 115.722 93.1905 113.722ZM103.271 79.6111H98.6267C97.6547 83.3333 96.1786 87.1111 95.3506 89.9444C95.2426 90.2222 95.0986 90.5 94.9906 90.7222H99.1668C100.319 87.2222 101.975 83.4445 103.271 79.6111ZM93.1905 59.1667C91.3544 60 89.5543 61.1111 87.8622 61.9444C87.2502 62.4444 86.6381 62.9444 85.9901 63.5556V70.7222C88.5462 68.3889 91.0664 67 93.1905 66.7778V59.1667ZM93.1905 94.1111C92.7944 94.8333 92.3624 95.5556 91.8944 96.2222C89.9863 99.1667 87.9702 101.556 85.9901 103.389V110.556C88.4022 108.333 90.8503 105.5 93.1905 102.167V94.1111ZM90.9224 89.3333C91.3904 88.3333 91.8224 87.3333 92.1824 86.3889C92.7584 84.6667 93.3705 81.9444 93.2625 79.6667H93.1905V79.0556C93.0105 77.6111 92.5064 76.4445 91.4624 75.8889C91.1384 75.7222 90.7783 75.6667 90.3823 75.6667C90.2743 75.6667 90.1303 75.6667 89.9863 75.6667C88.7982 75.7778 87.3942 76.5556 85.9901 77.8889V96.2222C87.1062 95.2222 88.2222 93.8333 89.3023 92.2222C89.9143 91.2778 90.4543 90.2778 90.9224 89.3333ZM218.153 81.1111C218.369 82.5556 218.765 83.8333 219.413 84.7778C220.385 86.2778 221.717 86.9445 223.337 86.9445C223.373 86.9445 223.409 86.9445 223.445 86.9445C223.445 86.9445 223.445 86.9445 223.481 86.9445C224.057 86.9445 224.669 86.8889 225.317 86.7222C229.385 85.6667 235.11 85.5556 237.63 79.6111H213.652C212.824 83.2778 211.852 86.9445 210.772 90.7222H215.489C216.497 87.5 217.361 84.2778 218.153 81.1111ZM110.003 85.4445C110.759 83.8333 111.551 82.3333 112.487 81C112.739 80.5556 113.027 80.0556 113.279 79.6111H107.807C105.791 83.1111 103.955 86.7222 102.335 90.7222H107.591C108.383 88.9445 109.175 87.1667 110.003 85.4445ZM93.1905 128.111C84.874 157.222 84.262 183.556 93.1905 198.333V174.278C92.2904 167.722 92.3264 160.278 93.1905 152.278V128.111ZM202.384 11.1111C199 9.16667 195.22 8.22222 191.079 8.22222C186.867 8.22222 182.295 9.22222 177.507 11.1111H202.384ZM206.056 90.7222C207.1 86.9445 208.036 83.2222 208.792 79.6111H203.86C203.176 83.2222 202.312 86.9445 201.304 90.7222H206.056ZM117.06 90.7222C117.312 90.2222 117.564 89.7222 117.816 89.2222C119.94 83.8333 124.296 83.3333 127.5 79.6111H119.832C118.32 81.4445 116.736 83.1667 115.152 85.1111C114.828 85.7222 114.504 86.2778 114.18 86.8889C113.531 88.1667 112.883 89.4445 112.271 90.7222H117.06ZM164.51 159.278H160.226C155.186 161.278 151.261 165.056 147.805 170.389H152.161C155.51 165.278 159.794 162.056 164.51 159.278ZM106.835 170.389C105.575 167.167 104.783 163.389 104.387 159.278H98.3387C98.3747 163.222 98.6987 166.944 99.3108 170.389H106.835ZM193.671 79.6111C193.239 83.1667 192.555 86.8889 191.691 90.7222H196.516C197.488 86.9445 198.244 83.2222 198.82 79.6111H193.671ZM128.904 82.4444C128.436 83.1111 127.932 83.8333 127.428 84.4445C125.88 86.3889 124.224 88.1667 122.388 89.7778C122.208 90.1111 122.064 90.3889 121.884 90.7222H126.708C126.78 90.6111 126.852 90.5 126.924 90.3889C129.732 87.6111 132.252 83.7222 134.485 79.6111H130.884C130.38 80.6111 129.768 81.6111 128.904 82.4444ZM117.024 170.389H139.849C140.641 169.944 141.397 169.5 142.189 169C142.549 168.778 142.945 168.556 143.305 168.278C146.365 165.389 148.957 161.667 152.233 159.278H145.285C144.493 159.889 143.701 160.5 142.945 161.167C142.189 161.667 141.433 162.056 140.677 162.444C137.005 164.333 133.512 165.278 130.38 165.278C125.988 165.278 122.244 163.333 119.616 159.278H111.155C111.875 162.278 112.991 165 114.432 167.222C115.224 168.444 116.088 169.5 117.024 170.389ZM186.795 90.7222C187.587 86.8333 188.127 83.1111 188.343 79.6111H182.655C182.763 83 182.475 86.7778 181.791 90.7222H186.795ZM144.385 79.6111H139.381C137.509 83.8333 135.061 87.2778 132.54 90.7222H139.561C140.857 88.5556 142.009 86.0556 142.873 82.7778C143.233 81.7222 143.737 80.6667 144.385 79.6111ZM144.205 90.7222H147.985C148.237 90.1667 148.489 89.6111 148.705 89.0556C149.029 88.6111 149.389 88.2222 149.749 87.8333C154.61 82.6111 159.506 79.7778 163.394 79.7778C165.698 79.7778 167.642 80.7778 169.046 82.8889C170.306 84.8333 170.954 87.5556 171.062 90.7222H176.643C177.075 86.5556 176.931 82.7222 176.175 79.6111H150.757C150.649 79.7222 150.541 79.8333 150.433 79.9444C150.073 80.2778 149.713 80.6667 149.353 81.0556C146.797 83.0556 145.645 86.9445 144.205 90.7222ZM154.574 90.7222H163.754C162.818 89.3333 161.486 88.7222 159.938 88.7222C158.354 88.7222 156.518 89.4445 154.574 90.7222ZM117.78 240C117.42 240.722 117.096 241.5 116.808 242.278C115.62 244.611 115.296 247.278 115.044 249.944H117.852C117.852 245.278 119.508 241.833 121.884 238.833H118.356C118.14 239.278 117.96 239.611 117.78 240ZM215.237 250H219.341C220.709 246 222.401 242.278 224.669 238.889H219.809C218.081 242.444 216.569 246.111 215.237 250ZM231.365 167.056C231.365 166.222 231.365 165.444 231.329 164.667C231.257 163.056 231.113 161.5 230.753 160C230.681 159.722 230.609 159.5 230.537 159.278H215.525C217.073 160.111 218.585 161.111 220.025 162.278C220.637 162.889 221.213 163.556 221.717 164.222C223.049 166 224.165 168.056 225.029 170.389H231.401C231.365 169.278 231.365 168.167 231.365 167.056ZM178.983 170.278C184.383 167.833 188.739 162.667 193.852 159.278H184.383C182.331 160.778 180.243 161.889 177.975 162.333C177.327 162.722 176.715 163.167 176.067 163.556C174.339 164.889 172.61 166.278 170.918 167.611C170.414 168.056 169.946 168.5 169.442 168.944C168.974 169.389 168.47 169.833 168.002 170.278C167.966 170.278 167.93 170.333 167.93 170.333H178.875C178.875 170.333 178.947 170.278 178.983 170.278ZM136.573 238.889H131.712C128.904 240.944 125.484 241.222 123.792 245.556C123.18 247.056 123.396 248.556 124.008 250H129.012C128.58 249.111 128.256 248.167 128.148 247.222C127.104 241.5 133.404 241.611 136.573 238.889ZM215.309 170.389C210.448 166.889 204.724 165.389 199.468 165.333C199.36 165.333 199.288 165.333 199.18 165.333C198.676 165.333 198.172 165.333 197.668 165.389C193.78 165.556 190.179 167.389 187.011 170.389H215.309ZM206.992 239.111C206.38 243.167 205.336 246.778 203.968 250H207.568C208.288 248.222 208.936 246.333 209.512 244.333C209.8 243.611 210.088 242.889 210.376 242.167C210.808 241.111 211.24 240 211.636 238.944H207.064C207.028 238.944 206.992 239.056 206.992 239.111ZM198.1 239.611C197.056 243.778 195.184 246.944 193.203 250H199.252C200.872 246.722 202.096 243 202.996 238.889H198.316C198.244 239.111 198.172 239.333 198.1 239.611ZM142.369 238.889C141.613 239.556 140.821 240.167 140.029 240.722C139.417 241.167 138.805 241.556 138.193 242C136.393 243.889 133.152 242.778 133.152 246.667C133.152 247.944 133.404 249 133.8 250H141.721C141.721 249.444 141.757 248.889 141.793 248.333C141.793 246.444 142.549 245.222 143.593 244.111C143.953 243.722 144.313 243.389 144.709 243.056C146.257 242.611 146.977 240.889 147.553 238.944L142.369 238.889ZM149.677 250H155.546C156.122 246.389 156.554 242.722 156.95 238.889H151.837C151.045 242.556 150.325 246.278 149.677 250ZM182.475 250H186.939C188.631 246.111 190.827 242.722 192.735 238.889H187.515C185.679 242.333 183.699 245.667 182.475 250ZM178.947 238.889C178.371 240.222 177.759 241.5 177.291 242.611C177.039 243.111 176.751 243.667 176.427 244.111C176.031 244.778 175.599 245.333 175.203 245.889C173.618 247.889 171.998 249.333 170.522 250H177.939C178.371 249.389 178.659 248.611 178.983 247.944C179.271 247.389 179.595 246.778 179.847 246.111C180.747 243.444 181.899 241.167 182.979 238.833H178.947V238.889ZM166.922 239.722C167.03 239.444 167.138 239.167 167.246 238.889H162.53C161.486 242.333 160.622 246.389 160.55 250H167.246C164.906 248.333 165.626 242.611 166.922 239.722Z" fill="#F5B47F"/>
<path d="M193.672 79.6111H198.82C198.64 80.7222 198.424 81.8889 198.208 83.0556C196.768 84.1667 195.364 85.2778 193.924 86.4445C193.42 86.7778 192.916 87.1111 192.376 87.4444C192.916 84.7778 193.348 82.1667 193.672 79.6111ZM181.792 90.7222H185.608C186.076 90.3889 186.508 90.1111 186.976 89.7778C187.552 86.8333 187.984 84 188.2 81.2222C186.22 82.5 184.312 84.0556 182.44 85.6667C182.296 87.3333 182.08 89.0556 181.792 90.7222ZM177.615 162.556C177.111 162.889 176.607 163.222 176.067 163.556C174.627 164.667 173.223 165.778 171.783 166.944C171.567 168.111 171.351 169.278 171.171 170.389H176.319C176.643 167.833 177.075 165.222 177.615 162.556ZM176.643 90.7222C176.643 90.6111 176.679 90.5 176.679 90.3333C176.499 90.4445 176.319 90.5556 176.139 90.7222H176.643ZM193.348 159.278C193.348 159.389 193.312 159.5 193.312 159.667C193.492 159.556 193.672 159.444 193.852 159.278H193.348ZM206.057 90.7222C206.093 90.5556 206.129 90.4445 206.165 90.2778C205.949 90.4445 205.697 90.5556 205.481 90.7222H206.057ZM188.2 159.278H184.384C183.916 159.611 183.484 159.889 183.016 160.222C182.44 163.167 182.008 166 181.792 168.778C183.772 167.5 185.68 165.944 187.552 164.333C187.696 162.667 187.912 160.944 188.2 159.278ZM236.478 11.1111C236.622 10.4444 236.766 9.83333 236.91 9.16667C235.65 9.72222 234.39 10.2778 233.418 11.1111H236.478ZM223.338 87C223.374 87 223.41 87 223.446 87C223.446 87 223.446 87 223.482 87C224.058 87 224.67 86.9445 225.318 86.7778C229.386 85.7222 235.11 85.6111 237.63 79.6667H230.142C229.35 80.1111 228.594 80.5556 227.802 81.0556C227.442 81.2778 227.046 81.5 226.686 81.7778C225.03 83.3333 223.518 85.1111 221.97 86.8333C222.366 86.8889 222.834 87 223.338 87ZM248.107 11.1111H251.635C251.815 10.7222 252.031 10.3889 252.211 10C252.427 9.55556 252.643 9.05556 252.823 8.61111C251.923 8.22222 251.059 8 250.195 8C249.619 9.11111 248.899 10.1111 248.107 11.1111ZM220.205 162.167C220.169 162.222 220.097 162.278 220.061 162.333C220.637 162.889 221.178 163.556 221.718 164.222C222.15 164.833 222.582 165.444 222.978 166.111C224.094 164.111 224.886 161.667 225.786 159.278H222.006C221.754 159.833 221.502 160.389 221.285 160.944C220.925 161.333 220.565 161.778 220.205 162.167ZM187.336 170.389C187.336 170.278 187.336 170.222 187.336 170.111C187.228 170.222 187.156 170.278 187.048 170.389H187.336ZM182.656 79.6111C182.656 79.7222 182.656 79.7778 182.656 79.8889C182.764 79.7778 182.836 79.7222 182.944 79.6111H182.656ZM93.1911 198.333V198.111C93.1911 198.167 93.1551 198.222 93.1551 198.278C93.1551 198.278 93.1911 198.278 93.1911 198.333ZM104.784 85.2778C107.448 84.2222 110.076 83.0556 111.732 80.7222C111.984 80.3889 112.2 80 112.416 79.6111H107.808C106.764 81.4445 105.756 83.3333 104.784 85.2778ZM114.216 86.9445C114.144 87.1111 114.072 87.2222 114 87.3889C114.396 86.8889 114.756 86.3333 115.08 85.7778C115.404 85.2778 115.692 84.7778 115.98 84.2222C115.728 84.5556 115.476 84.8333 115.188 85.1667C114.864 85.7222 114.54 86.3333 114.216 86.9445ZM106.98 90.7222H107.592C107.7 90.5 107.772 90.3333 107.88 90.1111C107.592 90.3333 107.268 90.5556 106.98 90.7222ZM121.2 79.6111C120.336 80.6667 119.508 81.7778 118.68 82.8889C118.248 83.6111 117.816 84.3333 117.384 85.0556C116.268 87 115.116 88.8889 113.928 90.6667H117.06C117.312 90.1667 117.564 89.6667 117.816 89.1667C118.104 88.4445 118.428 87.7778 118.788 87.2222C118.932 86.8333 119.04 86.5 119.184 86.1667C119.472 85.4445 119.796 84.7778 120.156 84.1111C120.948 82.3333 122.029 81.1111 123.181 80.1667C122.641 81.5 122.101 82.8333 121.597 84.2222C123.505 82.7222 125.665 81.6667 127.465 79.5556H121.2V79.6111ZM115.836 160.611C116.088 160.167 116.376 159.722 116.628 159.278H111.66C111.552 159.5 111.408 159.667 111.3 159.833C111.732 161.444 112.236 162.889 112.848 164.278C113.388 163.722 113.928 163.222 114.54 162.778C114.972 162.056 115.404 161.333 115.836 160.611ZM128.905 82.4444C128.437 83.1111 127.933 83.8333 127.429 84.4445C125.917 86.3889 124.261 88.1111 122.461 89.7222C122.605 90.0556 122.749 90.3889 122.929 90.7222H126.709C126.781 90.6111 126.853 90.5 126.925 90.3889C127.357 89.9445 127.753 89.5556 128.149 89.0556C127.861 88.3333 127.609 87.5 127.393 86.6667C126.673 83.3333 129.913 83.3333 131.353 81.1111C131.677 80.6111 131.893 80.1111 132.037 79.6111H130.849C130.381 80.6111 129.769 81.6111 128.905 82.4444ZM120.552 169.722C120.912 169.056 121.236 168.444 121.597 167.778C122.353 166.667 123.073 165.556 123.721 163.944C123.793 163.833 123.865 163.667 123.937 163.556C122.785 162.833 121.705 161.944 120.732 160.778C120.192 161.667 119.688 162.5 119.184 163.389C118.824 164 118.5 164.556 118.176 165.167C117.384 166.444 116.556 167.722 115.764 169.056C116.16 169.556 116.592 169.944 117.024 170.389H120.192C120.3 170.167 120.444 169.944 120.552 169.722ZM257.035 11.1111C256.567 10.9444 256.135 10.8333 255.667 10.6667C255.523 10.5 255.379 10.3889 255.235 10.2222C255.127 10.5 255.019 10.8333 254.911 11.1111H257.035ZM104.604 161.111C104.532 160.5 104.46 159.889 104.388 159.278H98.9154C98.7354 159.444 98.5194 159.556 98.3393 159.722C98.3753 163.222 98.6634 166.5 99.1674 169.556C100.931 166.667 102.696 163.778 104.604 161.111ZM162.243 8.5C161.595 9.38889 160.91 10.2222 160.262 11.1111H162.963C162.999 11.0556 163.035 10.9444 163.035 10.8889C163.287 9.27778 163.575 7.72222 163.971 6.27778C163.899 6.33333 163.863 6.44444 163.791 6.5C163.251 7.16667 162.747 7.83333 162.243 8.5ZM157.634 81.5C159.686 80.3889 161.667 79.7778 163.395 79.7778C165.699 79.7778 167.643 80.7778 169.047 82.8889C169.371 83.3889 169.695 84 169.947 84.6111C170.127 84.6111 170.343 84.6111 170.523 84.6111C170.631 84.6111 170.703 84.6111 170.811 84.6111C171.315 84.6111 171.819 84.6111 172.323 84.5556C173.871 84.5 175.347 84.1667 176.787 83.6111C176.679 82.1667 176.463 80.8333 176.175 79.5556H154.682C155.618 80.3333 156.626 80.9445 157.634 81.5ZM138.625 81.2222C138.625 81.7778 138.625 82.3333 138.625 82.8889C138.625 83.7222 138.625 84.5 138.661 85.2778C138.733 86.8889 138.877 88.4444 139.237 89.9444C139.309 90.2222 139.381 90.4445 139.453 90.6667H139.525C140.821 88.5 141.974 86 142.838 82.7222C143.198 81.6667 143.702 80.6111 144.35 79.5556H139.345C139.129 80.1667 138.877 80.7222 138.625 81.2222ZM128.653 169.389C129.013 167.722 129.517 166.389 130.165 165.278C129.121 165.278 128.077 165.111 127.141 164.889C126.997 165.167 126.853 165.5 126.745 165.778C126.493 166.333 126.241 166.889 126.025 167.5C125.701 168.5 125.341 169.5 124.945 170.444H128.401C128.509 170.056 128.581 169.722 128.653 169.389ZM182.476 11.1111C182.836 10.4444 183.16 9.83333 183.52 9.16667C181.576 9.66667 179.559 10.2778 177.507 11.1111H182.476ZM262.4 159.278C262.292 159.5 262.22 159.667 262.112 159.889C262.4 159.667 262.688 159.444 263.012 159.278H262.4ZM143.666 238.889C143.522 240.778 143.414 242.611 143.27 244.5C143.378 244.389 143.486 244.222 143.63 244.111C143.99 243.722 144.35 243.389 144.746 243.056C145.466 242.833 146.006 242.389 146.402 241.722C146.51 240.778 146.618 239.833 146.762 238.889H143.666ZM93.1911 217.167V212.722C92.7231 212.278 92.291 211.833 91.823 211.389C91.031 212.444 90.2389 213.611 89.4469 214.778C89.3389 214.944 89.2669 215.056 89.1589 215.222C89.0149 217.389 89.2669 219.667 90.0229 222.222C90.635 221.056 91.319 219.944 92.039 218.833C92.435 218.278 92.8311 217.722 93.1911 217.167ZM215.957 248.389C216.245 248.111 216.497 247.778 216.785 247.5C216.713 247.111 216.677 246.722 216.605 246.333C216.317 247.111 216.029 247.889 215.741 248.667C215.813 248.556 215.885 248.5 215.957 248.389ZM264.416 83.6667C265.28 82.3889 266.036 81.0556 266.756 79.6111H263.156C263.66 80.8889 264.092 82.2222 264.416 83.6667ZM122.245 11.1111C122.605 8.88889 122.857 6.72222 122.929 4.66667C121.38 4.27778 119.724 4.11111 118.032 4.11111C117.636 4.11111 117.204 4.11111 116.808 4.16667C117.204 6.22222 117.276 8.55556 117.096 11.1667H122.245V11.1111ZM222.474 242.611C223.158 241.333 223.878 240.056 224.706 238.889H220.997C221.466 240.111 221.97 241.389 222.474 242.611ZM89.6989 23.6111C90.2749 23.1667 90.887 22.7222 91.499 22.2778C92.075 22 92.6151 21.7778 93.1911 21.5V16.6667C92.8671 16.7222 92.507 16.7778 92.183 16.8333C90.4909 19.4444 89.0509 22.2222 87.9348 25C88.5108 24.5556 89.1229 24.1111 89.6989 23.6111ZM242.779 238.889H237.918C237.846 239.111 237.81 239.389 237.738 239.611C238.062 239.944 238.422 240.222 238.746 240.5C239.25 241 239.754 241.5 240.294 241.889C240.834 242.333 241.411 242.722 241.987 243.111C242.203 241.722 242.455 240.333 242.779 238.889ZM276.8 32.8333V37.2778C277.268 37.7222 277.7 38.1667 278.168 38.6111C278.96 37.5556 279.752 36.3889 280.544 35.2222C280.652 35.0556 280.724 34.9444 280.832 34.7778C280.977 32.6111 280.724 30.3333 279.968 27.7778C279.356 28.9444 278.672 30.0556 277.952 31.1667C277.556 31.7222 277.16 32.2778 276.8 32.8333ZM269.42 7.44444C271.58 5.33333 273.956 3.77778 276.44 2.61111C275.936 1.66667 275.396 0.777778 274.784 0H269.528C267.908 1.22222 266.324 2.55556 264.92 4.16667C266.684 4.77778 268.196 5.94444 269.42 7.44444ZM280.292 226.389C279.716 226.833 279.104 227.278 278.492 227.722C277.916 228 277.376 228.222 276.8 228.5V233.333C277.124 233.278 277.484 233.222 277.808 233.167C279.5 230.556 280.94 227.778 282.057 225C281.481 225.444 280.868 225.889 280.292 226.389ZM247.747 238.889C247.387 241.111 247.135 243.278 247.063 245.333C248.611 245.722 250.267 245.944 251.959 245.944C252.355 245.944 252.787 245.944 253.183 245.889C252.787 243.833 252.715 241.5 252.895 238.889H247.747ZM266.036 238.889H258.835C259.051 240.222 259.447 241.333 260.023 242.278C260.527 243.056 261.139 243.611 261.824 243.944C262.544 243.722 263.264 243.444 263.48 242.778C264.272 241.222 265.136 239.944 266.036 238.889ZM127.213 11.1111H132.073C132.145 10.8889 132.181 10.6111 132.253 10.3889C131.929 10.0556 131.569 9.77778 131.245 9.5C130.741 9 130.237 8.5 129.697 8.11111C129.157 7.66667 128.581 7.27778 128.005 6.88889C127.789 8.27778 127.537 9.66667 127.213 11.1111ZM103.956 11.1111H111.156C110.94 9.77778 110.544 8.66667 109.968 7.72222C109.464 6.94444 108.852 6.38889 108.168 6.05556C107.448 6.27778 106.728 6.55556 106.512 7.22222C105.72 8.77778 104.856 10.0556 103.956 11.1111ZM255.775 163.056C255.847 162.889 255.919 162.778 255.991 162.611C255.595 163.111 255.235 163.667 254.911 164.222C254.587 164.722 254.299 165.222 254.011 165.778C254.263 165.444 254.515 165.167 254.803 164.833C255.127 164.278 255.451 163.667 255.775 163.056ZM248.791 170.389C249.655 169.333 250.483 168.222 251.311 167.111C251.743 166.389 252.175 165.667 252.607 164.944C253.723 163 254.875 161.111 256.063 159.333H252.931C252.679 159.833 252.427 160.333 252.175 160.833C251.887 161.556 251.563 162.222 251.203 162.778C251.059 163.167 250.951 163.5 250.807 163.833C250.519 164.556 250.195 165.222 249.835 165.889C249.043 167.667 247.963 168.889 246.811 169.833C247.351 168.5 247.891 167.167 248.395 165.778C246.487 167.278 244.327 168.333 242.527 170.444H248.791V170.389ZM249.439 80.2778C249.079 80.9445 248.755 81.5556 248.395 82.2222C247.639 83.3333 246.919 84.4444 246.271 86.0556C246.199 86.1667 246.127 86.3333 246.055 86.4445C247.207 87.1667 248.287 88.0556 249.259 89.2222C249.799 88.3333 250.303 87.5 250.807 86.6111C251.167 86 251.491 85.4445 251.815 84.8333C252.607 83.5556 253.435 82.2778 254.227 80.9445C253.831 80.4445 253.399 80.0556 252.967 79.6111H249.799C249.691 79.8333 249.547 80.0556 249.439 80.2778ZM254.155 89.3889C253.903 89.8333 253.615 90.2778 253.363 90.7222H258.367C258.475 90.5 258.619 90.3333 258.727 90.1667C258.295 88.5556 257.791 87.1111 257.179 85.7222C256.639 86.2778 256.099 86.7778 255.487 87.2222C255.019 87.9445 254.587 88.6667 254.155 89.3889ZM265.208 164.722C262.544 165.778 259.915 166.944 258.259 169.278C258.007 169.611 257.791 170 257.575 170.389H262.184C263.228 168.556 264.236 166.667 265.208 164.722ZM265.388 88.8889C265.46 89.5 265.532 90.1111 265.604 90.7222H271.076C271.256 90.5556 271.472 90.4445 271.652 90.2778C271.616 86.7778 271.328 83.5 270.824 80.4445C269.06 83.3333 267.296 86.2222 265.388 88.8889ZM241.339 80.6111C240.978 82.2778 240.474 83.6111 239.826 84.7222C240.87 84.7222 241.915 84.8889 242.851 85.1111C242.995 84.8333 243.139 84.5 243.247 84.2222C243.499 83.6667 243.751 83.1111 243.967 82.5C244.291 81.5 244.651 80.5 245.047 79.5556H241.591C241.483 79.9444 241.411 80.2778 241.339 80.6111ZM226.326 11.1111C226.47 9.22222 226.578 7.38889 226.722 5.5C226.614 5.61111 226.506 5.77778 226.362 5.88889C226.002 6.27778 225.642 6.61111 225.246 6.94444C224.526 7.16667 223.986 7.61111 223.59 8.27778C223.482 9.22222 223.374 10.1667 223.23 11.1111H226.326ZM154.034 1.61111C153.746 1.88889 153.494 2.22222 153.206 2.5C153.278 2.88889 153.314 3.27778 153.386 3.66667C153.674 2.88889 153.962 2.11111 154.25 1.33333C154.178 1.44444 154.106 1.5 154.034 1.61111ZM100.427 87.2222C101.363 84.7778 102.408 82.2222 103.272 79.6667H101.003C100.175 80 99.3114 80.2778 98.4113 80.5C97.5473 83.6111 96.3592 86.7778 95.5672 89.2778C96.5393 88.8333 97.5473 88.5 98.4833 88.0556C99.1314 87.7778 99.7794 87.5 100.427 87.2222ZM276.008 10.6111C275.972 10.6111 275.936 10.6111 275.9 10.6111C275.216 10.6111 274.604 10.7778 274.028 11.1111H276.8V24.5556C279.32 19.5556 280.148 14.2222 278.6 11.8333C278.276 11.3333 277.916 11.0556 277.484 10.8333C277.16 10.6667 276.8 10.6111 276.404 10.6111C276.26 10.6111 276.152 10.6111 276.008 10.6111ZM276.8 51.6667V51.8889C276.8 51.8333 276.836 51.7778 276.836 51.7222C276.836 51.7222 276.8 51.7222 276.8 51.6667ZM147.518 7.38889C146.834 8.66667 146.114 9.94444 145.286 11.1111H148.994C148.526 9.88889 148.022 8.61111 147.518 7.38889ZM188.272 8.33333C187.84 9.27778 187.408 10.1667 186.976 11.1111H191.044C191.476 10.1111 191.908 9.11111 192.304 8.27778C191.908 8.27778 191.476 8.22222 191.08 8.22222C190.144 8.22222 189.244 8.27778 188.272 8.33333ZM86.2427 246.167C86.1707 246.056 86.0627 245.889 85.9907 245.778V250H87.3228C86.9268 248.778 86.6388 247.556 86.3507 246.333C86.3147 246.278 86.2787 246.222 86.2427 246.167ZM100.571 242.556C98.4113 244.667 96.0352 246.222 93.5511 247.389C94.0551 248.333 94.5952 249.222 95.2072 250H100.463C102.084 248.778 103.668 247.444 105.072 245.833C103.308 245.222 101.796 244.056 100.571 242.556ZM93.1911 100.333C90.815 102.111 88.4028 102.889 85.9907 103.722V110.611C88.4028 108.389 90.851 105.556 93.1911 102.222V100.333ZM86.4587 203.5C86.3147 203.167 86.1347 202.833 85.9907 202.5V207.889C86.2067 206.556 86.4587 205.222 86.7108 203.944C86.6028 203.778 86.5307 203.667 86.4587 203.5ZM112.344 248.5C112.2 248.444 112.02 248.444 111.84 248.389C111.228 248.333 110.616 248.222 110.004 248.056C109.572 247.944 109.14 247.833 108.744 247.722C108.132 248.556 107.484 249.278 106.836 250H111.948C112.056 249.556 112.164 249.111 112.272 248.722C112.308 248.611 112.344 248.556 112.344 248.5ZM128.005 246C126.493 246.778 124.981 247.444 123.469 247.944C123.541 248.611 123.721 249.333 124.009 250H129.013C128.581 249.111 128.257 248.167 128.149 247.222C128.041 246.778 128.005 246.389 128.005 246ZM116.844 249.056C116.268 249.056 115.728 249.056 115.152 249C115.116 249.333 115.08 249.667 115.044 250H117.852C117.852 249.667 117.852 249.333 117.888 249C117.528 249.056 117.204 249.056 116.844 249.056ZM93.1911 59.1667C91.355 60 89.5549 61.1111 87.8628 61.9444C87.2508 62.4444 86.6388 62.9444 85.9907 63.5556V63.9444C88.2228 63.4444 90.671 62.3333 93.1911 60.6667V59.1667ZM90.995 10.8333C93.8031 6.83333 96.9353 3.94444 100.067 0.777778C100.427 0.5 100.751 0.222222 101.075 0H94.2711C92.111 3.27778 90.1309 6.83333 87.5028 9C87.0708 9.44445 86.6748 9.94444 86.2787 10.4444C86.1707 10.6111 86.0987 10.7778 85.9907 10.9444V13.7222C86.3147 13.3889 86.6388 13.1111 86.9988 12.7778C88.2588 11.6111 89.6269 11.1667 90.995 10.8333ZM93.1911 53.2222C90.923 54.5556 88.7629 55.2222 86.8548 55.2222C86.5668 55.2222 86.2787 55.2222 85.9907 55.1667V56.6667C88.4388 55.8333 90.815 54.5556 93.1911 53.2778V53.2222ZM93.1911 112.611V109.833C91.427 112.111 89.6269 114.222 87.8268 116C89.6629 115.222 91.499 114.056 93.1911 112.611ZM141.722 6.83333C142.838 4.61111 143.918 2.33333 144.962 0H139.129C138.949 1.05556 138.841 2.16667 138.661 3.38889C139.705 4.38889 140.749 5.55556 141.722 6.83333ZM91.283 76.5556C91.463 76.3889 91.679 76.2778 91.859 76.1111C91.751 76 91.607 75.9445 91.463 75.8889C91.139 75.7222 90.779 75.6667 90.3829 75.6667C90.2749 75.6667 90.1309 75.6667 89.9869 75.6667C88.7989 75.7778 87.3948 76.5556 85.9907 77.8889V79.6111C87.3588 78.9445 88.7269 78.1667 90.1309 77.2778C90.5269 77.0556 90.887 76.8333 91.283 76.5556ZM138.193 242C136.393 243.889 133.153 242.778 133.153 246.667C133.153 247.944 133.405 249 133.801 250H137.905C138.517 247.167 138.841 244.278 139.093 241.389C138.805 241.611 138.517 241.833 138.193 242ZM283.533 46.5C283.677 46.8333 283.857 47.1667 284.001 47.5V42.1111C283.785 43.4444 283.533 44.7778 283.281 46.0556C283.389 46.2222 283.461 46.3333 283.533 46.5ZM278.708 173.444C278.528 173.611 278.312 173.722 278.132 173.889C278.24 174 278.384 174.056 278.528 174.111C278.852 174.278 279.212 174.333 279.608 174.333C279.716 174.333 279.86 174.333 280.004 174.333C281.193 174.222 282.597 173.444 284.001 172.111V170.389C282.633 171.056 281.265 171.833 279.86 172.722C279.464 172.944 279.104 173.167 278.708 173.444ZM276.8 190.833C278.636 190 280.436 188.889 282.129 188.056C282.741 187.556 283.353 187.056 284.001 186.444V186.111C281.769 186.611 279.32 187.722 276.8 189.389V190.833ZM280.688 157.778C280.076 158.722 279.536 159.667 279.068 160.667C278.6 161.667 278.168 162.667 277.808 163.611C277.52 164.5 277.196 165.667 276.98 166.889C278.132 166.167 279.356 165.5 280.544 164.833C280.904 164.611 281.301 164.333 281.661 164.111C282.417 163.611 283.209 163.167 283.965 162.778V155.333C283.065 155.778 282.201 156.278 281.337 156.778C281.12 157.111 280.904 157.444 280.688 157.778ZM173.835 5.11111C174.735 3.27778 175.743 1.61111 176.787 0H170.739C169.479 2.55556 168.471 5.33333 167.679 8.33333C169.731 7.11111 171.783 6.11111 173.835 5.11111ZM276.8 149.667C279.176 147.889 281.589 147.111 284.001 146.278V139.389C281.589 141.611 279.14 144.444 276.8 147.778V149.667ZM282.669 0C283.065 1.22222 283.353 2.44444 283.641 3.66667C283.677 3.72222 283.713 3.77778 283.749 3.83333C283.821 3.94444 283.929 4.11111 284.001 4.22222V0H282.669ZM276.8 196.778C279.068 195.444 281.229 194.778 283.137 194.778C283.425 194.778 283.713 194.778 284.001 194.833V193.333C281.553 194.167 279.176 195.444 276.8 196.722V196.778ZM196.156 244.889C195.256 246.722 194.248 248.389 193.204 250H199.252C200.512 247.444 201.521 244.667 202.313 241.667C200.26 242.889 198.208 243.889 196.156 244.889ZM167.031 250H167.283C167.139 249.889 167.031 249.778 166.887 249.667C166.923 249.778 166.959 249.889 167.031 250ZM183.7 249.667C183.304 249.778 182.908 249.833 182.512 249.944V250H186.976C187.192 249.5 187.408 249 187.624 248.556C186.292 249 184.996 249.389 183.7 249.667ZM153.422 238.889H151.838C151.226 241.722 150.65 244.611 150.146 247.5C150.254 248.333 150.398 249.167 150.578 250H155.546C155.906 247.667 156.23 245.278 156.518 242.833C155.366 241.722 154.322 240.389 153.422 238.889ZM278.996 239.167C276.188 243.167 273.056 246.056 269.924 249.222C269.564 249.5 269.24 249.778 268.916 250H275.72C277.88 246.722 279.86 243.167 282.489 241C282.921 240.556 283.317 240.056 283.713 239.556C283.821 239.389 283.893 239.222 284.001 239.056V236.278C283.677 236.611 283.353 236.889 282.993 237.222C281.733 238.389 280.364 238.833 278.996 239.167ZM228.27 243.167C227.154 245.389 226.074 247.667 225.03 250H230.862C231.042 248.944 231.15 247.833 231.33 246.611C230.286 245.611 229.242 244.444 228.27 243.167ZM157.922 163.889C158.282 162.5 158.642 161.167 159.038 159.778C156.878 160.778 154.934 162.167 153.17 163.833C152.702 165.556 152.27 167.222 151.838 168.889C151.694 167.833 151.442 166.889 151.046 166.056C149.93 167.333 148.85 168.778 147.842 170.389H152.198C153.89 167.778 155.798 165.722 157.922 163.889ZM89.3029 92.2222C89.9149 91.2778 90.4549 90.3333 90.923 89.3333C91.391 88.3333 91.823 87.3333 92.183 86.3889C92.471 85.5 92.7951 84.3333 93.0111 83.1111C91.859 83.8333 90.635 84.5 89.4469 85.1667C89.0869 85.3889 88.6909 85.6667 88.3308 85.8889C87.5748 86.3889 86.7828 86.8333 86.0267 87.2222V94.6667C86.9268 94.2222 87.7908 93.7222 88.6549 93.2222C88.8709 92.8889 89.0869 92.5556 89.3029 92.2222ZM163.935 159.278C163.899 159.444 163.863 159.556 163.827 159.722C164.043 159.556 164.295 159.444 164.511 159.278H163.935ZM133.513 238.889C133.369 239.556 133.225 240.167 133.081 240.833C134.341 240.278 135.601 239.722 136.573 238.889H133.513ZM146.654 163C146.618 163 146.582 163 146.546 163C146.546 163 146.546 163 146.51 163C145.934 163 145.322 163.056 144.674 163.222C140.605 164.278 134.881 164.389 132.361 170.333H139.849C140.641 169.889 141.398 169.444 142.19 168.944C142.55 168.722 142.946 168.5 143.306 168.222C144.962 166.667 146.474 164.889 148.022 163.167C147.626 163.111 147.158 163 146.654 163ZM149.786 87.8333C149.822 87.7778 149.894 87.7222 149.93 87.6667C149.354 87.1111 148.814 86.4444 148.274 85.7778C147.842 85.1667 147.41 84.5556 147.014 83.8889C145.898 85.8889 145.106 88.3333 144.206 90.7222H147.986C148.238 90.1667 148.49 89.6111 148.706 89.0556C149.066 88.6667 149.426 88.2222 149.786 87.8333ZM212.357 168.5C210.305 169.611 208.325 170.222 206.597 170.222C204.293 170.222 202.349 169.222 200.944 167.111C200.62 166.611 200.296 166 200.044 165.389C199.864 165.389 199.648 165.389 199.468 165.389C199.36 165.389 199.288 165.389 199.18 165.389C198.676 165.389 198.172 165.389 197.668 165.444C196.12 165.5 194.644 165.833 193.204 166.389C193.312 167.833 193.528 169.167 193.816 170.444H215.309C214.373 169.667 213.365 169.056 212.357 168.5ZM181.72 241.667C182.152 240.722 182.584 239.833 183.016 238.889H178.947C178.515 239.889 178.083 240.889 177.687 241.722C178.083 241.722 178.515 241.778 178.911 241.778C179.847 241.778 180.747 241.722 181.72 241.667ZM187.516 238.889C187.156 239.556 186.832 240.167 186.472 240.833C188.416 240.333 190.432 239.722 192.484 238.889H187.516ZM105.576 166.333C104.712 167.611 103.956 168.944 103.236 170.389H106.836C106.332 169.111 105.9 167.778 105.576 166.333ZM93.9831 239.389C94.0191 239.389 94.0551 239.389 94.0911 239.389C94.7752 239.389 95.3872 239.222 95.9632 238.889H93.1911V225.444C90.671 230.444 89.8429 235.778 91.391 238.167C91.715 238.667 92.075 238.944 92.507 239.167C92.8311 239.333 93.1911 239.389 93.5871 239.389C93.7311 239.389 93.8391 239.389 93.9831 239.389ZM92.7951 179.278C92.9391 179.056 93.0471 178.889 93.1911 178.667V174.333C92.9031 172.333 92.7231 170.222 92.6151 168.111C92.507 168.889 92.471 169.722 92.471 170.611C91.643 172 90.923 173.444 90.3109 175C89.2669 177.5 88.4388 180.111 87.8268 182.944C88.2588 185.444 88.7989 187.778 89.4829 190C89.6629 185.5 90.995 182.167 92.7951 179.278ZM88.6189 165.222C88.5469 164.444 88.4748 163.722 88.4388 163C88.4028 162.278 88.4028 161.556 88.4028 160.889C88.4388 160.056 88.5108 159.278 88.6549 158.556C88.8709 156.111 90.3109 155 91.391 154.444C91.967 154.111 92.507 153.778 93.0831 153.389C93.1191 153 93.1551 152.667 93.1911 152.278V140C91.859 140.444 90.671 141.278 89.6629 142.444C87.1428 154.889 86.2067 166.444 86.9988 176.389C88.3308 172.889 89.4829 169.278 88.6189 165.222ZM112.956 238.889C113.424 239.056 113.856 239.167 114.324 239.333C114.468 239.5 114.612 239.611 114.756 239.778C114.864 239.5 114.972 239.167 115.08 238.889H112.956ZM186.292 0.333333C186.688 0.222222 187.084 0.166667 187.48 0.0555556V0H183.016C182.8 0.5 182.584 1 182.368 1.44444C183.7 1 184.996 0.611111 186.292 0.333333ZM207.749 241.5C208.397 240.611 209.081 239.778 209.729 238.889H207.029C206.993 238.944 206.957 239.056 206.957 239.111C206.705 240.722 206.417 242.278 206.021 243.722C206.093 243.667 206.129 243.556 206.201 243.5C206.741 242.833 207.245 242.167 207.749 241.5ZM121.885 238.889H118.356C118.176 239.278 117.96 239.611 117.78 240C117.564 240.444 117.348 240.944 117.168 241.389C118.068 241.778 118.932 242 119.796 242C120.372 240.889 121.092 239.889 121.885 238.889ZM231.798 8C233.598 6.11111 236.838 7.22222 236.838 3.33333C236.838 2.05556 236.586 1 236.19 0H232.086C231.474 2.83333 231.15 5.72222 230.898 8.61111C231.186 8.38889 231.474 8.16667 231.798 8ZM212.069 86.1111C211.709 87.5 211.349 88.8333 210.953 90.2222C213.113 89.2222 215.057 87.8333 216.821 86.1667C217.289 84.4445 217.721 82.7778 218.153 81.1111C218.297 82.1667 218.585 83.1111 218.945 83.9445C220.061 82.6667 221.141 81.2222 222.15 79.6111H217.793C216.101 82.2222 214.193 84.2778 212.069 86.1111ZM253.147 0.944445C253.723 0.944445 254.263 0.944444 254.839 1C254.875 0.666667 254.911 0.333333 254.947 0H252.139C252.139 0.333333 252.139 0.666667 252.103 1C252.463 0.944444 252.787 0.944445 253.147 0.944445ZM241.987 4C243.499 3.22222 245.011 2.55556 246.523 2.05556C246.451 1.38889 246.271 0.666667 245.983 0H240.978C241.411 0.888889 241.735 1.83333 241.843 2.77778C241.951 3.22222 241.987 3.61111 241.987 4ZM216.569 11.1111H218.153C218.765 8.27778 219.341 5.38889 219.845 2.5C219.737 1.66667 219.593 0.833333 219.413 0H214.445C214.085 2.33333 213.761 4.72222 213.473 7.16667C214.625 8.27778 215.669 9.61111 216.569 11.1111ZM202.961 0H202.709C202.853 0.111111 202.961 0.222222 203.105 0.333333C203.069 0.222222 203.033 0.111111 202.961 0ZM281.373 84.7778C281.445 85.5556 281.517 86.2778 281.553 87C281.589 87.7222 281.589 88.4444 281.589 89.1111C281.553 89.9444 281.481 90.7222 281.337 91.4445C281.12 93.8889 279.68 95 278.6 95.5556C278.024 95.8889 277.484 96.2222 276.908 96.6111C276.872 97 276.836 97.3333 276.8 97.7222V110C278.132 109.556 279.32 108.722 280.328 107.556C282.849 95.1111 283.785 83.5556 282.993 73.6111C281.661 77.1111 280.508 80.7222 281.373 84.7778ZM276.8 137.389V140.167C278.564 137.889 280.364 135.778 282.165 134C280.328 134.778 278.492 135.944 276.8 137.389ZM269.564 162.778C268.628 165.222 267.584 167.778 266.72 170.333H268.988C269.816 170 270.68 169.722 271.58 169.5C272.444 166.389 273.632 163.222 274.424 160.722C273.452 161.167 272.444 161.5 271.508 161.944C270.86 162.222 270.212 162.5 269.564 162.778ZM257.647 1.5C257.791 1.55556 257.971 1.55556 258.151 1.61111C258.763 1.66667 259.375 1.77778 259.987 1.94444C260.419 2.05556 260.851 2.16667 261.247 2.27778C261.86 1.44444 262.508 0.722222 263.156 0H258.043C257.935 0.444444 257.827 0.888889 257.719 1.27778C257.683 1.38889 257.647 1.44444 257.647 1.5ZM241.086 167.556C241.555 166.889 242.059 166.167 242.563 165.556C244.075 163.611 245.731 161.889 247.531 160.278C247.387 159.944 247.243 159.611 247.063 159.278H243.283C243.211 159.389 243.139 159.5 243.067 159.611C242.635 160.056 242.239 160.444 241.843 160.944C242.131 161.667 242.383 162.5 242.599 163.333C243.319 166.667 240.078 166.667 238.638 168.889C238.314 169.389 238.098 169.889 237.954 170.389H239.142C239.61 169.389 240.222 168.389 241.086 167.556ZM231.366 168.778C231.366 168.222 231.366 167.667 231.366 167.111C231.366 166.278 231.366 165.5 231.33 164.722C231.258 163.111 231.114 161.556 230.754 160.056C230.682 159.778 230.61 159.556 230.538 159.333H230.466C229.17 161.5 228.018 164 227.154 167.278C226.794 168.333 226.29 169.389 225.642 170.444H230.646C230.862 169.833 231.114 169.278 231.366 168.778ZM277.196 70.7222C277.052 70.9445 276.944 71.1111 276.8 71.3333V75.6667C277.088 77.6667 277.268 79.7778 277.376 81.8889C277.484 81.1111 277.52 80.2778 277.52 79.3889C278.348 78 279.068 76.5556 279.68 75C280.724 72.5 281.553 69.8889 282.165 67.0556C281.733 64.5556 281.193 62.2222 280.508 60C280.328 64.5 278.996 67.8333 277.196 70.7222Z" fill="#F2A86D"/>
<path d="M275.72 81.2776H94.2705C93.6585 81.2776 93.1904 80.5553 93.1904 79.6109V72.3887H276.8V79.6109C276.8 80.5553 276.332 81.2776 275.72 81.2776Z" fill="#FEC298"/>
<path d="M275.72 160.944H94.2705C93.6585 160.944 93.1904 160.221 93.1904 159.277V152.055H276.8V159.277C276.8 160.166 276.332 160.944 275.72 160.944Z" fill="#FEC298"/>
<path d="M275.72 240.555H94.2705C93.6585 240.555 93.1904 239.833 93.1904 238.888V231.666H276.8V238.888C276.8 239.833 276.332 240.555 275.72 240.555Z" fill="#FEC298"/>
<path d="M276.8 72.3887H93.1904V79.6109H276.8V72.3887Z" fill="#C77A3F"/>
<path d="M276.8 152.055H93.1904V159.277H276.8V152.055Z" fill="#C77A3F"/>
<path d="M276.8 231.666H93.1904V238.888H276.8V231.666Z" fill="#C77A3F"/>
<path d="M277 172.055H95.1636C95.1636 171.11 95.6271 170.388 96.2332 170.388H275.93C276.536 170.388 277 171.11 277 172.055ZM275.93 90.7215H96.2332C95.6271 90.7215 95.1636 91.4437 95.1636 92.3881H277C277 91.4992 276.536 90.7215 275.93 90.7215ZM275.93 11.1104H96.2332C95.6271 11.1104 95.1636 11.8326 95.1636 12.777H277C277 11.8326 276.536 11.1104 275.93 11.1104Z" fill="#9E6945"/>
<path d="M156.741 139.667C156.741 149.667 158.528 157 144.782 157C131.037 157 132.824 149.611 132.824 139.667C132.824 129.667 138.185 117.444 144.782 117.444C151.38 117.444 156.741 129.722 156.741 139.667Z" fill="#DE852A"/>
<path d="M144.599 130.889C140.476 130.889 137.177 138.111 137.177 145.333C137.177 146.944 137.36 148.5 137.681 149.944C139.422 153.166 141.896 155.166 144.645 155.166C147.394 155.166 149.868 153.166 151.609 149.944C151.93 148.5 152.113 146.944 152.113 145.333C152.022 138.111 148.723 130.889 144.599 130.889Z" fill="#FFEABE"/>
<path d="M140.061 155.926C142.691 153.795 142.966 148.696 140.674 144.538C138.382 140.379 134.392 138.735 131.762 140.866C129.132 142.997 128.858 148.096 131.149 152.254C133.441 156.413 137.431 158.057 140.061 155.926Z" fill="#ED9A2A"/>
<path d="M140.98 145.111C142.262 148.778 141.713 152.722 139.468 154.5C136.856 156.611 132.87 155 130.579 150.834C130.487 150.667 130.396 150.445 130.304 150.278C130.533 150.945 130.808 151.611 131.174 152.222C133.465 156.389 137.452 158 140.063 155.889C142.537 153.834 142.904 149.111 140.98 145.111Z" fill="#DE852A"/>
<path d="M138.467 154.402C139.793 153.328 139.876 150.658 138.653 148.438C137.43 146.219 135.363 145.29 134.038 146.364C132.712 147.438 132.629 150.108 133.852 152.328C135.076 154.547 137.142 155.476 138.467 154.402Z" fill="#FFEABE"/>
<path d="M130.716 142.555C129.113 145.111 129.983 148.444 131.083 146.611C132.182 144.778 133.053 143.278 134.702 143.333C136.398 143.389 137.864 144.111 138.826 145.333C139.834 146.555 141.025 145.389 139.284 143.111C137.589 140.833 133.236 138.5 130.716 142.555Z" fill="#FFAF2B"/>
<path d="M157.814 140.8C155.184 138.669 151.194 140.313 148.902 144.471C146.61 148.63 146.885 153.729 149.515 155.859C152.145 157.99 156.135 156.347 158.427 152.188C160.718 148.03 160.444 142.931 157.814 140.8Z" fill="#ED9A2A"/>
<path d="M148.585 145.11C147.302 148.777 147.852 152.721 150.097 154.499C152.709 156.61 156.695 154.999 158.986 150.833C159.078 150.666 159.169 150.444 159.261 150.277C159.032 150.944 158.757 151.61 158.39 152.221C156.099 156.388 152.113 157.999 149.502 155.888C147.027 153.833 146.661 149.11 148.585 145.11Z" fill="#DE852A"/>
<path d="M155.549 146.411C154.223 145.337 152.157 146.266 150.934 148.485C149.711 150.705 149.794 153.375 151.12 154.449C152.445 155.523 154.511 154.594 155.734 152.375C156.958 150.155 156.875 147.485 155.549 146.411Z" fill="#FFEABE"/>
<path d="M158.848 142.555C160.452 145.111 159.581 148.444 158.482 146.611C157.382 144.778 156.512 143.278 154.862 143.333C153.167 143.389 151.701 144.111 150.739 145.333C149.731 146.555 148.539 145.389 150.28 143.111C151.976 140.833 156.328 138.5 158.848 142.555Z" fill="#FFAF2B"/>
<path d="M137.497 129.555C142.308 132.166 142.262 136.499 140.384 138.61C138.505 140.722 134.748 139.944 131.953 136.833C129.204 133.722 128.517 129.555 130.35 127.388C134.29 122.722 137.039 122.555 137.635 124.611C137.772 125.111 135.344 126.722 135.573 127.222C135.894 127.999 136.672 129.111 137.497 129.555Z" fill="#FFAF2B"/>
<path d="M140.384 133.11C141.254 134.11 141.575 136.61 140.338 137.999C139.101 139.388 136.718 139.166 135.848 138.222C134.977 137.222 135.252 135.277 136.535 133.888C137.818 132.499 139.513 132.11 140.384 133.11Z" fill="#DE852A"/>
<path d="M152.067 129.332C147.256 131.943 147.302 136.277 149.181 138.388C151.059 140.499 154.816 139.721 157.611 136.61C160.36 133.499 161.048 129.332 159.215 127.166C155.275 122.499 152.526 122.332 151.93 124.388C151.792 124.888 154.221 126.499 153.992 126.999C153.671 127.777 152.892 128.888 152.067 129.332Z" fill="#FFAF2B"/>
<path d="M149.181 132.833C148.31 133.833 147.99 136.333 149.227 137.722C150.464 139.111 152.846 138.889 153.717 137.944C154.587 136.944 154.313 135 153.03 133.611C151.793 132.222 150.051 131.889 149.181 132.833Z" fill="#DE852A"/>
<path d="M153.992 127C154.221 126.5 151.793 124.833 151.93 124.389C152.434 122.722 154.313 122.5 157.107 124.944C156.054 126.166 154.817 127.222 153.396 128.111C153.625 127.722 153.854 127.333 153.992 127ZM132.595 125.055C133.557 126.166 134.657 127.111 135.939 127.889C135.802 127.666 135.665 127.444 135.573 127.222C135.344 126.722 137.772 125.055 137.635 124.611C137.131 122.944 135.298 122.722 132.595 125.055Z" fill="#ED9A2A"/>
<path d="M155.183 124.388C155.046 124.555 154.908 124.722 154.817 124.888C152.342 127.888 149.181 129.722 145.928 130.055C145.516 130.11 145.149 130.11 144.737 130.11C144.324 130.11 143.958 130.11 143.545 130.055C140.292 129.722 137.131 127.888 134.657 124.888C134.519 124.722 134.382 124.555 134.244 124.388C133.511 123.388 134.107 121.833 135.206 121.888L144.691 122.555L154.175 121.888C155.321 121.777 155.916 123.388 155.183 124.388Z" fill="#FD2A43"/>
<path d="M144.783 134.943C146.377 134.943 147.669 133.376 147.669 131.443C147.669 129.51 146.377 127.943 144.783 127.943C143.188 127.943 141.896 129.51 141.896 131.443C141.896 133.376 143.188 134.943 144.783 134.943Z" fill="#FFF318"/>
<path d="M144.782 133.555C143.408 133.555 142.262 132.388 141.987 130.777C141.942 131 141.942 131.222 141.942 131.5C141.942 133.444 143.225 135 144.828 135C146.432 135 147.715 133.444 147.715 131.5C147.715 131.277 147.715 131.055 147.669 130.777C147.302 132.333 146.157 133.555 144.782 133.555Z" fill="#FFAF2B"/>
<path d="M133.328 109.611C135.858 109.611 137.91 107.124 137.91 104.056C137.91 100.987 135.858 98.5 133.328 98.5C130.797 98.5 128.746 100.987 128.746 104.056C128.746 107.124 130.797 109.611 133.328 109.611Z" fill="#DE852A"/>
<path d="M134.382 109.166C136.153 109.166 137.589 107.425 137.589 105.278C137.589 103.13 136.153 101.389 134.382 101.389C132.611 101.389 131.175 103.13 131.175 105.278C131.175 107.425 132.611 109.166 134.382 109.166Z" fill="#FFEABE"/>
<path d="M156.237 109.611C158.768 109.611 160.819 107.124 160.819 104.056C160.819 100.987 158.768 98.5 156.237 98.5C153.707 98.5 151.655 100.987 151.655 104.056C151.655 107.124 153.707 109.611 156.237 109.611Z" fill="#DE852A"/>
<path d="M155.229 109.166C157.001 109.166 158.437 107.425 158.437 105.278C158.437 103.13 157.001 101.389 155.229 101.389C153.458 101.389 152.022 103.13 152.022 105.278C152.022 107.425 153.458 109.166 155.229 109.166Z" fill="#FFEABE"/>
<path d="M147.531 97.8332C146.432 96.4999 144.782 96.2777 143.866 97.3332C143.637 97.611 143.499 97.9443 143.408 98.3332C142.537 97.9443 141.621 98.111 141.071 98.8332C140.155 99.9443 140.338 101.889 141.483 103.278C142.583 104.611 144.233 104.833 145.149 103.778C145.378 103.5 145.515 103.167 145.607 102.778C146.478 103.167 147.394 103 147.944 102.278C148.814 101.167 148.631 99.2221 147.531 97.8332Z" fill="#FFAF2B"/>
<path d="M144.782 126.945C152.703 126.945 159.123 120.727 159.123 113.056C159.123 105.385 152.703 99.167 144.782 99.167C136.862 99.167 130.441 105.385 130.441 113.056C130.441 120.727 136.862 126.945 144.782 126.945Z" fill="#FFAF2B"/>
<path d="M144.782 120C137.726 120 131.862 116 130.67 110.667C130.533 111.445 130.441 112.223 130.441 113.056C130.441 120.723 136.856 126.945 144.782 126.945C152.709 126.945 159.123 120.723 159.123 113.056C159.123 112.223 159.032 111.445 158.894 110.667C157.703 116 151.838 120 144.782 120Z" fill="#ED9A2A"/>
<path d="M139.33 115.501C140.292 115.501 141.071 114.555 141.071 113.389C141.071 112.223 140.292 111.278 139.33 111.278C138.369 111.278 137.589 112.223 137.589 113.389C137.589 114.555 138.369 115.501 139.33 115.501Z" fill="#DE852A"/>
<path d="M139.33 115.501C140.039 115.501 140.613 114.804 140.613 113.945C140.613 113.086 140.039 112.39 139.33 112.39C138.622 112.39 138.047 113.086 138.047 113.945C138.047 114.804 138.622 115.501 139.33 115.501Z" fill="#401113"/>
<path d="M139.33 115C139.811 115 140.201 114.527 140.201 113.944C140.201 113.361 139.811 112.889 139.33 112.889C138.849 112.889 138.46 113.361 138.46 113.944C138.46 114.527 138.849 115 139.33 115Z" fill="#A14D51"/>
<path d="M138.918 113.889C139.145 113.889 139.33 113.665 139.33 113.389C139.33 113.113 139.145 112.889 138.918 112.889C138.69 112.889 138.505 113.113 138.505 113.389C138.505 113.665 138.69 113.889 138.918 113.889Z" fill="#FFFFC4"/>
<path d="M150.235 115.501C151.197 115.501 151.976 114.555 151.976 113.389C151.976 112.223 151.197 111.278 150.235 111.278C149.273 111.278 148.494 112.223 148.494 113.389C148.494 114.555 149.273 115.501 150.235 115.501Z" fill="#DE852A"/>
<path d="M150.235 115.501C150.944 115.501 151.518 114.804 151.518 113.945C151.518 113.086 150.944 112.39 150.235 112.39C149.527 112.39 148.952 113.086 148.952 113.945C148.952 114.804 149.527 115.501 150.235 115.501Z" fill="#401113"/>
<path d="M150.235 115C150.716 115 151.106 114.527 151.106 113.944C151.106 113.361 150.716 112.889 150.235 112.889C149.754 112.889 149.365 113.361 149.365 113.944C149.365 114.527 149.754 115 150.235 115Z" fill="#A14D51"/>
<path d="M149.777 113.889C150.005 113.889 150.189 113.665 150.189 113.389C150.189 113.113 150.005 112.889 149.777 112.889C149.549 112.889 149.365 113.113 149.365 113.389C149.365 113.665 149.549 113.889 149.777 113.889Z" fill="#FFFFC4"/>
<path d="M149.96 120C149.96 123.833 147.669 125.556 144.782 125.556C141.896 125.556 139.605 123.833 139.605 120C139.605 116.167 141.896 113.056 144.782 113.056C147.669 113.056 149.96 116.167 149.96 120Z" fill="#FFEABE"/>
<path d="M144.782 121.278C144.782 121.278 143.499 123.556 142.354 123C140.979 122.333 139.971 121 139.696 119C139.651 119.333 139.651 119.722 139.651 120.056C139.651 123.889 141.942 125.611 144.828 125.611C147.715 125.611 150.006 123.889 150.006 120.056C150.006 119.667 149.96 119.333 149.96 119C149.731 121.056 148.723 122.5 147.302 123.056C146.019 123.389 144.782 121.278 144.782 121.278Z" fill="#FFCD85"/>
<path d="M148.356 122.223C148.31 122.167 148.219 122.111 148.173 122.167C148.036 122.278 147.898 122.389 147.806 122.445C147.211 122.834 146.524 122.834 145.974 122.389C145.378 121.945 145.012 121.167 145.012 120.334C145.012 120.223 144.966 120.167 144.874 120.167C144.782 120.167 144.737 120.223 144.737 120.334C144.737 121.167 144.37 121.945 143.774 122.389C143.179 122.778 142.492 122.834 141.942 122.445C141.804 122.334 141.667 122.278 141.575 122.167C141.529 122.111 141.438 122.111 141.392 122.223C141.346 122.334 141.346 122.389 141.438 122.445C141.575 122.556 141.713 122.667 141.85 122.778C142.171 123 142.537 123.111 142.858 123.111C143.225 123.111 143.591 123 143.958 122.723C144.416 122.389 144.737 121.889 144.92 121.334C145.103 121.889 145.424 122.389 145.882 122.723C146.569 123.223 147.348 123.223 147.99 122.778C148.127 122.667 148.265 122.556 148.402 122.445C148.356 122.389 148.402 122.278 148.356 122.223Z" fill="#A14D51"/>
<path d="M147.669 117.222C147.669 118.778 146.386 120.722 144.783 120.722C143.179 120.722 141.896 118.778 141.896 117.222C141.896 115.667 143.179 114.444 144.783 114.444C146.386 114.444 147.669 115.667 147.669 117.222Z" fill="#401113"/>
<path d="M144.783 117.888C145.896 117.888 146.799 117.266 146.799 116.499C146.799 115.732 145.896 115.11 144.783 115.11C143.669 115.11 142.767 115.732 142.767 116.499C142.767 117.266 143.669 117.888 144.783 117.888Z" fill="#A14D51"/>
</g>
<rect opacity="0.2" x="183.668" y="98.5" width="59" height="59" fill="#F4F4F4" stroke="#D0D0D0"/>
<g clip-path="url(#clip1_6050_137386)">
<path d="M224.075 134.723H228.428C229.482 134.723 229.252 134.889 230.215 135.223C234.934 136.834 238.416 142.111 238.416 148.334C238.416 150.723 236.812 152.611 234.888 152.611H190.49C188.658 152.611 187.146 150.778 187.146 148.556C187.146 144.445 187.879 140.556 189.207 137.056C189.757 135.611 190.948 134.667 192.277 134.667H224.075V134.723Z" fill="#2195E8"/>
<path d="M189.757 136.056C190.398 135.223 191.315 134.723 192.277 134.723H224.075H228.427C229.481 134.723 229.252 134.889 230.214 135.223C230.856 135.445 231.451 135.723 232.001 136.056H189.757Z" fill="#23D9FD"/>
<path d="M219.447 150.722C219.447 150.5 219.401 150.222 219.401 149.945C219.401 144.778 222.838 140.611 227.099 140.611C231.36 140.611 234.796 144.778 234.796 149.945C234.796 150.222 234.796 150.445 234.75 150.722H219.447Z" fill="#1B6BB8"/>
<path d="M189.436 150.722C189.436 150.5 189.391 150.222 189.391 149.945C189.391 144.778 192.827 140.611 197.088 140.611C201.349 140.611 204.786 144.778 204.786 149.945C204.786 150.222 204.786 150.445 204.74 150.722H189.436Z" fill="#1B6BB8"/>
<path d="M238.324 146.556C238.324 146.722 238.37 146.889 238.37 147C238.324 146.889 238.278 146.722 238.324 146.556Z" fill="#2195E8"/>
<path d="M234.888 152.612H190.49C189.024 152.612 187.741 151.445 187.329 149.834H238.233C237.683 151.445 236.4 152.612 234.888 152.612Z" fill="#1B6BB8"/>
<path d="M187.146 147C187.146 146.889 187.146 146.722 187.146 146.611C187.191 146.722 187.191 146.834 187.146 147Z" fill="#2195E8"/>
<path d="M200.662 134.723V139.556C204.785 139.556 207.259 143.945 207.259 148.167V148.5H213.582C217.477 148.5 219.585 144.945 219.585 141.612V134.723H219.035V141.612C219.035 144.667 217.156 147.834 213.628 147.834H207.855C207.718 143.556 205.289 139.278 201.303 138.889V134.723H200.662Z" fill="#1B6BB8"/>
<path d="M219.585 134.723H219.035V136.056H219.585V134.723Z" fill="#2195E8"/>
<path d="M201.211 134.723H200.662V136.056H201.211V134.723Z" fill="#2195E8"/>
<path d="M202.403 136.056H206.068C206.572 136.056 206.985 136.556 206.985 137.167V137.445H203.319C202.815 137.445 202.403 136.945 202.403 136.333V136.056Z" fill="#1B6BB8"/>
<path d="M236.308 146.277H238.691C238.966 146.277 239.149 146.5 239.149 146.833V147.944C239.149 148.277 238.966 148.5 238.691 148.5H236.308C236.033 148.5 235.85 148.277 235.85 147.944V146.833C235.85 146.5 236.033 146.277 236.308 146.277Z" fill="#1B6BB8"/>
<path d="M186.458 146.277H188.841C189.116 146.277 189.299 146.5 189.299 146.833V147.944C189.299 148.277 189.116 148.5 188.841 148.5H186.458C186.183 148.5 186 148.277 186 147.944V146.833C186 146.5 186.183 146.277 186.458 146.277Z" fill="#1B6BB8"/>
<path d="M234.155 139.888H232.414C230.535 139.888 228.978 137.999 228.978 135.722V134.722H233.422C234.567 134.722 235.53 135.833 235.53 137.277V138.277C235.53 139.166 234.934 139.888 234.155 139.888Z" fill="#FFCD85"/>
<path d="M231.589 137.444H233.788C234.109 137.444 234.338 137.11 234.338 136.777C234.338 136.388 234.063 136.11 233.788 136.11H231.589C231.268 136.11 231.039 136.444 231.039 136.777C230.993 137.166 231.268 137.444 231.589 137.444Z" fill="#FFEABE"/>
<path d="M191.636 134.722H192.369V136.722C192.369 138.444 191.223 139.888 189.757 139.888H188.245V138.833C188.245 136.555 189.757 134.722 191.636 134.722Z" fill="#FD2A43"/>
<path d="M188.52 137.444H190.719C191.04 137.444 191.269 137.11 191.269 136.777C191.269 136.388 190.994 136.11 190.719 136.11H188.52C188.199 136.11 187.97 136.444 187.97 136.777C187.97 137.166 188.199 137.444 188.52 137.444Z" fill="#FD9494"/>
<path d="M212.025 121H212.162C214.178 121 216.102 122.167 217.34 124.111L224.075 134.722H192.369C196.309 126.5 203.64 121 212.025 121Z" fill="#2195E8"/>
<path d="M223.204 133.333L224.075 134.722H192.369C192.598 134.277 192.827 133.777 193.102 133.333H223.204Z" fill="#1B6BB8"/>
<path d="M217.248 124.167H217.385L224.075 134.723H200.708C204.327 128.334 210.375 124.167 217.248 124.167Z" fill="#FFEABE"/>
<path d="M200.662 134.723H202.357H218.393H218.943H223.983L223.113 133.334H218.989C218.851 130.112 218.118 127 216.927 124.334C217.11 124.334 217.294 124.278 217.477 124.278L217.431 124.223H217.294C217.156 124.223 217.019 124.223 216.927 124.223C216.744 124.223 216.515 124.278 216.331 124.278C209.825 124.556 204.144 128.612 200.662 134.723ZM203.227 133.334C206.389 128.556 211.017 125.223 216.331 124.389C217.523 127.056 218.256 130.112 218.393 133.334H203.227Z" fill="#FFCD85"/>
<path d="M217.248 124.167H217.385C218.806 127.278 219.585 130.889 219.585 134.723H219.035C219.035 130.889 218.256 127.278 216.835 124.167C216.973 124.167 217.065 124.167 217.248 124.167Z" fill="#2195E8"/>
<path d="M227.099 158.445C230.945 158.445 234.063 154.664 234.063 150C234.063 145.336 230.945 141.556 227.099 141.556C223.252 141.556 220.134 145.336 220.134 150C220.134 154.664 223.252 158.445 227.099 158.445Z" fill="#692F31"/>
<path d="M227.099 157C230.764 157 233.742 153.611 234.017 149.277C234.017 149.5 234.063 149.722 234.063 150C234.063 154.666 230.947 158.444 227.099 158.444C223.25 158.444 220.134 154.666 220.134 150C220.134 149.777 220.134 149.555 220.18 149.277C220.455 153.611 223.479 157 227.099 157Z" fill="#401113"/>
<path d="M227.099 154C228.931 154 230.398 152.222 230.398 150C230.398 147.778 228.931 146 227.099 146C225.266 146 223.8 147.778 223.8 150C223.8 152.222 225.312 154 227.099 154Z" fill="#401113"/>
<path d="M227.099 152.666C228.29 152.666 229.298 151.444 229.298 150C229.298 148.555 228.29 147.333 227.099 147.333C225.907 147.333 224.899 148.555 224.899 150C224.899 151.444 225.907 152.666 227.099 152.666Z" fill="#FFF318"/>
<path d="M227.099 151.222C228.107 151.222 228.977 150.388 229.206 149.277C229.252 149.5 229.298 149.722 229.298 150C229.298 151.444 228.29 152.666 227.099 152.666C225.907 152.666 224.899 151.444 224.899 150C224.899 149.777 224.945 149.5 224.991 149.277C225.266 150.388 226.091 151.222 227.099 151.222Z" fill="#FFAF2B"/>
<path d="M197.088 158.445C200.934 158.445 204.052 154.664 204.052 150C204.052 145.336 200.934 141.556 197.088 141.556C193.242 141.556 190.124 145.336 190.124 150C190.124 154.664 193.242 158.445 197.088 158.445Z" fill="#692F31"/>
<path d="M197.088 157C200.753 157 203.732 153.611 204.006 149.277C204.006 149.5 204.052 149.722 204.052 150C204.052 154.666 200.937 158.444 197.088 158.444C193.239 158.444 190.124 154.666 190.124 150C190.124 149.777 190.124 149.555 190.169 149.277C190.49 153.611 193.468 157 197.088 157Z" fill="#401113"/>
<path d="M197.088 154C198.921 154 200.387 152.222 200.387 150C200.387 147.778 198.921 146 197.088 146C195.255 146 193.789 147.778 193.789 150C193.789 152.222 195.301 154 197.088 154Z" fill="#401113"/>
<path d="M197.088 152.666C198.279 152.666 199.287 151.444 199.287 150C199.287 148.555 198.279 147.333 197.088 147.333C195.897 147.333 194.889 148.555 194.889 150C194.889 151.444 195.897 152.666 197.088 152.666Z" fill="#FFF318"/>
<path d="M197.088 151.277C198.096 151.277 198.966 150.444 199.196 149.333C199.241 149.555 199.287 149.777 199.287 150.055C199.287 151.5 198.279 152.722 197.088 152.722C195.897 152.722 194.889 151.5 194.889 150.055C194.889 149.833 194.934 149.555 194.98 149.333C195.255 150.444 196.08 151.277 197.088 151.277Z" fill="#FFAF2B"/>
</g>
<rect opacity="0.2" x="115.5" y="175.5" width="59" height="59" fill="#F4F4F4" stroke="#D0D0D0"/>
<path d="M148.228 210.444V221.555C148.228 222.778 149.053 223.778 150.061 223.778C151.069 223.778 151.893 222.778 151.893 221.555V212.667C151.893 211.444 151.069 210.444 150.061 210.444H148.228Z" fill="#FFCD85"/>
<path d="M152.809 222.111V229.333C152.809 230.555 151.985 231.555 150.977 231.555H149.144C148.136 231.555 147.311 230.555 147.311 229.333V222.111C147.311 220.889 148.136 219.889 149.144 219.889H150.977C151.985 219.889 152.809 220.889 152.809 222.111Z" fill="#E8AA51"/>
<path d="M153.268 234.889H146.853C146.578 234.889 146.395 234.667 146.395 234.333V232.667C146.395 231.444 147.22 230.444 148.228 230.444H151.893C152.901 230.444 153.726 231.444 153.726 232.667V234.333C153.726 234.667 153.543 234.889 153.268 234.889Z" fill="#FFCD85"/>
<path d="M153.268 233.223H146.853C146.578 233.223 146.395 233 146.395 232.667V234.334C146.395 234.667 146.578 234.889 146.853 234.889H153.268C153.543 234.889 153.726 234.667 153.726 234.334V232.667C153.726 233 153.543 233.223 153.268 233.223Z" fill="#E8AA51"/>
<path d="M152.351 222.111C152.351 223.055 151.756 223.778 150.977 223.778H149.144C148.365 223.778 147.77 223.055 147.77 222.111C147.77 221.167 148.365 220.444 149.144 220.444H150.977C151.756 220.444 152.351 221.167 152.351 222.111Z" fill="#FFCD85"/>
<path d="M141.813 210.444V221.555C141.813 222.778 140.988 223.778 139.98 223.778C138.972 223.778 138.148 222.778 138.148 221.555V212.667C138.148 211.444 138.972 210.444 139.98 210.444H141.813Z" fill="#FFCD85"/>
<path d="M142.729 222.111V229.333C142.729 230.555 141.905 231.555 140.897 231.555H139.064C138.056 231.555 137.231 230.555 137.231 229.333V222.111C137.231 220.889 138.056 219.889 139.064 219.889H140.897C141.905 219.889 142.729 220.889 142.729 222.111Z" fill="#E8AA51"/>
<path d="M143.188 234.889H136.773C136.498 234.889 136.315 234.667 136.315 234.333V232.667C136.315 231.444 137.14 230.444 138.148 230.444H141.813C142.821 230.444 143.646 231.444 143.646 232.667V234.333C143.646 234.667 143.463 234.889 143.188 234.889Z" fill="#FFCD85"/>
<path d="M143.188 233.223H136.773C136.498 233.223 136.315 233 136.315 232.667V234.334C136.315 234.667 136.498 234.889 136.773 234.889H143.188C143.463 234.889 143.646 234.667 143.646 234.334V232.667C143.646 233 143.463 233.223 143.188 233.223Z" fill="#E8AA51"/>
<path d="M142.271 222.111C142.271 223.055 141.676 223.778 140.897 223.778H139.064C138.285 223.778 137.689 223.055 137.689 222.111C137.689 221.167 138.285 220.444 139.064 220.444H140.897C141.676 220.444 142.271 221.167 142.271 222.111Z" fill="#FFCD85"/>
<path d="M155.742 197.555L157.483 202.666C157.849 203.778 157.437 205.111 156.475 205.555C155.559 206 154.459 205.5 154.092 204.333L151.618 197.166L153.313 196.333C154.276 195.889 155.329 196.444 155.742 197.555Z" fill="#FFCD85"/>
<path d="M154.642 199.334C154.642 200.445 153.955 201.334 153.084 201.5L151.618 197.222L151.893 197.111H152.809C153.817 197.111 154.642 198.111 154.642 199.334Z" fill="#E8AA51"/>
<path d="M153.542 205.445V212.667C153.542 213.889 154.367 214.889 155.375 214.889H157.208C158.216 214.889 159.041 213.889 159.041 212.667V205.445C159.041 204.223 158.216 203.223 157.208 203.223H155.375C154.367 203.223 153.542 204.223 153.542 205.445Z" fill="#FFCD85"/>
<path d="M155.375 210.445H157.208C158.216 210.445 159.041 211.445 159.041 212.667V205.445C159.041 204.223 158.216 203.223 157.208 203.223H155.375C154.367 203.223 153.542 204.223 153.542 205.445V212.667C153.542 211.445 154.367 210.445 155.375 210.445Z" fill="#E8AA51"/>
<path d="M156.017 212.001H156.475C157.254 212.001 157.85 212.723 157.85 213.668V215.834C157.85 216.112 157.712 216.279 157.575 216.501C157.529 216.501 155.834 218.668 155.834 218.668C155.604 218.945 155.192 219.001 154.917 218.668L154.688 218.39C154.459 218.112 154.459 217.612 154.688 217.279L156.292 215.334V214.168L155.513 215.112C155.284 215.39 154.871 215.39 154.596 215.112L154.367 214.834C154.138 214.557 154.138 214.057 154.367 213.723L155.421 212.445C155.467 212.39 155.604 212.223 155.65 212.168C155.742 212.057 155.879 212.001 156.017 212.001Z" fill="#9226A5"/>
<path d="M134.299 197.555L132.558 202.666C132.191 203.778 132.604 205.111 133.566 205.555C134.482 206 135.582 205.5 135.948 204.333L138.423 197.166L136.727 196.333C135.765 195.889 134.711 196.444 134.299 197.555Z" fill="#FFCD85"/>
<path d="M135.398 199.334C135.398 200.445 136.086 201.334 136.956 201.5L138.422 197.222L138.148 197.111H137.231C136.223 197.111 135.398 198.111 135.398 199.334Z" fill="#E8AA51"/>
<path d="M136.498 205.445V212.667C136.498 213.889 135.673 214.889 134.665 214.889H132.833C131.825 214.889 131 213.889 131 212.667V205.445C131 204.223 131.825 203.223 132.833 203.223H134.665C135.673 203.223 136.498 204.223 136.498 205.445Z" fill="#FFCD85"/>
<path d="M134.665 210.445H132.833C131.825 210.445 131 211.445 131 212.667V205.445C131 204.223 131.825 203.223 132.833 203.223H134.665C135.673 203.223 136.498 204.223 136.498 205.445V212.667C136.498 211.445 135.673 210.445 134.665 210.445Z" fill="#E8AA51"/>
<path d="M134.024 212.001H133.566C132.787 212.001 132.191 212.723 132.191 213.668V215.834C132.191 216.112 132.329 216.279 132.466 216.501C132.512 216.501 134.207 218.668 134.207 218.668C134.436 218.945 134.849 219.001 135.124 218.668L135.353 218.39C135.582 218.112 135.582 217.612 135.353 217.279L133.749 215.334V214.168L134.528 215.112C134.757 215.39 135.169 215.39 135.444 215.112L135.673 214.834C135.902 214.557 135.902 214.057 135.673 213.723L134.62 212.445C134.574 212.39 134.436 212.223 134.39 212.168C134.299 212.057 134.161 212.001 134.024 212.001Z" fill="#9226A5"/>
<path d="M148.227 198.777H141.813C141.538 198.777 141.355 198.555 141.355 198.222V196.555C141.355 195.333 142.179 194.333 143.187 194.333H146.853C147.861 194.333 148.686 195.333 148.686 196.555V198.222C148.686 198.555 148.502 198.777 148.227 198.777Z" fill="#692F31"/>
<path d="M152.351 201H137.231C136.223 201 135.398 200 135.398 198.778C135.398 197.556 136.223 196.556 137.231 196.556H152.351C153.359 196.556 154.184 197.556 154.184 198.778C154.184 200 153.359 201 152.351 201Z" fill="#9226A5"/>
<path d="M149.602 210.445H140.438L137.369 201.111C136.636 198.945 137.964 196.556 139.934 196.556H150.152C152.076 196.556 153.405 198.945 152.718 201.111L149.602 210.445Z" fill="#FFCD85"/>
<path d="M141.813 214.889H148.228V213.778C148.228 213.167 148.64 212.667 149.144 212.667H150.977C150.977 211.444 150.152 210.444 149.144 210.444H140.897C139.889 210.444 139.064 211.444 139.064 212.667H140.897C141.401 212.667 141.813 213.167 141.813 213.778V214.889Z" fill="#9226A5"/>
<path d="M149.602 203.222C149.602 204.444 148.777 205.444 147.769 205.444H142.271C141.263 205.444 140.438 204.444 140.438 203.222H138.056L140.438 210.444H149.602L151.985 203.222H149.602Z" fill="#E8AA51"/>
<path d="M147.769 204.889H142.271C141.492 204.889 140.897 204.166 140.897 203.222V201C140.897 200.055 141.492 199.333 142.271 199.333H147.769C148.548 199.333 149.144 200.055 149.144 201V203.222C149.144 204.166 148.548 204.889 147.769 204.889Z" fill="#E8AA51"/>
<path d="M142.271 203.778C141.996 203.778 141.813 203.555 141.813 203.222V201C141.813 200.667 141.996 200.444 142.271 200.444H147.769C148.044 200.444 148.228 200.667 148.228 201V203.222C148.228 203.555 148.044 203.778 147.769 203.778H142.271Z" fill="#23D9FD"/>
<path d="M147.769 200.444H142.271C141.996 200.444 141.813 200.667 141.813 201V202.111C141.813 201.778 141.996 201.555 142.271 201.555H147.769C148.044 201.555 148.228 201.778 148.228 202.111V201C148.228 200.667 148.044 200.444 147.769 200.444Z" fill="#2195E8"/>
<path d="M137.231 178.778V183.778C137.231 184.112 137.048 184.334 136.773 184.334C136.498 184.334 136.315 184.112 136.315 183.778V178.778C136.315 178.445 136.498 178.223 136.773 178.223C137.048 178.223 137.231 178.445 137.231 178.778Z" fill="#9226A5"/>
<path d="M153.726 178.778V183.778C153.726 184.112 153.543 184.334 153.268 184.334C152.993 184.334 152.81 184.112 152.81 183.778V178.778C152.81 178.445 152.993 178.223 153.268 178.223C153.543 178.223 153.726 178.445 153.726 178.778Z" fill="#9226A5"/>
<path d="M153.497 187.389H136.544V189.055H153.497V187.389Z" fill="#9226A5"/>
<path d="M145.021 176C140.164 176 136.178 180.444 135.674 186.167C135.628 186.833 136.04 187.389 136.59 187.389H153.451C154.001 187.389 154.413 186.833 154.367 186.167C153.863 180.444 149.877 176 145.021 176Z" fill="#FFCD85"/>
<path d="M145.021 195.445C140.21 195.445 136.223 195.333 135.674 190.333C135.582 189.667 136.04 189.056 136.59 189.056H153.405C153.955 189.056 154.367 189.667 154.322 190.333C153.818 195.333 149.831 195.445 145.021 195.445Z" fill="#FFCD85"/>
<path d="M145.02 193.778C141.263 193.778 137.964 193.722 136.086 192.056C137.277 195.389 140.851 195.445 145.02 195.445C149.19 195.445 152.764 195.389 153.955 192.056C152.076 193.722 148.778 193.778 145.02 193.778Z" fill="#E8AA51"/>
<path d="M150.519 190.723H139.522C138.239 190.723 137.231 189.5 137.231 187.945C137.231 186.389 138.239 185.167 139.522 185.167H150.519C151.802 185.167 152.81 186.389 152.81 187.945C152.81 189.5 151.802 190.723 150.519 190.723Z" fill="#401113"/>
<path d="M147.082 192.944H142.959C142.684 192.944 142.5 192.722 142.5 192.389C142.5 192.055 142.684 191.833 142.959 191.833H147.082C147.357 191.833 147.54 192.055 147.54 192.389C147.54 192.722 147.357 192.944 147.082 192.944Z" fill="#2195E8"/>
<path d="M149.602 189.055H147.77C147.266 189.055 146.853 188.555 146.853 187.944C146.853 187.333 147.266 186.833 147.77 186.833H149.602C150.106 186.833 150.519 187.333 150.519 187.944C150.519 188.555 150.106 189.055 149.602 189.055Z" fill="#23D9FD"/>
<path d="M142.271 189.055H140.439C139.935 189.055 139.522 188.555 139.522 187.944C139.522 187.333 139.935 186.833 140.439 186.833H142.271C142.775 186.833 143.188 187.333 143.188 187.944C143.188 188.555 142.775 189.055 142.271 189.055Z" fill="#23D9FD"/>
<rect opacity="0.2" x="183.668" y="17.5" width="59" height="59" fill="#F4F4F4" stroke="#D0D0D0"/>
<g clip-path="url(#clip2_6050_137386)">
<path d="M227.981 69.8008H198.092C196.391 69.8008 195 71.4879 195 73.5498C195 75.6118 196.391 77.2989 198.092 77.2989H227.981C229.681 77.2989 231.073 75.6118 231.073 73.5498C231.073 71.4879 229.681 69.8008 227.981 69.8008Z" fill="#ED2136"/>
<path d="M225.919 62.3027H200.153C198.452 62.3027 197.061 63.9898 197.061 66.0518C197.061 68.1138 198.452 69.8008 200.153 69.8008H225.919C227.62 69.8008 229.011 68.1138 229.011 66.0518C229.011 63.9898 227.62 62.3027 225.919 62.3027Z" fill="#FFCB18"/>
<path d="M223.858 54.8037H202.215C200.514 54.8037 199.123 56.4908 199.123 58.5528C199.123 60.6147 200.514 62.3018 202.215 62.3018H223.858C225.559 62.3018 226.95 60.6147 226.95 58.5528C226.95 56.4908 225.559 54.8037 223.858 54.8037Z" fill="#1C7EE0"/>
<path d="M221.797 47.3057H204.276C202.575 47.3057 201.184 48.9927 201.184 51.0547C201.184 53.1167 202.575 54.8038 204.276 54.8038H221.797C223.497 54.8038 224.889 53.1167 224.889 51.0547C224.889 48.9927 223.497 47.3057 221.797 47.3057Z" fill="#3BCF4D"/>
<path d="M219.632 47.5554L206.234 46.993C204.533 46.9305 203.194 45.181 203.245 43.119C203.297 41.057 204.74 39.4324 206.44 39.4949L219.839 40.0573C221.539 40.1198 222.879 41.8693 222.827 43.9313C222.776 45.9933 221.333 47.6179 219.632 47.5554Z" fill="#ED9A2A"/>
<path d="M217.674 32.3105H208.399C206.698 32.3105 205.307 33.9976 205.307 36.0596C205.307 38.1216 206.698 39.8087 208.399 39.8087H217.674C219.375 39.8087 220.766 38.1216 220.766 36.0596C220.766 33.9976 219.375 32.3105 217.674 32.3105Z" fill="#9226A5"/>
<path d="M218.293 25.8738L215.201 22.1247C214.634 21.4374 213.861 21 213.036 21C212.16 21 211.387 21.4374 210.872 22.1247L207.78 25.8738C207.213 26.5611 206.853 27.4984 206.853 28.4981C206.853 30.5601 208.244 32.2472 209.944 32.2472C211.645 32.2472 214.428 32.2472 216.128 32.2472C217.829 32.2472 219.22 30.5601 219.22 28.4981C219.22 27.4984 218.86 26.5611 218.293 25.8738Z" fill="#ED2136"/>
<path d="M222.312 69.8008H203.76C202.06 69.8008 200.668 71.4879 200.668 73.5498C200.668 75.6118 202.06 77.2989 203.76 77.2989H222.312C224.013 77.2989 225.404 75.6118 225.404 73.5498C225.404 71.4879 224.013 69.8008 222.312 69.8008Z" fill="#FD2A43"/>
<path d="M220.766 62.3027H205.306C203.606 62.3027 202.214 63.9898 202.214 66.0518C202.214 68.1138 203.606 69.8008 205.306 69.8008H220.766C222.467 69.8008 223.858 68.1138 223.858 66.0518C223.858 63.9898 222.467 62.3027 220.766 62.3027Z" fill="#FFF318"/>
<path d="M219.22 54.8037H206.852C205.152 54.8037 203.76 56.4908 203.76 58.5528C203.76 60.6147 205.152 62.3018 206.852 62.3018H219.22C220.921 62.3018 222.312 60.6147 222.312 58.5528C222.312 56.4908 220.921 54.8037 219.22 54.8037Z" fill="#2195E8"/>
<path d="M217.674 47.3057H208.398C206.698 47.3057 205.306 48.9927 205.306 51.0547C205.306 53.1167 206.698 54.8038 208.398 54.8038H217.674C219.374 54.8038 220.766 53.1167 220.766 51.0547C220.766 48.9927 219.374 47.3057 217.674 47.3057Z" fill="#4DE25E"/>
<path d="M216.128 39.8076H209.944C208.243 39.8076 206.852 41.4947 206.852 43.5567C206.852 45.6187 208.243 47.3057 209.944 47.3057H216.128C217.828 47.3057 219.22 45.6187 219.22 43.5567C219.22 41.4947 217.828 39.8076 216.128 39.8076Z" fill="#FFAF2B"/>
<path d="M214.582 32.3105H211.49C209.789 32.3105 208.398 33.9976 208.398 36.0596C208.398 38.1216 209.789 39.8087 211.49 39.8087H214.582C216.282 39.8087 217.674 38.1216 217.674 36.0596C217.674 33.9976 216.282 32.3105 214.582 32.3105Z" fill="#9C2EAF"/>
<path d="M215.458 25.8738L214.016 22.1247C213.758 21.4374 213.397 21 213.036 21C212.676 21 212.315 21.4374 212.057 22.1247L210.614 25.8738C210.357 26.5611 210.202 27.4984 210.202 28.4981C210.202 30.5601 210.821 32.2472 211.645 32.2472C212.47 32.2472 213.706 32.2472 214.479 32.2472C215.252 32.2472 215.922 30.5601 215.922 28.4981C215.871 27.4984 215.716 26.5611 215.458 25.8738Z" fill="#FD2A43"/>
<path d="M227.981 75.4231H198.092C196.649 75.4231 195.464 74.2359 195.103 72.6113C195.052 72.9237 195 73.2362 195 73.5486C195 75.6106 196.391 77.2976 198.092 77.2976H227.981C229.681 77.2976 231.073 75.6106 231.073 73.5486C231.073 73.2362 231.021 72.9237 230.97 72.6113C230.609 74.2359 229.424 75.4231 227.981 75.4231Z" fill="#D92235"/>
<path d="M225.919 67.926H200.153C198.71 67.926 197.525 66.7388 197.164 65.1143C197.113 65.4267 197.061 65.7391 197.061 66.0515C197.061 68.1135 198.452 69.8006 200.153 69.8006H225.919C227.62 69.8006 229.011 68.1135 229.011 66.0515C229.011 65.7391 228.96 65.4267 228.908 65.1143C228.547 66.7388 227.362 67.926 225.919 67.926Z" fill="#FFAF2B"/>
<path d="M223.858 60.428H202.215C200.772 60.428 199.586 59.2408 199.226 57.6162C199.174 57.9286 199.123 58.2411 199.123 58.5535C199.123 60.6155 200.514 62.3025 202.215 62.3025H223.858C225.559 62.3025 226.95 60.6155 226.95 58.5535C226.95 58.2411 226.899 57.9286 226.847 57.6162C226.486 59.2408 225.301 60.428 223.858 60.428Z" fill="#1B6BB8"/>
<path d="M221.797 52.9299H204.276C202.833 52.9299 201.647 51.7428 201.287 50.1182C201.235 50.4306 201.184 50.743 201.184 51.0554C201.184 53.1174 202.575 54.8045 204.276 54.8045H221.797C223.497 54.8045 224.889 53.1174 224.889 51.0554C224.889 50.743 224.837 50.4306 224.785 50.1182C224.425 51.7428 223.239 52.9299 221.797 52.9299Z" fill="#3ABA4D"/>
<path d="M219.736 45.4309H206.337C204.894 45.4309 203.709 44.2437 203.348 42.6191C203.297 42.9316 203.245 43.244 203.245 43.5564C203.245 45.6184 204.636 47.3055 206.337 47.3055H219.736C221.436 47.3055 222.827 45.6184 222.827 43.5564C222.827 43.244 222.776 42.9316 222.724 42.6191C222.364 44.2437 221.178 45.4309 219.736 45.4309Z" fill="#DE852A"/>
<path d="M217.674 37.9329H208.399C206.956 37.9329 205.77 36.7457 205.41 35.1211C205.358 35.4335 205.307 35.7459 205.307 36.0584C205.307 38.1203 206.698 39.8074 208.399 39.8074H217.674C219.375 39.8074 220.766 38.1203 220.766 36.0584C220.766 35.7459 220.715 35.4335 220.663 35.1211C220.303 36.7457 219.117 37.9329 217.674 37.9329Z" fill="#762696"/>
<path d="M216.128 30.4348C214.428 30.4348 211.645 30.4348 209.944 30.4348C208.502 30.4348 207.316 29.2476 206.956 27.623C206.904 27.9355 206.853 28.2479 206.853 28.5603C206.853 30.6223 208.244 32.3094 209.944 32.3094C211.645 32.3094 214.428 32.3094 216.128 32.3094C217.829 32.3094 219.22 30.6223 219.22 28.5603C219.22 28.2479 219.169 27.9355 219.117 27.623C218.757 29.2476 217.571 30.4348 216.128 30.4348Z" fill="#D92235"/>
</g>
<defs>
<clipPath id="clip0_6050_137386">
<rect width="198" height="250" fill="white" transform="translate(86)"/>
</clipPath>
<clipPath id="clip1_6050_137386">
<rect width="60" height="60" fill="white" transform="translate(183 98)"/>
</clipPath>
<clipPath id="clip2_6050_137386">
<rect width="60" height="60" fill="white" transform="translate(183 17)"/>
</clipPath>
</defs>
</svg>
