<svg width="60" height="60" viewBox="0 0 60 60" fill="none" xmlns="http://www.w3.org/2000/svg">
<path d="M33.2275 35.4443V46.5554C33.2275 47.7776 34.0523 48.7776 35.0603 48.7776C36.0683 48.7776 36.893 47.7776 36.893 46.5554V37.6666C36.893 36.4443 36.0683 35.4443 35.0603 35.4443H33.2275Z" fill="#FFCD85"/>
<path d="M37.8097 47.1109V54.3331C37.8097 55.5553 36.985 56.5553 35.977 56.5553H34.1443C33.1363 56.5553 32.3115 55.5553 32.3115 54.3331V47.1109C32.3115 45.8887 33.1363 44.8887 34.1443 44.8887H35.977C36.985 44.8887 37.8097 45.8887 37.8097 47.1109Z" fill="#E8AA51"/>
<path d="M38.2677 59.8888H31.8532C31.5783 59.8888 31.395 59.6665 31.395 59.3332V57.6665C31.395 56.4443 32.2197 55.4443 33.2277 55.4443H36.8932C37.9012 55.4443 38.7259 56.4443 38.7259 57.6665V59.3332C38.7259 59.6665 38.5427 59.8888 38.2677 59.8888Z" fill="#FFCD85"/>
<path d="M38.2677 58.2225H31.8532C31.5783 58.2225 31.395 58.0003 31.395 57.667V59.3336C31.395 59.667 31.5783 59.8892 31.8532 59.8892H38.2677C38.5427 59.8892 38.7259 59.667 38.7259 59.3336V57.667C38.7259 58.0003 38.5427 58.2225 38.2677 58.2225Z" fill="#E8AA51"/>
<path d="M37.3513 47.111C37.3513 48.0555 36.7557 48.7777 35.9768 48.7777H34.1441C33.3652 48.7777 32.7695 48.0555 32.7695 47.111C32.7695 46.1666 33.3652 45.4443 34.1441 45.4443H35.9768C36.7557 45.4443 37.3513 46.1666 37.3513 47.111Z" fill="#FFCD85"/>
<path d="M26.8129 35.4443V46.5554C26.8129 47.7776 25.9882 48.7776 24.9802 48.7776C23.9722 48.7776 23.1475 47.7776 23.1475 46.5554V37.6666C23.1475 36.4443 23.9722 35.4443 24.9802 35.4443H26.8129Z" fill="#FFCD85"/>
<path d="M27.7296 47.1109V54.3331C27.7296 55.5553 26.9049 56.5553 25.8969 56.5553H24.0642C23.0562 56.5553 22.2314 55.5553 22.2314 54.3331V47.1109C22.2314 45.8887 23.0562 44.8887 24.0642 44.8887H25.8969C26.9049 44.8887 27.7296 45.8887 27.7296 47.1109Z" fill="#E8AA51"/>
<path d="M28.1877 59.8888H21.7731C21.4982 59.8888 21.3149 59.6665 21.3149 59.3332V57.6665C21.3149 56.4443 22.1397 55.4443 23.1477 55.4443H26.8131C27.8211 55.4443 28.6458 56.4443 28.6458 57.6665V59.3332C28.6458 59.6665 28.4626 59.8888 28.1877 59.8888Z" fill="#FFCD85"/>
<path d="M28.1877 58.2225H21.7731C21.4982 58.2225 21.3149 58.0003 21.3149 57.667V59.3336C21.3149 59.667 21.4982 59.8892 21.7731 59.8892H28.1877C28.4626 59.8892 28.6458 59.667 28.6458 59.3336V57.667C28.6458 58.0003 28.4626 58.2225 28.1877 58.2225Z" fill="#E8AA51"/>
<path d="M27.2713 47.111C27.2713 48.0555 26.6756 48.7777 25.8967 48.7777H24.064C23.2851 48.7777 22.6895 48.0555 22.6895 47.111C22.6895 46.1666 23.2851 45.4443 24.064 45.4443H25.8967C26.6756 45.4443 27.2713 46.1666 27.2713 47.111Z" fill="#FFCD85"/>
<path d="M40.7418 22.5553L42.4829 27.6664C42.8494 28.7775 42.4371 30.1109 41.4749 30.5553C40.5585 30.9998 39.4589 30.4998 39.0923 29.3331L36.6182 22.1664L38.3134 21.3331C39.2756 20.8887 40.3294 21.4442 40.7418 22.5553Z" fill="#FFCD85"/>
<path d="M39.6422 24.3336C39.6422 25.4447 38.9549 26.3336 38.0843 26.5002L36.6182 22.2224L36.8931 22.1113H37.8094C38.8174 22.1113 39.6422 23.1113 39.6422 24.3336Z" fill="#E8AA51"/>
<path d="M38.5425 30.4449V37.6671C38.5425 38.8893 39.3672 39.8893 40.3752 39.8893H42.2079C43.2159 39.8893 44.0407 38.8893 44.0407 37.6671V30.4449C44.0407 29.2227 43.2159 28.2227 42.2079 28.2227H40.3752C39.3672 28.2227 38.5425 29.2227 38.5425 30.4449Z" fill="#FFCD85"/>
<path d="M40.3752 35.4449H42.2079C43.2159 35.4449 44.0407 36.4449 44.0407 37.6671V30.4449C44.0407 29.2227 43.2159 28.2227 42.2079 28.2227H40.3752C39.3672 28.2227 38.5425 29.2227 38.5425 30.4449V37.6671C38.5425 36.4449 39.3672 35.4449 40.3752 35.4449Z" fill="#E8AA51"/>
<path d="M41.0166 37.001H41.4748C42.2537 37.001 42.8493 37.7232 42.8493 38.6676V40.8343C42.8493 41.1121 42.7119 41.2788 42.5744 41.501C42.5286 41.501 40.8333 43.6676 40.8333 43.6676C40.6042 43.9454 40.1919 44.001 39.9169 43.6676L39.6879 43.3899C39.4588 43.1121 39.4588 42.6121 39.6879 42.2788L41.2915 40.3343V39.1677L40.5126 40.1121C40.2835 40.3899 39.8711 40.3899 39.5962 40.1121L39.3671 39.8343C39.138 39.5565 39.138 39.0565 39.3671 38.7232L40.4209 37.4454C40.4668 37.3899 40.6042 37.2232 40.65 37.1677C40.7417 37.0565 40.8791 37.001 41.0166 37.001Z" fill="#9226A5"/>
<path d="M19.2989 22.5553L17.5578 27.6664C17.1913 28.7775 17.6036 30.1109 18.5658 30.5553C19.4822 30.9998 20.5818 30.4998 20.9484 29.3331L23.4225 22.1664L21.7273 21.3331C20.7651 20.8887 19.7113 21.4442 19.2989 22.5553Z" fill="#FFCD85"/>
<path d="M20.3984 24.3336C20.3984 25.4447 21.0857 26.3336 21.9563 26.5002L23.4224 22.2224L23.1475 22.1113H22.2312C21.2232 22.1113 20.3984 23.1113 20.3984 24.3336Z" fill="#E8AA51"/>
<path d="M21.4982 30.4449V37.6671C21.4982 38.8893 20.6735 39.8893 19.6655 39.8893H17.8327C16.8247 39.8893 16 38.8893 16 37.6671V30.4449C16 29.2227 16.8247 28.2227 17.8327 28.2227H19.6655C20.6735 28.2227 21.4982 29.2227 21.4982 30.4449Z" fill="#FFCD85"/>
<path d="M19.6655 35.4449H17.8327C16.8247 35.4449 16 36.4449 16 37.6671V30.4449C16 29.2227 16.8247 28.2227 17.8327 28.2227H19.6655C20.6735 28.2227 21.4982 29.2227 21.4982 30.4449V37.6671C21.4982 36.4449 20.6735 35.4449 19.6655 35.4449Z" fill="#E8AA51"/>
<path d="M19.0241 37.001H18.566C17.787 37.001 17.1914 37.7232 17.1914 38.6676V40.8343C17.1914 41.1121 17.3289 41.2788 17.4663 41.501C17.5121 41.501 19.2074 43.6676 19.2074 43.6676C19.4365 43.9454 19.8489 44.001 20.1238 43.6676L20.3529 43.3899C20.582 43.1121 20.582 42.6121 20.3529 42.2788L18.7492 40.3343V39.1677L19.5281 40.1121C19.7572 40.3899 20.1696 40.3899 20.4445 40.1121L20.6736 39.8343C20.9027 39.5565 20.9027 39.0565 20.6736 38.7232L19.6198 37.4454C19.574 37.3899 19.4365 37.2232 19.3907 37.1677C19.299 37.0565 19.1616 37.001 19.0241 37.001Z" fill="#9226A5"/>
<path d="M33.2277 23.7775H26.8132C26.5383 23.7775 26.355 23.5553 26.355 23.2219V21.5552C26.355 20.333 27.1797 19.333 28.1877 19.333H31.8532C32.8612 19.333 33.6859 20.333 33.6859 21.5552V23.2219C33.6859 23.5553 33.5026 23.7775 33.2277 23.7775Z" fill="#692F31"/>
<path d="M37.3512 26.0001H22.2312C21.2232 26.0001 20.3984 25.0001 20.3984 23.7779C20.3984 22.5557 21.2232 21.5557 22.2312 21.5557H37.3512C38.3592 21.5557 39.1839 22.5557 39.1839 23.7779C39.1839 25.0001 38.3592 26.0001 37.3512 26.0001Z" fill="#9226A5"/>
<path d="M34.6023 35.4445H25.4387L22.3689 26.1112C21.6358 23.9446 22.9645 21.5557 24.9347 21.5557H35.1521C37.0765 21.5557 38.4052 23.9446 37.718 26.1112L34.6023 35.4445Z" fill="#FFCD85"/>
<path d="M26.8131 39.8888H33.2276V38.7777C33.2276 38.1666 33.64 37.6666 34.144 37.6666H35.9767C35.9767 36.4443 35.152 35.4443 34.144 35.4443H25.8967C24.8887 35.4443 24.064 36.4443 24.064 37.6666H25.8967C26.4007 37.6666 26.8131 38.1666 26.8131 38.7777V39.8888Z" fill="#9226A5"/>
<path d="M34.6023 28.2217C34.6023 29.4439 33.7776 30.4439 32.7696 30.4439H27.2714C26.2634 30.4439 25.4387 29.4439 25.4387 28.2217H23.0562L25.4387 35.4439H34.6023L36.9849 28.2217H34.6023Z" fill="#E8AA51"/>
<path d="M32.7692 29.8886H27.271C26.4921 29.8886 25.8965 29.1664 25.8965 28.2219V25.9997C25.8965 25.0552 26.4921 24.333 27.271 24.333H32.7692C33.5481 24.333 34.1438 25.0552 34.1438 25.9997V28.2219C34.1438 29.1664 33.5481 29.8886 32.7692 29.8886Z" fill="#E8AA51"/>
<path d="M27.2712 28.7777C26.9963 28.7777 26.813 28.5555 26.813 28.2221V25.9999C26.813 25.6666 26.9963 25.4443 27.2712 25.4443H32.7694C33.0443 25.4443 33.2275 25.6666 33.2275 25.9999V28.2221C33.2275 28.5555 33.0443 28.7777 32.7694 28.7777H27.2712Z" fill="#23D9FD"/>
<path d="M32.7694 25.4443H27.2712C26.9963 25.4443 26.813 25.6666 26.813 25.9999V27.111C26.813 26.7777 26.9963 26.5555 27.2712 26.5555H32.7694C33.0443 26.5555 33.2275 26.7777 33.2275 27.111V25.9999C33.2275 25.6666 33.0443 25.4443 32.7694 25.4443Z" fill="#2195E8"/>
<path d="M22.2313 3.77821V8.77817C22.2313 9.1115 22.048 9.33372 21.7731 9.33372C21.4982 9.33372 21.3149 9.1115 21.3149 8.77817V3.77821C21.3149 3.44488 21.4982 3.22266 21.7731 3.22266C22.048 3.22266 22.2313 3.44488 22.2313 3.77821Z" fill="#9226A5"/>
<path d="M38.7254 3.77821V8.77817C38.7254 9.1115 38.5422 9.33372 38.2673 9.33372C37.9924 9.33372 37.8091 9.1115 37.8091 8.77817V3.77821C37.8091 3.44488 37.9924 3.22266 38.2673 3.22266C38.5422 3.22266 38.7254 3.44488 38.7254 3.77821Z" fill="#9226A5"/>
<path d="M38.4967 12.3887H21.5439V14.0553H38.4967V12.3887Z" fill="#9226A5"/>
<path d="M30.0203 1C25.1636 1 21.1774 5.44444 20.6734 11.1667C20.6276 11.8333 21.0399 12.3889 21.5898 12.3889H38.4509C39.0007 12.3889 39.413 11.8333 39.3672 11.1667C38.8632 5.44444 34.877 1 30.0203 1Z" fill="#FFCD85"/>
<path d="M30.0203 20.4446C25.2094 20.4446 21.2232 20.3334 20.6734 15.3334C20.5817 14.6668 21.0399 14.0557 21.5897 14.0557H38.405C38.9548 14.0557 39.3672 14.6668 39.3214 15.3334C38.8174 20.3334 34.8312 20.4446 30.0203 20.4446Z" fill="#FFCD85"/>
<path d="M30.02 18.7779C26.2629 18.7779 22.964 18.7223 21.0854 17.0557C22.2767 20.389 25.8505 20.4445 30.02 20.4445C34.1895 20.4445 37.7633 20.389 38.9545 17.0557C37.076 18.7223 33.7771 18.7779 30.02 18.7779Z" fill="#E8AA51"/>
<path d="M35.5182 15.7225H24.5219C23.239 15.7225 22.231 14.5003 22.231 12.9448C22.231 11.3892 23.239 10.167 24.5219 10.167H35.5182C36.8011 10.167 37.8091 11.3892 37.8091 12.9448C37.8091 14.5003 36.8011 15.7225 35.5182 15.7225Z" fill="#401113"/>
<path d="M32.0818 17.9441H27.9582C27.6833 17.9441 27.5 17.7219 27.5 17.3886C27.5 17.0552 27.6833 16.833 27.9582 16.833H32.0818C32.3567 16.833 32.54 17.0552 32.54 17.3886C32.54 17.7219 32.3567 17.9441 32.0818 17.9441Z" fill="#2195E8"/>
<path d="M34.6021 14.0552H32.7694C32.2654 14.0552 31.853 13.5552 31.853 12.9441C31.853 12.333 32.2654 11.833 32.7694 11.833H34.6021C35.1061 11.833 35.5185 12.333 35.5185 12.9441C35.5185 13.5552 35.1061 14.0552 34.6021 14.0552Z" fill="#23D9FD"/>
<path d="M27.2711 14.0552H25.4383C24.9343 14.0552 24.522 13.5552 24.522 12.9441C24.522 12.333 24.9343 11.833 25.4383 11.833H27.2711C27.7751 11.833 28.1874 12.333 28.1874 12.9441C28.1874 13.5552 27.7751 14.0552 27.2711 14.0552Z" fill="#23D9FD"/>
</svg>
