<svg width="172" height="172" viewBox="0 0 172 172" fill="none" xmlns="http://www.w3.org/2000/svg">
<g filter="url(#filter0_d_5347_109191)">
<rect x="19" y="19" width="130" height="130" rx="10" fill="white"/>
<rect x="19.5" y="19.5" width="129" height="129" rx="9.5" stroke="#369CB7"/>
</g>
<rect width="117" height="117" transform="translate(26 26)" fill="white"/>
<path d="M41.6801 99.0013L59.273 98.5253L88.576 92.3153L105.172 99.2006L123.718 99.0013L127.296 95.7579L121.69 84.1016L47.4632 86.0166L36.9717 93.4665L41.6801 99.0013Z" fill="#2B2A25"/>
<path d="M50.509 104.79C54.8287 104.79 58.3306 101.291 58.3306 96.9744C58.3306 92.6582 54.8287 89.1592 50.509 89.1592C46.1893 89.1592 42.6875 92.6582 42.6875 96.9744C42.6875 101.291 46.1893 104.79 50.509 104.79Z" fill="#777464"/>
<path d="M53.4437 89.7803C55.7148 91.1418 57.7201 93.4001 57.8309 96.245C57.9749 100.13 56.2355 104.547 49.6548 104.37C48.6134 104.337 47.3948 104.093 46.4863 103.717C47.6607 104.425 49.3668 104.758 50.8402 104.758C55.1609 104.758 58.3294 101.326 58.3294 97.0198C58.3183 93.7432 56.302 90.9426 53.4437 89.7803Z" fill="#424038"/>
<path d="M50.5089 101.734C53.1399 101.734 55.2728 99.6027 55.2728 96.9738C55.2728 94.345 53.1399 92.2139 50.5089 92.2139C47.878 92.2139 45.7451 94.345 45.7451 96.9738C45.7451 99.6027 47.878 101.734 50.5089 101.734Z" fill="#B7B29E"/>
<path d="M50.5089 101.347C52.9257 101.347 54.8849 99.389 54.8849 96.9741C54.8849 94.5592 52.9257 92.6016 50.5089 92.6016C48.092 92.6016 46.1328 94.5592 46.1328 96.9741C46.1328 99.389 48.092 101.347 50.5089 101.347Z" fill="#969283"/>
<path d="M50.5092 100.074C52.2224 100.074 53.6113 98.6863 53.6113 96.9745C53.6113 95.2627 52.2224 93.875 50.5092 93.875C48.796 93.875 47.4072 95.2627 47.4072 96.9745C47.4072 98.6863 48.796 100.074 50.5092 100.074Z" fill="#777464"/>
<path d="M50.9514 99.033C50.9514 99.2766 50.752 99.4869 50.4972 99.4869C50.2535 99.4869 50.043 99.2876 50.043 99.033V94.904C50.043 94.6605 50.2424 94.4502 50.4972 94.4502C50.7409 94.4502 50.9514 94.6494 50.9514 94.904V99.033Z" fill="#969283"/>
<path d="M52.568 96.4746C52.8117 96.4746 53.0222 96.6739 53.0222 96.9285C53.0222 97.172 52.8228 97.3823 52.568 97.3823H48.4357C48.1919 97.3823 47.9814 97.1831 47.9814 96.9285C47.9814 96.6849 48.1809 96.4746 48.4357 96.4746H52.568Z" fill="#969283"/>
<path d="M52.2927 98.1246C52.47 98.3017 52.47 98.5784 52.2927 98.7555C52.1155 98.9326 51.8385 98.9326 51.6612 98.7555L48.7365 95.8331C48.5592 95.656 48.5592 95.3793 48.7365 95.2022C48.9137 95.0251 49.1907 95.0251 49.3679 95.2022L52.2927 98.1246Z" fill="#969283"/>
<path d="M51.6261 95.1797C51.8033 95.0026 52.0803 95.0026 52.2576 95.1797C52.4348 95.3568 52.4348 95.6336 52.2576 95.8107L49.3328 98.7331C49.1555 98.9102 48.8786 98.9102 48.7013 98.7331C48.524 98.5559 48.524 98.2792 48.7013 98.1021L51.6261 95.1797Z" fill="#969283"/>
<path d="M50.5076 98.7663C51.4988 98.7663 52.3024 97.9634 52.3024 96.973C52.3024 95.9826 51.4988 95.1797 50.5076 95.1797C49.5164 95.1797 48.7129 95.9826 48.7129 96.973C48.7129 97.9634 49.5164 98.7663 50.5076 98.7663Z" fill="#969283"/>
<path opacity="0.4" d="M43.4299 96.587L44.0946 96.0667C44.0946 96.0667 44.1722 93.6314 46.5762 91.816C48.7698 90.1666 51.4509 90.4544 51.4509 90.4544L51.7057 89.9342C51.7057 89.9342 48.3378 89.5246 46.0112 91.4064C43.2083 93.6868 43.4299 96.587 43.4299 96.587Z" fill="#969283"/>
<path d="M50.5103 95.0593C50.6266 95.0593 50.7208 94.9652 50.7208 94.849C50.7208 94.7328 50.6266 94.6387 50.5103 94.6387C50.394 94.6387 50.2998 94.7328 50.2998 94.849C50.2998 94.9652 50.394 95.0593 50.5103 95.0593Z" fill="#B7B29E"/>
<path d="M51.983 95.656C52.0992 95.656 52.1934 95.5618 52.1934 95.4457C52.1934 95.3295 52.0992 95.2354 51.983 95.2354C51.8667 95.2354 51.7725 95.3295 51.7725 95.4457C51.7725 95.5618 51.8667 95.656 51.983 95.656Z" fill="#B7B29E"/>
<path d="M52.6783 97.1511C52.7945 97.1511 52.8888 97.0569 52.8888 96.9408C52.8888 96.8246 52.7945 96.7305 52.6783 96.7305C52.562 96.7305 52.4678 96.8246 52.4678 96.9408C52.4678 97.0569 52.562 97.1511 52.6783 97.1511Z" fill="#B7B29E"/>
<path d="M52.0601 98.7566C52.1764 98.7566 52.2706 98.6624 52.2706 98.5463C52.2706 98.4301 52.1764 98.3359 52.0601 98.3359C51.9439 98.3359 51.8496 98.4301 51.8496 98.5463C51.8496 98.6624 51.9439 98.7566 52.0601 98.7566Z" fill="#B7B29E"/>
<path d="M50.4878 99.3103C50.6041 99.3103 50.6983 99.2161 50.6983 99.1C50.6983 98.9838 50.6041 98.8896 50.4878 98.8896C50.3716 98.8896 50.2773 98.9838 50.2773 99.1C50.2773 99.2161 50.3716 99.3103 50.4878 99.3103Z" fill="#B7B29E"/>
<path d="M49.0025 98.6677C49.1187 98.6677 49.213 98.5736 49.213 98.4574C49.213 98.3412 49.1187 98.2471 49.0025 98.2471C48.8862 98.2471 48.792 98.3412 48.792 98.4574C48.792 98.5736 48.8862 98.6677 49.0025 98.6677Z" fill="#B7B29E"/>
<path d="M48.4146 97.1628C48.5308 97.1628 48.6251 97.0687 48.6251 96.9525C48.6251 96.8364 48.5308 96.7422 48.4146 96.7422C48.2983 96.7422 48.2041 96.8364 48.2041 96.9525C48.2041 97.0687 48.2983 97.1628 48.4146 97.1628Z" fill="#B7B29E"/>
<path d="M49.0025 95.656C49.1187 95.656 49.213 95.5618 49.213 95.4457C49.213 95.3295 49.1187 95.2354 49.0025 95.2354C48.8862 95.2354 48.792 95.3295 48.792 95.4457C48.792 95.5618 48.8862 95.656 49.0025 95.656Z" fill="#B7B29E"/>
<path d="M50.5085 97.9597C51.053 97.9597 51.4945 97.5186 51.4945 96.9745C51.4945 96.4304 51.053 95.9893 50.5085 95.9893C49.9639 95.9893 49.5225 96.4304 49.5225 96.9745C49.5225 97.5186 49.9639 97.9597 50.5085 97.9597Z" fill="#B7B29E"/>
<path d="M114.855 104.79C119.174 104.79 122.676 101.291 122.676 96.9744C122.676 92.6582 119.174 89.1592 114.855 89.1592C110.535 89.1592 107.033 92.6582 107.033 96.9744C107.033 101.291 110.535 104.79 114.855 104.79Z" fill="#777464"/>
<path d="M117.789 89.7803C120.061 91.1418 122.066 93.4001 122.177 96.245C122.321 100.13 120.581 104.547 114.001 104.37C112.959 104.337 111.74 104.093 110.832 103.717C112.006 104.425 113.712 104.758 115.186 104.758C119.507 104.758 122.675 101.326 122.675 97.0198C122.664 93.7432 120.648 90.9426 117.789 89.7803Z" fill="#424038"/>
<path d="M114.855 101.734C117.486 101.734 119.618 99.6027 119.618 96.9738C119.618 94.345 117.486 92.2139 114.855 92.2139C112.224 92.2139 110.091 94.345 110.091 96.9738C110.091 99.6027 112.224 101.734 114.855 101.734Z" fill="#B7B29E"/>
<path d="M114.855 101.347C117.271 101.347 119.231 99.389 119.231 96.9741C119.231 94.5592 117.271 92.6016 114.855 92.6016C112.438 92.6016 110.479 94.5592 110.479 96.9741C110.479 99.389 112.438 101.347 114.855 101.347Z" fill="#969283"/>
<path d="M114.855 100.074C116.568 100.074 117.957 98.6863 117.957 96.9745C117.957 95.2627 116.568 93.875 114.855 93.875C113.142 93.875 111.753 95.2627 111.753 96.9745C111.753 98.6863 113.142 100.074 114.855 100.074Z" fill="#777464"/>
<path d="M115.298 99.033C115.298 99.2766 115.099 99.4869 114.844 99.4869C114.6 99.4869 114.39 99.2876 114.39 99.033V94.904C114.39 94.6605 114.589 94.4502 114.844 94.4502C115.088 94.4502 115.298 94.6494 115.298 94.904V99.033Z" fill="#969283"/>
<path d="M116.915 96.4746C117.158 96.4746 117.369 96.6739 117.369 96.9285C117.369 97.172 117.169 97.3823 116.915 97.3823H112.782C112.539 97.3823 112.328 97.1831 112.328 96.9285C112.328 96.6849 112.528 96.4746 112.782 96.4746H116.915Z" fill="#969283"/>
<path d="M116.649 98.1246C116.826 98.3017 116.826 98.5784 116.649 98.7555C116.472 98.9326 116.195 98.9326 116.018 98.7555L113.093 95.8331C112.916 95.656 112.916 95.3793 113.093 95.2022C113.27 95.0251 113.547 95.0251 113.724 95.2022L116.649 98.1246Z" fill="#969283"/>
<path d="M115.984 95.1797C116.162 95.0026 116.439 95.0026 116.616 95.1797C116.793 95.3568 116.793 95.6336 116.616 95.8107L113.691 98.7331C113.514 98.9102 113.237 98.9102 113.06 98.7331C112.882 98.5559 112.882 98.2792 113.06 98.1021L115.984 95.1797Z" fill="#969283"/>
<path d="M114.854 98.7663C115.846 98.7663 116.649 97.9634 116.649 96.973C116.649 95.9826 115.846 95.1797 114.854 95.1797C113.863 95.1797 113.06 95.9826 113.06 96.973C113.06 97.9634 113.863 98.7663 114.854 98.7663Z" fill="#969283"/>
<path opacity="0.4" d="M107.774 96.587L108.439 96.0667C108.439 96.0667 108.516 93.6314 110.92 91.816C113.114 90.1666 115.795 90.4544 115.795 90.4544L116.05 89.9342C116.05 89.9342 112.682 89.5246 110.355 91.4064C107.564 93.6868 107.774 96.587 107.774 96.587Z" fill="#969283"/>
<path d="M114.856 95.0593C114.972 95.0593 115.066 94.9652 115.066 94.849C115.066 94.7328 114.972 94.6387 114.856 94.6387C114.74 94.6387 114.646 94.7328 114.646 94.849C114.646 94.9652 114.74 95.0593 114.856 95.0593Z" fill="#B7B29E"/>
<path d="M116.329 95.656C116.445 95.656 116.539 95.5618 116.539 95.4457C116.539 95.3295 116.445 95.2354 116.329 95.2354C116.212 95.2354 116.118 95.3295 116.118 95.4457C116.118 95.5618 116.212 95.656 116.329 95.656Z" fill="#B7B29E"/>
<path d="M117.037 97.1511C117.153 97.1511 117.247 97.0569 117.247 96.9408C117.247 96.8246 117.153 96.7305 117.037 96.7305C116.92 96.7305 116.826 96.8246 116.826 96.9408C116.826 97.0569 116.92 97.1511 117.037 97.1511Z" fill="#B7B29E"/>
<path d="M116.406 98.7566C116.522 98.7566 116.616 98.6624 116.616 98.5463C116.616 98.4301 116.522 98.3359 116.406 98.3359C116.29 98.3359 116.195 98.4301 116.195 98.5463C116.195 98.6624 116.29 98.7566 116.406 98.7566Z" fill="#B7B29E"/>
<path d="M114.833 99.3103C114.949 99.3103 115.043 99.2161 115.043 99.1C115.043 98.9838 114.949 98.8896 114.833 98.8896C114.716 98.8896 114.622 98.9838 114.622 99.1C114.622 99.2161 114.716 99.3103 114.833 99.3103Z" fill="#B7B29E"/>
<path d="M113.36 98.6677C113.476 98.6677 113.57 98.5736 113.57 98.4574C113.57 98.3412 113.476 98.2471 113.36 98.2471C113.244 98.2471 113.149 98.3412 113.149 98.4574C113.149 98.5736 113.244 98.6677 113.36 98.6677Z" fill="#B7B29E"/>
<path d="M112.761 97.1628C112.878 97.1628 112.972 97.0687 112.972 96.9525C112.972 96.8364 112.878 96.7422 112.761 96.7422C112.645 96.7422 112.551 96.8364 112.551 96.9525C112.551 97.0687 112.645 97.1628 112.761 97.1628Z" fill="#B7B29E"/>
<path d="M113.36 95.656C113.476 95.656 113.57 95.5618 113.57 95.4457C113.57 95.3295 113.476 95.2354 113.36 95.2354C113.244 95.2354 113.149 95.3295 113.149 95.4457C113.149 95.5618 113.244 95.656 113.36 95.656Z" fill="#B7B29E"/>
<path d="M114.855 97.9597C115.4 97.9597 115.841 97.5186 115.841 96.9745C115.841 96.4304 115.4 95.9893 114.855 95.9893C114.311 95.9893 113.869 96.4304 113.869 96.9745C113.869 97.5186 114.311 97.9597 114.855 97.9597Z" fill="#B7B29E"/>
<path d="M41.6796 99.0009C41.6796 99.0009 34.0354 98.1374 33.2599 97.0858C32.4954 96.0342 33.4482 95.4586 33.4482 95.4586C33.4482 95.4586 32.6838 86.9571 33.5479 85.8058C34.412 84.6546 39.0983 81.0237 46.0779 79.4076C50.609 78.356 53.6335 78.356 53.6335 78.356C53.6335 78.356 58.2201 75.8763 64.1471 72.81C70.0742 69.7548 74.0847 66.2347 83.845 65.3602C94.4583 64.4082 105.736 63.3566 117.114 64.4967C128.492 65.648 130.974 66.6 130.974 66.6C130.974 66.6 132.979 69.7548 134.796 76.2527C136.613 82.7506 136.712 85.042 136.712 85.042L136.613 87.4331L137.853 88.7725C137.853 88.7725 138.33 92.1155 137.565 93.8313C136.801 95.5471 134.596 97.5618 134.596 97.5618L123.695 98.9898C123.695 98.9898 123.473 94.6616 122.831 93.0675C121.878 90.6765 118.865 88.2854 115.319 88.3851C111.686 88.4847 107.908 89.5806 106.667 93.9752C105.692 97.4068 106.002 99.178 106.002 99.178L59.2504 98.5138C59.2504 98.5138 59.3944 95.8349 58.4416 93.2557C57.5221 90.7761 55.1402 88.4293 51.6061 88.1969C46.6872 87.8648 44.0505 90.1119 42.8096 92.4919C41.5799 94.894 41.6796 99.0009 41.6796 99.0009Z" fill="#FC8730"/>
<path d="M55.8815 79.8177C55.8815 79.8177 65.4535 74.8474 70.9264 71.3937C77.3409 67.3532 86.8575 66.7776 92.7735 66.1356C102.777 65.0507 124.902 65.9917 126.718 67.3311C128.535 68.6705 131.139 73.7183 130.186 74.4821C129.233 75.2459 128.868 75.6887 127.439 75.9765C126.009 76.2643 105.071 78.0798 91.7542 78.113C68.0348 78.1794 54.3527 81.2346 55.8815 79.8177Z" fill="#2B2A25"/>
<path d="M73.3304 71.4942C73.1642 71.1621 70.2727 72.579 66.2733 75.0476C63.3485 76.8519 60.5234 79.0105 60.5234 79.0105L61.4762 79.8408L65.4091 79.4422C65.4091 79.4422 66.1403 78.6452 67.5916 77.0401C71.1257 73.1104 73.5187 71.8706 73.3304 71.4942Z" fill="#97C1BF"/>
<path d="M72.1778 74.669L69.1201 79.0636L87.2448 78.2666L89.9259 67.1416C89.9259 67.1416 85.2839 67.6176 81.9381 68.2375C78.5924 68.8574 76.3877 70.0861 76.3877 70.0861L72.1778 74.669Z" fill="#97C1BF"/>
<path d="M93.2608 66.9982L92.1641 78.1232L103.221 77.7911L112.66 77.2155C112.66 77.2155 112.194 73.3411 111.718 71.0497C111.242 68.7582 110.566 66.7989 110.566 66.7989C110.566 66.7989 108.649 66.6107 103.01 66.5554C97.371 66.5222 93.2608 66.9982 93.2608 66.9982Z" fill="#97C1BF"/>
<path d="M113.691 66.8873C112.683 67.0534 113.735 69.1787 113.979 70.8503C114.223 72.5218 114.367 75.0568 114.987 75.3889C115.607 75.7209 118.388 75.6213 121.102 75.5328C125.501 75.3889 128.326 74.625 128.47 73.817C128.614 73.0089 127.528 69.7765 125.478 68.4371C123.418 67.0976 115.463 66.5995 113.691 66.8873Z" fill="#97C1BF"/>
<path d="M52.8697 82.485C52.0055 83.0606 45.1035 85.3299 45.1035 85.3299L126.576 83.0385L129.888 77.1826L52.8697 82.485Z" fill="#FFAC48"/>
<path d="M60.6133 93.2347L102.923 93.611L88.2988 91.6074L64.4908 91.6517L60.6133 93.2347Z" fill="#FFAC48"/>
<path d="M41.6803 99.002C41.6803 99.002 41.6359 97.1644 41.9794 95.2383H33.4377C33.4488 95.3822 33.4599 95.4707 33.4599 95.4707C33.4599 95.4707 32.5071 96.0464 33.2716 97.098C34.0249 98.1496 41.6803 99.002 41.6803 99.002Z" fill="#686866"/>
<path d="M123.351 95.2373C123.616 97.0195 123.716 99.001 123.716 99.001L134.618 97.573C134.618 97.573 135.803 96.4882 136.734 95.2373H123.351Z" fill="#686866"/>
<path d="M58.9951 95.2367C59.3496 97.0521 59.2721 98.5243 59.2721 98.5243L106.024 99.1885C106.024 99.1885 105.791 97.8491 106.379 95.2256H58.9951V95.2367Z" fill="#686866"/>
<path d="M40.9371 86.5147C40.7045 85.8062 33.3815 86.1383 33.3815 86.1383C33.3815 86.1383 32.4287 86.3597 32.185 87.7323C31.3762 92.2709 33.4812 92.9351 33.4812 92.9351L35.1873 92.9683C35.2095 92.9572 41.1698 87.2231 40.9371 86.5147Z" fill="#97C1BF"/>
<path d="M34.0126 86.8027C34.0126 86.8027 33.1263 87.8101 32.9491 88.3525C32.7718 88.8949 32.7607 90.8432 32.7607 90.8432L33.5362 90.8985C33.5362 90.8985 33.5141 89.1606 33.8797 88.585C34.5555 87.5444 36.3945 86.8249 36.3945 86.8249L34.0126 86.8027Z" fill="white"/>
<path d="M136.292 82.0414C136.292 82.0414 132.835 81.8311 132.492 81.8311C132.148 81.8311 131.639 82.2074 131.639 82.6723C131.639 83.1373 131.893 86.1482 131.982 86.5246C132.071 86.9009 132.58 87.2773 133.179 87.2773C133.777 87.2773 136.757 87.3659 136.757 87.3659L136.846 84.997L136.292 82.0414Z" fill="#B52C1A"/>
<path d="M132.47 82.4297L132.769 86.603H133.988L133.688 82.3965L132.47 82.4297Z" fill="#F23325"/>
<path d="M64.8008 95.5242L64.7786 95.4024C64.7676 95.336 63.5046 88.2846 65.2107 83.1483C66.1302 80.403 67.371 78.6872 67.3821 78.665L67.6148 78.8311C67.6037 78.8532 66.385 80.5358 65.4877 83.2368C63.9145 87.9414 64.8894 94.2844 65.0445 95.2253L89.8275 94.9375C89.5727 94.0187 88.4537 89.8122 88.7307 85.7496C89.1628 79.3514 90.1377 76.916 90.1709 76.8164L90.4368 76.9271C90.4257 76.9492 89.4397 79.4289 89.0077 85.7718C88.7085 90.2771 90.1377 94.9928 90.1488 95.0371L90.2041 95.2253H90.0158L64.8008 95.5242Z" fill="#2B2A25"/>
<path d="M104.627 95.3802L90.0146 95.2363V94.9485L104.373 95.0924C104.461 94.5943 104.827 92.7124 105.957 91.0077C108.283 87.4543 113.723 86.8455 114.332 86.7902C114.487 86.6241 115.219 85.6832 114.975 83.2147C114.698 80.3919 113.269 75.2666 113.258 75.2113L113.535 75.1338C113.546 75.1891 114.975 80.3365 115.263 83.1814C115.551 86.0928 114.543 86.9894 114.498 87.0337L114.465 87.0669H114.421C114.366 87.0669 108.582 87.5318 106.212 91.1627C104.971 93.0667 104.661 95.2363 104.661 95.2585L104.627 95.3802Z" fill="#2B2A25"/>
<path d="M120.283 82.4835C118.621 82.4835 117.27 81.5204 117.27 80.336C117.27 79.1515 118.621 78.1885 120.283 78.1885C121.945 78.1885 123.296 79.1515 123.296 80.336C123.296 81.5204 121.945 82.4835 120.283 82.4835ZM120.283 78.4652C118.776 78.4652 117.558 79.2954 117.558 80.3249C117.558 81.3544 118.776 82.1846 120.283 82.1846C121.79 82.1846 123.008 81.3544 123.008 80.3249C123.008 79.3065 121.779 78.4652 120.283 78.4652Z" fill="#2B2A25"/>
<path d="M86.7705 82.4404C86.8369 83.005 86.4381 83.5031 85.8731 83.5695L81.8183 84.0344C81.2533 84.1008 80.7547 83.7023 80.6883 83.1378L80.644 82.7946C80.5775 82.2301 80.9763 81.7319 81.5413 81.6655L85.5961 81.2006C86.1611 81.1342 86.6597 81.5327 86.7262 82.0972L86.7705 82.4404Z" fill="#FC8730"/>
<path d="M87.0905 81.2239C87.1237 81.5228 86.9133 81.7995 86.6031 81.8327L80.2661 82.5633C79.967 82.5965 79.69 82.3862 79.6568 82.0762C79.6235 81.7774 79.834 81.5006 80.1442 81.4674L86.4812 80.7368C86.7803 80.7036 87.0573 80.914 87.0905 81.2239Z" fill="#2B2A25"/>
<path d="M112.151 80.8584C112.218 81.4229 111.819 81.921 111.254 81.9874L107.199 82.4524C106.634 82.5188 106.136 82.1203 106.069 81.5557L106.025 81.2126C105.958 80.648 106.357 80.1499 106.922 80.0835L110.977 79.6186C111.542 79.5521 112.041 79.9506 112.107 80.5152L112.151 80.8584Z" fill="#FC8730"/>
<path d="M112.462 79.6399C112.495 79.9388 112.284 80.2155 111.974 80.2487L105.637 80.9793C105.338 81.0125 105.061 80.8022 105.028 80.4923C104.995 80.1934 105.205 79.9166 105.515 79.8834L111.852 79.1529C112.162 79.1196 112.428 79.33 112.462 79.6399Z" fill="#2B2A25"/>
<defs>
<filter id="filter0_d_5347_109191" x="0" y="0" width="172" height="172" filterUnits="userSpaceOnUse" color-interpolation-filters="sRGB">
<feFlood flood-opacity="0" result="BackgroundImageFix"/>
<feColorMatrix in="SourceAlpha" type="matrix" values="0 0 0 0 0 0 0 0 0 0 0 0 0 0 0 0 0 0 127 0" result="hardAlpha"/>
<feMorphology radius="1" operator="dilate" in="SourceAlpha" result="effect1_dropShadow_5347_109191"/>
<feOffset dx="2" dy="2"/>
<feGaussianBlur stdDeviation="10"/>
<feColorMatrix type="matrix" values="0 0 0 0 0.211765 0 0 0 0 0.611765 0 0 0 0 0.717647 0 0 0 0.29 0"/>
<feBlend mode="normal" in2="BackgroundImageFix" result="effect1_dropShadow_5347_109191"/>
<feBlend mode="normal" in="SourceGraphic" in2="effect1_dropShadow_5347_109191" result="shape"/>
</filter>
</defs>
</svg>
