<svg width="60" height="84" viewBox="0 0 60 84" fill="none" xmlns="http://www.w3.org/2000/svg">
<path d="M9.28913 27.5983C5.27101 34.3515 4.39648 46.7227 6.65372 54.2367C7.59916 57.3968 9.25367 60.4515 11.8891 62.4646C15.6827 65.3555 20.9889 65.7535 24.688 68.7614C26.4016 70.1542 27.737 72.3663 27.1934 74.4964C26.4252 77.4927 22.3598 79.1312 22.4071 82.2211C24.5225 79.4706 28.3279 77.5863 29.6397 74.3911C30.6679 71.863 30.0888 68.8785 28.5288 66.6313C26.9807 64.3841 24.558 62.8275 21.9817 61.8794C20.2799 61.2591 18.4835 60.8612 16.8763 60.0302C14.1227 58.6023 12.1491 55.9221 11.1446 53.0078C10.14 50.0818 10.0337 46.9217 10.3527 43.8552C10.9673 37.9329 13.13 32.1746 16.5808 27.3057L9.28913 27.5983Z" fill="url(#paint0_linear_5304_92847)"/>
<path d="M43.8799 76.8723C46.0662 74.6836 46.1135 70.7745 43.9863 68.5273C41.2681 65.6598 36.0682 65.6715 34.1655 62.2305C32.6174 59.4333 34.1773 56.0508 35.1582 53.0194C36.6237 48.5017 36.7655 43.504 35.1701 39.0331C33.5628 34.5621 30.1592 30.6764 25.7393 28.8271C24.4157 29.5879 22.7021 30.138 21.2012 30.4423C23.5648 32.1628 25.952 33.895 27.8783 36.0837C29.8047 38.2723 31.2701 40.9877 31.4237 43.8786C31.6365 47.6239 29.7101 51.1117 28.5638 54.6931C27.4174 58.2745 27.2993 62.7689 30.2419 65.1448C31.6601 66.2918 33.5155 66.6898 35.2764 67.193C37.5691 67.8368 39.8618 68.738 41.54 70.4117C43.2181 72.0736 44.8254 74.707 43.8799 76.8723Z" fill="url(#paint1_linear_5304_92847)"/>
<path d="M40.7365 80.3835C38.8929 79.9856 37.4393 78.4874 36.7657 76.7435C36.092 74.9996 36.1275 73.0685 36.482 71.2309C37.6757 65.0044 42.2847 59.9599 44.3174 53.944C47.4019 44.8266 43.5965 33.8833 35.513 28.5696C33.3621 28.5696 31.9557 28.4994 29.8994 29.1431C35.7375 33.3566 40.1574 39.864 40.3583 47.0269C40.4292 49.4029 40.0629 51.7905 39.2711 54.0377C37.1084 60.2057 31.8257 65.5193 32.0503 72.0385C32.1094 73.8878 32.6412 75.7136 33.5748 77.317C34.9812 79.693 38.0066 80.8868 40.7365 80.3835Z" fill="url(#paint2_linear_5304_92847)"/>
<path d="M13.9455 24.871C15.4464 27.3288 16.5691 30.0091 17.29 32.7829C18.2591 36.5399 18.4718 40.531 17.5027 44.2763C16.3918 48.5717 13.8037 52.3287 12.0664 56.4134C10.3292 60.4981 9.51376 65.4372 11.8892 69.2059C14.1582 72.8108 19.0154 74.8122 19.8663 78.9788C20.209 80.6525 19.7954 82.3964 19.1691 83.9881C21.2727 82.2325 22.3717 79.0607 21.7572 76.4039C20.8118 72.3426 16.64 69.6156 15.7182 65.5543C14.9619 62.1952 16.6046 58.801 18.3418 55.8399C20.02 52.9841 21.8517 50.1985 23.1872 47.1789C24.5226 44.1593 25.3617 40.8236 24.9362 37.5465C24.1681 31.671 19.5591 26.9777 17.9164 21.2778L13.9455 24.871Z" fill="url(#paint3_linear_5304_92847)"/>
<path d="M9.66755 30.4423C9.66755 30.4423 12.5984 36.0836 7.42213 39.6768C2.24585 43.2699 -0.354112 47.8813 1.89131 52.6683C4.13673 57.4553 8.28485 57.1158 8.28485 57.1158C8.28485 57.1158 3.79401 55.2315 3.10856 50.7839C2.42312 46.3364 4.14855 44.1126 7.42213 42.0644C10.7075 40.0162 11.913 38.1319 12.2557 35.5687C12.5984 33.0055 11.7357 29.5879 11.7357 29.5879L9.66755 30.4423Z" fill="#F06BA0"/>
<path d="M15.6472 29.8689C11.3218 34.3281 11.1682 42.1347 15.3281 46.7461C17.5145 49.1806 20.5635 50.667 22.998 52.8556C25.4207 55.056 27.2289 58.5789 25.8343 61.5283C25.1489 62.9796 23.8253 64.0096 22.5253 64.9576C21.2253 65.9056 19.8663 66.8654 19.0508 68.2465C18.2354 69.6275 18.1526 71.5704 19.299 72.6823C18.8854 71.1139 19.6772 68.9721 20.9653 67.9656C22.2535 66.9707 23.8253 66.3621 25.1253 65.3673C27.8552 63.2839 29.1316 59.4918 28.1743 56.203C27.1225 52.5747 23.8607 50.0935 20.9181 47.6941C17.9754 45.2948 14.9736 42.3103 14.7963 38.5299C14.6309 34.8314 17.2899 31.5777 20.2208 29.272L15.6472 29.8689Z" fill="#F06BA0"/>
<path d="M49.1984 64.6298C50.6638 63.1785 52.992 59.3279 48.8557 53.8621C44.7076 48.3846 39.5313 50.9595 32.1096 45.482C24.6879 40.0045 30.2187 29.5996 30.2187 29.5996C29.3796 29.8454 28.8478 30.337 28.056 30.7232C26.1887 34.4334 26.0469 38.9511 27.6778 42.7784C29.3087 46.5939 32.665 49.6604 36.6477 50.9244C40.0276 52.0012 43.9394 51.9309 46.7048 54.1547C48.5839 55.6645 50.3684 58.3799 49.3402 60.5451C48.6902 61.9028 48.6902 63.0966 46.7875 63.951C44.8848 64.8054 42.9939 67.2047 43.5021 68.0591C44.0103 68.9135 48.3357 65.4842 49.1984 64.6298Z" fill="#E34784"/>
<path d="M39.8858 30.6059C39.8858 30.6059 36.6004 38.4711 42.6512 41.0342C48.6902 43.5974 56.2892 42.5675 59.3973 51.9775C62.5055 61.3876 52.8383 67.8833 51.9756 67.1928C51.1129 66.514 55.9465 62.2303 57.5064 59.6671C59.0546 57.1039 59.2319 50.6082 55.6037 47.6939C51.9756 44.7912 44.5539 44.2763 41.4458 42.2164C38.3376 40.1681 36.0922 36.7389 37.4749 31.6125C38.8458 26.4978 39.8858 30.6059 39.8858 30.6059Z" fill="#E34784"/>
<path d="M11.3924 27.8673C11.3924 27.8673 4.49069 36.7624 6.03885 43.937C7.58701 51.1232 16.4032 50.9477 19.1568 58.2978C22.1232 66.2098 9.83243 70.9499 9.31244 70.4349C8.79245 69.9199 10.3524 67.1812 13.4606 66.1629C16.5687 65.133 18.6368 61.2004 17.6087 58.6372C16.5687 56.0741 8.88699 50.9477 6.90156 48.8878C3.10799 44.9552 3.45071 39.8288 5.17614 35.8963C6.90156 31.9637 9.66698 27.1768 9.66698 27.1768L11.3924 27.8673Z" fill="#E34784"/>
<path d="M23.1871 27.8906C23.1871 27.8906 15.7654 41.7365 22.8444 47.0384C29.9234 52.3404 35.6197 53.8736 35.6197 58.6606C35.6197 63.4475 31.4716 65.3319 31.4716 67.8951C31.4716 70.4583 33.197 73.5364 34.5797 73.0215C35.9624 72.5065 32.8543 69.2645 34.237 66.3501C35.6197 63.4475 37.6878 62.4176 37.0024 57.4551C36.317 52.4925 31.1288 48.7355 27.3353 46.3362C23.5417 43.9369 21.4617 44.288 22.5017 37.1017C23.5417 29.9154 25.7871 27.8672 25.7871 27.8672H23.1871V27.8906Z" fill="#E34784"/>
<path d="M21.5914 29.4004C21.5914 29.4004 24.6995 35.0418 21.2487 39.8287C17.7978 44.6157 15.3751 46.1606 16.4151 51.287C17.4551 56.4134 21.9459 57.9583 21.9459 57.9583C21.9459 57.9583 17.6324 54.3652 17.9751 49.7538C18.3178 45.1424 22.4659 42.9186 24.7114 38.986C26.9568 35.0535 24.5341 27.8672 24.5341 27.8672L21.5914 29.4004Z" fill="#F06BA0"/>
<path d="M31.6013 28.8971C31.6013 28.8971 27.1105 37.2772 32.1213 42.0642C37.1321 46.8511 41.4457 47.7055 40.063 53.183C38.6803 58.6605 35.7494 58.9999 35.7494 58.9999C35.7494 58.9999 40.063 59.3393 41.623 53.5224C43.1711 47.7055 39.8739 45.2243 36.7894 42.7547C33.1613 39.8521 31.4359 38.3072 31.6131 34.2107C31.7904 30.1026 34.0358 28.23 34.0358 28.23L31.6013 28.8971Z" fill="#F06BA0"/>
<path d="M34.6976 30.0913C34.6976 30.0913 31.4122 36.2476 36.943 38.4714C42.4738 40.6952 47.4729 38.2959 48.6783 43.5978C49.8837 48.8997 45.7474 52.3173 45.7474 52.3173C45.7474 52.3173 51.101 49.2392 50.7583 44.2766C50.4155 39.3141 46.4447 38.4597 40.7484 37.4415C35.0521 36.4115 34.7094 34.1877 36.6003 30.0913H34.6976Z" fill="#F06BA0"/>
<path d="M0.331595 24.6253C-1.91383 16.5963 7.49331 0 23.5303 0C39.0001 0 49.0336 15.3908 47.0245 23.5954C45.0155 31.7999 30.1248 31.7999 23.2467 31.7999C16.3686 31.7999 1.76157 29.7517 0.331595 24.6253Z" fill="url(#paint4_linear_5304_92847)"/>
<path d="M23.5298 0C10.3409 0 1.64287 11.2242 0.212891 19.6745C0.248345 19.8384 0.283799 20.0139 0.331071 20.1778C1.76105 25.3042 16.3681 27.3641 23.2462 27.3641C30.1243 27.3641 45.0149 27.3641 47.024 19.1595C47.0358 19.1127 47.0358 19.0659 47.0476 19.0191C45.5468 10.6975 36.4351 0 23.5298 0Z" fill="url(#paint5_linear_5304_92847)"/>
<mask id="mask0_5304_92847" style="mask-type:alpha" maskUnits="userSpaceOnUse" x="4" y="2" width="39" height="21">
<path d="M4.89266 17.6615C3.09632 12.5703 10.6244 2.03662 23.4469 2.03662C35.8204 2.03662 43.8448 11.7978 42.2375 17.0061C40.6303 22.2144 28.7178 22.2144 23.2224 22.2144C17.727 22.2261 6.03901 20.927 4.89266 17.6615Z" fill="url(#paint6_linear_5304_92847)"/>
</mask>
<g mask="url(#mask0_5304_92847)">
<path d="M4.89266 17.6615C3.09632 12.5703 10.6244 2.03662 23.4469 2.03662C35.8204 2.03662 43.8448 11.7978 42.2375 17.0061C40.6303 22.2144 28.7178 22.2144 23.2224 22.2144C17.727 22.2261 6.03901 20.927 4.89266 17.6615Z" fill="url(#paint7_linear_5304_92847)"/>
<path d="M18.9559 3.41761C17.5969 0.713975 9.78517 6.14466 10.6479 9.22282C11.5106 12.301 19.8187 5.1264 18.9559 3.41761Z" fill="#FFE1EF"/>
<path d="M8.63915 12.3009C7.091 11.5636 5.7792 14.7003 6.92554 15.3791C8.07189 16.0696 10.0691 12.9915 8.63915 12.3009Z" fill="#FFE1EF"/>
</g>
<path d="M23.8253 26.4393C21.8989 26.4393 20.0671 25.1284 19.4644 23.3143C19.3817 23.0802 19.5117 22.8227 19.7481 22.7408C19.9844 22.6589 20.2444 22.7876 20.3271 23.0217C20.8117 24.473 22.2889 25.5264 23.8253 25.5264C25.3734 25.5264 26.8389 24.473 27.3234 23.0217C27.4061 22.7876 27.6543 22.6589 27.9025 22.7291C28.1388 22.811 28.2688 23.0568 28.1979 23.3026C27.5952 25.1167 25.7516 26.4393 23.8253 26.4393Z" fill="#E34784"/>
<path d="M19.606 19.4055C21.6033 17.6967 22.1705 14.5132 20.8824 12.3011C19.5942 10.089 16.9115 9.69109 14.9143 11.4116C12.917 13.1321 12.3498 16.3039 13.6379 18.516C14.9379 20.728 17.597 21.126 19.606 19.4055Z" fill="#F06BA0"/>
<path d="M20.3268 16.6552C20.7641 14.923 19.7714 13.1674 18.105 12.746C16.4387 12.3247 14.7133 13.3781 14.276 15.122C13.8387 16.8542 14.8315 18.6098 16.4978 19.0311C18.1641 19.4525 19.8777 18.3874 20.3268 16.6552Z" fill="white"/>
<path d="M19.5708 16.1752C19.9017 14.8995 19.1808 13.612 17.9753 13.296C16.7699 12.9917 15.5172 13.7759 15.1981 15.0516C14.8672 16.3274 15.5881 17.6148 16.7935 17.9308C17.999 18.2351 19.2517 17.451 19.5708 16.1752Z" fill="#2F363C"/>
<path opacity="0.46" d="M18.3295 14.4781C18.5659 14.2206 18.5659 13.8227 18.3295 13.5886C18.0932 13.3545 17.7032 13.3662 17.4668 13.6237C17.2305 13.8812 17.2305 14.2791 17.4668 14.5132C17.715 14.7473 18.0932 14.7356 18.3295 14.4781Z" fill="white"/>
<path opacity="0.46" d="M17.5617 18.4576C17.928 18.0713 17.928 17.4627 17.5617 17.0999C17.1953 16.7371 16.6162 16.7605 16.2499 17.1467C15.8835 17.533 15.8835 18.1416 16.2499 18.5044C16.6162 18.8672 17.1953 18.8438 17.5617 18.4576Z" fill="white"/>
<path d="M27.9377 19.4055C25.9405 17.6967 25.3732 14.5132 26.6614 12.3011C27.9614 10.089 30.6322 9.69109 32.6295 11.4116C34.6267 13.1204 35.194 16.3039 33.9058 18.516C32.6058 20.728 29.935 21.126 27.9377 19.4055Z" fill="#F06BA0"/>
<path d="M27.2169 16.6552C26.7797 14.923 27.7724 13.1674 29.4387 12.746C31.1051 12.3247 32.8305 13.3781 33.2678 15.122C33.705 16.8542 32.7123 18.6098 31.046 19.0311C29.3678 19.4525 27.6542 18.3874 27.2169 16.6552Z" fill="white"/>
<path d="M27.9613 16.1752C27.6304 14.8995 28.3513 13.612 29.5567 13.296C30.7622 12.9917 32.0149 13.7759 32.334 15.0516C32.6649 16.3274 31.944 17.6148 30.7385 17.9308C29.5331 18.2351 28.2922 17.451 27.9613 16.1752Z" fill="#2F363C"/>
<path opacity="0.46" d="M29.2022 14.4781C28.9658 14.2206 28.9658 13.8227 29.2022 13.5886C29.4385 13.3545 29.8285 13.3662 30.0649 13.6237C30.3012 13.8812 30.3012 14.2791 30.0649 14.5132C29.8285 14.7473 29.4385 14.7356 29.2022 14.4781Z" fill="white"/>
<path opacity="0.46" d="M29.9701 18.4576C29.6037 18.0713 29.6037 17.4627 29.9701 17.0999C30.3364 16.7371 30.9155 16.7605 31.2819 17.1467C31.6482 17.533 31.6482 18.1416 31.2819 18.5044C30.9273 18.8672 30.3364 18.8438 29.9701 18.4576Z" fill="white"/>
<defs>
<linearGradient id="paint0_linear_5304_92847" x1="30.952" y1="67.0898" x2="-1.56469" y2="31.4015" gradientUnits="userSpaceOnUse">
<stop stop-color="#FF69CD"/>
<stop offset="0.9946" stop-color="#FFBFD7"/>
</linearGradient>
<linearGradient id="paint1_linear_5304_92847" x1="21.2021" y1="52.8437" x2="45.5535" y2="52.8437" gradientUnits="userSpaceOnUse">
<stop stop-color="#FF69CD"/>
<stop offset="0.9946" stop-color="#FFBFD7"/>
</linearGradient>
<linearGradient id="paint2_linear_5304_92847" x1="29.8913" y1="54.5371" x2="45.3774" y2="54.5371" gradientUnits="userSpaceOnUse">
<stop stop-color="#FF69CD"/>
<stop offset="0.9946" stop-color="#FFBFD7"/>
</linearGradient>
<linearGradient id="paint3_linear_5304_92847" x1="10.4086" y1="52.6447" x2="25.0439" y2="52.6447" gradientUnits="userSpaceOnUse">
<stop stop-color="#FF69CD"/>
<stop offset="0.9946" stop-color="#FFBFD7"/>
</linearGradient>
<linearGradient id="paint4_linear_5304_92847" x1="0.00069135" y1="15.9023" x2="47.2795" y2="15.9023" gradientUnits="userSpaceOnUse">
<stop stop-color="#FF69CD"/>
<stop offset="0.9946" stop-color="#FFBFD7"/>
</linearGradient>
<linearGradient id="paint5_linear_5304_92847" x1="31.2289" y1="41.5022" x2="16.1069" y2="-3.85631" gradientUnits="userSpaceOnUse">
<stop stop-color="#FF69CD"/>
<stop offset="0.9946" stop-color="#FFBFD7"/>
</linearGradient>
<linearGradient id="paint6_linear_5304_92847" x1="32.2279" y1="21.1102" x2="10.0669" y2="3.61574" gradientUnits="userSpaceOnUse">
<stop/>
<stop offset="0.9946" stop-color="white"/>
</linearGradient>
<linearGradient id="paint7_linear_5304_92847" x1="32.2279" y1="21.1102" x2="10.0669" y2="3.61574" gradientUnits="userSpaceOnUse">
<stop stop-color="#FFA8E1"/>
<stop offset="0.9946" stop-color="#FFBFD7"/>
</linearGradient>
</defs>
</svg>
