<svg width="70" height="30" viewBox="0 0 70 30" fill="none" xmlns="http://www.w3.org/2000/svg">
<path d="M39.552 19.434V21H30.498V19.776L35.628 14.826C36.252 14.226 36.672 13.71 36.888 13.278C37.104 12.834 37.212 12.39 37.212 11.946C37.212 11.286 36.978 10.776 36.51 10.416C36.054 10.044 35.394 9.858 34.53 9.858C33.138 9.858 32.064 10.314 31.308 11.226L30.084 10.164C30.576 9.564 31.218 9.096 32.01 8.76C32.814 8.424 33.708 8.256 34.692 8.256C36.012 8.256 37.062 8.574 37.842 9.21C38.622 9.834 39.012 10.686 39.012 11.766C39.012 12.438 38.868 13.074 38.58 13.674C38.292 14.274 37.746 14.958 36.942 15.726L33.09 19.434H39.552Z" fill="#2F2F2F"/>
<path d="M5 1H65V-1H5V1ZM69 5V25H71V5H69ZM65 29H5V31H65V29ZM1 25V5H-1V25H1ZM5 29C2.79086 29 1 27.2091 1 25H-1C-1 28.3137 1.68629 31 5 31V29ZM69 25C69 27.2091 67.2091 29 65 29V31C68.3137 31 71 28.3137 71 25H69ZM65 1C67.2091 1 69 2.79086 69 5H71C71 1.68629 68.3137 -1 65 -1V1ZM5 -1C1.68629 -1 -1 1.68629 -1 5H1C1 2.79086 2.79086 1 5 1V-1Z" fill="#2F2F2F"/>
</svg>
