<svg width="130" height="130" viewBox="0 0 130 130" fill="none" xmlns="http://www.w3.org/2000/svg">
<rect width="130" height="130" rx="10" fill="white"/>
<rect width="117" height="117" transform="translate(7 7)" fill="white"/>
<path d="M17.9326 49.1134L66.6291 39C66.6291 39 110.976 53.7269 118.103 56.9119C105.456 58.406 60.4396 65.4493 60.4396 65.4493L17.9326 49.1134Z" fill="#D48BAA"/>
<path d="M17.9333 49.1143C12.0449 51.2978 10.9241 67.8799 17.3478 72.9038C23.7548 77.9277 61.7451 91.0784 61.7451 91.0784C61.7451 91.0784 51.8586 79.3068 61.26 65.0725C42.1394 57.668 28.7064 52.7755 17.9333 49.1143Z" fill="#C67699"/>
<path d="M57.529 74.1177C45.9194 70.3252 22.4661 62.461 13.1985 57.9297C12.8472 60.5566 12.9643 63.3969 13.5331 65.9909C20.6092 70.0625 44.7651 78.2551 57.8635 82.573C57.2446 80.1595 56.9769 77.3028 57.529 74.1177Z" fill="#D48BAA"/>
<path d="M25.7111 66.2045C20.0234 64.6448 20.3579 67.4851 25.4936 69.0284C30.6292 70.5553 42.0213 74.824 45.9693 75.8254C49.9005 76.8434 49.4153 74.1016 44.8317 72.6075C40.2314 71.1463 25.7111 66.2045 25.7111 66.2045Z" fill="#DEB4CC"/>
<path d="M108.333 73.1982C108.333 73.1982 112.95 76.1042 115.074 77.1221C117.216 78.1236 120.863 80.9639 117.316 81.9818C112.699 83.2953 61.8612 89.4027 61.8612 89.4027L57.9468 84.855L108.333 73.1982Z" fill="#D48BAA"/>
<path d="M113.737 57.4365C111.997 60.1455 107.781 69.8977 113.201 78.2544C93.5956 81.4559 59.7707 86.2664 59.7707 86.2664C59.7707 86.2664 51.122 76.6619 60.4398 65.4485C72.9025 63.5604 113.737 57.4365 113.737 57.4365Z" fill="#F7EDCB"/>
<path d="M66.161 68.3044C75.2445 66.9253 99.4506 63.2969 111.863 61.4253C112.499 59.6357 113.218 58.2402 113.72 57.4521C113.72 57.4521 72.8858 63.576 60.4398 65.4477C51.122 76.6611 59.7707 86.2656 59.7707 86.2656C59.7707 86.2656 61.0922 86.0686 63.3673 85.7566C61.5941 81.9805 60.2056 75.479 66.161 68.3044Z" fill="#D5C9A0"/>
<path d="M61.7451 91.0927C61.4273 91.0762 61.1429 90.9613 60.8752 90.7643C54.6355 85.9703 53.9497 77.433 55.2712 71.5718C56.2916 67.0076 58.4161 63.9539 60.9421 63.4449C65.6428 62.4598 114.239 56.1061 116.297 55.8434C117.2 55.7285 118.036 56.3688 118.137 57.3046C118.237 58.2404 117.585 59.0777 116.698 59.2091C116.196 59.2747 66.1447 65.8255 61.5778 66.7613C60.7916 66.9255 59.3028 68.7643 58.4998 72.327C57.4459 77.0225 57.8641 83.721 62.3641 87.6285C81.6687 84.7553 116.397 79.4852 116.748 79.4359C117.652 79.2882 118.488 79.9449 118.622 80.8643C118.756 81.8001 118.12 82.6539 117.217 82.8016C116.849 82.8509 81.2839 88.2524 62.1131 91.0927C61.9793 91.0927 61.8622 91.1091 61.7451 91.0927Z" fill="#AD6484"/>
<path d="M65.6919 69.5859C65.6919 69.5859 93.1768 64.4799 106.459 64.168C94.2976 66.6471 65.6919 69.5859 65.6919 69.5859Z" fill="#AEA27B"/>
<path d="M59.1514 77.6971C59.1514 77.6971 71.0453 74.0687 99.1491 72.7061C86.9876 75.1852 59.1514 77.6971 59.1514 77.6971Z" fill="#AEA27B"/>
<path d="M68.8374 81.1779C68.8374 81.1779 96.3222 76.0719 109.605 75.7764C97.4431 78.2391 68.8374 81.1779 68.8374 81.1779Z" fill="#AEA27B"/>
<path d="M82.8062 90.0934C82.8062 90.0934 82.6891 90.8157 82.4716 91.3575C80.9326 88.9605 80.0292 87.2859 77.5534 84.1501C77.5534 84.1501 76.3322 89.4531 75.2282 92.868C75.0441 93.4426 74.8099 93.5904 74.5423 94.0008C73.572 86.6948 71.4141 78.9292 70.5107 77.468C70.6613 77.2381 70.7784 76.6307 70.8118 76.0889C75.4791 76.4336 82.8062 90.0934 82.8062 90.0934Z" fill="#567166"/>
<path d="M79.1596 75.6615C79.1596 75.6615 82.4217 81.7197 82.8065 90.1093C81.2674 87.7123 80.1299 86.0705 77.6541 82.9347C77.6541 82.9347 76.4998 89.8794 75.2285 92.8839C74.392 85.3317 71.6987 77.566 70.7954 76.1048C75.4794 74.6272 79.1596 75.6615 79.1596 75.6615Z" fill="#719786"/>
<path d="M73.7559 84.8559L81.1331 80.7021C81.3841 81.441 81.6015 82.2454 81.8023 83.1156L79.5774 85.4305C79.0253 84.6917 78.4064 83.8872 77.6536 82.935C77.6536 82.935 77.1852 85.7753 76.4993 88.5992L74.8767 90.2902C74.5755 88.4021 74.1908 86.5469 73.7559 84.8559Z" fill="#89B3A2"/>
<path d="M80.4806 78.7483C80.6646 79.2408 80.8487 79.7826 81.0327 80.3573L72.7019 81.1125C72.267 79.6677 71.8153 78.4528 71.4473 77.5498L80.4806 78.7483Z" fill="#89B3A2"/>
<path d="M80.8491 87.1547C81.2841 86.8427 81.9198 86.3666 82.4049 86.0547C82.4885 86.5472 82.5554 87.0562 82.6056 87.5816L81.6521 88.3204C81.3844 87.9427 81.1168 87.5487 80.8491 87.1547Z" fill="#89B3A2"/>
</svg>
