<svg width="170" height="160" viewBox="0 0 170 160" fill="none" xmlns="http://www.w3.org/2000/svg">
<rect x="0.5" y="0.5" width="169" height="159" rx="4.5" stroke="#D0D0D0"/>
<path d="M46 69.617C46 64.0257 41.7372 60 37.4009 60C33.7261 60 30.4922 62.4602 29.5367 65.8895C28.5813 62.4602 25.2739 60 21.5991 60C17.2628 60 13 64.0257 13 69.617C13 78.1157 25.8619 87.8817 29.0223 88.8509C29.0958 88.8509 29.1693 88.9254 29.2428 88.9254C29.3163 88.9254 29.4633 89 29.5367 89C29.6102 89 29.6837 89 29.8307 88.9254C29.9042 88.9254 29.9777 88.9254 30.0512 88.8509C33.1381 87.8817 46 78.1157 46 69.617Z" fill="#DA4632"/>
<path d="M93.9521 69.617C93.9521 64.0257 89.6893 60 85.353 60C81.6782 60 78.4444 62.4602 77.4889 65.8895C76.5334 62.4602 73.2261 60 69.5513 60C65.215 60 60.9521 64.0257 60.9521 69.617C60.9521 78.1157 73.8141 87.8817 76.9744 88.8509C77.0479 88.8509 77.1214 88.9254 77.1949 88.9254C77.2684 88.9254 77.4154 89 77.4889 89C77.5624 89 77.6359 89 77.7829 88.9254C77.8564 88.9254 77.9299 88.9254 78.0034 88.8509C81.0902 87.8817 93.9521 78.1157 93.9521 69.617Z" fill="#DA4632"/>
<path d="M141.905 69.617C141.905 64.0257 137.642 60 133.305 60C129.631 60 126.397 62.4602 125.441 65.8895C124.486 62.4602 121.178 60 117.504 60C113.167 60 108.905 64.0257 108.905 69.617C108.905 78.1157 121.766 87.8817 124.927 88.8509C125 88.8509 125.074 88.9254 125.147 88.9254C125.221 88.9254 125.368 89 125.441 89C125.515 89 125.588 89 125.735 88.9254C125.809 88.9254 125.882 88.9254 125.956 88.8509C129.043 87.8817 141.905 78.1157 141.905 69.617Z" fill="#DA4632"/>
<path d="M46 119.617C46 114.026 41.7372 110 37.4009 110C33.7261 110 30.4922 112.46 29.5367 115.889C28.5813 112.46 25.2739 110 21.5991 110C17.2628 110 13 114.026 13 119.617C13 128.116 25.8619 137.882 29.0223 138.851C29.0958 138.851 29.1693 138.925 29.2428 138.925C29.3163 138.925 29.4633 139 29.5367 139C29.6102 139 29.6837 139 29.8307 138.925C29.9042 138.925 29.9777 138.925 30.0512 138.851C33.1381 137.882 46 128.116 46 119.617Z" fill="#DA4632"/>
<path d="M93.9521 119.617C93.9521 114.026 89.6893 110 85.353 110C81.6782 110 78.4444 112.46 77.4889 115.889C76.5334 112.46 73.2261 110 69.5513 110C65.215 110 60.9521 114.026 60.9521 119.617C60.9521 128.116 73.8141 137.882 76.9744 138.851C77.0479 138.851 77.1214 138.925 77.1949 138.925C77.2684 138.925 77.4154 139 77.4889 139C77.5624 139 77.6359 139 77.7829 138.925C77.8564 138.925 77.9299 138.925 78.0034 138.851C81.0902 137.882 93.9521 128.116 93.9521 119.617Z" fill="#DA4632"/>
<path d="M141.905 119.617C141.905 114.026 137.642 110 133.305 110C129.631 110 126.397 112.46 125.441 115.889C124.486 112.46 121.178 110 117.504 110C113.167 110 108.905 114.026 108.905 119.617C108.905 128.116 121.766 137.882 124.927 138.851C125 138.851 125.074 138.925 125.147 138.925C125.221 138.925 125.368 139 125.441 139C125.515 139 125.588 139 125.735 138.925C125.809 138.925 125.882 138.925 125.956 138.851C129.043 137.882 141.905 128.116 141.905 119.617Z" fill="#DA4632"/>
<path d="M0 5C0 2.23858 2.23858 0 5 0H165C167.761 0 170 2.23858 170 5V45H0V5Z" fill="#FFE5E1"/>
<path d="M101.598 17.617C101.598 12.0257 97.3096 8 92.9476 8C89.251 8 85.9981 10.4602 85.0369 13.8895C84.0758 10.4602 80.7489 8 77.0523 8C72.6904 8 68.4023 12.0257 68.4023 17.617C68.4023 26.1157 81.3404 35.8817 84.5194 36.8509C84.5934 36.8509 84.6673 36.9254 84.7412 36.9254C84.8151 36.9254 84.963 37 85.0369 37C85.1109 37 85.1848 37 85.3327 36.9254C85.4066 36.9254 85.4805 36.9254 85.5545 36.8509C88.6596 35.8817 101.598 26.1157 101.598 17.617Z" fill="#DA4632"/>
</svg>
