<svg width="169" height="160" viewBox="0 0 169 160" fill="none" xmlns="http://www.w3.org/2000/svg">
<rect x="0.5" y="0.5" width="168" height="159" rx="4.5" stroke="#D0D0D0"/>
<path d="M0 5C0 2.23858 2.23858 0 5 0H164C166.761 0 169 2.23858 169 5V45H0V5Z" fill="#DEF0AA"/>
<path d="M84.9526 5L90.7717 14.9907L102.072 17.4377L94.3681 26.0593L95.5328 37.5623L84.9526 32.9L74.3725 37.5623L75.5372 26.0593L67.8336 17.4377L79.1336 14.9907L84.9526 5Z" fill="#98C11F"/>
<path d="M30.0957 57L35.9148 66.9907L47.2147 69.4377L39.5112 78.0593L40.6758 89.5623L30.0957 84.9L19.5156 89.5623L20.6802 78.0593L12.9767 69.4377L24.2766 66.9907L30.0957 57Z" fill="#98C11F"/>
<path d="M78.0479 57L83.8669 66.9907L95.1669 69.4377L87.4633 78.0593L88.628 89.5623L78.0479 84.9L67.4677 89.5623L68.6324 78.0593L60.9288 69.4377L72.2288 66.9907L78.0479 57Z" fill="#98C11F"/>
<path d="M126 57L131.819 66.9907L143.119 69.4377L135.415 78.0593L136.58 89.5623L126 84.9L115.42 89.5623L116.585 78.0593L108.881 69.4377L120.181 66.9907L126 57Z" fill="#98C11F"/>
<path d="M30.0957 107L35.9148 116.991L47.2147 119.438L39.5112 128.059L40.6758 139.562L30.0957 134.9L19.5156 139.562L20.6802 128.059L12.9767 119.438L24.2766 116.991L30.0957 107Z" fill="#98C11F"/>
</svg>
