<svg width="29" height="29" viewBox="0 0 29 29" fill="none" xmlns="http://www.w3.org/2000/svg">
<path d="M14.5 29C22.5081 29 29 22.5081 29 14.5C29 6.49187 22.5081 0 14.5 0C6.49187 0 0 6.49187 0 14.5C0 22.5081 6.49187 29 14.5 29Z" fill="#FFB47D"/>
<path d="M14.5 29C22.5081 29 29 22.5081 29 14.5C29 6.49187 22.5081 0 14.5 0C6.49187 0 0 6.49187 0 14.5C0 22.5081 6.49187 29 14.5 29Z" fill="#FFB47D"/>
<path d="M9.52985 21.5953C9.02301 21.5953 8.50515 21.408 8.11951 21.0224C7.3262 20.2401 7.31518 18.962 8.09748 18.1686L18.0469 8.02085C18.8292 7.22753 20.1074 7.21651 20.9007 7.98779C21.694 8.77009 21.705 10.0482 20.9227 10.8415L10.9732 20.9893C10.5766 21.397 10.0477 21.5953 9.52985 21.5953Z" fill="white"/>
<path d="M19.4793 21.5956C19.9862 21.5956 20.504 21.4083 20.8897 21.0226C21.683 20.2403 21.694 18.9622 20.9117 18.1689L10.9732 8.0101C10.1909 7.21679 8.91283 7.20577 8.11951 7.97705C7.3262 8.75934 7.31518 10.0375 8.09748 10.8308L18.0469 20.9786C18.4326 21.3973 18.9504 21.5956 19.4793 21.5956Z" fill="white"/>
</svg>
