<svg width="24" height="24" viewBox="0 0 24 24" fill="none" xmlns="http://www.w3.org/2000/svg">
<g clip-path="url(#clip0_5738_19092)">
<path d="M19.7216 6.22969C18.006 4.03594 15.3341 2.625 12.3341 2.625C7.15675 2.625 2.96847 6.8086 2.96143 11.9859C2.9544 17.1703 7.15206 21.375 12.3341 21.375C15.2685 21.375 17.8864 20.0273 19.6044 17.9156C19.67 17.8336 19.656 17.7141 19.5739 17.6484L18.3903 16.725C18.3107 16.6617 18.1958 16.6758 18.1302 16.7531C17.9755 16.943 17.8091 17.1258 17.6333 17.3016C16.9504 17.9868 16.1409 18.5329 15.2497 18.9094C14.3286 19.3031 13.3466 19.5 12.3341 19.5C11.3216 19.5 10.3396 19.3031 9.41612 18.9117C8.52315 18.5344 7.72159 17.993 7.03253 17.3039C6.34347 16.6148 5.80206 15.8133 5.42472 14.9203C5.03331 13.9945 4.83643 13.0125 4.83643 12C4.83643 10.9875 5.03331 10.0055 5.42472 9.08203C5.80206 8.18907 6.34347 7.3875 7.03253 6.69844C7.72159 6.00938 8.52315 5.46797 9.41612 5.09063C10.3396 4.69922 11.3216 4.50235 12.3341 4.50235C13.3466 4.50235 14.3286 4.69922 15.2521 5.09063C16.1432 5.46712 16.9528 6.01317 17.6357 6.69844C17.8536 6.91641 18.0575 7.1461 18.245 7.38516L17.0239 8.33906C16.996 8.36066 16.9748 8.3897 16.9626 8.42284C16.9505 8.45597 16.9479 8.49187 16.9553 8.52639C16.9626 8.56091 16.9795 8.59266 17.0041 8.61798C17.0287 8.6433 17.06 8.66117 17.0942 8.66953L20.8958 9.59766C21.013 9.62578 21.1278 9.53672 21.1278 9.41719L21.1466 5.50313C21.1466 5.3461 20.9661 5.25703 20.8442 5.35547L19.7216 6.22969Z" fill="#369CB7"/>
</g>
<defs>
<clipPath id="clip0_5738_19092">
<rect width="24" height="24" fill="white"/>
</clipPath>
</defs>
</svg>
