<svg width="29" height="29" viewBox="0 0 29 29" fill="none" xmlns="http://www.w3.org/2000/svg">
<path d="M14.5 29C22.5081 29 29 22.5081 29 14.5C29 6.49187 22.5081 0 14.5 0C6.49187 0 0 6.49187 0 14.5C0 22.5081 6.49187 29 14.5 29Z" fill="#9DD765"/>
<path d="M12.8362 22.4553C12.3073 22.4553 11.7894 22.2459 11.4038 21.8603L7.53639 17.9929C6.74308 17.1996 6.74308 15.9215 7.53639 15.1392C8.31869 14.3569 9.5968 14.3459 10.3901 15.1392L12.4395 17.1886L18.3122 7.52558C18.8852 6.57801 20.1302 6.2695 21.0888 6.84245C22.0364 7.42641 22.3449 8.66046 21.7609 9.61904L14.555 21.4857C14.2355 22.0146 13.6846 22.3671 13.0675 22.4443C12.9904 22.4443 12.9133 22.4553 12.8362 22.4553Z" fill="white"/>
</svg>
